<svg width="333" height="52" viewBox="0 0 333 52" fill="none" xmlns="http://www.w3.org/2000/svg">
  <path d="M0.460938 1.48438H9.60156L11.7109 26.0938L32.8047 25.0391L30.5547 0.429688H44.793C45.7539 0.429688 47.207 16.3203 49.1523 48.1016L36.3203 48.5586L34.2461 32.0703L11.7109 33.125L12.7305 49.1562L2.35938 50.7031L0.460938 1.48438ZM97.7031 50H83.6406L76.6094 35.9375H69.5781L62.5469 50H52L64.0938 0.851562L83.6406 0.957031L97.7031 50ZM80.125 27.3594L71.7578 7.8125L66.0625 27.3594H80.125ZM116.688 50.3516L99.1094 0.78125H109.656L122.312 39.4531L129.766 0.78125H143.195L127.234 51.4062L116.688 50.3516ZM190.375 50H176.312L169.281 35.9375H162.25L155.219 50H144.672L156.766 0.851562L176.312 0.957031L190.375 50ZM172.797 27.3594L164.43 7.8125L158.734 27.3594H172.797ZM193.891 0.78125L204.438 5.31641L202.891 38.1172L225.531 39.4531L227.992 50L193.891 50.3516V0.78125ZM250.352 1.48438H259.492L261.602 26.0938L282.695 25.0391L280.445 0.429688H294.684C295.645 0.429688 297.098 16.3203 299.043 48.1016L286.211 48.5586L284.137 32.0703L261.602 33.125L262.621 49.1562L252.25 50.7031L250.352 1.48438ZM304.703 2.01172L332.828 0.78125V9.67578L320.172 20.75L330.789 27.043L332.828 44.0938L314.02 50L302.664 46.4844L304.703 37.3438L315.25 42.9688L322.281 30.2422L308.219 24.4062L324.812 8.86719L304.703 7.8125V2.01172Z" fill="white"/>
</svg>
