<svg width="340" height="54" viewBox="0 0 340 54" fill="none" xmlns="http://www.w3.org/2000/svg">
  <path d="M0.8125 1.78125L11.3594 6.31641L9.8125 39.1172L32.4531 40.4531L34.9141 51L0.8125 51.3516V1.78125ZM83.3594 51H69.2969L62.2656 36.9375H55.2344L48.2031 51H37.6562L49.75 1.85156L69.2969 1.95703L83.3594 51ZM65.7812 28.3594L57.4141 8.8125L51.7188 28.3594H65.7812ZM120.168 51H86.875V1.78125H118.516L132.578 14.1914V40.4531L120.168 51ZM114.016 40.6289L122.559 32.0859V17.8477L96.9297 12.1523V40.6289H114.016ZM181.656 51H167.594L160.562 36.9375H153.531L146.5 51H135.953L148.047 1.85156L167.594 1.95703L181.656 51ZM164.078 28.3594L155.711 8.8125L150.016 28.3594H164.078ZM207.25 22.875L203.734 12.3281L214.281 3.01172L224.828 1.78125L231.859 6.66797L229.363 22.875L214.281 38.8008L231.859 38.0977L230.84 51L203.734 48.75V36.9375L223.738 19.3594L223.492 8.8125H214.281L207.25 22.875ZM242.898 28.0078L239.383 19.3594L253.445 1.78125H267.508L263.992 51C254.617 50.7891 249.93 50.4609 249.93 50.0156L258.684 13.9102L252.285 12.3281L242.898 28.0078ZM281.359 0.621094L294.367 0.832031L302.559 14.7188L304.562 40.1016L300.695 51.8086C299.875 52.1367 293.43 52.6641 281.359 53.3906L274.926 47.2734L273.625 14.7188L281.359 0.621094ZM285.648 10.7109L282.203 22.9453L285.648 43.6172L295.984 37.7812V22.9453L285.648 10.7109ZM335.641 2.0625L339.156 10.9219H318.062L315.531 23.2617L325.094 22.9453L339.156 24.9844V43.5117L323.125 51.5625L311.031 49.9453V41.8945L321.578 46.1484L331.035 40.7695L330.121 30.9961L311.031 29.9062L309.238 3.89062L335.641 2.0625Z" fill="white"/>
</svg>
