<svg width="118" height="75" viewBox="0 0 118 75" fill="none" xmlns="http://www.w3.org/2000/svg">
  <path d="M9.57422 0.65625L15.4336 3.17578L14.5742 21.3984L27.1523 22.1406L28.5195 28L9.57422 28.1953V0.65625ZM55.4336 28H47.6211L43.7148 20.1875H39.8086L35.9023 28H30.043L36.7617 0.695312L47.6211 0.753906L55.4336 28ZM45.668 15.4219L41.0195 4.5625L37.8555 15.4219H45.668ZM75.8828 28H57.3867V0.65625H74.9648L82.7773 7.55078V22.1406L75.8828 28ZM72.4648 22.2383L77.2109 17.4922V9.58203L62.9727 6.41797V22.2383H72.4648ZM110.043 28H102.23L98.3242 20.1875H94.418L90.5117 28H84.6523L91.3711 0.695312L102.23 0.753906L110.043 28ZM100.277 15.4219L95.6289 4.5625L92.4648 15.4219H100.277ZM10.4922 74.1953L0.726562 46.6562H6.58594L13.6172 68.1406L17.7578 46.6562H25.2188L16.3516 74.7812L10.4922 74.1953ZM27.0156 74V46.6562L44.5938 44.7031V50.5625L31.9375 52.5156L31.625 56.4219H44.5938V61.4609L32.875 62.2812V67.5938L44.5938 67.2812V72.9453L27.0156 74ZM62.4453 56.4219H54.8477L65.5312 64.2344L64.7305 73.1992L55.7656 74L46.6445 72.9453L49.9062 65.6211L54.5938 68.1406H58.8711L55.7656 64.2344L47.9531 59.2539L47.4062 51.9297L51.8594 47.2617L59.6719 47.3984L65.5312 50.0156L62.4453 56.4219ZM86.1758 74H74.6523L75.4922 53.6484L67.875 53.1406V46.6562H90.9219V53.2578L83.3047 54.4688L86.1758 74ZM117.719 74H109.906L106 66.1875H102.094L98.1875 74H92.3281L99.0469 46.6953L109.906 46.7539L117.719 74ZM107.953 61.4219L103.305 50.5625L100.141 61.4219H107.953Z" fill="white"/>
</svg>
