<svg width="260" height="19" viewBox="0 0 260 19" fill="none" xmlns="http://www.w3.org/2000/svg">
  <path d="M1.22266 1.59375L9.03906 1.47656L11.7695 6.28125L11.1367 12.5859L4.24609 12.8906L3.41406 18L0.0507812 18.1172L1.22266 1.59375ZM4.9375 4.46484L4.38672 9.49219L7.99609 8.95312L8.37109 6.16406L4.9375 4.46484ZM14.8164 8.625L13.6445 5.10938L17.1602 2.00391L20.6758 1.59375L23.0195 3.22266L22.1875 8.625L17.1602 13.9336L23.0195 13.6992L22.6797 18L13.6445 17.25V13.3125L20.3125 7.45312L20.2305 3.9375H17.1602L14.8164 8.625ZM25.1758 18V1.59375L35.7227 0.421875V3.9375L28.1289 5.10938L27.9414 7.45312H35.7227V10.4766L28.6914 10.9688V14.1562L35.7227 13.9688V17.3672L25.1758 18ZM58.0352 9.79688L57.4023 16.1133L51.543 18L43.7734 17.3672L43.3398 8.625L45.6836 1.59375H51.543L58.1523 2.76562L54.4727 6.28125L48.7773 3.52734L45.8008 8.625L47.043 14.8828L52.1758 15.2227L52.0234 11.7773L48.8242 11.4023L49.1758 9.22266L58.0352 9.79688ZM74.1367 18H69.4492L67.1055 13.3125H64.7617L62.418 18H58.9023L62.9336 1.61719L69.4492 1.65234L74.1367 18ZM68.2773 10.4531L65.4883 3.9375L63.5898 10.4531H68.2773ZM74.8398 18L76.6445 1.59375H80.6992L84.2148 8.625L88.9023 1.59375H93.5898L93.2383 18H87.2031L87.7305 10.2188L83.8047 14.8477L80.1719 9.79688L78.3555 18H74.8398ZM95.1836 18V1.59375L105.73 0.421875V3.9375L98.1367 5.10938L97.9492 7.45312H105.73V10.4766L98.6992 10.9688V14.1562L105.73 13.9688V17.3672L95.1836 18ZM113.957 1.59375H118.41L118.574 18H113.957V1.59375ZM134.605 18H130.574V15.6562L125.16 7.45312L124.246 18H120.027L121.199 1.59375H125.887L130.574 13.3125L132.121 1.59375H135.262L134.605 18ZM153.508 18H146.594L147.098 5.78906L142.527 5.48438V1.59375H156.355V5.55469L151.785 6.28125L153.508 18ZM157.785 18V1.59375L168.332 0.421875V3.9375L160.738 5.10938L160.551 7.45312H168.332V10.4766L161.301 10.9688V14.1562L168.332 13.9688V17.3672L157.785 18ZM170.113 1.59375L173.629 3.10547L173.113 14.0391L180.66 14.4844L181.48 18L170.113 18.1172V1.59375ZM182.98 18V1.59375L193.527 0.421875V3.9375L185.934 5.10938L185.746 7.45312H193.527V10.4766L186.496 10.9688V14.1562L193.527 13.9688V17.3672L182.98 18ZM209.887 9.79688L209.254 16.1133L203.395 18L195.625 17.3672L195.191 8.625L197.535 1.59375H203.395L210.004 2.76562L206.324 6.28125L200.629 3.52734L197.652 8.625L198.895 14.8828L204.027 15.2227L203.875 11.7773L200.676 11.4023L201.027 9.22266L209.887 9.79688ZM224.113 18H219.426L218.254 11.707L216.238 11.6719L215.406 18H211.223L211.996 2.00391L219.426 1.59375L223.703 2.76562L223.281 8.625L220.598 10.9688L224.113 18ZM214.68 8.89453L218.652 8.51953L221.137 5.16797L217.094 3.75L214.656 4.07812L214.68 8.89453ZM240.426 18H235.738L233.395 13.3125H231.051L228.707 18H225.191L229.223 1.61719L235.738 1.65234L240.426 18ZM234.566 10.4531L231.777 3.9375L229.879 10.4531H234.566ZM241.129 18L242.934 1.59375H246.988L250.504 8.625L255.191 1.59375H259.879L259.527 18H253.492L254.02 10.2188L250.094 14.8477L246.461 9.79688L244.645 18H241.129Z" fill="white"/>
</svg>
