<svg width="252" height="49" viewBox="0 0 252 49" fill="none" xmlns="http://www.w3.org/2000/svg">
  <path d="M50.1016 4.74219L52.1016 4.82031L53.2266 5.90625L54.0078 7.46875L52.4453 9.30469L50.3438 9.8125L48.8906 9.03125L48.1016 7.21094L48.5391 5.63281L50.1016 4.74219ZM73.3203 6.53125L72.8984 10.7422L68.9922 12L63.8125 11.5781L63.5234 5.75L65.0859 1.0625H68.9922L73.3984 1.84375L70.9453 4.1875L67.1484 2.35156L65.1641 5.75L65.9922 9.92188L69.4141 10.1484L69.3125 7.85156L67.1797 7.60156L67.4141 6.14844L73.3203 6.53125ZM84.0547 12H80.9297L79.3672 8.875H77.8047L76.2422 12H73.8984L76.5859 1.07812L80.9297 1.10156L84.0547 12ZM80.1484 6.96875L78.2891 2.625L77.0234 6.96875H80.1484ZM84.5234 12L85.7266 1.0625H88.4297L90.7734 5.75L93.8984 1.0625H97.0234L96.7891 12H92.7656L93.1172 6.8125L90.5 9.89844L88.0781 6.53125L86.8672 12H84.5234ZM98.0859 12V1.0625L105.117 0.28125V2.625L100.055 3.40625L99.9297 4.96875H105.117V6.98438L100.43 7.3125V9.4375L105.117 9.3125V11.5781L98.0859 12ZM110.195 1.84375L116.828 1.0625L117.227 3.40625H112.781L112.805 5.75H117.227L116.93 8.09375H113.32L112.852 12H110.195V1.84375ZM118.68 1.0625H121.648L121.758 12H118.68V1.0625ZM132.445 12H129.758V10.4375L126.148 4.96875L125.539 12H122.727L123.508 1.0625H126.633L129.758 8.875L130.789 1.0625H132.883L132.445 12ZM143.68 12H140.555L138.992 8.875H137.43L135.867 12H133.523L136.211 1.07812L140.555 1.10156L143.68 12ZM139.773 6.96875L137.914 2.625L136.648 6.96875H139.773ZM144.461 1.0625L146.805 2.07031L146.461 9.35938L151.492 9.65625L152.039 12L144.461 12.0781V1.0625ZM157.711 1.0625L162.922 0.984375L164.742 4.1875L164.32 8.39062L159.727 8.59375L159.172 12L156.93 12.0781L157.711 1.0625ZM160.188 2.97656L159.82 6.32812L162.227 5.96875L162.477 4.10938L160.188 2.97656ZM165.758 1.21875H167.789L168.258 6.6875L172.945 6.45312L172.445 0.984375H175.609C175.823 0.984375 176.146 4.51562 176.578 11.5781L173.727 11.6797L173.266 8.01562L168.258 8.25L168.484 11.8125L166.18 12.1562L165.758 1.21875ZM187.367 12H184.242L182.68 8.875H181.117L179.555 12H177.211L179.898 1.07812L184.242 1.10156L187.367 12ZM183.461 6.96875L181.602 2.625L180.336 6.96875H183.461ZM194.102 4.96875H191.062L195.336 8.09375L195.016 11.6797L191.43 12L187.781 11.5781L189.086 8.64844L190.961 9.65625H192.672L191.43 8.09375L188.305 6.10156L188.086 3.17188L189.867 1.30469L192.992 1.35938L195.336 2.40625L194.102 4.96875ZM196.43 12V1.0625L203.461 0.28125V2.625L198.398 3.40625L198.273 4.96875H203.461V6.98438L198.773 7.3125V9.4375L203.461 9.3125V11.5781L196.43 12ZM2.44531 22.7422L4.44531 22.8203L5.57031 23.9062L6.35156 25.4688L4.78906 27.3047L2.6875 27.8125L1.23438 27.0312L0.445312 25.2109L0.882812 23.6328L2.44531 22.7422ZM21.8984 22.9688H18.8594L23.1328 26.0938L22.8125 29.6797L19.2266 30L15.5781 29.5781L16.8828 26.6484L18.7578 27.6562H20.4688L19.2266 26.0938L16.1016 24.1016L15.8828 21.1719L17.6641 19.3047L20.7891 19.3594L23.1328 20.4062L21.8984 22.9688ZM31.1016 30H26.4844L24.2969 27.3125C24.224 27.3021 24.1875 27.0755 24.1875 26.6328C24.1875 25.7526 24.3307 24.0104 24.6172 21.4062L26.7422 19.0625H30.3828L33.5234 20.625L32.0156 22.9688L29.0391 21.7031L26.1797 24.8125L28.7578 27.9219L32.8359 26.0938L34.2578 27.6562L31.1016 30ZM44.9297 30H41.8047L40.2422 26.875H38.6797L37.1172 30H34.7734L37.4609 19.0781L41.8047 19.1016L44.9297 30ZM41.0234 24.9688L39.1641 20.625L37.8984 24.9688H41.0234ZM45.7109 19.0625L48.0547 20.0703L47.7109 27.3594L52.7422 27.6562L53.2891 30L45.7109 30.0781V19.0625ZM54.6953 19.0625H57.6641L57.7734 30H54.6953V19.0625ZM68.4609 30H65.7734V28.4375L62.1641 22.9688L61.5547 30H58.7422L59.5234 19.0625H62.6484L65.7734 26.875L66.8047 19.0625H68.8984L68.4609 30ZM79.7266 24.5312L79.3047 28.7422L75.3984 30L70.2188 29.5781L69.9297 23.75L71.4922 19.0625H75.3984L79.8047 19.8438L77.3516 22.1875L73.5547 20.3516L71.5703 23.75L72.3984 27.9219L75.8203 28.1484L75.7188 25.8516L73.5859 25.6016L73.8203 24.1484L79.7266 24.5312ZM91.8281 30H87.2188L87.5547 21.8594L84.5078 21.6562V19.0625H93.7266V21.7031L90.6797 22.1875L91.8281 30ZM94.6797 19.2188H96.7109L97.1797 24.6875L101.867 24.4531L101.367 18.9844H104.531C104.745 18.9844 105.068 22.5156 105.5 29.5781L102.648 29.6797L102.188 26.0156L97.1797 26.25L97.4062 29.8125L95.1016 30.1562L94.6797 19.2188ZM106.523 30V19.0625L113.555 18.2812V20.625L108.492 21.4062L108.367 22.9688H113.555V24.9844L108.867 25.3125V27.4375L113.555 27.3125V29.5781L106.523 30ZM128.43 24.5312L128.008 28.7422L124.102 30L118.922 29.5781L118.633 23.75L120.195 19.0625H124.102L128.508 19.8438L126.055 22.1875L122.258 20.3516L120.273 23.75L121.102 27.9219L124.523 28.1484L124.422 25.8516L122.289 25.6016L122.523 24.1484L128.43 24.5312ZM139.164 30H136.039L134.477 26.875H132.914L131.352 30H129.008L131.695 19.0781L136.039 19.1016L139.164 30ZM135.258 24.9688L133.398 20.625L132.133 24.9688H135.258ZM139.633 30L140.836 19.0625H143.539L145.883 23.75L149.008 19.0625H152.133L151.898 30H147.875L148.227 24.8125L145.609 27.8984L143.188 24.5312L141.977 30H139.633ZM153.195 30V19.0625L160.227 18.2812V20.625L155.164 21.4062L155.039 22.9688H160.227V24.9844L155.539 25.3125V27.4375L160.227 27.3125V29.5781L153.195 30ZM165.305 30V19.0625L172.336 18.2812V20.625L167.273 21.4062L167.148 22.9688H172.336V24.9844L167.648 25.3125V27.4375L172.336 27.3125V29.5781L165.305 30ZM180.32 30H175.703L173.516 27.3125C173.443 27.3021 173.406 27.0755 173.406 26.6328C173.406 25.7526 173.549 24.0104 173.836 21.4062L175.961 19.0625H179.602L182.742 20.625L181.234 22.9688L178.258 21.7031L175.398 24.8125L177.977 27.9219L182.055 26.0938L183.477 27.6562L180.32 30ZM186.148 19.0078L190.883 19.3047L194.039 20.5859L194.578 24.0156L194.312 28.4766L190.883 30.0547L185.875 29.8125L184.094 26.1094V22.1641L186.148 19.0078ZM188.25 21.1797L186.367 23.7969L187.43 27.4688L190.375 27.8359L192.242 26L191.984 22.0859L188.25 21.1797ZM201.43 22.9688H198.391L202.664 26.0938L202.344 29.6797L198.758 30L195.109 29.5781L196.414 26.6484L198.289 27.6562H200L198.758 26.0938L195.633 24.1016L195.414 21.1719L197.195 19.3047L200.32 19.3594L202.664 20.4062L201.43 22.9688ZM203.367 19.0625H204.93L206.492 23.75H207.812L209.234 19.0625H211.43L211.656 22.4688L208.055 25.3125L209.953 29.7812L204.93 30L206.078 25.3125L203.367 22.1875V19.0625ZM218.414 22.9688H215.375L219.648 26.0938L219.328 29.6797L215.742 30L212.094 29.5781L213.398 26.6484L215.273 27.6562H216.984L215.742 26.0938L212.617 24.1016L212.398 21.1719L214.18 19.3047L217.305 19.3594L219.648 20.4062L218.414 22.9688ZM227.906 30H223.297L223.633 21.8594L220.586 21.6562V19.0625H229.805V21.7031L226.758 22.1875L227.906 30ZM230.758 30V19.0625L237.789 18.2812V20.625L232.727 21.4062L232.602 22.9688H237.789V24.9844L233.102 25.3125V27.4375L237.789 27.3125V29.5781L230.758 30ZM238.664 30L239.867 19.0625H242.57L244.914 23.75L248.039 19.0625H251.164L250.93 30H246.906L247.258 24.8125L244.641 27.8984L242.219 24.5312L241.008 30H238.664ZM29.6094 40.7422L31.6094 40.8203L32.7344 41.9062L33.5156 43.4688L31.9531 45.3047L29.8516 45.8125L28.3984 45.0312L27.6094 43.2109L28.0469 41.6328L29.6094 40.7422ZM43.4375 37.0625H46.4062L46.5156 48H43.4375V37.0625ZM47.4844 48L48.6875 37.0625H51.3906L53.7344 41.75L56.8594 37.0625H59.9844L59.75 48H55.7266L56.0781 42.8125L53.4609 45.8984L51.0391 42.5312L49.8281 48H47.4844ZM61.75 37.0625L66.9609 36.9844L68.7812 40.1875L68.3594 44.3906L63.7656 44.5938L63.2109 48L60.9688 48.0781L61.75 37.0625ZM64.2266 38.9766L63.8594 42.3281L66.2656 41.9688L66.5156 40.1094L64.2266 38.9766ZM69.875 37.0625L72.2188 38.0703L71.875 45.3594L76.9062 45.6562L77.4531 48L69.875 48.0781V37.0625ZM78.4531 48V37.0625L85.4844 36.2812V38.625L80.4219 39.4062L80.2969 40.9688H85.4844V42.9844L80.7969 43.3125V45.4375L85.4844 45.3125V47.5781L78.4531 48ZM86.3594 48L87.5625 37.0625H90.2656L92.6094 41.75L95.7344 37.0625H98.8594L98.625 48H94.6016L94.9531 42.8125L92.3359 45.8984L89.9141 42.5312L88.7031 48H86.3594ZM99.9219 48V37.0625L106.953 36.2812V38.625L101.891 39.4062L101.766 40.9688H106.953V42.9844L102.266 43.3125V45.4375L106.953 45.3125V47.5781L99.9219 48ZM117.547 48H114.859V46.4375L111.25 40.9688L110.641 48H107.828L108.609 37.0625H111.734L114.859 44.875L115.891 37.0625H117.984L117.547 48ZM126.18 48H121.57L121.906 39.8594L118.859 39.6562V37.0625H128.078V39.7031L125.031 40.1875L126.18 48ZM129.438 37.0625H132.406L132.516 48H129.438V37.0625ZM143.203 48H140.516V46.4375L136.906 40.9688L136.297 48H133.484L134.266 37.0625H137.391L140.516 44.875L141.547 37.0625H143.641L143.203 48ZM154.469 42.5312L154.047 46.7422L150.141 48L144.961 47.5781L144.672 41.75L146.234 37.0625H150.141L154.547 37.8438L152.094 40.1875L148.297 38.3516L146.312 41.75L147.141 45.9219L150.562 46.1484L150.461 43.8516L148.328 43.6016L148.562 42.1484L154.469 42.5312ZM165.438 40.9688H162.398L166.672 44.0938L166.352 47.6797L162.766 48L159.117 47.5781L160.422 44.6484L162.297 45.6562H164.008L162.766 44.0938L159.641 42.1016L159.422 39.1719L161.203 37.3047L164.328 37.3594L166.672 38.4062L165.438 40.9688ZM174.93 48H170.32L170.656 39.8594L167.609 39.6562V37.0625H176.828V39.7031L173.781 40.1875L174.93 48ZM187.547 48H184.422L182.859 44.875H181.297L179.734 48H177.391L180.078 37.0781L184.422 37.1016L187.547 48ZM183.641 42.9688L181.781 38.625L180.516 42.9688H183.641ZM196.844 48L190.938 43.8047L190.594 48H188.594L188.25 37.0625H189.812L190.938 42.0469L193.719 37.0625H197.625C197.656 37.0625 197.672 37.0807 197.672 37.1172C197.672 37.4818 196.354 39.5469 193.719 43.3125L197.625 46.4375L196.844 48ZM199.062 37.0625H202.031L202.141 48H199.062V37.0625ZM212.828 48H210.141V46.4375L206.531 40.9688L205.922 48H203.109L203.891 37.0625H207.016L210.141 44.875L211.172 37.0625H213.266L212.828 48ZM224.094 42.5312L223.672 46.7422L219.766 48L214.586 47.5781L214.297 41.75L215.859 37.0625H219.766L224.172 37.8438L221.719 40.1875L217.922 38.3516L215.938 41.75L216.766 45.9219L220.188 46.1484L220.086 43.8516L217.953 43.6016L218.188 42.1484L224.094 42.5312Z" fill="white"/>
</svg>
