<svg width="540" height="211" viewBox="0 0 540 211" fill="none" xmlns="http://www.w3.org/2000/svg">
  <path d="M5.8125 11.8535L10.8125 12.0488L13.625 14.7637L15.5781 18.6699L11.6719 23.2598L6.41797 24.5293L2.78516 22.5762L0.8125 18.0254L1.90625 14.0801L5.8125 11.8535ZM63.8594 16.3262L62.8047 26.8535L53.0391 29.998L40.0898 28.9434L39.3672 14.373L43.2734 2.6543H53.0391L64.0547 4.60742L57.9219 10.4668L48.4297 5.87695L43.4688 14.373L45.5391 24.8027L54.0938 25.3691L53.8398 19.627L48.5078 19.002L49.0938 15.3691L63.8594 16.3262ZM90.6953 29.998H82.8828L78.9766 22.1855H75.0703L71.1641 29.998H65.3047L72.0234 2.69336L82.8828 2.75195L90.6953 29.998ZM80.9297 17.4199L76.2812 6.56055L73.1172 17.4199H80.9297ZM91.8672 29.998L94.875 2.6543H101.633L107.492 14.373L115.305 2.6543H123.117L122.531 29.998H112.473L113.352 17.0293L106.809 24.7441L100.754 16.3262L97.7266 29.998H91.8672ZM125.773 29.998V2.6543L143.352 0.701172V6.56055L130.695 8.51367L130.383 12.4199H143.352V17.459L131.633 18.2793V23.5918L143.352 23.2793V28.9434L125.773 29.998ZM156.242 2.6543L162.102 5.17383L161.242 23.3965L173.82 24.1387L175.188 29.998L156.242 30.1934V2.6543ZM202.102 29.998H194.289L190.383 22.1855H186.477L182.57 29.998H176.711L183.43 2.69336L194.289 2.75195L202.102 29.998ZM192.336 17.4199L187.688 6.56055L184.523 17.4199H192.336ZM215.578 29.998L207.766 28.0449L204.836 23.5332L203.859 2.6543H211.672V22.752L215.578 25.7012L223.391 23.748L222.102 2.6543H229.25V24.1387L223.391 29.3926L215.578 29.998ZM256.047 29.998H249.328V26.0918L240.305 12.4199L238.781 29.998H231.75L233.703 2.6543H241.516L249.328 22.1855L251.906 2.6543H257.141L256.047 29.998ZM276.906 29.998H265.363L259.895 23.2793C259.712 23.2533 259.621 22.6868 259.621 21.5801C259.621 19.3796 259.979 15.0241 260.695 8.51367L266.008 2.6543H275.109L282.961 6.56055L279.191 12.4199L271.75 9.25586L264.602 17.0293L271.047 24.8027L281.242 20.2324L284.797 24.1387L276.906 29.998ZM287.062 3.04492H292.141L293.312 16.7168L305.031 16.1309L303.781 2.45898H311.691C312.225 2.45898 313.033 11.2871 314.113 28.9434L306.984 29.1973L305.832 20.0371L293.312 20.623L293.879 29.5293L288.117 30.3887L287.062 3.04492Z" fill="white"/>
  <path d="M69.8125 55.8535L74.8125 56.0488L77.625 58.7637L79.5781 62.6699L75.6719 67.2598L70.418 68.5293L66.7852 66.5762L64.8125 62.0254L65.9062 58.0801L69.8125 55.8535ZM102.781 73.998L105.789 46.6543H112.547L118.406 58.373L126.219 46.6543H134.031L133.445 73.998H123.387L124.266 61.0293L117.723 68.7441L111.668 60.3262L108.641 73.998H102.781ZM137.703 46.6543H145.125L145.398 73.998H137.703V46.6543ZM172.117 73.998H165.398V70.0918L156.375 56.4199L154.852 73.998H147.82L149.773 46.6543H157.586L165.398 66.1855L167.977 46.6543H173.211L172.117 73.998ZM193.699 73.998H182.176L183.016 53.6465L175.398 53.1387V46.6543H198.445V53.2559L190.828 54.4668L193.699 73.998ZM228.66 73.998H217.137L217.977 53.6465L210.359 53.1387V46.6543H233.406V53.2559L225.789 54.4668L228.66 73.998ZM235.789 47.0449H240.867L242.039 60.7168L253.758 60.1309L252.508 46.459H260.418C260.952 46.459 261.759 55.2871 262.84 72.9434L255.711 73.1973L254.559 64.0371L242.039 64.623L242.605 73.5293L236.844 74.3887L235.789 47.0449ZM265.398 73.998V46.6543L282.977 44.7012V50.5605L270.32 52.5137L270.008 56.4199H282.977V61.459L271.258 62.2793V67.5918L282.977 67.2793V72.9434L265.398 73.998ZM295.672 48.6074L312.254 46.6543L313.25 52.5137H302.137L302.195 58.373H313.25L312.508 64.2324H303.484L302.312 73.998H295.672V48.6074ZM316.883 46.6543H324.305L324.578 73.998H316.883V46.6543ZM348.875 73.998H341.062L339.109 63.5098L335.75 63.4512L334.363 73.998H327.391L328.68 47.3379L341.062 46.6543L348.191 48.6074L347.488 58.373L343.016 62.2793L348.875 73.998ZM333.152 58.8223L339.773 58.1973L343.914 52.6113L337.176 50.248L333.113 50.7949L333.152 58.8223ZM366.727 56.4199H359.129L369.812 64.2324L369.012 73.1973L360.047 73.998L350.926 72.9434L354.188 65.6191L358.875 68.1387H363.152L360.047 64.2324L352.234 59.252L351.688 51.9277L356.141 47.2598L363.953 47.3965L369.812 50.0137L366.727 56.4199ZM390.457 73.998H378.934L379.773 53.6465L372.156 53.1387V46.6543H395.203V53.2559L387.586 54.4668L390.457 73.998ZM431.219 73.998H424.5V70.0918L415.477 56.4199L413.953 73.998H406.922L408.875 46.6543H416.688L424.5 66.1855L427.078 46.6543H432.312L431.219 73.998ZM434.891 48.6074L451.473 46.6543L452.469 52.5137H441.355L441.414 58.373H452.469L451.727 64.2324H442.703L441.531 73.998H434.891V48.6074ZM472.996 73.998H461.473L462.312 53.6465L454.695 53.1387V46.6543H477.742V53.2559L470.125 54.4668L472.996 73.998ZM120.555 119.998H109.012L103.543 113.279C103.361 113.253 103.27 112.687 103.27 111.58C103.27 109.38 103.628 105.024 104.344 98.5137L109.656 92.6543H118.758L126.609 96.5605L122.84 102.42L115.398 99.2559L108.25 107.029L114.695 114.803L124.891 110.232L128.445 114.139L120.555 119.998ZM135.125 92.5176L146.961 93.2598L154.852 96.4629L156.199 105.037L155.535 116.189L146.961 120.135L134.441 119.529L129.988 110.271V100.408L135.125 92.5176ZM140.379 97.9473L135.672 104.49L138.328 113.67L145.691 114.588L150.359 109.998L149.715 100.213L140.379 97.9473ZM158.445 92.6543L164.305 95.1738L163.445 113.396L176.023 114.139L177.391 119.998L158.445 120.193V92.6543ZM180.086 92.6543L185.945 95.1738L185.086 113.396L197.664 114.139L199.031 119.998L180.086 120.193V92.6543ZM201.531 119.998V92.6543L219.109 90.7012V96.5605L206.453 98.5137L206.141 102.42H219.109V107.459L207.391 108.279V113.592L219.109 113.279V118.943L201.531 119.998ZM239.07 119.998H227.527L222.059 113.279C221.876 113.253 221.785 112.687 221.785 111.58C221.785 109.38 222.143 105.024 222.859 98.5137L228.172 92.6543H237.273L245.125 96.5605L241.355 102.42L233.914 99.2559L226.766 107.029L233.211 114.803L243.406 110.232L246.961 114.139L239.07 119.998ZM267.137 119.998H255.613L256.453 99.6465L248.836 99.1387V92.6543H271.883V99.2559L264.266 100.467L267.137 119.998ZM275.281 92.6543H282.703L282.977 119.998H275.281V92.6543ZM290.398 92.5176L302.234 93.2598L310.125 96.4629L311.473 105.037L310.809 116.189L302.234 120.135L289.715 119.529L285.262 110.271V100.408L290.398 92.5176ZM295.652 97.9473L290.945 104.49L293.602 113.67L300.965 114.588L305.633 109.998L304.988 100.213L295.652 97.9473ZM337.234 119.998H330.516V116.092L321.492 102.42L319.969 119.998H312.938L314.891 92.6543H322.703L330.516 112.186L333.094 92.6543H338.328L337.234 119.998Z" fill="white"/>
  <path d="M133.812 145.854L138.812 146.049L141.625 148.764L143.578 152.67L139.672 157.26L134.418 158.529L130.785 156.576L128.812 152.025L129.906 148.08L133.812 145.854ZM168.383 136.654H175.805L176.078 163.998H168.383V136.654ZM178.5 163.998L181.508 136.654H188.266L194.125 148.373L201.938 136.654H209.75L209.164 163.998H199.105L199.984 151.029L193.441 158.744L187.387 150.326L184.359 163.998H178.5ZM214.164 136.654L227.191 136.459L231.742 144.467L230.688 154.975L219.203 155.482L217.816 163.998L212.211 164.193L214.164 136.654ZM220.355 141.439L219.438 149.818L225.453 148.92L226.078 144.271L220.355 141.439ZM234.477 136.654L240.336 139.174L239.477 157.396L252.055 158.139L253.422 163.998L234.477 164.193V136.654ZM255.922 163.998V136.654L273.5 134.701V140.561L260.844 142.514L260.531 146.42H273.5V151.459L261.781 152.279V157.592L273.5 157.279V162.943L255.922 163.998ZM275.688 163.998L278.695 136.654H285.453L291.312 148.373L299.125 136.654H306.938L306.352 163.998H296.293L297.172 151.029L290.629 158.744L284.574 150.326L281.547 163.998H275.688ZM309.594 163.998V136.654L327.172 134.701V140.561L314.516 142.514L314.203 146.42H327.172V151.459L315.453 152.279V157.592L327.172 157.279V162.943L309.594 163.998ZM353.656 163.998H346.938V160.092L337.914 146.42L336.391 163.998H329.359L331.312 136.654H339.125L346.938 156.186L349.516 136.654H354.75L353.656 163.998ZM375.238 163.998H363.715L364.555 143.646L356.938 143.139V136.654H379.984V143.256L372.367 144.467L375.238 163.998ZM383.383 136.654H390.805L391.078 163.998H383.383V136.654ZM417.797 163.998H411.078V160.092L402.055 146.42L400.531 163.998H393.5L395.453 136.654H403.266L411.078 156.186L413.656 136.654H418.891L417.797 163.998ZM445.961 150.326L444.906 160.854L435.141 163.998L422.191 162.943L421.469 148.373L425.375 136.654H435.141L446.156 138.607L440.023 144.467L430.531 139.877L425.57 148.373L427.641 158.803L436.195 159.369L435.941 153.627L430.609 153.002L431.195 149.369L445.961 150.326ZM482.016 163.998H475.297V160.092L466.273 146.42L464.75 163.998H457.719L459.672 136.654H467.484L475.297 156.186L477.875 136.654H483.109L482.016 163.998ZM485.688 138.607L502.27 136.654L503.266 142.514H492.152L492.211 148.373H503.266L502.523 154.232H493.5L492.328 163.998H485.688V138.607ZM523.793 163.998H512.27L513.109 143.646L505.492 143.139V136.654H528.539V143.256L520.922 144.467L523.793 163.998ZM168.383 182.654H175.805L176.078 209.998H168.383V182.654ZM202.797 209.998H196.078V206.092L187.055 192.42L185.531 209.998H178.5L180.453 182.654H188.266L196.078 202.186L198.656 182.654H203.891L202.797 209.998ZM224.379 209.998H212.855L213.695 189.646L206.078 189.139V182.654H229.125V189.256L221.508 190.467L224.379 209.998ZM235.922 182.518L247.758 183.26L255.648 186.463L256.996 195.037L256.332 206.189L247.758 210.135L235.238 209.529L230.785 200.271V190.408L235.922 182.518ZM241.176 187.947L236.469 194.49L239.125 203.67L246.488 204.588L251.156 199.998L250.512 190.213L241.176 187.947ZM293.461 196.326L292.406 206.854L282.641 209.998L269.691 208.943L268.969 194.373L272.875 182.654H282.641L293.656 184.607L287.523 190.467L278.031 185.877L273.07 194.373L275.141 204.803L283.695 205.369L283.441 199.627L278.109 199.002L278.695 195.369L293.461 196.326ZM320.297 209.998H312.484L308.578 202.186H304.672L300.766 209.998H294.906L301.625 182.693L312.484 182.752L320.297 209.998ZM310.531 197.42L305.883 186.561L302.719 197.42H310.531ZM321.469 209.998L324.477 182.654H331.234L337.094 194.373L344.906 182.654H352.719L352.133 209.998H342.074L342.953 197.029L336.41 204.744L330.355 196.326L327.328 209.998H321.469ZM355.375 209.998V182.654L372.953 180.701V186.561L360.297 188.514L359.984 192.42H372.953V197.459L361.234 198.279V203.592L372.953 203.279V208.943L355.375 209.998ZM377.484 182.654L390.512 182.459L395.062 190.467L394.008 200.975L382.523 201.482L381.137 209.998L375.531 210.193L377.484 182.654ZM383.676 187.439L382.758 195.818L388.773 194.92L389.398 190.271L383.676 187.439ZM397.797 182.654L403.656 185.174L402.797 203.396L415.375 204.139L416.742 209.998L397.797 210.193V182.654ZM443.656 209.998H435.844L431.938 202.186H428.031L424.125 209.998H418.266L424.984 182.693L435.844 182.752L443.656 209.998ZM433.891 197.42L429.242 186.561L426.078 197.42H433.891ZM444.438 182.654H448.344L452.25 194.373H455.551L459.105 182.654H464.594L465.16 191.17L456.156 198.279L460.902 209.451L448.344 209.998L451.215 198.279L444.438 190.467V182.654Z" fill="white"/>
</svg>
