<svg width="601" height="147" viewBox="0 0 601 147" fill="none" xmlns="http://www.w3.org/2000/svg">
  <path d="M72.875 120H47.875L41.625 86.4375L30.875 86.25L26.4375 120H4.125L8.25 34.6875L47.875 32.5L70.6875 38.75L68.4375 70L54.125 82.5L72.875 120ZM22.5625 71.4375L43.75 69.4375L57 51.5625L35.4375 44L22.4375 45.75L22.5625 71.4375ZM95.875 32.0625L133.75 34.4375L159 44.6875L163.312 72.125L161.188 107.812L133.75 120.438L93.6875 118.5L79.4375 88.875V57.3125L95.875 32.0625ZM112.688 49.4375L97.625 70.375L106.125 99.75L129.688 102.688L144.625 88L142.562 56.6875L112.688 49.4375ZM248 120H223L210.5 95H198L185.5 120H166.75L188.25 32.625L223 32.8125L248 120ZM216.75 79.75L201.875 45L191.75 79.75H216.75ZM313.438 120H254.25V32.5H310.5L335.5 54.5625V101.25L313.438 120ZM302.5 101.562L317.688 86.375V61.0625L272.125 50.9375V101.562H302.5ZM342.75 120L352.375 32.5H374L392.75 70L417.75 32.5H442.75L440.875 120H408.688L411.5 78.5L390.562 103.188L371.188 76.25L361.5 120H342.75ZM529.375 120H504.375L491.875 95H479.375L466.875 120H448.125L469.625 32.625L504.375 32.8125L529.375 120ZM498.125 79.75L483.25 45L473.125 79.75H498.125ZM540.625 32.5L582.312 31.875L596.875 57.5L593.5 91.125L556.75 92.75L552.312 120L534.375 120.625L540.625 32.5ZM560.438 47.8125L557.5 74.625L576.75 71.75L578.75 56.875L560.438 47.8125Z" fill="#496D20"/>
</svg>
