<svg width="425" height="164" viewBox="0 0 425 164" fill="none" xmlns="http://www.w3.org/2000/svg">
  <path d="M5.8125 11.8535L10.8125 12.0488L13.625 14.7637L15.5781 18.6699L11.6719 23.2598L6.41797 24.5293L2.78516 22.5762L0.8125 18.0254L1.90625 14.0801L5.8125 11.8535ZM63.8594 16.3262L62.8047 26.8535L53.0391 29.998L40.0898 28.9434L39.3672 14.373L43.2734 2.6543H53.0391L64.0547 4.60742L57.9219 10.4668L48.4297 5.87695L43.4688 14.373L45.5391 24.8027L54.0938 25.3691L53.8398 19.627L48.5078 19.002L49.0938 15.3691L63.8594 16.3262ZM90.6953 29.998H82.8828L78.9766 22.1855H75.0703L71.1641 29.998H65.3047L72.0234 2.69336L82.8828 2.75195L90.6953 29.998ZM80.9297 17.4199L76.2812 6.56055L73.1172 17.4199H80.9297ZM91.8672 29.998L94.875 2.6543H101.633L107.492 14.373L115.305 2.6543H123.117L122.531 29.998H112.473L113.352 17.0293L106.809 24.7441L100.754 16.3262L97.7266 29.998H91.8672ZM125.773 29.998V2.6543L143.352 0.701172V6.56055L130.695 8.51367L130.383 12.4199H143.352V17.459L131.633 18.2793V23.5918L143.352 23.2793V28.9434L125.773 29.998ZM157.805 2.6543L170.832 2.45898L175.383 10.4668L174.328 20.9746L162.844 21.4824L161.457 29.998L155.852 30.1934L157.805 2.6543ZM163.996 7.43945L163.078 15.8184L169.094 14.9199L169.719 10.2715L163.996 7.43945ZM177.922 3.04492H183L184.172 16.7168L195.891 16.1309L194.641 2.45898H202.551C203.085 2.45898 203.892 11.2871 204.973 28.9434L197.844 29.1973L196.691 20.0371L184.172 20.623L184.738 29.5293L178.977 30.3887L177.922 3.04492ZM231.945 29.998H224.133L220.227 22.1855H216.32L212.414 29.998H206.555L213.273 2.69336L224.133 2.75195L231.945 29.998ZM222.18 17.4199L217.531 6.56055L214.367 17.4199H222.18ZM248.781 12.4199H241.184L251.867 20.2324L251.066 29.1973L242.102 29.998L232.98 28.9434L236.242 21.6191L240.93 24.1387H245.207L242.102 20.2324L234.289 15.252L233.742 7.92773L238.195 3.25977L246.008 3.39648L251.867 6.01367L248.781 12.4199ZM254.602 29.998V2.6543L272.18 0.701172V6.56055L259.523 8.51367L259.211 12.4199H272.18V17.459L260.461 18.2793V23.5918L272.18 23.2793V28.9434L254.602 29.998ZM285.891 2.6543H293.312L293.586 29.998H285.891V2.6543ZM297.609 2.6543H305.031L305.305 29.998H297.609V2.6543Z" fill="white"/>
  <path d="M25.8125 55.8555L30.8125 56.0508L33.625 58.7656L35.5781 62.6719L31.6719 67.2617L26.418 68.5312L22.7852 66.5781L20.8125 62.0273L21.9062 58.082L25.8125 55.8555ZM59.5625 46.6562L65.4219 49.1758L64.5625 67.3984L77.1406 68.1406L78.5078 74L59.5625 74.1953V46.6562ZM105.422 74H97.6094L93.7031 66.1875H89.7969L85.8906 74H80.0312L86.75 46.6953L97.6094 46.7539L105.422 74ZM95.6562 61.4219L91.0078 50.5625L87.8438 61.4219H95.6562ZM118.898 74L111.086 72.0469L108.156 67.5352L107.18 46.6562H114.992V66.7539L118.898 69.7031L126.711 67.75L125.422 46.6562H132.57V68.1406L126.711 73.3945L118.898 74ZM159.367 74H152.648V70.0938L143.625 56.4219L142.102 74H135.07L137.023 46.6562H144.836L152.648 66.1875L155.227 46.6562H160.461L159.367 74ZM180.227 74H168.684L163.215 67.2812C163.033 67.2552 162.941 66.6888 162.941 65.582C162.941 63.3815 163.299 59.026 164.016 52.5156L169.328 46.6562H178.43L186.281 50.5625L182.512 56.4219L175.07 53.2578L167.922 61.0312L174.367 68.8047L184.562 64.2344L188.117 68.1406L180.227 74ZM190.383 47.0469H195.461L196.633 60.7188L208.352 60.1328L207.102 46.4609H215.012C215.546 46.4609 216.353 55.2891 217.434 72.9453L210.305 73.1992L209.152 64.0391L196.633 64.625L197.199 73.5312L191.438 74.3906L190.383 47.0469ZM221.008 46.6562H228.43L228.703 74H221.008V46.6562ZM255.422 74H248.703V70.0938L239.68 56.4219L238.156 74H231.125L233.078 46.6562H240.891L248.703 66.1875L251.281 46.6562H256.516L255.422 74ZM283.586 60.3281L282.531 70.8555L272.766 74L259.816 72.9453L259.094 58.375L263 46.6562H272.766L283.781 48.6094L277.648 54.4688L268.156 49.8789L263.195 58.375L265.266 68.8047L273.82 69.3711L273.566 63.6289L268.234 63.0039L268.82 59.3711L283.586 60.3281ZM313.84 74H302.316L303.156 53.6484L295.539 53.1406V46.6562H318.586V53.2578L310.969 54.4688L313.84 74ZM320.969 47.0469H326.047L327.219 60.7188L338.938 60.1328L337.688 46.4609H345.598C346.132 46.4609 346.939 55.2891 348.02 72.9453L340.891 73.1992L339.738 64.0391L327.219 64.625L327.785 73.5312L322.023 74.3906L320.969 47.0469ZM350.578 74V46.6562L368.156 44.7031V50.5625L355.5 52.5156L355.188 56.4219H368.156V61.4609L356.438 62.2812V67.5938L368.156 67.2812V72.9453L350.578 74ZM60.3828 92.6562H67.8047L68.0781 120H60.3828V92.6562ZM94.7969 120H88.0781V116.094L79.0547 102.422L77.5312 120H70.5L72.4531 92.6562H80.2656L88.0781 112.188L90.6562 92.6562H95.8906L94.7969 120ZM98.1172 103.945L108.195 103.75L108.82 108.887L98.5078 109.512L98.1172 103.945ZM136.047 106.328L134.992 116.855L125.227 120L112.277 118.945L111.555 104.375L115.461 92.6562H125.227L136.242 94.6094L130.109 100.469L120.617 95.8789L115.656 104.375L117.727 114.805L126.281 115.371L126.027 109.629L120.695 109.004L121.281 105.371L136.047 106.328ZM162.883 120H155.07L151.164 112.188H147.258L143.352 120H137.492L144.211 92.6953L155.07 92.7539L162.883 120ZM153.117 107.422L148.469 96.5625L145.305 107.422H153.117ZM164.055 120L167.062 92.6562H173.82L179.68 104.375L187.492 92.6562H195.305L194.719 120H184.66L185.539 107.031L178.996 114.746L172.941 106.328L169.914 120H164.055ZM197.961 120V92.6562L215.539 90.7031V96.5625L202.883 98.5156L202.57 102.422H215.539V107.461L203.82 108.281V113.594L215.539 113.281V118.945L197.961 120ZM246.145 120H234.621L235.461 99.6484L227.844 99.1406V92.6562H250.891V99.2578L243.273 100.469L246.145 120ZM257.688 92.5195L269.523 93.2617L277.414 96.4648L278.762 105.039L278.098 116.191L269.523 120.137L257.004 119.531L252.551 110.273V100.41L257.688 92.5195ZM262.941 97.9492L258.234 104.492L260.891 113.672L268.254 114.59L272.922 110L272.277 100.215L262.941 97.9492ZM302.297 120L287.531 109.512L286.672 120H281.672L280.812 92.6562H284.719L287.531 105.117L294.484 92.6562H304.25C304.328 92.6562 304.367 92.7018 304.367 92.793C304.367 93.7044 301.073 98.8672 294.484 108.281L304.25 116.094L302.297 120ZM306.828 120V92.6562L324.406 90.7031V96.5625L311.75 98.5156L311.438 102.422H324.406V107.461L312.688 108.281V113.594L324.406 113.281V118.945L306.828 120ZM350.891 120H344.172V116.094L335.148 102.422L333.625 120H326.594L328.547 92.6562H336.359L344.172 112.188L346.75 92.6562H351.984L350.891 120Z" fill="white"/>
  <path d="M45.8125 145.854L50.8125 146.049L53.625 148.764L55.5781 152.67L51.6719 157.26L46.418 158.529L42.7852 156.576L40.8125 152.025L41.9062 148.08L45.8125 145.854ZM87.7266 136.498L86.2422 131.283H91.2812L89.875 135.697L94.7969 134.35L96.3203 138.646H91.1445L94.9922 143.705L91.1445 145.99L88.6836 140.795L84.2695 145.092L81.2812 141.928L86.9258 139.545L80.0703 138.021L81.2812 133.529L87.7266 136.498ZM107.727 136.498L106.242 131.283H111.281L109.875 135.697L114.797 134.35L116.32 138.646H111.145L114.992 143.705L111.145 145.99L108.684 140.795L104.27 145.092L101.281 141.928L106.926 139.545L100.07 138.021L101.281 133.529L107.727 136.498ZM137.648 136.498L136.164 131.283H141.203L139.797 135.697L144.719 134.35L146.242 138.646H141.066L144.914 143.705L141.066 145.99L138.605 140.795L134.191 145.092L131.203 141.928L136.848 139.545L129.992 138.021L131.203 133.529L137.648 136.498ZM157.648 136.498L156.164 131.283H161.203L159.797 135.697L164.719 134.35L166.242 138.646H161.066L164.914 143.705L161.066 145.99L158.605 140.795L154.191 145.092L151.203 141.928L156.848 139.545L149.992 138.021L151.203 133.529L157.648 136.498ZM177.648 136.498L176.164 131.283H181.203L179.797 135.697L184.719 134.35L186.242 138.646H181.066L184.914 143.705L181.066 145.99L178.605 140.795L174.191 145.092L171.203 141.928L176.848 139.545L169.992 138.021L171.203 133.529L177.648 136.498ZM197.648 136.498L196.164 131.283H201.203L199.797 135.697L204.719 134.35L206.242 138.646H201.066L204.914 143.705L201.066 145.99L198.605 140.795L194.191 145.092L191.203 141.928L196.848 139.545L189.992 138.021L191.203 133.529L197.648 136.498Z" fill="white"/>
</svg>
