<svg width="369" height="122" viewBox="0 0 369 122" fill="none" xmlns="http://www.w3.org/2000/svg">
  <path d="M3.272 5.70399H44.104V19.016H3.272V5.70399ZM0.328 47.944H48.968V61.384H0.328V47.944ZM19.4 54.344H34.12V104.136C34.12 111.176 32.968 115.272 28.104 117.576C23.496 120.008 17.096 120.264 8.392 120.264C7.88 115.912 5.832 109.64 3.784 105.544C9.288 105.672 15.304 105.672 17.096 105.672C18.888 105.672 19.4 105.288 19.4 103.752V54.344ZM39.496 5.70399H42.696L45.384 4.936L54.6 11.464C48.456 21.704 39.24 33.224 31.176 40.392C29.256 37.832 25.16 33.608 22.728 31.56C29.128 25.544 36.296 15.304 39.496 8.392V5.70399ZM44.488 47.944H46.408L48.456 47.432L57.928 49.608C55.24 60.232 51.656 72.392 48.84 80.072L37.448 77.512C39.752 70.6 42.696 59.08 44.488 49.736V47.944ZM5.576 34.632L13.512 24.776C22.856 30.152 36.936 38.344 43.848 43.464L35.528 54.728C28.872 49.48 15.176 40.776 5.576 34.632ZM55.368 5.19199H121.16V18.76H55.368V5.19199ZM80.968 12.36L97.992 14.28C95.432 22.344 92.744 30.408 90.568 35.912L77.512 33.352C78.92 27.336 80.456 18.632 80.968 12.36ZM80.2 47.944H94.536V71.624C94.536 88.392 89.416 107.72 57.8 119.752C55.88 116.68 51.656 111.688 48.2 109C76.488 99.656 80.2 83.4 80.2 71.368V47.944ZM89.544 100.552L99.528 91.464C106.568 97.096 116.936 105.544 121.928 110.664L111.432 121.032C106.824 115.656 96.712 106.824 89.544 100.552ZM59.464 27.848H116.168V89.16H101.32V41.544H73.672V89.672H59.464V27.848ZM132.424 45.64H245.704V59.976H132.424V45.64ZM153.8 16.968H237.768V30.92H153.8V16.968ZM155.08 100.552H224.456V114.76H155.08V100.552ZM184.008 0.327995H200.392V54.344H184.008V0.327995ZM147.016 69.192H233.288V120.52H216.776V83.272H162.76V120.904H147.016V69.192ZM153.288 0.583992L168.648 4.424C163.272 20.04 154.184 35.656 145.48 45.512C142.28 43.08 135.24 39.112 131.528 37.32C140.744 28.744 148.808 14.536 153.288 0.583992ZM281.672 32.2H368.072V48.2H281.672V32.2ZM321.224 0.455994H337.736V38.728H321.224V0.455994ZM273.608 3.01599H289.736V46.408C289.736 72.392 287.432 100.68 267.976 121.288C265.416 117.448 259.656 111.432 255.944 108.616C271.816 91.464 273.608 67.784 273.608 46.28V3.01599ZM281.288 64.456H352.968V120.52H336.072V80.584H281.288V64.456Z" fill="#496D20"/>
</svg>
