<svg width="72" height="67" viewBox="0 0 72 67" fill="none" xmlns="http://www.w3.org/2000/svg">
  <path d="M26.2871 0.823547L4.64455 16.9848L0.412109 41.3793L21.2861 67L56.1741 62.5133L71.2053 33.4456L62.164 11.4527L26.2871 0.823547Z" fill="#555456"/>
  <path d="M7.24392 17.7533L26.2871 0.823547L4.64455 16.9848L0.412109 41.3793L21.2861 67L3.01147 40.4526L7.24392 17.7533Z" fill="#797C81"/>
  <path d="M21.2861 67L56.1741 62.5133L71.2053 33.4456L62.164 11.4527L26.2871 0.823547L60.1467 14.0973L66.3004 33.5643L53.0266 59.6879L21.2861 67Z" fill="#252525"/>
  <path d="M23.4653 22.2092C23.7456 22.1765 24.0294 22.2214 24.2862 22.3391C24.5429 22.4568 24.7628 22.6429 24.922 22.8772C27.2069 26.2389 29.9499 27.6371 32.9949 27.9548C33.1435 26.6453 33.4949 25.3514 34.1559 24.2116C35.1249 22.5393 36.7008 21.3093 38.9516 20.8546C42.0631 20.2255 44.4315 21.3591 45.8046 22.7464L48.5787 22.2248C48.8689 22.1701 49.1687 22.2001 49.4426 22.3111C49.7165 22.4222 49.9531 22.6098 50.1245 22.8517C50.2959 23.0937 50.3949 23.3799 50.4098 23.6766C50.4247 23.9732 50.3549 24.268 50.2087 24.5261L47.5461 29.2315C47.7892 36.0218 45.913 40.7615 41.9129 44.0266C39.7922 45.7581 36.755 46.7406 33.4221 47.0442C30.0629 47.3494 26.2657 46.9804 22.4916 45.8717C22.1692 45.7771 21.886 45.5796 21.685 45.3089C21.484 45.0383 21.3759 44.7092 21.3771 44.3713C21.3783 44.0335 21.4888 43.7052 21.6918 43.436C21.8948 43.1668 22.1793 42.9713 22.5025 42.8791C24.4003 42.3357 25.8462 41.867 27.1511 41.0464C25.2951 40.0562 23.9282 38.7607 22.9607 37.2846C21.617 35.2324 21.1185 32.9435 21.0195 30.8805C20.9204 28.8174 21.2161 26.9053 21.5288 25.5273C21.7068 24.741 21.9142 23.9531 22.2006 23.1995C22.3016 22.9339 22.473 22.7011 22.6963 22.5265C22.9195 22.352 23.1845 22.2422 23.4653 22.2092Z" fill="white"/>
</svg>
