<svg width="59" height="24" viewBox="0 0 59 24" fill="none" xmlns="http://www.w3.org/2000/svg">
  <path d="M0.734375 24V2.125L14.7969 0.5625V5.25L4.67188 6.8125L4.42188 9.9375H14.7969V13.9688L5.42188 14.625V18.875L14.7969 18.625V23.1562L0.734375 24ZM35.9844 24H30.6094V20.875L23.3906 9.9375L22.1719 24H16.5469L18.1094 2.125H24.3594L30.6094 17.75L32.6719 2.125H36.8594L35.9844 24ZM58.5156 13.0625L57.6719 21.4844L49.8594 24L39.5 23.1562L38.9219 11.5L42.0469 2.125H49.8594L58.6719 3.6875L53.7656 8.375L46.1719 4.70312L42.2031 11.5L43.8594 19.8438L50.7031 20.2969L50.5 15.7031L46.2344 15.2031L46.7031 12.2969L58.5156 13.0625Z" fill="white"/>
</svg>
