<svg width="59" height="24" viewBox="0 0 59 24" fill="none" xmlns="http://www.w3.org/2000/svg">
  <path d="M0.234375 24V2.125L14.2969 0.5625V5.25L4.17188 6.8125L3.92188 9.9375H14.2969V13.9688L4.92188 14.625V18.875L14.2969 18.625V23.1562L0.234375 24ZM35.4844 24H30.1094V20.875L22.8906 9.9375L21.6719 24H16.0469L17.6094 2.125H23.8594L30.1094 17.75L32.1719 2.125H36.3594L35.4844 24ZM58.0156 13.0625L57.1719 21.4844L49.3594 24L39 23.1562L38.4219 11.5L41.5469 2.125H49.3594L58.1719 3.6875L53.2656 8.375L45.6719 4.70312L41.7031 11.5L43.3594 19.8438L50.2031 20.2969L50 15.7031L45.7344 15.2031L46.2031 12.2969L58.0156 13.0625Z" fill="#8AB242"/>
</svg>
