<svg width="342" height="150" viewBox="0 0 342 150" fill="none" xmlns="http://www.w3.org/2000/svg">
  <path d="M0 61.5703L28.0195 143.695L157.406 150L316.852 138.164L341.684 90.8906L314.168 0L26.7656 14.4141L0 61.5703Z" fill="#555456"/>
  <path d="M26.2373 138.457L157.581 144.152L307.183 122.602L323.94 83.9062L314.167 0L341.683 90.8906L316.851 138.164L157.405 150L28.0186 143.695L26.2373 138.457Z" fill="#252525"/>
  <path d="M26.2383 138.457L5.58984 62.3672L37.5 22.4766L314.168 0L26.7656 14.4141L0 61.5703L26.2383 138.457Z" fill="#797C81"/>
  <path d="M52.9296 36.7809L89.0786 36.25L101.699 58.4751L98.7794 87.6259L66.9017 89.0256L63.0648 112.65L47.5 113.181L52.9296 36.7568V36.7809ZM70.1112 50.0532L67.5533 73.316L84.2523 70.8304L85.9897 57.9201L70.1112 50.0532Z" fill="white"/>
  <path d="M109.301 36.7809L125.565 43.779L123.176 94.3586L158.07 96.4098L161.859 112.674L109.276 113.205V36.7809H109.301Z" fill="white"/>
  <path d="M236.546 112.674H214.876L204.041 91.0044H193.206L182.371 112.674H166.106L184.76 36.9015L214.9 37.0705L236.57 112.674H236.546ZM209.447 77.7803L196.536 47.6401L187.752 77.7803H209.422H209.447Z" fill="white"/>
  <path d="M238.717 36.7809H249.552L260.387 69.3101H269.557L279.427 36.7809H294.654L296.222 60.4056L271.246 80.1452L284.422 111.154L249.576 112.674L257.539 80.1452L238.741 58.4751V36.805L238.717 36.7809Z" fill="white"/>
</svg>
