<svg width="76" height="67" viewBox="0 0 76 67" fill="none" xmlns="http://www.w3.org/2000/svg">
  <path d="M50.5364 0L21.7101 5.3339L0 32.0421L17.7581 66.1765L58.9763 65.0141L75.2234 39.8621L75.2944 17.7L50.5364 0Z" fill="#555456"/>
  <path d="M22.7562 7.85878L49.5484 0.277672L50.5364 0L21.7101 5.3339L0 32.0421L17.7581 66.1765L2.97045 33.0882L22.7562 7.85878Z" fill="#797C81"/>
  <path d="M56.3478 61.3656L17.7578 66.1765L58.976 65.0141L75.2231 39.8621L75.2941 17.7L50.5361 0L71.3421 17.5321V37.757L56.3478 61.3656Z" fill="#252525"/>
  <path fill-rule="evenodd" clip-rule="evenodd" d="M48.347 44.588V44.585L48.3743 44.5197L52.9289 21.5614V21.4885C52.9289 20.9161 52.7163 20.4165 52.2576 20.1174C51.8552 19.8547 51.392 19.8365 51.067 19.8608C50.7645 19.8882 50.4659 19.9493 50.177 20.043C50.0538 20.0827 49.9322 20.1273 49.8125 20.1766L49.7928 20.1842L24.4003 30.1434L24.3927 30.1465C24.3155 30.1728 24.24 30.2038 24.1665 30.2391C23.9859 30.3202 23.8126 30.4167 23.6486 30.5276C23.3221 30.7523 22.7009 31.2807 22.8057 32.1189C22.8923 32.8143 23.3707 33.2547 23.6941 33.4839C23.8851 33.6177 24.0904 33.7298 24.3062 33.818L24.3548 33.8392L24.37 33.8438L24.3806 33.8484L28.8243 35.344C28.8091 35.6219 28.8364 35.9058 28.9108 36.1867L31.1357 44.6275C31.2573 45.0876 31.5199 45.4981 31.8867 45.8013C32.2536 46.1045 32.7062 46.2853 33.181 46.3181C33.6559 46.3509 34.1291 46.2342 34.5342 45.9844C34.9393 45.7346 35.2559 45.3641 35.4397 44.9251L38.9144 41.2111L44.8814 45.7845L44.9664 45.821C45.5086 46.0579 46.0143 46.1323 46.4775 46.07C46.9407 46.0062 47.3082 45.8119 47.5846 45.5917C47.9043 45.3326 48.1591 45.0024 48.3288 44.6275L48.3409 44.6017L48.3455 44.5926L48.347 44.588ZM31.1129 35.6067C31.0883 35.513 31.0941 35.4139 31.1296 35.3238C31.1652 35.2337 31.2285 35.1573 31.3104 35.1056L46.3773 25.5396C46.3773 25.5396 47.2642 25.0006 47.2323 25.5396C47.2323 25.5396 47.3902 25.6338 46.9149 26.0756C46.4653 26.4962 36.1762 36.4281 35.1344 37.4333C35.0765 37.4896 35.0359 37.5612 35.0175 37.6398L33.3378 44.0475L31.1129 35.6067Z" fill="white"/>
</svg>
