<svg width="322" height="310" viewBox="0 0 322 310" fill="none" xmlns="http://www.w3.org/2000/svg">
  <path d="M280.75 132.374C280.75 132.374 425.223 82.4785 161.035 82.4785C-103.153 82.4785 42.0524 132.374 42.0524 132.374H280.75Z" fill="#8E7450"/>
  <path d="M280.75 134.181H42.052C41.8532 134.181 41.6544 134.145 41.4646 134.082C36.9919 132.555 -2.12394 118.73 0.270535 104.291C1.50844 96.8274 13.2188 91.3155 36.0612 87.4482C62.6716 82.9484 104.715 80.6624 161.026 80.6624C217.337 80.6624 259.435 82.9574 286.063 87.4844C308.896 91.3697 320.607 96.8996 321.863 104.399C324.284 118.802 285.738 132.555 281.337 134.073C281.148 134.136 280.949 134.172 280.75 134.172V134.181ZM42.3592 130.567H280.452C295.975 125.164 319.748 113.544 318.312 105.005C317.011 97.2701 294.855 84.2857 161.044 84.2857C27.2333 84.2857 5.12275 97.1978 3.83967 104.887C2.41201 113.453 26.5827 125.127 42.3501 130.567H42.3592Z" fill="black"/>
  <path d="M16.4355 93.5835C16.4355 93.5835 -6.01844 107.345 51.6117 125.615L42.0609 132.383C42.0609 132.383 -26.7284 109.613 16.4355 93.5835Z" fill="#756042"/>
  <path d="M42.0521 134.181C41.8624 134.181 41.6726 134.154 41.4829 134.091C37.3083 132.708 0.641161 120.167 0.38816 105.962C0.288766 100.369 5.33073 95.7701 15.7942 91.8848C16.6616 91.5595 17.6375 91.948 18.0531 92.7883C18.4597 93.6196 18.1615 94.6316 17.3754 95.1196C17.1947 95.237 13.49 97.6134 13.9689 101.408C14.484 105.447 20.1223 113.742 52.1451 123.889C52.7956 124.097 53.2745 124.658 53.383 125.335C53.4914 126.013 53.2023 126.691 52.642 127.088L43.0912 133.856C42.784 134.073 42.4135 134.19 42.0431 134.19L42.0521 134.181ZM10.707 98.1194C6.95717 100.189 3.95729 102.809 4.0115 105.899C4.18318 115.522 30.5225 126.537 41.763 130.368L47.6272 126.212C23.9263 118.332 11.4028 110.128 10.3908 101.815C10.2281 100.451 10.3727 99.2128 10.707 98.1194Z" fill="black"/>
  <path d="M305.959 93.5835C305.959 93.5835 328.413 107.345 270.783 125.615L280.334 132.383C280.334 132.383 349.123 109.613 305.959 93.5835Z" fill="#756042"/>
  <path d="M280.343 134.181C279.972 134.181 279.611 134.064 279.295 133.847L269.744 127.079C269.184 126.682 268.895 126.004 269.003 125.326C269.111 124.648 269.59 124.088 270.241 123.88C302.264 113.733 307.902 105.438 308.417 101.399C308.896 97.5954 305.164 95.2099 305.011 95.1105C304.224 94.6226 303.935 93.6106 304.342 92.7793C304.749 91.948 305.715 91.5595 306.592 91.8848C317.064 95.7701 322.106 100.378 321.998 105.962C321.745 120.158 285.087 132.708 280.903 134.091C280.713 134.154 280.524 134.181 280.334 134.181H280.343ZM274.777 126.212L280.641 130.368C291.882 126.537 318.221 115.522 318.393 105.899C318.447 102.809 315.447 100.189 311.697 98.1194C312.031 99.2128 312.185 100.451 312.013 101.815C311.001 110.137 298.478 118.341 274.777 126.212Z" fill="black"/>
  <path d="M9.90222 118.586C9.53175 118.586 9.15225 118.468 8.82696 118.233C8.02278 117.637 7.8511 116.507 8.44746 115.703L14.6279 107.354C15.2243 106.55 16.3538 106.378 17.1579 106.975C17.9621 107.571 18.1338 108.7 17.5374 109.505L11.357 117.854C11.0046 118.333 10.4534 118.586 9.90222 118.586Z" fill="black"/>
  <path d="M17.3755 123.402C17.0322 123.402 16.6888 123.302 16.3816 123.103C15.5503 122.552 15.3244 121.432 15.8756 120.6L21.2428 112.495C21.794 111.664 22.9144 111.438 23.7457 111.989C24.577 112.541 24.8029 113.661 24.2517 114.492L18.8845 122.597C18.5411 123.121 17.9628 123.411 17.3755 123.411V123.402Z" fill="black"/>
  <path d="M24.9652 127.296C24.658 127.296 24.3418 127.215 24.0617 127.052C23.1942 126.555 22.9051 125.444 23.4111 124.585L28.191 116.363C28.688 115.504 29.7994 115.206 30.6578 115.703C31.5252 116.2 31.8144 117.311 31.3084 118.17L26.5284 126.392C26.1941 126.971 25.5887 127.296 24.9652 127.296Z" fill="black"/>
  <path d="M33.8565 131.136C33.6126 131.136 33.3596 131.082 33.1246 130.983C32.212 130.576 31.7964 129.51 32.203 128.597L36.0251 119.968C36.4317 119.055 37.498 118.64 38.4106 119.046C39.3232 119.453 39.7388 120.519 39.3322 121.432L35.5101 130.061C35.2119 130.739 34.5523 131.136 33.8565 131.136Z" fill="black"/>
  <path d="M318.276 112.414C317.77 112.414 317.273 112.206 316.912 111.8L309.051 102.809C308.391 102.059 308.472 100.912 309.222 100.261C309.972 99.6014 311.12 99.6827 311.77 100.433L319.631 109.423C320.291 110.173 320.21 111.321 319.46 111.971C319.116 112.27 318.692 112.414 318.267 112.414H318.276Z" fill="black"/>
  <path d="M312.159 118.586C311.608 118.586 311.056 118.333 310.704 117.854L305.066 110.227C304.469 109.423 304.641 108.294 305.445 107.697C306.249 107.101 307.379 107.273 307.975 108.077L313.613 115.703C314.21 116.507 314.038 117.637 313.234 118.233C312.909 118.468 312.538 118.586 312.159 118.586Z" fill="black"/>
  <path d="M304.695 123.402C304.107 123.402 303.538 123.121 303.186 122.588L298.126 114.953C297.574 114.122 297.8 113.001 298.632 112.45C299.463 111.899 300.583 112.125 301.134 112.956L306.195 120.591C306.746 121.423 306.52 122.543 305.689 123.094C305.381 123.302 305.038 123.392 304.695 123.392V123.402Z" fill="black"/>
  <path d="M297.095 127.296C296.472 127.296 295.866 126.971 295.532 126.392L291.068 118.703C290.571 117.835 290.86 116.733 291.719 116.236C292.586 115.73 293.689 116.028 294.186 116.896L298.649 124.585C299.146 125.453 298.857 126.555 297.999 127.052C297.709 127.215 297.402 127.296 297.095 127.296Z" fill="black"/>
  <path d="M288.214 131.136C287.518 131.136 286.859 130.739 286.56 130.061L283.036 122.1C282.63 121.188 283.036 120.122 283.958 119.715C284.871 119.308 285.937 119.715 286.343 120.637L289.867 128.597C290.274 129.51 289.867 130.576 288.946 130.983C288.711 131.091 288.458 131.136 288.214 131.136Z" fill="black"/>
  <path d="M3.7948 112.414C3.37012 112.414 2.94544 112.269 2.60208 111.971C1.85211 111.312 1.77079 110.173 2.4304 109.423L10.7704 99.8723C11.43 99.1224 12.5685 99.0411 13.3185 99.7007C14.0685 100.36 14.1498 101.499 13.4902 102.249L5.15017 111.8C4.78874 112.206 4.29177 112.414 3.78577 112.414H3.7948Z" fill="black"/>
  <path d="M135.096 267.307C135.096 267.307 127.273 300.789 100.136 305.197C72.9987 309.604 88.5186 246.812 88.5186 246.812" fill="#CD6329"/>
  <path d="M88.5186 246.812C88.5186 246.812 72.9987 309.604 100.136 305.197C127.273 300.789 135.096 267.307 135.096 267.307" stroke="black" stroke-width="4" stroke-linecap="round" stroke-linejoin="round"/>
  <path d="M232.514 246.812C232.514 246.812 248.034 309.604 220.897 305.197C193.76 300.789 185.937 267.307 185.937 267.307" fill="#CD6329"/>
  <path d="M232.514 246.812C232.514 246.812 248.034 309.604 220.897 305.197C193.76 300.789 185.937 267.307 185.937 267.307" stroke="black" stroke-width="4" stroke-linecap="round" stroke-linejoin="round"/>
  <path d="M223.521 307.224C222.593 307.224 221.619 307.143 220.619 306.981C192.616 302.43 184.523 269.137 184.189 267.722C183.991 266.874 184.424 266.009 185.217 265.658L231.795 245.163C232.029 245.064 232.272 245.01 232.525 245.01C232.795 245.01 233.065 245.073 233.318 245.199C233.795 245.433 234.147 245.866 234.273 246.388C234.697 248.101 244.512 288.478 233.624 302.385C231.11 305.602 227.712 307.233 223.53 307.233L223.521 307.224Z" fill="#8AB242"/>
  <path d="M232.515 246.812C232.515 246.812 246.999 305.422 223.512 305.422C222.682 305.422 221.817 305.35 220.898 305.197C193.761 300.789 185.938 267.307 185.938 267.307L232.515 246.812ZM232.515 243.207C232.02 243.207 231.524 243.306 231.064 243.513L184.487 264.008C182.9 264.711 182.035 266.442 182.432 268.127C182.513 268.488 184.577 277.149 190.156 286.45C197.717 299.059 208.145 306.774 220.33 308.757C221.43 308.937 222.502 309.027 223.521 309.027C228.216 309.027 232.2 307.116 235.039 303.493C239.978 297.184 241.6 285.468 239.879 268.659C238.635 256.609 236.129 246.38 236.03 245.956C235.778 244.919 235.075 244.054 234.12 243.586C233.615 243.342 233.074 243.216 232.524 243.216L232.515 243.207Z" fill="black"/>
  <path d="M185.938 267.307L232.515 246.812C232.515 246.812 233.813 252.076 235.003 259.457C235.003 259.457 225.576 274.734 210.137 280.754L207.046 294.724L198.601 292.101C189.146 281.06 185.929 267.307 185.929 267.307H185.938Z" fill="#72912F"/>
  <path d="M97.5221 307.224C93.3402 307.224 89.9425 305.593 87.4279 302.376C76.5405 288.469 86.3554 248.092 86.779 246.38C86.9052 245.866 87.2567 245.433 87.7343 245.19C87.9867 245.064 88.2571 245.001 88.5275 245.001C88.7708 245.001 89.0232 245.055 89.2575 245.154L135.835 265.649C136.628 266 137.061 266.865 136.863 267.713C136.529 269.128 128.445 302.421 100.433 306.972C99.4329 307.134 98.4505 307.215 97.5312 307.215L97.5221 307.224Z" fill="#8AB242"/>
  <path d="M88.5185 246.812L135.096 267.307C135.096 267.307 127.273 300.789 100.136 305.196C99.2166 305.35 98.3423 305.422 97.5222 305.422C74.035 305.422 88.5185 246.812 88.5185 246.812ZM88.5185 243.207C87.9687 243.207 87.4279 243.333 86.9232 243.577C85.9679 244.045 85.2739 244.91 85.0125 245.947C84.9044 246.379 82.3988 256.6 81.1641 268.65C79.4337 285.459 81.065 297.175 86.0039 303.484C88.8429 307.107 92.8266 309.018 97.5222 309.018C98.5496 309.018 99.6221 308.928 100.713 308.747C112.889 306.765 123.326 299.059 130.887 286.441C136.457 277.14 138.521 268.479 138.611 268.118C139.008 266.433 138.143 264.693 136.556 263.999L89.9785 243.504C89.5189 243.297 89.0232 243.198 88.5275 243.198L88.5185 243.207Z" fill="black"/>
  <path d="M135.097 267.307L88.5188 246.812C88.5188 246.812 87.2209 252.076 86.0312 259.457C86.0312 259.457 95.4586 274.734 110.897 280.754L113.989 294.724L122.434 292.101C131.888 281.06 135.106 267.307 135.106 267.307H135.097Z" fill="#72912F"/>
  <path d="M43.3191 234.167C37.569 234.167 33.0176 230.553 29.791 223.424C17.1191 195.358 46.4465 160.353 47.7083 158.875C48.0508 158.469 48.5555 158.244 49.0782 158.244C49.1684 158.244 49.2495 158.244 49.3396 158.262C49.9525 158.352 50.4752 158.749 50.7276 159.317L73.007 210.049C73.2594 210.626 73.1963 211.293 72.8358 211.807C72.1959 212.717 56.9734 234.167 43.3191 234.167Z" fill="#8AB242"/>
  <path d="M49.0874 160.038L71.3669 210.761C71.3669 210.761 56.1985 232.356 43.3283 232.356C38.84 232.356 34.64 229.733 31.4495 222.667C19.1021 195.322 49.0965 160.029 49.0965 160.029M49.0965 156.423C48.051 156.423 47.0416 156.883 46.3476 157.694C45.0588 159.208 15.0284 195.061 28.1599 224.154C32.5671 233.915 38.84 235.961 43.3283 235.961C57.6585 235.961 72.6557 215.195 74.314 212.834C75.0351 211.807 75.1702 210.464 74.6655 209.31L52.3861 158.587C51.8904 157.451 50.8359 156.649 49.6102 156.469C49.4389 156.441 49.2587 156.432 49.0874 156.432L49.0965 156.423Z" fill="black"/>
  <path d="M49.0872 160.038C49.0872 160.038 47.6452 160.759 43.1658 168.059L39.4346 186.355L53.8459 196.197L57.8295 209.472L48.1048 215.727L57.9647 225.434C65.4994 219.116 71.3576 210.77 71.3576 210.77L49.0782 160.047L49.0872 160.038Z" fill="#72912F"/>
  <path d="M276.74 234.167C263.086 234.167 247.863 212.717 247.223 211.807C246.863 211.293 246.791 210.626 247.052 210.049L269.331 159.317C269.584 158.749 270.107 158.352 270.719 158.262C270.81 158.253 270.891 158.244 270.981 158.244C271.503 158.244 272.008 158.469 272.351 158.875C273.603 160.353 302.94 195.358 290.268 223.424C287.05 230.553 282.499 234.167 276.749 234.167H276.74Z" fill="#8AB242"/>
  <path d="M270.98 160.038C270.98 160.038 300.975 195.322 288.627 222.676C285.437 229.742 281.228 232.365 276.749 232.365C263.878 232.365 248.71 210.77 248.71 210.77L270.989 160.047M270.989 156.442C270.818 156.442 270.638 156.451 270.467 156.478C269.241 156.658 268.186 157.46 267.691 158.596L245.411 209.319C244.907 210.473 245.042 211.807 245.763 212.843C247.421 215.213 262.418 235.97 276.749 235.97C281.237 235.97 287.51 233.924 291.917 224.163C305.058 195.07 275.018 159.217 273.729 157.703C273.035 156.892 272.035 156.432 270.98 156.432L270.989 156.442Z" fill="black"/>
  <path d="M270.98 160.038C270.98 160.038 272.422 160.759 276.902 168.059L280.633 186.355L266.222 196.197L262.238 209.472L271.963 215.727L262.103 225.434C254.568 219.116 248.71 210.77 248.71 210.77L270.989 160.047L270.98 160.038Z" fill="#72912F"/>
  <path d="M201.7 288.207C201.403 288.207 201.115 288.135 200.844 287.991L189.164 281.691C179.953 284.765 170.39 286.324 160.747 286.324C151.103 286.324 141.324 284.729 132.005 281.583L120.126 287.991C119.856 288.135 119.567 288.207 119.27 288.207C118.973 288.207 118.684 288.135 118.423 287.991C117.891 287.703 117.54 287.171 117.476 286.567L116.368 274.634C105.084 268.352 94.9717 259.817 86.2834 249.263H70.9258C70.394 249.263 69.8893 249.029 69.5468 248.615C69.2043 248.2 69.0601 247.668 69.1593 247.136L72.4399 228.94L56.5955 217.773C56.0367 217.376 55.7483 216.701 55.8565 216.025C55.9646 215.349 56.4423 214.79 57.0912 214.583L65.3559 211.969C63.1658 205.831 61.3993 199.441 60.1015 192.925L47.1232 184.381C46.4562 183.948 46.1588 183.128 46.3841 182.362L51.4222 165.292L41.1928 131.035C40.9765 130.296 41.2469 129.502 41.8688 129.052L57.2084 118.029L52.3956 91.0182C52.2784 90.3783 52.5218 89.7293 53.0175 89.3147C53.351 89.0353 53.7565 88.8912 54.1711 88.8912C54.3784 88.8912 54.5947 88.9272 54.793 88.9993L64.0491 92.4241V66.8911C64.0491 66.1521 64.4997 65.4941 65.1756 65.2237C65.392 65.1336 65.6263 65.0886 65.8516 65.0886C66.3293 65.0886 66.8069 65.2778 67.1494 65.6383L75.9459 74.7862L84.4899 50.7133C84.7423 50.0013 85.4092 49.5236 86.1663 49.5146H86.1933C86.9324 49.5146 87.6083 49.9742 87.8697 50.6682L91.3937 59.735L132.798 32.7149C133.096 32.5166 133.438 32.4174 133.78 32.4174C134.078 32.4174 134.366 32.4895 134.637 32.6338C135.223 32.9492 135.583 33.553 135.583 34.22V39.7448L159.773 23.8373C160.071 23.6391 160.422 23.5399 160.765 23.5399C161.107 23.5399 161.459 23.6391 161.756 23.8373L185.946 39.7448V34.22C185.946 33.5621 186.307 32.9492 186.892 32.6338C187.163 32.4895 187.46 32.4174 187.749 32.4174C188.091 32.4174 188.434 32.5166 188.731 32.7149L230.135 59.735L233.659 50.6682C233.93 49.9742 234.597 49.5146 235.336 49.5146H235.363C236.12 49.5236 236.787 50.0013 237.039 50.7133L245.583 74.7862L254.38 65.6383C254.722 65.2778 255.2 65.0886 255.678 65.0886C255.903 65.0886 256.128 65.1336 256.354 65.2237C257.038 65.4941 257.48 66.1611 257.48 66.8911V92.4241L266.736 88.9993C266.943 88.9272 267.151 88.8912 267.358 88.8912C267.773 88.8912 268.187 89.0353 268.512 89.3147C269.007 89.7293 269.242 90.3783 269.134 91.0182L264.321 118.029L279.66 129.052C280.282 129.502 280.553 130.296 280.336 131.035L270.098 165.319L273.559 178.523C273.73 179.163 273.532 179.857 273.036 180.307L261.878 190.6C260.535 197.963 258.607 205.191 256.119 212.113L263.915 214.574C264.573 214.781 265.051 215.34 265.15 216.016C265.258 216.692 264.97 217.367 264.411 217.764L248.801 228.76C248.738 228.886 248.666 229.012 248.603 229.138L251.838 247.127C251.928 247.65 251.793 248.191 251.451 248.606C251.108 249.011 250.603 249.254 250.072 249.254H235.237C226.395 259.998 216.103 268.632 204.602 274.932L203.521 286.558C203.467 287.162 203.106 287.694 202.575 287.982C202.313 288.126 202.016 288.198 201.727 288.198L201.7 288.207Z" fill="#8AB242"/>
  <path d="M160.746 25.3966L187.721 43.1336V34.2651L230.991 62.4929L235.317 51.3532L244.835 78.1751L255.65 66.9272V95.0469L267.331 90.7208L262.32 118.84L278.579 130.521L268.196 165.292L271.783 178.982L260.184 189.689C258.732 197.891 256.56 205.786 253.748 213.267L263.338 216.295L247.376 227.543C247.151 227.975 246.917 228.417 246.682 228.85L250.035 247.452H234.344C225.439 258.439 214.759 267.433 202.854 273.805L201.682 286.387L189.317 279.718C180.25 282.836 170.66 284.512 160.737 284.512C150.814 284.512 140.999 282.791 131.833 279.609L119.261 286.387L118.062 273.499C106.381 267.145 95.8906 258.258 87.1303 247.443H70.9164L74.3953 228.12L57.6136 216.295L67.6718 213.114C65.1392 206.327 63.1294 199.207 61.6964 191.825L48.0872 182.867L53.2785 165.283L42.8958 130.512L59.1548 118.831L54.1437 90.7117L65.8242 95.0379V66.9182L76.6395 78.166L86.1569 51.3442L90.483 62.4839L133.753 34.2561V43.1246L160.728 25.3875M160.746 21.7915C160.052 21.7915 159.367 21.9897 158.763 22.3863L137.367 36.4552V34.2741C137.367 32.9492 136.646 31.7325 135.475 31.1016C134.934 30.8132 134.348 30.669 133.762 30.669C133.077 30.669 132.392 30.8673 131.788 31.2548L92.2405 57.0582L89.5187 50.0554C88.9779 48.6674 87.644 47.7571 86.1569 47.7571C86.1389 47.7571 86.1208 47.7571 86.1028 47.7571C84.5977 47.7751 83.2638 48.7395 82.7591 50.1545L75.1884 71.4786L68.4199 64.4397C67.7259 63.7186 66.7796 63.3311 65.8242 63.3311C65.3736 63.3311 64.9139 63.4122 64.4813 63.5925C63.1204 64.1422 62.2191 65.4671 62.2191 66.9362V89.8826L55.3965 87.359C54.9909 87.2058 54.5673 87.1337 54.1437 87.1337C53.3145 87.1337 52.4944 87.4221 51.8274 87.9719C50.8361 88.801 50.3674 90.0989 50.5927 91.3697L55.2072 117.254L40.7959 127.61C39.5521 128.511 39.0024 130.097 39.444 131.566L49.5202 165.31L44.6353 181.866C44.1847 183.39 44.7885 185.021 46.1134 185.895L58.4608 194.025C59.6325 199.748 61.1646 205.381 63.0212 210.815L56.5321 212.87C55.2252 213.285 54.2699 214.402 54.0536 215.754C53.8463 217.106 54.4231 218.467 55.5407 219.251L70.4477 229.751L67.3744 246.812C67.1851 247.867 67.4735 248.948 68.1585 249.759C68.8435 250.579 69.8529 251.048 70.9254 251.048H85.4359C93.9259 261.223 103.75 269.515 114.664 275.725L115.683 286.72C115.791 287.928 116.503 288.992 117.566 289.568C118.098 289.857 118.684 289.992 119.27 289.992C119.855 289.992 120.45 289.848 120.982 289.559L132.176 283.521C141.45 286.567 151.049 288.108 160.746 288.108C170.444 288.108 179.817 286.603 188.992 283.62L199.988 289.55C200.519 289.839 201.114 289.983 201.7 289.983C202.286 289.983 202.872 289.839 203.403 289.559C204.467 288.992 205.179 287.919 205.287 286.711L206.278 276.031C217.409 269.795 227.413 261.395 236.056 251.039H250.044C251.108 251.039 252.126 250.561 252.811 249.75C253.496 248.93 253.785 247.849 253.595 246.803L250.522 229.742L265.429 219.242C266.547 218.449 267.123 217.097 266.916 215.745C266.709 214.393 265.744 213.276 264.438 212.861L258.417 210.959C260.571 204.669 262.283 198.152 263.518 191.519L274.234 181.632C275.217 180.731 275.613 179.361 275.28 178.072L271.945 165.355L282.039 131.557C282.481 130.088 281.94 128.493 280.687 127.601L266.276 117.245L270.864 91.4959C270.918 91.2435 270.945 90.9911 270.945 90.7208C270.945 88.738 269.349 87.1337 267.367 87.1157C267.358 87.1157 267.349 87.1157 267.34 87.1157C267.286 87.1157 267.24 87.1157 267.186 87.1157C266.772 87.1337 266.384 87.2238 266.015 87.368L259.264 89.8645V66.9182C259.264 65.4491 258.372 64.1242 257.002 63.5744C256.569 63.3942 256.11 63.3131 255.659 63.3131C254.695 63.3131 253.757 63.7006 253.063 64.4216L246.295 71.4606L238.724 50.1365C238.22 48.7125 236.886 47.7571 235.381 47.7391C235.362 47.7391 235.344 47.7391 235.326 47.7391C233.839 47.7391 232.505 48.6494 231.965 50.0373L229.243 57.0402L189.695 31.2368C189.1 30.8492 188.415 30.651 187.721 30.651C187.135 30.651 186.541 30.7952 186.009 31.0836C184.846 31.7145 184.116 32.9312 184.116 34.2561V36.4371L162.72 22.3683C162.116 21.9717 161.431 21.7734 160.737 21.7734L160.746 21.7915Z" fill="black"/>
  <path d="M59.1642 118.858L62.5169 111.369L54.1621 90.7297L59.1642 118.858Z" fill="#72912F"/>
  <path d="M262.329 118.858L256.57 110.414L267.341 90.7297L262.329 118.858Z" fill="#72912F"/>
  <path d="M67.6803 213.141L57.6221 216.322L74.4038 228.147L70.9249 247.47H87.1388C95.9082 258.285 106.39 267.172 118.07 273.526L119.269 286.414L131.842 279.636C140.999 282.818 150.697 284.539 160.746 284.539C170.795 284.539 180.258 282.863 189.325 279.745L201.691 286.414L202.862 273.832C214.768 267.46 225.439 258.466 234.353 247.479H250.044L246.691 228.877C246.925 228.444 247.16 228.012 247.385 227.57L263.347 216.322L253.757 213.294C256.569 205.804 258.732 197.909 260.192 189.707L271.791 179L256.56 185.075C256.56 185.075 254.857 205.254 248.241 216.286L255.523 217.611L245.6 224.226C245.6 224.226 225.088 256.87 199.059 267.01L197.518 274.4L186.044 271.345C186.044 271.345 176.473 275.391 160.746 275.391C145.019 275.391 135.447 271.345 135.447 271.345L123.974 274.4L122.433 267.01C96.4039 256.861 75.8909 224.226 75.8909 224.226L65.9679 217.611L73.2502 216.286C66.6349 205.254 64.9315 188.058 64.9315 188.058L48.0957 182.903L61.7049 191.862C63.1379 199.243 65.1388 206.363 67.6803 213.15V213.141Z" fill="#72912F"/>
  <path d="M53.296 165.301L56.3423 153.53L42.9043 130.539L53.296 165.301Z" fill="#72912F"/>
  <path d="M268.123 165.301L265.077 153.53L278.515 130.539L268.123 165.301Z" fill="#72912F"/>
  <path d="M65.8428 95.056L71.4938 88.3325L65.8428 66.9363V95.056Z" fill="#72912F"/>
  <path d="M255.65 95.056L250.008 88.3325L255.65 66.9363V95.056Z" fill="#72912F"/>
  <path d="M90.5009 62.5019L87.004 66.9362L86.1748 51.3622L90.5009 62.5019Z" fill="#BF7F00"/>
  <path d="M231 62.5019L234.497 66.9362L235.326 51.3622L231 62.5019Z" fill="#BF7F00"/>
  <path d="M159.268 70.2709C171.712 70.2709 181.8 66.7644 181.8 62.4389C181.8 58.1133 171.712 54.6068 159.268 54.6068C146.824 54.6068 136.736 58.1133 136.736 62.4389C136.736 66.7644 146.824 70.2709 159.268 70.2709Z" fill="#BF7F00"/>
  <path d="M181.8 62.4388C181.8 66.7649 171.715 70.2709 159.268 70.2709C146.822 70.2709 136.736 66.7649 136.736 62.4388" stroke="#FFC55F" stroke-width="4" stroke-linecap="round" stroke-linejoin="round"/>
  <path d="M146.451 173.638C155.473 169.916 165.594 169.916 174.616 173.638" stroke="black" stroke-width="4" stroke-linecap="round" stroke-linejoin="round"/>
  <path d="M151.859 177.621C157.411 175.332 163.648 175.332 169.2 177.621" stroke="#72912F" stroke-width="4" stroke-linecap="round" stroke-linejoin="round"/>
  <path d="M80.1631 153.53C80.1631 153.53 90.1492 166.085 109.599 165.49" stroke="#C5FF5F" stroke-width="4" stroke-linecap="round" stroke-linejoin="round"/>
  <path d="M240.878 153.53C240.878 153.53 230.892 166.085 211.442 165.49" stroke="#C5FF5F" stroke-width="4" stroke-linecap="round" stroke-linejoin="round"/>
  <path d="M167.956 130.539C167.956 130.539 169.696 143.274 176.617 151.07" stroke="#72912F" stroke-width="4" stroke-linecap="round" stroke-linejoin="round"/>
  <path d="M153.581 130.539C153.581 130.539 151.842 143.274 144.92 151.07" stroke="#72912F" stroke-width="4" stroke-linecap="round" stroke-linejoin="round"/>
  <path d="M85.1923 212.014L109.725 205.182L106.408 220.91L84.1738 212.014" fill="#72912F"/>
  <path d="M106.409 220.91L84.7607 212.005L91.1598 203.118" stroke="black" stroke-width="4" stroke-linecap="round" stroke-linejoin="round"/>
  <path d="M123.28 252.688L135.267 236.79L138.142 250.688L123.28 252.688Z" fill="#72912F"/>
  <path d="M138.143 250.688L123.281 252.688L121.379 240.539" stroke="black" stroke-width="4" stroke-linecap="round" stroke-linejoin="round"/>
  <path d="M135.7 222L146.588 209.761L148.021 221.342L135.7 222Z" fill="#72912F"/>
  <path d="M148.021 221.342L135.7 222L134.943 211.915" stroke="black" stroke-width="4" stroke-linecap="round" stroke-linejoin="round"/>
  <path d="M184.359 222L173.472 209.761L172.039 221.342L184.359 222Z" fill="#72912F"/>
  <path d="M172.039 221.342L184.359 222L185.117 211.915" stroke="black" stroke-width="4" stroke-linecap="round" stroke-linejoin="round"/>
  <path d="M236.309 212.014L211.776 205.182L215.093 220.91L237.327 212.014" fill="#72912F"/>
  <path d="M215.093 220.91L236.732 212.005L230.342 203.118" stroke="black" stroke-width="4" stroke-linecap="round" stroke-linejoin="round"/>
  <path d="M198.221 252.688L186.225 236.79L183.359 250.688L198.221 252.688Z" fill="#72912F"/>
  <path d="M183.359 250.688L198.221 252.688L200.123 240.539" stroke="black" stroke-width="4" stroke-linecap="round" stroke-linejoin="round"/>
  <path d="M210.929 160.407C173.752 160.407 172.814 127.186 172.814 126.853C172.814 126.303 173.049 125.789 173.463 125.438C174.049 124.951 188.145 113.487 213.849 113.487C223.709 113.487 234.02 115.208 244.511 118.597C245.205 118.822 245.7 119.453 245.754 120.183C245.808 120.94 246.989 138.903 236.048 150.664C230.045 157.126 221.591 160.398 210.92 160.398L210.929 160.407Z" fill="white"/>
  <path d="M213.858 115.298C222.574 115.298 232.641 116.659 243.97 120.328C243.97 120.328 246.764 158.614 210.938 158.614C175.113 158.614 174.626 126.835 174.626 126.835C174.626 126.835 188.514 115.298 213.867 115.298M213.867 111.693C187.523 111.693 172.931 123.554 172.328 124.059C171.489 124.753 171.012 125.798 171.03 126.889C171.03 127.249 171.219 135.874 176.239 144.527C180.908 152.593 190.723 162.21 210.956 162.21C222.141 162.21 231.036 158.74 237.399 151.899C248.864 139.561 247.638 120.85 247.584 120.057C247.476 118.597 246.493 117.344 245.096 116.894C234.425 113.442 223.925 111.693 213.885 111.693H213.867Z" fill="black"/>
  <path d="M240.564 123.284C240.564 123.284 205.865 110.936 178.069 129.016" stroke="#DBDBDB" stroke-width="4" stroke-linecap="round" stroke-linejoin="round"/>
  <path d="M110.131 160.407C99.4685 160.407 91.0145 157.135 85.003 150.673C74.0616 138.912 75.2423 120.949 75.2963 120.192C75.3504 119.462 75.8371 118.831 76.5401 118.606C87.0309 115.217 97.3505 113.496 107.201 113.496C132.906 113.496 147.002 124.96 147.587 125.447C148.011 125.798 148.245 126.312 148.236 126.862C148.236 127.195 147.299 160.416 110.121 160.416L110.131 160.407Z" fill="white"/>
  <path d="M107.21 115.298C132.563 115.298 146.452 126.835 146.452 126.835C146.452 126.835 145.965 158.614 110.14 158.614C74.314 158.614 77.1079 120.328 77.1079 120.328C88.4369 116.668 98.5041 115.298 107.219 115.298M107.219 111.693C97.1703 111.693 86.6704 113.442 75.9994 116.894C74.6024 117.344 73.62 118.597 73.5119 120.057C73.4578 120.85 72.2321 139.561 83.6962 151.899C90.0592 158.74 98.9548 162.21 110.14 162.21C130.364 162.21 140.179 152.593 144.857 144.527C149.868 135.865 150.057 127.249 150.066 126.889C150.084 125.798 149.606 124.762 148.768 124.059C148.164 123.554 133.573 111.693 107.228 111.693H107.219Z" fill="black"/>
  <path d="M112.149 143.607C117.619 143.607 122.054 139.173 122.054 133.702C122.054 128.232 117.619 123.797 112.149 123.797C106.679 123.797 102.244 128.232 102.244 133.702C102.244 139.173 106.679 143.607 112.149 143.607Z" fill="black"/>
  <path d="M107.346 133.703C109.78 133.703 111.753 131.729 111.753 129.295C111.753 126.861 109.78 124.888 107.346 124.888C104.912 124.888 102.938 126.861 102.938 129.295C102.938 131.729 104.912 133.703 107.346 133.703Z" fill="white"/>
  <path d="M209.325 143.607C214.795 143.607 219.23 139.173 219.23 133.702C219.23 128.232 214.795 123.797 209.325 123.797C203.855 123.797 199.42 128.232 199.42 133.702C199.42 139.173 203.855 143.607 209.325 143.607Z" fill="black"/>
  <path d="M80.1631 123.284C80.1631 123.284 114.862 110.936 142.657 129.016" stroke="#DBDBDB" stroke-width="4" stroke-linecap="round" stroke-linejoin="round"/>
  <path d="M204.909 133.703C207.343 133.703 209.316 131.729 209.316 129.295C209.316 126.861 207.343 124.888 204.909 124.888C202.475 124.888 200.502 126.861 200.502 129.295C200.502 131.729 202.475 133.703 204.909 133.703Z" fill="white"/>
  <path d="M152.509 120.967C152.139 120.967 151.779 120.859 151.463 120.634C151.274 120.499 131.761 106.881 103.218 106.881C93.4302 106.881 83.5973 108.476 74.0168 111.63C73.8275 111.693 73.6383 111.72 73.458 111.72C72.9263 111.72 72.4216 111.486 72.0701 111.063C71.6014 110.495 71.5203 109.693 71.8808 109.044L80.4879 93.5148C80.6682 93.1903 80.9386 92.9379 81.263 92.7757L95.8186 85.5836C96.0709 85.4574 96.3413 85.3943 96.6207 85.3943C96.7469 85.3943 96.8641 85.4033 96.9902 85.4303L144.226 95.2542C144.821 95.3804 145.307 95.786 145.533 96.3447L147.407 101.022L149.336 98.2825C149.679 97.7958 150.237 97.5164 150.814 97.5164C150.967 97.5164 151.13 97.5344 151.283 97.5795C152.013 97.7778 152.545 98.4087 152.608 99.1657L154.32 119.003C154.383 119.706 154.032 120.373 153.419 120.724C153.139 120.886 152.833 120.958 152.527 120.958L152.509 120.967Z" fill="#72912F"/>
  <path d="M96.6118 87.1969L143.847 97.0207L146.957 104.79L150.796 99.328L152.509 119.165C152.509 119.165 132.735 105.078 103.218 105.078C94.1243 105.078 84.1021 106.412 73.4491 109.918L82.0562 94.389L96.6118 87.1969ZM96.6118 83.5918C96.062 83.5918 95.5122 83.718 95.0165 83.9613L80.461 91.1534C79.803 91.4779 79.2623 92.0006 78.9018 92.6405L70.2946 108.169C69.5736 109.467 69.7268 111.072 70.6732 112.216C71.3671 113.063 72.3946 113.523 73.4491 113.523C73.8276 113.523 74.2061 113.46 74.5757 113.343C83.9849 110.251 93.6195 108.683 103.218 108.683C131.257 108.683 150.228 121.968 150.418 122.103C151.04 122.545 151.77 122.77 152.509 122.77C153.122 122.77 153.743 122.617 154.293 122.292C155.51 121.598 156.222 120.256 156.096 118.85L154.383 99.0125C154.257 97.5074 153.194 96.2366 151.725 95.8401C151.418 95.7589 151.103 95.7139 150.787 95.7139C149.634 95.7139 148.525 96.2727 147.84 97.246L147.822 97.2641L147.182 95.6688C146.732 94.5512 145.749 93.7221 144.568 93.4787L97.3328 83.6549C97.0894 83.6008 96.8461 83.5828 96.6028 83.5828L96.6118 83.5918Z" fill="black"/>
  <path d="M152.509 119.165L150.796 99.3279L149.327 112.559C115.629 94.3889 79.1002 104.79 79.1002 104.79L82.0564 94.3889L73.4492 109.918C118.666 95.0649 152.509 119.165 152.509 119.165Z" fill="#607527"/>
  <path d="M167.551 120.967C167.244 120.967 166.938 120.886 166.659 120.733C166.046 120.382 165.694 119.715 165.757 119.012L167.47 99.1746C167.533 98.4176 168.065 97.7867 168.795 97.5884C168.948 97.5433 169.11 97.5253 169.263 97.5253C169.84 97.5253 170.399 97.8047 170.741 98.2914L172.67 101.031L174.545 96.3537C174.77 95.7949 175.257 95.3803 175.852 95.2631L223.087 85.4392C223.204 85.4122 223.331 85.4032 223.457 85.4032C223.736 85.4032 224.006 85.4663 224.259 85.5925L238.814 92.7846C239.148 92.9468 239.418 93.2082 239.589 93.5237L248.197 109.053C248.557 109.701 248.485 110.504 248.007 111.071C247.656 111.495 247.142 111.729 246.619 111.729C246.43 111.729 246.241 111.702 246.061 111.639C236.471 108.485 226.647 106.89 216.859 106.89C188.316 106.89 168.813 120.508 168.614 120.643C168.299 120.868 167.938 120.976 167.569 120.976L167.551 120.967Z" fill="#72912F"/>
  <path d="M223.448 87.1968L238.004 94.3889L246.611 109.918C235.958 106.421 225.936 105.078 216.842 105.078C187.325 105.078 167.551 119.165 167.551 119.165L169.264 99.3279L173.103 104.79L176.212 97.0206L223.448 87.1968ZM223.448 83.5917C223.205 83.5917 222.952 83.6187 222.718 83.6638L175.482 93.4876C174.302 93.731 173.319 94.5602 172.869 95.6777L172.229 97.273L172.211 97.255C171.526 96.2816 170.417 95.7228 169.264 95.7228C168.948 95.7228 168.642 95.7588 168.326 95.849C166.866 96.2455 165.803 97.5073 165.667 99.0215L163.955 118.858C163.838 120.255 164.541 121.598 165.758 122.301C166.316 122.617 166.929 122.779 167.542 122.779C168.281 122.779 169.011 122.554 169.633 122.112C169.822 121.977 188.92 108.692 216.833 108.692C226.431 108.692 236.066 110.26 245.475 113.352C245.845 113.469 246.223 113.532 246.602 113.532C247.656 113.532 248.684 113.063 249.378 112.225C250.324 111.08 250.468 109.476 249.756 108.178L241.149 92.6495C240.798 92.0096 240.248 91.4868 239.59 91.1624L225.034 83.9702C224.539 83.7269 223.989 83.6007 223.439 83.6007L223.448 83.5917Z" fill="black"/>
  <path d="M167.551 119.165L169.263 99.3279L170.732 112.559C204.431 94.3889 240.959 104.79 240.959 104.79L238.003 94.3889L246.61 109.918C201.394 95.0649 167.551 119.165 167.551 119.165Z" fill="#607527"/>
  <path d="M9.16113 96.8906L157.33 1.80713L164.911 1.92459L313.043 96.99C313.043 96.99 299.291 82.4876 161.025 82.4876C22.76 82.4876 9.16113 96.8906 9.16113 96.8906Z" fill="#E9CF9E"/>
  <path d="M313.043 98.7881C312.709 98.7881 312.366 98.6978 312.068 98.499L310.034 97.1888C303.511 93.9449 274.515 84.2767 161.035 84.2767C47.5543 84.2767 18.3778 93.9901 12.0347 97.1888L10.1371 98.4086C9.3691 98.9056 8.35709 98.7429 7.76977 98.0381C7.19148 97.3334 7.21858 96.3033 7.85109 95.6437C7.94145 95.5443 8.39323 95.1105 9.61306 94.4509L156.354 0.289145C156.652 0.0993935 156.987 0.00903577 157.357 0L164.938 0.117465C165.272 0.117465 165.607 0.225894 165.887 0.40661L312.574 94.5413C313.811 95.2099 314.263 95.6527 314.354 95.7521C314.986 96.4117 315.013 97.4418 314.435 98.1466C314.082 98.5713 313.567 98.7971 313.043 98.7971V98.7881ZM161.026 80.6714C241.959 80.6714 280.533 85.6772 298.704 89.924L164.369 3.72274L157.845 3.62335L23.4378 89.8698C41.5545 85.6501 80.0921 80.6714 161.035 80.6714H161.026Z" fill="black"/>
  <path d="M31.615 82.4785C31.615 82.4785 53.59 71.6537 160.809 71.6537C268.027 71.6537 290.445 82.4785 290.445 82.4785L307.161 93.204C307.161 93.204 271.452 82.4785 161.034 82.4785C50.6173 82.4785 14.3115 93.5835 14.3115 93.5835L31.606 82.4876L31.615 82.4785Z" fill="#C5AF76"/>
  <path d="M14.3116 95.3907C13.6249 95.3907 12.9743 94.9931 12.6761 94.3425C12.2966 93.5203 12.5768 92.5535 13.3358 92.0655L30.6302 80.9696C30.6844 80.9335 30.7477 80.8973 30.8109 80.8702C31.7236 80.4184 54.3943 69.8556 160.8 69.8556C267.205 69.8556 290.291 80.4094 291.222 80.8612C291.285 80.8973 291.348 80.9244 291.412 80.9696L308.128 91.6951C308.887 92.183 309.167 93.1498 308.797 93.9721C308.417 94.7943 307.495 95.2009 306.637 94.9479C306.285 94.8395 269.735 84.2948 161.025 84.2948C52.3161 84.2948 15.1971 95.2009 14.8357 95.3184C14.664 95.3726 14.4833 95.3997 14.3116 95.3997V95.3907ZM32.4735 84.0779L23.9618 89.5445C41.175 86.2646 82.0799 80.6805 161.035 80.6805C239.989 80.6805 280.596 86.0748 297.628 89.2464L289.577 84.0869C288.023 83.4273 262.813 73.4699 160.8 73.4699C58.7857 73.4699 34.0096 83.4183 32.4735 84.0779Z" fill="black"/>
  <path d="M98.8143 73.1536L105.483 66.4671L117.916 65.8979L122.949 59.2927C122.949 59.2927 139.674 55.6423 161.884 58.6602L164.992 51.4226H179.947L183.272 42.7121C183.272 42.7121 210.153 37.9322 231.315 44.5373L213.677 33.2155C187.464 25.9688 168.218 32.6282 168.218 32.6282L164.622 40.0375H151.303L146.867 46.1457C126.663 43.6157 111.266 48.4679 111.266 48.4679L102.456 57.5308H91.3507L84.5558 63.2233C67.7674 63.648 55.5329 67.1268 55.5329 67.1268L31.6152 82.4785C31.6152 82.4785 48.3314 75.9095 98.8143 73.1446V73.1536Z" fill="#C5AF76"/>
  <path d="M31.615 84.2857C30.9554 84.2857 30.3229 83.9243 30.0066 83.3008C29.5819 82.4695 29.862 81.4575 30.6391 80.9605L54.5568 65.6087C54.7104 65.5093 54.864 65.4371 55.0357 65.3919C55.5417 65.2473 67.3786 61.9221 83.8779 61.4342L90.1939 56.1483C90.5192 55.8772 90.9258 55.7236 91.3505 55.7236H101.687L109.964 47.2119C110.172 46.995 110.434 46.8414 110.714 46.7511C111.347 46.5523 126.183 41.9802 146.017 44.2391L149.83 38.9803C150.173 38.5105 150.716 38.2394 151.294 38.2394H163.483L166.582 31.8421C166.79 31.4083 167.161 31.083 167.612 30.9204C168.417 30.6403 187.69 24.1616 214.147 31.4716C214.318 31.5168 214.49 31.5981 214.644 31.6884L232.281 43.0103C233.04 43.4982 233.33 44.4741 232.941 45.2963C232.562 46.1186 231.631 46.5252 230.763 46.2541C212.538 40.5616 189.596 43.5615 184.573 44.3205L181.618 52.0551C181.347 52.7508 180.678 53.2207 179.928 53.2207H166.167L163.528 59.365C163.203 60.115 162.426 60.5487 161.622 60.4403C142.412 57.8289 127.195 60.3138 123.961 60.9282L119.343 66.9912C119.018 67.4159 118.521 67.6779 117.988 67.705L106.25 68.2472L100.07 74.4367C99.7537 74.7529 99.3381 74.9427 98.8863 74.9608C49.4426 77.6625 32.4101 84.105 32.2475 84.1682C32.0306 84.2495 31.8138 84.2947 31.5879 84.2947L31.615 84.2857ZM56.2736 68.7984L42.2591 77.798C52.325 75.6836 69.8815 72.9548 98.0279 71.3826L104.208 65.1841C104.525 64.8678 104.958 64.6781 105.401 64.651L116.994 64.1178L121.512 58.1813C121.774 57.838 122.144 57.603 122.56 57.5127C123.247 57.3681 139.177 53.9707 160.754 56.6724L163.32 50.6907C163.61 50.0311 164.26 49.5973 164.983 49.5973H178.69L181.573 42.0525C181.799 41.4561 182.323 41.0314 182.946 40.914C183.886 40.7423 202.87 37.4533 221.601 40.4351L212.927 34.869C190.464 28.7337 173.115 33.0528 169.492 34.11L166.239 40.8146C165.941 41.438 165.308 41.8356 164.613 41.8356H152.215L148.312 47.2029C147.923 47.736 147.282 48.0161 146.622 47.9348C128.894 45.721 114.798 49.3353 112.214 50.0582L103.739 58.7777C103.395 59.1301 102.934 59.3289 102.446 59.3289H92.001L85.7122 64.5967C85.3959 64.8588 85.0074 65.0033 84.6008 65.0214C69.5472 65.4009 58.0808 68.3104 56.2736 68.7893V68.7984Z" fill="black"/>
  <path d="M173.577 71.6538L177.725 62.9523L193.158 62.871L197.983 53.4647C197.983 53.4647 226.581 47.9891 252.785 58.2989L273.585 71.6447C244.354 60.4042 212.35 65.0396 212.35 65.0396L209.982 72.5393L173.595 71.6447L173.577 71.6538Z" fill="#C5AF76"/>
  <path d="M209.973 74.3554C209.973 74.3554 209.946 74.3554 209.928 74.3554L173.541 73.4609C172.926 73.4428 172.366 73.1175 172.041 72.6025C171.725 72.0784 171.689 71.4369 171.951 70.8767L176.098 62.1752C176.396 61.5517 177.029 61.1451 177.724 61.1451L192.055 61.0728L196.374 52.6425C196.627 52.1455 197.097 51.7931 197.639 51.6937C198.832 51.4678 227.051 46.2361 253.435 56.6182C253.544 56.6634 253.652 56.7176 253.752 56.7808L274.552 70.1267C275.329 70.6236 275.609 71.6357 275.184 72.4669C274.769 73.2982 273.793 73.6687 272.925 73.3344C247.508 63.5577 219.578 66.0335 213.714 66.6931L211.69 73.0814C211.455 73.8313 210.75 74.3464 209.964 74.3464L209.973 74.3554ZM176.414 69.9189L208.663 70.714L210.624 64.5155C210.832 63.8559 211.401 63.3679 212.088 63.2685C213.217 63.1059 236.376 59.8801 261.387 65.9793L251.953 59.9253C229.102 50.9889 204.073 54.3231 199.175 55.1092L194.766 63.7113C194.459 64.3076 193.844 64.6871 193.167 64.6962L178.872 64.7685L176.414 69.9279V69.9189Z" fill="black"/>
  <path d="M86.8428 47.0401L94.984 46.3625L106.83 36.8117C130.205 32.6281 138.509 35.2665 138.509 35.2665L143.099 28.5258H154.494L158.198 21.9207C179.956 16.8607 193.745 20.4208 193.745 20.4208L174.842 8.29475C174.842 8.29475 162.788 7.02974 150.355 11.9452L146.063 18.2702L131.127 18.6407L124.748 26.2759H119.227L86.8518 47.0492L86.8428 47.0401Z" fill="#C5AF76"/>
  <path d="M86.8429 48.8473C86.0749 48.8473 85.3791 48.3594 85.1351 47.6185C84.8731 46.8324 85.1713 45.9649 85.867 45.5131L118.242 24.7399C118.531 24.5501 118.875 24.4507 119.218 24.4507H123.89L129.727 17.4661C130.061 17.0685 130.549 16.8336 131.073 16.8155L145.078 16.4631L148.846 10.9061C149.054 10.6079 149.334 10.373 149.678 10.2375C162.382 5.21358 174.508 6.41534 175.023 6.46956C175.303 6.49666 175.574 6.59606 175.809 6.74966L194.712 18.8757C195.462 19.3546 195.751 20.3033 195.39 21.1165C195.037 21.9298 194.143 22.3635 193.284 22.1466C193.158 22.1105 179.938 18.8576 159.382 23.4839L156.075 29.3843C155.759 29.9535 155.153 30.3059 154.494 30.3059H144.048L140 36.2605C139.549 36.9201 138.717 37.2093 137.958 36.9653C137.895 36.9472 129.691 34.5798 107.598 38.4833L96.1136 47.745C95.8335 47.9709 95.4901 48.1064 95.1287 48.1425L86.9875 48.8202C86.9333 48.8202 86.8881 48.8202 86.8339 48.8202L86.8429 48.8473ZM95.4269 43.6789L93.945 44.6276L94.2793 44.6005L95.4269 43.6789ZM119.751 28.0741L109.785 34.4714C126.266 31.8059 134.66 32.6733 137.696 33.2335L141.591 27.5048C141.925 27.0079 142.485 26.7097 143.082 26.7097H153.418L156.599 21.0262C156.852 20.5834 157.268 20.2672 157.765 20.1497C169.9 17.3306 179.577 17.1227 185.893 17.5384L174.219 10.0477C172.086 9.89411 161.93 9.44233 151.503 13.4181L147.527 19.2732C147.202 19.7521 146.66 20.0503 146.081 20.0684L131.968 20.4208L126.112 27.4326C125.769 27.8482 125.263 28.0831 124.721 28.0831H119.733L119.751 28.0741Z" fill="black"/>
</svg>
