<svg width="339" height="356" viewBox="0 0 339 356" fill="none" xmlns="http://www.w3.org/2000/svg">
  <path d="M46.1357 221.437L49.4925 251.485L62.0691 262.642L94.4879 279.95L136.063 287.532L104.658 200.003L46.1357 221.437Z" fill="#324C0B"/>
  <path d="M46.1355 221.437L62.0689 262.641L39.5396 242.654L46.1355 221.437Z" fill="#496D20"/>
  <path d="M104.657 200.003L149.164 194.791L161.062 282.8L147.237 289.568L136.063 287.532L104.657 200.003Z" fill="#324C0B"/>
  <path d="M149.164 194.791L161.062 282.8L198.747 264.342L206.03 195.886L149.164 194.791Z" fill="#324C0B"/>
  <path d="M256.898 207.485L231.03 263.546L198.747 264.342L206.031 195.886L256.898 207.485Z" fill="#324C0B"/>
  <path d="M256.898 207.485L298.247 233.842L283.254 262.271L231.03 263.546L256.898 207.485Z" fill="#324C0B"/>
  <path d="M335.334 229.58L304.707 207.865L234.93 186.159L154.683 184.612L91.8817 191.977L9.30127 222.215L0 252.146L39.5395 242.655L46.1354 221.437L104.657 200.003L149.164 194.791L206.03 195.886L256.898 207.485L298.247 233.842L335.334 229.58Z" fill="#496D20"/>
  <path d="M188.152 195.886L190.993 207.485L188.152 214.977L190.993 235.516L189.572 215.701L194.865 207.485L195.897 195.687L198.747 192.23L200.041 188.358L196.159 191.715L188.152 195.886Z" fill="#231200"/>
  <path d="M46.1353 221.437L35.8388 222.903L25.8408 219.971L34.8073 221.437L51.5731 219.447L49.4921 230.114L46.1353 221.437Z" fill="#324C0B"/>
  <path d="M91.7369 202.699L88.3892 202.826L96.5323 201.016L100.188 201.64L102.775 216.352L109.236 227.472L100.712 217.909L95.8175 203.215L91.7369 202.699Z" fill="#231200"/>
  <path d="M0 252.146L31.7854 280.366L77.5317 304.787L151.969 318.359L206.239 288.89L303.549 285.252L335.334 229.58L298.247 233.842L283.255 262.27L198.747 264.342L147.237 289.568L96.2971 269.482L62.0688 262.641L39.5395 242.655L0 252.146Z" fill="#496D20"/>
  <path d="M0 252.146V267.962L27.5238 291.604L74.0483 315.644L151.191 328.049L208.953 296.255L303.929 292.771L338.311 238.493L335.334 229.58L303.549 285.252L206.239 288.89L151.969 318.359L77.5317 304.787L31.7854 280.366L0 252.146Z" fill="#324C0B"/>
  <path d="M195.046 266.152L203.053 274.503L206.03 286.338L207.885 272.965L206.03 267.437L208.654 264.098L198.746 264.342L195.046 266.152Z" fill="#324C0B"/>
  <path d="M96.2972 269.482L92.5694 277.598L72.854 286.338L90.1356 284.537L106.648 273.562L96.2972 269.482Z" fill="#324C0B"/>
  <path d="M294.284 231.317L290.846 247.884L298.247 233.842L305.874 231.969L315.049 234.104L323.572 230.114L312.633 231.951L304.228 228.893L294.284 231.317Z" fill="#324C0B"/>
  <path d="M62.0689 276.204L81.5219 301.846L185.474 292.879L194.096 266.613L50.8042 267.889L62.0689 276.204Z" fill="#496D20"/>
  <path d="M225.891 274.132C225.122 274.132 224.326 274.078 223.502 273.96C199.752 270.73 196.322 248.608 196.295 248.382C196.187 247.595 196.594 246.826 197.318 246.491L235.636 228.44C235.88 228.323 236.142 228.268 236.405 228.268C236.667 228.268 236.948 228.332 237.201 228.449C237.699 228.694 238.051 229.146 238.169 229.68C238.431 230.856 244.448 258.588 235.636 269.572C233.211 272.585 229.935 274.123 225.891 274.123V274.132Z" fill="#59161F"/>
  <path d="M236.405 230.078C236.405 230.078 245.769 272.323 225.891 272.323C225.212 272.323 224.498 272.277 223.747 272.169C201.073 269.084 198.087 248.129 198.087 248.129L236.405 230.078ZM236.405 226.459C235.88 226.459 235.355 226.576 234.867 226.803L196.549 244.853C195.11 245.532 194.287 247.07 194.504 248.635C194.54 248.88 195.409 254.715 199.362 260.931C203.045 266.704 210.175 273.969 223.258 275.752C224.154 275.879 225.04 275.933 225.891 275.933C230.442 275.933 234.297 274.123 237.047 270.712C246.24 259.248 240.612 232.322 239.942 229.291C239.707 228.214 238.992 227.309 238.006 226.821C237.499 226.576 236.957 226.45 236.414 226.45L236.405 226.459Z" fill="black"/>
  <path d="M100.586 273.418C96.252 273.418 92.5966 271.798 89.7375 268.604C80.21 257.955 82.8611 233.009 82.9787 231.951C83.042 231.39 83.3678 230.883 83.8563 230.594C84.1368 230.422 84.4625 230.34 84.7792 230.34C85.0145 230.34 85.2407 230.386 85.4669 230.476L127.35 247.631C127.983 247.893 128.417 248.49 128.472 249.169C128.49 249.359 129.603 268.26 104.278 273.047C103.002 273.291 101.762 273.408 100.586 273.408V273.418Z" fill="#59161F"/>
  <path d="M84.7881 232.159L126.671 249.314C126.671 249.314 127.974 266.74 103.943 271.282C102.757 271.508 101.635 271.617 100.586 271.617C80.3908 271.617 84.7881 232.159 84.7881 232.159ZM84.7881 228.54C84.1457 228.54 83.5032 228.712 82.9423 229.046C81.9651 229.626 81.3136 230.63 81.196 231.761C81.0784 232.847 78.3369 258.57 88.3982 269.816C91.6102 273.408 95.718 275.236 100.595 275.236C101.88 275.236 103.237 275.1 104.621 274.838C118.428 272.232 124.68 265.501 127.503 260.325C130.598 254.634 130.326 249.603 130.29 249.042C130.191 247.676 129.322 246.482 128.055 245.966L86.1724 228.811C85.729 228.63 85.2676 228.54 84.7971 228.54H84.7881Z" fill="black"/>
  <path d="M53.374 144.819C53.374 144.819 30.5371 210.48 59.3185 212.118C89.1857 213.819 92.8502 174.053 92.8502 174.053L53.374 144.819Z" fill="#59161F" stroke="black" stroke-width="4" stroke-linecap="round" stroke-linejoin="round"/>
  <path d="M268.914 144.819C268.914 144.819 291.751 210.48 262.969 212.118C233.102 213.819 229.438 174.053 229.438 174.053L268.914 144.819Z" fill="#59161F" stroke="black" stroke-width="4" stroke-linecap="round" stroke-linejoin="round"/>
  <path d="M206.031 272.44C205.741 272.44 205.452 272.368 205.189 272.232L193.228 265.926C184.705 268.803 172.237 270.703 161.162 270.812C150.051 270.712 137.583 268.803 129.06 265.926L117.099 272.232C116.836 272.368 116.547 272.44 116.257 272.44C115.968 272.44 115.66 272.368 115.389 272.214C114.855 271.925 114.502 271.382 114.457 270.775L113.461 258.914C101.808 252.381 91.4025 243.496 82.5083 232.467L67.3893 232.322C66.8554 232.322 66.3487 232.077 66.0049 231.661C65.6611 231.245 65.5254 230.702 65.6249 230.177L69.0993 211.892C69.0269 211.756 68.9636 211.629 68.8912 211.493L53.1026 200.147C52.5416 199.749 52.2611 199.062 52.3697 198.383C52.4783 197.704 52.9669 197.143 53.6273 196.944L61.6076 194.501C59.1375 187.417 57.2375 180.034 55.9436 172.515L44.6789 161.92C44.1904 161.458 44.0003 160.771 44.1723 160.128L47.8186 146.71L37.7211 111.704C37.5039 110.962 37.7844 110.166 38.4178 109.722L54.1521 98.6386L49.5105 71.0786C49.402 70.4362 49.6463 69.7938 50.1439 69.3776C50.4696 69.1061 50.8768 68.9704 51.293 68.9704C51.5101 68.9704 51.7273 69.0066 51.9354 69.0881L61.3543 72.6801L61.5986 46.6492C61.5986 45.9073 62.06 45.2468 62.7477 44.9844C62.9648 44.9029 63.182 44.8577 63.4082 44.8577C63.8968 44.8577 64.3763 45.0567 64.7292 45.4277L73.6233 54.8557L82.5626 30.3901C82.825 29.6753 83.4946 29.2048 84.2546 29.2048H84.2636C85.0146 29.2048 85.6932 29.6662 85.9556 30.372L89.4119 39.5194L120.446 16.6734C120.763 16.4381 121.143 16.3205 121.523 16.3205C121.767 16.3205 122.021 16.3748 122.247 16.4743L132.996 21.1974L160.773 15.4791C160.891 15.4519 161.017 15.4429 161.135 15.4429C161.252 15.4429 161.379 15.4519 161.497 15.4791L189.274 21.1974L200.023 16.4743C200.258 16.3748 200.502 16.3205 200.747 16.3205C201.127 16.3205 201.507 16.4381 201.823 16.6734L232.858 39.5194L236.314 30.372C236.577 29.6662 237.255 29.2048 238.006 29.2048H238.015C238.775 29.2048 239.445 29.6843 239.707 30.3901L248.646 54.8557L257.541 45.4277C257.884 45.0567 258.364 44.8577 258.853 44.8577C259.079 44.8577 259.296 44.8939 259.513 44.9844C260.201 45.2558 260.653 45.9163 260.662 46.6492L260.906 72.6801L270.325 69.0881C270.533 69.0066 270.751 68.9704 270.968 68.9704C271.384 68.9704 271.782 69.1152 272.117 69.3776C272.614 69.7938 272.859 70.4362 272.75 71.0786L268.109 98.6386L283.843 109.722C284.476 110.166 284.757 110.962 284.54 111.704L274.442 146.71L278.088 160.128C278.26 160.771 278.07 161.467 277.582 161.92L266.317 172.515C265.023 180.034 263.114 187.417 260.653 194.501L268.633 196.944C269.294 197.143 269.782 197.704 269.891 198.383C270 199.062 269.719 199.749 269.158 200.147L253.369 211.493C253.297 211.629 253.234 211.765 253.161 211.892L256.636 230.177C256.735 230.702 256.6 231.245 256.256 231.661C255.912 232.077 255.414 232.322 254.871 232.322L239.752 232.467C230.858 243.496 220.444 252.381 208.799 258.914L207.804 270.775C207.75 271.382 207.406 271.916 206.872 272.214C206.601 272.359 206.302 272.44 206.004 272.44H206.031Z" fill="#B2282F"/>
  <path d="M161.144 17.2615L189.482 23.0974L200.765 18.1392L233.717 42.3967L238.015 31.0144L247.959 58.2305L258.862 46.6763L259.133 75.313L270.986 70.7981L266.154 99.4801L282.82 111.215L272.578 146.71L276.36 160.617L264.652 171.628C263.25 179.989 261.114 188.05 258.328 195.696L268.127 198.691L251.985 210.29C251.759 210.733 251.524 211.177 251.288 211.62L254.88 230.53L238.902 230.684C229.935 241.958 219.159 251.214 207.098 257.819L206.031 270.64L193.373 263.962C184.171 267.22 171.241 268.912 161.144 269.002C151.037 268.912 138.117 267.22 128.915 263.962L116.257 270.64L115.189 257.819C103.129 251.214 92.3434 241.958 83.3859 230.684L67.4073 230.53L70.9993 211.62C70.7641 211.177 70.5379 210.733 70.3026 210.29L54.1611 198.691L63.96 195.696C61.1733 188.041 59.038 179.989 57.6355 171.628L45.9275 160.617L49.7095 146.71L39.4673 111.215L56.1336 99.4801L51.302 70.7981L63.1548 75.313L63.4262 46.6763L74.329 58.2305L84.2726 31.0144L88.5704 42.3967L121.523 18.1392L132.806 23.0974L161.144 17.2615ZM161.144 13.6423C160.9 13.6423 160.655 13.6695 160.411 13.7147L133.204 19.3154L122.98 14.8186C122.509 14.6105 122.021 14.5109 121.523 14.5109C120.763 14.5109 120.012 14.7462 119.379 15.2167L90.2714 36.6422L87.6566 29.7205C87.1227 28.309 85.7746 27.3771 84.2726 27.3771C84.2726 27.3771 84.2636 27.3771 84.2545 27.3771C82.7435 27.3771 81.3954 28.3362 80.8706 29.7567L72.9356 51.4717L66.0501 44.1791C65.3534 43.4372 64.3943 43.0481 63.4172 43.0481C62.9738 43.0481 62.5305 43.1295 62.0962 43.3015C60.7209 43.8443 59.807 45.1563 59.798 46.6401L59.5808 70.0743L52.5868 67.4051C52.1706 67.2423 51.7363 67.1699 51.302 67.1699C50.4786 67.1699 49.6643 67.4504 49.0038 67.9933C47.9995 68.8166 47.5109 70.1105 47.728 71.3953L52.1796 97.8243L37.3772 108.248C36.1196 109.134 35.5586 110.727 35.9838 112.211L45.9456 146.728L42.426 159.658C42.0731 160.952 42.4622 162.327 43.4393 163.241L54.2607 173.42C55.455 180.206 57.1469 186.874 59.2913 193.316L53.0935 195.207C51.7815 195.605 50.8043 196.718 50.5781 198.084C50.3519 199.451 50.922 200.808 52.0349 201.613L67.1359 212.471L63.8424 229.843C63.6434 230.892 63.9238 231.987 64.6024 232.81C65.281 233.643 66.2944 234.122 67.3711 234.131L81.6397 234.267C90.3438 244.907 100.459 253.557 111.742 260.018L112.656 270.92C112.756 272.133 113.461 273.209 114.52 273.798C115.063 274.096 115.66 274.241 116.257 274.241C116.854 274.241 117.415 274.105 117.949 273.825L129.232 267.88C137.891 270.676 150.178 272.513 161.117 272.612C161.126 272.612 161.135 272.612 161.153 272.612C161.171 272.612 161.171 272.612 161.189 272.612C172.128 272.513 184.415 270.667 193.074 267.88L204.357 273.825C204.882 274.105 205.47 274.241 206.049 274.241C206.628 274.241 207.243 274.096 207.786 273.798C208.854 273.218 209.55 272.133 209.65 270.92L210.564 260.018C221.846 253.557 231.953 244.907 240.666 234.267L254.935 234.131C256.002 234.122 257.016 233.634 257.703 232.81C258.382 231.978 258.662 230.892 258.463 229.843L255.17 212.471L270.271 201.613C271.384 200.808 271.954 199.442 271.728 198.084C271.501 196.727 270.533 195.614 269.212 195.207L263.015 193.316C265.159 186.874 266.842 180.206 268.045 173.42L278.866 163.241C279.844 162.327 280.233 160.943 279.88 159.658L276.36 146.728L286.322 112.211C286.747 110.727 286.186 109.134 284.929 108.248L270.126 97.8243L274.578 71.3953C274.795 70.1195 274.306 68.8166 273.302 67.9933C272.642 67.4504 271.827 67.1699 271.004 67.1699C270.57 67.1699 270.135 67.2513 269.719 67.4051L262.725 70.0743L262.508 46.6401C262.49 45.1653 261.585 43.8443 260.21 43.3015C259.784 43.1295 259.332 43.0481 258.889 43.0481C257.911 43.0481 256.952 43.4462 256.256 44.1791L249.37 51.4717L241.435 29.7567C240.919 28.3362 239.571 27.3861 238.051 27.3771C238.051 27.3771 238.042 27.3771 238.033 27.3771C236.531 27.3771 235.183 28.309 234.649 29.7205L232.034 36.6422L202.927 15.2167C202.294 14.7552 201.543 14.5109 200.783 14.5109C200.285 14.5109 199.797 14.6105 199.326 14.8186L189.102 19.3154L161.895 13.7147C161.651 13.6695 161.406 13.6423 161.162 13.6423H161.144Z" fill="black"/>
  <path d="M84.2722 31.0144L81.585 50.9922L88.57 42.3967L84.2722 31.0144Z" fill="#821E28"/>
  <path d="M238.087 31.0144L240.765 50.9922L233.79 42.3967L238.087 31.0144Z" fill="#821E28"/>
  <path d="M266.353 99.3985L260.4 90.8572L271.185 70.7166L266.353 99.3985Z" fill="#821E28"/>
  <path d="M268.325 198.609L258.526 195.614C261.313 187.96 263.449 179.907 264.851 171.547L276.559 160.535L261.114 166.869L252.718 174.75L260.137 176.025L250.094 182.857C250.094 182.857 229.519 216.289 203.126 226.866L201.624 234.403L189.916 231.408C189.916 231.408 177.149 235.814 161.144 235.959C145.138 235.805 132.453 231.408 132.453 231.408L120.745 234.403L119.243 226.866C92.8407 216.289 72.2748 182.857 72.2748 182.857L62.2316 176.025L69.6509 174.75L61.2544 166.869L45.8096 160.535L57.5176 171.547C58.92 179.907 61.0553 187.969 63.8421 195.614L54.0432 198.609L70.1847 210.209C70.4109 210.652 70.6461 211.095 70.8814 211.539L67.2894 230.449L83.268 230.603C92.2345 241.876 103.011 251.132 115.071 257.737L116.139 270.558L128.797 263.881C137.999 267.138 150.358 268.893 160.465 268.993C170.571 268.902 184.351 267.138 193.553 263.881L206.211 270.558L207.279 257.737C219.34 251.132 230.125 241.876 239.082 230.603L255.061 230.449L251.469 211.539C251.704 211.095 251.93 210.652 252.166 210.209L268.307 198.609H268.325Z" fill="#821E28"/>
  <path d="M272.696 146.629L269.475 134.677L282.929 111.134L272.696 146.629Z" fill="#821E28"/>
  <path d="M56.0523 99.3985L61.9968 90.8572L51.2207 70.7166L56.0523 99.3985Z" fill="#821E28"/>
  <path d="M49.7005 146.629L52.9216 134.677L39.4673 111.134L49.7005 146.629Z" fill="#821E28"/>
  <path d="M63.1455 75.3132L70.5558 71.6307L63.4169 46.6765L63.1455 75.3132Z" fill="#821E28"/>
  <path d="M259.142 75.3132L252.247 66.9529L258.87 46.6765L259.142 75.3132Z" fill="#821E28"/>
  <path d="M106.467 241.731L116.456 233.606L115.813 242.718L106.467 241.731Z" fill="#59161F"/>
  <path d="M115.813 242.718L106.467 241.731L107.109 234.059" stroke="black" stroke-width="4" stroke-linecap="round" stroke-linejoin="round"/>
  <path d="M215.929 241.731L205.94 233.606L206.591 242.718L215.929 241.731Z" fill="#59161F"/>
  <path d="M206.591 242.718L215.929 241.731L215.286 234.059" stroke="black" stroke-width="4" stroke-linecap="round" stroke-linejoin="round"/>
  <path d="M138.497 258.742L145.735 250.445L146.767 258.226L138.497 258.742Z" fill="#59161F"/>
  <path d="M147.111 257.557L138.85 258.217L138.162 251.458" stroke="black" stroke-width="4" stroke-linecap="round" stroke-linejoin="round"/>
  <path d="M184.072 258.271L176.679 250.11L175.784 257.9L184.072 258.271Z" fill="#59161F"/>
  <path d="M175.621 257.755L183.899 257.991L184.234 251.205" stroke="black" stroke-width="4" stroke-linecap="round" stroke-linejoin="round"/>
  <path d="M183.519 65.8217C183.682 73.5396 173.34 75.7292 160.592 75.7201C147.934 75.7201 137.909 70.4181 138.18 65.4507C138.452 60.4834 148.938 57.0181 161.587 57.7238C174.236 58.4295 183.411 60.8363 183.51 65.8217H183.519Z" fill="#821E28"/>
  <path d="M137.339 65.2607C137.158 60.782 147.273 56.7376 159.932 56.2219C172.59 55.7061 183.339 60.782 183.519 65.2607" stroke="#59161F" stroke-width="4" stroke-linecap="round" stroke-linejoin="round"/>
  <path d="M153.109 66.6542C153.109 66.6542 140.153 39.0308 144.559 9.36266C144.559 9.36266 165.632 -0.707692 179.303 17.4334C179.303 17.4334 169.278 41.4466 168.708 67.0432C168.708 67.0432 163.668 73.5487 153.118 66.6451L153.109 66.6542Z" fill="#725126" stroke="black" stroke-width="4" stroke-linecap="round" stroke-linejoin="round"/>
  <path d="M144.559 9.36272C144.559 9.36272 139.176 22.7808 179.303 17.4335C179.303 17.4335 168.618 0.396216 144.559 9.36272Z" fill="#A87B45" stroke="black" stroke-width="4" stroke-linecap="round" stroke-linejoin="round"/>
  <path d="M156.394 62.664C156.394 62.664 147.22 39.3293 149.237 22.835" stroke="#351B00" stroke-width="4" stroke-linecap="round" stroke-linejoin="round"/>
  <path d="M189.672 23.0159L195.942 36.9135L200.955 18.0667L189.672 23.0159Z" fill="#821E28"/>
  <path d="M133.014 23.0159L126.744 36.9135L121.731 18.0667L133.014 23.0159Z" fill="#821E28"/>
  <path d="M114.674 163.503C106.268 163.503 99.6724 160.897 95.0489 155.749C86.4533 146.176 87.9281 131.383 87.9915 130.759C88.091 129.836 88.8691 129.139 89.792 129.139C89.8373 129.139 89.8915 129.139 89.9368 129.139L143.573 133.346C144.46 133.419 145.165 134.116 145.238 135.002C145.274 135.455 146.07 146.167 138.696 154.428C133.602 160.128 125.957 163.177 115.968 163.485C115.533 163.494 115.108 163.503 114.683 163.503H114.674Z" fill="black"/>
  <path d="M89.7919 130.949L143.428 135.156C143.428 135.156 145.545 160.771 115.913 161.676C115.497 161.685 115.09 161.694 114.683 161.694C86.4985 161.694 89.801 130.949 89.801 130.949M89.801 127.33C87.9733 127.33 86.408 128.714 86.209 130.56C86.1366 131.22 84.5803 146.792 93.7187 156.953C98.6951 162.499 105.752 165.304 114.692 165.304C115.135 165.304 115.579 165.304 116.031 165.286C126.536 164.96 134.615 161.712 140.053 155.622C147.934 146.801 147.083 135.328 147.047 134.848C146.902 133.075 145.491 131.673 143.727 131.537L90.0905 127.33C89.991 127.33 89.9005 127.321 89.801 127.321V127.33Z" fill="black"/>
  <path d="M115.958 157.468C104.703 157.468 96.7042 154.175 92.1984 147.669C84.01 135.853 90.5607 117.992 90.8412 117.241C91.1126 116.517 91.8002 116.065 92.5331 116.065C92.6869 116.065 92.8408 116.083 93.0036 116.128C93.1846 116.174 111.127 120.951 143.373 128.859C144.016 129.013 144.523 129.51 144.694 130.144C144.803 130.542 147.282 140.078 141.464 147.896C136.995 153.903 129.005 157.115 117.695 157.441C117.107 157.459 116.519 157.468 115.958 157.468Z" fill="white"/>
  <path d="M92.5424 117.875C92.5424 117.875 110.304 122.607 142.948 130.614C142.948 130.614 149.454 154.718 117.65 155.632C117.08 155.65 116.51 155.659 115.958 155.659C78.3643 155.659 92.5424 117.875 92.5424 117.875ZM92.5424 114.255C91.0676 114.255 89.6923 115.16 89.1585 116.608C88.8599 117.395 82.0016 136.115 90.7238 148.701C95.5916 155.722 104.079 159.278 115.968 159.278C116.547 159.278 117.153 159.278 117.759 159.251C129.639 158.907 138.108 155.451 142.921 148.972C149.255 140.449 146.559 130.098 146.441 129.664C146.097 128.388 145.093 127.402 143.808 127.094C111.579 119.196 93.6463 114.427 93.4744 114.373C93.1667 114.292 92.8501 114.246 92.5424 114.246V114.255Z" fill="black"/>
  <path d="M90.0901 129.239C94.2431 129.917 128.761 135.726 141.555 144.294C144.848 137.671 142.939 130.614 142.939 130.614C110.294 122.616 92.533 117.875 92.533 117.875C92.533 117.875 90.6601 122.878 90.0811 129.239H90.0901Z" fill="#999999"/>
  <path d="M115.904 144.819C122.235 144.819 127.368 139.687 127.368 133.356C127.368 127.024 122.235 121.892 115.904 121.892C109.573 121.892 104.44 127.024 104.44 133.356C104.44 139.687 109.573 144.819 115.904 144.819Z" fill="black"/>
  <path d="M147.355 140.639C147.084 140.639 146.803 140.576 146.55 140.449C110.014 122.326 56.2061 121.575 55.6633 121.566C54.7585 121.557 53.9984 120.878 53.8899 119.983C53.7813 119.087 54.3423 118.236 55.2199 118.01C70.149 114.065 84.7705 112.057 98.6862 112.057C122.401 112.057 137.104 117.784 141.365 119.702L149.472 110.808C149.825 110.428 150.314 110.22 150.811 110.22C151.065 110.22 151.327 110.274 151.571 110.392C152.286 110.727 152.702 111.487 152.603 112.265L149.137 139.065C149.065 139.644 148.712 140.151 148.196 140.431C147.934 140.576 147.635 140.648 147.346 140.648L147.355 140.639Z" fill="#821E28"/>
  <path d="M150.82 112.03L147.355 138.83C110.014 120.299 55.6809 119.757 55.6809 119.757C72.2024 115.386 86.6158 113.866 98.6857 113.866C126.445 113.866 141.799 121.919 141.799 121.919L150.811 112.03M150.811 108.41C149.816 108.41 148.838 108.818 148.133 109.596L140.894 117.54C135.294 115.205 120.808 110.256 98.6767 110.256C84.6072 110.256 69.8319 112.274 54.749 116.264C52.9937 116.725 51.8627 118.417 52.0798 120.209C52.306 122.009 53.8261 123.358 55.6357 123.376C56.1695 123.376 109.589 124.136 145.735 142.069C146.242 142.322 146.794 142.449 147.346 142.449C147.934 142.449 148.522 142.304 149.056 142.023C150.087 141.472 150.793 140.458 150.938 139.291L154.403 112.491C154.602 110.926 153.77 109.406 152.331 108.745C151.842 108.519 151.327 108.41 150.811 108.41Z" fill="black"/>
  <path d="M145.319 133.401C120.79 119.675 69.6602 116.753 68.9364 116.762C64.6838 117.567 60.2685 118.553 55.6812 119.766C55.6812 119.766 110.005 120.308 147.355 138.839L150.82 112.039L145.319 133.401Z" fill="#59161F"/>
  <path d="M87.6113 155.632C87.6113 155.632 93.782 166.688 108.648 168.308C119.849 169.529 128.734 167.611 137.339 162.888" stroke="#59161F" stroke-width="4" stroke-linecap="round" stroke-linejoin="round"/>
  <path d="M92.9951 136.767C92.9951 136.767 94.0718 148.077 105.707 151.343C114.629 153.849 119.895 153.433 132.046 149.56" stroke="#DBDBDB" stroke-width="4" stroke-linecap="round" stroke-linejoin="round"/>
  <path d="M156.9 118.653L154.584 139.68" stroke="#59161F" stroke-width="4" stroke-linecap="round" stroke-linejoin="round"/>
  <path d="M211.134 163.503C210.709 163.503 210.283 163.503 209.849 163.485C199.86 163.177 192.215 160.128 187.121 154.428C179.756 146.176 180.543 135.455 180.579 135.002C180.651 134.116 181.357 133.419 182.244 133.346L235.88 129.139C235.925 129.139 235.979 129.139 236.025 129.139C236.939 129.139 237.726 129.827 237.825 130.759C237.889 131.383 239.372 146.176 230.768 155.749C226.144 160.897 219.539 163.503 211.143 163.503H211.134Z" fill="black"/>
  <path d="M236.025 130.949C236.025 130.949 239.327 161.694 211.143 161.694C210.736 161.694 210.329 161.694 209.912 161.676C180.28 160.762 182.398 135.156 182.398 135.156L236.034 130.949M236.034 127.33C235.943 127.33 235.844 127.33 235.744 127.339L182.108 131.546C180.335 131.682 178.932 133.084 178.787 134.857C178.751 135.337 177.901 146.81 185.782 155.632C191.219 161.721 199.299 164.969 209.804 165.295C210.256 165.313 210.709 165.313 211.143 165.313C220.082 165.313 227.14 162.499 232.116 156.962C241.245 146.792 239.698 131.22 239.626 130.569C239.427 128.714 237.861 127.339 236.034 127.339V127.33Z" fill="black"/>
  <path d="M209.858 157.468C209.288 157.468 208.709 157.468 208.121 157.441C196.82 157.115 188.822 153.903 184.352 147.896C178.534 140.069 181.013 130.542 181.122 130.144C181.294 129.51 181.801 129.013 182.443 128.859C214.69 120.96 232.632 116.183 232.813 116.128C232.967 116.083 233.13 116.065 233.283 116.065C234.025 116.065 234.704 116.517 234.975 117.241C235.256 117.992 241.806 135.853 233.618 147.669C229.112 154.166 221.123 157.468 209.867 157.468H209.858Z" fill="white"/>
  <path d="M233.274 117.875C233.274 117.875 247.443 155.659 209.858 155.659C209.306 155.659 208.745 155.659 208.166 155.632C176.363 154.718 182.868 130.614 182.868 130.614C215.513 122.616 233.274 117.875 233.274 117.875ZM233.274 114.255C232.967 114.255 232.65 114.292 232.342 114.382C232.161 114.427 214.237 119.205 182.009 127.103C180.724 127.42 179.72 128.406 179.376 129.673C179.258 130.107 176.562 140.458 182.895 148.981C187.709 155.46 196.178 158.916 208.058 159.26C208.664 159.278 209.27 159.287 209.849 159.287C221.738 159.287 230.234 155.731 235.093 148.71C243.815 136.124 236.948 117.404 236.658 116.617C236.115 115.178 234.749 114.264 233.274 114.264V114.255Z" fill="black"/>
  <path d="M235.726 129.239C231.573 129.917 197.055 135.726 184.261 144.294C180.968 137.671 182.877 130.614 182.877 130.614C215.522 122.616 233.283 117.875 233.283 117.875C233.283 117.875 235.156 122.878 235.735 129.239H235.726Z" fill="#999999"/>
  <path d="M209.903 144.819C216.234 144.819 221.367 139.687 221.367 133.356C221.367 127.024 216.234 121.892 209.903 121.892C203.572 121.892 198.439 127.024 198.439 133.356C198.439 139.687 203.572 144.819 209.903 144.819Z" fill="black"/>
  <path d="M178.453 140.639C178.163 140.639 177.864 140.567 177.602 140.422C177.086 140.151 176.734 139.635 176.661 139.056L173.196 112.256C173.096 111.469 173.512 110.718 174.227 110.383C174.472 110.274 174.734 110.211 174.987 110.211C175.485 110.211 175.973 110.419 176.326 110.799L184.433 119.693C188.695 117.775 203.398 112.048 227.112 112.048C241.019 112.048 255.65 114.047 270.579 118.001C271.456 118.236 272.026 119.078 271.909 119.974C271.8 120.869 271.04 121.548 270.135 121.557C269.592 121.557 215.784 122.317 179.249 140.44C178.995 140.567 178.724 140.63 178.444 140.63L178.453 140.639Z" fill="#821E28"/>
  <path d="M174.996 112.03L184.008 121.919C184.008 121.919 199.362 113.866 227.121 113.866C239.191 113.866 253.604 115.386 270.126 119.757C270.126 119.757 215.802 120.299 178.452 138.83L174.996 112.03ZM174.996 108.41C174.48 108.41 173.965 108.519 173.476 108.745C172.046 109.406 171.205 110.926 171.404 112.491L174.86 139.291C175.014 140.449 175.711 141.472 176.742 142.023C177.276 142.304 177.864 142.449 178.452 142.449C179.004 142.449 179.556 142.322 180.063 142.069C216.209 124.136 269.628 123.376 270.162 123.376C271.972 123.358 273.492 122 273.718 120.209C273.944 118.408 272.804 116.725 271.049 116.264C255.966 112.274 241.191 110.256 227.121 110.256C204.999 110.256 190.504 115.214 184.903 117.54L177.665 109.596C176.959 108.827 175.982 108.41 174.987 108.41H174.996Z" fill="black"/>
  <path d="M180.488 133.401C205.017 119.675 256.147 116.753 256.871 116.762C261.124 117.567 265.539 118.553 270.126 119.766C270.126 119.766 215.803 120.308 178.453 138.839L174.987 112.039L180.488 133.401Z" fill="#59161F"/>
  <path d="M238.205 155.632C238.205 155.632 232.034 166.688 217.169 168.308C205.967 169.529 197.082 167.611 188.478 162.888" stroke="#59161F" stroke-width="4" stroke-linecap="round" stroke-linejoin="round"/>
  <path d="M232.821 136.767C232.821 136.767 231.745 148.077 220.109 151.343C211.188 153.849 205.922 153.433 193.771 149.56" stroke="#DBDBDB" stroke-width="4" stroke-linecap="round" stroke-linejoin="round"/>
  <path d="M168.907 118.653L171.232 139.68" stroke="#59161F" stroke-width="4" stroke-linecap="round" stroke-linejoin="round"/>
  <path d="M226.38 181.147C201.317 205.359 121.08 206.734 99.6904 181.147C99.6904 181.147 108.539 191.353 162.022 191.353C215.504 191.353 226.38 181.147 226.38 181.147Z" fill="#59161F" stroke="black" stroke-width="4" stroke-linecap="round" stroke-linejoin="round"/>
  <path d="M121.613 200.256C121.613 200.256 163.315 211.937 205.623 198.7" stroke="#59161F" stroke-width="4" stroke-linecap="round" stroke-linejoin="round"/>
  <path d="M146.178 209.856C146.178 209.856 161.858 212.642 177.873 209.856" stroke="#821E28" stroke-width="4" stroke-linecap="round" stroke-linejoin="round"/>
  <path d="M101.572 176.713C101.572 176.713 90.1536 173.926 95.899 185.77" stroke="#59161F" stroke-width="4" stroke-linecap="round" stroke-linejoin="round"/>
  <path d="M224.244 176.759C224.244 176.759 235.662 173.972 229.917 185.815" stroke="#59161F" stroke-width="4" stroke-linecap="round" stroke-linejoin="round"/>
  <path d="M167.803 170.226C167.803 170.226 253.315 190.059 266.353 157.161C273.094 140.16 248.113 136.233 245.769 150.456C243.426 164.679 262.137 158.663 258.391 150.456" stroke="black" stroke-width="4" stroke-linecap="round" stroke-linejoin="round"/>
  <path d="M158.013 170.226C158.013 170.226 72.5015 190.059 59.4634 157.161C52.7227 140.16 77.7041 136.233 80.0475 150.456C82.3909 164.679 63.6798 158.663 67.4256 150.456" stroke="black" stroke-width="4" stroke-linecap="round" stroke-linejoin="round"/>
  <path d="M103.301 98.3128C103.301 98.3128 121.632 97.1637 133.268 82.0989" stroke="#821E28" stroke-width="4" stroke-linecap="round" stroke-linejoin="round"/>
  <path d="M92.6239 94.5579C88.4799 94.5579 84.1007 94.1689 79.622 93.4089C77.6857 93.0831 76.0209 91.9159 75.0528 90.224C70.375 81.9904 56.206 51.6255 70.565 6.36776C71.4427 3.59909 73.8856 1.81665 76.781 1.81665C79.2782 1.81665 81.504 3.21908 82.5988 5.48106C89.81 20.4192 105.363 48.8478 128.445 71.4495C130.987 73.9377 131.078 77.9278 128.644 80.5337C123.749 85.7724 112.566 94.5579 92.6148 94.5579H92.6239Z" fill="white"/>
  <path d="M76.7808 3.62625C78.4456 3.62625 80.1104 4.48581 80.97 6.26825C88.2536 21.3511 103.907 49.9607 127.187 72.7434C129.015 74.5258 129.078 77.4302 127.332 79.2941C122.636 84.3157 111.896 92.7484 92.6237 92.7484C88.7422 92.7484 84.5168 92.4045 79.9204 91.6264C78.5361 91.3912 77.3237 90.5497 76.627 89.3283C72.293 81.7189 58.0697 51.7522 72.293 6.9197C72.9807 4.75724 74.8807 3.62625 76.7899 3.62625M76.7899 0.00708008C73.1435 0.00708008 69.9496 2.34145 68.8458 5.8249C54.2696 51.7793 68.7101 82.7323 73.4874 91.1197C74.7179 93.2912 76.8532 94.7751 79.3233 95.1913C83.9015 95.9694 88.3803 96.3675 92.6328 96.3675C113.271 96.3675 124.898 87.2201 129.992 81.7732C133.095 78.4436 132.987 73.3496 129.729 70.1647C106.838 47.7621 91.4113 19.5325 84.2454 4.70296C82.852 1.81667 79.9928 0.016128 76.7989 0.016128L76.7899 0.00708008Z" fill="black"/>
  <path d="M127.187 72.7434C127.187 72.7434 127.132 72.68 127.096 72.6529C126.454 72.0195 125.811 71.3771 125.178 70.7347C125.015 70.5628 124.852 70.3999 124.68 70.228C124.192 69.7304 123.712 69.2328 123.233 68.7351C123.043 68.5361 122.853 68.337 122.663 68.138C122.102 67.5499 121.55 66.9617 120.998 66.3646C120.934 66.2922 120.871 66.2289 120.799 66.1565C120.193 65.496 119.586 64.8264 118.989 64.1659C118.817 63.9759 118.645 63.7769 118.473 63.5868C118.021 63.0802 117.578 62.5735 117.134 62.0668C116.962 61.8768 116.8 61.6777 116.628 61.4877C116.049 60.8182 115.47 60.1396 114.909 59.47C114.863 59.4158 114.809 59.3524 114.764 59.2981C114.239 58.6738 113.723 58.0495 113.208 57.4162C113.036 57.2081 112.873 57.009 112.71 56.8009C112.285 56.2761 111.868 55.7604 111.452 55.2356C111.307 55.0547 111.163 54.8737 111.018 54.6927C110.484 54.0141 109.95 53.3355 109.426 52.6479C109.326 52.5122 109.226 52.3855 109.118 52.2498C108.684 51.6888 108.258 51.1279 107.833 50.5669C107.67 50.3588 107.516 50.1416 107.354 49.9335C106.946 49.3907 106.548 48.8478 106.15 48.3139C106.042 48.1601 105.924 48.0063 105.806 47.8525C105.309 47.1739 104.82 46.4953 104.332 45.8167C104.214 45.6448 104.096 45.4819 103.97 45.31C103.59 44.7853 103.219 44.2514 102.848 43.7266C102.703 43.5185 102.558 43.3104 102.413 43.1023C102.015 42.5233 101.617 41.9442 101.219 41.3742C101.147 41.2656 101.074 41.1661 101.002 41.0575C100.54 40.388 100.097 39.7184 99.6537 39.0489C99.5271 38.8589 99.4004 38.6689 99.2737 38.4788C98.9389 37.9722 98.6132 37.4745 98.2875 36.9769C98.1608 36.7778 98.0251 36.5788 97.8984 36.3797C97.4822 35.7283 97.057 35.0859 96.6498 34.4435C96.6317 34.4163 96.6136 34.3892 96.5955 34.353C96.1884 33.7106 95.7903 33.0772 95.3922 32.4348C95.2745 32.2448 95.1569 32.0458 95.0302 31.8558C94.7317 31.3672 94.424 30.8876 94.1345 30.399C94.0259 30.2181 93.9173 30.0371 93.8088 29.8562C93.4197 29.2228 93.0397 28.5895 92.6687 27.9742C92.6054 27.8747 92.5511 27.7751 92.4878 27.6756C92.1711 27.1418 91.8544 26.608 91.5468 26.0832C91.4382 25.8932 91.3206 25.7032 91.212 25.5132C90.9315 25.0336 90.6601 24.5631 90.3887 24.0926C90.3072 23.9479 90.2167 23.7941 90.1353 23.6493C89.7915 23.0521 89.4567 22.455 89.1219 21.8668C89.0496 21.7311 88.9681 21.5954 88.8957 21.4687C88.6334 21.0073 88.38 20.5458 88.1267 20.0844C88.0271 19.9034 87.9276 19.7225 87.8281 19.5506C87.5657 19.0801 87.3124 18.6096 87.059 18.1481C87.0047 18.0486 86.9414 17.94 86.8871 17.8405C86.5795 17.2795 86.2899 16.7276 85.9914 16.1847C85.9099 16.04 85.8375 15.8952 85.7652 15.7504C85.548 15.3433 85.3309 14.9361 85.1228 14.529C85.0413 14.3661 84.9508 14.2032 84.8694 14.0404C84.6161 13.5608 84.3718 13.0813 84.1275 12.6199C84.1094 12.5837 84.0822 12.5384 84.0642 12.4932C83.8018 11.9865 83.5484 11.4889 83.2951 10.9912C83.2227 10.8555 83.1594 10.7198 83.087 10.5841C82.897 10.2131 82.716 9.85119 82.535 9.48927C82.4717 9.3626 82.4084 9.22689 82.345 9.10021C82.1098 8.63877 81.8836 8.17733 81.6664 7.73398C81.6484 7.68874 81.6303 7.65254 81.6031 7.61635C81.4041 7.2092 81.2141 6.82014 81.024 6.43107C80.9969 6.37679 80.9698 6.3225 80.9426 6.26821C79.0968 2.45903 73.5776 2.86619 72.2747 6.88347C72.0394 7.63445 71.8042 8.37638 71.578 9.11831C71.5237 9.29022 71.4785 9.46213 71.4242 9.63404C71.2432 10.2583 71.0623 10.8736 70.8904 11.4889C70.818 11.7513 70.7456 12.0136 70.6732 12.276C70.5284 12.8099 70.3837 13.3346 70.248 13.8594C70.1756 14.1218 70.1122 14.3933 70.0399 14.6556C69.8951 15.2257 69.7594 15.7866 69.6236 16.3476C69.5784 16.5557 69.5241 16.7548 69.4698 16.9629C69.2889 17.7229 69.117 18.4739 68.9541 19.2158C68.9179 19.3606 68.8908 19.5053 68.8636 19.6501C68.737 20.2563 68.6103 20.8535 68.4836 21.4506C68.4384 21.6949 68.3841 21.9392 68.3388 22.1835C68.2393 22.6902 68.1488 23.1878 68.0584 23.6945C68.0131 23.9479 67.9679 24.2012 67.9226 24.4455C67.8322 24.9703 67.7417 25.4951 67.6602 26.0198C67.6241 26.2189 67.5969 26.418 67.5607 26.6261C67.4521 27.3408 67.3436 28.0466 67.244 28.7433C67.2259 28.8609 67.2169 28.9785 67.1988 29.1052C67.1174 29.6933 67.045 30.2724 66.9726 30.8514C66.9455 31.0776 66.9183 31.3038 66.8912 31.53C66.8369 32.0005 66.7826 32.4801 66.7374 32.9506C66.7102 33.1858 66.6921 33.4211 66.665 33.6653C66.6197 34.1539 66.5745 34.6425 66.5293 35.1221C66.5112 35.3121 66.4931 35.5111 66.475 35.7011C66.4207 36.3707 66.3754 37.0312 66.3302 37.6917C66.3302 37.7822 66.3212 37.8726 66.3121 37.9722C66.2759 38.5422 66.2488 39.1032 66.2216 39.6551C66.2126 39.8632 66.2035 40.0803 66.1945 40.2884C66.1764 40.7318 66.1583 41.1751 66.1492 41.6185C66.1492 41.8356 66.1402 42.0618 66.1311 42.279C66.1221 42.7314 66.1131 43.1838 66.104 43.6362C66.104 43.8171 66.104 43.9981 66.104 44.179C66.104 44.8033 66.104 45.4186 66.104 46.0339C66.104 46.0972 66.104 46.1515 66.104 46.2058C66.104 46.7577 66.1221 47.3096 66.1311 47.8525C66.1311 48.0425 66.1402 48.2325 66.1492 48.4316C66.1583 48.8478 66.1764 49.2549 66.1945 49.6621C66.1945 49.8702 66.2126 50.0783 66.2216 50.2773C66.2397 50.6936 66.2669 51.1007 66.285 51.5079C66.294 51.6798 66.3031 51.8607 66.3121 52.0326C66.3483 52.6027 66.3935 53.1727 66.4388 53.7337C66.4388 53.7608 66.4388 53.7879 66.4388 53.8151C66.484 54.3489 66.5293 54.8827 66.5835 55.4075C66.6016 55.5794 66.6197 55.7513 66.6378 55.9233C66.674 56.3033 66.7193 56.6833 66.7645 57.0633C66.7826 57.2533 66.8097 57.4343 66.8278 57.6243C66.8731 58.0043 66.9183 58.3752 66.9726 58.7462C66.9907 58.9091 67.0178 59.0719 67.0359 59.2348C67.1807 60.2844 67.3345 61.3068 67.4974 62.302C67.5245 62.4559 67.5517 62.6097 67.5788 62.7635C67.6422 63.1073 67.6964 63.4602 67.7598 63.795C67.7869 63.9669 67.8231 64.1297 67.8503 64.3016C67.9136 64.6364 67.9769 64.9712 68.0493 65.306C68.0765 65.4507 68.1036 65.6045 68.1398 65.7493C68.2303 66.2108 68.3298 66.6632 68.4293 67.1065C68.4293 67.1156 68.4293 67.1246 68.4293 67.1427C68.5288 67.6041 68.6374 68.0565 68.737 68.5089C68.7641 68.6446 68.8003 68.7713 68.8365 68.907C68.9089 69.2237 68.9903 69.5313 69.0627 69.848C69.0989 70.0018 69.1351 70.1466 69.1803 70.3004C69.2527 70.599 69.3341 70.8976 69.4155 71.1962C69.4517 71.3319 69.4879 71.4586 69.5241 71.5943C69.6327 71.9833 69.7322 72.3633 69.8408 72.7343C69.8408 72.7615 69.8589 72.7977 69.8679 72.8248C69.9856 73.2319 70.1032 73.6301 70.2208 74.0282C70.257 74.1367 70.2842 74.2453 70.3203 74.3629C70.4018 74.6434 70.4923 74.9239 70.5827 75.1954C70.628 75.322 70.6642 75.4577 70.7094 75.5844C70.7908 75.8468 70.8813 76.1001 70.9627 76.3625C70.9989 76.4802 71.0351 76.5978 71.0804 76.7064C71.1889 77.0321 71.2975 77.3488 71.4061 77.6654C71.4151 77.7016 71.4332 77.7378 71.4423 77.774C71.569 78.1269 71.6866 78.4707 71.8133 78.8145C71.8494 78.905 71.8766 78.9955 71.9128 79.086C72.0033 79.3303 72.0937 79.5745 72.1842 79.8188C72.2295 79.9274 72.2656 80.036 72.3109 80.1446C72.3923 80.3708 72.4828 80.5879 72.5642 80.8051C72.6004 80.9046 72.6457 81.0041 72.6819 81.1036C72.7814 81.366 72.89 81.6194 72.9895 81.8727C73.0076 81.918 73.0257 81.9632 73.0438 82.0084C73.1614 82.307 73.2881 82.5875 73.4057 82.877C73.4328 82.9494 73.469 83.0218 73.4962 83.0851C73.5866 83.2932 73.6771 83.5014 73.7676 83.7004C73.8038 83.7909 73.84 83.8723 73.8852 83.9537C73.9667 84.1347 74.0481 84.3157 74.1295 84.4966C74.1657 84.578 74.2019 84.6595 74.2381 84.7409C74.3376 84.949 74.4281 85.1481 74.5186 85.3471C74.5367 85.3833 74.5548 85.4195 74.5729 85.4557C74.6814 85.6909 74.7991 85.9171 74.9076 86.1433C74.9348 86.1976 74.9619 86.2519 74.9891 86.3062C75.0705 86.4691 75.1519 86.641 75.2334 86.7948C75.2696 86.8581 75.2967 86.9305 75.3329 86.9939C75.4053 87.1386 75.4777 87.2743 75.541 87.4101C75.5681 87.4734 75.6043 87.5367 75.6315 87.591C75.7129 87.7448 75.7943 87.8986 75.8667 88.0434C75.8848 88.0706 75.8939 88.0977 75.912 88.1339C76.0024 88.3148 76.102 88.4777 76.1924 88.6406C76.2105 88.6677 76.2286 88.7039 76.2377 88.731C76.3101 88.8577 76.3734 88.9844 76.4458 89.102C76.4729 89.1473 76.5001 89.1925 76.5182 89.2377C76.5453 89.292 76.5725 89.3373 76.6087 89.3916C77.2963 90.5949 78.4906 91.4183 79.8569 91.6716C79.9835 91.6897 80.1102 91.7078 80.2278 91.735C80.8521 91.8345 81.4764 91.934 82.0827 92.0245C82.2727 92.0516 82.4627 92.0788 82.6527 92.1059C83.3856 92.2055 84.1094 92.2959 84.8151 92.3774C84.9056 92.3864 85.0051 92.3955 85.0956 92.4045C85.729 92.4678 86.3442 92.5312 86.9595 92.5764C87.1495 92.5945 87.3305 92.6036 87.5114 92.6217C88.19 92.6669 88.8596 92.7121 89.5201 92.7393C89.5291 92.7393 89.5472 92.7393 89.5562 92.7393C90.2258 92.7664 90.8863 92.7845 91.5468 92.7936C91.7187 92.7936 91.8906 92.7936 92.0625 92.7936C92.6235 92.7936 93.1845 92.7936 93.7273 92.7936C93.8178 92.7936 93.9173 92.7936 94.0078 92.7936C94.6321 92.7755 95.2474 92.7574 95.8536 92.7212C96.0074 92.7212 96.1612 92.7031 96.315 92.694C96.8127 92.6669 97.3103 92.6307 97.7899 92.5855C97.9165 92.5764 98.0432 92.5674 98.1608 92.5583C98.7399 92.504 99.3099 92.4498 99.8709 92.3774C99.9976 92.3593 100.124 92.3412 100.251 92.3321C100.712 92.2778 101.165 92.2055 101.617 92.1421C101.753 92.124 101.889 92.1059 102.024 92.0788C102.567 91.9883 103.092 91.8978 103.617 91.7983C103.707 91.7802 103.798 91.7621 103.888 91.744C104.332 91.6535 104.775 91.5631 105.2 91.4635C105.336 91.4364 105.463 91.4002 105.598 91.3731C106.096 91.2554 106.593 91.1378 107.082 91.0111C107.118 91.0021 107.154 90.993 107.191 90.984C107.643 90.8664 108.095 90.7397 108.53 90.604C108.656 90.5678 108.774 90.5316 108.901 90.4954C109.326 90.3687 109.751 90.233 110.167 90.0882C110.204 90.0792 110.249 90.0611 110.285 90.052C110.728 89.8982 111.172 89.7444 111.597 89.5816C111.706 89.5363 111.823 89.5001 111.932 89.4549C112.294 89.3192 112.647 89.1744 112.99 89.0387C113.063 89.0115 113.135 88.9753 113.208 88.9482C113.615 88.7763 114.013 88.6044 114.402 88.4325C114.492 88.3872 114.592 88.351 114.682 88.3058C114.999 88.161 115.316 88.0072 115.623 87.8624C115.705 87.8172 115.795 87.781 115.877 87.7358C116.248 87.5548 116.61 87.3648 116.962 87.1748C117.035 87.1386 117.107 87.0934 117.18 87.0572C117.469 86.9034 117.759 86.7405 118.039 86.5776C118.13 86.5324 118.211 86.4781 118.302 86.4329C118.636 86.2429 118.962 86.0438 119.279 85.8538C119.324 85.8267 119.36 85.7995 119.405 85.7724C119.686 85.6005 119.957 85.4195 120.229 85.2476C120.31 85.1933 120.392 85.1481 120.464 85.0938C120.763 84.8947 121.061 84.6957 121.342 84.4966C121.631 84.2976 121.903 84.0895 122.174 83.8904C122.246 83.8361 122.319 83.7818 122.382 83.7275C122.617 83.5556 122.844 83.3747 123.061 83.2028C123.097 83.1756 123.133 83.1485 123.169 83.1213C123.423 82.9223 123.658 82.7232 123.893 82.5332C123.956 82.4789 124.011 82.4337 124.074 82.3794C124.264 82.2165 124.454 82.0537 124.635 81.8908C124.68 81.8546 124.726 81.8094 124.771 81.7732C124.988 81.5832 125.196 81.3932 125.404 81.2032C125.449 81.1579 125.495 81.1217 125.54 81.0765C125.703 80.9227 125.866 80.7689 126.019 80.6151C126.065 80.5698 126.11 80.5336 126.155 80.4884C126.345 80.3074 126.517 80.1265 126.689 79.9546C126.716 79.9274 126.743 79.9003 126.77 79.8641C126.915 79.7103 127.06 79.5655 127.196 79.4207C127.223 79.3936 127.25 79.3664 127.277 79.3303C129.005 77.4664 128.933 74.571 127.114 72.7886L127.187 72.7434ZM80.8431 85.32C76.7263 78.1812 65.3349 60.9087 76.7082 23.1064C77.1877 21.523 79.3502 21.3511 80.065 22.835C85.2223 33.602 100.568 55.3985 123.631 73.7115C125.495 75.1863 125.477 78.0274 123.613 79.5022C117.994 83.9447 105.336 91.0835 84.598 87.8896C83.0236 87.6453 81.6393 86.6953 80.8431 85.32Z" fill="#DBDBDB"/>
  <path d="M76.7087 44.3057C76.7087 44.3057 73.1619 66.6812 85.0781 83.3384" stroke="#DBDBDB" stroke-width="4" stroke-linecap="round" stroke-linejoin="round"/>
  <path d="M218.353 98.3128C218.353 98.3128 200.022 97.1637 188.387 82.0989" stroke="#821E28" stroke-width="4" stroke-linecap="round" stroke-linejoin="round"/>
  <path d="M229.03 94.5579C209.08 94.5579 197.887 85.7724 193.002 80.5337C190.568 77.9278 190.658 73.9468 193.21 71.4495C216.291 48.8478 231.844 20.4192 239.055 5.48106C240.15 3.21908 242.376 1.81665 244.873 1.81665C247.778 1.81665 250.212 3.59909 251.089 6.36776C265.448 51.6255 251.288 81.9904 246.601 90.224C245.633 91.9159 243.969 93.0831 242.032 93.4089C237.554 94.1689 233.174 94.5579 229.03 94.5579Z" fill="white"/>
  <path d="M244.864 3.62627C246.773 3.62627 248.673 4.75726 249.361 6.91971C263.584 51.7522 249.361 81.719 245.027 89.3283C244.33 90.5497 243.118 91.3912 241.734 91.6264C237.137 92.4046 232.912 92.7484 229.03 92.7484C209.758 92.7484 199.009 84.3248 194.322 79.2941C192.576 77.4302 192.649 74.5259 194.467 72.7434C217.738 49.9607 233.4 21.3512 240.684 6.26826C241.544 4.48582 243.208 3.62627 244.873 3.62627M244.873 0.00709481C241.679 0.00709481 238.82 1.79859 237.427 4.69392C230.261 19.5235 214.825 47.753 191.943 70.1557C188.686 73.3406 188.577 78.4436 191.68 81.7642C196.774 87.2201 208.401 96.3585 229.039 96.3585C233.283 96.3585 237.762 95.9604 242.349 95.1823C244.819 94.7661 246.954 93.2732 248.185 91.1107C252.962 82.7233 267.403 51.7703 252.826 5.81587C251.722 2.34146 248.529 -0.00195312 244.882 -0.00195312L244.873 0.00709481Z" fill="black"/>
  <path d="M194.304 79.285C194.304 79.285 194.359 79.3393 194.386 79.3755C194.522 79.5203 194.666 79.665 194.811 79.8189C194.838 79.846 194.865 79.8731 194.893 79.9093C195.064 80.0812 195.245 80.2622 195.426 80.4432C195.472 80.4884 195.517 80.5246 195.562 80.5698C195.716 80.7236 195.879 80.8775 196.042 81.0313C196.087 81.0765 196.132 81.1127 196.177 81.158C196.376 81.348 196.594 81.538 196.811 81.728C196.856 81.7642 196.901 81.8094 196.946 81.8456C197.127 82.0085 197.317 82.1713 197.507 82.3342C197.571 82.3885 197.625 82.4337 197.688 82.488C197.924 82.6871 198.168 82.8771 198.412 83.0761C198.448 83.1033 198.485 83.1304 198.521 83.1575C198.747 83.3295 198.973 83.5104 199.199 83.6823C199.272 83.7366 199.344 83.7909 199.407 83.8452C199.679 84.0442 199.959 84.2523 200.24 84.4514C200.529 84.6505 200.819 84.8495 201.117 85.0486C201.199 85.1028 201.271 85.1481 201.353 85.2024C201.624 85.3743 201.896 85.5552 202.176 85.7272C202.221 85.7543 202.258 85.7814 202.303 85.8086C202.619 86.0076 202.945 86.1976 203.28 86.3877C203.361 86.4329 203.452 86.4872 203.542 86.5324C203.823 86.6953 204.112 86.8491 204.402 87.012C204.474 87.0482 204.547 87.0934 204.619 87.1296C204.972 87.3196 205.334 87.5006 205.705 87.6906C205.786 87.7358 205.877 87.772 205.958 87.8172C206.266 87.971 206.582 88.1158 206.899 88.2606C206.99 88.3058 207.08 88.342 207.18 88.3872C207.569 88.5592 207.967 88.7401 208.374 88.903C208.446 88.9301 208.519 88.9663 208.591 88.9935C208.935 89.1382 209.297 89.2739 209.65 89.4097C209.758 89.4549 209.867 89.4911 209.984 89.5363C210.419 89.6992 210.853 89.853 211.296 90.0068C211.333 90.0159 211.378 90.034 211.414 90.043C211.83 90.1787 212.246 90.3145 212.681 90.4502C212.807 90.4864 212.925 90.5226 213.052 90.5588C213.495 90.6854 213.938 90.8121 214.391 90.9388C214.427 90.9478 214.463 90.9569 214.499 90.9659C214.988 91.0926 215.477 91.2102 215.983 91.3278C216.119 91.355 216.246 91.3912 216.381 91.4183C216.816 91.5178 217.25 91.6083 217.693 91.6988C217.784 91.7169 217.874 91.735 217.965 91.7531C218.49 91.8526 219.014 91.9431 219.557 92.0336C219.693 92.0517 219.829 92.0788 219.964 92.0969C220.417 92.1693 220.869 92.2326 221.331 92.2869C221.457 92.305 221.584 92.3231 221.711 92.3321C222.272 92.3955 222.842 92.4588 223.421 92.5131C223.547 92.5221 223.665 92.5312 223.792 92.5402C224.28 92.5855 224.769 92.6126 225.266 92.6488C225.42 92.6488 225.574 92.6669 225.728 92.676C226.334 92.7031 226.949 92.7303 227.574 92.7484C227.664 92.7484 227.755 92.7484 227.854 92.7484C228.406 92.7574 228.958 92.7574 229.519 92.7484C229.691 92.7484 229.863 92.7484 230.035 92.7484C230.686 92.7393 231.347 92.7212 232.025 92.6941C232.034 92.6941 232.052 92.6941 232.061 92.6941C232.722 92.6669 233.391 92.6217 234.07 92.5764C234.251 92.5674 234.441 92.5493 234.622 92.5312C235.237 92.486 235.862 92.4226 236.486 92.3593C236.576 92.3502 236.676 92.3412 236.766 92.3321C237.481 92.2507 238.196 92.1602 238.929 92.0607C239.119 92.0336 239.309 92.0064 239.499 91.9793C240.114 91.8888 240.729 91.7983 241.354 91.6897C241.48 91.6716 241.607 91.6536 241.725 91.6264C243.091 91.3821 244.276 90.5497 244.973 89.3463C245 89.292 245.027 89.2468 245.063 89.1925C245.09 89.1473 245.118 89.102 245.136 89.0568C245.199 88.9392 245.271 88.8125 245.344 88.6858C245.362 88.6587 245.38 88.6315 245.389 88.5954C245.479 88.4325 245.57 88.2606 245.669 88.0887C245.688 88.0615 245.697 88.0344 245.715 87.9982C245.796 87.8534 245.869 87.6996 245.95 87.5458C245.977 87.4825 246.013 87.4282 246.04 87.3648C246.113 87.2291 246.185 87.0934 246.249 86.9486C246.285 86.8853 246.312 86.822 246.348 86.7496C246.43 86.5867 246.511 86.4239 246.592 86.261C246.62 86.2067 246.647 86.1524 246.674 86.0981C246.782 85.8719 246.891 85.6457 247.009 85.4105C247.027 85.3743 247.045 85.3381 247.063 85.3019C247.153 85.1028 247.253 84.9038 247.343 84.6957C247.38 84.6143 247.416 84.5328 247.452 84.4514C247.533 84.2704 247.615 84.0895 247.696 83.9085C247.732 83.8271 247.769 83.7366 247.814 83.6552C247.904 83.4561 247.995 83.248 248.085 83.0399C248.112 82.9675 248.149 82.9042 248.176 82.8318C248.293 82.5513 248.42 82.2618 248.538 81.9632C248.556 81.918 248.574 81.8727 248.592 81.8275C248.692 81.5742 248.8 81.3208 248.9 81.0584C248.936 80.9589 248.981 80.8594 249.017 80.7598C249.099 80.5427 249.189 80.3255 249.271 80.0993C249.316 79.9908 249.352 79.8822 249.397 79.7736C249.488 79.5384 249.578 79.2941 249.669 79.0407C249.705 78.9503 249.732 78.8598 249.768 78.7693C249.895 78.4255 250.012 78.0817 250.139 77.7288C250.148 77.6926 250.166 77.6564 250.175 77.6202C250.284 77.3035 250.393 76.9869 250.501 76.6611C250.537 76.5435 250.573 76.4259 250.619 76.3173C250.7 76.064 250.791 75.8016 250.872 75.5392C250.917 75.4125 250.953 75.2768 250.999 75.1501C251.089 74.8787 251.171 74.5982 251.261 74.3177C251.297 74.2091 251.324 74.1006 251.361 73.9829C251.478 73.5848 251.596 73.1867 251.714 72.7796C251.714 72.7524 251.732 72.7162 251.741 72.6891C251.849 72.3181 251.949 71.9381 252.057 71.549C252.094 71.4224 252.13 71.2867 252.166 71.1509C252.247 70.8524 252.32 70.5628 252.401 70.2552C252.437 70.1104 252.474 69.9566 252.519 69.8028C252.6 69.4952 252.673 69.1785 252.745 68.8618C252.781 68.7261 252.808 68.5994 252.845 68.4637C252.953 68.0113 253.053 67.5589 253.152 67.0975C253.152 67.0884 253.152 67.0794 253.152 67.0613C253.252 66.6179 253.342 66.1565 253.442 65.7041C253.469 65.5593 253.496 65.4146 253.532 65.2607C253.595 64.926 253.668 64.5912 253.731 64.2564C253.767 64.0845 253.795 63.9216 253.822 63.7497C253.885 63.4059 253.948 63.0621 254.003 62.7183C254.03 62.5644 254.057 62.4106 254.084 62.2568C254.247 61.2616 254.41 60.2391 254.546 59.1896C254.564 59.0267 254.591 58.8638 254.609 58.701C254.654 58.33 254.708 57.9591 254.754 57.579C254.772 57.3981 254.799 57.2081 254.817 57.0181C254.862 56.6381 254.898 56.258 254.944 55.878C254.962 55.7061 254.98 55.5342 254.998 55.3623C255.052 54.8375 255.097 54.3037 255.143 53.7699C255.143 53.7427 255.143 53.7156 255.143 53.6884C255.188 53.1275 255.233 52.5574 255.269 51.9874C255.278 51.8155 255.287 51.6345 255.296 51.4626C255.324 51.0555 255.342 50.6483 255.36 50.2321C255.369 50.024 255.378 49.825 255.387 49.6169C255.405 49.2097 255.423 48.8026 255.432 48.3863C255.432 48.1963 255.441 48.0063 255.45 47.8073C255.468 47.2644 255.477 46.7125 255.477 46.1605C255.477 46.0972 255.477 46.0429 255.477 45.9886C255.477 45.3734 255.477 44.7581 255.477 44.1338C255.477 43.9529 255.477 43.7719 255.477 43.5909C255.477 43.1385 255.468 42.6861 255.45 42.2337C255.45 42.0166 255.441 41.7994 255.432 41.5732C255.423 41.1299 255.405 40.6956 255.387 40.2432C255.387 40.0351 255.369 39.827 255.36 39.6099C255.333 39.0489 255.306 38.4879 255.269 37.9269C255.269 37.8365 255.26 37.746 255.251 37.6464C255.206 36.9859 255.161 36.3255 255.106 35.6559C255.088 35.4659 255.07 35.2668 255.052 35.0768C255.007 34.5973 254.962 34.1087 254.916 33.6201C254.889 33.3849 254.871 33.1496 254.844 32.9053C254.799 32.4348 254.745 31.9643 254.69 31.4848C254.663 31.2586 254.636 31.0324 254.609 30.8062C254.536 30.2271 254.464 29.6481 254.383 29.06C254.365 28.9423 254.356 28.8247 254.337 28.698C254.238 27.9923 254.129 27.2866 254.021 26.5808C253.994 26.3818 253.957 26.1827 253.921 25.9746C253.84 25.4498 253.749 24.9341 253.659 24.4003C253.614 24.1469 253.568 23.9026 253.523 23.6493C253.433 23.1517 253.333 22.645 253.243 22.1383C253.197 21.894 253.152 21.6497 253.098 21.4054C252.98 20.8082 252.854 20.2111 252.718 19.6049C252.691 19.4601 252.654 19.3153 252.627 19.1706C252.464 18.4286 252.293 17.6777 252.112 16.9176C252.066 16.7095 252.012 16.5105 251.958 16.3024C251.822 15.7414 251.686 15.1804 251.542 14.6104C251.469 14.348 251.406 14.0766 251.333 13.8142C251.198 13.2894 251.053 12.7556 250.908 12.2308C250.836 11.9684 250.763 11.706 250.691 11.4436C250.519 10.8284 250.338 10.2131 250.157 9.58881C250.103 9.4169 250.058 9.24499 250.003 9.07308C249.777 8.33115 249.551 7.58922 249.307 6.83824C248.004 2.82096 242.476 2.40476 240.639 6.22298C240.612 6.27727 240.585 6.33156 240.557 6.38585C240.367 6.77491 240.177 7.17302 239.978 7.57112C239.96 7.61636 239.942 7.65256 239.915 7.68875C239.698 8.1321 239.472 8.59354 239.236 9.05499C239.173 9.18166 239.11 9.31738 239.046 9.44405C238.865 9.80596 238.684 10.1679 238.494 10.5388C238.422 10.6746 238.359 10.8103 238.286 10.946C238.033 11.4346 237.78 11.9322 237.517 12.448C237.499 12.4842 237.472 12.5294 237.454 12.5746C237.21 13.0451 236.965 13.5156 236.712 13.9952C236.631 14.158 236.54 14.3209 236.459 14.4837C236.251 14.8819 236.033 15.289 235.816 15.7052C235.744 15.85 235.662 15.9947 235.59 16.1395C235.301 16.6824 235.002 17.2343 234.694 17.7953C234.64 17.8948 234.577 18.0034 234.522 18.1029C234.269 18.5644 234.016 19.0349 233.753 19.5053C233.654 19.6863 233.554 19.8582 233.455 20.0392C233.201 20.5006 232.939 20.9621 232.686 21.4235C232.613 21.5592 232.532 21.6859 232.46 21.8216C232.125 22.4097 231.79 23.0069 231.446 23.6041C231.365 23.7488 231.274 23.9026 231.193 24.0474C230.921 24.5179 230.65 24.9884 230.369 25.4679C230.261 25.6579 230.143 25.8479 230.035 26.038C229.727 26.5627 229.41 27.0966 229.094 27.6304C229.03 27.7299 228.976 27.8294 228.913 27.929C228.542 28.5533 228.162 29.1866 227.773 29.8109C227.664 29.9919 227.556 30.1729 227.447 30.3538C227.148 30.8334 226.85 31.3219 226.551 31.8105C226.434 32.0005 226.316 32.1996 226.189 32.3896C225.791 33.023 225.393 33.6654 224.986 34.3078C224.968 34.3349 224.95 34.362 224.932 34.3982C224.524 35.0406 224.108 35.683 223.683 36.3345C223.556 36.5336 223.421 36.7326 223.294 36.9317C222.968 37.4293 222.633 37.936 222.308 38.4336C222.181 38.6236 222.054 38.8136 221.928 39.0036C221.484 39.6732 221.032 40.3427 220.58 41.0123C220.507 41.1209 220.435 41.2204 220.362 41.329C219.973 41.908 219.575 42.478 219.168 43.0571C219.023 43.2652 218.879 43.4733 218.734 43.6814C218.363 44.2062 217.992 44.74 217.612 45.2648C217.494 45.4367 217.377 45.5996 217.25 45.7715C216.761 46.4501 216.273 47.1287 215.775 47.8073C215.667 47.9611 215.549 48.1149 215.431 48.2687C215.033 48.8116 214.635 49.3454 214.228 49.8883C214.065 50.0964 213.911 50.3136 213.748 50.5217C213.323 51.0826 212.898 51.6436 212.464 52.2046C212.364 52.3403 212.265 52.467 212.156 52.6027C211.631 53.2813 211.097 53.9599 210.564 54.6475C210.419 54.8285 210.274 55.0094 210.129 55.1904C209.713 55.7152 209.297 56.2309 208.872 56.7557C208.709 56.9638 208.537 57.1628 208.374 57.3709C207.858 57.9952 207.342 58.6196 206.818 59.2529C206.772 59.3072 206.718 59.3705 206.673 59.4248C206.103 60.1034 205.533 60.773 204.954 61.4425C204.782 61.6416 204.619 61.8316 204.447 62.0216C204.004 62.5283 203.56 63.0349 203.108 63.5416C202.936 63.7316 202.764 63.9307 202.592 64.1207C201.995 64.7902 201.398 65.4507 200.783 66.1112C200.719 66.1836 200.656 66.247 200.584 66.3193C200.032 66.9165 199.48 67.5046 198.919 68.0927C198.729 68.2918 198.539 68.4909 198.349 68.6899C197.869 69.1875 197.39 69.6852 196.901 70.1828C196.738 70.3547 196.575 70.5176 196.404 70.6895C195.77 71.3319 195.128 71.9743 194.485 72.6077C194.458 72.6348 194.431 72.671 194.395 72.6981C192.576 74.4806 192.504 77.3669 194.232 79.2398L194.304 79.285ZM237.047 87.8987C216.3 91.0926 203.651 83.9447 198.032 79.5112C196.168 78.0364 196.15 75.1954 198.014 73.7206C221.086 55.4075 234.83 31.8829 239.987 21.1159C240.702 19.632 242.865 19.8039 243.344 21.3873C254.717 59.1896 244.928 78.1902 240.811 85.329C240.015 86.7134 238.63 87.6634 237.056 87.8987H237.047Z" fill="#DBDBDB"/>
  <path d="M243.742 46.6765C243.742 46.6765 248.031 63.8133 237.282 83.3297" stroke="#DBDBDB" stroke-width="4" stroke-linecap="round" stroke-linejoin="round"/>
  <path d="M129.34 275.752L204.655 318.359L266.335 253.105L129.34 275.752Z" fill="#496D20"/>
  <path d="M83.7837 341.096L82.1007 301.548L93.1573 288.093L119.134 284.076L126.436 290.075L130.806 286.356L147.318 285.75L155.045 291.097L159.596 286.103L177.683 284.329L181.818 284.592L183.899 285.071L183.881 273.39L177.783 267.401L176.733 274.377L169.875 278.855L159.334 276.123L147.897 276.367L142.297 280.023L131.756 277.29L120.31 277.543L114.709 281.199L104.169 278.466L92.7321 278.711L87.1223 282.366L76.5905 279.634L61.6615 279.959L55.8255 274.286L57.0108 267.166L50.6592 257.611L52.514 249.377L67.0178 241.813L70.9537 236.122L80.1735 235.733L85.2313 242.067L88.7238 243.704L94.605 240.646L98.5318 234.946L107.761 234.557L112.818 240.899L116.302 242.537L122.183 239.47L126.119 233.779L135.339 233.381L140.397 239.723L143.889 241.361L149.77 238.294L153.697 232.602L162.917 232.213L167.984 238.547L180.072 244.229L180.153 244.437L185.446 238.674L219.105 237.244L221.991 239.904L227.772 236.683L244.936 237.027L249.017 237.778L260.815 241.994L269.176 251.648L271.673 264.098L271.926 266.858L271.655 283.027L264.598 294.355L252.202 300.715L246.239 302.136L241.715 302.109L241.797 334.88L229.274 347.982L218.164 348.452L211.812 342.616L205.433 348.995L193.87 349.484L193.39 349.004L193.101 349.511L180.253 350.063L176.226 346.995L172.68 350.379L161.243 350.868L161.207 350.832L161.18 350.868L148.639 351.402L141.003 347.122L133.764 352.035L123.938 352.451L122.744 351.058L98.2151 353.582L83.7837 341.096Z" fill="#324C0B"/>
  <path d="M161.867 234.52L166.536 240.374L178.298 245.903L179.393 248.608L186.477 240.899L218.263 239.551L221.665 242.673L228.342 238.954L244.71 239.28L248.429 239.958L259.494 243.912L267.067 252.671L269.429 264.415L269.655 266.93L269.393 282.348L262.996 292.617L251.405 298.562L245.968 299.856L239.435 299.819L239.516 333.966L228.252 345.747L218.987 346.145L211.73 339.486L204.438 346.769L194.738 347.185L192.838 345.312L191.716 347.312L180.94 347.773L176.027 344.037L171.702 348.172L162.084 348.579L160.827 347.366L159.931 348.669L149.155 349.131L140.858 344.48L132.986 349.818L124.906 350.162L123.404 348.407L123.097 348.76L98.9207 351.248L85.964 340.046L84.3625 302.335L94.3153 290.21L118.446 286.483L126.426 293.033L131.638 288.6L146.621 288.048L155.353 294.092L160.655 288.274L177.692 286.609L181.465 286.854L186.134 287.921L186.116 272.449L176.181 262.696L174.616 273.056L169.44 276.43L159.569 273.87L147.047 274.141V274.223L141.862 277.598L131.991 275.037L119.468 275.309V275.399L114.284 278.774L104.413 276.213L91.8904 276.485V276.575L86.706 279.95L76.8347 277.39L62.5389 277.697L58.2321 273.508L59.3722 266.677L53.0567 257.186L54.4682 250.915L68.5468 243.577L72.1569 238.348L79.1057 238.049L83.7744 243.903L88.7508 246.238L96.1248 242.401L99.735 237.171L106.684 236.873L111.353 242.727L116.329 245.061L123.703 241.225L127.313 235.995L134.262 235.697L138.931 241.551L143.916 243.885L151.29 240.049L154.9 234.819L161.849 234.52M163.948 229.906L161.65 230.006L154.701 230.304L152.448 230.404L151.172 232.258L148.205 236.565L143.816 238.854L141.817 237.913L137.8 232.883L136.37 231.091L134.072 231.191L127.123 231.489L124.87 231.589L123.594 233.444L120.627 237.751L116.238 240.04L114.239 239.099L110.222 234.068L108.792 232.277L106.494 232.376L99.545 232.675L97.292 232.774L96.0163 234.629L93.0485 238.936L88.6603 241.225L86.6607 240.284L82.6434 235.253L81.2139 233.462L78.9157 233.561L71.9669 233.86L69.7139 233.959L68.4382 235.814L65.4705 240.121L52.3871 246.934L50.5233 247.902L50.0618 249.956L48.6504 256.226L48.2251 258.117L49.2928 259.728L54.6129 267.735L53.7715 272.811L53.3824 275.146L55.0834 276.792L59.3902 280.982L60.7474 282.303L62.6385 282.266L76.3008 281.977L85.5659 284.384L87.5022 284.881L89.176 283.786L93.4014 281.027L103.879 280.801L112.122 282.936L93.6367 285.786L91.9266 286.048L90.8318 287.388L80.8791 299.512L79.7843 300.851L79.8567 302.579L81.4581 340.291L81.5396 342.245L83.0144 343.521L95.971 354.722L97.4458 355.998L99.3911 355.799L121.776 353.501L122.916 354.831L125.114 354.74L133.194 354.396L134.479 354.342L135.547 353.618L141.102 349.854L146.956 353.139L148.078 353.763L149.363 353.709L160.139 353.247L162.392 353.148L171.91 352.741L173.611 352.668L174.842 351.492L176.38 350.026L178.217 351.429L179.52 352.415L181.148 352.343L191.924 351.881L194.449 351.773L194.946 351.755L204.646 351.338L206.401 351.266L207.65 350.026L211.875 345.81L215.938 349.547L217.322 350.814L219.195 350.732L228.46 350.334L230.279 350.253L231.536 348.941L242.801 337.16L244.059 335.848V334.03L243.977 304.443H245.94L246.483 304.461L247.017 304.334L252.455 303.04L252.989 302.914L253.477 302.669L265.068 296.725L266.181 296.155L266.841 295.096L273.238 284.827L273.899 283.768L273.917 282.52L274.179 267.102V266.858L274.161 266.613L273.935 264.098L273.917 263.854L273.871 263.619L271.51 251.874L271.275 250.707L270.497 249.802L262.923 241.044L262.145 240.139L261.023 239.741L249.958 235.787L249.614 235.661L249.252 235.597L245.533 234.919L245.171 234.855H244.809L228.442 234.52L227.22 234.493L226.153 235.09L222.334 237.217L221.339 236.303L219.955 235.036L218.082 235.118L186.297 236.466L184.424 236.547L183.157 237.932L179.728 241.659L169.422 236.819L165.405 231.788L163.975 229.996L163.948 229.906ZM170.245 281.298L171.919 280.203L177.095 276.829L178.796 275.725L179.094 273.716L179.339 272.115L181.601 274.34V282.321L177.991 282.085L177.629 282.058L177.267 282.094L160.229 283.759L158.501 283.931L157.334 285.216L154.692 288.111L149.218 284.32L147.979 283.461L146.477 283.515L131.493 284.067L129.928 284.121L128.734 285.135L126.399 287.116L121.341 282.963L119.776 281.678L117.777 281.986L117.55 282.022L120.989 279.778L131.475 279.552L140.74 281.959L142.676 282.456L144.35 281.362L148.576 278.602L159.053 278.376L168.318 280.783L170.255 281.28L170.245 281.298Z" fill="#496D20"/>
  <path d="M75.0254 257.186L72.6729 250.083L79.6217 249.784L77.9388 255.955L84.6524 253.811L87.0048 259.647L79.866 259.945L85.4667 266.695L80.2913 270.07L76.5907 263.049L70.7547 269.237L66.4479 265.048L74.0934 261.429L64.5479 259.728L65.9593 253.458L75.0254 257.177V257.186Z" fill="white"/>
  <path d="M102.603 256.019L100.251 248.916L107.2 248.617L105.517 254.788L112.23 252.644L114.583 258.48L107.444 258.778L113.045 265.528L107.869 268.903L104.169 261.882L98.3329 268.07L94.026 263.881L101.672 260.262L92.126 258.561L93.5375 252.3L102.603 256.019Z" fill="white"/>
  <path d="M130.191 254.842L127.838 247.74L134.787 247.441L133.104 253.612L139.818 251.468L142.17 257.303L135.032 257.602L140.632 264.352L135.457 267.727L131.756 260.705L125.92 266.885L121.613 262.696L129.259 259.077L119.713 257.376L121.125 251.115L130.191 254.833V254.842Z" fill="white"/>
  <path d="M157.769 253.675L155.417 246.573L162.365 246.274L160.682 252.445L167.396 250.3L169.748 256.136L162.61 256.435L168.21 263.185L163.035 266.559L159.334 259.538L153.498 265.727L149.192 261.538L156.837 257.919L147.292 256.218L148.703 249.947L157.769 253.666V253.675Z" fill="white"/>
  <path d="M213.821 289.288L197.924 289.966L197.887 261.855L187.356 261.601L186.976 252.662L218.761 251.314L219.15 260.416L208.718 262.533L213.821 289.297V289.288Z" fill="white"/>
  <path d="M228.107 250.716L244.475 251.042L255.541 254.996L257.902 266.74L257.64 282.158L246.05 288.102L228.75 288.003L222.063 275.499L221.484 261.9L228.107 250.716ZM235.672 257.9L229.564 267.202L233.762 279.706L243.969 280.538L250.139 273.933L248.673 260.479L235.662 257.9H235.672Z" fill="white"/>
  <path d="M97.7538 339.531L96.1523 301.819L120.283 298.091L120.627 306.171L103.282 309.609L103.083 315.011L120.971 314.251L121.269 321.2L105.155 323.018L105.463 330.347L121.604 329.234L121.939 337.043L97.7629 339.531H97.7538Z" fill="white"/>
  <path d="M159.461 336.907L148.684 337.368L142.84 326.818L137.447 327.045L132.516 338.047L124.436 338.391L132.1 300.344L147.083 299.792L159.452 336.907H159.461ZM145.255 320.132L138.207 305.429L134.479 320.593L145.255 320.132Z" fill="white"/>
  <path d="M191.246 335.559L180.47 336.02L177.158 321.67L172.526 321.788L171.232 336.418L161.614 336.826L161.831 299.982L178.868 298.318L188.812 300.598L188.414 314.106L182.478 319.761L191.246 335.577V335.559ZM168.671 315.554L177.764 314.305L183.148 306.361L173.72 303.493L168.146 304.488L168.671 315.554Z" fill="white"/>
  <path d="M227.773 334.003L218.507 334.401L218.281 329.017L205.035 310.686L203.967 335.016L194.268 335.432L195.363 297.612L206.139 297.15L218.055 323.625L220.462 296.535L227.682 296.228L227.773 334.003Z" fill="white"/>
</svg>
