<svg width="128" height="75" viewBox="0 0 128 75" fill="none" xmlns="http://www.w3.org/2000/svg">
  <path d="M0.636719 1.04688H5.71484L6.88672 14.7188L18.6055 14.1328L17.3555 0.460938H25.2656C25.7995 0.460938 26.6068 9.28906 27.6875 26.9453L20.5586 27.1992L19.4062 18.0391L6.88672 18.625L7.45312 27.5312L1.69141 28.3906L0.636719 1.04688ZM54.6602 28H46.8477L42.9414 20.1875H39.0352L35.1289 28H29.2695L35.9883 0.695312L46.8477 0.753906L54.6602 28ZM44.8945 15.4219L40.2461 4.5625L37.082 15.4219H44.8945ZM65.207 28.1953L55.4414 0.65625H61.3008L68.332 22.1406L72.4727 0.65625H79.9336L71.0664 28.7812L65.207 28.1953ZM106.145 28H98.332L94.4258 20.1875H90.5195L86.6133 28H80.7539L87.4727 0.695312L98.332 0.753906L106.145 28ZM96.3789 15.4219L91.7305 4.5625L88.5664 15.4219H96.3789ZM108.098 0.65625L113.957 3.17578L113.098 21.3984L125.676 22.1406L127.043 28L108.098 28.1953V0.65625ZM40.3828 47.0469H45.4609L46.6328 60.7188L58.3516 60.1328L57.1016 46.4609H65.0117C65.5456 46.4609 66.3529 55.2891 67.4336 72.9453L60.3047 73.1992L59.1523 64.0391L46.6328 64.625L47.1992 73.5312L41.4375 74.3906L40.3828 47.0469ZM70.5781 47.3398L86.2031 46.6562V51.5977L79.1719 57.75L85.0703 61.2461L86.2031 70.7188L75.7539 74L69.4453 72.0469L70.5781 66.9688L76.4375 70.0938L80.3438 63.0234L72.5312 59.7812L81.75 51.1484L70.5781 50.5625V47.3398Z" fill="white"/>
</svg>
