<svg width="380" height="122" viewBox="0 0 380 122" fill="none" xmlns="http://www.w3.org/2000/svg">
  <path d="M35.016 81.584H50.12V101.68C50.12 105.52 51.144 106.032 57.16 106.032C59.72 106.032 70.856 106.032 74.312 106.032C79.048 106.032 79.944 104.496 80.584 94C83.528 96.304 89.928 98.48 94.152 99.376C92.36 115.504 88.136 119.6 75.592 119.6C72.136 119.6 58.568 119.6 55.368 119.6C38.728 119.6 35.016 115.376 35.016 101.936V81.584ZM47.56 77.872L58.184 69.168C65.736 73.52 75.208 80.304 79.56 85.68L68.296 95.28C64.328 89.904 55.24 82.608 47.56 77.872ZM86.728 84.4L99.912 78.256C108.872 87.216 117.96 99.632 121.288 108.976L107.08 115.76C104.136 106.928 95.56 93.872 86.728 84.4ZM17.096 79.92L30.92 84.272C27.464 96.688 22.472 109.232 13 117.168L0.2 108.592C8.52 101.936 14.28 91.056 17.096 79.92ZM29.384 15.024H116.424V28.336H29.384V15.024ZM55.624 34.864H109.128V46.896H55.624V34.864ZM55.752 54.064H112.584V66.736H55.752V54.064ZM48.712 19.632H64.2V73.904H48.712V19.632ZM31.048 0.943993L47.176 5.03999C40.008 25.264 27.848 43.568 14.408 55.088C11.592 52.016 5.064 46.256 1.352 43.696C14.536 34.096 25.416 18.224 31.048 0.943993ZM193.864 32.688L211.144 39.984C197.832 64.048 179.4 91.824 164.424 109.744L151.112 103.088C165.96 84.4 183.624 55.6 193.864 32.688ZM137.8 99.632C162.376 98.48 200.392 96.048 234.44 93.488L234.184 108.592C200.904 111.536 164.936 114.096 140.36 115.888L137.8 99.632ZM202.312 75.568L216.648 67.504C229.192 81.072 242.376 99.12 248.52 111.664L233.16 121.392C227.528 108.72 214.344 89.264 202.312 75.568ZM177.096 1.96799L193.736 8.11199C180.936 28.848 161.608 51.76 141.64 66.352C138.696 62.896 132.936 57.648 129.096 54.704C148.424 41.776 167.752 19.504 177.096 1.96799ZM257.736 10.8H301.64V25.008H257.736V10.8ZM259.016 47.792H300.488V61.872H259.016V47.792ZM255.432 92.208C267.464 89.776 285.896 85.552 303.304 81.328L304.968 94.64C288.84 98.992 271.56 103.472 258.504 106.928L255.432 92.208ZM308.04 10.416H369.736V25.008H308.04V10.416ZM302.92 46.512H376.52V61.232H302.92V46.512ZM317.512 56.88H332.36C331.208 89.52 327.496 110.384 296.648 121.648C295.112 118.064 291.144 112.432 288.072 109.744C314.952 100.656 316.616 84.528 317.512 56.88ZM340.936 56.496H356.168V101.808C356.168 106.032 356.424 106.544 358.216 106.544C358.984 106.544 361.928 106.544 362.696 106.544C364.744 106.544 365.256 104.112 365.64 89.008C368.584 91.696 375.112 94.256 379.208 95.28C377.928 115.12 374.216 120.88 364.36 120.88C362.184 120.88 357.704 120.88 355.528 120.88C343.624 120.88 340.936 116.144 340.936 101.936V56.496ZM272.968 16.432H287.816V92.592L272.968 94.896V16.432Z" fill="#496D20"/>
</svg>
