<svg width="501" height="147" viewBox="0 0 501 147" fill="none" xmlns="http://www.w3.org/2000/svg">
  <path d="M4.6875 33.75H20.9375L24.6875 77.5L62.1875 75.625L58.1875 31.875H83.5C85.2083 31.875 87.7917 60.125 91.25 116.625L68.4375 117.438L64.75 88.125L24.6875 90L26.5 118.5L8.0625 121.25L4.6875 33.75ZM113.562 32.0625L151.438 34.4375L176.688 44.6875L181 72.125L178.875 107.812L151.438 120.438L111.375 118.5L97.125 88.875V57.3125L113.562 32.0625ZM130.375 49.4375L115.312 70.375L123.812 99.75L147.375 102.688L162.312 88L160.25 56.6875L130.375 49.4375ZM184.438 32.5H205.938L228.188 86.0625L243.812 32.5L263.438 88.75L281.75 32.5H299.125L278.188 120H257.312L246.938 82.5L231.812 120H201L184.438 32.5ZM394.125 120H357.25L359.938 54.875L335.562 53.25V32.5H409.312V53.625L384.938 57.5L394.125 120ZM431.062 32.0625L468.938 34.4375L494.188 44.6875L498.5 72.125L496.375 107.812L468.938 120.438L428.875 118.5L414.625 88.875V57.3125L431.062 32.0625ZM447.875 49.4375L432.812 70.375L441.312 99.75L464.875 102.688L479.812 88L477.75 56.6875L447.875 49.4375Z" fill="#496D20"/>
</svg>
