<svg width="101" height="76" viewBox="0 0 101 76" fill="none" xmlns="http://www.w3.org/2000/svg">
  <path d="M0.0742188 0.65625L5.93359 3.17578L5.07422 21.3984L17.6523 22.1406L19.0195 28L0.0742188 28.1953V0.65625ZM45.9336 28H38.1211L34.2148 20.1875H30.3086L26.4023 28H20.543L27.2617 0.695312L38.1211 0.753906L45.9336 28ZM36.168 15.4219L31.5195 4.5625L28.3555 15.4219H36.168ZM66.3828 28H47.8867V0.65625H65.4648L73.2773 7.55078V22.1406L66.3828 28ZM62.9648 22.2383L67.7109 17.4922V9.58203L53.4727 6.41797V22.2383H62.9648ZM100.543 28H92.7305L88.8242 20.1875H84.918L81.0117 28H75.1523L81.8711 0.695312L92.7305 0.753906L100.543 28ZM90.7773 15.4219L86.1289 4.5625L82.9648 15.4219H90.7773ZM14.0195 58.375L12.0664 52.5156L17.9258 47.3398L23.7852 46.6562L27.6914 49.3711L26.3047 58.375L17.9258 67.2227L27.6914 66.832L27.125 74L12.0664 72.75V66.1875L23.1797 56.4219L23.043 50.5625H17.9258L14.0195 58.375ZM33.8242 61.2266L31.8711 56.4219L39.6836 46.6562H47.4961L45.543 74C40.3346 73.8828 37.7305 73.7005 37.7305 73.4531L42.5938 53.3945L39.0391 52.5156L33.8242 61.2266ZM55.1914 46.0117L62.418 46.1289L66.9688 53.8438L68.082 67.9453L65.9336 74.4492C65.4779 74.6315 61.8971 74.9245 55.1914 75.3281L51.6172 71.9297L50.8945 53.8438L55.1914 46.0117ZM57.5742 51.6172L55.6602 58.4141L57.5742 69.8984L63.3164 66.6562V58.4141L57.5742 51.6172ZM85.3477 46.8125L87.3008 51.7344H75.582L74.1758 58.5898L79.4883 58.4141L87.3008 59.5469V69.8398L78.3945 74.3125L71.6758 73.4141V68.9414L77.5352 71.3047L82.7891 68.3164L82.2812 62.8867L71.6758 62.2812L70.6797 47.8281L85.3477 46.8125Z" fill="white"/>
</svg>
