<svg width="412" height="55" viewBox="0 0 412 55" fill="none" xmlns="http://www.w3.org/2000/svg">
  <path d="M0.8125 3.78125L11.3594 8.31641L9.8125 41.1172L32.4531 42.4531L34.9141 53L0.8125 53.3516V3.78125ZM83.3594 53H69.2969L62.2656 38.9375H55.2344L48.2031 53H37.6562L49.75 3.85156L69.2969 3.95703L83.3594 53ZM65.7812 30.3594L57.4141 10.8125L51.7188 30.3594H65.7812ZM120.168 53H86.875V3.78125H118.516L132.578 16.1914V42.4531L120.168 53ZM114.016 42.6289L122.559 34.0859V19.8477L96.9297 14.1523V42.6289H114.016ZM181.656 53H167.594L160.562 38.9375H153.531L146.5 53H135.953L148.047 3.85156L167.594 3.95703L181.656 53ZM164.078 30.3594L155.711 10.8125L150.016 30.3594H164.078ZM218.5 53.3516L200.922 3.78125H211.469L224.125 42.4531L231.578 3.78125H245.008L229.047 54.4062L218.5 53.3516ZM248.242 53V3.78125L279.883 0.265625V10.8125L257.102 14.3281L256.539 21.3594H279.883V30.4297L258.789 31.9062V41.4688L279.883 40.9062V51.1016L248.242 53ZM312.016 21.3594H298.34L317.57 35.4219L316.129 51.5586L299.992 53L283.574 51.1016L289.445 37.918L297.883 42.4531H305.582L299.992 35.4219L285.93 26.457L284.945 13.2734L292.961 4.87109L307.023 5.11719L317.57 9.82812L312.016 21.3594ZM354.73 53H333.988L335.5 16.3672L321.789 15.4531V3.78125H363.273V15.6641L349.562 17.8438L354.73 53ZM411.508 53H397.445L390.414 38.9375H383.383L376.352 53H365.805L377.898 3.85156L397.445 3.95703L411.508 53ZM393.93 30.3594L385.562 10.8125L379.867 30.3594H393.93Z" fill="white"/>
</svg>
