<svg width="216" height="24" viewBox="0 0 216 24" fill="none" xmlns="http://www.w3.org/2000/svg">
  <path d="M11.6484 21H4.73438L5.23828 8.78906L0.667969 8.48438V4.59375H14.4961V8.55469L9.92578 9.28125L11.6484 21ZM15.9258 21V4.59375L26.4727 3.42188V6.9375L18.8789 8.10938L18.6914 10.4531H26.4727V13.4766L19.4414 13.9688V17.1562L26.4727 16.9688V20.3672L15.9258 21ZM28.2539 4.59375L31.7695 6.10547L31.2539 17.0391L38.8008 17.4844L39.6211 21L28.2539 21.1172V4.59375ZM41.1211 21V4.59375L51.668 3.42188V6.9375L44.0742 8.10938L43.8867 10.4531H51.668V13.4766L44.6367 13.9688V17.1562L51.668 16.9688V20.3672L41.1211 21ZM68.0273 12.7969L67.3945 19.1133L61.5352 21L53.7656 20.3672L53.332 11.625L55.6758 4.59375H61.5352L68.1445 5.76562L64.4648 9.28125L58.7695 6.52734L55.793 11.625L57.0352 17.8828L62.168 18.2227L62.0156 14.7773L58.8164 14.4023L59.168 12.2227L68.0273 12.7969ZM82.2539 21H77.5664L76.3945 14.707L74.3789 14.6719L73.5469 21H69.3633L70.1367 5.00391L77.5664 4.59375L81.8438 5.76562L81.4219 11.625L78.7383 13.9688L82.2539 21ZM72.8203 11.8945L76.793 11.5195L79.2773 8.16797L75.2344 6.75L72.7969 7.07812L72.8203 11.8945ZM98.5664 21H93.8789L91.5352 16.3125H89.1914L86.8477 21H83.332L87.3633 4.61719L93.8789 4.65234L98.5664 21ZM92.707 13.4531L89.918 6.9375L88.0195 13.4531H92.707ZM99.2695 21L101.074 4.59375H105.129L108.645 11.625L113.332 4.59375H118.02L117.668 21H111.633L112.16 13.2188L108.234 17.8477L104.602 12.7969L102.785 21H99.2695ZM126.621 4.59375L134.438 4.47656L137.168 9.28125L136.535 15.5859L129.645 15.8906L128.812 21L125.449 21.1172L126.621 4.59375ZM130.336 7.46484L129.785 12.4922L133.395 11.9531L133.77 9.16406L130.336 7.46484ZM140.215 11.625L139.043 8.10938L142.559 5.00391L146.074 4.59375L148.418 6.22266L147.586 11.625L142.559 16.9336L148.418 16.6992L148.078 21L139.043 20.25V16.3125L145.711 10.4531L145.629 6.9375H142.559L140.215 11.625ZM150.574 21V4.59375L161.121 3.42188V6.9375L153.527 8.10938L153.34 10.4531H161.121V13.4766L154.09 13.9688V17.1562L161.121 16.9688V20.3672L150.574 21ZM169.43 2.928L171.038 0.839999C172.358 1.392 174.038 2.328 174.854 3.096L173.15 5.376C172.406 4.608 170.726 3.552 169.43 2.928ZM168.566 9.36L170.15 7.224C171.494 7.728 173.198 8.616 174.014 9.336L172.358 11.664C171.566 10.92 169.91 9.936 168.566 9.36ZM168.83 21.48C169.694 19.536 170.87 16.464 171.734 13.608L174.086 15.048C173.318 17.664 172.358 20.496 171.446 22.872L168.83 21.48ZM184.046 3.456H191.174V6.192H184.046V3.456ZM183.686 7.992H189.614V10.488H183.686V7.992ZM182.678 13.704H191.222V16.296H182.678V13.704ZM183.95 0.647999L186.686 1.128C186.158 4.296 185.126 7.416 183.83 9.384C183.302 8.976 182.054 8.28 181.382 7.968C182.702 6.24 183.518 3.432 183.95 0.647999ZM185.654 11.688H188.318V20.304C188.318 21.6 188.102 22.32 187.238 22.752C186.374 23.16 185.198 23.208 183.59 23.208C183.518 22.44 183.158 21.336 182.846 20.568C183.83 20.616 184.91 20.616 185.246 20.616C185.558 20.616 185.654 20.544 185.654 20.256V11.688ZM188.486 7.992H189.086L189.59 7.824L191.27 9.024C190.31 10.68 188.942 12.552 187.718 13.776C187.358 13.248 186.59 12.456 186.158 12.072C187.046 11.136 188.03 9.528 188.486 8.472V7.992ZM174.11 4.08H182.606V6.816H174.11V4.08ZM176.798 9.456H180.878V12.072H176.798V9.456ZM177.11 0.671999H179.87V6H177.11V0.671999ZM179.822 9.456H182.414C182.414 9.456 182.414 10.248 182.39 10.584C182.15 18.264 181.91 21.144 181.262 22.032C180.782 22.68 180.326 22.92 179.678 23.04C179.126 23.16 178.262 23.16 177.326 23.136C177.278 22.344 177.038 21.264 176.63 20.568C177.35 20.616 177.95 20.64 178.286 20.64C178.598 20.64 178.79 20.568 178.982 20.28C179.39 19.704 179.63 17.208 179.822 9.96V9.456ZM175.862 6.096H178.502C178.358 12.576 177.998 19.104 174.542 23.112C174.11 22.488 173.294 21.672 172.598 21.24C175.646 17.76 175.766 11.832 175.862 6.096ZM192.95 3.192H200.198V5.736H192.95V3.192ZM199.55 3.192H200.054L200.534 3.096L202.382 3.72C201.374 11.736 198.686 17.928 194.462 21.528C194.006 20.808 193.07 19.704 192.374 19.2C196.142 16.368 198.758 10.248 199.55 3.816V3.192ZM192.854 8.4L194.822 6.744C197.534 10.176 201.206 14.808 202.814 17.736L200.582 19.776C199.07 16.776 195.566 11.952 192.854 8.4ZM202.142 7.32L214.526 5.856L214.862 8.448L202.502 9.96L202.142 7.32ZM208.718 2.232L210.758 0.719999C211.79 1.704 213.254 3.096 213.95 4.008L211.766 5.712C211.142 4.776 209.726 3.288 208.718 2.232ZM204.494 0.767999H207.494C207.59 11.136 208.79 19.08 211.718 19.56C212.27 19.608 212.534 18.432 212.702 15.888C213.254 16.512 214.574 17.328 215.126 17.616C214.502 22.176 213.182 23.232 211.862 23.136C206.078 22.512 204.83 14.088 204.494 0.767999ZM211.814 9.24L214.118 10.608C212.15 15.36 208.238 20.016 203.918 22.32C203.366 21.624 202.454 20.736 201.638 20.184C206.15 18.192 209.99 13.752 211.814 9.24Z" fill="white"/>
</svg>
