<svg width="221" height="147" viewBox="0 0 221 147" fill="none" xmlns="http://www.w3.org/2000/svg">
  <path d="M0 93.29L115.62 64.26L150.79 126.61L23.01 146.25L0 93.29Z" fill="#496D20"/>
  <path d="M34.4281 111.75L31.5781 106.35L36.4581 100.35L42.0681 98.7299L46.3181 100.75L46.4281 109.76L39.6881 119.75L49.1581 117.79L49.7681 124.88L34.8681 126.1L33.8081 119.7L43.0681 108.37L41.9881 102.67L36.9981 103.5L34.4481 111.76L34.4281 111.75ZM53.2781 96.2199L60.3481 95.1599L66.0381 101.95L69.4081 115.53L68.3681 122.22C67.9481 122.47 64.5081 123.34 58.0281 124.82L53.9881 122.08L50.3581 104.55L53.2781 96.2099V96.2199ZM56.5081 101.3L55.7381 108.24L59.4681 119.14L64.5481 115.05L63.2081 107.01L56.5081 101.31V101.3ZM73.0781 105.33L70.2281 99.9299L75.1081 93.9299L80.7181 92.3099L84.9681 94.3299L85.0781 103.34L78.3381 113.33L87.8081 111.37L88.4181 118.46L73.5181 119.68L72.4581 113.28L81.7181 101.95L80.6381 96.2499L75.6481 97.0799L73.0981 105.34L73.0781 105.33ZM102.158 88.9099L104.858 93.3999L93.4181 95.2999L93.1581 102.22L98.3181 101.19L106.128 101.03L107.798 111.07L99.8281 116.88L93.1281 117.09L92.4081 112.73L98.5081 114.09L103.148 110.32L101.768 105.1L91.3181 106.23L88.0081 92.2899L102.158 88.9199V88.9099Z" fill="white"/>
  <path d="M147.458 129.36L217.878 71.15L189.608 4L111.148 63.94L147.458 129.36Z" fill="#496D20" stroke="#68A025" stroke-width="5"/>
  <path d="M181.801 83.98L173.611 88.56L167.571 83.54L154.191 92.72C153.681 93.07 150.541 92.17 144.781 90.01L136.551 80.38L133.051 64.45L148.781 53.66L158.331 56.27L166.471 61.63L172.771 70.82L172.041 80.49L178.471 79.13L181.811 83.99L181.801 83.98ZM161.661 79.03L162.331 66.59L151.341 61.35L142.621 64.58L143.841 77.5L152.961 85L161.671 79.03H161.661ZM172.791 59.97L167.211 56.28L168.391 40.19L176.701 34.49L194.581 65.01C188.951 68.69 186.051 70.39 185.871 70.13L176.401 45.24L171.981 46.9L172.791 59.98V59.97Z" fill="white"/>
</svg>
