<svg width="151" height="88" viewBox="0 0 151 88" fill="none" xmlns="http://www.w3.org/2000/svg">
  <path d="M19 37L113.5 43V87.5L0 83L19 37Z" fill="#496D20"/>
  <path d="M25.8379 59.0428L24.1656 53.0972L30.2644 48.2058L36.1496 47.8016L39.9224 50.699L38.1092 59.6268L29.3192 68.0662L39.0923 68.1402L38.1858 75.2732L23.2036 73.3087L23.5156 66.7536L35.0806 57.5274L35.2226 51.6681L30.1112 51.4248L25.8379 59.0428ZM47.7687 47.7093L54.9815 48.1699L59.1604 56.0924L59.602 70.2309L57.1468 76.6253C56.683 76.7857 53.0924 76.9082 46.375 76.9926L42.9664 73.428L43.1044 55.3282L47.7687 47.7093ZM49.8824 53.4217L47.6473 60.1199L49.0133 71.6823L54.9031 68.7167L55.2949 60.4839L49.8824 53.4217ZM65.4025 60.9258L63.7302 54.9802L69.829 50.0889L75.7142 49.6846L79.487 52.5821L77.6738 61.5099L68.8837 69.9492L78.6569 70.0233L77.7504 77.1562L62.7682 75.1917L63.0802 68.6366L74.6452 59.4104L74.7872 53.5511L69.6758 53.3079L65.4025 60.9258ZM97.6351 50.8843L99.352 55.8935L87.6465 55.3364L85.916 62.1172L91.2308 62.1942L98.9806 63.6971L98.4913 73.9785L89.3825 78.0227L82.714 76.8058L82.9267 72.3382L88.6671 74.9774L94.0571 72.2423L93.808 66.7946L83.2433 65.6856L82.9354 51.2015L97.6351 50.8843Z" fill="white"/>
  <path d="M98.1599 59H147.584L138.935 3.00648L79.9724 15.8045L98.1599 59Z" fill="#496D20" stroke="#6FA72E" stroke-width="5"/>
  <path d="M119.344 49.2188L113.547 48.6875L112.219 44H102.156C101.771 44 100.484 42.4375 98.2969 39.3125L97.4688 31.5L101.266 22.125H113.094L117.062 26.8125L119.344 32.4062V39.3125L115.578 44L119.344 45.5625V49.2188ZM110.781 39.625L115.484 33.5L111.703 26.9688L106.109 25.5625L102.203 32.5938L104.234 39.625H110.781ZM123.156 33.7812L121.594 29.9375L127.844 22.125H134.094L132.531 44C128.365 43.9062 126.281 43.7604 126.281 43.5625L130.172 27.5156L127.328 26.8125L123.156 33.7812Z" fill="white"/>
</svg>
