<svg width="209" height="176" viewBox="0 0 209 176" fill="none" xmlns="http://www.w3.org/2000/svg">
  <path d="M0 127.39L94.99 93.1799L155.46 138.36L12.43 175.51L0 127.39Z" fill="#496D20"/>
  <path d="M25.6098 142.82L22.0898 137.62L26.3998 130.94L31.9498 128.66L36.5198 130.24L37.6398 139.44L31.8698 150.4L41.3198 147.33L42.7398 154.5L27.6598 157.42L25.8598 151L34.0498 138.39L32.3098 132.69L27.2998 134.1L25.6198 142.82H25.6098ZM43.1298 124.84L50.2398 122.97L56.8098 129.27L61.7798 142.77L61.4698 149.73C61.0698 150.03 57.6498 151.31 51.1998 153.54L46.7698 151.2L41.0898 133.69L43.1398 124.84H43.1298ZM46.9998 129.67V136.85L52.0298 147.57L56.7598 142.82L54.4898 134.75L46.9998 129.68V129.67ZM64.3798 131.93L60.8598 126.73L65.1698 120.05L70.7198 117.77L75.2898 119.35L76.4098 128.55L70.6398 139.51L80.0898 136.44L81.5098 143.61L66.4298 146.53L64.6298 140.11L72.8198 127.5L71.0798 121.8L66.0698 123.21L64.3898 131.93H64.3798ZM85.2298 113.7L88.8798 112.67L86.4198 128.6L92.7798 127.02L90.0998 112.32L93.9198 111.25L96.1398 126.49L98.0499 125.95L100.21 131.2L96.7999 132.22L99.5298 138.55L93.0898 140.36L92.3798 132.31L83.2798 134.87L85.2298 113.69V113.7Z" fill="white"/>
  <path d="M155.46 138.36L205.52 68.87L165.15 5L93.1602 91.81L155.46 138.36Z" fill="#496D20" stroke="#68A025" stroke-width="5"/>
  <path d="M176.27 92.56L168.44 99.44L160.72 95.39L148.33 108.46C147.86 108.96 144.24 108.71 137.49 107.7L126.32 99.15L118.82 82.67L133.39 67.31L144.37 67.93L154.45 71.86L163.42 80.37L164.87 91.03L171.54 88.06L176.29 92.56H176.27ZM153.26 91.87L151.1 78.22L137.96 75.09L129.24 80.62L133.56 94.35L145.19 100.37L153.25 91.87H153.26ZM144.56 56.94L159.25 40.03L164.38 44.9L163.84 58.27L173.28 55.59L184.24 63.75L177.35 77.84L169.1 82.47L164.94 76.29L173.96 73.28L170.46 62.25L159.39 67.17L159.5 49.08L147.88 60.11L144.53 56.93L144.56 56.94Z" fill="white"/>
</svg>
