<svg width="201" height="159" viewBox="0 0 201 159" fill="none" xmlns="http://www.w3.org/2000/svg">
  <path d="M121.232 53.4199L200.592 115.7L173.362 158.51L101.102 98.2999L121.242 53.4199H121.232Z" fill="#496D20"/>
  <path d="M123.821 84.2599L125.711 78.6899L133.141 78.1399L137.981 80.9999L139.381 85.3099L133.141 91.3399L121.681 93.2199L129.311 98.5499L124.751 103.66L114.051 94.0299L117.831 89.0499L131.891 88.0399L135.161 83.5199L131.281 80.5699L123.811 84.2499L123.821 84.2599ZM147.161 87.1899L152.581 91.4399L151.591 99.9199L144.311 111.26L138.931 114.96C138.481 114.84 135.591 112.99 130.271 109.44L129.521 104.8L139.391 90.6599L147.161 87.1899ZM145.741 92.8199L140.371 96.8699L135.201 106.69L141.421 107.54L146.171 101.29L145.731 92.8199H145.741ZM153.881 107.09L155.771 101.52L163.201 100.97L168.041 103.83L169.441 108.14L163.201 114.17L151.741 116.05L159.371 121.38L154.811 126.49L144.111 116.86L147.891 111.88L161.951 110.87L165.221 106.35L161.341 103.4L153.871 107.08L153.881 107.09ZM179.291 112.37L182.121 114.52L168.821 121.69L173.601 125.55L183.071 115.24L186.031 117.49L175.891 127.76L177.371 128.89L174.661 133.47L171.971 131.5L168.781 137.12L163.791 133.33L169.401 128.25L162.351 122.89L179.281 112.38L179.291 112.37Z" fill="white"/>
  <path d="M3.73828 76.9299L95.5983 97.0299L121.388 43.7099L23.6683 3.38989L3.73828 76.9299Z" fill="#496D20" stroke="#68A025" stroke-width="5"/>
  <path d="M59.8003 81.5501L51.0903 77.7101L51.4703 69.7501L35.8603 64.5101C35.2603 64.3101 34.0803 61.2201 32.3203 55.2301L35.1003 42.6801L45.8703 30.1201L64.2203 36.2801L67.9303 45.6201L68.5603 55.4801L64.9603 66.1901L56.6803 71.5001L61.7103 75.8801L59.8103 81.5501H59.8003ZM51.5103 62.2101L61.9903 55.1601L59.5303 43.0601L51.5903 37.9701L41.8703 46.8401L41.3603 58.8001L51.5103 62.2101ZM85.7503 43.5001L90.3803 45.0501L76.2203 60.2301L84.1403 63.1601L91.9303 45.5801L96.7803 47.2101L88.1003 65.0301L90.5203 65.8401L89.0103 72.9901L84.6503 71.6101L82.9703 80.3201L74.8003 77.5801L79.8703 68.5001L68.3303 64.6301L85.7503 43.5101V43.5001Z" fill="white"/>
</svg>
