<svg width="151" height="88" viewBox="0 0 151 88" fill="none" xmlns="http://www.w3.org/2000/svg">
  <path d="M19 37L113.5 43V87.5L0 83L19 37Z" fill="#496D20"/>
  <path d="M25.8379 59.0426L24.1656 53.097L30.2644 48.2056L36.1496 47.8013L39.9224 50.6988L38.1092 59.6266L29.3192 68.0659L39.0923 68.14L38.1858 75.2729L23.2036 73.3085L23.5156 66.7534L35.0806 57.5271L35.2226 51.6679L30.1112 51.4246L25.8379 59.0426ZM47.7687 47.7091L54.9815 48.1697L59.1604 56.0921L59.602 70.2307L57.1468 76.6251C56.683 76.7855 53.0924 76.9079 46.375 76.9923L42.9664 73.4278L43.1044 55.328L47.7687 47.7091ZM49.8824 53.4215L47.6473 60.1197L49.0133 71.682L54.9031 68.7165L55.2949 60.4836L49.8824 53.4215ZM65.4025 60.9256L63.7302 54.98L69.829 50.0886L75.7142 49.6843L79.487 52.5818L77.6738 61.5096L68.8837 69.9489L78.6569 70.023L77.7504 77.156L62.7682 75.1915L63.0802 68.6364L74.6452 59.4101L74.7872 53.5509L69.6758 53.3076L65.4025 60.9256ZM90.5217 50.3891L94.2479 50.5664L87.0067 64.6717L93.4354 65.1732L95.4965 50.6259L99.3983 50.8116L96.7334 65.7213L98.6843 65.8141L99.0644 71.3854L95.5695 71.2777L96.1475 78.0315L89.5729 77.7186L91.4075 69.9846L82.1212 69.5426L90.5217 50.3891Z" fill="white"/>
  <path d="M98.1599 59H147.584L138.935 3.00648L79.9724 15.8045L98.1599 59Z" fill="#496D20" stroke="#6FA72E" stroke-width="5"/>
  <path d="M119.344 49.2188L113.547 48.6875L112.219 44H102.156C101.771 44 100.484 42.4375 98.2969 39.3125L97.4688 31.5L101.266 22.125H113.094L117.062 26.8125L119.344 32.4062V39.3125L115.578 44L119.344 45.5625V49.2188ZM110.781 39.625L115.484 33.5L111.703 26.9688L106.109 25.5625L102.203 32.5938L104.234 39.625H110.781ZM126.984 22.125H129.969L124.719 33.6719L129.875 33.8281L130.969 22.125H134.094L132.531 34.1406H134.094L134.609 38.5781L131.812 38.625L132.531 44H127.266L128.438 37.75H121L126.984 22.125Z" fill="white"/>
</svg>
