<svg width="628" height="123" viewBox="0 0 628 123" fill="none" xmlns="http://www.w3.org/2000/svg">
  <path d="M5.8125 11.8535L10.8125 12.0488L13.625 14.7637L15.5781 18.6699L11.6719 23.2598L6.41797 24.5293L2.78516 22.5762L0.8125 18.0254L1.90625 14.0801L5.8125 11.8535ZM63.8594 16.3262L62.8047 26.8535L53.0391 29.998L40.0898 28.9434L39.3672 14.373L43.2734 2.6543H53.0391L64.0547 4.60742L57.9219 10.4668L48.4297 5.87695L43.4688 14.373L45.5391 24.8027L54.0938 25.3691L53.8398 19.627L48.5078 19.002L49.0938 15.3691L63.8594 16.3262ZM90.6953 29.998H82.8828L78.9766 22.1855H75.0703L71.1641 29.998H65.3047L72.0234 2.69336L82.8828 2.75195L90.6953 29.998ZM80.9297 17.4199L76.2812 6.56055L73.1172 17.4199H80.9297ZM91.8672 29.998L94.875 2.6543H101.633L107.492 14.373L115.305 2.6543H123.117L122.531 29.998H112.473L113.352 17.0293L106.809 24.7441L100.754 16.3262L97.7266 29.998H91.8672ZM125.773 29.998V2.6543L143.352 0.701172V6.56055L130.695 8.51367L130.383 12.4199H143.352V17.459L131.633 18.2793V23.5918L143.352 23.2793V28.9434L125.773 29.998ZM156.047 4.60742L172.629 2.6543L173.625 8.51367H162.512L162.57 14.373H173.625L172.883 20.2324H163.859L162.688 29.998H156.047V4.60742ZM177.258 2.6543H184.68L184.953 29.998H177.258V2.6543ZM211.672 29.998H204.953V26.0918L195.93 12.4199L194.406 29.998H187.375L189.328 2.6543H197.141L204.953 22.1855L207.531 2.6543H212.766L211.672 29.998ZM239.758 29.998H231.945L228.039 22.1855H224.133L220.227 29.998H214.367L221.086 2.69336L231.945 2.75195L239.758 29.998ZM229.992 17.4199L225.344 6.56055L222.18 17.4199H229.992ZM241.711 2.6543L247.57 5.17383L246.711 23.3965L259.289 24.1387L260.656 29.998L241.711 30.1934V2.6543ZM274.836 2.6543L287.863 2.45898L292.414 10.4668L291.359 20.9746L279.875 21.4824L278.488 29.998L272.883 30.1934L274.836 2.6543ZM281.027 7.43945L280.109 15.8184L286.125 14.9199L286.75 10.2715L281.027 7.43945ZM294.953 3.04492H300.031L301.203 16.7168L312.922 16.1309L311.672 2.45898H319.582C320.116 2.45898 320.923 11.2871 322.004 28.9434L314.875 29.1973L313.723 20.0371L301.203 20.623L301.77 29.5293L296.008 30.3887L294.953 3.04492ZM348.977 29.998H341.164L337.258 22.1855H333.352L329.445 29.998H323.586L330.305 2.69336L341.164 2.75195L348.977 29.998ZM339.211 17.4199L334.562 6.56055L331.398 17.4199H339.211ZM365.812 12.4199H358.215L368.898 20.2324L368.098 29.1973L359.133 29.998L350.012 28.9434L353.273 21.6191L357.961 24.1387H362.238L359.133 20.2324L351.32 15.252L350.773 7.92773L355.227 3.25977L363.039 3.39648L368.898 6.01367L365.812 12.4199ZM371.633 29.998V2.6543L389.211 0.701172V6.56055L376.555 8.51367L376.242 12.4199H389.211V17.459L377.492 18.2793V23.5918L389.211 23.2793V28.9434L371.633 29.998ZM5.8125 57.8535L10.8125 58.0488L13.625 60.7637L15.5781 64.6699L11.6719 69.2598L6.41797 70.5293L2.78516 68.5762L0.8125 64.0254L1.90625 60.0801L5.8125 57.8535ZM54.4453 58.4199H46.8477L57.5312 66.2324L56.7305 75.1973L47.7656 75.998L38.6445 74.9434L41.9062 67.6191L46.5938 70.1387H50.8711L47.7656 66.2324L39.9531 61.252L39.4062 53.9277L43.8594 49.2598L51.6719 49.3965L57.5312 52.0137L54.4453 58.4199ZM77.4531 75.998H65.9102L60.4414 69.2793C60.2591 69.2533 60.168 68.6868 60.168 67.5801C60.168 65.3796 60.526 61.0241 61.2422 54.5137L66.5547 48.6543H75.6562L83.5078 52.5605L79.7383 58.4199L72.2969 55.2559L65.1484 63.0293L71.5938 70.8027L81.7891 66.2324L85.3438 70.1387L77.4531 75.998ZM112.023 75.998H104.211L100.305 68.1855H96.3984L92.4922 75.998H86.6328L93.3516 48.6934L104.211 48.752L112.023 75.998ZM102.258 63.4199L97.6094 52.5605L94.4453 63.4199H102.258ZM113.977 48.6543L119.836 51.1738L118.977 69.3965L131.555 70.1387L132.922 75.998L113.977 76.1934V48.6543ZM136.438 48.6543H143.859L144.133 75.998H136.438V48.6543ZM170.852 75.998H164.133V72.0918L155.109 58.4199L153.586 75.998H146.555L148.508 48.6543H156.32L164.133 68.1855L166.711 48.6543H171.945L170.852 75.998ZM199.016 62.3262L197.961 72.8535L188.195 75.998L175.246 74.9434L174.523 60.373L178.43 48.6543H188.195L199.211 50.6074L193.078 56.4668L183.586 51.877L178.625 60.373L180.695 70.8027L189.25 71.3691L188.996 65.627L183.664 65.002L184.25 61.3691L199.016 62.3262ZM229.27 75.998H217.746L218.586 55.6465L210.969 55.1387V48.6543H234.016V55.2559L226.398 56.4668L229.27 75.998ZM236.398 49.0449H241.477L242.648 62.7168L254.367 62.1309L253.117 48.459H261.027C261.561 48.459 262.368 57.2871 263.449 74.9434L256.32 75.1973L255.168 66.0371L242.648 66.623L243.215 75.5293L237.453 76.3887L236.398 49.0449ZM266.008 75.998V48.6543L283.586 46.7012V52.5605L270.93 54.5137L270.617 58.4199H283.586V63.459L271.867 64.2793V69.5918L283.586 69.2793V74.9434L266.008 75.998ZM320.773 62.3262L319.719 72.8535L309.953 75.998L297.004 74.9434L296.281 60.373L300.188 48.6543H309.953L320.969 50.6074L314.836 56.4668L305.344 51.877L300.383 60.373L302.453 70.8027L311.008 71.3691L310.754 65.627L305.422 65.002L306.008 61.3691L320.773 62.3262ZM347.609 75.998H339.797L335.891 68.1855H331.984L328.078 75.998H322.219L328.938 48.6934L339.797 48.752L347.609 75.998ZM337.844 63.4199L333.195 52.5605L330.031 63.4199H337.844ZM348.781 75.998L351.789 48.6543H358.547L364.406 60.373L372.219 48.6543H380.031L379.445 75.998H369.387L370.266 63.0293L363.723 70.7441L357.668 62.3262L354.641 75.998H348.781ZM382.688 75.998V48.6543L400.266 46.7012V52.5605L387.609 54.5137L387.297 58.4199H400.266V63.459L388.547 64.2793V69.5918L400.266 69.2793V74.9434L382.688 75.998ZM412.961 75.998V48.6543L430.539 46.7012V52.5605L417.883 54.5137L417.57 58.4199H430.539V63.459L418.82 64.2793V69.5918L430.539 69.2793V74.9434L412.961 75.998ZM450.5 75.998H438.957L433.488 69.2793C433.306 69.2533 433.215 68.6868 433.215 67.5801C433.215 65.3796 433.573 61.0241 434.289 54.5137L439.602 48.6543H448.703L456.555 52.5605L452.785 58.4199L445.344 55.2559L438.195 63.0293L444.641 70.8027L454.836 66.2324L458.391 70.1387L450.5 75.998ZM465.07 48.5176L476.906 49.2598L484.797 52.4629L486.145 61.0371L485.48 72.1895L476.906 76.1348L464.387 75.5293L459.934 66.2715V56.4082L465.07 48.5176ZM470.324 53.9473L465.617 60.4902L468.273 69.6699L475.637 70.5879L480.305 65.998L479.66 56.2129L470.324 53.9473ZM503.273 58.4199H495.676L506.359 66.2324L505.559 75.1973L496.594 75.998L487.473 74.9434L490.734 67.6191L495.422 70.1387H499.699L496.594 66.2324L488.781 61.252L488.234 53.9277L492.688 49.2598L500.5 49.3965L506.359 52.0137L503.273 58.4199ZM508.117 48.6543H512.023L515.93 60.373H519.23L522.785 48.6543H528.273L528.84 57.1699L519.836 64.2793L524.582 75.4512L512.023 75.998L514.895 64.2793L508.117 56.4668V48.6543ZM545.734 58.4199H538.137L548.82 66.2324L548.02 75.1973L539.055 75.998L529.934 74.9434L533.195 67.6191L537.883 70.1387H542.16L539.055 66.2324L531.242 61.252L530.695 53.9277L535.148 49.2598L542.961 49.3965L548.82 52.0137L545.734 58.4199ZM569.465 75.998H557.941L558.781 55.6465L551.164 55.1387V48.6543H574.211V55.2559L566.594 56.4668L569.465 75.998ZM576.594 75.998V48.6543L594.172 46.7012V52.5605L581.516 54.5137L581.203 58.4199H594.172V63.459L582.453 64.2793V69.5918L594.172 69.2793V74.9434L576.594 75.998ZM596.359 75.998L599.367 48.6543H606.125L611.984 60.373L619.797 48.6543H627.609L627.023 75.998H616.965L617.844 63.0293L611.301 70.7441L605.246 62.3262L602.219 75.998H596.359ZM5.8125 103.854L10.8125 104.049L13.625 106.764L15.5781 110.67L11.6719 115.26L6.41797 116.529L2.78516 114.576L0.8125 110.025L1.90625 106.08L5.8125 103.854ZM40.3828 94.6543H47.8047L48.0781 121.998H40.3828V94.6543ZM50.5 121.998L53.5078 94.6543H60.2656L66.125 106.373L73.9375 94.6543H81.75L81.1641 121.998H71.1055L71.9844 109.029L65.4414 116.744L59.3867 108.326L56.3594 121.998H50.5ZM86.1641 94.6543L99.1914 94.459L103.742 102.467L102.688 112.975L91.2031 113.482L89.8164 121.998L84.2109 122.193L86.1641 94.6543ZM92.3555 99.4395L91.4375 107.818L97.4531 106.92L98.0781 102.271L92.3555 99.4395ZM106.477 94.6543L112.336 97.1738L111.477 115.396L124.055 116.139L125.422 121.998L106.477 122.193V94.6543ZM127.922 121.998V94.6543L145.5 92.7012V98.5605L132.844 100.514L132.531 104.42H145.5V109.459L133.781 110.279V115.592L145.5 115.279V120.943L127.922 121.998ZM147.688 121.998L150.695 94.6543H157.453L163.312 106.373L171.125 94.6543H178.938L178.352 121.998H168.293L169.172 109.029L162.629 116.744L156.574 108.326L153.547 121.998H147.688ZM181.594 121.998V94.6543L199.172 92.7012V98.5605L186.516 100.514L186.203 104.42H199.172V109.459L187.453 110.279V115.592L199.172 115.279V120.943L181.594 121.998ZM225.656 121.998H218.938V118.092L209.914 104.42L208.391 121.998H201.359L203.312 94.6543H211.125L218.938 114.186L221.516 94.6543H226.75L225.656 121.998ZM247.238 121.998H235.715L236.555 101.646L228.938 101.139V94.6543H251.984V101.256L244.367 102.467L247.238 121.998ZM255.383 94.6543H262.805L263.078 121.998H255.383V94.6543ZM289.797 121.998H283.078V118.092L274.055 104.42L272.531 121.998H265.5L267.453 94.6543H275.266L283.078 114.186L285.656 94.6543H290.891L289.797 121.998ZM317.961 108.326L316.906 118.854L307.141 121.998L294.191 120.943L293.469 106.373L297.375 94.6543H307.141L318.156 96.6074L312.023 102.467L302.531 97.877L297.57 106.373L299.641 116.803L308.195 117.369L307.941 111.627L302.609 111.002L303.195 107.369L317.961 108.326ZM345.383 104.42H337.785L348.469 112.232L347.668 121.197L338.703 121.998L329.582 120.943L332.844 113.619L337.531 116.139H341.809L338.703 112.232L330.891 107.252L330.344 99.9277L334.797 95.2598L342.609 95.3965L348.469 98.0137L345.383 104.42ZM369.113 121.998H357.59L358.43 101.646L350.812 101.139V94.6543H373.859V101.256L366.242 102.467L369.113 121.998ZM376.242 121.998V94.6543L393.82 92.7012V98.5605L381.164 100.514L380.852 104.42H393.82V109.459L382.102 110.279V115.592L393.82 115.279V120.943L376.242 121.998ZM421.008 121.998H413.195L409.289 114.186H405.383L401.477 121.998H395.617L402.336 94.6934L413.195 94.752L421.008 121.998ZM411.242 109.42L406.594 98.5605L403.43 109.42H411.242ZM444.25 121.998L429.484 111.51L428.625 121.998H423.625L422.766 94.6543H426.672L429.484 107.115L436.438 94.6543H446.203C446.281 94.6543 446.32 94.6999 446.32 94.791C446.32 95.7025 443.026 100.865 436.438 110.279L446.203 118.092L444.25 121.998ZM449.797 94.6543H457.219L457.492 121.998H449.797V94.6543ZM484.211 121.998H477.492V118.092L468.469 104.42L466.945 121.998H459.914L461.867 94.6543H469.68L477.492 114.186L480.07 94.6543H485.305L484.211 121.998ZM512.375 108.326L511.32 118.854L501.555 121.998L488.605 120.943L487.883 106.373L491.789 94.6543H501.555L512.57 96.6074L506.438 102.467L496.945 97.877L491.984 106.373L494.055 116.803L502.609 117.369L502.355 111.627L497.023 111.002L497.609 107.369L512.375 108.326Z" fill="white"/>
</svg>
