<svg width="156" height="80" viewBox="0 0 156 80" fill="none" xmlns="http://www.w3.org/2000/svg">
  <path d="M22.9351 4.1958L24.8101 4.26904L25.8647 5.28711L26.5972 6.75195L25.1323 8.47314L23.1621 8.94922L21.7998 8.2168L21.0601 6.51025L21.4702 5.03076L22.9351 4.1958ZM44.7026 5.87305L44.3071 9.8208L40.645 11L35.7891 10.6045L35.5181 5.14062L36.9829 0.746094H40.645L44.7759 1.47852L42.4761 3.67578L38.9165 1.95459L37.0562 5.14062L37.8325 9.05176L41.0405 9.26416L40.9453 7.11084L38.9458 6.87646L39.1655 5.51416L44.7026 5.87305ZM54.7661 11H51.8364L50.3716 8.07031H48.9067L47.4419 11H45.2446L47.7642 0.760742L51.8364 0.782715L54.7661 11ZM51.104 6.2832L49.3608 2.21094L48.1743 6.2832H51.104ZM55.2056 11L56.3335 0.746094H58.8677L61.0649 5.14062L63.9946 0.746094H66.9243L66.7046 11H62.9326L63.2622 6.13672L60.8086 9.02979L58.5381 5.87305L57.4028 11H55.2056ZM67.9204 11V0.746094L74.5122 0.0136719V2.21094L69.7661 2.94336L69.6489 4.4082H74.5122V6.29785L70.1177 6.60547V8.59766L74.5122 8.48047V10.6045L67.9204 11ZM79.3462 0.746094L81.5435 1.69092L81.2212 8.52441L85.938 8.80273L86.4507 11L79.3462 11.0732V0.746094ZM96.5435 11H93.6138L92.1489 8.07031H90.6841L89.2192 11H87.022L89.5415 0.760742L93.6138 0.782715L96.5435 11ZM92.8813 6.2832L91.1382 2.21094L89.9517 6.2832H92.8813ZM101.597 11L98.6675 10.2676L97.5688 8.57568L97.2026 0.746094H100.132V8.28271L101.597 9.38867L104.527 8.65625L104.043 0.746094H106.724V8.80273L104.527 10.7729L101.597 11ZM116.773 11H114.253V9.53516L110.87 4.4082L110.298 11H107.662L108.394 0.746094H111.324L114.253 8.07031L115.22 0.746094H117.183L116.773 11ZM124.595 11H120.267L118.216 8.48047C118.147 8.4707 118.113 8.2583 118.113 7.84326C118.113 7.01807 118.248 5.38477 118.516 2.94336L120.508 0.746094H123.921L126.866 2.21094L125.452 4.4082L122.662 3.22168L119.981 6.13672L122.398 9.05176L126.221 7.33789L127.554 8.80273L124.595 11ZM128.404 0.892578H130.308L130.748 6.01953L135.142 5.7998L134.673 0.672852H137.64C137.84 0.672852 138.143 3.9834 138.548 10.6045L135.875 10.6997L135.442 7.26465L130.748 7.48438L130.96 10.8242L128.799 11.1465L128.404 0.892578ZM2.42725 21.1958L4.30225 21.269L5.35693 22.2871L6.08936 23.752L4.62451 25.4731L2.6543 25.9492L1.29199 25.2168L0.552246 23.5103L0.962402 22.0308L2.42725 21.1958ZM14.7905 28L15.9185 17.7461H18.4526L20.6499 22.1406L23.5796 17.7461H26.5093L26.2896 28H22.5176L22.8472 23.1367L20.3936 26.0298L18.123 22.873L16.9878 28H14.7905ZM27.8862 17.7461H30.6694L30.772 28H27.8862V17.7461ZM40.7915 28H38.272V26.5352L34.8882 21.4082L34.3169 28H31.6802L32.4126 17.7461H35.3423L38.272 25.0703L39.2388 17.7461H41.2017L40.7915 28ZM48.8848 28H44.5635L44.8784 20.3682L42.022 20.1777V17.7461H50.6646V20.2217L47.8081 20.6758L48.8848 28ZM61.9951 28H57.6738L57.9888 20.3682L55.1323 20.1777V17.7461H63.7749V20.2217L60.9185 20.6758L61.9951 28ZM64.6685 17.8926H66.5728L67.0122 23.0195L71.4067 22.7998L70.938 17.6729H73.9043C74.1045 17.6729 74.4072 20.9834 74.8125 27.6045L72.1392 27.6997L71.707 24.2646L67.0122 24.4844L67.2246 27.8242L65.064 28.1465L64.6685 17.8926ZM75.772 28V17.7461L82.3638 17.0137V19.2109L77.6177 19.9434L77.5005 21.4082H82.3638V23.2979L77.9692 23.6055V25.5977L82.3638 25.4805V27.6045L75.772 28ZM87.1245 18.4785L93.3428 17.7461L93.7163 19.9434H89.5488L89.5708 22.1406H93.7163L93.438 24.3379H90.0542L89.6147 28H87.1245V18.4785ZM95.0786 17.7461H97.8618L97.9644 28H95.0786V17.7461ZM107.076 28H104.146L103.414 24.0669L102.154 24.0449L101.634 28H99.019L99.5024 18.0024L104.146 17.7461L106.819 18.4785L106.556 22.1406L104.878 23.6055L107.076 28ZM101.18 22.3091L103.663 22.0747L105.215 19.98L102.688 19.0938L101.165 19.2988L101.18 22.3091ZM113.77 21.4082H110.921L114.927 24.3379L114.627 27.6997L111.265 28L107.845 27.6045L109.068 24.8579L110.826 25.8027H112.43L111.265 24.3379L108.335 22.4702L108.13 19.7236L109.8 17.9731L112.73 18.0244L114.927 19.0059L113.77 21.4082ZM122.669 28H118.348L118.663 20.3682L115.806 20.1777V17.7461H124.449V20.2217L121.592 20.6758L122.669 28ZM137.955 28H135.435V26.5352L132.051 21.4082L131.48 28H128.843L129.576 17.7461H132.505L135.435 25.0703L136.402 17.7461H138.365L137.955 28ZM139.332 18.4785L145.55 17.7461L145.923 19.9434H141.756L141.778 22.1406H145.923L145.645 24.3379H142.261L141.822 28H139.332V18.4785ZM153.621 28H149.3L149.615 20.3682L146.758 20.1777V17.7461H155.401V20.2217L152.544 20.6758L153.621 28ZM49.4194 45H45.0908L43.04 42.4805C42.9717 42.4707 42.9375 42.2583 42.9375 41.8433C42.9375 41.0181 43.0718 39.3848 43.3403 36.9434L45.3325 34.7461H48.7456L51.6899 36.2109L50.2764 38.4082L47.4858 37.2217L44.8052 40.1367L47.2222 43.0518L51.0454 41.3379L52.3784 42.8027L49.4194 45ZM54.8833 34.6948L59.3218 34.9731L62.2808 36.1743L62.7861 39.3896L62.5371 43.5718L59.3218 45.0513L54.627 44.8242L52.957 41.3525V37.6538L54.8833 34.6948ZM56.8535 36.731L55.0884 39.1846L56.0845 42.627L58.8457 42.9712L60.5962 41.25L60.3545 37.5806L56.8535 36.731ZM63.6284 34.7461L65.8257 35.6909L65.5034 42.5244L70.2202 42.8027L70.7329 45L63.6284 45.0732V34.7461ZM71.7437 34.7461L73.9409 35.6909L73.6187 42.5244L78.3354 42.8027L78.8481 45L71.7437 45.0732V34.7461ZM79.7856 45V34.7461L86.3774 34.0137V36.2109L81.6313 36.9434L81.5142 38.4082H86.3774V40.2979L81.9829 40.6055V42.5977L86.3774 42.4805V44.6045L79.7856 45ZM93.8628 45H89.5342L87.4834 42.4805C87.415 42.4707 87.3809 42.2583 87.3809 41.8433C87.3809 41.0181 87.5151 39.3848 87.7837 36.9434L89.7759 34.7461H93.189L96.1333 36.2109L94.7197 38.4082L91.9292 37.2217L89.2485 40.1367L91.6655 43.0518L95.4888 41.3379L96.8218 42.8027L93.8628 45ZM104.388 45H100.066L100.381 37.3682L97.5249 37.1777V34.7461H106.167V37.2217L103.311 37.6758L104.388 45ZM107.442 34.7461H110.225L110.328 45H107.442V34.7461ZM113.111 34.6948L117.549 34.9731L120.508 36.1743L121.014 39.3896L120.765 43.5718L117.549 45.0513L112.854 44.8242L111.185 41.3525V37.6538L113.111 34.6948ZM115.081 36.731L113.316 39.1846L114.312 42.627L117.073 42.9712L118.824 41.25L118.582 37.5806L115.081 36.731ZM130.674 45H128.155V43.5352L124.771 38.4082L124.2 45H121.563L122.295 34.7461H125.225L128.155 42.0703L129.122 34.7461H131.084L130.674 45ZM4.90283 55.1958L6.77783 55.269L7.83252 56.2871L8.56494 57.752L7.1001 59.4731L5.12988 59.9492L3.76758 59.2168L3.02783 57.5103L3.43799 56.0308L4.90283 55.1958ZM17.8667 51.7461H20.6499L20.7524 62H17.8667V51.7461ZM21.6606 62L22.7886 51.7461H25.3228L27.52 56.1406L30.4497 51.7461H33.3794L33.1597 62H29.3877L29.7173 57.1367L27.2637 60.0298L24.9932 56.873L23.8579 62H21.6606ZM35.0347 51.7461L39.9199 51.6729L41.6265 54.6758L41.231 58.6162L36.9243 58.8066L36.4043 62L34.3022 62.0732L35.0347 51.7461ZM37.3564 53.5405L37.0122 56.6826L39.2681 56.3457L39.5024 54.6025L37.3564 53.5405ZM42.6519 51.7461L44.8491 52.6909L44.5269 59.5244L49.2437 59.8027L49.7563 62L42.6519 62.0732V51.7461ZM50.6938 62V51.7461L57.2856 51.0137V53.2109L52.5396 53.9434L52.4224 55.4082H57.2856V57.2979L52.8911 57.6055V59.5977L57.2856 59.4805V61.6045L50.6938 62ZM58.106 62L59.2339 51.7461H61.7681L63.9653 56.1406L66.895 51.7461H69.8247L69.605 62H65.833L66.1626 57.1367L63.709 60.0298L61.4385 56.873L60.3032 62H58.106ZM70.8208 62V51.7461L77.4126 51.0137V53.2109L72.6665 53.9434L72.5493 55.4082H77.4126V57.2979L73.0181 57.6055V59.5977L77.4126 59.4805V61.6045L70.8208 62ZM87.3442 62H84.8247V60.5352L81.4409 55.4082L80.8696 62H78.2329L78.9653 51.7461H81.895L84.8247 59.0703L85.7915 51.7461H87.7544L87.3442 62ZM95.4375 62H91.1162L91.4312 54.3682L88.5747 54.1777V51.7461H97.2173V54.2217L94.3608 54.6758L95.4375 62ZM98.4917 51.7461H101.275L101.377 62H98.4917V51.7461ZM111.397 62H108.877V60.5352L105.494 55.4082L104.922 62H102.286L103.018 51.7461H105.948L108.877 59.0703L109.844 51.7461H111.807L111.397 62ZM121.958 56.873L121.563 60.8208L117.901 62L113.045 61.6045L112.774 56.1406L114.239 51.7461H117.901L122.032 52.4785L119.732 54.6758L116.172 52.9546L114.312 56.1406L115.088 60.0518L118.296 60.2642L118.201 58.1108L116.202 57.8765L116.421 56.5142L121.958 56.873ZM135.479 62H132.959V60.5352L129.576 55.4082L129.004 62H126.368L127.1 51.7461H130.03L132.959 59.0703L133.926 51.7461H135.889L135.479 62ZM136.856 52.4785L143.074 51.7461L143.448 53.9434H139.28L139.302 56.1406H143.448L143.169 58.3379H139.786L139.346 62H136.856V52.4785ZM151.146 62H146.824L147.139 54.3682L144.283 54.1777V51.7461H152.925V54.2217L150.069 54.6758L151.146 62ZM31.7168 68.7461H34.5L34.6025 79H31.7168V68.7461ZM44.6221 79H42.1025V77.5352L38.7188 72.4082L38.1475 79H35.5107L36.2432 68.7461H39.1729L42.1025 76.0703L43.0693 68.7461H45.0322L44.6221 79ZM52.7153 79H48.394L48.709 71.3682L45.8525 71.1777V68.7461H54.4951V71.2217L51.6387 71.6758L52.7153 79ZM57.0439 68.6948L61.4824 68.9731L64.4414 70.1743L64.9468 73.3896L64.6978 77.5718L61.4824 79.0513L56.7876 78.8242L55.1177 75.3525V71.6538L57.0439 68.6948ZM59.0142 70.731L57.249 73.1846L58.2451 76.627L61.0063 76.9712L62.7568 75.25L62.5151 71.5806L59.0142 70.731ZM78.6211 73.873L78.2256 77.8208L74.5635 79L69.7075 78.6045L69.4365 73.1406L70.9014 68.7461H74.5635L78.6943 69.4785L76.3945 71.6758L72.835 69.9546L70.9746 73.1406L71.751 77.0518L74.959 77.2642L74.8638 75.1108L72.8643 74.8765L73.084 73.5142L78.6211 73.873ZM88.6846 79H85.7549L84.29 76.0703H82.8252L81.3604 79H79.1631L81.6826 68.7607L85.7549 68.7827L88.6846 79ZM85.0225 74.2832L83.2793 70.2109L82.0928 74.2832H85.0225ZM89.124 79L90.252 68.7461H92.7861L94.9834 73.1406L97.9131 68.7461H100.843L100.623 79H96.8511L97.1807 74.1367L94.7271 77.0298L92.4565 73.873L91.3213 79H89.124ZM101.839 79V68.7461L108.431 68.0137V70.2109L103.685 70.9434L103.567 72.4082H108.431V74.2979L104.036 74.6055V76.5977L108.431 76.4805V78.6045L101.839 79ZM110.13 68.7461L115.015 68.6729L116.722 71.6758L116.326 75.6162L112.02 75.8066L111.5 79L109.397 79.0732L110.13 68.7461ZM112.452 70.5405L112.107 73.6826L114.363 73.3457L114.598 71.6025L112.452 70.5405ZM117.747 68.7461L119.944 69.6909L119.622 76.5244L124.339 76.8027L124.852 79L117.747 79.0732V68.7461ZM134.944 79H132.015L130.55 76.0703H129.085L127.62 79H125.423L127.942 68.7607L132.015 68.7827L134.944 79ZM131.282 74.2832L129.539 70.2109L128.353 74.2832H131.282ZM135.237 68.7461H136.702L138.167 73.1406H139.405L140.738 68.7461H142.796L143.008 71.9395L139.632 74.6055L141.412 78.7949L136.702 79L137.779 74.6055L135.237 71.6758V68.7461Z" fill="white"/>
</svg>
