<svg width="336" height="157" viewBox="0 0 336 157" fill="none" xmlns="http://www.w3.org/2000/svg">
  <path d="M11.8203 22.8574C11.8203 24.459 11.2539 25.8262 10.1211 26.959C9.0013 28.0788 7.64714 28.6387 6.05859 28.6387C4.45703 28.6387 3.08984 28.0723 1.95703 26.9395C0.83724 25.8066 0.277344 24.446 0.277344 22.8574C0.277344 21.2689 0.83724 19.9147 1.95703 18.7949C3.08984 17.6621 4.45703 17.0957 6.05859 17.0957C7.64714 17.0957 9.0013 17.6556 10.1211 18.7754C11.2539 19.8952 11.8203 21.2559 11.8203 22.8574ZM38.52 6.87805L41.2 3.39805C43.4 4.31805 46.2 5.87804 47.56 7.15804L44.72 10.958C43.48 9.67805 40.68 7.91804 38.52 6.87805ZM37.08 17.598L39.72 14.038C41.96 14.878 44.8 16.358 46.16 17.558L43.4 21.438C42.08 20.198 39.32 18.558 37.08 17.598ZM37.52 37.798C38.96 34.558 40.92 29.438 42.36 24.678L46.28 27.078C45 31.438 43.4 36.158 41.88 40.118L37.52 37.798ZM62.88 7.75805H74.76V12.318H62.88V7.75805ZM62.28 15.318H72.16V19.478H62.28V15.318ZM60.6 24.838H74.84V29.158H60.6V24.838ZM62.72 3.07804L67.28 3.87804C66.4 9.15805 64.68 14.358 62.52 17.638C61.64 16.958 59.56 15.798 58.44 15.278C60.64 12.398 62 7.71804 62.72 3.07804ZM65.56 21.478H70V35.838C70 37.998 69.64 39.198 68.2 39.918C66.76 40.598 64.8 40.678 62.12 40.678C62 39.398 61.4 37.558 60.88 36.278C62.52 36.358 64.32 36.358 64.88 36.358C65.4 36.358 65.56 36.238 65.56 35.758V21.478ZM70.28 15.318H71.28L72.12 15.038L74.92 17.038C73.32 19.798 71.04 22.918 69 24.958C68.4 24.078 67.12 22.758 66.4 22.118C67.88 20.558 69.52 17.878 70.28 16.118V15.318ZM46.32 8.79805H60.48V13.358H46.32V8.79805ZM50.8 17.758H57.6V22.118H50.8V17.758ZM51.32 3.11804H55.92V11.998H51.32V3.11804ZM55.84 17.758H60.16C60.16 17.758 60.16 19.078 60.12 19.638C59.72 32.438 59.32 37.238 58.24 38.718C57.44 39.798 56.68 40.198 55.6 40.398C54.68 40.598 53.24 40.598 51.68 40.558C51.6 39.238 51.2 37.438 50.52 36.278C51.72 36.358 52.72 36.398 53.28 36.398C53.8 36.398 54.12 36.278 54.44 35.798C55.12 34.838 55.52 30.678 55.84 18.598V17.758ZM49.24 12.158H53.64C53.4 22.958 52.8 33.838 47.04 40.518C46.32 39.478 44.96 38.118 43.8 37.398C48.88 31.598 49.08 21.718 49.24 12.158ZM77.72 7.31805H89.8V11.558H77.72V7.31805ZM88.72 7.31805H89.56L90.36 7.15804L93.44 8.19805C91.76 21.558 87.28 31.878 80.24 37.878C79.48 36.678 77.92 34.838 76.76 33.998C83.04 29.278 87.4 19.078 88.72 8.35805V7.31805ZM77.56 15.998L80.84 13.238C85.36 18.958 91.48 26.678 94.16 31.558L90.44 34.958C87.92 29.958 82.08 21.918 77.56 15.998ZM93.04 14.198L113.68 11.758L114.24 16.078L93.64 18.598L93.04 14.198ZM104 5.71804L107.4 3.19805C109.12 4.83805 111.56 7.15804 112.72 8.67805L109.08 11.518C108.04 9.95804 105.68 7.47805 104 5.71804ZM96.96 3.27804H101.96C102.12 20.558 104.12 33.798 109 34.598C109.92 34.678 110.36 32.718 110.64 28.478C111.56 29.518 113.76 30.878 114.68 31.358C113.64 38.958 111.44 40.718 109.24 40.558C99.6 39.518 97.52 25.478 96.96 3.27804ZM109.16 17.398L113 19.678C109.72 27.598 103.2 35.358 96 39.198C95.08 38.038 93.56 36.558 92.2 35.638C99.72 32.318 106.12 24.918 109.16 17.398ZM125.32 20.398H146.08V17.918H121.2V14.038H150.8V24.318H125.32V20.398ZM122.68 20.398H127.48C126.72 24.198 125.68 28.678 124.84 31.598L120.04 31.038C120.96 28.198 122.04 23.918 122.68 20.398ZM124.36 26.678H149.56V30.678H123.16L124.36 26.678ZM148.32 26.678H153.12C153.12 26.678 153.08 27.798 153 28.398C152.6 33.718 152.12 36.318 151.12 37.438C150.24 38.358 149.28 38.678 148.04 38.798C146.92 38.958 145 38.958 142.96 38.918C142.88 37.518 142.32 35.718 141.6 34.518C143.28 34.718 144.96 34.758 145.68 34.718C146.32 34.718 146.68 34.678 147.08 34.358C147.64 33.798 148 31.878 148.32 27.238V26.678ZM133.52 14.958H138.24V40.598H133.52V14.958ZM132.56 28.118L136.28 29.718C132.68 34.238 126.64 38.198 120.84 40.198C120.16 39.038 118.8 37.318 117.8 36.398C123.44 34.838 129.52 31.638 132.56 28.118ZM122.8 6.11805H135.4V9.79805H122.8V6.11805ZM138.68 6.11805H154.2V9.79805H138.68V6.11805ZM123 2.71804L127.44 3.91805C125.8 7.87805 123.12 11.958 120.6 14.438C119.72 13.718 117.8 12.478 116.68 11.878C119.28 9.67805 121.64 6.15805 123 2.71804ZM139.28 2.71804L143.8 3.87804C142.28 7.83805 139.68 11.678 137.08 14.118C136.2 13.318 134.24 12.038 133.12 11.438C135.8 9.39804 138.08 6.07804 139.28 2.71804ZM124.28 9.03804L128.12 7.39805C129.16 8.95805 130.36 11.158 130.88 12.558L126.8 14.358C126.4 12.918 125.32 10.718 124.28 9.03804ZM141.64 8.99804L145.6 7.59805C146.88 9.07805 148.36 11.158 149.04 12.598L144.88 14.198C144.32 12.798 142.92 10.598 141.64 8.99804ZM161.48 8.55805H190.52V13.838H161.48V8.55805ZM158.16 31.758H193.88V37.278H158.16V31.758ZM225 19.158H229.72V40.478H225V19.158ZM215.68 19.118H220.36V25.038C220.36 30.398 219.88 36.278 215.2 40.798C214.16 39.878 212.08 38.638 210.64 38.038C215.16 34.118 215.68 29.358 215.68 24.958V19.118ZM224 4.15805C226.24 8.67805 230.72 13.158 235.36 15.438C234.32 16.358 232.84 18.078 232.12 19.238C227.24 16.358 222.72 11.158 219.96 5.59805L224 4.15805ZM220.52 2.63805L225.48 3.39805C223.52 9.71805 220 15.718 213.48 20.158C212.88 19.038 211.48 17.158 210.44 16.358C216.16 12.758 219.2 7.51804 220.52 2.63805ZM198.8 4.59804H209.72V9.07805H203.48V40.678H198.8V4.59804ZM208.28 4.59804H209.2L209.88 4.43805L213.28 6.43804C211.96 9.79805 210.28 13.638 208.8 16.638C212.08 19.798 212.72 22.638 212.72 24.998C212.72 27.638 212.04 29.398 210.56 30.398C209.84 30.918 208.96 31.158 207.96 31.318C207.08 31.438 205.92 31.438 204.84 31.398C204.8 30.198 204.36 28.318 203.64 27.038C204.52 27.158 205.28 27.158 205.88 27.118C206.4 27.118 206.92 27.038 207.28 26.798C207.92 26.438 208.2 25.638 208.2 24.478C208.16 22.558 207.32 19.998 204.2 17.238C205.68 13.758 207.44 8.59805 208.28 5.99805V4.59804ZM254.52 20.718H269.2V25.038H254.52V20.718ZM242.56 12.958H252.76V17.398H242.56V12.958ZM242.56 20.678H253.12V25.118H242.56V20.678ZM258.68 4.51805H267.72V8.67805H258.68V4.51805ZM268.52 20.718H269.4L270.24 20.558L273.32 21.678C270.48 32.318 263.44 37.958 253.88 40.718C253.4 39.438 252.24 37.478 251.36 36.438C259.88 34.478 266.36 29.478 268.52 21.438V20.718ZM260.12 24.598C262.6 30.438 267.76 34.598 275.28 36.278C274.16 37.238 272.8 39.238 272.12 40.558C264.04 38.238 258.96 33.198 255.92 25.718L260.12 24.598ZM240.2 5.71804L244.76 7.07805V40.518H240.2V5.71804ZM236.88 30.318C241.32 29.838 247.92 28.998 254.12 28.158L254.28 32.558C248.48 33.438 242.24 34.358 237.64 34.998L236.88 30.318ZM256.6 4.51805H261V10.358C261 14.078 260.16 18.438 255.76 21.038C255.12 20.158 253.36 18.438 252.44 17.838C256.2 15.718 256.6 12.878 256.6 10.238V4.51805ZM250.84 3.07804L254.8 6.47805C251.24 8.19805 246.6 9.47805 242.6 10.318C242.36 9.27805 241.64 7.63805 241.08 6.71805C244.64 5.83805 248.52 4.43805 250.84 3.07804ZM265.16 4.51805H269.64V14.038C269.64 14.718 269.64 15.078 269.76 15.238C269.84 15.358 269.96 15.398 270.16 15.398C270.32 15.398 270.6 15.398 270.8 15.398C271 15.398 271.2 15.358 271.32 15.278C271.44 15.198 271.56 14.918 271.64 14.438C271.72 13.878 271.76 12.678 271.8 11.118C272.6 11.878 274.16 12.638 275.36 13.038C275.24 14.638 275.08 16.398 274.8 17.158C274.52 17.918 274.04 18.438 273.32 18.758C272.76 19.078 271.84 19.238 271.16 19.238C270.44 19.238 269.56 19.238 268.96 19.238C267.96 19.238 266.84 18.918 266.16 18.238C265.48 17.558 265.16 16.678 265.16 14.078V4.51805Z" fill="white"/>
  <path d="M31.8203 76.8574C31.8203 78.459 31.2539 79.8262 30.1211 80.959C29.0013 82.0788 27.6471 82.6387 26.0586 82.6387C24.457 82.6387 23.0898 82.0723 21.957 80.9395C20.8372 79.8066 20.2773 78.446 20.2773 76.8574C20.2773 75.2689 20.8372 73.9147 21.957 72.7949C23.0898 71.6621 24.457 71.0957 26.0586 71.0957C27.6471 71.0957 29.0013 71.6556 30.1211 72.7754C31.2539 73.8952 31.8203 75.2559 31.8203 76.8574ZM58.52 60.878L61.2 57.398C63.4 58.318 66.2 59.878 67.56 61.158L64.72 64.958C63.48 63.678 60.68 61.918 58.52 60.878ZM57.08 71.598L59.72 68.038C61.96 68.878 64.8 70.358 66.16 71.558L63.4 75.438C62.08 74.198 59.32 72.558 57.08 71.598ZM57.52 91.798C58.96 88.558 60.92 83.438 62.36 78.678L66.28 81.078C65 85.438 63.4 90.158 61.88 94.118L57.52 91.798ZM82.88 61.758H94.76V66.318H82.88V61.758ZM82.28 69.318H92.16V73.478H82.28V69.318ZM80.6 78.838H94.84V83.158H80.6V78.838ZM82.72 57.078L87.28 57.878C86.4 63.158 84.68 68.358 82.52 71.638C81.64 70.958 79.56 69.798 78.44 69.278C80.64 66.398 82 61.718 82.72 57.078ZM85.56 75.478H90V89.838C90 91.998 89.64 93.198 88.2 93.918C86.76 94.598 84.8 94.678 82.12 94.678C82 93.398 81.4 91.558 80.88 90.278C82.52 90.358 84.32 90.358 84.88 90.358C85.4 90.358 85.56 90.238 85.56 89.758V75.478ZM90.28 69.318H91.28L92.12 69.038L94.92 71.038C93.32 73.798 91.04 76.918 89 78.958C88.4 78.078 87.12 76.758 86.4 76.118C87.88 74.558 89.52 71.878 90.28 70.118V69.318ZM66.32 62.798H80.48V67.358H66.32V62.798ZM70.8 71.758H77.6V76.118H70.8V71.758ZM71.32 57.118H75.92V65.998H71.32V57.118ZM75.84 71.758H80.16C80.16 71.758 80.16 73.078 80.12 73.638C79.72 86.438 79.32 91.238 78.24 92.718C77.44 93.798 76.68 94.198 75.6 94.398C74.68 94.598 73.24 94.598 71.68 94.558C71.6 93.238 71.2 91.438 70.52 90.278C71.72 90.358 72.72 90.398 73.28 90.398C73.8 90.398 74.12 90.278 74.44 89.798C75.12 88.838 75.52 84.678 75.84 72.598V71.758ZM69.24 66.158H73.64C73.4 76.958 72.8 87.838 67.04 94.518C66.32 93.478 64.96 92.118 63.8 91.398C68.88 85.598 69.08 75.718 69.24 66.158ZM97.72 61.318H109.8V65.558H97.72V61.318ZM108.72 61.318H109.56L110.36 61.158L113.44 62.198C111.76 75.558 107.28 85.878 100.24 91.878C99.48 90.678 97.92 88.838 96.76 87.998C103.04 83.278 107.4 73.078 108.72 62.358V61.318ZM97.56 69.998L100.84 67.238C105.36 72.958 111.48 80.678 114.16 85.558L110.44 88.958C107.92 83.958 102.08 75.918 97.56 69.998ZM113.04 68.198L133.68 65.758L134.24 70.078L113.64 72.598L113.04 68.198ZM124 59.718L127.4 57.198C129.12 58.838 131.56 61.158 132.72 62.678L129.08 65.518C128.04 63.958 125.68 61.478 124 59.718ZM116.96 57.278H121.96C122.12 74.558 124.12 87.798 129 88.598C129.92 88.678 130.36 86.718 130.64 82.478C131.56 83.518 133.76 84.878 134.68 85.358C133.64 92.958 131.44 94.718 129.24 94.558C119.6 93.518 117.52 79.478 116.96 57.278ZM129.16 71.398L133 73.678C129.72 81.598 123.2 89.358 116 93.198C115.08 92.038 113.56 90.558 112.2 89.638C119.72 86.318 126.12 78.918 129.16 71.398ZM153.44 74.838L157.08 72.198C160.64 75.398 165.48 79.958 167.84 82.958L163.84 86.038C161.72 83.038 157.04 78.238 153.44 74.838ZM153.56 57.038H158.48V66.638C158.48 73.278 156.8 81.478 147.68 86.918C147 85.878 145.36 84.118 144.24 83.278C152.88 78.838 153.56 71.838 153.56 66.598V57.038ZM139.52 63.678H169.92V68.398H144.32V94.678H139.52V63.678ZM167.8 63.678H172.56V89.118C172.56 91.718 172 93.038 170.36 93.838C168.68 94.598 166.12 94.638 162.56 94.638C162.4 93.318 161.64 91.118 161 89.878C163.36 89.998 166.04 89.998 166.8 89.998C167.56 89.958 167.8 89.718 167.8 89.038V63.678ZM189.56 70.518L213.92 67.278L214.6 71.838L190.28 75.118L189.56 70.518ZM204.64 59.558L208.24 57.318C210.32 59.238 212.84 61.918 213.96 63.798L210.12 66.278C209.12 64.438 206.68 61.598 204.64 59.558ZM187.36 57.358L191.92 58.878C188.92 65.958 184.04 73.358 179.04 77.958C178.56 76.798 177.2 74.238 176.36 73.078C180.68 69.358 184.88 63.398 187.36 57.358ZM183.2 68.838L188.12 63.958L188.16 64.038V94.518H183.2V68.838ZM197.04 57.638H201.92C202.2 74.758 204.52 88.038 209.36 88.718C210.28 88.798 210.8 86.718 211.08 82.318C212 83.318 214.16 84.598 215.04 85.038C214 92.798 211.84 94.638 209.6 94.518C200.12 93.638 197.76 79.438 197.04 57.638ZM233.36 62.758H238.36V94.558H233.36V62.758ZM221.4 69.398H248.32V74.078H226.32V90.118H221.4V69.398ZM245.76 69.398H250.76V84.718C250.76 87.038 250.32 88.438 248.68 89.198C247.04 89.958 244.88 90.038 241.88 90.038C241.68 88.638 240.96 86.518 240.28 85.198C242.16 85.278 244.32 85.278 244.92 85.278C245.56 85.238 245.76 85.078 245.76 84.558V69.398ZM251.24 57.958L253.08 62.358C243.8 63.758 230.72 64.438 219.76 64.478C219.68 63.118 219.16 61.278 218.72 60.158C229.92 59.998 242.76 59.278 251.24 57.958ZM273.12 74.998C276.56 83.158 283.8 88.438 295.12 90.318C294.12 91.318 292.8 93.358 292.12 94.678C280.28 92.238 273.24 86.158 269 76.198L273.12 74.998ZM286.12 73.398H287.08L288 73.198L291.32 74.718C287.64 86.158 278.92 91.838 268 94.638C267.48 93.358 266.36 91.478 265.44 90.438C275.24 88.358 283.36 83.078 286.12 74.198V73.398ZM271.64 73.398H286.84V77.998H270.24L271.64 73.398ZM273.6 56.758L278.96 57.638C276.88 73.518 272.24 84.838 260.28 91.518C259.64 90.478 257.92 88.518 256.76 87.638C267.56 81.838 271.88 71.038 273.6 56.758ZM282.68 59.398L286.44 57.158C287.96 58.838 290.2 61.198 291.24 62.638L287.36 65.158C286.36 63.678 284.24 61.198 282.68 59.398ZM261.32 70.998C261.04 69.998 260.28 67.838 259.76 66.678C260.36 66.478 260.96 65.918 261.48 64.998C261.96 64.158 263.52 61.038 264.28 57.878L269.32 58.678C268.32 62.198 266.4 66.038 264.96 68.358V68.438C264.96 68.438 261.32 69.998 261.32 70.998ZM261.32 70.998V67.478L264.16 65.518H293.8L293.76 70.078H265.52C263.4 70.078 261.68 70.398 261.32 70.998ZM298.12 62.718H333.96V67.318H298.12V62.718ZM315.64 68.798H320.52V94.598H315.64V68.798ZM304.52 73.398H329.24V77.918H309.32V91.038H304.52V73.398ZM327.16 73.398H332.04V85.878C332.04 88.078 331.56 89.318 330 90.038C328.44 90.718 326.28 90.758 323.28 90.758C323.08 89.438 322.36 87.598 321.76 86.398C323.6 86.478 325.76 86.478 326.32 86.478C326.96 86.438 327.16 86.278 327.16 85.798V73.398ZM310.96 56.958L315.92 58.078C313 67.918 308 77.878 299.44 83.838C298.8 82.638 297.56 80.678 296.68 79.598C304.2 74.638 308.84 65.358 310.96 56.958Z" fill="white"/>
  <path d="M51.8203 133.857C51.8203 135.459 51.2539 136.826 50.1211 137.959C49.0013 139.079 47.6471 139.639 46.0586 139.639C44.457 139.639 43.0898 139.072 41.957 137.939C40.8372 136.807 40.2773 135.446 40.2773 133.857C40.2773 132.269 40.8372 130.915 41.957 129.795C43.0898 128.662 44.457 128.096 46.0586 128.096C47.6471 128.096 49.0013 128.656 50.1211 129.775C51.2539 130.895 51.8203 132.256 51.8203 133.857ZM80.7852 132.529L77.8359 130.244C78.7734 129.189 79.75 128.18 80.7656 127.217C81.1693 126.826 81.4232 126.579 81.5273 126.475C81.2018 126.423 80.2708 126.208 78.7344 125.83C77.6276 125.557 76.8984 125.355 76.5469 125.225L77.6992 121.787C79.4049 122.477 80.9284 123.239 82.2695 124.072C81.957 121.95 81.8008 120.218 81.8008 118.877H85.2773C85.2773 119.827 85.1016 121.572 84.75 124.111C85.0104 124.007 85.5703 123.753 86.4297 123.35C87.6016 122.816 88.6823 122.36 89.6719 121.982L90.707 125.518C89.2617 125.843 87.5885 126.162 85.6875 126.475L88.0312 129.111C88.5 129.645 88.8711 130.081 89.1445 130.42L86.1562 132.393L83.5195 128.037C82.7253 129.443 81.8138 130.941 80.7852 132.529ZM96.3711 132.529L93.4219 130.244C94.3594 129.189 95.3359 128.18 96.3516 127.217C96.7552 126.826 97.0091 126.579 97.1133 126.475C96.7878 126.423 95.8568 126.208 94.3203 125.83C93.2135 125.557 92.4844 125.355 92.1328 125.225L93.2852 121.787C94.9909 122.477 96.5143 123.239 97.8555 124.072C97.543 121.95 97.3867 120.218 97.3867 118.877H100.863C100.863 119.827 100.688 121.572 100.336 124.111C100.596 124.007 101.156 123.753 102.016 123.35C103.188 122.816 104.268 122.36 105.258 121.982L106.293 125.518C104.848 125.843 103.174 126.162 101.273 126.475L103.617 129.111C104.086 129.645 104.457 130.081 104.73 130.42L101.742 132.393L99.1055 128.037C98.3112 129.443 97.3997 130.941 96.3711 132.529ZM123.09 132.529L120.141 130.244C121.078 129.189 122.055 128.18 123.07 127.217C123.474 126.826 123.728 126.579 123.832 126.475C123.507 126.423 122.576 126.208 121.039 125.83C119.932 125.557 119.203 125.355 118.852 125.225L120.004 121.787C121.71 122.477 123.233 123.239 124.574 124.072C124.262 121.95 124.105 120.218 124.105 118.877H127.582C127.582 119.827 127.406 121.572 127.055 124.111C127.315 124.007 127.875 123.753 128.734 123.35C129.906 122.816 130.987 122.36 131.977 121.982L133.012 125.518C131.566 125.843 129.893 126.162 127.992 126.475L130.336 129.111C130.805 129.645 131.176 130.081 131.449 130.42L128.461 132.393L125.824 128.037C125.03 129.443 124.118 130.941 123.09 132.529ZM138.676 132.529L135.727 130.244C136.664 129.189 137.641 128.18 138.656 127.217C139.06 126.826 139.314 126.579 139.418 126.475C139.092 126.423 138.161 126.208 136.625 125.83C135.518 125.557 134.789 125.355 134.438 125.225L135.59 121.787C137.296 122.477 138.819 123.239 140.16 124.072C139.848 121.95 139.691 120.218 139.691 118.877H143.168C143.168 119.827 142.992 121.572 142.641 124.111C142.901 124.007 143.461 123.753 144.32 123.35C145.492 122.816 146.573 122.36 147.562 121.982L148.598 125.518C147.152 125.843 145.479 126.162 143.578 126.475L145.922 129.111C146.391 129.645 146.762 130.081 147.035 130.42L144.047 132.393L141.41 128.037C140.616 129.443 139.704 130.941 138.676 132.529ZM154.262 132.529L151.312 130.244C152.25 129.189 153.227 128.18 154.242 127.217C154.646 126.826 154.9 126.579 155.004 126.475C154.678 126.423 153.747 126.208 152.211 125.83C151.104 125.557 150.375 125.355 150.023 125.225L151.176 121.787C152.882 122.477 154.405 123.239 155.746 124.072C155.434 121.95 155.277 120.218 155.277 118.877H158.754C158.754 119.827 158.578 121.572 158.227 124.111C158.487 124.007 159.047 123.753 159.906 123.35C161.078 122.816 162.159 122.36 163.148 121.982L164.184 125.518C162.738 125.843 161.065 126.162 159.164 126.475L161.508 129.111C161.977 129.645 162.348 130.081 162.621 130.42L159.633 132.393L156.996 128.037C156.202 129.443 155.29 130.941 154.262 132.529ZM169.848 132.529L166.898 130.244C167.836 129.189 168.812 128.18 169.828 127.217C170.232 126.826 170.486 126.579 170.59 126.475C170.264 126.423 169.333 126.208 167.797 125.83C166.69 125.557 165.961 125.355 165.609 125.225L166.762 121.787C168.467 122.477 169.991 123.239 171.332 124.072C171.02 121.95 170.863 120.218 170.863 118.877H174.34C174.34 119.827 174.164 121.572 173.812 124.111C174.073 124.007 174.633 123.753 175.492 123.35C176.664 122.816 177.745 122.36 178.734 121.982L179.77 125.518C178.324 125.843 176.651 126.162 174.75 126.475L177.094 129.111C177.562 129.645 177.934 130.081 178.207 130.42L175.219 132.393L172.582 128.037C171.788 129.443 170.876 130.941 169.848 132.529Z" fill="white"/>
</svg>
