<svg width="372" height="122" viewBox="0 0 372 122" fill="none" xmlns="http://www.w3.org/2000/svg">
  <path d="M66.632 103.728H106.952V116.912H66.632V103.728ZM72.136 13.488H104.648V26.544H72.136V13.488ZM60.36 73.776H113.224V120.752H98.632V86.704H74.44V121.136H60.36V73.776ZM99.272 13.488H101.96L104.648 12.976L114.376 17.072C105.032 49.2 83.4 69.68 57.416 80.688C55.624 77.104 51.784 71.856 48.712 69.04C71.88 60.592 92.104 41.008 99.272 15.92V13.488ZM72.648 1.2L87.24 4.784C81.48 22.064 72.008 38.704 61.64 49.2C59.08 46.512 53.192 41.52 49.736 39.344C59.72 30.384 68.168 16.048 72.648 1.2ZM73.032 20.656C80.328 37.936 96.968 57.776 123.08 65.968C120.008 68.912 115.656 74.928 113.608 78.896C87.24 68.656 70.472 46.256 62.664 27.312L73.032 20.656ZM5.96 57.776H18.504V104.368H5.96V57.776ZM20.296 19.248V35.504H37.192V19.248H20.296ZM6.984 6.064H51.272V48.688H6.984V6.064ZM24.904 43.312H38.472V100.528H24.904V43.312ZM0.328 101.936C13.896 99.504 34.376 95.024 53.576 90.672L54.984 104.24C36.936 108.72 17.48 113.328 2.888 116.656L0.328 101.936ZM30.28 63.664H52.552V77.104H30.28V63.664ZM135.24 88.368C134.472 85.552 132.296 78.768 130.504 74.928C133.96 74.288 136.776 71.472 140.872 66.736C145.352 62.128 158.408 44.592 167.112 27.184L179.4 35.12C169.8 51.76 157.128 68.656 144.84 80.944V81.328C144.84 81.328 135.24 85.68 135.24 88.368ZM135.24 88.368L134.344 76.464L140.744 71.856L175.56 66.096C175.048 70.064 174.92 75.824 175.176 78.896C143.816 85.04 138.568 86.576 135.24 88.368ZM134.344 57.136C133.704 54.192 131.144 47.024 129.48 43.056C132.168 42.288 134.344 39.6 137.16 35.504C139.976 31.664 148.808 16.176 153.544 1.58399L167.752 8.368C161.352 22.96 151.752 38.576 142.536 49.456V49.84C142.536 49.84 134.344 54.448 134.344 57.136ZM134.344 57.136L133.96 46.384L140.36 42.16L163.528 40.496C162.632 44.336 162.12 49.712 161.992 52.784C141.256 54.96 136.904 55.856 134.344 57.136ZM131.016 101.04C141.896 98.224 158.664 92.976 174.664 87.984L176.968 100.528C162.248 105.776 146.632 111.28 134.216 115.632L131.016 101.04ZM180.168 30.768L241.224 21.552L243.784 34.992L182.728 44.72L180.168 30.768ZM177.48 58.416L244.68 46.256L247.112 59.696L179.912 72.24L177.48 58.416ZM198.088 0.815994H213.32C212.424 52.272 222.408 106.544 234.696 106.544C237.128 106.544 238.28 103.344 238.792 92.976C241.864 96.56 246.216 99.888 249.672 101.552C247.112 117.296 243.144 121.52 232.904 121.52C206.664 121.52 198.344 58.672 198.088 0.815994ZM215.368 10.544L224.328 2.48C229.576 5.55199 236.872 10.416 240.584 13.616L231.368 22.704C227.784 19.248 220.616 14 215.368 10.544ZM235.336 65.072L248.136 70.96C233.544 94 209.48 110 182.216 119.728C180.296 115.888 176.456 110.512 172.872 107.056C198.728 99.504 222.664 85.296 235.336 65.072ZM262.088 6.19199H371.912V121.648H356.552V20.016H276.808V121.648H262.088V6.19199ZM271.176 103.472H364.872V116.912H271.176V103.472ZM298.696 75.824L304.968 67.12C315.72 69.168 329.16 73.392 336.968 76.72L330.696 86.32C323.144 82.608 309.448 78.128 298.696 75.824ZM304.968 19.504L317.384 23.856C309.96 35.248 298.056 46.384 287.432 53.424C285.256 50.992 280.264 46.384 277.32 44.336C287.944 38.32 298.696 28.976 304.968 19.504ZM338.76 29.744H341.32L343.496 29.232L352.072 34.224C338.504 55.216 309.32 69.424 282.312 75.824C281.032 72.24 277.832 66.224 275.272 63.28C301 58.544 328.776 46.64 338.76 31.664V29.744ZM302.536 38.704C313.672 49.968 335.944 58.928 358.216 62.768C355.4 65.456 351.56 70.704 349.768 74.16C326.984 69.168 304.584 58.16 291.4 43.696L302.536 38.704ZM305.48 29.744H343.112V41.008H297.544L305.48 29.744ZM287.048 92.208L293.96 82.224C311.368 84.144 333 88.88 346.184 93.232L339.528 104.112C326.856 99.376 304.712 94.384 287.048 92.208Z" fill="#496D20"/>
</svg>
