<svg width="208" height="64" viewBox="0 0 208 64" fill="none" xmlns="http://www.w3.org/2000/svg">
  <path d="M46.8359 4.74219L48.8359 4.82031L49.9609 5.90625L50.7422 7.46875L49.1797 9.30469L47.0781 9.8125L45.625 9.03125L44.8359 7.21094L45.2734 5.63281L46.8359 4.74219ZM70.0547 6.53125L69.6328 10.7422L65.7266 12L60.5469 11.5781L60.2578 5.75L61.8203 1.0625H65.7266L70.1328 1.84375L67.6797 4.1875L63.8828 2.35156L61.8984 5.75L62.7266 9.92188L66.1484 10.1484L66.0469 7.85156L63.9141 7.60156L64.1484 6.14844L70.0547 6.53125ZM80.7891 12H77.6641L76.1016 8.875H74.5391L72.9766 12H70.6328L73.3203 1.07812L77.6641 1.10156L80.7891 12ZM76.8828 6.96875L75.0234 2.625L73.7578 6.96875H76.8828ZM81.2578 12L82.4609 1.0625H85.1641L87.5078 5.75L90.6328 1.0625H93.7578L93.5234 12H89.5L89.8516 6.8125L87.2344 9.89844L84.8125 6.53125L83.6016 12H81.2578ZM94.8203 12V1.0625L101.852 0.28125V2.625L96.7891 3.40625L96.6641 4.96875H101.852V6.98438L97.1641 7.3125V9.4375L101.852 9.3125V11.5781L94.8203 12ZM107.633 1.0625L112.844 0.984375L114.664 4.1875L114.242 8.39062L109.648 8.59375L109.094 12L106.852 12.0781L107.633 1.0625ZM110.109 2.97656L109.742 6.32812L112.148 5.96875L112.398 4.10938L110.109 2.97656ZM115.68 1.21875H117.711L118.18 6.6875L122.867 6.45312L122.367 0.984375H125.531C125.745 0.984375 126.068 4.51562 126.5 11.5781L123.648 11.6797L123.188 8.01562L118.18 8.25L118.406 11.8125L116.102 12.1562L115.68 1.21875ZM137.289 12H134.164L132.602 8.875H131.039L129.477 12H127.133L129.82 1.07812L134.164 1.10156L137.289 12ZM133.383 6.96875L131.523 2.625L130.258 6.96875H133.383ZM144.023 4.96875H140.984L145.258 8.09375L144.938 11.6797L141.352 12L137.703 11.5781L139.008 8.64844L140.883 9.65625H142.594L141.352 8.09375L138.227 6.10156L138.008 3.17188L139.789 1.30469L142.914 1.35938L145.258 2.40625L144.023 4.96875ZM146.352 12V1.0625L153.383 0.28125V2.625L148.32 3.40625L148.195 4.96875H153.383V6.98438L148.695 7.3125V9.4375L153.383 9.3125V11.5781L146.352 12ZM158.867 1.0625H161.836L161.945 12H158.867V1.0625ZM163.555 1.0625H166.523L166.633 12H163.555V1.0625ZM2.55469 22.7422L4.55469 22.8203L5.67969 23.9062L6.46094 25.4688L4.89844 27.3047L2.79688 27.8125L1.34375 27.0312L0.554688 25.2109L0.992188 23.6328L2.55469 22.7422ZM16.0547 19.0625L18.3984 20.0703L18.0547 27.3594L23.0859 27.6562L23.6328 30L16.0547 30.0781V19.0625ZM34.3984 30H31.2734L29.7109 26.875H28.1484L26.5859 30H24.2422L26.9297 19.0781L31.2734 19.1016L34.3984 30ZM30.4922 24.9688L28.6328 20.625L27.3672 24.9688H30.4922ZM39.7891 30L36.6641 29.2188L35.4922 27.4141L35.1016 19.0625H38.2266V27.1016L39.7891 28.2812L42.9141 27.5L42.3984 19.0625H45.2578V27.6562L42.9141 29.7578L39.7891 30ZM55.9766 30H53.2891V28.4375L49.6797 22.9688L49.0703 30H46.2578L47.0391 19.0625H50.1641L53.2891 26.875L54.3203 19.0625H56.4141L55.9766 30ZM64.3203 30H59.7031L57.5156 27.3125C57.4427 27.3021 57.4062 27.0755 57.4062 26.6328C57.4062 25.7526 57.5495 24.0104 57.8359 21.4062L59.9609 19.0625H63.6016L66.7422 20.625L65.2344 22.9688L62.2578 21.7031L59.3984 24.8125L61.9766 27.9219L66.0547 26.0938L67.4766 27.6562L64.3203 30ZM68.3828 19.2188H70.4141L70.8828 24.6875L75.5703 24.4531L75.0703 18.9844H78.2344C78.4479 18.9844 78.7708 22.5156 79.2031 29.5781L76.3516 29.6797L75.8906 26.0156L70.8828 26.25L71.1094 29.8125L68.8047 30.1562L68.3828 19.2188ZM80.6328 19.0625H83.6016L83.7109 30H80.6328V19.0625ZM94.3984 30H91.7109V28.4375L88.1016 22.9688L87.4922 30H84.6797L85.4609 19.0625H88.5859L91.7109 26.875L92.7422 19.0625H94.8359L94.3984 30ZM105.664 24.5312L105.242 28.7422L101.336 30L96.1562 29.5781L95.8672 23.75L97.4297 19.0625H101.336L105.742 19.8438L103.289 22.1875L99.4922 20.3516L97.5078 23.75L98.3359 27.9219L101.758 28.1484L101.656 25.8516L99.5234 25.6016L99.7578 24.1484L105.664 24.5312ZM117.766 30H113.156L113.492 21.8594L110.445 21.6562V19.0625H119.664V21.7031L116.617 22.1875L117.766 30ZM120.617 19.2188H122.648L123.117 24.6875L127.805 24.4531L127.305 18.9844H130.469C130.682 18.9844 131.005 22.5156 131.438 29.5781L128.586 29.6797L128.125 26.0156L123.117 26.25L123.344 29.8125L121.039 30.1562L120.617 19.2188ZM132.461 30V19.0625L139.492 18.2812V20.625L134.43 21.4062L134.305 22.9688H139.492V24.9844L134.805 25.3125V27.4375L139.492 27.3125V29.5781L132.461 30ZM144.977 19.0625H147.945L148.055 30H144.977V19.0625ZM158.742 30H156.055V28.4375L152.445 22.9688L151.836 30H149.023L149.805 19.0625H152.93L156.055 26.875L157.086 19.0625H159.18L158.742 30ZM160.07 23.5781L164.102 23.5L164.352 25.5547L160.227 25.8047L160.07 23.5781ZM175.242 24.5312L174.82 28.7422L170.914 30L165.734 29.5781L165.445 23.75L167.008 19.0625H170.914L175.32 19.8438L172.867 22.1875L169.07 20.3516L167.086 23.75L167.914 27.9219L171.336 28.1484L171.234 25.8516L169.102 25.6016L169.336 24.1484L175.242 24.5312ZM185.977 30H182.852L181.289 26.875H179.727L178.164 30H175.82L178.508 19.0781L182.852 19.1016L185.977 30ZM182.07 24.9688L180.211 20.625L178.945 24.9688H182.07ZM186.445 30L187.648 19.0625H190.352L192.695 23.75L195.82 19.0625H198.945L198.711 30H194.688L195.039 24.8125L192.422 27.8984L190 24.5312L188.789 30H186.445ZM200.008 30V19.0625L207.039 18.2812V20.625L201.977 21.4062L201.852 22.9688H207.039V24.9844L202.352 25.3125V27.4375L207.039 27.3125V29.5781L200.008 30ZM95.9453 48H91.3359L91.6719 39.8594L88.625 39.6562V37.0625H97.8438V39.7031L94.7969 40.1875L95.9453 48ZM100.562 37.0078L105.297 37.3047L108.453 38.5859L108.992 42.0156L108.727 46.4766L105.297 48.0547L100.289 47.8125L98.5078 44.1094V40.1641L100.562 37.0078ZM102.664 39.1797L100.781 41.7969L101.844 45.4688L104.789 45.8359L106.656 44L106.398 40.0859L102.664 39.1797ZM118.406 48L112.5 43.8047L112.156 48H110.156L109.812 37.0625H111.375L112.5 42.0469L115.281 37.0625H119.188C119.219 37.0625 119.234 37.0807 119.234 37.1172C119.234 37.4818 117.917 39.5469 115.281 43.3125L119.188 46.4375L118.406 48ZM120.219 48V37.0625L127.25 36.2812V38.625L122.188 39.4062L122.062 40.9688H127.25V42.9844L122.562 43.3125V45.4375L127.25 45.3125V47.5781L120.219 48ZM137.844 48H135.156V46.4375L131.547 40.9688L130.938 48H128.125L128.906 37.0625H132.031L135.156 44.875L136.188 37.0625H138.281L137.844 48ZM74.6406 58.7422L76.6406 58.8203L77.7656 59.9062L78.5469 61.4688L76.9844 63.3047L74.8828 63.8125L73.4297 63.0312L72.6406 61.2109L73.0781 59.6328L74.6406 58.7422ZM91.4062 55L90.8125 52.9141H92.8281L92.2656 54.6797L94.2344 54.1406L94.8438 55.8594H92.7734L94.3125 57.8828L92.7734 58.7969L91.7891 56.7188L90.0234 58.4375L88.8281 57.1719L91.0859 56.2188L88.3438 55.6094L88.8281 53.8125L91.4062 55ZM99.4062 55L98.8125 52.9141H100.828L100.266 54.6797L102.234 54.1406L102.844 55.8594H100.773L102.312 57.8828L100.773 58.7969L99.7891 56.7188L98.0234 58.4375L96.8281 57.1719L99.0859 56.2188L96.3438 55.6094L96.8281 53.8125L99.4062 55ZM111.375 55L110.781 52.9141H112.797L112.234 54.6797L114.203 54.1406L114.812 55.8594H112.742L114.281 57.8828L112.742 58.7969L111.758 56.7188L109.992 58.4375L108.797 57.1719L111.055 56.2188L108.312 55.6094L108.797 53.8125L111.375 55ZM119.375 55L118.781 52.9141H120.797L120.234 54.6797L122.203 54.1406L122.812 55.8594H120.742L122.281 57.8828L120.742 58.7969L119.758 56.7188L117.992 58.4375L116.797 57.1719L119.055 56.2188L116.312 55.6094L116.797 53.8125L119.375 55ZM127.375 55L126.781 52.9141H128.797L128.234 54.6797L130.203 54.1406L130.812 55.8594H128.742L130.281 57.8828L128.742 58.7969L127.758 56.7188L125.992 58.4375L124.797 57.1719L127.055 56.2188L124.312 55.6094L124.797 53.8125L127.375 55ZM135.375 55L134.781 52.9141H136.797L136.234 54.6797L138.203 54.1406L138.812 55.8594H136.742L138.281 57.8828L136.742 58.7969L135.758 56.7188L133.992 58.4375L132.797 57.1719L135.055 56.2188L132.312 55.6094L132.797 53.8125L135.375 55Z" fill="white"/>
</svg>
