<svg width="482" height="153" viewBox="0 0 482 153" fill="none" xmlns="http://www.w3.org/2000/svg">
  <path d="M11.8203 22.8574C11.8203 24.459 11.2539 25.8262 10.1211 26.959C9.0013 28.0788 7.64714 28.6387 6.05859 28.6387C4.45703 28.6387 3.08984 28.0723 1.95703 26.9395C0.83724 25.8066 0.277344 24.446 0.277344 22.8574C0.277344 21.2689 0.83724 19.9147 1.95703 18.7949C3.08984 17.6621 4.45703 17.0957 6.05859 17.0957C7.64714 17.0957 9.0013 17.6556 10.1211 18.7754C11.2539 19.8952 11.8203 21.2559 11.8203 22.8574ZM38.52 6.87805L41.2 3.39805C43.4 4.31805 46.2 5.87804 47.56 7.15804L44.72 10.958C43.48 9.67805 40.68 7.91804 38.52 6.87805ZM37.08 17.598L39.72 14.038C41.96 14.878 44.8 16.358 46.16 17.558L43.4 21.438C42.08 20.198 39.32 18.558 37.08 17.598ZM37.52 37.798C38.96 34.558 40.92 29.438 42.36 24.678L46.28 27.078C45 31.438 43.4 36.158 41.88 40.118L37.52 37.798ZM62.88 7.75805H74.76V12.318H62.88V7.75805ZM62.28 15.318H72.16V19.478H62.28V15.318ZM60.6 24.838H74.84V29.158H60.6V24.838ZM62.72 3.07804L67.28 3.87804C66.4 9.15805 64.68 14.358 62.52 17.638C61.64 16.958 59.56 15.798 58.44 15.278C60.64 12.398 62 7.71804 62.72 3.07804ZM65.56 21.478H70V35.838C70 37.998 69.64 39.198 68.2 39.918C66.76 40.598 64.8 40.678 62.12 40.678C62 39.398 61.4 37.558 60.88 36.278C62.52 36.358 64.32 36.358 64.88 36.358C65.4 36.358 65.56 36.238 65.56 35.758V21.478ZM70.28 15.318H71.28L72.12 15.038L74.92 17.038C73.32 19.798 71.04 22.918 69 24.958C68.4 24.078 67.12 22.758 66.4 22.118C67.88 20.558 69.52 17.878 70.28 16.118V15.318ZM46.32 8.79805H60.48V13.358H46.32V8.79805ZM50.8 17.758H57.6V22.118H50.8V17.758ZM51.32 3.11804H55.92V11.998H51.32V3.11804ZM55.84 17.758H60.16C60.16 17.758 60.16 19.078 60.12 19.638C59.72 32.438 59.32 37.238 58.24 38.718C57.44 39.798 56.68 40.198 55.6 40.398C54.68 40.598 53.24 40.598 51.68 40.558C51.6 39.238 51.2 37.438 50.52 36.278C51.72 36.358 52.72 36.398 53.28 36.398C53.8 36.398 54.12 36.278 54.44 35.798C55.12 34.838 55.52 30.678 55.84 18.598V17.758ZM49.24 12.158H53.64C53.4 22.958 52.8 33.838 47.04 40.518C46.32 39.478 44.96 38.118 43.8 37.398C48.88 31.598 49.08 21.718 49.24 12.158ZM77.72 7.31805H89.8V11.558H77.72V7.31805ZM88.72 7.31805H89.56L90.36 7.15804L93.44 8.19805C91.76 21.558 87.28 31.878 80.24 37.878C79.48 36.678 77.92 34.838 76.76 33.998C83.04 29.278 87.4 19.078 88.72 8.35805V7.31805ZM77.56 15.998L80.84 13.238C85.36 18.958 91.48 26.678 94.16 31.558L90.44 34.958C87.92 29.958 82.08 21.918 77.56 15.998ZM93.04 14.198L113.68 11.758L114.24 16.078L93.64 18.598L93.04 14.198ZM104 5.71804L107.4 3.19805C109.12 4.83805 111.56 7.15804 112.72 8.67805L109.08 11.518C108.04 9.95804 105.68 7.47805 104 5.71804ZM96.96 3.27804H101.96C102.12 20.558 104.12 33.798 109 34.598C109.92 34.678 110.36 32.718 110.64 28.478C111.56 29.518 113.76 30.878 114.68 31.358C113.64 38.958 111.44 40.718 109.24 40.558C99.6 39.518 97.52 25.478 96.96 3.27804ZM109.16 17.398L113 19.678C109.72 27.598 103.2 35.358 96 39.198C95.08 38.038 93.56 36.558 92.2 35.638C99.72 32.318 106.12 24.918 109.16 17.398ZM133.12 20.998C136.56 29.158 143.8 34.438 155.12 36.318C154.12 37.318 152.8 39.358 152.12 40.678C140.28 38.238 133.24 32.158 129 22.198L133.12 20.998ZM146.12 19.398H147.08L148 19.198L151.32 20.718C147.64 32.158 138.92 37.838 128 40.638C127.48 39.358 126.36 37.478 125.44 36.438C135.24 34.358 143.36 29.078 146.12 20.198V19.398ZM131.64 19.398H146.84V23.998H130.24L131.64 19.398ZM133.6 2.75804L138.96 3.63804C136.88 19.518 132.24 30.838 120.28 37.518C119.64 36.478 117.92 34.518 116.76 33.638C127.56 27.838 131.88 17.038 133.6 2.75804ZM142.68 5.39805L146.44 3.15805C147.96 4.83805 150.2 7.19804 151.24 8.63804L147.36 11.158C146.36 9.67805 144.24 7.19804 142.68 5.39805ZM121.32 16.998C121.04 15.998 120.28 13.838 119.76 12.678C120.36 12.478 120.96 11.918 121.48 10.998C121.96 10.158 123.52 7.03805 124.28 3.87804L129.32 4.67805C128.32 8.19805 126.4 12.038 124.96 14.358V14.438C124.96 14.438 121.32 15.998 121.32 16.998ZM121.32 16.998V13.478L124.16 11.518H153.8L153.76 16.078H125.52C123.4 16.078 121.68 16.398 121.32 16.998ZM158.12 8.71805H193.96V13.318H158.12V8.71805ZM175.64 14.798H180.52V40.598H175.64V14.798ZM164.52 19.398H189.24V23.918H169.32V37.038H164.52V19.398ZM187.16 19.398H192.04V31.878C192.04 34.078 191.56 35.318 190 36.038C188.44 36.718 186.28 36.758 183.28 36.758C183.08 35.438 182.36 33.598 181.76 32.398C183.6 32.478 185.76 32.478 186.32 32.478C186.96 32.438 187.16 32.278 187.16 31.798V19.398ZM170.96 2.95805L175.92 4.07805C173 13.918 168 23.878 159.44 29.838C158.8 28.638 157.56 26.678 156.68 25.598C164.2 20.638 168.84 11.358 170.96 2.95805Z" fill="white"/>
  <path d="M75.8203 76.8574C75.8203 78.459 75.2539 79.8262 74.1211 80.959C73.0013 82.0788 71.6471 82.6387 70.0586 82.6387C68.457 82.6387 67.0898 82.0723 65.957 80.9395C64.8372 79.8066 64.2773 78.446 64.2773 76.8574C64.2773 75.2689 64.8372 73.9147 65.957 72.7949C67.0898 71.6621 68.457 71.0957 70.0586 71.0957C71.6471 71.0957 73.0013 71.6556 74.1211 72.7754C75.2539 73.8952 75.8203 75.2559 75.8203 76.8574ZM106 57.118L110.28 58.398C108.68 63.038 106.04 67.918 103 70.958C102.68 69.918 101.48 67.398 100.76 66.278C103 64.038 104.92 60.638 106 57.118ZM106.08 60.878H114.48V65.278H105.32L106.08 60.878ZM105.92 94.638L105 90.358L106.16 88.838L113.48 84.078C113.72 85.358 114.24 87.238 114.64 88.238C107.92 92.838 106.6 93.798 105.92 94.638ZM103.12 68.398H113.88V72.678H103.12V68.398ZM102.08 76.958H114.72V81.238H102.08V76.958ZM115.68 60.358H137.6V64.198H115.68V60.358ZM114.6 71.878H138.68V75.878H114.6V71.878ZM121.32 78.638H138V82.678H121.32V78.638ZM116.6 66.078H136.56V69.878H116.6V66.078ZM131.08 76.558H135.56V89.998C135.56 92.118 135.2 93.238 133.72 93.878C132.24 94.518 130.32 94.598 127.6 94.598C127.4 93.358 126.76 91.638 126.2 90.478C127.92 90.558 129.8 90.558 130.36 90.518C130.92 90.518 131.08 90.398 131.08 89.918V76.558ZM121.96 85.118L125.36 82.958C126.8 84.438 128.6 86.518 129.4 87.918L125.8 90.318C125.12 88.878 123.44 86.718 121.96 85.118ZM123.4 57.038L128.08 57.278C126.96 73.238 124.24 85.278 116.32 92.718C115.64 91.878 113.56 90.158 112.48 89.398C120.2 83.078 122.56 71.678 123.4 57.038ZM105.92 94.638C105.56 93.518 104.56 91.598 103.8 90.678C104.68 90.118 105.88 88.918 105.88 87.078V69.878H110.2V90.438C110.2 90.438 105.92 93.038 105.92 94.638ZM157.6 61.558H176.6V65.638H157.6V61.558ZM152.36 68.998H178.24V72.998H152.36V68.998ZM157.04 57.438L161.48 58.438C160.12 62.558 157.76 66.518 155.36 69.078C154.44 68.358 152.44 67.278 151.32 66.758C153.84 64.518 155.88 60.958 157.04 57.438ZM163.08 57.038H167.84V71.678H163.08V57.038ZM151.08 72.638V87.358H146.4V77.078H141.72V72.638H151.08ZM151.08 85.278C152.68 87.918 155.72 89.078 159.88 89.238C164.56 89.438 173.64 89.318 179.04 88.878C178.52 89.998 177.72 92.318 177.52 93.758C172.68 93.998 164.6 94.078 159.8 93.878C154.88 93.678 151.56 92.518 148.96 89.398C147.2 90.958 145.4 92.478 143.24 94.238L140.88 89.238C142.68 88.118 144.84 86.718 146.68 85.278H151.08ZM141.8 60.838L145.36 57.958C147.76 59.638 150.68 62.158 152.08 64.038L148.24 67.198C147.04 65.318 144.16 62.638 141.8 60.838ZM160.28 78.998V83.078H170.84V78.998H160.28ZM155.6 75.198H175.84V86.918H155.6V75.198ZM189.72 75.918H210.2V79.598H189.72V75.918ZM189.72 82.198H210.2V85.838H189.72V82.198ZM189.72 88.558H210.24V92.718H189.72V88.558ZM181.92 62.398H218.2V66.838H181.92V62.398ZM185.84 69.318H213.92V94.598H208.92V73.478H190.64V94.598H185.84V69.318ZM197.52 65.038L203.6 65.198C202.68 67.758 201.4 70.158 200.48 71.878L195.8 71.318C196.52 69.478 197.2 66.918 197.52 65.038ZM206.88 56.918L212.4 58.118C210.84 60.438 209.08 62.638 207.72 64.118L203.44 62.918C204.68 61.238 206.08 58.758 206.88 56.918ZM188.16 58.638L192.44 56.758C193.96 58.158 195.56 60.118 196.4 61.478L191.92 63.798C191.24 62.398 189.6 60.198 188.16 58.638ZM239.84 62.118C236.6 67.078 230.36 72.758 223.6 76.598C222.92 75.438 221.52 73.638 220.44 72.638C227.56 68.918 234.08 62.318 237 57.118H242.2C246.52 63.718 253.08 69.238 259.68 72.118C258.4 73.358 257.32 74.998 256.4 76.518C249.96 72.958 243.2 67.078 239.84 62.118ZM237.28 70.678H242.4V94.598H237.28V70.678ZM262.969 90.998V62.3652H268.594L280.312 81.4863V62.3652H285.684V90.998H279.883L268.34 72.3262V90.998H262.969ZM291.855 90.998V62.3652H311.484V67.209H297.637V73.9863H309.59V78.8301H297.637V90.998H291.855ZM322.715 90.998V67.209H314.219V62.3652H336.973V67.209H328.496V90.998H322.715ZM347.613 83.718L352.613 85.598C350.133 88.718 346.253 92.038 343.133 94.078C342.133 93.118 340.053 91.518 338.773 90.758C342.053 89.078 345.573 86.318 347.613 83.718ZM362.533 86.238L366.573 83.518C369.733 85.558 374.013 88.678 376.133 90.878L371.773 93.958C369.933 91.798 365.813 88.478 362.533 86.238ZM342.573 69.758L345.893 66.678C349.213 68.558 353.653 71.558 355.813 73.798L352.213 77.278C350.253 75.038 346.013 71.838 342.573 69.758ZM363.373 74.718L367.293 72.238C370.573 74.958 374.773 78.918 376.773 81.678L372.453 84.518C370.693 81.798 366.653 77.638 363.373 74.718ZM355.133 80.158H360.253V94.598H355.133V80.158ZM339.613 77.958C347.733 77.878 360.533 77.598 372.053 77.358L371.813 81.678C360.453 82.198 348.253 82.558 340.093 82.758L339.613 77.958ZM363.493 64.038L368.173 66.518C362.973 71.838 356.053 77.518 350.653 81.118L346.853 78.638C352.333 74.998 359.253 68.958 363.493 64.038ZM353.373 61.278L358.093 63.558C355.573 66.478 352.493 69.598 350.133 71.558L346.213 69.438C348.573 67.358 351.613 63.958 353.373 61.278ZM370.093 57.398L373.493 61.478C364.613 63.278 352.373 64.078 341.973 64.198C341.853 62.958 341.293 60.998 340.853 59.878C351.173 59.678 362.933 58.878 370.093 57.398ZM400.933 61.518H405.653V83.598H400.933V61.518ZM410.253 57.798H415.013V88.878C415.013 91.598 414.453 92.918 412.893 93.678C411.213 94.438 408.733 94.598 405.133 94.598C404.893 93.238 404.213 91.118 403.533 89.798C405.933 89.878 408.453 89.838 409.213 89.838C409.973 89.838 410.253 89.598 410.253 88.878V57.798ZM385.853 67.718H396.133V72.078H385.853V67.718ZM379.973 58.838H399.852V63.278H379.973V58.838ZM383.413 78.278L385.653 74.718C387.973 76.038 391.213 78.038 392.773 79.358L390.373 83.398C388.893 81.958 385.733 79.798 383.413 78.278ZM394.453 67.718H395.373L396.173 67.558L399.173 68.558C397.173 81.798 391.813 90.438 384.453 94.718C383.733 93.678 381.933 91.918 380.853 91.198C388.053 87.398 392.893 79.998 394.453 68.678V67.718ZM386.573 61.278L391.373 62.198C389.533 69.118 386.533 76.878 381.733 81.598C380.893 80.678 379.333 79.238 378.333 78.478C382.653 74.358 385.373 67.158 386.573 61.278Z" fill="white"/>
  <path d="M139.82 129.857C139.82 131.459 139.254 132.826 138.121 133.959C137.001 135.079 135.647 135.639 134.059 135.639C132.457 135.639 131.09 135.072 129.957 133.939C128.837 132.807 128.277 131.446 128.277 129.857C128.277 128.269 128.837 126.915 129.957 125.795C131.09 124.662 132.457 124.096 134.059 124.096C135.647 124.096 137.001 124.656 138.121 125.775C139.254 126.895 139.82 128.256 139.82 129.857ZM166.969 143.998V115.365H172.594L184.312 134.486V115.365H189.684V143.998H183.883L172.34 125.326V143.998H166.969ZM195.855 143.998V115.365H215.484V120.209H201.637V126.986H213.59V131.83H201.637V143.998H195.855ZM226.715 143.998V120.209H218.219V115.365H240.973V120.209H232.496V143.998H226.715ZM263.013 141.358L265.253 137.838C270.453 139.318 276.093 141.678 279.333 143.598L276.453 147.398C273.373 145.318 268.133 142.918 263.013 141.358ZM258.173 110.998L263.013 109.518C264.093 111.198 265.293 113.438 265.733 114.998L260.653 116.598C260.253 115.158 259.173 112.758 258.173 110.998ZM244.853 113.798H278.853V122.958H273.813V118.278H249.653V122.958H244.853V113.798ZM261.133 119.958H266.173C265.693 134.198 264.653 143.358 247.533 147.558C247.053 146.278 245.853 144.438 244.813 143.398C260.533 139.958 260.733 132.638 261.133 119.958ZM244.493 133.038H279.333V137.078H244.493V133.038ZM251.053 122.198L253.853 119.078C255.933 120.158 258.573 121.838 259.813 123.238L256.813 126.678C255.693 125.318 253.133 123.398 251.053 122.198ZM246.973 128.238L249.733 124.998C251.853 125.998 254.493 127.638 255.813 128.958L252.933 132.518C251.733 131.198 249.093 129.358 246.973 128.238ZM303.533 115.118H320.053V119.478H303.533V115.118ZM308.453 120.438H312.453V140.278H308.453V120.438ZM303.933 109.998L308.653 110.958C307.253 116.638 304.813 121.998 301.693 125.398C300.933 124.518 299.133 122.758 298.093 121.998C300.893 119.198 302.893 114.718 303.933 109.998ZM298.693 130.718L316.173 122.638L317.813 126.558L300.373 134.678L298.693 130.718ZM302.012 123.358H306.293V141.598C306.293 143.278 306.573 143.518 308.573 143.518C309.453 143.518 313.613 143.518 314.733 143.518C316.333 143.518 316.653 142.838 316.853 139.278C317.813 139.958 319.573 140.638 320.773 140.918C320.253 145.998 318.973 147.518 315.093 147.518C313.973 147.518 309.133 147.518 308.093 147.518C303.293 147.518 302.012 146.198 302.012 141.558V123.358ZM314.933 123.478H314.613L315.453 122.878L316.213 122.398L319.173 123.438L318.973 124.078C318.973 129.798 318.973 133.838 318.853 135.078C318.773 136.558 318.213 137.398 317.133 137.838C316.173 138.278 314.853 138.318 313.813 138.318C313.693 137.238 313.373 135.678 312.933 134.798C313.413 134.838 313.973 134.838 314.293 134.838C314.613 134.838 314.813 134.758 314.853 134.278C314.933 133.758 314.933 130.038 314.933 123.478ZM283.293 116.158H300.333V120.598H283.293V116.158ZM289.533 124.878H296.013V129.238H289.533V124.878ZM289.493 110.078H294.093V117.598H289.493V110.078ZM287.213 118.838H291.733C291.533 130.038 291.013 140.838 286.173 147.558C285.373 146.438 283.933 144.958 282.733 144.238C286.933 138.398 287.092 128.758 287.213 118.838ZM294.493 124.878H298.813C298.813 124.878 298.813 126.198 298.813 126.718C298.613 139.558 298.413 144.278 297.413 145.718C296.653 146.838 295.893 147.238 294.773 147.438C293.813 147.638 292.293 147.638 290.653 147.598C290.573 146.318 290.133 144.518 289.493 143.358C290.733 143.478 291.812 143.478 292.413 143.478C292.893 143.478 293.253 143.398 293.572 142.878C294.133 141.998 294.333 137.838 294.493 125.758V124.878ZM323.453 112.558H343.852V116.838H323.453V112.558ZM324.653 131.598H342.613V135.878H324.653V131.598ZM331.293 127.718H336.053V142.798L331.293 143.518V127.718ZM323.013 141.878C328.333 141.398 336.453 140.438 343.933 139.558L344.053 144.038C336.893 144.998 329.213 145.998 323.733 146.678L323.013 141.878ZM323.373 122.878C327.973 122.798 334.933 122.598 341.613 122.358L341.493 126.478C335.133 126.838 328.453 127.118 323.653 127.318L323.373 122.878ZM335.653 119.398L339.213 117.518C341.453 120.238 344.013 123.918 345.013 126.438L341.213 128.598C340.293 126.118 337.853 122.238 335.653 119.398ZM329.133 115.158L334.333 116.238C332.933 119.638 331.373 123.478 330.053 125.958L326.013 124.878C327.173 122.238 328.493 118.118 329.133 115.158ZM345.332 114.918H349.933V137.558H345.332V114.918ZM354.453 111.158H359.133V141.878C359.133 144.598 358.613 145.918 357.013 146.678C355.413 147.438 352.813 147.598 349.413 147.598C349.213 146.238 348.533 144.078 347.853 142.718C350.253 142.838 352.693 142.798 353.493 142.798C354.213 142.758 354.453 142.558 354.453 141.838V111.158ZM364.333 113.878L367.013 110.398C369.213 111.318 372.013 112.878 373.373 114.158L370.533 117.958C369.293 116.678 366.493 114.918 364.333 113.878ZM362.893 124.598L365.533 121.038C367.773 121.878 370.613 123.358 371.973 124.558L369.213 128.438C367.893 127.198 365.133 125.558 362.893 124.598ZM363.333 144.798C364.773 141.558 366.733 136.438 368.173 131.678L372.092 134.078C370.813 138.438 369.213 143.158 367.692 147.118L363.333 144.798ZM388.693 114.758H400.573V119.318H388.693V114.758ZM388.093 122.318H397.973V126.478H388.093V122.318ZM386.413 131.838H400.653V136.158H386.413V131.838ZM388.533 110.078L393.093 110.878C392.213 116.158 390.493 121.358 388.333 124.638C387.453 123.958 385.373 122.798 384.253 122.278C386.453 119.398 387.813 114.718 388.533 110.078ZM391.373 128.478H395.813V142.838C395.813 144.998 395.453 146.198 394.013 146.918C392.573 147.598 390.613 147.678 387.933 147.678C387.813 146.398 387.213 144.558 386.693 143.278C388.333 143.358 390.133 143.358 390.693 143.358C391.213 143.358 391.373 143.238 391.373 142.758V128.478ZM396.093 122.318H397.093L397.933 122.038L400.733 124.038C399.133 126.798 396.853 129.918 394.813 131.958C394.213 131.078 392.933 129.758 392.213 129.118C393.693 127.558 395.333 124.878 396.093 123.118V122.318ZM372.133 115.798H386.293V120.358H372.133V115.798ZM376.613 124.758H383.413V129.118H376.613V124.758ZM377.133 110.118H381.733V118.998H377.133V110.118ZM381.653 124.758H385.973C385.973 124.758 385.973 126.078 385.933 126.638C385.533 139.438 385.133 144.238 384.053 145.718C383.253 146.798 382.493 147.198 381.413 147.398C380.493 147.598 379.053 147.598 377.493 147.558C377.413 146.238 377.013 144.438 376.333 143.278C377.533 143.358 378.533 143.398 379.093 143.398C379.613 143.398 379.933 143.278 380.253 142.798C380.933 141.838 381.333 137.678 381.653 125.598V124.758ZM375.053 119.158H379.453C379.213 129.958 378.613 140.838 372.853 147.518C372.133 146.478 370.773 145.118 369.613 144.398C374.693 138.598 374.893 128.718 375.053 119.158ZM403.533 114.318H415.613V118.558H403.533V114.318ZM414.533 114.318H415.373L416.173 114.158L419.253 115.198C417.573 128.558 413.093 138.878 406.053 144.878C405.293 143.678 403.733 141.838 402.573 140.998C408.853 136.278 413.213 126.078 414.533 115.358V114.318ZM403.373 122.998L406.653 120.238C411.173 125.958 417.293 133.678 419.973 138.558L416.253 141.958C413.733 136.958 407.893 128.918 403.373 122.998ZM418.853 121.198L439.493 118.758L440.053 123.078L419.453 125.598L418.853 121.198ZM429.813 112.718L433.213 110.198C434.933 111.838 437.373 114.158 438.533 115.678L434.893 118.518C433.853 116.958 431.493 114.478 429.813 112.718ZM422.773 110.278H427.773C427.933 127.558 429.933 140.798 434.813 141.598C435.733 141.678 436.173 139.718 436.453 135.478C437.373 136.518 439.573 137.878 440.493 138.358C439.453 145.958 437.253 147.718 435.053 147.558C425.413 146.518 423.333 132.478 422.773 110.278ZM434.973 124.398L438.813 126.678C435.533 134.598 429.013 142.358 421.812 146.198C420.893 145.038 419.373 143.558 418.013 142.638C425.533 139.318 431.933 131.918 434.973 124.398ZM445.293 116.998H478.373V137.078H473.333V121.718H450.133V137.278H445.293V116.998ZM447.813 130.318H476.133V135.038H447.813V130.318ZM459.173 110.038H464.253V147.598H459.173V110.038Z" fill="white"/>
</svg>
