<svg width="355" height="131" viewBox="0 0 355 131" fill="none" xmlns="http://www.w3.org/2000/svg">
  <path d="M11.8203 20.8574C11.8203 22.459 11.2539 23.8262 10.1211 24.959C9.0013 26.0788 7.64714 26.6387 6.05859 26.6387C4.45703 26.6387 3.08984 26.0723 1.95703 24.9395C0.83724 23.8066 0.277344 22.446 0.277344 20.8574C0.277344 19.2689 0.83724 17.9147 1.95703 16.7949C3.08984 15.6621 4.45703 15.0957 6.05859 15.0957C7.64714 15.0957 9.0013 15.6556 10.1211 16.7754C11.2539 17.8952 11.8203 19.2559 11.8203 20.8574ZM38.52 4.87805L41.2 1.39805C43.4 2.31805 46.2 3.87804 47.56 5.15804L44.72 8.95805C43.48 7.67805 40.68 5.91804 38.52 4.87805ZM37.08 15.598L39.72 12.038C41.96 12.878 44.8 14.358 46.16 15.558L43.4 19.438C42.08 18.198 39.32 16.558 37.08 15.598ZM37.52 35.798C38.96 32.558 40.92 27.438 42.36 22.678L46.28 25.078C45 29.438 43.4 34.158 41.88 38.118L37.52 35.798ZM62.88 5.75805H74.76V10.318H62.88V5.75805ZM62.28 13.318H72.16V17.478H62.28V13.318ZM60.6 22.838H74.84V27.158H60.6V22.838ZM62.72 1.07804L67.28 1.87804C66.4 7.15805 64.68 12.358 62.52 15.638C61.64 14.958 59.56 13.798 58.44 13.278C60.64 10.398 62 5.71804 62.72 1.07804ZM65.56 19.478H70V33.838C70 35.998 69.64 37.198 68.2 37.918C66.76 38.598 64.8 38.678 62.12 38.678C62 37.398 61.4 35.558 60.88 34.278C62.52 34.358 64.32 34.358 64.88 34.358C65.4 34.358 65.56 34.238 65.56 33.758V19.478ZM70.28 13.318H71.28L72.12 13.038L74.92 15.038C73.32 17.798 71.04 20.918 69 22.958C68.4 22.078 67.12 20.758 66.4 20.118C67.88 18.558 69.52 15.878 70.28 14.118V13.318ZM46.32 6.79805H60.48V11.358H46.32V6.79805ZM50.8 15.758H57.6V20.118H50.8V15.758ZM51.32 1.11804H55.92V9.99805H51.32V1.11804ZM55.84 15.758H60.16C60.16 15.758 60.16 17.078 60.12 17.638C59.72 30.438 59.32 35.238 58.24 36.718C57.44 37.798 56.68 38.198 55.6 38.398C54.68 38.598 53.24 38.598 51.68 38.558C51.6 37.238 51.2 35.438 50.52 34.278C51.72 34.358 52.72 34.398 53.28 34.398C53.8 34.398 54.12 34.278 54.44 33.798C55.12 32.838 55.52 28.678 55.84 16.598V15.758ZM49.24 10.158H53.64C53.4 20.958 52.8 31.838 47.04 38.518C46.32 37.478 44.96 36.118 43.8 35.398C48.88 29.598 49.08 19.718 49.24 10.158ZM77.72 5.31805H89.8V9.55805H77.72V5.31805ZM88.72 5.31805H89.56L90.36 5.15804L93.44 6.19805C91.76 19.558 87.28 29.878 80.24 35.878C79.48 34.678 77.92 32.838 76.76 31.998C83.04 27.278 87.4 17.078 88.72 6.35805V5.31805ZM77.56 13.998L80.84 11.238C85.36 16.958 91.48 24.678 94.16 29.558L90.44 32.958C87.92 27.958 82.08 19.918 77.56 13.998ZM93.04 12.198L113.68 9.75805L114.24 14.078L93.64 16.598L93.04 12.198ZM104 3.71804L107.4 1.19805C109.12 2.83805 111.56 5.15804 112.72 6.67805L109.08 9.51805C108.04 7.95804 105.68 5.47805 104 3.71804ZM96.96 1.27804H101.96C102.12 18.558 104.12 31.798 109 32.598C109.92 32.678 110.36 30.718 110.64 26.478C111.56 27.518 113.76 28.878 114.68 29.358C113.64 36.958 111.44 38.718 109.24 38.558C99.6 37.518 97.52 23.478 96.96 1.27804ZM109.16 15.398L113 17.678C109.72 25.598 103.2 33.358 96 37.198C95.08 36.038 93.56 34.558 92.2 33.638C99.72 30.318 106.12 22.918 109.16 15.398ZM127.4 9.91805V11.598H144.4V9.91805H127.4ZM127.4 5.39805V7.03804H144.4V5.39805H127.4ZM122.8 2.31805H149.2V14.678H122.8V2.31805ZM118.08 16.118H153.84V19.958H118.08V16.118ZM136.4 21.438H149.48V25.118H136.4V21.438ZM124.2 21.558H133.32V24.878H124.2V21.558ZM124.2 26.558H133.32V29.878H124.2V26.558ZM141.32 24.758C143.56 29.638 148.28 33.318 154.72 34.838C153.72 35.678 152.48 37.438 151.88 38.558C144.96 36.558 140.2 32.078 137.48 25.838L141.32 24.758ZM148.08 21.438H148.92L149.72 21.278L152.68 22.398C150.32 30.758 144.68 35.878 137.56 38.558C137.04 37.438 135.84 35.718 134.96 34.838C141.16 32.878 146.32 28.278 148.08 22.118V21.438ZM117.72 32.398C121.72 32.158 127.6 31.718 133.2 31.238V35.118C127.84 35.638 122.24 36.158 118.04 36.518L117.72 32.398ZM130.84 17.358H135.44V38.598H130.84V17.358ZM121.2 17.478H125.6V33.798H121.2V17.478ZM163.96 12.038H194.8V16.638H163.96V12.038ZM170.84 32.318H188V36.758H170.84V32.318ZM161.44 3.79805L167.36 4.67805C167.32 5.07805 167 5.27805 166.28 5.43805V15.838C166.28 22.278 165.64 32.238 160.56 38.678C159.88 37.598 158 35.958 156.8 35.398C161.04 29.758 161.44 21.758 161.44 15.798V3.79805ZM187.84 1.15805L191.72 4.95805C183.84 7.11805 173.04 8.27805 163.68 8.79805C163.56 7.63805 162.92 5.71804 162.44 4.67805C171.52 4.11805 181.72 2.83805 187.84 1.15805ZM168.64 21.038H191.56V38.478H186.68V25.478H173.24V38.598H168.64V21.038ZM225 17.158H229.72V38.478H225V17.158ZM215.68 17.118H220.36V23.038C220.36 28.398 219.88 34.278 215.2 38.798C214.16 37.878 212.08 36.638 210.64 36.038C215.16 32.118 215.68 27.358 215.68 22.958V17.118ZM224 2.15805C226.24 6.67805 230.72 11.158 235.36 13.438C234.32 14.358 232.84 16.078 232.12 17.238C227.24 14.358 222.72 9.15805 219.96 3.59805L224 2.15805ZM220.52 0.638046L225.48 1.39805C223.52 7.71805 220 13.718 213.48 18.158C212.88 17.038 211.48 15.158 210.44 14.358C216.16 10.758 219.2 5.51804 220.52 0.638046ZM198.8 2.59804H209.72V7.07805H203.48V38.678H198.8V2.59804ZM208.28 2.59804H209.2L209.88 2.43805L213.28 4.43804C211.96 7.79805 210.28 11.638 208.8 14.638C212.08 17.798 212.72 20.638 212.72 22.998C212.72 25.638 212.04 27.398 210.56 28.398C209.84 28.918 208.96 29.158 207.96 29.318C207.08 29.438 205.92 29.438 204.84 29.398C204.8 28.198 204.36 26.318 203.64 25.038C204.52 25.158 205.28 25.158 205.88 25.118C206.4 25.118 206.92 25.038 207.28 24.798C207.92 24.438 208.2 23.638 208.2 22.478C208.16 20.558 207.32 17.998 204.2 15.238C205.68 11.758 207.44 6.59805 208.28 3.99805V2.59804ZM254.52 18.718H269.2V23.038H254.52V18.718ZM242.56 10.958H252.76V15.398H242.56V10.958ZM242.56 18.678H253.12V23.118H242.56V18.678ZM258.68 2.51805H267.72V6.67805H258.68V2.51805ZM268.52 18.718H269.4L270.24 18.558L273.32 19.678C270.48 30.318 263.44 35.958 253.88 38.718C253.4 37.438 252.24 35.478 251.36 34.438C259.88 32.478 266.36 27.478 268.52 19.438V18.718ZM260.12 22.598C262.6 28.438 267.76 32.598 275.28 34.278C274.16 35.238 272.8 37.238 272.12 38.558C264.04 36.238 258.96 31.198 255.92 23.718L260.12 22.598ZM240.2 3.71804L244.76 5.07805V38.518H240.2V3.71804ZM236.88 28.318C241.32 27.838 247.92 26.998 254.12 26.158L254.28 30.558C248.48 31.438 242.24 32.358 237.64 32.998L236.88 28.318ZM256.6 2.51805H261V8.35805C261 12.078 260.16 16.438 255.76 19.038C255.12 18.158 253.36 16.438 252.44 15.838C256.2 13.718 256.6 10.878 256.6 8.23805V2.51805ZM250.84 1.07804L254.8 4.47805C251.24 6.19805 246.6 7.47805 242.6 8.31804C242.36 7.27805 241.64 5.63805 241.08 4.71805C244.64 3.83805 248.52 2.43805 250.84 1.07804ZM265.16 2.51805H269.64V12.038C269.64 12.718 269.64 13.078 269.76 13.238C269.84 13.358 269.96 13.398 270.16 13.398C270.32 13.398 270.6 13.398 270.8 13.398C271 13.398 271.2 13.358 271.32 13.278C271.44 13.198 271.56 12.918 271.64 12.438C271.72 11.878 271.76 10.678 271.8 9.11805C272.6 9.87805 274.16 10.638 275.36 11.038C275.24 12.638 275.08 14.398 274.8 15.158C274.52 15.918 274.04 16.438 273.32 16.758C272.76 17.078 271.84 17.238 271.16 17.238C270.44 17.238 269.56 17.238 268.96 17.238C267.96 17.238 266.84 16.918 266.16 16.238C265.48 15.558 265.16 14.678 265.16 12.078V2.51805ZM11.8203 66.8574C11.8203 68.459 11.2539 69.8262 10.1211 70.959C9.0013 72.0788 7.64714 72.6387 6.05859 72.6387C4.45703 72.6387 3.08984 72.0723 1.95703 70.9395C0.83724 69.8066 0.277344 68.446 0.277344 66.8574C0.277344 65.2689 0.83724 63.9147 1.95703 62.7949C3.08984 61.6621 4.45703 61.0957 6.05859 61.0957C7.64714 61.0957 9.0013 61.6556 10.1211 62.7754C11.2539 63.8952 11.8203 65.2559 11.8203 66.8574ZM37.2 67.318C40.56 66.598 45.64 65.278 50.36 63.998L50.96 68.438C46.64 69.758 42 71.038 38.24 72.118L37.2 67.318ZM37.84 54.638H50.84V59.118H37.84V54.638ZM42.24 47.078H46.84V78.998C46.84 81.278 46.48 82.558 45.2 83.318C43.92 84.118 42.12 84.318 39.52 84.318C39.44 83.038 38.84 80.958 38.24 79.638C39.64 79.678 41.08 79.678 41.56 79.678C42.04 79.678 42.24 79.518 42.24 78.958V47.078ZM53.6 52.878H74.28V57.478H53.6V52.878ZM52.48 52.878H57.28V63.078C57.28 69.518 56.52 79.038 51.8 84.918C50.92 84.078 48.84 82.718 47.68 82.198C52.08 76.758 52.48 68.798 52.48 63.038V52.878ZM60 48.318L64.32 47.038C65.4 48.918 66.56 51.438 67.12 53.078L62.6 54.598C62.16 52.918 61 50.238 60 48.318ZM86.8 62.318H112.48V66.318H86.8V62.318ZM85.72 69.038H114.28V73.078H85.72V69.038ZM91.88 58.998H96.28V70.918H91.88V58.998ZM89.88 70.518H94.28V80.598H89.88V70.518ZM102.24 58.998H106.72V70.878H102.24V58.998ZM81.16 48.758H86V60.638C86 67.678 85.36 78.118 81.16 84.718C80.2 83.958 78.04 82.718 76.84 82.238C80.84 76.078 81.16 67.038 81.16 60.638V48.758ZM84.12 48.758H112.12V59.678H84.12V55.638H107.28V52.798H84.12V48.758ZM85.76 79.678C89.68 79.278 95.56 78.478 101.2 77.638L101.4 81.758C96.2 82.638 90.6 83.438 86.44 84.078L85.76 79.678ZM101.12 70.718C103.24 75.878 107.76 79.398 114.72 80.678C113.76 81.638 112.48 83.438 111.88 84.638C104.32 82.758 99.76 78.358 97.16 71.558L101.12 70.718ZM109.24 72.558L112.84 74.998C110.68 76.558 108 78.038 105.96 78.998L102.88 76.718C104.88 75.678 107.64 73.878 109.24 72.558ZM118.52 50.878L121.2 47.398C123.4 48.318 126.2 49.878 127.56 51.158L124.72 54.958C123.48 53.678 120.68 51.918 118.52 50.878ZM117.08 61.598L119.72 58.038C121.96 58.878 124.8 60.358 126.16 61.558L123.4 65.438C122.08 64.198 119.32 62.558 117.08 61.598ZM117.52 81.798C118.96 78.558 120.92 73.438 122.36 68.678L126.28 71.078C125 75.438 123.4 80.158 121.88 84.118L117.52 81.798ZM142.88 51.758H154.76V56.318H142.88V51.758ZM142.28 59.318H152.16V63.478H142.28V59.318ZM140.6 68.838H154.84V73.158H140.6V68.838ZM142.72 47.078L147.28 47.878C146.4 53.158 144.68 58.358 142.52 61.638C141.64 60.958 139.56 59.798 138.44 59.278C140.64 56.398 142 51.718 142.72 47.078ZM145.56 65.478H150V79.838C150 81.998 149.64 83.198 148.2 83.918C146.76 84.598 144.8 84.678 142.12 84.678C142 83.398 141.4 81.558 140.88 80.278C142.52 80.358 144.32 80.358 144.88 80.358C145.4 80.358 145.56 80.238 145.56 79.758V65.478ZM150.28 59.318H151.28L152.12 59.038L154.92 61.038C153.32 63.798 151.04 66.918 149 68.958C148.4 68.078 147.12 66.758 146.4 66.118C147.88 64.558 149.52 61.878 150.28 60.118V59.318ZM126.32 52.798H140.48V57.358H126.32V52.798ZM130.8 61.758H137.6V66.118H130.8V61.758ZM131.32 47.118H135.92V55.998H131.32V47.118ZM135.84 61.758H140.16C140.16 61.758 140.16 63.078 140.12 63.638C139.72 76.438 139.32 81.238 138.24 82.718C137.44 83.798 136.68 84.198 135.6 84.398C134.68 84.598 133.24 84.598 131.68 84.558C131.6 83.238 131.2 81.438 130.52 80.278C131.72 80.358 132.72 80.398 133.28 80.398C133.8 80.398 134.12 80.278 134.44 79.798C135.12 78.838 135.52 74.678 135.84 62.598V61.758ZM129.24 56.158H133.64C133.4 66.958 132.8 77.838 127.04 84.518C126.32 83.478 124.96 82.118 123.8 81.398C128.88 75.598 129.08 65.718 129.24 56.158ZM157.72 51.318H169.8V55.558H157.72V51.318ZM168.72 51.318H169.56L170.36 51.158L173.44 52.198C171.76 65.558 167.28 75.878 160.24 81.878C159.48 80.678 157.92 78.838 156.76 77.998C163.04 73.278 167.4 63.078 168.72 52.358V51.318ZM157.56 59.998L160.84 57.238C165.36 62.958 171.48 70.678 174.16 75.558L170.44 78.958C167.92 73.958 162.08 65.918 157.56 59.998ZM173.04 58.198L193.68 55.758L194.24 60.078L173.64 62.598L173.04 58.198ZM184 49.718L187.4 47.198C189.12 48.838 191.56 51.158 192.72 52.678L189.08 55.518C188.04 53.958 185.68 51.478 184 49.718ZM176.96 47.278H181.96C182.12 64.558 184.12 77.798 189 78.598C189.92 78.678 190.36 76.718 190.64 72.478C191.56 73.518 193.76 74.878 194.68 75.358C193.64 82.958 191.44 84.718 189.24 84.558C179.6 83.518 177.52 69.478 176.96 47.278ZM189.16 61.398L193 63.678C189.72 71.598 183.2 79.358 176 83.198C175.08 82.038 173.56 80.558 172.2 79.638C179.72 76.318 186.12 68.918 189.16 61.398ZM204.28 54.278H232.12V58.958H204.28V54.278ZM202.64 66.078H230.6V70.678H202.64V66.078ZM198 78.758H234.16V83.438H198V78.758ZM213.56 47.038H218.56V81.078H213.56V47.038ZM204.32 47.518L209.28 48.638C207.52 54.838 204.6 60.998 201.48 64.838C200.52 63.998 198.4 62.598 197.16 61.918C200.32 58.558 202.88 53.038 204.32 47.518ZM237.88 52.158H274.24V56.598H237.88V52.158ZM253.64 46.638H258.64C257.72 56.918 255.72 66.158 240.12 70.558C239.64 69.398 238.44 67.558 237.44 66.518C251.88 62.878 252.88 55.158 253.64 46.638ZM259.44 52.358C261.8 59.118 266.8 63.838 275.08 65.638C273.96 66.678 272.56 68.718 271.88 70.038C262.92 67.558 258 61.958 255.04 53.318L259.44 52.358ZM250.96 65.358L255.12 62.878C257.44 64.038 260.4 65.958 262 67.398L257.56 70.078C256.24 68.678 253.28 66.638 250.96 65.358ZM246.48 71.238H251.24V78.078C251.24 79.318 251.64 79.518 254 79.518C255.04 79.518 259.52 79.518 260.92 79.518C262.88 79.518 263.16 78.918 263.44 74.838C264.44 75.598 266.44 76.318 267.72 76.598C267.16 82.318 265.8 83.758 261.28 83.758C260.08 83.758 254.68 83.758 253.52 83.758C247.92 83.758 246.48 82.438 246.48 78.118V71.238ZM252.16 70.758L255.84 68.598C257.92 70.518 260.52 73.278 261.68 75.158L257.72 77.638C256.68 75.758 254.2 72.838 252.16 70.758ZM265.6 71.878L269.8 70.518C271.76 73.878 273.84 78.398 274.6 81.318L270.08 82.918C269.4 80.038 267.48 75.358 265.6 71.878ZM241.2 70.958L245.48 72.358C244.68 75.918 243.52 80.358 241.88 83.238L237.56 81.038C239.16 78.358 240.52 74.438 241.2 70.958ZM285.8 73.718L290.8 75.598C288.32 78.718 284.44 82.038 281.32 84.078C280.32 83.118 278.24 81.518 276.96 80.758C280.24 79.078 283.76 76.318 285.8 73.718ZM300.72 76.238L304.76 73.518C307.92 75.558 312.2 78.678 314.32 80.878L309.96 83.958C308.12 81.798 304 78.478 300.72 76.238ZM280.76 59.758L284.08 56.678C287.4 58.558 291.84 61.558 294 63.798L290.4 67.278C288.44 65.038 284.2 61.838 280.76 59.758ZM301.56 64.718L305.48 62.238C308.76 64.958 312.96 68.918 314.96 71.678L310.64 74.518C308.88 71.798 304.84 67.638 301.56 64.718ZM293.32 70.158H298.44V84.598H293.32V70.158ZM277.8 67.958C285.92 67.878 298.72 67.598 310.24 67.358L310 71.678C298.64 72.198 286.44 72.558 278.28 72.758L277.8 67.958ZM301.68 54.038L306.36 56.518C301.16 61.838 294.24 67.518 288.84 71.118L285.04 68.638C290.52 64.998 297.44 58.958 301.68 54.038ZM291.56 51.278L296.28 53.558C293.76 56.478 290.68 59.598 288.32 61.558L284.4 59.438C286.76 57.358 289.8 53.958 291.56 51.278ZM308.28 47.398L311.68 51.478C302.8 53.278 290.56 54.078 280.16 54.198C280.04 52.958 279.48 50.998 279.04 49.878C289.36 49.678 301.12 48.878 308.28 47.398ZM345.2 59.118L348.92 57.238C351.04 60.038 353.6 63.838 354.64 66.318L350.6 68.478C349.68 65.998 347.32 62.038 345.2 59.118ZM331.84 52.278H354.24V56.558H331.84V52.278ZM343.2 67.238H347.92V78.518C347.92 79.758 348 79.918 348.56 79.918C348.8 79.918 349.68 79.918 349.96 79.918C350.6 79.918 350.72 79.038 350.84 73.918C351.76 74.718 353.68 75.478 354.88 75.838C354.56 82.118 353.52 83.958 350.44 83.958C349.76 83.958 348.32 83.958 347.68 83.958C344.04 83.958 343.2 82.558 343.2 78.518V67.238ZM335.68 67.278H340.4C340.08 75.678 339 81.478 331.72 84.838C331.16 83.638 329.84 81.758 328.76 80.878C334.88 78.278 335.44 74.038 335.68 67.278ZM332.28 67.918L332.12 64.398L334.44 62.958L349.72 61.678C349.72 62.838 349.96 64.598 350.16 65.518C335.72 66.998 333.68 67.278 332.28 67.918ZM339.2 47.998L343.72 46.878C344.44 48.318 345.32 50.358 345.76 51.558L340.92 52.878C340.6 51.638 339.84 49.518 339.2 47.998ZM332.28 67.918C332.08 66.718 331.32 64.318 330.88 63.278C331.76 63.078 332.92 62.758 333.8 61.918C334.92 60.878 338.64 55.958 340.12 53.798H345.76C343.44 56.998 339.6 62.318 337.24 64.918C337.24 64.918 332.28 66.678 332.28 67.918ZM318.68 74.238C318.44 73.318 317.68 71.038 317.12 69.798C318.16 69.558 319.04 68.678 320.28 67.238C321.6 65.838 325.56 60.358 328.08 55.038L332.24 57.638C329.4 62.758 325.52 67.958 321.8 71.758V71.918C321.8 71.918 318.68 73.398 318.68 74.238ZM318.68 74.238L318.28 70.238L320.32 68.758L330.96 66.638C330.84 67.958 330.84 69.838 330.96 70.838C321.4 73.038 319.72 73.598 318.68 74.238ZM318.4 64.478C318.12 63.478 317.32 61.038 316.72 59.678C317.56 59.478 318.28 58.638 319.12 57.358C320 56.118 322.52 51.238 323.92 46.638L328.8 48.878C326.92 53.438 323.92 58.438 321.12 61.878V61.998C321.12 61.998 318.4 63.638 318.4 64.478ZM318.4 64.478L318.28 60.998L320.28 59.638L327 59.118C326.76 60.358 326.52 62.158 326.52 63.118C320.52 63.798 319.2 64.078 318.4 64.478ZM317.36 78.278C320.72 77.278 325.92 75.438 330.88 73.678L331.76 77.718C327.24 79.638 322.36 81.558 318.48 83.038L317.36 78.278ZM11.8203 112.857C11.8203 114.459 11.2539 115.826 10.1211 116.959C9.0013 118.079 7.64714 118.639 6.05859 118.639C4.45703 118.639 3.08984 118.072 1.95703 116.939C0.83724 115.807 0.277344 114.446 0.277344 112.857C0.277344 111.269 0.83724 109.915 1.95703 108.795C3.08984 107.662 4.45703 107.096 6.05859 107.096C7.64714 107.096 9.0013 107.656 10.1211 108.775C11.2539 109.895 11.8203 111.256 11.8203 112.857ZM57.2 124.358L59.44 120.838C64.64 122.318 70.28 124.678 73.52 126.598L70.64 130.398C67.56 128.318 62.32 125.918 57.2 124.358ZM52.36 93.998L57.2 92.518C58.28 94.198 59.48 96.438 59.92 97.998L54.84 99.598C54.44 98.158 53.36 95.758 52.36 93.998ZM39.04 96.798H73.04V105.958H68V101.278H43.84V105.958H39.04V96.798ZM55.32 102.958H60.36C59.88 117.198 58.84 126.358 41.72 130.558C41.24 129.278 40.04 127.438 39 126.398C54.72 122.958 54.92 115.638 55.32 102.958ZM38.68 116.038H73.52V120.078H38.68V116.038ZM45.24 105.198L48.04 102.078C50.12 103.158 52.76 104.838 54 106.238L51 109.678C49.88 108.318 47.32 106.398 45.24 105.198ZM41.16 111.238L43.92 107.998C46.04 108.998 48.68 110.638 50 111.958L47.12 115.518C45.92 114.198 43.28 112.358 41.16 111.238ZM97.72 98.118H114.24V102.478H97.72V98.118ZM102.64 103.438H106.64V123.278H102.64V103.438ZM98.12 92.998L102.84 93.958C101.44 99.638 99 104.998 95.88 108.398C95.12 107.518 93.32 105.758 92.28 104.998C95.08 102.198 97.08 97.718 98.12 92.998ZM92.88 113.718L110.36 105.638L112 109.558L94.56 117.678L92.88 113.718ZM96.2 106.358H100.48V124.598C100.48 126.278 100.76 126.518 102.76 126.518C103.64 126.518 107.8 126.518 108.92 126.518C110.52 126.518 110.84 125.838 111.04 122.278C112 122.958 113.76 123.638 114.96 123.918C114.44 128.998 113.16 130.518 109.28 130.518C108.16 130.518 103.32 130.518 102.28 130.518C97.48 130.518 96.2 129.198 96.2 124.558V106.358ZM109.12 106.478H108.8L109.64 105.878L110.4 105.398L113.36 106.438L113.16 107.078C113.16 112.798 113.16 116.838 113.04 118.078C112.96 119.558 112.4 120.398 111.32 120.838C110.36 121.278 109.04 121.318 108 121.318C107.88 120.238 107.56 118.678 107.12 117.798C107.6 117.838 108.16 117.838 108.48 117.838C108.8 117.838 109 117.758 109.04 117.278C109.12 116.758 109.12 113.038 109.12 106.478ZM77.48 99.158H94.52V103.598H77.48V99.158ZM83.72 107.878H90.2V112.238H83.72V107.878ZM83.68 93.078H88.28V100.598H83.68V93.078ZM81.4 101.838H85.92C85.72 113.038 85.2 123.838 80.36 130.558C79.56 129.438 78.12 127.958 76.92 127.238C81.12 121.398 81.28 111.758 81.4 101.838ZM88.68 107.878H93C93 107.878 93 109.198 93 109.718C92.8 122.558 92.6 127.278 91.6 128.718C90.84 129.838 90.08 130.238 88.96 130.438C88 130.638 86.48 130.638 84.84 130.598C84.76 129.318 84.32 127.518 83.68 126.358C84.92 126.478 86 126.478 86.6 126.478C87.08 126.478 87.44 126.398 87.76 125.878C88.32 124.998 88.52 120.838 88.68 108.758V107.878ZM123.72 101.478H154.28V105.678H123.72V101.478ZM136.92 97.598L142.04 97.838C141.8 101.718 141.28 106.478 140.8 109.518H136.16C136.52 106.398 136.8 101.518 136.92 97.598ZM140.04 125.358L143.4 122.518C147.12 123.878 151.76 125.998 154.56 127.398L151.2 130.598C148.52 129.038 143.8 126.758 140.04 125.358ZM148.28 92.798L152.04 96.598C143.64 98.478 132 99.398 122.16 99.718C122.04 98.558 121.44 96.678 121 95.638C130.68 95.278 141.72 94.278 148.28 92.798ZM121 95.638H125.72V106.998C125.72 113.758 125.12 123.798 121.12 130.158C120.2 129.398 118.08 128.158 116.88 127.718C120.68 121.798 121 113.118 121 106.998V95.638ZM137.36 114.238H142.4V117.438C142.4 121.398 140.64 126.958 127.64 130.598C127 129.558 125.52 127.838 124.32 126.918C136.6 124.078 137.36 119.958 137.36 117.318V114.238ZM127.76 108.478H151.92V122.878H146.88V112.918H132.56V122.558H127.76V108.478ZM171.68 95.318H193.52V118.838H188.68V99.718H176.32V118.878H171.68V95.318ZM174.6 103.958H190.44V108.278H174.6V103.958ZM174.6 112.638H190.44V116.998H174.6V112.638ZM180.28 97.038H184.8V130.598H180.28V97.038ZM157.08 113.358C160.48 112.638 165.36 111.478 170 110.278L170.6 114.678C166.44 115.838 161.92 117.038 158.32 117.958L157.08 113.358ZM157.6 100.638H170.44V105.118H157.6V100.638ZM162 93.038H166.6V125.318C166.6 127.558 166.2 128.678 164.92 129.398C163.64 130.118 161.84 130.238 159.2 130.238C159.04 129.078 158.44 127.158 157.92 125.998C159.32 126.038 160.84 125.998 161.32 125.998C161.84 125.998 162 125.838 162 125.318V93.038Z" fill="white"/>
</svg>
