<svg width="490" height="147" viewBox="0 0 490 147" fill="none" xmlns="http://www.w3.org/2000/svg">
  <path d="M61.8125 120H24.9375L27.625 54.875L3.25 53.25V32.5H77V53.625L52.625 57.5L61.8125 120ZM152.75 120H127.75L121.5 86.4375L110.75 86.25L106.312 120H84L88.125 34.6875L127.75 32.5L150.562 38.75L148.312 70L134 82.5L152.75 120ZM102.438 71.4375L123.625 69.4375L136.875 51.5625L115.312 44L102.312 45.75L102.438 71.4375ZM239.75 120H214.75L202.25 95H189.75L177.25 120H158.5L180 32.625L214.75 32.8125L239.75 120ZM208.5 79.75L193.625 45L183.5 79.75H208.5ZM248.625 32.5H272.375L273.25 120H248.625V32.5ZM283.5 32.5L302.25 40.5625L299.5 98.875L339.75 101.25L344.125 120L283.5 120.625V32.5ZM352.125 120V32.5L408.375 26.25V45L367.875 51.25L366.875 63.75H408.375V79.875L370.875 82.5V99.5L408.375 98.5V116.625L352.125 120ZM485.375 120H460.375L454.125 86.4375L443.375 86.25L438.938 120H416.625L420.75 34.6875L460.375 32.5L483.188 38.75L480.938 70L466.625 82.5L485.375 120ZM435.062 71.4375L456.25 69.4375L469.5 51.5625L447.938 44L434.938 45.75L435.062 71.4375Z" fill="#496D20"/>
</svg>
