<svg width="471" height="190" viewBox="0 0 471 190" fill="none" xmlns="http://www.w3.org/2000/svg">
  <path d="M44.6431 71H16.9868L19.0024 22.1562L0.721191 20.9375V5.375H56.0337V21.2188L37.7524 24.125L44.6431 71ZM61.7524 71V5.375L103.94 0.6875V14.75L73.5649 19.4375L72.8149 28.8125H103.94V40.9062L75.8149 42.875V55.625L103.94 54.875V68.4688L61.7524 71ZM111.065 5.375L125.127 11.4219L123.065 55.1562L153.252 56.9375L156.534 71L111.065 71.4688V5.375ZM162.534 71V5.375L204.721 0.6875V14.75L174.346 19.4375L173.596 28.8125H204.721V40.9062L176.596 42.875V55.625L204.721 54.875V68.4688L162.534 71ZM270.159 38.1875L267.627 63.4531L244.19 71L213.112 68.4688L211.377 33.5L220.752 5.375H244.19L270.627 10.0625L255.909 24.125L233.127 13.1094L221.221 33.5L226.19 58.5312L246.721 59.8906L246.112 46.1094L233.315 44.6094L234.721 35.8906L270.159 38.1875ZM327.065 71H308.315L303.627 45.8281L295.565 45.6875L292.237 71H275.502L278.596 7.01562L308.315 5.375L325.424 10.0625L323.737 33.5L313.002 42.875L327.065 71ZM289.331 34.5781L305.221 33.0781L315.159 19.6719L298.987 14L289.237 15.3125L289.331 34.5781ZM392.315 71H373.565L364.19 52.25H354.815L345.44 71H331.377L347.502 5.46875L373.565 5.60938L392.315 71ZM368.877 40.8125L357.721 14.75L350.127 40.8125H368.877ZM395.127 71L402.346 5.375H418.565L432.627 33.5L451.377 5.375H470.127L468.721 71H444.581L446.69 39.875L430.987 58.3906L416.456 38.1875L409.19 71H395.127ZM5.87744 115.375L37.1431 114.906L48.0649 134.125L45.5337 159.344L17.9712 160.562L14.6431 181L1.18994 181.469L5.87744 115.375ZM20.7368 126.859L18.5337 146.969L32.9712 144.812L34.4712 133.656L20.7368 126.859ZM60.2524 143.5L55.5649 129.438L69.6274 117.016L83.6899 115.375L93.0649 121.891L89.7368 143.5L69.6274 164.734L93.0649 163.797L91.7056 181L55.5649 178V162.25L82.2368 138.812L81.9087 124.75H69.6274L60.2524 143.5ZM101.69 181V115.375L143.877 110.688V124.75L113.502 129.438L112.752 138.812H143.877V150.906L115.752 152.875V165.625L143.877 164.875V178.469L101.69 181ZM177.113 108.712L183.545 100.36C188.825 102.568 195.545 106.312 198.809 109.384L191.993 118.504C189.017 115.432 182.297 111.208 177.113 108.712ZM173.657 134.44L179.993 125.896C185.369 127.912 192.185 131.464 195.449 134.344L188.825 143.656C185.657 140.68 179.033 136.744 173.657 134.44ZM174.713 182.92C178.169 175.144 182.873 162.856 186.329 151.432L195.737 157.192C192.665 167.656 188.825 178.984 185.177 188.488L174.713 182.92ZM235.577 110.824H264.089V121.768H235.577V110.824ZM234.137 128.968H257.849V138.952H234.137V128.968ZM230.105 151.816H264.281V162.184H230.105V151.816ZM235.193 99.592L246.137 101.512C244.025 114.184 239.897 126.664 234.713 134.536C232.601 132.904 227.609 130.12 224.921 128.872C230.201 121.96 233.465 110.728 235.193 99.592ZM242.009 143.752H252.665V178.216C252.665 183.4 251.801 186.28 248.345 188.008C244.889 189.64 240.185 189.832 233.753 189.832C233.465 186.76 232.025 182.344 230.777 179.272C234.713 179.464 239.033 179.464 240.377 179.464C241.625 179.464 242.009 179.176 242.009 178.024V143.752ZM253.337 128.968H255.737L257.753 128.296L264.473 133.096C260.633 139.72 255.161 147.208 250.265 152.104C248.825 149.992 245.753 146.824 244.025 145.288C247.577 141.544 251.513 135.112 253.337 130.888V128.968ZM195.833 113.32H229.817V124.264H195.833V113.32ZM206.585 134.824H222.905V145.288H206.585V134.824ZM207.833 99.688H218.873V121H207.833V99.688ZM218.681 134.824H229.049C229.049 134.824 229.049 137.992 228.953 139.336C227.993 170.056 227.033 181.576 224.441 185.128C222.521 187.72 220.697 188.68 218.105 189.16C215.897 189.64 212.441 189.64 208.697 189.544C208.505 186.376 207.545 182.056 205.913 179.272C208.793 179.464 211.193 179.56 212.537 179.56C213.785 179.56 214.553 179.272 215.321 178.12C216.953 175.816 217.913 165.832 218.681 136.84V134.824ZM202.841 121.384H213.401C212.825 147.304 211.385 173.416 197.561 189.448C195.833 186.952 192.569 183.688 189.785 181.96C201.977 168.04 202.457 144.328 202.841 121.384ZM271.193 109.768H300.185V119.944H271.193V109.768ZM297.593 109.768H299.609L301.529 109.384L308.921 111.88C304.889 143.944 294.137 168.712 277.241 183.112C275.417 180.232 271.673 175.816 268.889 173.8C283.961 162.472 294.425 137.992 297.593 112.264V109.768ZM270.809 130.6L278.681 123.976C289.529 137.704 304.217 156.232 310.649 167.944L301.721 176.104C295.673 164.104 281.657 144.808 270.809 130.6ZM307.961 126.28L357.497 120.424L358.841 130.792L309.401 136.84L307.961 126.28ZM334.265 105.928L342.425 99.88C346.553 103.816 352.409 109.384 355.193 113.032L346.457 119.848C343.961 116.104 338.297 110.152 334.265 105.928ZM317.369 100.072H329.369C329.753 141.544 334.553 173.32 346.265 175.24C348.473 175.432 349.529 170.728 350.201 160.552C352.409 163.048 357.689 166.312 359.897 167.464C357.401 185.704 352.121 189.928 346.841 189.544C323.705 187.048 318.713 153.352 317.369 100.072ZM346.649 133.96L355.865 139.432C347.993 158.44 332.345 177.064 315.065 186.28C312.857 183.496 309.209 179.944 305.945 177.736C323.993 169.768 339.353 152.008 346.649 133.96Z" fill="white"/>
</svg>
