<svg width="427" height="2886" viewBox="0 0 427 2886" fill="none" xmlns="http://www.w3.org/2000/svg">
  <path d="M109.992 -117.396C109.992 -117.396 73.0893 -110.696 2.95792 -8.37968C2.95792 -8.37968 24.5236 219.701 25.107 305.441C25.6903 391.181 41.9457 429.055 41.9457 429.055L151.342 426.001C151.342 426.001 174.414 424.737 173.685 398.626C172.955 372.514 158.287 347.959 156.047 333.443C153.808 318.927 143.908 80.3732 110.016 -117.373L109.992 -117.396Z" fill="#324C0B"/>
  <path d="M510.418 2336.22C510.418 2336.22 445.177 2325.32 382.646 2331.26C377.015 2331.8 372.991 2336.96 373.838 2342.56C382.417 2399.01 423.723 2674.59 424.224 2751.42C424.784 2837.16 441.063 2875.04 441.063 2875.04L550.46 2871.98C550.46 2871.98 573.531 2870.72 572.802 2844.61C572.073 2818.5 557.404 2793.94 555.165 2779.43C552.925 2764.91 544.334 2533.97 510.419 2336.24L510.418 2336.22Z" fill="#324C0B"/>
  <path d="M172.489 422.361C172.489 422.361 188.316 368.084 298.937 344.033C298.937 344.033 260.47 392.844 172.489 422.361Z" fill="#324C0B"/>
  <path d="M177.392 430.728C177.392 430.728 253.003 386.454 327.875 432.602C327.875 432.602 257.278 445.721 177.392 430.728Z" fill="#324C0B"/>
  <path d="M172.913 437.547C172.913 437.547 246.968 432.24 242.736 527.238C242.736 527.238 190.964 488.545 172.913 437.547Z" fill="#324C0B"/>
  <path d="M167.078 435.9C167.078 435.9 132.382 467.884 128.297 560.447C128.297 560.447 196.407 501.78 167.078 435.9Z" fill="#324C0B"/>
  <path d="M135.604 466.364C135.604 466.364 139.491 452.868 129.368 453.77C119.246 454.672 42.2812 464.11 42.2812 464.11C42.2812 464.11 109.105 994.171 134.14 1067.51C142.08 1090.8 148.99 1085.74 153.763 1085.21C158.536 1084.67 253.081 1072.69 273.023 1075.4C292.966 1078.1 293.042 1066.33 286.958 1051.5C280.875 1036.66 246.379 955.511 239.057 868.149C231.734 780.787 189.378 482.919 189.378 482.919C189.378 482.919 158.755 560.979 121.314 579.104C109.304 584.918 135.604 466.388 135.604 466.388L135.604 466.364Z" fill="#324C0B"/>
  <path d="M297.017 1106.34C297.017 1106.34 296.092 1087.71 285.964 1088.4C275.835 1089.09 144.022 1101.49 144.022 1101.49C144.022 1101.49 142.342 1171.88 189.512 1322.21C236.683 1472.53 266.51 1698.76 266.51 1698.76C266.51 1698.76 387.893 1718.89 402.547 1691.73C417.201 1664.57 296.993 1106.34 296.993 1106.34L297.017 1106.34Z" fill="#324C0B"/>
  <path d="M205.854 1689.93C205.854 1689.93 134.76 1656.23 70.4347 1690.06C70.4347 1690.06 144.695 1706.64 205.854 1689.93Z" fill="#324C0B"/>
  <path d="M200.712 1723.33C200.712 1723.33 93.7459 1740.92 79.6769 1832.54C79.6769 1832.54 169.438 1779.75 200.712 1723.33Z" fill="#324C0B"/>
  <path d="M223.621 1730.79C223.621 1730.79 153.971 1792.33 224.874 1891.71C224.874 1891.71 242.127 1812.57 223.621 1730.79Z" fill="#324C0B"/>
  <path d="M251.971 1729.99C251.971 1729.99 255.738 1806.93 369.234 1849.16C369.234 1849.16 314.082 1761.9 251.971 1729.99Z" fill="#324C0B"/>
  <path d="M293.473 1735.32C293.473 1735.32 395.356 1710.58 415.009 1731.92C434.662 1753.26 506.263 2313.66 506.263 2313.66C506.263 2313.66 433.777 2305.18 380.756 2310.47C371.301 2311.4 362.758 2304.87 361.376 2295.48L291.972 1826.59C291.972 1826.59 369.018 1875.54 409.445 1883.32C409.445 1883.32 366.448 1792.88 293.473 1735.32Z" fill="#324C0B"/>
</svg>
