<svg width="304" height="1064" viewBox="0 0 304 1064" fill="none" xmlns="http://www.w3.org/2000/svg">
  <path d="M128.993 -34.9473C128.993 -34.9473 115.503 -34.005 86.3245 -0.109464C86.3245 -0.109464 85.0368 82.4822 81.8564 113.233C78.676 143.983 83.0043 158.199 83.0043 158.199L122.33 161.429C122.33 161.429 130.649 161.888 131.42 152.502C132.191 143.115 127.904 133.735 127.676 128.444C127.447 123.154 133.329 37.2696 129.001 -34.938L128.993 -34.9473Z" fill="#6FA72E"/>
  <path d="M175.51 860.206C175.51 860.206 152.56 853.721 129.915 853.377C127.876 853.347 126.23 855.038 126.312 857.078C127.155 877.649 131.064 978.043 128.206 1005.6C125.018 1036.35 129.354 1050.56 129.354 1050.56L168.681 1053.79C168.681 1053.79 176.999 1054.25 177.77 1044.87C178.541 1035.48 174.254 1026.1 174.026 1020.81C173.797 1015.52 179.848 932.414 175.509 860.214L175.51 860.206Z" fill="#6FA72E"/>
  <path d="M130.062 160.961C130.062 160.961 137.879 142.135 178.474 137.889C178.474 137.889 162.759 153.861 130.062 160.961Z" fill="#6FA72E"/>
  <path d="M131.488 164.154C131.488 164.154 160.336 151.276 185.344 170.774C185.344 170.774 159.525 172.685 131.488 164.154Z" fill="#6FA72E"/>
  <path d="M129.614 166.42C129.614 166.42 156.363 167.446 151.091 201.324C151.091 201.324 134.067 185.41 129.614 166.42Z" fill="#6FA72E"/>
  <path d="M127.588 165.599C127.588 165.599 113.889 175.69 108.766 208.701C108.766 208.701 135.494 190.369 127.588 165.599Z" fill="#6FA72E"/>
  <path d="M115.103 175.273C115.103 175.273 117.03 170.59 113.366 170.513C109.703 170.436 81.7475 170.776 81.7475 170.776C81.7475 170.776 84.7417 363.38 90.8145 390.652C92.7392 399.312 95.4153 397.775 97.1471 397.77C98.8789 397.766 133.235 397.211 140.275 398.97C147.315 400.728 147.808 396.513 146.214 390.955C144.62 385.397 135.466 354.952 136.295 323.354C137.125 291.755 133.72 183.332 133.72 183.332C133.72 183.332 119.66 210.096 105.525 215.111C100.991 216.72 115.103 175.281 115.103 175.281L115.103 175.273Z" fill="#6FA72E"/>
  <path d="M147.643 411.006C147.643 411.006 148.048 404.294 144.391 404.14C140.734 403.986 93.0043 403.219 93.0043 403.219C93.0043 403.219 89.6198 428.379 100.582 484.118C111.544 539.857 113.29 622.113 113.29 622.113C113.29 622.113 155.996 634.122 162.321 624.968C168.646 615.814 147.634 411.005 147.634 411.005L147.643 411.006Z" fill="#6FA72E"/>
  <path d="M91.9101 616.549C91.9101 616.549 67.7638 601.661 43.3734 611.244C43.3734 611.244 69.3315 620.121 91.9101 616.549Z" fill="#6FA72E"/>
  <path d="M88.7383 628.314C88.7383 628.314 49.7087 630.389 41.0444 662.67C41.0444 662.67 75.2998 647.299 88.7383 628.314Z" fill="#6FA72E"/>
  <path d="M96.6624 631.894C96.6624 631.894 69.2684 651.197 90.7499 689.615C90.7499 689.615 100.061 661.935 96.6624 631.894Z" fill="#6FA72E"/>
  <path d="M106.853 632.731C106.853 632.731 105.162 660.451 144.167 680.073C144.167 680.073 127.851 646.619 106.853 632.731Z" fill="#6FA72E"/>
  <path d="M121.517 636.278C121.517 636.278 159.007 631.441 165.207 639.867C171.406 648.292 174.913 851.956 174.913 851.956C174.913 851.956 149.271 846.051 130.06 845.851C126.635 845.811 123.831 843.134 123.707 839.713L117.37 668.93C117.37 668.93 143.047 689.517 157.228 693.904C157.228 693.904 145.394 659.792 121.517 636.278Z" fill="#6FA72E"/>
  <path d="M290.257 252.785C290.257 252.785 280.462 362.916 283.309 387.407C284.337 396.287 291.702 406.574 288.234 405.997C284.767 405.419 249 398.08 234.56 398.952L246.812 274.741L290.257 252.794L290.257 252.785Z" fill="#6FA72E"/>
  <path d="M234.811 409.327C234.811 409.327 280.09 409.721 282.535 417.399C284.979 425.077 269.634 523.597 269.059 527.874C268.484 532.151 251.37 555.821 251.212 565.706C251.055 575.591 253.464 581.078 216.452 571.181C203.539 567.726 233.716 409.237 233.716 409.237" fill="#6FA72E"/>
  <path d="M255.366 565.169C255.366 565.169 265.638 540.058 283.794 538.62C283.794 538.62 285.948 560.643 255.366 565.169Z" fill="#6FA72E"/>
  <path d="M263.114 570.784C263.114 570.784 295.588 555.706 324.76 566.466C324.76 566.466 287.725 578.233 263.114 570.784Z" fill="#6FA72E"/>
  <path d="M263.534 578.15C263.534 578.15 299.255 573.468 316.007 606.95C316.007 606.95 276.49 593.574 263.534 578.15Z" fill="#6FA72E"/>
  <path d="M257.613 580.601C257.613 580.601 281.809 596.664 274.888 627.331C274.888 627.331 257.663 604.949 257.613 580.601Z" fill="#6FA72E"/>
  <path d="M252.187 584.255L211.797 583.281L187.945 734.399C187.945 734.399 196.709 738.34 199.292 742.661C199.292 742.661 233.524 750.754 239.005 744.752C244.485 738.75 260.672 613.104 260.672 613.104C260.672 613.104 253.444 596.427 252.187 584.255Z" fill="#6FA72E"/>
  <path d="M209.199 750.522C209.199 750.522 236.604 752.48 238.84 757.358C241.075 762.236 221.608 902.86 221.608 902.86C221.608 902.86 215.367 905.647 213.44 910.33L170.4 906.794L187.423 753.135C187.423 753.135 191.973 748.392 209.191 750.521L209.199 750.522Z" fill="#6FA72E"/>
  <path d="M221.153 922.765L173.501 917.386L155.641 1052.72L207.494 1056.98L221.153 922.765Z" fill="#6FA72E"/>
</svg>
