<svg width="435" height="703" viewBox="0 0 435 703" fill="none" xmlns="http://www.w3.org/2000/svg">
  <path d="M0 305.097L5.37158 508.109L25.0554 321.672L0 305.097Z" fill="#252525"/>
  <path d="M5.37207 508.109L74.0039 584.933L56.8527 447.453L80.1686 334.208L25.0559 321.672L5.37207 508.109Z" fill="#555456"/>
  <path d="M80.1684 334.208L56.8525 447.453L74.0037 584.933L118.238 639.92L149.395 648.013L213.908 703L187.068 563.096L213.052 499.213L213.908 348.088L108.342 340.49L80.1684 334.208Z" fill="#6D6D6D"/>
  <path d="M434.882 305.025L424.283 518.609L409.7 311.442L434.882 305.025Z" fill="#252525"/>
  <path d="M409.7 311.442L424.283 518.609L378.192 600.3L353.812 614.856L363.799 443.695L353.812 325.691L409.7 311.442Z" fill="#555456"/>
  <path d="M326.306 332.703L363.799 443.695L353.813 614.856L317.807 610.809L278.674 673.483L213.908 703L187.068 563.096L213.052 499.213L213.908 348.088L326.306 332.703Z" fill="#636363"/>
  <path d="M52.8241 327.99L56.8528 355.704L52.3554 381.967L50.9224 355.704L35.9072 324.123L52.8241 327.99Z" fill="#252525"/>
  <path d="M394.432 315.246L384.563 345.168L402.093 370.539L394.432 345.168L402.093 313.011L394.432 315.246Z" fill="#252525"/>
  <path d="M213.908 347.953L230.627 396.486L227.571 442.343L239.162 395.152L230.582 345.808L213.908 347.953Z" fill="#252525"/>
  <path d="M404.382 529.685L396.857 540.555L366.935 552.767L394.766 533.299L410.935 485.126L411.16 484.451L404.382 529.685Z" fill="#252525"/>
  <path d="M402.761 281.232L384.834 289.424H367.043L359.319 298.23L369.26 291.939L388.25 295.535L404.653 282.593L402.761 281.232Z" fill="#252525"/>
  <path d="M5.37207 508.109L21.2795 496.51L28.2914 462.009L25.6597 502.71L16.8363 520.934L5.37207 508.109Z" fill="#252525"/>
  <path d="M213.908 703L242.866 654.836L237.116 600.21L250.77 660.947L246.787 688.021L213.908 703Z" fill="#252525"/>
  <path d="M149.394 648.013L135.379 614.856L142.382 572.171L128.205 618.181L132.711 643.678L149.394 648.013Z" fill="#252525"/>
  <path d="M317.807 610.809L303.783 581.157L310.795 536.95L306.487 526.702L313.76 537.49L314.301 581.427L332.327 612.44L317.807 610.809Z" fill="#252525"/>
  <path d="M117.246 385.996L105.386 458.656L135.38 555.822V524.007L150.855 453.906L136.543 359.57L117.246 385.996Z" fill="#797C81"/>
  <path d="M279.881 443.695L287.073 493.463L275.573 547.017L300.016 491.471L279.881 443.695Z" fill="#252525"/>
  <path d="M115.317 397.829L97.3008 462.009L127.214 529.379L105.385 458.656L115.317 397.829Z" fill="#252525"/>
  <path d="M112.939 412.412L125.602 446.372V466.596L113.57 485.162L103.71 468.922V456.349L112.939 412.412Z" fill="#9F9F9F"/>
  <path d="M279.881 443.695L314.031 479.079L315.824 498.853L275.573 547.017L300.016 491.471L279.881 443.695Z" fill="#797C81"/>
  <path d="M402.76 280.213L322.601 275.22L318.329 268.515L316.545 272.462L312.949 264.576L302.169 269.551L298.213 266.64L294.626 269.551L292.102 266.64L278.385 272.462L213.908 268.443L72.0026 277.293L63.738 276.545L51.6429 270.768L46.3344 277.816L43.5585 276.121L42.7744 278.357L35.8256 270.768L34.2123 279.276L27.2004 276.121L26.4794 282.439L0 296.905L25.0554 321.672L108.342 340.49L213.908 348.088L326.306 332.703L434.593 296.004L402.76 280.213Z" fill="#6FA72E"/>
  <path d="M326.306 332.703L363.799 443.695L353.813 325.691L326.306 332.703Z" fill="#797C81"/>
  <path d="M0 296.905V305.097L25.0554 321.672L80.1681 334.208L108.342 340.49L213.908 348.088L326.306 332.703L353.812 325.691L409.7 311.442L434.882 305.025L434.593 296.004L352.208 317.895L323.791 323.015L213.908 336.948L118.499 330.117L85.0711 323.943L28.2909 313.011L0 296.905Z" fill="#496D20"/>
  <path opacity="0.8" d="M212.529 323.114C275.132 323.114 325.882 315.015 325.882 305.025C325.882 295.035 275.132 286.937 212.529 286.937C149.926 286.937 99.1758 295.035 99.1758 305.025C99.1758 315.015 149.926 323.114 212.529 323.114Z" fill="#3A5818"/>
  <path d="M228.319 346.114L237.918 395.216L230.906 428.734L239.162 395.152L230.582 345.808L228.319 346.114Z" fill="#9F9F9F"/>
  <path d="M35.9072 324.123L36.9978 324.385L51.6434 355.451L52.3554 381.967L50.9224 355.704L35.9072 324.123Z" fill="#9F9F9F"/>
  <path d="M401.318 313.578L393.333 345.276L402.093 370.539L394.433 345.168L402.093 313.389L401.318 313.578Z" fill="#9F9F9F"/>
  <path d="M411.16 484.451L403.337 529.505L395.974 540.194L366.935 552.767L396.857 540.555L404.382 529.685L411.16 484.451Z" fill="#9F9F9F"/>
  <path d="M246.787 688.021L250.77 660.947L237.116 600.21L249.148 660.604L243.948 689.31L246.787 688.021Z" fill="#9F9F9F"/>
  <path d="M5.94888 508.767L21.8563 497.104L28.2914 462.009L21.2795 496.51L5.37207 508.109L5.94888 508.767Z" fill="#9F9F9F"/>
  <path d="M332.75 132.374C332.75 132.374 477.223 82.4785 213.035 82.4785C-51.1525 82.4785 94.0524 132.374 94.0524 132.374H332.75Z" fill="#8E7450"/>
  <path d="M332.75 134.181H94.052C93.8532 134.181 93.6544 134.145 93.4646 134.082C88.9919 132.555 49.8761 118.73 52.2705 104.291C53.5084 96.8274 65.2188 91.3155 88.0612 87.4482C114.672 82.9484 156.715 80.6624 213.026 80.6624C269.337 80.6624 311.435 82.9574 338.063 87.4844C360.896 91.3697 372.607 96.8996 373.863 104.399C376.284 118.802 337.738 132.555 333.337 134.073C333.148 134.136 332.949 134.172 332.75 134.172V134.181ZM94.3592 130.567H332.452C347.975 125.164 371.748 113.544 370.312 105.005C369.011 97.2701 346.855 84.2857 213.044 84.2857C79.2333 84.2857 57.1227 97.1978 55.8397 104.887C54.412 113.453 78.5827 125.127 94.3501 130.567H94.3592Z" fill="black"/>
  <path d="M68.4355 93.5835C68.4355 93.5835 45.9816 107.345 103.612 125.615L94.0609 132.383C94.0609 132.383 25.2716 109.613 68.4355 93.5835Z" fill="#756042"/>
  <path d="M94.0521 134.181C93.8624 134.181 93.6726 134.154 93.4829 134.091C89.3083 132.708 52.6412 120.167 52.3882 105.963C52.2888 100.369 57.3307 95.7702 67.7942 91.8848C68.6616 91.5595 69.6375 91.948 70.0531 92.7884C70.4597 93.6197 70.1615 94.6317 69.3754 95.1196C69.1947 95.2371 65.49 97.6135 65.9689 101.409C66.484 105.447 72.1223 113.742 104.145 123.89C104.796 124.097 105.275 124.658 105.383 125.335C105.491 126.013 105.202 126.691 104.642 127.088L95.0912 133.856C94.784 134.073 94.4135 134.19 94.0431 134.19L94.0521 134.181ZM62.707 98.1195C58.9572 100.189 55.9573 102.809 56.0115 105.899C56.1832 115.522 82.5225 126.537 93.763 130.368L99.6272 126.212C75.9263 118.332 63.4028 110.128 62.3908 101.815C62.2281 100.451 62.3727 99.2128 62.707 98.1195Z" fill="black"/>
  <path d="M357.959 93.5835C357.959 93.5835 380.413 107.345 322.783 125.615L332.334 132.383C332.334 132.383 401.123 109.613 357.959 93.5835Z" fill="#756042"/>
  <path d="M332.343 134.181C331.972 134.181 331.611 134.064 331.295 133.847L321.744 127.079C321.184 126.682 320.895 126.004 321.003 125.326C321.111 124.649 321.59 124.088 322.241 123.88C354.264 113.733 359.902 105.438 360.417 101.399C360.896 97.5954 357.164 95.21 357.011 95.1106C356.224 94.6226 355.935 93.6106 356.342 92.7793C356.749 91.948 357.715 91.5595 358.592 91.8848C369.064 95.7702 374.106 100.378 373.998 105.963C373.745 120.158 337.087 132.708 332.903 134.091C332.713 134.154 332.524 134.181 332.334 134.181H332.343ZM326.777 126.212L332.641 130.368C343.882 126.537 370.221 115.522 370.393 105.899C370.447 102.809 367.447 100.189 363.697 98.1195C364.031 99.2128 364.185 100.451 364.013 101.815C363.001 110.137 350.478 118.342 326.777 126.212Z" fill="black"/>
  <path d="M61.9022 118.585C61.5318 118.585 61.1522 118.468 60.827 118.233C60.0228 117.637 59.8511 116.507 60.4475 115.703L66.6279 107.354C67.2243 106.55 68.3538 106.378 69.1579 106.975C69.9621 107.571 70.1338 108.7 69.5374 109.505L63.357 117.854C63.0046 118.332 62.4534 118.585 61.9022 118.585Z" fill="black"/>
  <path d="M69.3755 123.402C69.0322 123.402 68.6888 123.302 68.3816 123.103C67.5503 122.552 67.3244 121.432 67.8756 120.6L73.2428 112.495C73.794 111.664 74.9144 111.438 75.7457 111.989C76.577 112.541 76.8029 113.661 76.2517 114.492L70.8845 122.597C70.5411 123.121 69.9628 123.411 69.3755 123.411V123.402Z" fill="black"/>
  <path d="M76.9652 127.296C76.658 127.296 76.3418 127.215 76.0617 127.052C75.1942 126.555 74.9051 125.444 75.4111 124.585L80.191 116.363C80.688 115.504 81.7994 115.206 82.6578 115.703C83.5252 116.2 83.8144 117.311 83.3084 118.17L78.5284 126.392C78.1941 126.971 77.5887 127.296 76.9652 127.296Z" fill="black"/>
  <path d="M85.8565 131.136C85.6126 131.136 85.3596 131.082 85.1246 130.983C84.212 130.576 83.7964 129.51 84.203 128.597L88.0251 119.968C88.4317 119.055 89.498 118.64 90.4106 119.046C91.3232 119.453 91.7388 120.519 91.3322 121.432L87.5101 130.061C87.2119 130.739 86.5523 131.136 85.8565 131.136Z" fill="black"/>
  <path d="M370.276 112.414C369.77 112.414 369.273 112.206 368.912 111.8L361.051 102.809C360.391 102.059 360.472 100.912 361.222 100.261C361.972 99.6013 363.12 99.6827 363.77 100.433L371.631 109.423C372.291 110.173 372.21 111.321 371.46 111.971C371.116 112.269 370.692 112.414 370.267 112.414H370.276Z" fill="black"/>
  <path d="M364.159 118.586C363.608 118.586 363.056 118.332 362.704 117.854L357.066 110.227C356.469 109.423 356.641 108.294 357.445 107.697C358.249 107.101 359.379 107.273 359.975 108.077L365.613 115.703C366.21 116.507 366.038 117.637 365.234 118.233C364.909 118.468 364.538 118.586 364.159 118.586Z" fill="black"/>
  <path d="M356.695 123.402C356.107 123.402 355.538 123.121 355.186 122.588L350.126 114.953C349.574 114.122 349.8 113.001 350.632 112.45C351.463 111.899 352.583 112.125 353.134 112.956L358.195 120.591C358.746 121.423 358.52 122.543 357.689 123.094C357.381 123.302 357.038 123.393 356.695 123.393V123.402Z" fill="black"/>
  <path d="M349.095 127.296C348.472 127.296 347.866 126.971 347.532 126.392L343.068 118.703C342.571 117.836 342.86 116.733 343.719 116.236C344.586 115.73 345.689 116.028 346.186 116.896L350.649 124.585C351.146 125.453 350.857 126.555 349.999 127.052C349.709 127.215 349.402 127.296 349.095 127.296Z" fill="black"/>
  <path d="M340.214 131.136C339.518 131.136 338.859 130.739 338.56 130.061L335.036 122.1C334.63 121.188 335.036 120.122 335.958 119.715C336.871 119.308 337.937 119.715 338.343 120.637L341.867 128.597C342.274 129.51 341.867 130.576 340.946 130.983C340.711 131.091 340.458 131.136 340.214 131.136Z" fill="black"/>
  <path d="M55.7948 112.414C55.3701 112.414 54.9454 112.269 54.6021 111.971C53.8521 111.312 53.7708 110.173 54.4304 109.423L62.7704 99.8724C63.43 99.1224 64.5685 99.0411 65.3185 99.7007C66.0685 100.36 66.1498 101.499 65.4902 102.249L57.1502 111.8C56.7887 112.206 56.2918 112.414 55.7858 112.414H55.7948Z" fill="black"/>
  <path d="M187.096 267.307C187.096 267.307 179.273 300.789 152.136 305.197C124.999 309.604 140.519 246.812 140.519 246.812" fill="#CD6329"/>
  <path d="M140.519 246.812C140.519 246.812 124.999 309.604 152.136 305.197C179.273 300.789 187.096 267.307 187.096 267.307" stroke="black" stroke-width="4" stroke-linecap="round" stroke-linejoin="round"/>
  <path d="M284.514 246.812C284.514 246.812 300.034 309.604 272.897 305.197C245.76 300.789 237.937 267.307 237.937 267.307" fill="#CD6329"/>
  <path d="M284.514 246.812C284.514 246.812 300.034 309.604 272.897 305.197C245.76 300.789 237.937 267.307 237.937 267.307" stroke="black" stroke-width="4" stroke-linecap="round" stroke-linejoin="round"/>
  <path d="M275.521 307.224C274.593 307.224 273.619 307.143 272.619 306.981C244.616 302.43 236.523 269.137 236.189 267.722C235.991 266.874 236.424 266.009 237.217 265.658L283.795 245.163C284.029 245.064 284.272 245.01 284.525 245.01C284.795 245.01 285.065 245.073 285.318 245.199C285.795 245.433 286.147 245.866 286.273 246.389C286.697 248.101 296.512 288.478 285.624 302.385C283.11 305.602 279.712 307.233 275.53 307.233L275.521 307.224Z" fill="#8AB242"/>
  <path d="M284.515 246.812C284.515 246.812 298.999 305.422 275.512 305.422C274.682 305.422 273.817 305.35 272.898 305.197C245.761 300.789 237.938 267.307 237.938 267.307L284.515 246.812ZM284.515 243.207C284.02 243.207 283.524 243.306 283.064 243.513L236.487 264.008C234.9 264.711 234.035 266.442 234.432 268.127C234.513 268.488 236.577 277.149 242.156 286.45C249.717 299.059 260.145 306.774 272.33 308.757C273.43 308.937 274.502 309.027 275.521 309.027C280.216 309.027 284.2 307.116 287.039 303.493C291.978 297.184 293.6 285.468 291.879 268.659C290.635 256.609 288.129 246.38 288.03 245.956C287.778 244.919 287.075 244.054 286.12 243.586C285.615 243.342 285.074 243.216 284.524 243.216L284.515 243.207Z" fill="black"/>
  <path d="M237.938 267.307L284.515 246.812C284.515 246.812 285.813 252.076 287.003 259.457C287.003 259.457 277.576 274.734 262.137 280.754L259.046 294.724L250.601 292.101C241.146 281.06 237.929 267.307 237.929 267.307H237.938Z" fill="#72912F"/>
  <path d="M149.522 307.224C145.34 307.224 141.942 305.593 139.428 302.376C128.541 288.469 138.355 248.092 138.779 246.38C138.905 245.866 139.257 245.433 139.734 245.19C139.987 245.064 140.257 245.001 140.527 245.001C140.771 245.001 141.023 245.055 141.257 245.154L187.835 265.649C188.628 266 189.061 266.865 188.863 267.713C188.529 269.128 180.445 302.421 152.433 306.972C151.433 307.134 150.45 307.215 149.531 307.215L149.522 307.224Z" fill="#8AB242"/>
  <path d="M140.518 246.812L187.096 267.307C187.096 267.307 179.273 300.789 152.136 305.196C151.217 305.35 150.342 305.422 149.522 305.422C126.035 305.422 140.518 246.812 140.518 246.812ZM140.518 243.207C139.969 243.207 139.428 243.333 138.923 243.577C137.968 244.045 137.274 244.91 137.013 245.947C136.904 246.379 134.399 256.6 133.164 268.65C131.434 285.459 133.065 297.175 138.004 303.484C140.843 307.107 144.827 309.018 149.522 309.018C150.55 309.018 151.622 308.928 152.713 308.748C164.889 306.765 175.326 299.059 182.887 286.441C188.457 277.14 190.521 268.479 190.611 268.118C191.008 266.433 190.143 264.693 188.556 263.999L141.979 243.504C141.519 243.297 141.023 243.198 140.527 243.198L140.518 243.207Z" fill="black"/>
  <path d="M187.097 267.307L140.519 246.812C140.519 246.812 139.221 252.076 138.031 259.457C138.031 259.457 147.459 274.734 162.897 280.754L165.989 294.724L174.434 292.101C183.888 281.06 187.106 267.307 187.106 267.307H187.097Z" fill="#72912F"/>
  <path d="M95.3191 234.167C89.569 234.167 85.0176 230.553 81.791 223.424C69.1191 195.359 98.4465 160.353 99.7083 158.875C100.051 158.469 100.555 158.244 101.078 158.244C101.168 158.244 101.249 158.244 101.34 158.262C101.952 158.352 102.475 158.749 102.728 159.317L125.007 210.049C125.259 210.626 125.196 211.293 124.836 211.807C124.196 212.717 108.973 234.167 95.3191 234.167Z" fill="#8AB242"/>
  <path d="M101.087 160.038L123.367 210.761C123.367 210.761 108.198 232.356 95.3283 232.356C90.84 232.356 86.64 229.733 83.4495 222.667C71.1021 195.322 101.096 160.029 101.096 160.029M101.096 156.424C100.051 156.424 99.0416 156.883 98.3476 157.694C97.0588 159.208 67.0284 195.061 80.1599 224.154C84.5671 233.915 90.84 235.961 95.3283 235.961C109.659 235.961 124.656 215.196 126.314 212.834C127.035 211.807 127.17 210.464 126.666 209.31L104.386 158.587C103.89 157.451 102.836 156.649 101.61 156.469C101.439 156.442 101.259 156.433 101.087 156.433L101.096 156.424Z" fill="black"/>
  <path d="M101.087 160.038C101.087 160.038 99.6452 160.759 95.1658 168.059L91.4346 186.355L105.846 196.197L109.83 209.472L100.105 215.727L109.965 225.434C117.499 219.116 123.358 210.77 123.358 210.77L101.078 160.047L101.087 160.038Z" fill="#72912F"/>
  <path d="M328.74 234.167C315.086 234.167 299.863 212.717 299.223 211.807C298.863 211.293 298.791 210.626 299.052 210.049L321.331 159.317C321.584 158.749 322.107 158.352 322.719 158.262C322.81 158.253 322.891 158.244 322.981 158.244C323.503 158.244 324.008 158.469 324.351 158.875C325.603 160.353 354.94 195.359 342.268 223.424C339.05 230.553 334.499 234.167 328.749 234.167H328.74Z" fill="#8AB242"/>
  <path d="M322.98 160.038C322.98 160.038 352.975 195.322 340.627 222.676C337.437 229.742 333.228 232.365 328.749 232.365C315.878 232.365 300.71 210.77 300.71 210.77L322.989 160.047M322.989 156.442C322.818 156.442 322.638 156.451 322.467 156.478C321.241 156.658 320.186 157.46 319.691 158.596L297.411 209.319C296.907 210.473 297.042 211.807 297.763 212.843C299.421 215.214 314.418 235.97 328.749 235.97C333.237 235.97 339.51 233.924 343.917 224.163C357.058 195.07 327.018 159.217 325.729 157.703C325.035 156.892 324.035 156.433 322.98 156.433L322.989 156.442Z" fill="black"/>
  <path d="M322.98 160.038C322.98 160.038 324.422 160.759 328.902 168.059L332.633 186.355L318.222 196.197L314.238 209.472L323.963 215.727L314.103 225.434C306.568 219.116 300.71 210.77 300.71 210.77L322.989 160.047L322.98 160.038Z" fill="#72912F"/>
  <path d="M253.7 288.208C253.403 288.208 253.115 288.135 252.844 287.991L241.164 281.691C231.953 284.765 222.39 286.324 212.747 286.324C203.103 286.324 193.324 284.729 184.005 281.583L172.126 287.991C171.856 288.135 171.567 288.208 171.27 288.208C170.973 288.208 170.684 288.135 170.423 287.991C169.891 287.703 169.54 287.171 169.476 286.567L168.368 274.634C157.084 268.353 146.972 259.817 138.283 249.264H122.926C122.394 249.264 121.889 249.029 121.547 248.615C121.204 248.2 121.06 247.668 121.159 247.137L124.44 228.94L108.596 217.773C108.037 217.377 107.748 216.701 107.856 216.025C107.965 215.349 108.442 214.79 109.091 214.583L117.356 211.969C115.166 205.831 113.399 199.441 112.101 192.925L99.1232 184.381C98.4562 183.948 98.1588 183.128 98.3841 182.362L103.422 165.292L93.1928 131.035C92.9765 130.296 93.2469 129.503 93.8688 129.052L109.208 118.029L104.396 91.0182C104.278 90.3783 104.522 89.7294 105.017 89.3148C105.351 89.0354 105.757 88.8912 106.171 88.8912C106.378 88.8912 106.595 88.9273 106.793 88.9994L116.049 92.4242V66.8912C116.049 66.1521 116.5 65.4942 117.176 65.2238C117.392 65.1337 117.626 65.0886 117.852 65.0886C118.329 65.0886 118.807 65.2779 119.149 65.6384L127.946 74.7863L136.49 50.7134C136.742 50.0014 137.409 49.5237 138.166 49.5147H138.193C138.932 49.5147 139.608 49.9743 139.87 50.6683L143.394 59.7351L184.798 32.715C185.096 32.5167 185.438 32.4175 185.78 32.4175C186.078 32.4175 186.366 32.4896 186.637 32.6338C187.223 32.9493 187.583 33.5531 187.583 34.2201V39.7449L211.773 23.8374C212.071 23.6391 212.422 23.54 212.765 23.54C213.107 23.54 213.459 23.6391 213.756 23.8374L237.946 39.7449V34.2201C237.946 33.5622 238.307 32.9493 238.892 32.6338C239.163 32.4896 239.46 32.4175 239.749 32.4175C240.091 32.4175 240.434 32.5167 240.731 32.715L282.135 59.7351L285.659 50.6683C285.93 49.9743 286.597 49.5147 287.336 49.5147H287.363C288.12 49.5237 288.787 50.0014 289.039 50.7134L297.583 74.7863L306.38 65.6384C306.722 65.2779 307.2 65.0886 307.678 65.0886C307.903 65.0886 308.128 65.1337 308.354 65.2238C309.038 65.4942 309.48 66.1612 309.48 66.8912V92.4242L318.736 88.9994C318.943 88.9273 319.151 88.8912 319.358 88.8912C319.773 88.8912 320.187 89.0354 320.512 89.3148C321.007 89.7294 321.242 90.3783 321.134 91.0182L316.321 118.029L331.66 129.052C332.282 129.503 332.553 130.296 332.336 131.035L322.098 165.319L325.559 178.523C325.73 179.163 325.532 179.857 325.036 180.307L313.878 190.6C312.535 197.963 310.607 205.191 308.119 212.113L315.915 214.574C316.573 214.781 317.051 215.34 317.15 216.016C317.258 216.692 316.97 217.368 316.411 217.764L300.801 228.76C300.738 228.886 300.666 229.012 300.603 229.138L303.838 247.128C303.928 247.65 303.793 248.191 303.451 248.606C303.108 249.011 302.603 249.255 302.072 249.255H287.237C278.395 259.998 268.103 268.632 256.602 274.932L255.521 286.558C255.467 287.162 255.106 287.694 254.575 287.982C254.313 288.126 254.016 288.199 253.727 288.199L253.7 288.208Z" fill="#8AB242"/>
  <path d="M212.746 25.3966L239.721 43.1337V34.2652L282.991 62.493L287.317 51.3533L296.835 78.1751L307.65 66.9273V95.047L319.331 90.7208L314.32 118.841L330.579 130.521L320.196 165.292L323.783 178.982L312.184 189.69C310.732 197.891 308.56 205.786 305.748 213.267L315.338 216.295L299.376 227.543C299.151 227.976 298.917 228.417 298.682 228.85L302.035 247.452H286.344C277.439 258.439 266.759 267.433 254.854 273.805L253.682 286.387L241.317 279.718C232.25 282.836 222.66 284.512 212.737 284.512C202.814 284.512 192.999 282.791 183.833 279.609L171.261 286.387L170.062 273.499C158.381 267.145 147.891 258.258 139.13 247.443H122.916L126.395 228.12L109.614 216.295L119.672 213.114C117.139 206.327 115.129 199.207 113.696 191.826L100.087 182.867L105.278 165.283L94.8958 130.512L111.155 118.832L106.144 90.7118L117.824 95.0379V66.9183L128.639 78.1661L138.157 51.3443L142.483 62.484L185.753 34.2561V43.1247L212.728 25.3876M212.746 21.7916C212.052 21.7916 211.367 21.9898 210.763 22.3864L189.367 36.4553V34.2742C189.367 32.9493 188.646 31.7326 187.475 31.1017C186.934 30.8133 186.348 30.6691 185.762 30.6691C185.077 30.6691 184.392 30.8674 183.788 31.2549L144.24 57.0583L141.519 50.0554C140.978 48.6675 139.644 47.7572 138.157 47.7572C138.139 47.7572 138.121 47.7572 138.103 47.7572C136.598 47.7752 135.264 48.7396 134.759 50.1546L127.188 71.4787L120.42 64.4398C119.726 63.7187 118.78 63.3312 117.824 63.3312C117.374 63.3312 116.914 63.4123 116.481 63.5926C115.12 64.1423 114.219 65.4672 114.219 66.9363V89.8827L107.396 87.3591C106.991 87.2059 106.567 87.1338 106.144 87.1338C105.315 87.1338 104.494 87.4222 103.827 87.972C102.836 88.8011 102.367 90.099 102.593 91.3698L107.207 117.254L92.7959 127.61C91.5521 128.511 91.0024 130.097 91.444 131.566L101.52 165.31L96.6353 181.867C96.1847 183.39 96.7885 185.021 98.1134 185.895L110.461 194.025C111.632 199.748 113.165 205.381 115.021 210.815L108.532 212.87C107.225 213.285 106.27 214.402 106.054 215.754C105.846 217.106 106.423 218.467 107.541 219.251L122.448 229.751L119.374 246.812C119.185 247.867 119.474 248.948 120.159 249.759C120.843 250.579 121.853 251.048 122.925 251.048H137.436C145.926 261.224 155.75 269.515 166.664 275.725L167.683 286.721C167.791 287.928 168.503 288.992 169.566 289.569C170.098 289.857 170.684 289.992 171.27 289.992C171.855 289.992 172.45 289.848 172.982 289.56L184.176 283.521C193.45 286.567 203.049 288.108 212.746 288.108C222.444 288.108 231.817 286.603 240.992 283.62L251.988 289.551C252.519 289.839 253.114 289.983 253.7 289.983C254.286 289.983 254.872 289.839 255.403 289.56C256.467 288.992 257.179 287.919 257.287 286.712L258.278 276.031C269.409 269.795 279.413 261.395 288.056 251.039H302.044C303.108 251.039 304.126 250.561 304.811 249.75C305.496 248.93 305.785 247.849 305.595 246.803L302.522 229.742L317.429 219.242C318.547 218.449 319.123 217.097 318.916 215.745C318.709 214.393 317.744 213.276 316.438 212.861L310.417 210.96C312.571 204.669 314.283 198.152 315.518 191.519L326.234 181.632C327.217 180.731 327.613 179.361 327.28 178.072L323.945 165.355L334.039 131.557C334.481 130.088 333.94 128.493 332.687 127.601L318.276 117.245L322.864 91.4959C322.918 91.2436 322.945 90.9912 322.945 90.7208C322.945 88.7381 321.349 87.1338 319.367 87.1158C319.358 87.1158 319.349 87.1158 319.34 87.1158C319.286 87.1158 319.24 87.1158 319.186 87.1158C318.772 87.1338 318.384 87.2239 318.015 87.3681L311.264 89.8646V66.9183C311.264 65.4492 310.372 64.1243 309.002 63.5745C308.569 63.3943 308.11 63.3132 307.659 63.3132C306.695 63.3132 305.757 63.7007 305.063 64.4217L298.295 71.4607L290.724 50.1366C290.22 48.7126 288.886 47.7572 287.381 47.7392C287.362 47.7392 287.344 47.7392 287.326 47.7392C285.839 47.7392 284.505 48.6495 283.965 50.0374L281.243 57.0403L241.695 31.2369C241.1 30.8493 240.415 30.6511 239.721 30.6511C239.135 30.6511 238.541 30.7953 238.009 31.0837C236.846 31.7146 236.116 32.9313 236.116 34.2561V36.4372L214.72 22.3684C214.116 21.9718 213.431 21.7735 212.737 21.7735L212.746 21.7916Z" fill="black"/>
  <path d="M111.164 118.859L114.517 111.369L106.162 90.7298L111.164 118.859Z" fill="#72912F"/>
  <path d="M314.329 118.859L308.57 110.414L319.341 90.7298L314.329 118.859Z" fill="#72912F"/>
  <path d="M119.68 213.141L109.622 216.322L126.404 228.147L122.925 247.47H139.139C147.908 258.285 158.39 267.172 170.07 273.526L171.269 286.414L183.842 279.636C192.999 282.818 202.697 284.539 212.746 284.539C222.795 284.539 232.258 282.863 241.325 279.745L253.691 286.414L254.862 273.832C266.768 267.46 277.439 258.466 286.353 247.479H302.044L298.691 228.877C298.925 228.444 299.16 228.012 299.385 227.57L315.347 216.322L305.757 213.294C308.569 205.804 310.732 197.909 312.192 189.708L323.791 179L308.56 185.075C308.56 185.075 306.857 205.254 300.241 216.286L307.523 217.611L297.6 224.226C297.6 224.226 277.088 256.87 251.059 267.01L249.518 274.4L238.044 271.345C238.044 271.345 228.473 275.391 212.746 275.391C197.019 275.391 187.447 271.345 187.447 271.345L175.974 274.4L174.433 267.01C148.404 256.861 127.891 224.226 127.891 224.226L117.968 217.611L125.25 216.286C118.635 205.254 116.931 188.058 116.931 188.058L100.096 182.903L113.705 191.862C115.138 199.243 117.139 206.363 119.68 213.15V213.141Z" fill="#72912F"/>
  <path d="M105.296 165.301L108.342 153.53L94.9043 130.539L105.296 165.301Z" fill="#72912F"/>
  <path d="M320.123 165.301L317.077 153.53L330.515 130.539L320.123 165.301Z" fill="#72912F"/>
  <path d="M117.843 95.056L123.494 88.3325L117.843 66.9363V95.056Z" fill="#72912F"/>
  <path d="M307.65 95.056L302.008 88.3325L307.65 66.9363V95.056Z" fill="#72912F"/>
  <path d="M142.501 62.502L139.004 66.9362L138.175 51.3622L142.501 62.502Z" fill="#BF7F00"/>
  <path d="M283 62.502L286.497 66.9362L287.326 51.3622L283 62.502Z" fill="#BF7F00"/>
  <path d="M211.268 70.2709C223.712 70.2709 233.8 66.7644 233.8 62.4389C233.8 58.1134 223.712 54.6068 211.268 54.6068C198.824 54.6068 188.736 58.1134 188.736 62.4389C188.736 66.7644 198.824 70.2709 211.268 70.2709Z" fill="#BF7F00"/>
  <path d="M233.8 62.4389C233.8 66.765 223.715 70.271 211.268 70.271C198.822 70.271 188.736 66.765 188.736 62.4389" stroke="#FFC55F" stroke-width="4" stroke-linecap="round" stroke-linejoin="round"/>
  <path d="M198.451 173.638C207.473 169.916 217.594 169.916 226.616 173.638" stroke="black" stroke-width="4" stroke-linecap="round" stroke-linejoin="round"/>
  <path d="M203.859 177.621C209.411 175.332 215.648 175.332 221.2 177.621" stroke="#72912F" stroke-width="4" stroke-linecap="round" stroke-linejoin="round"/>
  <path d="M132.163 153.53C132.163 153.53 142.149 166.085 161.599 165.49" stroke="#C5FF5F" stroke-width="4" stroke-linecap="round" stroke-linejoin="round"/>
  <path d="M292.878 153.53C292.878 153.53 282.892 166.085 263.442 165.49" stroke="#C5FF5F" stroke-width="4" stroke-linecap="round" stroke-linejoin="round"/>
  <path d="M219.956 130.539C219.956 130.539 221.696 143.274 228.617 151.07" stroke="#72912F" stroke-width="4" stroke-linecap="round" stroke-linejoin="round"/>
  <path d="M205.581 130.539C205.581 130.539 203.842 143.274 196.92 151.07" stroke="#72912F" stroke-width="4" stroke-linecap="round" stroke-linejoin="round"/>
  <path d="M137.192 212.014L161.725 205.182L158.408 220.91L136.174 212.014" fill="#72912F"/>
  <path d="M158.409 220.91L136.761 212.005L143.16 203.118" stroke="black" stroke-width="4" stroke-linecap="round" stroke-linejoin="round"/>
  <path d="M175.28 252.688L187.267 236.79L190.142 250.688L175.28 252.688Z" fill="#72912F"/>
  <path d="M190.143 250.688L175.281 252.688L173.379 240.539" stroke="black" stroke-width="4" stroke-linecap="round" stroke-linejoin="round"/>
  <path d="M187.7 222L198.588 209.761L200.021 221.342L187.7 222Z" fill="#72912F"/>
  <path d="M200.021 221.342L187.7 222L186.943 211.915" stroke="black" stroke-width="4" stroke-linecap="round" stroke-linejoin="round"/>
  <path d="M236.359 222L225.472 209.761L224.039 221.342L236.359 222Z" fill="#72912F"/>
  <path d="M224.039 221.342L236.359 222L237.117 211.915" stroke="black" stroke-width="4" stroke-linecap="round" stroke-linejoin="round"/>
  <path d="M288.309 212.014L263.776 205.182L267.093 220.91L289.327 212.014" fill="#72912F"/>
  <path d="M267.093 220.91L288.732 212.005L282.342 203.118" stroke="black" stroke-width="4" stroke-linecap="round" stroke-linejoin="round"/>
  <path d="M250.221 252.688L238.225 236.79L235.359 250.688L250.221 252.688Z" fill="#72912F"/>
  <path d="M235.359 250.688L250.221 252.688L252.123 240.539" stroke="black" stroke-width="4" stroke-linecap="round" stroke-linejoin="round"/>
  <path d="M262.929 160.407C225.752 160.407 224.814 127.186 224.814 126.853C224.814 126.303 225.049 125.789 225.463 125.438C226.049 124.951 240.145 113.487 265.849 113.487C275.709 113.487 286.02 115.208 296.511 118.597C297.205 118.822 297.7 119.453 297.754 120.183C297.808 120.94 298.989 138.903 288.048 150.664C282.045 157.127 273.591 160.398 262.92 160.398L262.929 160.407Z" fill="white"/>
  <path d="M265.858 115.299C274.574 115.299 284.641 116.659 295.97 120.328C295.97 120.328 298.764 158.614 262.938 158.614C227.113 158.614 226.626 126.835 226.626 126.835C226.626 126.835 240.514 115.299 265.867 115.299M265.867 111.693C239.523 111.693 224.931 123.554 224.328 124.059C223.489 124.753 223.012 125.798 223.03 126.889C223.03 127.249 223.219 135.875 228.239 144.527C232.908 152.593 242.723 162.21 262.956 162.21C274.141 162.21 283.036 158.74 289.399 151.899C300.864 139.561 299.638 120.85 299.584 120.057C299.476 118.597 298.493 117.344 297.096 116.894C286.425 113.442 275.925 111.693 265.885 111.693H265.867Z" fill="black"/>
  <path d="M292.564 123.284C292.564 123.284 257.865 110.936 230.069 129.016" stroke="#DBDBDB" stroke-width="4" stroke-linecap="round" stroke-linejoin="round"/>
  <path d="M162.131 160.407C151.468 160.407 143.015 157.136 137.003 150.673C126.062 138.912 127.242 120.949 127.296 120.192C127.35 119.462 127.837 118.831 128.54 118.606C139.031 115.217 149.35 113.496 159.201 113.496C184.906 113.496 199.002 124.96 199.587 125.447C200.011 125.798 200.245 126.312 200.236 126.862C200.236 127.195 199.299 160.416 162.121 160.416L162.131 160.407Z" fill="white"/>
  <path d="M159.21 115.299C184.563 115.299 198.452 126.835 198.452 126.835C198.452 126.835 197.965 158.614 162.14 158.614C126.314 158.614 129.108 120.328 129.108 120.328C140.437 116.668 150.504 115.299 159.219 115.299M159.219 111.693C149.17 111.693 138.67 113.442 127.999 116.894C126.602 117.344 125.62 118.597 125.512 120.057C125.458 120.85 124.232 139.561 135.696 151.899C142.059 158.74 150.955 162.21 162.14 162.21C182.364 162.21 192.179 152.593 196.857 144.527C201.868 135.866 202.057 127.249 202.066 126.889C202.084 125.798 201.606 124.762 200.768 124.059C200.164 123.554 185.573 111.693 159.228 111.693H159.219Z" fill="black"/>
  <path d="M164.149 143.607C169.619 143.607 174.054 139.173 174.054 133.702C174.054 128.232 169.619 123.797 164.149 123.797C158.679 123.797 154.244 128.232 154.244 133.702C154.244 139.173 158.679 143.607 164.149 143.607Z" fill="black"/>
  <path d="M159.346 133.702C161.78 133.702 163.753 131.729 163.753 129.295C163.753 126.861 161.78 124.888 159.346 124.888C156.912 124.888 154.938 126.861 154.938 129.295C154.938 131.729 156.912 133.702 159.346 133.702Z" fill="white"/>
  <path d="M261.325 143.607C266.795 143.607 271.23 139.173 271.23 133.702C271.23 128.232 266.795 123.797 261.325 123.797C255.855 123.797 251.42 128.232 251.42 133.702C251.42 139.173 255.855 143.607 261.325 143.607Z" fill="black"/>
  <path d="M132.163 123.284C132.163 123.284 166.862 110.936 194.657 129.016" stroke="#DBDBDB" stroke-width="4" stroke-linecap="round" stroke-linejoin="round"/>
  <path d="M256.909 133.702C259.343 133.702 261.316 131.729 261.316 129.295C261.316 126.861 259.343 124.888 256.909 124.888C254.475 124.888 252.502 126.861 252.502 129.295C252.502 131.729 254.475 133.702 256.909 133.702Z" fill="white"/>
  <path d="M204.509 120.968C204.139 120.968 203.779 120.859 203.463 120.634C203.274 120.499 183.761 106.881 155.218 106.881C145.43 106.881 135.597 108.476 126.017 111.63C125.828 111.693 125.638 111.72 125.458 111.72C124.926 111.72 124.422 111.486 124.07 111.063C123.601 110.495 123.52 109.693 123.881 109.044L132.488 93.5148C132.668 93.1903 132.939 92.938 133.263 92.7757L147.819 85.5836C148.071 85.4574 148.341 85.3943 148.621 85.3943C148.747 85.3943 148.864 85.4033 148.99 85.4304L196.226 95.2542C196.821 95.3804 197.307 95.786 197.533 96.3448L199.407 101.022L201.336 98.2825C201.679 97.7958 202.237 97.5164 202.814 97.5164C202.967 97.5164 203.13 97.5345 203.283 97.5795C204.013 97.7778 204.545 98.4087 204.608 99.1658L206.32 119.003C206.383 119.706 206.032 120.373 205.419 120.724C205.139 120.886 204.833 120.959 204.527 120.959L204.509 120.968Z" fill="#72912F"/>
  <path d="M148.612 87.1969L195.847 97.0207L198.957 104.79L202.796 99.328L204.509 119.165C204.509 119.165 184.735 105.078 155.218 105.078C146.124 105.078 136.102 106.412 125.449 109.918L134.056 94.389L148.612 87.1969ZM148.612 83.5918C148.062 83.5918 147.512 83.718 147.017 83.9613L132.461 91.1534C131.803 91.4779 131.262 92.0006 130.902 92.6405L122.295 108.169C121.574 109.467 121.727 111.072 122.673 112.216C123.367 113.063 124.395 113.523 125.449 113.523C125.828 113.523 126.206 113.46 126.576 113.343C135.985 110.251 145.62 108.683 155.218 108.683C183.257 108.683 202.228 121.968 202.418 122.103C203.04 122.545 203.77 122.77 204.509 122.77C205.122 122.77 205.743 122.617 206.293 122.292C207.51 121.598 208.222 120.256 208.096 118.85L206.383 99.0125C206.257 97.5074 205.194 96.2366 203.725 95.8401C203.418 95.7589 203.103 95.7139 202.787 95.7139C201.634 95.7139 200.525 96.2727 199.84 97.246L199.822 97.2641L199.182 95.6688C198.732 94.5512 197.749 93.7221 196.568 93.4787L149.333 83.6549C149.089 83.6008 148.846 83.5828 148.603 83.5828L148.612 83.5918Z" fill="black"/>
  <path d="M204.509 119.165L202.796 99.3279L201.327 112.559C167.629 94.389 131.1 104.79 131.1 104.79L134.056 94.389L125.449 109.918C170.666 95.0649 204.509 119.165 204.509 119.165Z" fill="#607527"/>
  <path d="M219.551 120.968C219.244 120.968 218.938 120.886 218.659 120.733C218.046 120.382 217.694 119.715 217.757 119.012L219.47 99.1748C219.533 98.4177 220.065 97.7868 220.795 97.5885C220.948 97.5435 221.11 97.5254 221.263 97.5254C221.84 97.5254 222.399 97.8048 222.741 98.2915L224.67 101.031L226.545 96.3538C226.77 95.795 227.257 95.3804 227.852 95.2632L275.087 85.4394C275.204 85.4123 275.331 85.4033 275.457 85.4033C275.736 85.4033 276.006 85.4664 276.259 85.5926L290.814 92.7847C291.148 92.947 291.418 93.2083 291.589 93.5238L300.197 109.053C300.557 109.702 300.485 110.504 300.007 111.072C299.656 111.495 299.142 111.729 298.619 111.729C298.43 111.729 298.241 111.702 298.061 111.639C288.471 108.485 278.647 106.89 268.859 106.89C240.316 106.89 220.813 120.508 220.614 120.643C220.299 120.868 219.938 120.977 219.569 120.977L219.551 120.968Z" fill="#72912F"/>
  <path d="M275.448 87.1968L290.004 94.389L298.611 109.918C287.958 106.421 277.936 105.078 268.842 105.078C239.325 105.078 219.551 119.165 219.551 119.165L221.264 99.328L225.103 104.79L228.212 97.0207L275.448 87.1968ZM275.448 83.5918C275.205 83.5918 274.952 83.6188 274.718 83.6639L227.482 93.4877C226.302 93.7311 225.319 94.5602 224.869 95.6778L224.229 97.2731L224.211 97.255C223.526 96.2817 222.417 95.7229 221.264 95.7229C220.948 95.7229 220.642 95.7589 220.326 95.849C218.866 96.2456 217.803 97.5074 217.667 99.0215L215.955 118.859C215.838 120.256 216.541 121.598 217.758 122.301C218.316 122.617 218.929 122.779 219.542 122.779C220.281 122.779 221.011 122.554 221.633 122.112C221.822 121.977 240.92 108.692 268.833 108.692C278.431 108.692 288.066 110.26 297.475 113.352C297.845 113.469 298.223 113.532 298.602 113.532C299.656 113.532 300.684 113.063 301.378 112.225C302.324 111.081 302.468 109.476 301.756 108.178L293.149 92.6495C292.798 92.0096 292.248 91.4869 291.59 91.1624L277.034 83.9703C276.539 83.7269 275.989 83.6008 275.439 83.6008L275.448 83.5918Z" fill="black"/>
  <path d="M219.551 119.165L221.263 99.328L222.732 112.559C256.431 94.389 292.959 104.79 292.959 104.79L290.003 94.389L298.61 109.918C253.394 95.0649 219.551 119.165 219.551 119.165Z" fill="#607527"/>
  <path d="M61.1611 96.8906L209.33 1.80716L216.911 1.92462L365.043 96.99C365.043 96.99 351.291 82.4876 213.025 82.4876C74.76 82.4876 61.1611 96.8906 61.1611 96.8906Z" fill="#E9CF9E"/>
  <path d="M365.043 98.7881C364.709 98.7881 364.366 98.6978 364.068 98.499L362.034 97.1888C355.511 93.9449 326.515 84.2767 213.035 84.2767C99.5543 84.2767 70.3778 93.9901 64.0347 97.1888L62.1371 98.4086C61.3691 98.9056 60.3571 98.7429 59.7698 98.0381C59.1915 97.3334 59.2186 96.3033 59.8511 95.6437C59.9414 95.5443 60.3932 95.1105 61.6131 94.4509L208.354 0.289145C208.652 0.0993935 208.987 0.00903577 209.357 0L216.938 0.117465C217.272 0.117465 217.607 0.225894 217.887 0.40661L364.574 94.5413C365.811 95.2099 366.263 95.6527 366.354 95.7521C366.986 96.4117 367.013 97.4418 366.435 98.1466C366.082 98.5713 365.567 98.7971 365.043 98.7971V98.7881ZM213.026 80.6714C293.959 80.6714 332.533 85.6772 350.704 89.924L216.369 3.72274L209.845 3.62335L75.4378 89.8698C93.5545 85.6501 132.092 80.6714 213.035 80.6714H213.026Z" fill="black"/>
  <path d="M83.615 82.4785C83.615 82.4785 105.59 71.6537 212.809 71.6537C320.027 71.6537 342.445 82.4785 342.445 82.4785L359.161 93.204C359.161 93.204 323.452 82.4785 213.034 82.4785C102.617 82.4785 66.3115 93.5835 66.3115 93.5835L83.606 82.4876L83.615 82.4785Z" fill="#C5AF76"/>
  <path d="M66.3116 95.3907C65.6249 95.3907 64.9743 94.9931 64.6761 94.3425C64.2966 93.5203 64.5768 92.5534 65.3358 92.0655L82.6302 80.9696C82.6844 80.9334 82.7477 80.8973 82.8109 80.8702C83.7236 80.4184 106.394 69.8556 212.8 69.8556C319.205 69.8556 342.291 80.4093 343.222 80.8611C343.285 80.8973 343.348 80.9244 343.412 80.9696L360.128 91.695C360.887 92.183 361.167 93.1498 360.797 93.972C360.417 94.7943 359.495 95.2009 358.637 94.9479C358.285 94.8395 321.735 84.2947 213.025 84.2947C104.316 84.2947 67.1971 95.2009 66.8357 95.3184C66.664 95.3726 66.4833 95.3997 66.3116 95.3997V95.3907ZM84.4735 84.0779L75.9618 89.5445C93.175 86.2645 134.08 80.6804 213.035 80.6804C291.989 80.6804 332.596 86.0748 349.628 89.2463L341.577 84.0869C340.023 83.4273 314.813 73.4699 212.8 73.4699C110.786 73.4699 86.0096 83.4183 84.4735 84.0779Z" fill="black"/>
  <path d="M150.814 73.1536L157.483 66.4672L169.916 65.8979L174.949 59.2928C174.949 59.2928 191.674 55.6423 213.884 58.6603L216.992 51.4226H231.947L235.272 42.7121C235.272 42.7121 262.153 37.9322 283.315 44.5373L265.677 33.2155C239.464 25.9688 220.218 32.6282 220.218 32.6282L216.622 40.0375H203.303L198.867 46.1457C178.663 43.6157 163.266 48.4679 163.266 48.4679L154.456 57.5308H143.351L136.556 63.2233C119.767 63.648 107.533 67.1268 107.533 67.1268L83.6152 82.4786C83.6152 82.4786 100.331 75.9095 150.814 73.1446V73.1536Z" fill="#C5AF76"/>
  <path d="M83.615 84.2857C82.9554 84.2857 82.3229 83.9243 82.0066 83.3008C81.5819 82.4695 81.862 81.4575 82.6391 80.9605L106.557 65.6088C106.71 65.5094 106.864 65.4371 107.036 65.3919C107.542 65.2473 119.379 61.9222 135.878 61.4342L142.194 56.1483C142.519 55.8772 142.926 55.7236 143.35 55.7236H153.687L161.964 47.2119C162.172 46.9951 162.434 46.8415 162.714 46.7511C163.347 46.5523 178.183 41.9802 198.017 44.2392L201.83 38.9803C202.173 38.5105 202.716 38.2394 203.294 38.2394H215.483L218.582 31.8421C218.79 31.4084 219.161 31.0831 219.612 30.9204C220.417 30.6403 239.69 24.1617 266.147 31.4716C266.318 31.5168 266.49 31.5981 266.644 31.6885L284.281 43.0103C285.04 43.4982 285.33 44.4741 284.941 45.2964C284.562 46.1186 283.631 46.5252 282.763 46.2541C264.538 40.5616 241.596 43.5615 236.573 44.3205L233.618 52.0551C233.347 52.7509 232.678 53.2207 231.928 53.2207H218.167L215.528 59.365C215.203 60.115 214.426 60.5487 213.622 60.4403C194.412 57.829 179.195 60.3138 175.961 60.9282L171.343 66.9912C171.018 67.4159 170.521 67.678 169.988 67.7051L158.25 68.2472L152.07 74.4367C151.754 74.753 151.338 74.9427 150.886 74.9608C101.443 77.6625 84.4101 84.105 84.2475 84.1683C84.0306 84.2496 83.8138 84.2948 83.5879 84.2948L83.615 84.2857ZM108.274 68.7984L94.2591 77.798C104.325 75.6837 121.881 72.9549 150.028 71.3826L156.208 65.1841C156.525 64.8678 156.958 64.6781 157.401 64.651L168.994 64.1179L173.512 58.1814C173.774 57.838 174.144 57.6031 174.56 57.5127C175.247 57.3681 191.177 53.9707 212.754 56.6724L215.32 50.6907C215.61 50.0311 216.26 49.5974 216.983 49.5974H230.69L233.573 42.0525C233.799 41.4561 234.323 41.0315 234.946 40.914C235.886 40.7423 254.87 37.4533 273.601 40.4351L264.927 34.8691C242.464 28.7338 225.115 33.0529 221.492 34.1101L218.239 40.8146C217.941 41.4381 217.308 41.8356 216.613 41.8356H204.215L200.312 47.2029C199.923 47.736 199.282 48.0161 198.622 47.9348C180.894 45.721 166.798 49.3353 164.214 50.0582L155.739 58.7777C155.395 59.1301 154.934 59.3289 154.446 59.3289H144.001L137.712 64.5968C137.396 64.8588 137.007 65.0034 136.601 65.0214C121.547 65.4009 110.081 68.3105 108.274 68.7894V68.7984Z" fill="black"/>
  <path d="M225.577 71.6537L229.725 62.9522L245.158 62.8709L249.983 53.4647C249.983 53.4647 278.581 47.989 304.785 58.2988L325.585 71.6447C296.354 60.4042 264.35 65.0395 264.35 65.0395L261.982 72.5392L225.595 71.6447L225.577 71.6537Z" fill="#C5AF76"/>
  <path d="M261.973 74.3554C261.973 74.3554 261.946 74.3554 261.928 74.3554L225.541 73.4609C224.926 73.4428 224.366 73.1175 224.041 72.6024C223.725 72.0784 223.689 71.4368 223.951 70.8766L228.098 62.1752C228.396 61.5517 229.029 61.1451 229.724 61.1451L244.055 61.0728L248.374 52.6424C248.627 52.1455 249.097 51.7931 249.639 51.6937C250.832 51.4678 279.051 46.2361 305.435 56.6182C305.544 56.6633 305.652 56.7176 305.752 56.7808L326.552 70.1266C327.329 70.6236 327.609 71.6356 327.184 72.4669C326.769 73.2982 325.793 73.6687 324.925 73.3344C299.508 63.5576 271.578 66.0334 265.714 66.6931L263.69 73.0813C263.455 73.8313 262.75 74.3464 261.964 74.3464L261.973 74.3554ZM228.414 69.9188L260.663 70.714L262.624 64.5154C262.832 63.8558 263.401 63.3679 264.088 63.2685C265.217 63.1059 288.376 59.8801 313.387 65.9792L303.953 59.9253C281.102 50.9889 256.073 54.3231 251.175 55.1092L246.766 63.7113C246.459 64.3076 245.844 64.6871 245.167 64.6961L230.872 64.7684L228.414 69.9279V69.9188Z" fill="black"/>
  <path d="M138.843 47.0402L146.984 46.3626L158.83 36.8117C182.205 32.6282 190.509 35.2666 190.509 35.2666L195.099 28.5259H206.494L210.198 21.9208C231.956 16.8608 245.745 20.4208 245.745 20.4208L226.842 8.29484C226.842 8.29484 214.788 7.02983 202.355 11.9453L198.063 18.2703L183.127 18.6408L176.748 26.276H171.227L138.852 47.0493L138.843 47.0402Z" fill="#C5AF76"/>
  <path d="M138.843 48.8474C138.075 48.8474 137.379 48.3595 137.135 47.6185C136.873 46.8324 137.171 45.965 137.867 45.5132L170.242 24.74C170.531 24.5502 170.875 24.4508 171.218 24.4508H175.89L181.727 17.4662C182.061 17.0686 182.549 16.8337 183.073 16.8156L197.078 16.4632L200.846 10.9062C201.054 10.608 201.334 10.3731 201.678 10.2375C214.382 5.21364 226.508 6.4154 227.023 6.46962C227.303 6.49672 227.574 6.59612 227.809 6.74973L246.712 18.8757C247.462 19.3546 247.751 20.3034 247.39 21.1166C247.037 21.9298 246.143 22.3635 245.284 22.1467C245.158 22.1105 231.938 18.8577 211.382 23.484L208.075 29.3843C207.759 29.9536 207.153 30.306 206.494 30.306H196.048L192 36.2606C191.549 36.9202 190.717 37.2093 189.958 36.9654C189.895 36.9473 181.691 34.5799 159.598 38.4834L148.114 47.745C147.833 47.9709 147.49 48.1065 147.129 48.1426L138.987 48.8203C138.933 48.8203 138.888 48.8203 138.834 48.8203L138.843 48.8474ZM147.427 43.6789L145.945 44.6277L146.279 44.6006L147.427 43.6789ZM171.751 28.0742L161.785 34.4715C178.266 31.8059 186.66 32.6734 189.696 33.2336L193.591 27.5049C193.925 27.0079 194.485 26.7097 195.082 26.7097H205.418L208.599 21.0262C208.852 20.5835 209.268 20.2672 209.765 20.1498C221.9 17.3306 231.577 17.1228 237.893 17.5384L226.219 10.0478C224.086 9.89418 213.93 9.44239 203.503 13.4181L199.527 19.2733C199.202 19.7522 198.66 20.0504 198.081 20.0685L183.968 20.4209L178.112 27.4326C177.769 27.8483 177.263 28.0832 176.721 28.0832H171.733L171.751 28.0742Z" fill="black"/>
</svg>
