<svg width="1920" height="470" viewBox="0 0 1920 470" fill="none" xmlns="http://www.w3.org/2000/svg">
  <path d="M300.678 8.60252C300.678 8.60252 390.527 -3.08768 477.277 0.787163C485.089 1.13743 490.857 5.77848 489.901 10.9449C480.211 63.0473 433.704 317.364 435.979 387.987C438.517 466.797 417.455 502.021 417.455 502.021H265.971C265.971 502.021 234 501.452 234 477.436C234 453.421 253.347 430.479 255.885 417.081C258.423 403.683 261.39 191.202 300.678 8.60252Z" fill="#324C0B"/>
  <path d="M1618.37 8.60252C1618.37 8.60252 1528.52 -3.08768 1441.77 0.787163C1433.96 1.13743 1428.19 5.77848 1429.15 10.9449C1438.84 63.0473 1485.34 317.364 1483.07 387.987C1480.53 466.797 1501.59 502.021 1501.59 502.021H1653.08C1653.08 502.021 1685.05 501.452 1685.05 477.436C1685.05 453.421 1665.7 430.479 1663.16 417.081C1660.63 403.683 1657.66 191.202 1618.37 8.60252Z" fill="#324C0B"/>
  <path d="M500.391 54.1378C500.391 54.1378 590.822 59.766 675.249 80.0847C682.851 81.9157 687.63 87.5699 685.708 92.4599C666.276 141.765 572.206 382.577 560.994 452.341C548.482 530.193 521.1 560.764 521.1 560.764L372.387 531.925C372.387 531.925 341.109 525.28 345.68 501.704C350.252 478.128 373.613 459.288 378.655 446.619C383.697 433.949 427.06 225.918 500.391 54.1378Z" fill="#324C0B"/>
  <path d="M1418.66 54.1378C1418.66 54.1378 1328.23 59.766 1243.8 80.0847C1236.2 81.9157 1231.42 87.5699 1233.34 92.4599C1252.77 141.765 1346.84 382.577 1358.05 452.341C1370.57 530.193 1397.95 560.764 1397.95 560.764L1546.66 531.925C1546.66 531.925 1577.94 525.28 1573.37 501.704C1568.8 478.128 1545.43 459.288 1540.39 446.619C1535.35 433.949 1491.99 225.918 1418.66 54.1378Z" fill="#324C0B"/>
  <path d="M550.173 172.46C550.173 172.46 636.756 145.76 722.914 134.925C730.673 133.95 737.142 137.55 737.072 142.804C736.323 195.795 733.445 454.312 747.616 523.536C763.431 600.785 748.622 639.061 748.622 639.061L599.315 664.65C599.315 664.65 567.707 669.49 563.65 645.819C559.594 622.149 574.788 596.268 575.026 582.634C575.264 569 542.295 359.071 550.173 172.46Z" fill="#324C0B"/>
  <path d="M1368.88 172.46C1368.88 172.46 1282.29 145.76 1196.13 134.925C1188.38 133.95 1181.91 137.55 1181.98 142.804C1182.73 195.795 1185.6 454.312 1171.43 523.536C1155.62 600.785 1170.43 639.061 1170.43 639.061L1319.73 664.65C1319.73 664.65 1351.34 669.49 1355.4 645.819C1359.45 622.149 1344.26 596.268 1344.02 582.634C1343.78 569 1376.75 359.071 1368.88 172.46Z" fill="#324C0B"/>
  <path d="M923.391 129.719C923.391 129.719 843.265 87.4199 760.612 60.7892C753.169 58.3925 746.144 60.7299 745.238 65.9052C736.144 118.115 691.013 372.679 664.246 438.072C634.375 511.047 641.826 551.405 641.826 551.405L783.794 604.249C783.794 604.249 813.955 614.868 822.333 592.361C830.71 569.855 820.581 541.604 822.877 528.163C825.172 514.721 896.514 314.553 923.391 129.719Z" fill="#324C0B"/>
  <path d="M995.08 128.179C995.08 128.179 1080.95 99.2749 1166.81 86.2412C1174.54 85.0689 1181.1 88.5023 1181.16 93.7561C1181.77 146.748 1185.5 405.255 1201.43 474.094C1219.22 550.914 1205.39 589.555 1205.39 589.555L1056.79 618.953C1056.79 618.953 1025.31 624.599 1020.65 601.04C1015.99 577.481 1030.52 551.22 1030.41 537.585C1030.3 523.949 991.974 314.931 995.08 128.179Z" fill="#324C0B"/>
  <path d="M812.49 231.106C812.49 231.106 892.617 188.807 975.27 162.176C982.713 159.78 989.738 162.117 990.644 167.292C999.738 219.502 1044.87 474.067 1071.64 539.46C1101.51 612.434 1094.06 652.792 1094.06 652.792L952.088 705.636C952.088 705.636 921.927 716.255 913.549 693.749C905.172 671.242 915.3 642.991 913.005 629.55C910.71 616.108 839.368 415.94 812.49 231.106Z" fill="#324C0B"/>
  <rect y="175" width="1920" height="295" fill="#324C0B"/>
  <path d="M745.188 369H686V281.5H742.25L767.25 303.562V350.25L745.188 369ZM734.25 350.562L749.438 335.375V310.062L703.875 299.938V350.562H734.25ZM813.875 369L788.875 362.75L779.5 348.312L776.375 281.5H801.375V345.812L813.875 355.25L838.875 349L834.75 281.5H857.625V350.25L838.875 367.062L813.875 369ZM935.625 369H910.625L904.375 335.438L893.625 335.25L889.188 369H866.875L871 283.688L910.625 281.5L933.438 287.75L931.188 319L916.875 331.5L935.625 369ZM885.312 320.438L906.5 318.438L919.75 300.562L898.188 293L885.188 294.75L885.312 320.438ZM947.75 281.5H971.5L972.375 369H947.75V281.5ZM1060.12 369H1035.12L1022.62 344H1010.12L997.625 369H978.875L1000.38 281.625L1035.12 281.812L1060.12 369ZM1028.88 328.75L1014 294L1003.88 328.75H1028.88ZM1141.62 369H1120.12V356.5L1091.25 312.75L1086.38 369H1063.88L1070.12 281.5H1095.12L1120.12 344L1128.38 281.5H1145.12L1141.62 369ZM1167.5 281.062L1205.38 283.438L1230.62 293.688L1234.94 321.125L1232.81 356.812L1205.38 369.438L1165.31 367.5L1151.06 337.875V306.312L1167.5 281.062ZM1184.31 298.438L1169.25 319.375L1177.75 348.75L1201.31 351.688L1216.25 337L1214.19 305.688L1184.31 298.438Z" fill="#6FA72E"/>
</svg>
