<svg width="435" height="703" viewBox="0 0 435 703" fill="none" xmlns="http://www.w3.org/2000/svg">
  <path d="M434.581 295.435L402.749 279.646L322.592 274.644L318.32 267.947L316.536 271.895L312.94 264L302.161 268.975L298.204 266.064L294.617 268.975L292.094 266.064L278.377 271.895L213.902 267.875L72.0005 276.717L63.7361 275.969L51.6414 270.201L46.333 277.248L43.5572 275.545L42.7731 277.789L35.8245 270.201L34.2113 278.708L27.1996 275.545L26.4786 281.863L0 296.328V304.52L5.37142 507.526L74.0013 584.348L118.234 639.342L149.39 647.426L213.902 702.42L278.665 672.895L317.797 610.232L353.802 614.269L378.181 599.714L424.27 518.025L434.869 304.448L434.581 295.435Z" fill="#636363"/>
  <path d="M0 304.52L5.37142 507.526L25.0546 321.094L0 304.52Z" fill="#252525"/>
  <path d="M5.37134 507.526L74.0012 584.348L56.8505 446.872L80.1657 333.63L25.0545 321.094L5.37134 507.526Z" fill="#555456"/>
  <path d="M80.1658 333.63L56.8506 446.872L74.0013 584.348L118.234 639.342L149.39 647.426L213.902 702.42L187.063 562.52L213.045 498.63L213.902 347.509L108.339 339.912L80.1658 333.63Z" fill="#6D6D6D"/>
  <path d="M434.869 304.448L424.271 518.025L409.688 310.874L434.869 304.448Z" fill="#252525"/>
  <path d="M409.688 310.874L424.27 518.025L378.181 599.714L353.802 614.269L363.788 443.114L353.802 325.122L409.688 310.874Z" fill="#555456"/>
  <path d="M326.296 332.134L363.788 443.114L353.802 614.269L317.797 610.232L278.665 672.895L213.902 702.42L187.062 562.52L213.045 498.63L213.902 347.509L326.296 332.134Z" fill="#636363"/>
  <path d="M52.8221 327.412L56.8507 355.125L52.3535 381.387L50.9205 355.125L35.9058 323.545L52.8221 327.412Z" fill="#252525"/>
  <path d="M394.421 314.668L384.552 344.598L402.082 369.959L394.421 344.598L402.082 312.433L394.421 314.668Z" fill="#252525"/>
  <path d="M213.902 347.383L230.62 395.906L227.565 441.762L239.155 394.572L230.575 345.229L213.902 347.383Z" fill="#252525"/>
  <path d="M404.371 529.11L396.845 539.97L366.924 552.182L394.755 532.724L410.923 484.553L411.148 483.868L404.371 529.11Z" fill="#252525"/>
  <path d="M402.749 280.655L384.823 288.847H367.032L359.309 297.653L369.249 291.362L388.239 294.958L404.641 282.025L402.749 280.655Z" fill="#252525"/>
  <path d="M5.37134 507.526L21.2783 495.936L28.29 461.427L25.6584 502.136L16.8352 520.35L5.37134 507.526Z" fill="#252525"/>
  <path d="M213.902 702.42L242.859 654.257L237.109 599.624L250.763 660.368L246.779 687.432L213.902 702.42Z" fill="#252525"/>
  <path d="M149.39 647.426L135.376 614.269L142.379 571.595L128.202 617.595L132.708 643.1L149.39 647.426Z" fill="#252525"/>
  <path d="M317.797 610.232L303.774 580.581L310.786 536.365L306.478 526.127L313.751 536.906L314.291 580.842L332.316 611.863L317.797 610.232Z" fill="#252525"/>
  <path d="M117.243 385.416L105.383 458.074L135.376 555.238V523.433L150.85 453.325L136.539 359L117.243 385.416Z" fill="#797C81"/>
  <path d="M279.873 443.114L287.065 492.88L275.565 546.432L300.007 490.889L279.873 443.114Z" fill="#252525"/>
  <path d="M115.314 397.258L97.2983 461.427L127.211 528.795L105.383 458.074L115.314 397.258Z" fill="#252525"/>
  <path d="M112.935 411.831L125.598 445.799V466.014L113.566 484.58L103.706 468.339V455.767L112.935 411.831Z" fill="#9F9F9F"/>
  <path d="M279.873 443.114L314.021 478.505L315.815 498.27L275.565 546.432L300.007 490.889L279.873 443.114Z" fill="#797C81"/>
  <path d="M402.749 279.646L322.592 274.644L318.32 267.947L316.536 271.895L312.94 264L302.161 268.975L298.204 266.064L294.617 268.975L292.094 266.064L278.377 271.895L213.902 267.875L72.0005 276.717L63.7361 275.969L51.6414 270.201L46.333 277.248L43.5572 275.545L42.7731 277.789L35.8245 270.201L34.2113 278.708L27.1996 275.545L26.4786 281.863L0 296.328L25.0546 321.094L108.339 339.912L213.902 347.509L326.296 332.134L434.581 295.435L402.749 279.646Z" fill="#6FA72E"/>
  <path d="M326.296 332.134L363.788 443.114L353.802 325.122L326.296 332.134Z" fill="#797C81"/>
  <path d="M0 296.328V304.52L25.0546 321.094L80.1658 333.63L108.339 339.912L213.902 347.509L326.296 332.134L353.802 325.122L409.688 310.874L434.869 304.448L434.581 295.435L352.198 317.318L323.782 322.446L213.902 336.37L118.496 329.539L85.0686 323.365L28.2901 312.433L0 296.328Z" fill="#496D20"/>
  <path d="M228.313 345.536L237.911 394.636L230.899 428.162L239.155 394.572L230.575 345.229L228.313 345.536Z" fill="#9F9F9F"/>
  <path d="M35.9058 323.545L36.9963 323.816L51.6415 354.873L52.3535 381.387L50.9205 355.125L35.9058 323.545Z" fill="#9F9F9F"/>
  <path d="M401.307 313.01L393.322 344.698L402.082 369.959L394.421 344.598L402.082 312.811L401.307 313.01Z" fill="#9F9F9F"/>
  <path d="M411.148 483.868L403.325 528.921L395.962 539.61L366.924 552.182L396.845 539.97L404.371 529.11L411.148 483.868Z" fill="#9F9F9F"/>
  <path d="M246.779 687.432L250.763 660.368L237.109 599.624L249.141 660.016L243.94 688.73L246.779 687.432Z" fill="#9F9F9F"/>
  <path d="M5.94814 508.184L21.8551 496.53L28.29 461.427L21.2783 495.936L5.37134 507.526L5.94814 508.184Z" fill="#9F9F9F"/>
  <path opacity="0.8" d="M212.529 322.114C275.132 322.114 325.882 314.015 325.882 304.025C325.882 294.035 275.132 285.937 212.529 285.937C149.926 285.937 99.1763 294.035 99.1763 304.025C99.1763 314.015 149.926 322.114 212.529 322.114Z" fill="#3A5818"/>
  <path d="M332.155 132.234C332.155 132.234 476.26 82.4655 212.746 82.4655C-50.7681 82.4655 94.0663 132.234 94.0663 132.234H332.155Z" fill="#8E7450" stroke="black" stroke-width="4" stroke-linecap="round" stroke-linejoin="round"/>
  <path d="M68.5149 93.5422C68.5149 93.5422 46.1183 107.269 103.601 125.492L94.0749 132.243C94.0749 132.243 25.4611 109.531 68.5149 93.5422Z" fill="#756042" stroke="black" stroke-width="4" stroke-linecap="round" stroke-linejoin="round"/>
  <path d="M357.309 93.5422C357.309 93.5422 379.706 107.269 322.223 125.492L331.749 132.243C331.749 132.243 400.363 109.531 357.309 93.5422Z" fill="#756042" stroke="black" stroke-width="4" stroke-linecap="round" stroke-linejoin="round"/>
  <path d="M68.1633 108.35L62.0076 116.678" stroke="black" stroke-width="4" stroke-linecap="round" stroke-linejoin="round"/>
  <path d="M74.8057 113.397L69.4521 121.482" stroke="black" stroke-width="4" stroke-linecap="round" stroke-linejoin="round"/>
  <path d="M81.7902 117.156L77.0315 125.357" stroke="black" stroke-width="4" stroke-linecap="round" stroke-linejoin="round"/>
  <path d="M89.7035 120.589L85.8911 129.197" stroke="black" stroke-width="4" stroke-linecap="round" stroke-linejoin="round"/>
  <path d="M361.744 101.555L369.585 110.522" stroke="black" stroke-width="4" stroke-linecap="round" stroke-linejoin="round"/>
  <path d="M357.868 109.08L363.483 116.678" stroke="black" stroke-width="4" stroke-linecap="round" stroke-linejoin="round"/>
  <path d="M350.991 113.866L356.038 121.482" stroke="black" stroke-width="4" stroke-linecap="round" stroke-linejoin="round"/>
  <path d="M344.006 117.687L348.459 125.357" stroke="black" stroke-width="4" stroke-linecap="round" stroke-linejoin="round"/>
  <path d="M336.084 121.256L339.599 129.197" stroke="black" stroke-width="4" stroke-linecap="round" stroke-linejoin="round"/>
  <path d="M64.225 101.005L55.9062 110.522" stroke="black" stroke-width="4" stroke-linecap="round" stroke-linejoin="round"/>
  <path d="M187.096 266.307C187.096 266.307 179.273 299.789 152.135 304.196C124.998 308.604 140.518 245.812 140.518 245.812" fill="#CD6329"/>
  <path d="M140.518 245.812C140.518 245.812 124.998 308.604 152.135 304.196C179.273 299.789 187.096 266.307 187.096 266.307" stroke="black" stroke-width="4" stroke-linecap="round" stroke-linejoin="round"/>
  <path d="M284.514 245.812C284.514 245.812 300.034 308.604 272.897 304.196C245.759 299.789 237.936 266.307 237.936 266.307" fill="#CD6329"/>
  <path d="M284.514 245.812C284.514 245.812 300.034 308.604 272.897 304.196C245.759 299.789 237.936 266.307 237.936 266.307" stroke="black" stroke-width="4" stroke-linecap="round" stroke-linejoin="round"/>
  <path d="M275.52 306.224C274.591 306.224 273.618 306.143 272.618 305.981C244.615 301.43 236.522 268.137 236.188 266.722C235.99 265.874 236.423 265.009 237.216 264.658L283.793 244.163C284.028 244.064 284.271 244.01 284.523 244.01C284.794 244.01 285.064 244.073 285.317 244.199C285.794 244.433 286.146 244.866 286.272 245.388C286.696 247.101 296.51 287.478 285.623 301.385C283.108 304.602 279.711 306.233 275.529 306.233L275.52 306.224Z" fill="#8AB242"/>
  <path d="M284.514 245.812C284.514 245.812 298.998 304.422 275.511 304.422C274.681 304.422 273.816 304.35 272.897 304.196C245.76 299.789 237.937 266.307 237.937 266.307L284.514 245.812ZM284.514 242.207C284.019 242.207 283.523 242.306 283.063 242.513L236.486 263.008C234.899 263.711 234.034 265.442 234.431 267.127C234.512 267.488 236.576 276.149 242.155 285.45C249.716 298.059 260.144 305.774 272.329 307.757C273.429 307.937 274.501 308.027 275.52 308.027C280.215 308.027 284.199 306.116 287.038 302.493C291.977 296.184 293.599 284.468 291.878 267.659C290.634 255.609 288.128 245.379 288.029 244.956C287.777 243.919 287.074 243.054 286.119 242.586C285.614 242.342 285.073 242.216 284.523 242.216L284.514 242.207Z" fill="black"/>
  <path d="M237.937 266.307L284.514 245.812C284.514 245.812 285.812 251.076 287.002 258.457C287.002 258.457 277.575 273.734 262.136 279.754L259.045 293.724L250.6 291.101C241.145 280.06 237.928 266.307 237.928 266.307H237.937Z" fill="#72912F"/>
  <path d="M149.522 306.224C145.34 306.224 141.942 304.593 139.427 301.376C128.54 287.469 138.355 247.092 138.778 245.379C138.905 244.866 139.256 244.433 139.734 244.19C139.986 244.064 140.257 244.001 140.527 244.001C140.77 244.001 141.023 244.055 141.257 244.154L187.835 264.649C188.628 265 189.06 265.865 188.862 266.713C188.529 268.128 180.444 301.421 152.433 305.972C151.432 306.134 150.45 306.215 149.531 306.215L149.522 306.224Z" fill="#8AB242"/>
  <path d="M140.518 245.812L187.095 266.307C187.095 266.307 179.272 299.789 152.135 304.196C151.216 304.35 150.342 304.422 149.521 304.422C126.034 304.422 140.518 245.812 140.518 245.812ZM140.518 242.207C139.968 242.207 139.427 242.333 138.922 242.577C137.967 243.045 137.273 243.91 137.012 244.947C136.904 245.379 134.398 255.6 133.163 267.65C131.433 284.459 133.064 296.175 138.003 302.484C140.842 306.107 144.826 308.018 149.521 308.018C150.549 308.018 151.621 307.928 152.712 307.747C164.888 305.765 175.325 298.059 182.887 285.441C188.456 276.14 190.52 267.479 190.61 267.118C191.007 265.433 190.142 263.693 188.556 262.999L141.978 242.504C141.518 242.297 141.022 242.198 140.527 242.198L140.518 242.207Z" fill="black"/>
  <path d="M187.096 266.307L140.518 245.812C140.518 245.812 139.22 251.076 138.031 258.457C138.031 258.457 147.458 273.733 162.897 279.754L165.988 293.724L174.433 291.101C183.887 280.06 187.105 266.307 187.105 266.307H187.096Z" fill="#72912F"/>
  <path d="M95.3186 233.167C89.5685 233.167 85.0171 229.553 81.7905 222.424C69.1186 194.359 98.446 159.353 99.7078 157.875C100.05 157.469 100.555 157.244 101.078 157.244C101.168 157.244 101.249 157.244 101.339 157.262C101.952 157.352 102.475 157.749 102.727 158.317L125.007 209.049C125.259 209.626 125.196 210.293 124.835 210.807C124.195 211.717 108.973 233.167 95.3186 233.167Z" fill="#8AB242"/>
  <path d="M101.087 159.038L123.366 209.761C123.366 209.761 108.198 231.356 95.3278 231.356C90.8395 231.356 86.6396 228.733 83.4491 221.667C71.1016 194.322 101.096 159.029 101.096 159.029M101.096 155.424C100.05 155.424 99.0411 155.883 98.3471 156.694C97.0583 158.208 67.0279 194.061 80.1594 223.154C84.5666 232.915 90.8395 234.961 95.3278 234.961C109.658 234.961 124.655 214.195 126.314 211.834C127.035 210.807 127.17 209.464 126.665 208.31L104.386 157.587C103.89 156.451 102.835 155.649 101.61 155.469C101.438 155.442 101.258 155.433 101.087 155.433L101.096 155.424Z" fill="black"/>
  <path d="M101.087 159.038C101.087 159.038 99.6449 159.759 95.1656 167.059L91.4343 185.355L105.846 195.197L109.829 208.472L100.105 214.727L109.964 224.434C117.499 218.116 123.357 209.77 123.357 209.77L101.078 159.047L101.087 159.038Z" fill="#72912F"/>
  <path d="M328.739 233.167C315.085 233.167 299.863 211.717 299.223 210.807C298.862 210.293 298.79 209.626 299.051 209.049L321.331 158.317C321.583 157.749 322.106 157.352 322.719 157.262C322.809 157.253 322.89 157.244 322.98 157.244C323.503 157.244 324.008 157.469 324.35 157.875C325.603 159.353 354.939 194.358 342.267 222.424C339.05 229.553 334.499 233.167 328.748 233.167H328.739Z" fill="#8AB242"/>
  <path d="M322.98 159.038C322.98 159.038 352.975 194.322 340.627 221.676C337.437 228.742 333.228 231.365 328.748 231.365C315.878 231.365 300.71 209.77 300.71 209.77L322.989 159.047M322.989 155.442C322.818 155.442 322.638 155.451 322.466 155.478C321.241 155.658 320.186 156.46 319.691 157.596L297.411 208.319C296.906 209.473 297.042 210.807 297.763 211.843C299.421 214.214 314.418 234.97 328.748 234.97C333.237 234.97 339.51 232.924 343.917 223.163C357.057 194.07 327.018 158.217 325.729 156.703C325.035 155.892 324.035 155.433 322.98 155.433L322.989 155.442Z" fill="black"/>
  <path d="M322.98 159.038C322.98 159.038 324.422 159.759 328.902 167.059L332.633 185.355L318.222 195.197L314.238 208.472L323.963 214.727L314.103 224.434C306.568 218.116 300.71 209.77 300.71 209.77L322.989 159.047L322.98 159.038Z" fill="#72912F"/>
  <path d="M253.7 287.208C253.402 287.208 253.114 287.135 252.844 286.991L241.163 280.691C231.952 283.765 222.39 285.324 212.746 285.324C203.102 285.324 193.324 283.729 184.004 280.583L172.126 286.991C171.855 287.135 171.567 287.208 171.27 287.208C170.972 287.208 170.684 287.135 170.422 286.991C169.891 286.703 169.539 286.171 169.476 285.567L168.367 273.634C157.083 267.352 146.971 258.817 138.283 248.264H122.925C122.394 248.264 121.889 248.029 121.546 247.615C121.204 247.2 121.06 246.668 121.159 246.137L124.439 227.94L108.595 216.773C108.036 216.377 107.748 215.701 107.856 215.025C107.964 214.349 108.442 213.79 109.091 213.583L117.355 210.969C115.165 204.831 113.399 198.441 112.101 191.925L99.1227 183.381C98.4557 182.948 98.1583 182.128 98.3836 181.362L103.422 164.292L93.1923 130.035C92.976 129.296 93.2464 128.503 93.8683 128.052L109.208 117.029L104.395 90.0182C104.278 89.3783 104.521 88.7294 105.017 88.3148C105.35 88.0354 105.756 87.8912 106.171 87.8912C106.378 87.8912 106.594 87.9273 106.793 87.9994L116.049 91.4242V65.8912C116.049 65.1521 116.499 64.4942 117.175 64.2238C117.391 64.1337 117.626 64.0886 117.851 64.0886C118.329 64.0886 118.806 64.2779 119.149 64.6384L127.945 73.7863L136.489 49.7133C136.742 49.0013 137.409 48.5236 138.166 48.5146H138.193C138.932 48.5146 139.608 48.9743 139.869 49.6683L143.393 58.7351L184.798 31.7149C185.095 31.5166 185.438 31.4175 185.78 31.4175C186.077 31.4175 186.366 31.4896 186.636 31.6338C187.222 31.9493 187.583 32.5531 187.583 33.22V38.7448L211.773 22.8374C212.07 22.6391 212.422 22.54 212.764 22.54C213.107 22.54 213.458 22.6391 213.755 22.8374L237.946 38.7448V33.22C237.946 32.5621 238.306 31.9493 238.892 31.6338C239.162 31.4896 239.46 31.4175 239.748 31.4175C240.091 31.4175 240.433 31.5166 240.731 31.7149L282.135 58.7351L285.659 49.6683C285.929 48.9743 286.596 48.5146 287.335 48.5146H287.362C288.119 48.5236 288.786 49.0013 289.039 49.7133L297.583 73.7863L306.379 64.6384C306.722 64.2779 307.199 64.0886 307.677 64.0886C307.902 64.0886 308.128 64.1337 308.353 64.2238C309.038 64.4942 309.48 65.1611 309.48 65.8912V91.4242L318.736 87.9994C318.943 87.9273 319.15 87.8912 319.358 87.8912C319.772 87.8912 320.187 88.0354 320.511 88.3148C321.007 88.7294 321.241 89.3783 321.133 90.0182L316.32 117.029L331.66 128.052C332.282 128.503 332.552 129.296 332.336 130.035L322.097 164.319L325.558 177.523C325.73 178.163 325.531 178.857 325.036 179.307L313.878 189.6C312.535 196.963 310.606 204.191 308.119 211.113L315.915 213.574C316.573 213.781 317.05 214.34 317.149 215.016C317.258 215.692 316.969 216.368 316.41 216.764L300.8 227.76C300.737 227.886 300.665 228.012 300.602 228.138L303.838 246.128C303.928 246.65 303.793 247.191 303.45 247.606C303.108 248.011 302.603 248.255 302.071 248.255H287.236C278.395 258.998 268.102 267.632 256.602 273.932L255.52 285.558C255.466 286.162 255.106 286.694 254.574 286.982C254.313 287.126 254.015 287.198 253.727 287.198L253.7 287.208Z" fill="#8AB242"/>
  <path d="M212.745 24.3966L239.721 42.1336V33.2651L282.991 61.493L287.317 50.3533L296.834 77.1751L307.649 65.9272V94.0469L319.33 89.7208L314.319 117.841L330.578 129.521L320.195 164.292L323.782 177.982L312.183 188.69C310.732 196.891 308.56 204.786 305.748 212.267L315.337 215.295L299.376 226.543C299.15 226.976 298.916 227.417 298.682 227.85L302.034 246.452H286.343C277.439 257.439 266.759 266.433 254.853 272.805L253.681 285.387L241.316 278.718C232.249 281.836 222.659 283.512 212.736 283.512C202.813 283.512 192.999 281.791 183.833 278.609L171.26 285.387L170.061 272.499C158.381 266.145 147.89 257.258 139.13 246.443H122.916L126.395 227.12L109.613 215.295L119.671 212.114C117.139 205.327 115.129 198.207 113.696 190.826L100.086 181.867L105.278 164.283L94.8951 129.512L111.154 117.832L106.143 89.7118L117.823 94.0379V65.9182L128.639 77.1661L138.156 50.3442L142.482 61.484L185.752 33.2561V42.1246L212.727 24.3876M212.745 20.7915C212.051 20.7915 211.367 20.9898 210.763 21.3864L189.366 35.4552V33.2741C189.366 31.9493 188.645 30.7326 187.474 30.1017C186.933 29.8133 186.347 29.6691 185.761 29.6691C185.076 29.6691 184.391 29.8673 183.788 30.2549L144.24 56.0583L141.518 49.0554C140.977 47.6675 139.643 46.7572 138.156 46.7572C138.138 46.7572 138.12 46.7572 138.102 46.7572C136.597 46.7752 135.263 47.7396 134.758 49.1546L127.188 70.4787L120.419 63.4397C119.725 62.7187 118.779 62.3312 117.823 62.3312C117.373 62.3312 116.913 62.4123 116.481 62.5925C115.12 63.1423 114.218 64.4672 114.218 65.9362V88.8826L107.396 86.3591C106.99 86.2059 106.567 86.1338 106.143 86.1338C105.314 86.1338 104.494 86.4222 103.827 86.9719C102.835 87.8011 102.367 89.0989 102.592 90.3697L107.206 116.254L92.7951 126.61C91.5514 127.511 91.0016 129.097 91.4432 130.566L101.519 164.31L96.6346 180.866C96.1839 182.39 96.7878 184.021 98.1127 184.895L110.46 193.025C111.632 198.748 113.164 204.381 115.021 209.815L108.531 211.87C107.225 212.285 106.269 213.402 106.053 214.754C105.846 216.106 106.422 217.467 107.54 218.251L122.447 228.751L119.374 245.812C119.184 246.867 119.473 247.948 120.158 248.759C120.843 249.579 121.852 250.048 122.925 250.048H137.435C145.925 260.223 155.749 268.515 166.663 274.725L167.682 285.72C167.79 286.928 168.502 287.992 169.566 288.569C170.097 288.857 170.683 288.992 171.269 288.992C171.855 288.992 172.45 288.848 172.981 288.56L184.175 282.521C193.449 285.567 203.048 287.108 212.745 287.108C222.443 287.108 231.816 285.603 240.991 282.62L251.987 288.55C252.519 288.839 253.113 288.983 253.699 288.983C254.285 288.983 254.871 288.839 255.403 288.56C256.466 287.992 257.178 286.919 257.286 285.711L258.278 275.031C269.408 268.795 279.413 260.395 288.056 250.039H302.043C303.107 250.039 304.125 249.561 304.81 248.75C305.495 247.93 305.784 246.849 305.595 245.803L302.521 228.742L317.428 218.242C318.546 217.449 319.123 216.097 318.915 214.745C318.708 213.393 317.744 212.276 316.437 211.861L310.416 209.96C312.57 203.669 314.283 197.152 315.517 190.519L326.234 180.632C327.216 179.731 327.613 178.361 327.279 177.072L323.944 164.355L334.039 130.557C334.48 129.088 333.94 127.493 332.687 126.601L318.275 116.245L322.863 90.4959C322.917 90.2436 322.944 89.9912 322.944 89.7208C322.944 87.738 321.349 86.1338 319.366 86.1157C319.357 86.1157 319.348 86.1157 319.339 86.1157C319.285 86.1157 319.24 86.1157 319.186 86.1157C318.771 86.1338 318.384 86.2239 318.014 86.3681L311.263 88.8646V65.9182C311.263 64.4491 310.371 63.1243 309.001 62.5745C308.569 62.3942 308.109 62.3131 307.658 62.3131C306.694 62.3131 305.757 62.7007 305.063 63.4217L298.294 70.4606L290.724 49.1365C290.219 47.7125 288.885 46.7572 287.38 46.7391C287.362 46.7391 287.344 46.7391 287.326 46.7391C285.839 46.7391 284.505 47.6494 283.964 49.0374L281.242 56.0403L241.694 30.2369C241.099 29.8493 240.415 29.651 239.721 29.651C239.135 29.651 238.54 29.7952 238.008 30.0836C236.845 30.7145 236.115 31.9312 236.115 33.2561V35.4372L214.719 21.3683C214.115 20.9718 213.43 20.7735 212.736 20.7735L212.745 20.7915Z" fill="black"/>
  <path d="M111.163 117.858L114.516 110.369L106.161 89.7298L111.163 117.858Z" fill="#72912F"/>
  <path d="M314.328 117.858L308.569 109.414L319.34 89.7298L314.328 117.858Z" fill="#72912F"/>
  <path d="M119.68 212.141L109.622 215.322L126.404 227.147L122.925 246.47H139.139C147.908 257.285 158.39 266.172 170.07 272.526L171.269 285.414L183.842 278.636C192.999 281.818 202.697 283.539 212.746 283.539C222.795 283.539 232.258 281.863 241.325 278.745L253.69 285.414L254.862 272.832C266.768 266.46 277.439 257.466 286.353 246.479H302.044L298.691 227.877C298.925 227.444 299.16 227.012 299.385 226.57L315.347 215.322L305.757 212.294C308.569 204.804 310.732 196.909 312.192 188.707L323.791 178L308.56 184.075C308.56 184.075 306.857 204.254 300.241 215.286L307.523 216.611L297.6 223.226C297.6 223.226 277.088 255.87 251.059 266.01L249.518 273.4L238.044 270.345C238.044 270.345 228.473 274.391 212.746 274.391C197.019 274.391 187.447 270.345 187.447 270.345L175.974 273.4L174.433 266.01C148.404 255.861 127.891 223.226 127.891 223.226L117.968 216.611L125.25 215.286C118.635 204.254 116.931 187.058 116.931 187.058L100.096 181.903L113.705 190.862C115.138 198.243 117.139 205.363 119.68 212.15V212.141Z" fill="#72912F"/>
  <path d="M105.296 164.301L108.342 152.53L94.9041 129.539L105.296 164.301Z" fill="#72912F"/>
  <path d="M320.123 164.301L317.077 152.53L330.515 129.539L320.123 164.301Z" fill="#72912F"/>
  <path d="M117.842 94.0559L123.493 87.3324L117.842 65.9362V94.0559Z" fill="#72912F"/>
  <path d="M307.649 94.0559L302.007 87.3324L307.649 65.9362V94.0559Z" fill="#72912F"/>
  <path d="M142.5 61.5019L139.003 65.9362L138.174 50.3622L142.5 61.5019Z" fill="#BF7F00"/>
  <path d="M283 61.5019L286.497 65.9362L287.326 50.3622L283 61.5019Z" fill="#BF7F00"/>
  <path d="M211.268 69.2709C223.712 69.2709 233.799 65.7644 233.799 61.4388C233.799 57.1133 223.712 53.6068 211.268 53.6068C198.824 53.6068 188.736 57.1133 188.736 61.4388C188.736 65.7644 198.824 69.2709 211.268 69.2709Z" fill="#BF7F00"/>
  <path d="M233.799 61.4389C233.799 65.765 223.714 69.2709 211.268 69.2709C198.821 69.2709 188.736 65.765 188.736 61.4389" stroke="#FFC55F" stroke-width="4" stroke-linecap="round" stroke-linejoin="round"/>
  <path d="M198.451 172.638C207.473 168.916 217.594 168.916 226.616 172.638" stroke="black" stroke-width="4" stroke-linecap="round" stroke-linejoin="round"/>
  <path d="M203.859 176.621C209.411 174.332 215.648 174.332 221.199 176.621" stroke="#72912F" stroke-width="4" stroke-linecap="round" stroke-linejoin="round"/>
  <path d="M132.163 152.53C132.163 152.53 142.149 165.085 161.598 164.49" stroke="#C5FF5F" stroke-width="4" stroke-linecap="round" stroke-linejoin="round"/>
  <path d="M292.878 152.53C292.878 152.53 282.892 165.085 263.442 164.49" stroke="#C5FF5F" stroke-width="4" stroke-linecap="round" stroke-linejoin="round"/>
  <path d="M219.956 129.539C219.956 129.539 221.695 142.274 228.617 150.07" stroke="#72912F" stroke-width="4" stroke-linecap="round" stroke-linejoin="round"/>
  <path d="M205.58 129.539C205.58 129.539 203.841 142.274 196.919 150.07" stroke="#72912F" stroke-width="4" stroke-linecap="round" stroke-linejoin="round"/>
  <path d="M137.192 211.014L161.725 204.182L158.408 219.91L136.174 211.014" fill="#72912F"/>
  <path d="M158.409 219.91L136.76 211.005L143.159 202.118" stroke="black" stroke-width="4" stroke-linecap="round" stroke-linejoin="round"/>
  <path d="M175.28 251.688L187.267 235.79L190.142 249.688L175.28 251.688Z" fill="#72912F"/>
  <path d="M190.142 249.688L175.28 251.688L173.378 239.539" stroke="black" stroke-width="4" stroke-linecap="round" stroke-linejoin="round"/>
  <path d="M187.699 221L198.587 208.761L200.02 220.342L187.699 221Z" fill="#72912F"/>
  <path d="M200.02 220.342L187.699 221L186.942 210.915" stroke="black" stroke-width="4" stroke-linecap="round" stroke-linejoin="round"/>
  <path d="M236.359 221L225.472 208.761L224.039 220.342L236.359 221Z" fill="#72912F"/>
  <path d="M224.039 220.342L236.359 221L237.117 210.915" stroke="black" stroke-width="4" stroke-linecap="round" stroke-linejoin="round"/>
  <path d="M288.309 211.014L263.776 204.182L267.093 219.91L289.327 211.014" fill="#72912F"/>
  <path d="M267.093 219.91L288.732 211.005L282.342 202.118" stroke="black" stroke-width="4" stroke-linecap="round" stroke-linejoin="round"/>
  <path d="M250.221 251.688L238.225 235.79L235.359 249.688L250.221 251.688Z" fill="#72912F"/>
  <path d="M235.359 249.688L250.221 251.688L252.123 239.539" stroke="black" stroke-width="4" stroke-linecap="round" stroke-linejoin="round"/>
  <path d="M262.928 159.407C225.751 159.407 224.813 126.186 224.813 125.853C224.813 125.303 225.048 124.789 225.462 124.438C226.048 123.951 240.144 112.487 265.848 112.487C275.708 112.487 286.019 114.208 296.51 117.597C297.204 117.822 297.699 118.453 297.753 119.183C297.807 119.94 298.988 137.903 288.047 149.664C282.044 156.127 273.59 159.398 262.919 159.398L262.928 159.407Z" fill="white"/>
  <path d="M265.858 114.298C274.573 114.298 284.64 115.659 295.969 119.328C295.969 119.328 298.763 157.614 262.937 157.614C227.112 157.614 226.625 125.835 226.625 125.835C226.625 125.835 240.514 114.298 265.867 114.298M265.867 110.693C239.522 110.693 224.931 122.554 224.327 123.059C223.489 123.753 223.011 124.798 223.029 125.889C223.029 126.249 223.218 134.875 228.238 143.527C232.907 151.593 242.722 161.21 262.955 161.21C274.14 161.21 283.036 157.74 289.399 150.899C300.863 138.561 299.637 119.85 299.583 119.057C299.475 117.597 298.493 116.344 297.096 115.894C286.425 112.442 275.925 110.693 265.885 110.693H265.867Z" fill="black"/>
  <path d="M292.563 122.284C292.563 122.284 257.864 109.936 230.068 128.016" stroke="#DBDBDB" stroke-width="4" stroke-linecap="round" stroke-linejoin="round"/>
  <path d="M162.13 159.407C151.468 159.407 143.014 156.136 137.003 149.673C126.061 137.912 127.242 119.949 127.296 119.192C127.35 118.462 127.837 117.831 128.54 117.606C139.03 114.217 149.35 112.496 159.201 112.496C184.905 112.496 199.001 123.96 199.587 124.447C200.01 124.798 200.245 125.312 200.236 125.862C200.236 126.195 199.298 159.416 162.121 159.416L162.13 159.407Z" fill="white"/>
  <path d="M159.21 114.298C184.563 114.298 198.451 125.835 198.451 125.835C198.451 125.835 197.965 157.614 162.139 157.614C126.314 157.614 129.107 119.328 129.107 119.328C140.436 115.668 150.504 114.298 159.219 114.298M159.219 110.693C149.17 110.693 138.67 112.442 127.999 115.894C126.602 116.344 125.62 117.597 125.511 119.057C125.457 119.85 124.232 138.561 135.696 150.899C142.059 157.74 150.954 161.21 162.139 161.21C182.364 161.21 192.178 151.593 196.856 143.527C201.867 134.866 202.056 126.249 202.065 125.889C202.083 124.798 201.606 123.762 200.768 123.059C200.164 122.554 185.572 110.693 159.228 110.693H159.219Z" fill="black"/>
  <path d="M164.149 142.607C169.619 142.607 174.054 138.173 174.054 132.702C174.054 127.232 169.619 122.797 164.149 122.797C158.678 122.797 154.244 127.232 154.244 132.702C154.244 138.173 158.678 142.607 164.149 142.607Z" fill="black"/>
  <path d="M159.345 132.702C161.779 132.702 163.753 130.729 163.753 128.295C163.753 125.861 161.779 123.888 159.345 123.888C156.911 123.888 154.938 125.861 154.938 128.295C154.938 130.729 156.911 132.702 159.345 132.702Z" fill="white"/>
  <path d="M261.324 142.607C266.794 142.607 271.229 138.173 271.229 132.702C271.229 127.232 266.794 122.797 261.324 122.797C255.854 122.797 251.419 127.232 251.419 132.702C251.419 138.173 255.854 142.607 261.324 142.607Z" fill="black"/>
  <path d="M132.163 122.284C132.163 122.284 166.862 109.936 194.657 128.016" stroke="#DBDBDB" stroke-width="4" stroke-linecap="round" stroke-linejoin="round"/>
  <path d="M256.908 132.702C259.342 132.702 261.315 130.729 261.315 128.295C261.315 125.861 259.342 123.888 256.908 123.888C254.474 123.888 252.501 125.861 252.501 128.295C252.501 130.729 254.474 132.702 256.908 132.702Z" fill="white"/>
  <path d="M204.508 119.967C204.139 119.967 203.778 119.859 203.463 119.634C203.273 119.499 183.761 105.881 155.218 105.881C145.43 105.881 135.597 107.476 126.016 110.63C125.827 110.693 125.638 110.72 125.458 110.72C124.926 110.72 124.421 110.486 124.07 110.063C123.601 109.495 123.52 108.693 123.88 108.044L132.487 92.5148C132.668 92.1903 132.938 91.9379 133.263 91.7757L147.818 84.5836C148.07 84.4574 148.341 84.3943 148.62 84.3943C148.746 84.3943 148.864 84.4033 148.99 84.4303L196.225 94.2542C196.82 94.3804 197.307 94.786 197.532 95.3447L199.407 100.022L201.336 97.2825C201.678 96.7958 202.237 96.5164 202.814 96.5164C202.967 96.5164 203.129 96.5344 203.282 96.5795C204.012 96.7778 204.544 97.4087 204.607 98.1657L206.32 118.003C206.383 118.706 206.031 119.373 205.418 119.724C205.139 119.886 204.833 119.958 204.526 119.958L204.508 119.967Z" fill="#72912F"/>
  <path d="M148.611 86.1968L195.847 96.0207L198.956 103.79L202.796 98.328L204.508 118.165C204.508 118.165 184.734 104.078 155.218 104.078C146.124 104.078 136.102 105.412 125.449 108.918L134.056 93.389L148.611 86.1968ZM148.611 82.5917C148.062 82.5917 147.512 82.7179 147.016 82.9613L132.46 90.1534C131.803 90.4779 131.262 91.0006 130.901 91.6405L122.294 107.169C121.573 108.467 121.726 110.072 122.673 111.216C123.367 112.063 124.394 112.523 125.449 112.523C125.827 112.523 126.206 112.46 126.575 112.343C135.984 109.251 145.619 107.683 155.218 107.683C183.256 107.683 202.228 120.968 202.417 121.103C203.039 121.545 203.769 121.77 204.508 121.77C205.121 121.77 205.743 121.617 206.293 121.292C207.509 120.598 208.221 119.255 208.095 117.849L206.383 98.0125C206.257 96.5074 205.193 95.2366 203.724 94.84C203.418 94.7589 203.102 94.7139 202.787 94.7139C201.633 94.7139 200.525 95.2726 199.84 96.246L199.822 96.264L199.182 94.6688C198.731 93.5512 197.749 92.722 196.568 92.4787L149.332 82.6548C149.089 82.6008 148.846 82.5827 148.602 82.5827L148.611 82.5917Z" fill="black"/>
  <path d="M204.508 118.165L202.796 98.3279L201.327 111.559C167.628 93.3889 131.1 103.79 131.1 103.79L134.056 93.3889L125.449 108.918C170.666 94.0649 204.508 118.165 204.508 118.165Z" fill="#607527"/>
  <path d="M219.55 119.967C219.244 119.967 218.937 119.886 218.658 119.733C218.045 119.382 217.694 118.715 217.757 118.012L219.469 98.1747C219.532 97.4177 220.064 96.7868 220.794 96.5885C220.947 96.5434 221.11 96.5254 221.263 96.5254C221.84 96.5254 222.398 96.8048 222.741 97.2915L224.67 100.031L226.544 95.3537C226.77 94.795 227.256 94.3804 227.851 94.2632L275.087 84.4393C275.204 84.4123 275.33 84.4033 275.456 84.4033C275.736 84.4033 276.006 84.4664 276.258 84.5926L290.814 91.7847C291.147 91.9469 291.418 92.2083 291.589 92.5238L300.196 108.053C300.557 108.702 300.485 109.504 300.007 110.072C299.655 110.495 299.142 110.729 298.619 110.729C298.43 110.729 298.24 110.702 298.06 110.639C288.471 107.485 278.647 105.89 268.859 105.89C240.316 105.89 220.812 119.508 220.614 119.643C220.298 119.868 219.938 119.976 219.568 119.976L219.55 119.967Z" fill="#72912F"/>
  <path d="M275.448 86.1968L290.003 93.389L298.61 108.918C287.957 105.421 277.935 104.078 268.841 104.078C239.325 104.078 219.551 118.165 219.551 118.165L221.263 98.3279L225.102 103.79L228.212 96.0207L275.448 86.1968ZM275.448 82.5917C275.204 82.5917 274.952 82.6188 274.717 82.6638L227.482 92.4877C226.301 92.731 225.319 93.5602 224.868 94.6778L224.228 96.273L224.21 96.255C223.525 95.2816 222.417 94.7228 221.263 94.7228C220.948 94.7228 220.641 94.7589 220.326 94.849C218.866 95.2456 217.802 96.5074 217.667 98.0215L215.955 117.859C215.837 119.255 216.54 120.598 217.757 121.301C218.316 121.617 218.929 121.779 219.542 121.779C220.281 121.779 221.011 121.554 221.633 121.112C221.822 120.977 240.92 107.692 268.832 107.692C278.431 107.692 288.065 109.26 297.475 112.352C297.844 112.469 298.223 112.532 298.601 112.532C299.656 112.532 300.683 112.063 301.377 111.225C302.323 110.081 302.468 108.476 301.756 107.178L293.149 91.6495C292.797 91.0096 292.247 90.4869 291.589 90.1624L277.034 82.9703C276.538 82.7269 275.988 82.6007 275.438 82.6007L275.448 82.5917Z" fill="black"/>
  <path d="M219.551 118.165L221.263 98.3279L222.732 111.559C256.431 93.389 292.959 103.79 292.959 103.79L290.003 93.389L298.61 108.918C253.393 94.0649 219.551 118.165 219.551 118.165Z" fill="#607527"/>
  <path d="M61.2595 96.8408L209.059 1.99997L216.621 2.11713L364.375 96.94C364.375 96.94 350.658 82.4746 212.745 82.4746C74.8327 82.4746 61.2595 96.8408 61.2595 96.8408Z" fill="#E9CF9E" stroke="black" stroke-width="4" stroke-linecap="round" stroke-linejoin="round"/>
  <path d="M83.6559 82.4655C83.6559 82.4655 105.575 71.6683 212.52 71.6683C319.465 71.6683 341.825 82.4655 341.825 82.4655L358.499 93.1636C358.499 93.1636 322.88 82.4655 212.745 82.4655C102.61 82.4655 66.4055 93.5331 66.4055 93.5331L83.6559 82.4655Z" fill="#C5AF76" stroke="black" stroke-width="4" stroke-linecap="round" stroke-linejoin="round"/>
  <path d="M150.684 73.1644L157.335 66.495L169.737 65.9272L174.757 59.3389C174.757 59.3389 191.439 55.6978 213.593 58.708L216.693 51.4888H231.609L234.926 42.8006C234.926 42.8006 261.739 38.0328 282.846 44.6211L265.254 33.3282C239.108 26.1 219.911 32.7424 219.911 32.7424L216.324 40.1328H203.039L198.613 46.2254C178.461 43.7018 163.103 48.5417 163.103 48.5417L154.316 57.5814H143.239L136.462 63.2594C119.716 63.683 107.513 67.1529 107.513 67.1529L83.6562 82.4656C83.6562 82.4656 100.33 75.9133 150.684 73.1554V73.1644Z" fill="#C5AF76" stroke="black" stroke-width="4" stroke-linecap="round" stroke-linejoin="round"/>
  <path d="M225.255 71.6683L229.391 62.9891L244.785 62.9079L249.598 53.5257C249.598 53.5257 278.123 48.064 304.26 58.3475L325.007 71.6593C295.851 60.4475 263.928 65.071 263.928 65.071L261.567 72.5516L225.273 71.6593L225.255 71.6683Z" fill="#C5AF76" stroke="black" stroke-width="4" stroke-linecap="round" stroke-linejoin="round"/>
  <path d="M138.742 47.1176L146.862 46.4417L158.678 36.9153C181.994 32.7424 190.276 35.3741 190.276 35.3741L194.855 28.6506H206.22L209.915 22.0623C231.618 17.0152 245.371 20.5662 245.371 20.5662L226.517 8.4711C226.517 8.4711 214.494 7.20932 202.092 12.1122L197.811 18.4211L182.913 18.7907L176.55 26.4064H171.043L138.751 47.1267L138.742 47.1176Z" fill="#C5AF76" stroke="black" stroke-width="4" stroke-linecap="round" stroke-linejoin="round"/>
</svg>
