<svg width="319" height="377" viewBox="0 0 319 377" fill="none" xmlns="http://www.w3.org/2000/svg">
  <path d="M58.6852 333.519L263.97 304.79L296.172 85.2784L280.501 30.9536L58.6852 0.134766L0.519531 95.2031L58.6852 333.519Z" fill="#324C0B"/>
  <path d="M121.537 283.374C121.537 283.374 114.027 315.504 87.9903 319.729C61.9531 323.961 76.8449 263.703 76.8449 263.703" fill="#CD6329"/>
  <path d="M76.8449 263.703C76.8449 263.703 61.9531 323.961 87.9903 319.729C114.027 315.496 121.537 283.374 121.537 283.374" stroke="black" stroke-width="4" stroke-linecap="round" stroke-linejoin="round"/>
  <path d="M215.026 263.703C215.026 263.703 229.918 323.961 203.881 319.729C177.844 315.496 170.334 283.374 170.334 283.374" fill="#CD6329"/>
  <path d="M215.026 263.703C215.026 263.703 229.918 323.961 203.881 319.729C177.844 315.496 170.334 283.374 170.334 283.374" stroke="black" stroke-width="4" stroke-linecap="round" stroke-linejoin="round"/>
  <path d="M206.39 321.649C205.503 321.649 204.564 321.572 203.608 321.41C176.743 317.049 168.986 285.115 168.67 283.758C168.483 282.956 168.892 282.137 169.643 281.804L214.344 262.133C214.566 262.039 214.796 261.988 215.035 261.988C215.291 261.988 215.547 262.048 215.786 262.167C216.239 262.389 216.571 262.799 216.691 263.294C217.101 264.932 226.514 303.668 216.068 317.007C213.653 320.088 210.401 321.649 206.399 321.649H206.39Z" fill="#8AB242"/>
  <path d="M215.027 263.705C215.027 263.705 228.928 319.943 206.39 319.943C205.597 319.943 204.76 319.875 203.881 319.73C177.844 315.497 170.334 283.375 170.334 283.375L215.035 263.705M215.035 260.291C214.566 260.291 214.096 260.385 213.661 260.581L168.96 280.252C167.458 280.918 166.639 282.556 167.014 284.152C167.1 284.502 169.071 292.805 174.422 301.723C181.667 313.816 191.669 321.206 203.344 323.101C204.393 323.272 205.426 323.357 206.399 323.357C210.896 323.357 214.702 321.522 217.416 318.057C222.144 312.015 223.706 300.776 222.05 284.664C220.864 273.101 218.457 263.295 218.355 262.885C218.116 261.904 217.45 261.085 216.546 260.641C216.068 260.41 215.556 260.291 215.035 260.291Z" fill="black"/>
  <path d="M170.325 283.376L215.026 263.705C215.026 263.705 216.272 268.757 217.416 275.832C217.416 275.832 208.37 290.485 193.555 296.271L190.593 309.678L182.486 307.169C173.414 296.578 170.325 283.376 170.325 283.376Z" fill="#72912F"/>
  <path d="M85.4811 321.651C81.4786 321.651 78.2187 320.089 75.8121 317.009C65.3665 303.67 74.7795 264.934 75.1891 263.296C75.3086 262.809 75.6414 262.4 76.0937 262.169C76.3327 262.05 76.5887 261.99 76.8447 261.99C77.0751 261.99 77.3141 262.041 77.536 262.135L122.237 281.806C122.988 282.139 123.397 282.958 123.21 283.76C122.894 285.117 115.137 317.051 88.2717 321.412C87.3159 321.566 86.3771 321.651 85.4896 321.651H85.4811Z" fill="#8AB242"/>
  <path d="M76.8448 263.705L121.546 283.375C121.546 283.375 114.036 315.506 87.9987 319.73C87.1111 319.875 86.2833 319.943 85.4897 319.943C62.9515 319.943 76.8533 263.705 76.8533 263.705M76.8533 260.291C76.3413 260.291 75.8207 260.41 75.3428 260.641C74.4382 261.085 73.7811 261.904 73.5336 262.885C73.4312 263.295 71.0246 273.101 69.8384 284.664C68.1828 300.776 69.736 312.015 74.4723 318.057C77.1861 321.522 80.9923 323.357 85.4897 323.357C86.4711 323.357 87.4951 323.272 88.5448 323.101C100.219 321.206 110.213 313.808 117.466 301.723C122.809 292.805 124.789 284.502 124.874 284.152C125.249 282.556 124.43 280.909 122.928 280.252L78.2273 260.581C77.792 260.385 77.3227 260.291 76.8533 260.291Z" fill="black"/>
  <path d="M121.537 283.376L76.8358 263.705C76.8358 263.705 75.5898 268.757 74.4463 275.832C74.4463 275.832 83.4923 290.485 98.3073 296.271L101.269 309.678L109.376 307.169C118.447 296.578 121.537 283.376 121.537 283.376Z" fill="#72912F"/>
  <path d="M258.781 240.516C245.459 240.516 230.286 230.967 229.646 230.557C228.937 230.105 228.656 229.2 228.997 228.432L250.375 179.755C250.58 179.285 250.981 178.935 251.476 178.799C251.629 178.756 251.783 178.73 251.945 178.73C252.286 178.73 252.628 178.833 252.918 179.029C253.285 179.285 261.964 185.319 269.158 194.663C278.895 207.311 281.037 219.873 275.371 230.993C272.153 237.308 266.572 240.516 258.798 240.516H258.781Z" fill="#8AB242"/>
  <path d="M251.927 180.437C251.927 180.437 286.908 204.563 273.834 230.216C270.565 236.633 264.924 238.801 258.78 238.801C245.8 238.801 230.558 229.106 230.558 229.106L251.935 180.429M251.935 177.015C251.62 177.015 251.312 177.058 251.005 177.143C250.024 177.425 249.222 178.125 248.812 179.055L227.434 227.732C226.76 229.277 227.306 231.078 228.732 231.982C229.389 232.401 244.972 242.206 258.788 242.206C267.143 242.206 273.398 238.596 276.889 231.752C282.88 220.001 280.669 206.816 270.505 193.605C263.149 184.056 254.257 177.869 253.881 177.604C253.309 177.203 252.627 176.998 251.944 176.998L251.935 177.015Z" fill="black"/>
  <path d="M251.927 180.438C251.927 180.438 249.709 176.453 255.546 182.836L258.149 200.356L247.362 215.146L243.547 227.887L252.875 233.886L248.556 237.257C236.498 234.031 230.55 229.124 230.55 229.124L251.927 180.446V180.438Z" fill="#72912F"/>
  <path d="M31.8187 252.739C26.2972 252.739 21.962 249.351 18.9495 242.669C6.78858 215.744 36.5636 180.798 37.8352 179.321C38.1595 178.946 38.6374 178.732 39.1238 178.732C39.2091 178.732 39.2945 178.732 39.3798 178.749C39.9601 178.835 40.4551 179.21 40.6855 179.748L62.0631 228.426C62.3106 228.98 62.2423 229.62 61.8839 230.107C61.2182 231.029 45.4389 252.73 31.8187 252.73V252.739Z" fill="#8AB242"/>
  <path d="M39.1243 180.439L60.5019 229.117C60.5019 229.117 44.7226 251.032 31.8192 251.032C27.484 251.032 23.4815 248.566 20.5032 241.969C8.64949 215.727 39.1243 180.439 39.1243 180.439ZM39.1243 177.025C38.1429 177.025 37.1956 177.452 36.5385 178.212C35.2328 179.722 4.7836 215.471 17.3883 243.377C21.5187 252.525 27.5181 254.446 31.8192 254.446C46.0624 254.446 61.5516 233.495 63.2669 231.114C63.9752 230.132 64.1118 228.852 63.6253 227.743L42.2477 179.065C41.7784 177.99 40.7884 177.239 39.6278 177.06C39.4571 177.034 39.2864 177.025 39.1158 177.025H39.1243Z" fill="black"/>
  <path d="M39.1246 180.439C39.1246 180.439 37.7421 181.131 33.441 188.137L29.8652 205.691L43.6903 215.139L47.5049 227.88L38.1773 233.879L47.6415 243.19C54.8698 237.131 60.4936 229.117 60.4936 229.117L39.1161 180.439H39.1246Z" fill="#72912F"/>
  <path d="M185.448 303.412C185.167 303.412 184.894 303.344 184.638 303.208L173.424 297.157C164.583 300.11 155.409 301.612 146.15 301.612C136.89 301.612 127.511 300.076 118.568 297.055L107.158 303.208C106.902 303.344 106.629 303.412 106.347 303.412C106.066 303.412 105.792 303.344 105.545 303.208C105.041 302.935 104.7 302.431 104.649 301.859L103.582 290.398C92.7525 284.365 83.0409 276.181 74.7032 266.042H59.9479C59.4444 266.042 58.9665 265.82 58.6423 265.428C58.318 265.035 58.1814 264.532 58.2753 264.028L61.4243 246.551L46.2083 235.832C45.6792 235.456 45.4061 234.816 45.5085 234.176C45.6109 233.536 46.0632 233.007 46.6776 232.811L54.6313 230.302C52.5234 224.405 50.8251 218.26 49.5792 211.997L37.1196 203.787C36.4881 203.377 36.2064 202.601 36.4198 201.875L41.2586 185.482L31.436 152.6C31.2311 151.9 31.4872 151.149 32.076 150.723L46.8056 140.141L42.1888 114.214C42.0778 113.608 42.3082 112.994 42.7776 112.61C43.0934 112.345 43.4774 112.209 43.8699 112.209C44.0662 112.209 44.271 112.243 44.4588 112.311L53.3683 115.614V91.0787C53.3683 90.3789 53.795 89.756 54.435 89.4914C54.6398 89.4061 54.8617 89.3719 55.0751 89.3719C55.5274 89.3719 55.9797 89.5512 56.3039 89.8925L64.7696 98.6996L72.9793 75.564C73.2183 74.8898 73.8498 74.4375 74.5666 74.429H74.5922C75.292 74.429 75.9321 74.8642 76.1796 75.5213L79.5675 84.2516L119.327 58.3083C119.609 58.1205 119.933 58.0267 120.258 58.0267C120.539 58.0267 120.812 58.0949 121.068 58.2315C121.623 58.5302 121.964 59.1019 121.964 59.7335V65.0757L145.211 49.7914C145.492 49.6036 145.825 49.5098 146.15 49.5098C146.474 49.5098 146.807 49.6036 147.088 49.7914L170.335 65.0757V59.7335C170.335 59.1105 170.676 58.5302 171.231 58.2315C171.487 58.0949 171.76 58.0267 172.042 58.0267C172.366 58.0267 172.69 58.1205 172.972 58.3083L212.732 84.2516L216.12 75.5213C216.376 74.8642 217.007 74.429 217.707 74.429H217.732C218.449 74.4375 219.081 74.8898 219.32 75.564L227.529 98.6996L235.995 89.8925C236.319 89.5512 236.772 89.3719 237.224 89.3719C237.437 89.3719 237.651 89.4146 237.864 89.4914C238.513 89.7474 238.931 90.3789 238.931 91.0787V115.614L247.84 112.311C248.037 112.243 248.233 112.209 248.429 112.209C248.822 112.209 249.214 112.345 249.522 112.61C249.991 113.003 250.213 113.617 250.11 114.214L245.493 140.141L260.223 150.723C260.812 151.149 261.068 151.9 260.863 152.6L251.032 185.507L254.352 198.18C254.514 198.786 254.318 199.435 253.857 199.87L243.147 209.752C241.858 216.827 239.998 223.773 237.617 230.43L245.118 232.802C245.732 232.999 246.193 233.528 246.287 234.168C246.39 234.808 246.116 235.448 245.587 235.823L230.61 246.38C230.542 246.508 230.474 246.627 230.414 246.755L233.52 264.02C233.606 264.515 233.478 265.027 233.153 265.419C232.829 265.803 232.351 266.034 231.848 266.034H217.596C209.113 276.343 199.222 284.638 188.188 290.688L187.147 301.859C187.096 302.431 186.754 302.935 186.251 303.208C186.003 303.344 185.722 303.412 185.448 303.412Z" fill="#8AB242"/>
  <path d="M146.158 51.2339L172.05 68.2592V59.7508L213.568 86.8462L217.724 76.1531L226.855 101.892L237.232 91.0961V118.08L248.446 113.924L243.641 140.909L259.241 152.122L249.274 185.482L252.713 198.624L241.585 208.899C240.185 216.767 238.111 224.345 235.415 231.531L244.623 234.441L229.304 245.228C229.082 245.646 228.86 246.064 228.639 246.483L231.856 264.336H216.793C208.251 274.884 198.002 283.511 186.575 289.63L185.448 301.706L173.577 295.305C164.873 298.292 155.673 299.905 146.149 299.905C136.625 299.905 127.204 298.258 118.414 295.203L106.347 301.714L105.195 289.349C93.9811 283.247 83.9195 274.73 75.505 264.344H59.9391L63.2759 245.8L47.1723 234.45L56.8242 231.403C54.392 224.892 52.4633 218.056 51.0894 210.973L38.0324 202.37L43.0162 185.49L33.0485 152.131L48.6486 140.917L43.844 113.933L55.0576 118.089V91.1046L65.435 101.9L74.5663 76.1616L78.7224 86.8547L120.24 59.7593V68.2677L146.132 51.2424M146.158 47.8203C145.501 47.8203 144.852 48.0081 144.28 48.3836L123.679 61.927V59.7423C123.679 58.4878 122.997 57.3357 121.887 56.7383C121.375 56.4652 120.82 56.3287 120.266 56.3287C119.617 56.3287 118.969 56.5164 118.397 56.8834L80.4035 81.6746L77.7751 74.9071C77.263 73.5929 76 72.731 74.5919 72.731C74.5748 72.731 74.5578 72.731 74.5407 72.731C73.1155 72.748 71.8525 73.6612 71.3746 75.001L64.0866 95.5337L57.5325 88.7236C56.8754 88.0409 55.9793 87.6739 55.0747 87.6739C54.648 87.6739 54.2128 87.7508 53.8032 87.9214C52.5145 88.442 51.6611 89.6965 51.6611 91.0875V113.173L45.0473 110.724C44.6633 110.579 44.2622 110.511 43.8611 110.511C43.076 110.511 42.2994 110.784 41.6679 111.305C40.7291 112.09 40.2854 113.319 40.4987 114.522L44.9278 139.39L31.0687 149.349C29.8824 150.202 29.3704 151.704 29.7886 153.095L39.4661 185.49L34.7724 201.398C34.3457 202.84 34.9175 204.385 36.172 205.212L48.0342 213.029C49.1692 218.542 50.6371 223.961 52.4292 229.201L46.1567 231.181C44.9193 231.574 44.0062 232.632 43.8099 233.912C43.6136 235.192 44.1598 236.481 45.218 237.223L59.5465 247.319L56.5938 263.721C56.4146 264.72 56.6876 265.744 57.3362 266.512C57.9848 267.28 58.9406 267.732 59.9562 267.732H73.9092C82.0677 277.504 91.4977 285.466 101.977 291.431L102.959 302.005C103.061 303.148 103.735 304.155 104.742 304.701C105.246 304.974 105.801 305.102 106.355 305.102C106.91 305.102 107.473 304.966 107.977 304.693L118.738 298.89C127.639 301.817 136.856 303.302 146.158 303.302C155.46 303.302 164.463 301.851 173.262 298.992L183.827 304.693C184.33 304.966 184.893 305.102 185.448 305.102C186.003 305.102 186.558 304.966 187.061 304.701C188.068 304.164 188.742 303.148 188.845 302.005L189.8 291.738C200.485 285.747 210.094 277.683 218.398 267.741H231.847C232.854 267.741 233.819 267.288 234.467 266.52C235.116 265.752 235.389 264.72 235.21 263.73L232.257 247.327L246.586 237.232C247.644 236.481 248.19 235.201 247.994 233.921C247.797 232.64 246.884 231.582 245.647 231.19L239.827 229.355C241.9 223.304 243.556 217.032 244.742 210.648L255.034 201.15C255.964 200.297 256.34 199 256.024 197.779L252.824 185.567L262.518 153.121C262.937 151.73 262.425 150.219 261.238 149.375L247.379 139.415L251.783 114.675C251.834 114.436 251.86 114.198 251.86 113.941C251.86 112.064 250.349 110.545 248.472 110.528C248.463 110.528 248.454 110.528 248.446 110.528C248.395 110.528 248.352 110.528 248.301 110.528C247.908 110.545 247.541 110.63 247.191 110.767L240.654 113.191V91.1046C240.654 89.7136 239.81 88.4591 238.512 87.9385C238.103 87.7678 237.668 87.691 237.241 87.691C236.328 87.691 235.44 88.058 234.783 88.7407L228.229 95.5508L220.941 75.0181C220.463 73.6697 219.2 72.7651 217.775 72.748C217.758 72.748 217.741 72.748 217.724 72.748C216.316 72.748 215.053 73.61 214.54 74.9242L211.912 81.6916L173.919 56.9005C173.356 56.5335 172.707 56.3457 172.05 56.3457C171.495 56.3457 170.932 56.4823 170.428 56.7554C169.327 57.3528 168.636 58.5048 168.636 59.7593V61.944L148.035 48.4006C147.463 48.0251 146.815 47.8374 146.158 47.8374V47.8203Z" fill="black"/>
  <path d="M48.6738 140.918L51.8911 133.732L43.8691 113.934L48.6738 140.918Z" fill="#72912F"/>
  <path d="M243.633 140.918L238.103 132.819L248.437 113.934L243.633 140.918Z" fill="#72912F"/>
  <path d="M56.8501 231.394L47.1982 234.441L63.3018 245.791L59.965 264.335H75.531C83.9455 274.713 94.007 283.238 105.221 289.34L106.373 301.706L118.44 295.194C127.23 298.249 136.54 299.896 146.175 299.896C155.81 299.896 164.899 298.283 173.603 295.297L185.474 301.697L186.601 289.621C198.028 283.503 208.268 274.875 216.819 264.327H231.882L228.665 246.474C228.886 246.056 229.108 245.637 229.33 245.219L244.649 234.432L235.44 231.522C238.137 224.337 240.22 216.758 241.611 208.89L252.739 198.615L238.129 204.444C238.129 204.444 236.49 223.808 230.141 234.39L237.122 235.661L227.598 242.01C227.598 242.01 207.918 273.33 182.94 283.067L181.455 290.159L170.446 287.232C170.446 287.232 161.255 291.115 146.167 291.115C131.079 291.115 121.888 287.232 121.888 287.232L110.879 290.159L109.394 283.067C84.4234 273.33 64.7355 242.01 64.7355 242.01L55.2116 235.661L62.1924 234.39C55.8431 223.808 54.2046 207.303 54.2046 207.303L38.0498 202.353L51.1068 210.955C52.4807 218.039 54.4094 224.866 56.8416 231.386L56.8501 231.394Z" fill="#72912F"/>
  <path d="M43.0419 185.49L45.969 174.191L33.0742 152.131L43.0419 185.49Z" fill="#72912F"/>
  <path d="M249.197 185.49L246.27 174.191L259.164 152.131L249.197 185.49Z" fill="#72912F"/>
  <path d="M55.083 118.08L60.5021 111.62L55.083 91.0957V118.08Z" fill="#72912F"/>
  <path d="M237.224 118.08L231.805 111.62L237.224 91.0957V118.08Z" fill="#72912F"/>
  <path d="M78.7478 86.8376L75.3855 91.096L74.5918 76.1445L78.7478 86.8376Z" fill="#72912F"/>
  <path d="M213.567 86.8376L216.921 91.096L217.715 76.1445L213.567 86.8376Z" fill="#72912F"/>
  <path d="M144.732 94.2971C156.676 94.2971 166.358 90.9348 166.358 86.7872C166.358 82.6396 156.676 79.2773 144.732 79.2773C132.789 79.2773 123.107 82.6396 123.107 86.7872C123.107 90.9348 132.789 94.2971 144.732 94.2971Z" fill="#72912F"/>
  <path d="M166.358 86.7871C166.358 90.9346 156.68 94.297 144.732 94.297C132.785 94.297 123.107 90.9346 123.107 86.7871" stroke="#C5FF5F" stroke-width="4" stroke-linecap="round" stroke-linejoin="round"/>
  <path d="M159.462 173.082C150.808 176.649 141.088 176.649 132.435 173.082" stroke="black" stroke-width="4" stroke-linecap="round" stroke-linejoin="round"/>
  <path d="M137.623 183.493C142.957 181.291 148.939 181.291 154.264 183.493" stroke="#72912F" stroke-width="4" stroke-linecap="round" stroke-linejoin="round"/>
  <path d="M68.8232 154.264C68.8232 154.264 82.964 169.557 118.551 161.569" stroke="#C5FF5F" stroke-width="4" stroke-linecap="round" stroke-linejoin="round"/>
  <path d="M224.141 154.264C224.141 154.264 210 169.557 174.413 161.569" stroke="#C5FF5F" stroke-width="4" stroke-linecap="round" stroke-linejoin="round"/>
  <path d="M153.07 139.561C153.07 139.561 154.743 151.781 161.382 159.265" stroke="#72912F" stroke-width="4" stroke-linecap="round" stroke-linejoin="round"/>
  <path d="M139.27 139.561C139.27 139.561 137.597 151.781 130.958 159.265" stroke="#72912F" stroke-width="4" stroke-linecap="round" stroke-linejoin="round"/>
  <path d="M73.6447 230.312L97.19 223.758L94.0068 238.846L72.6719 230.312" fill="#72912F"/>
  <path d="M94.0061 238.845L73.2344 230.303L79.3788 221.777" stroke="black" stroke-width="4" stroke-linecap="round" stroke-linejoin="round"/>
  <path d="M110.195 269.345L121.708 254.086L124.456 267.425L110.195 269.345Z" fill="#72912F"/>
  <path d="M124.456 267.425L110.195 269.345L108.369 257.688" stroke="black" stroke-width="4" stroke-linecap="round" stroke-linejoin="round"/>
  <path d="M122.117 239.894L132.563 228.143L133.945 239.262L122.117 239.894Z" fill="#72912F"/>
  <path d="M133.945 239.263L122.117 239.894L121.392 230.217" stroke="black" stroke-width="4" stroke-linecap="round" stroke-linejoin="round"/>
  <path d="M168.807 239.894L158.37 228.143L156.987 239.262L168.807 239.894Z" fill="#72912F"/>
  <path d="M156.987 239.263L168.807 239.894L169.541 230.217" stroke="black" stroke-width="4" stroke-linecap="round" stroke-linejoin="round"/>
  <path d="M218.661 230.312L195.116 223.758L198.299 238.846L219.634 230.312" fill="#72912F"/>
  <path d="M198.3 238.845L219.071 230.303L212.936 221.777" stroke="black" stroke-width="4" stroke-linecap="round" stroke-linejoin="round"/>
  <path d="M182.111 269.347L170.607 254.088L167.851 267.426L182.111 269.347Z" fill="#72912F"/>
  <path d="M167.851 267.427L182.111 269.347L183.937 257.689" stroke="black" stroke-width="4" stroke-linecap="round" stroke-linejoin="round"/>
  <path d="M194.306 159.164C158.668 159.164 157.772 140.082 157.755 139.271C157.738 138.751 157.968 138.247 158.369 137.914C158.932 137.445 172.45 126.453 197.113 126.453C206.569 126.453 216.468 128.1 226.53 131.36C227.17 131.565 227.631 132.128 227.699 132.802C227.742 133.178 228.638 142.13 221.947 149.589C216.255 155.947 206.953 159.164 194.297 159.164H194.306Z" fill="white"/>
  <path d="M197.114 128.16C205.477 128.16 215.137 129.465 226.01 132.981C226.01 132.981 228.698 157.457 194.314 157.457C159.931 157.457 159.47 139.228 159.47 139.228C159.47 139.228 172.8 128.16 197.122 128.16M197.122 124.746C171.853 124.746 157.874 136.113 157.286 136.6C156.483 137.265 156.031 138.264 156.057 139.314C156.082 140.193 157.038 160.87 194.314 160.87C207.465 160.87 217.194 157.457 223.228 150.723C230.413 142.702 229.449 133.016 229.406 132.606C229.261 131.266 228.339 130.14 227.059 129.73C216.827 126.419 206.748 124.746 197.122 124.746Z" fill="black"/>
  <path d="M222.742 134.654C222.742 134.654 189.442 122.8 162.773 140.158" stroke="#DBDBDB" stroke-width="4" stroke-linecap="round" stroke-linejoin="round"/>
  <path d="M98.8111 159.164C86.1552 159.164 76.6995 155.938 70.7087 149.58C63.7194 142.156 64.1631 133.255 64.1887 132.879C64.2314 132.179 64.7008 131.574 65.3664 131.36C75.428 128.109 85.3274 126.453 94.783 126.453C119.438 126.453 132.964 137.445 133.527 137.914C133.903 138.221 134.125 138.674 134.142 139.16C134.15 139.391 134.321 144.776 129.371 149.93C123.491 156.057 113.216 159.164 98.8111 159.164Z" fill="white"/>
  <path d="M94.7833 128.16C119.105 128.16 132.435 139.228 132.435 139.228C132.435 139.228 133.195 157.457 98.8113 157.457C64.4279 157.457 65.8872 132.981 65.8872 132.981C76.7595 129.465 86.42 128.16 94.7833 128.16ZM94.7833 124.746C85.1484 124.746 75.0783 126.427 64.8376 129.73C63.4977 130.165 62.5675 131.368 62.4822 132.777C62.4566 133.186 61.9787 142.795 69.4715 150.749C75.7952 157.465 85.669 160.87 98.8113 160.87C113.695 160.87 124.388 157.585 130.6 151.108C135.951 145.526 135.874 139.723 135.849 139.083C135.806 138.119 135.362 137.214 134.62 136.6C134.04 136.113 120.052 124.746 94.7833 124.746Z" fill="black"/>
  <path d="M99.5195 152.131C104.77 152.131 109.026 147.875 109.026 142.624C109.026 137.374 104.77 133.117 99.5195 133.117C94.2691 133.117 90.0127 137.374 90.0127 142.624C90.0127 147.875 94.2691 152.131 99.5195 152.131Z" fill="black"/>
  <path d="M94.9108 142.615C97.2439 142.615 99.1352 140.723 99.1352 138.39C99.1352 136.057 97.2439 134.166 94.9108 134.166C92.5778 134.166 90.6865 136.057 90.6865 138.39C90.6865 140.723 92.5778 142.615 94.9108 142.615Z" fill="white"/>
  <path d="M192.771 152.131C198.021 152.131 202.277 147.875 202.277 142.624C202.277 137.374 198.021 133.117 192.771 133.117C187.52 133.117 183.264 137.374 183.264 142.624C183.264 147.875 187.52 152.131 192.771 152.131Z" fill="black"/>
  <path d="M68.8232 134.654C68.8232 134.654 102.123 122.8 128.791 140.158" stroke="#DBDBDB" stroke-width="4" stroke-linecap="round" stroke-linejoin="round"/>
  <path d="M188.529 142.615C190.862 142.615 192.753 140.723 192.753 138.39C192.753 136.057 190.862 134.166 188.529 134.166C186.196 134.166 184.305 136.057 184.305 138.39C184.305 140.723 186.196 142.615 188.529 142.615Z" fill="white"/>
  <path d="M138.246 133.58C137.896 133.58 137.555 133.477 137.256 133.264C137.068 133.136 118.345 120.062 90.9421 120.062C81.5462 120.062 72.1162 121.598 62.908 124.619C62.7288 124.679 62.5496 124.704 62.3789 124.704C61.8839 124.704 61.3975 124.482 61.0647 124.081C60.6209 123.544 60.5441 122.784 60.8855 122.17L69.1463 107.269C69.317 106.962 69.573 106.723 69.8803 106.57L83.8504 99.6655C84.0893 99.5461 84.3453 99.4863 84.6099 99.4863C84.7294 99.4863 84.8403 99.4949 84.9598 99.5205L130.284 108.951C130.847 109.07 131.308 109.454 131.521 109.983L133.339 114.515L135.208 111.852C135.532 111.391 136.061 111.127 136.607 111.127C136.752 111.127 136.906 111.144 137.051 111.186C137.742 111.374 138.246 111.972 138.306 112.688L139.953 131.719C140.012 132.385 139.68 133.016 139.099 133.349C138.835 133.503 138.545 133.571 138.254 133.571L138.246 133.58Z" fill="#72912F"/>
  <path d="M84.6101 101.201L129.934 110.631L132.921 118.089L136.608 112.85L138.255 131.88C138.255 131.88 119.275 118.363 90.9594 118.363C82.2291 118.363 72.6199 119.643 62.3962 123.005L70.6571 108.105L84.6272 101.201M84.6272 97.7871C84.1066 97.7871 83.586 97.9066 83.1167 98.137L69.1466 105.041C68.5236 105.348 68.0115 105.843 67.6702 106.449L59.4093 121.349C58.7266 122.578 58.8717 124.097 59.7677 125.181C60.4248 125.983 61.3977 126.419 62.3962 126.419C62.7546 126.419 63.113 126.359 63.4629 126.248C72.4919 123.278 81.7427 121.776 90.9594 121.776C117.756 121.776 136.104 134.534 136.283 134.662C136.872 135.081 137.563 135.294 138.255 135.294C138.835 135.294 139.424 135.14 139.953 134.842C141.105 134.184 141.771 132.913 141.66 131.59L140.013 112.559C139.893 111.134 138.886 109.931 137.495 109.555C137.205 109.479 136.906 109.436 136.608 109.436C135.515 109.436 134.466 109.965 133.817 110.887L133.757 110.972L133.117 109.368C132.69 108.309 131.76 107.524 130.642 107.294L85.3184 97.8639C85.088 97.8127 84.8576 97.7956 84.6272 97.7956V97.7871Z" fill="black"/>
  <path d="M138.246 131.871L136.599 112.841L135.191 125.539C102.847 108.096 67.798 118.08 67.798 118.08L70.6398 108.096L62.3789 122.996C105.766 108.736 138.246 131.871 138.246 131.871Z" fill="#607527"/>
  <path d="M152.686 133.579C152.395 133.579 152.105 133.502 151.841 133.357C151.26 133.024 150.928 132.393 150.987 131.727L152.634 112.696C152.694 111.979 153.198 111.382 153.889 111.194C154.034 111.152 154.188 111.134 154.333 111.134C154.879 111.134 155.408 111.399 155.732 111.86L157.601 114.522L159.419 109.991C159.632 109.462 160.093 109.069 160.656 108.958L205.98 99.5283C206.091 99.5027 206.211 99.4941 206.33 99.4941C206.595 99.4941 206.851 99.5539 207.09 99.6734L221.06 106.577C221.376 106.731 221.632 106.978 221.794 107.277L230.055 122.177C230.396 122.792 230.328 123.551 229.875 124.089C229.543 124.49 229.056 124.712 228.561 124.712C228.382 124.712 228.203 124.686 228.032 124.627C218.832 121.606 209.402 120.07 199.998 120.07C172.604 120.07 153.872 133.135 153.684 133.272C153.385 133.485 153.044 133.587 152.694 133.587L152.686 133.579Z" fill="#72912F"/>
  <path d="M206.321 101.201L220.291 108.105L228.552 123.005C218.329 119.643 208.719 118.363 199.989 118.363C171.665 118.363 152.694 131.88 152.694 131.88L154.341 112.85L158.028 118.089L161.015 110.631L206.338 101.201M206.338 97.7871C206.108 97.7871 205.869 97.8127 205.647 97.8554L160.323 107.285C159.205 107.516 158.275 108.301 157.848 109.359L157.208 110.964L157.149 110.878C156.5 109.957 155.45 109.427 154.358 109.427C154.059 109.427 153.761 109.462 153.471 109.547C152.088 109.922 151.081 111.117 150.953 112.551L149.306 131.582C149.195 132.904 149.861 134.176 151.013 134.842C151.542 135.14 152.122 135.294 152.702 135.294C153.402 135.294 154.093 135.081 154.682 134.662C154.862 134.534 173.201 121.776 199.998 121.776C209.214 121.776 218.465 123.278 227.494 126.248C227.844 126.359 228.202 126.419 228.561 126.419C229.559 126.419 230.532 125.975 231.189 125.181C232.085 124.097 232.222 122.578 231.548 121.349L223.287 106.449C222.954 105.843 222.434 105.348 221.811 105.041L207.84 98.137C207.371 97.9066 206.85 97.7871 206.33 97.7871H206.338Z" fill="black"/>
  <path d="M152.686 131.871L154.333 112.841L155.741 125.539C188.084 108.096 223.133 118.08 223.133 118.08L220.292 108.096L228.553 122.996C185.166 108.736 152.686 131.871 152.686 131.871Z" fill="#607527"/>
  <path d="M136.25 85.4282C136.25 85.4282 120.983 56.4554 134.646 25.1357C134.646 25.1357 156.236 14.5365 163.345 36.4432C163.345 36.4432 144.536 55.5251 153.727 85.4367C153.727 85.4367 144.681 90.3011 136.25 85.4367V85.4282Z" fill="#725126" stroke="black" stroke-width="4" stroke-linecap="round" stroke-linejoin="round"/>
  <path d="M134.646 25.1369C134.646 25.1369 140.099 45.2344 163.345 36.4444C163.345 36.4444 158.404 15.0071 134.646 25.1369Z" fill="#A87B45" stroke="black" stroke-width="4" stroke-linecap="round" stroke-linejoin="round"/>
  <path d="M147.642 81.8362C147.642 81.8362 141.08 62.6433 152.686 43.459" stroke="#351B00" stroke-width="4" stroke-linecap="round" stroke-linejoin="round"/>
  <path d="M257.492 240.501C257.492 240.501 307.501 245.459 308.918 208.2C310.249 173.151 264.268 196.141 264.268 196.141" fill="#8AB242"/>
  <path d="M257.492 240.501C257.492 240.501 307.501 245.459 308.918 208.2C310.249 173.151 264.268 196.141 264.268 196.141" stroke="black" stroke-width="4" stroke-linecap="round" stroke-linejoin="round"/>
  <path d="M264.489 197.821C264.489 197.821 250.391 218.337 306.596 213.353C306.596 213.353 307.142 211.936 308.183 198.103C309.003 187.214 281.702 189.1 264.489 197.821Z" fill="#72912F"/>
  <path d="M292.114 209.274C305.773 209.274 316.846 204.008 316.846 197.514C316.846 191.019 305.773 185.754 292.114 185.754C278.455 185.754 267.383 191.019 267.383 197.514C267.383 204.008 278.455 209.274 292.114 209.274Z" fill="#E19E00" stroke="#BF7F00" stroke-width="4" stroke-linecap="round" stroke-linejoin="round"/>
  <path d="M292.114 202.729C305.773 202.729 316.846 197.464 316.846 190.969C316.846 184.474 305.773 179.209 292.114 179.209C278.455 179.209 267.383 184.474 267.383 190.969C267.383 197.464 278.455 202.729 292.114 202.729Z" fill="#E19E00" stroke="#BF7F00" stroke-width="4" stroke-linecap="round" stroke-linejoin="round"/>
  <path d="M292.114 195.252C305.773 195.252 316.846 189.987 316.846 183.492C316.846 176.997 305.773 171.732 292.114 171.732C278.455 171.732 267.383 176.997 267.383 183.492C267.383 189.987 278.455 195.252 292.114 195.252Z" fill="#BF7F00" stroke="black" stroke-width="4" stroke-linecap="round" stroke-linejoin="round"/>
  <path d="M292.114 196.012C305.773 196.012 316.846 190.747 316.846 184.252C316.846 177.757 305.773 172.492 292.114 172.492C278.455 172.492 267.383 177.757 267.383 184.252C267.383 190.747 278.455 196.012 292.114 196.012Z" fill="#E19E00" stroke="#BF7F00" stroke-width="4" stroke-linecap="round" stroke-linejoin="round"/>
  <path d="M292.114 189.262C305.773 189.262 316.846 183.997 316.846 177.502C316.846 171.007 305.773 165.742 292.114 165.742C278.455 165.742 267.383 171.007 267.383 177.502C267.383 183.997 278.455 189.262 292.114 189.262Z" fill="#E19E00" stroke="#BF7F00" stroke-width="4" stroke-linecap="round" stroke-linejoin="round"/>
  <path d="M292.114 182.588C305.773 182.588 316.846 177.323 316.846 170.828C316.846 164.333 305.773 159.068 292.114 159.068C278.455 159.068 267.383 164.333 267.383 170.828C267.383 177.323 278.455 182.588 292.114 182.588Z" fill="#E19E00" stroke="#BF7F00" stroke-width="4" stroke-linecap="round" stroke-linejoin="round"/>
  <path d="M298.48 167.305L294.648 166.878L292.728 168.115L296.56 170.018L301.219 172.442L299.786 174.644L294.648 175.463V177.468H289.528C289.366 177.468 289.152 176.914 288.896 175.796L283.145 175.105L285.065 173.014L288.896 173.833L292.728 171.887L286.976 169.336L284.194 166.81L285.056 165.248L288.888 164.531V162.432H292.72L293.334 164.429L296.551 164.454L300.383 165.692L298.463 167.322L298.48 167.305Z" fill="#FFB727"/>
  <path d="M305.504 165.342C305.504 165.342 315.233 168.03 310.658 173.406" stroke="#FFB727" stroke-width="2" stroke-linecap="round" stroke-linejoin="round"/>
  <path d="M271.804 168.807C271.804 168.807 268.245 172.638 277.829 176.47" stroke="#FFB727" stroke-width="2" stroke-linecap="round" stroke-linejoin="round"/>
  <g clip-path="url(#clip0_489_5107)">
    <path d="M54.2427 341.628L55.9231 289.603L71.7438 273.047L106.2 270.345L115.186 278.916L121.282 274.47L142.994 275.298L152.601 283.069L159.06 276.967L182.951 276.42L188.347 277.17L200.02 280.777L204.245 277.097L220.503 277.624L229.782 284.356L237.321 278.169L249.2 278.546L265.82 297.008L262.053 349.008L244.345 364.957L229.73 364.481L221.974 356.205L212.983 363.942L197.772 363.446L197.191 362.77L196.76 363.418L179.86 362.867L174.881 358.449L169.898 362.538L154.853 362.055L154.809 362.004L154.77 362.048L138.274 361.516L128.681 355.153L118.706 360.884L105.781 360.464L104.352 358.52L71.9391 359.419L54.2427 341.628Z" fill="#324C0B"/>
    <path d="M247.834 281.485L262.757 298.067L259.163 347.609L243.234 361.95L231.046 361.561L222.185 352.116L211.907 360.95L199.147 360.542L196.84 357.899L195.172 360.411L180.996 359.957L174.921 354.574L168.843 359.571L156.191 359.16L154.661 357.446L153.359 359.067L139.183 358.612L128.76 351.699L117.914 357.925L107.285 357.582L105.488 355.132L105.05 355.565L73.1037 356.451L57.2149 340.49L58.8216 290.881L73.076 275.962L105.085 273.446L114.905 282.82L122.175 277.519L141.865 278.267L152.72 287.05L160.244 279.943L182.748 279.434L187.672 280.126L200.487 284.093L200.595 284.244L205.293 280.146L219.468 280.6L229.868 288.144L238.309 281.213L247.807 281.519M250.538 275.651L248.003 275.568L238.505 275.262L236.267 275.19L234.538 276.611L229.643 280.635L222.955 275.791L221.473 274.713L219.651 274.66L205.475 274.206L203.131 274.126L201.369 275.664L199.276 277.488L189.422 274.446L188.967 274.305L188.495 274.234L183.572 273.543L183.1 273.471L182.622 273.483L160.118 273.992L157.835 274.047L156.178 275.617L152.429 279.154L145.623 273.645L144.083 272.396L142.108 272.32L122.418 271.571L120.36 271.489L118.694 272.7L115.439 275.069L109.215 269.126L107.288 267.288L104.636 267.494L72.6409 269.988L70.3727 270.164L68.8055 271.812L54.5511 286.731L52.9839 288.38L52.909 290.653L51.3023 340.261L51.217 342.832L53.0255 344.65L68.9143 360.611L70.7228 362.429L73.2932 362.359L102.872 361.546L104.236 363.402L107.128 363.5L117.756 363.843L119.447 363.898L120.918 363.054L128.572 358.664L135.926 363.546L137.336 364.475L139.026 364.53L153.202 364.984L156.166 365.075L168.687 365.477L170.925 365.549L172.654 364.128L174.803 362.356L177.074 364.376L178.685 365.797L180.828 365.862L195.004 366.316L196.384 366.36L198.967 366.446L211.726 366.854L214.035 366.931L215.794 365.429L221.749 360.315L226.71 365.603L228.401 367.4L230.865 367.477L243.053 367.866L245.446 367.938L247.224 366.341L263.153 352.001L264.931 350.404L265.11 348.019L268.692 298.476L268.882 295.949L267.185 294.068L252.262 277.486L250.565 275.605L250.538 275.651Z" fill="#496D20"/>
    <path d="M72.7144 340.948L74.3211 291.339L106.33 288.823L105.987 299.452L82.9164 302.256L82.1236 309.332L105.654 310.093L105.363 319.234L84.0535 320.035L83.7365 329.676L105.013 329.791L104.684 340.063L72.7381 340.949L72.7144 340.948Z" fill="white"/>
    <path d="M153.888 343.572L139.712 343.118L133.085 328.71L126.003 328.477L118.456 342.42L107.827 342.076L121.616 292.94L141.306 293.688L153.876 343.571L153.888 343.572ZM136.91 320.179L129.113 300.207L122.734 319.725L136.91 320.179Z" fill="white"/>
    <path d="M195.7 344.93L181.524 344.476L178.593 325.333L172.506 325.032L169.372 344.09L156.72 343.678L160.626 295.388L183.13 294.88L195.945 298.847L194.095 316.521L185.757 323.341L195.699 344.942L195.7 344.93ZM168.065 316.479L180.111 315.735L187.952 305.848L175.871 301.16L168.464 301.917L168.065 316.479Z" fill="white"/>
    <path d="M243.749 346.479L231.561 346.091L231.794 339.009L216.225 313.682L212.434 345.48L199.674 345.073L204.828 295.575L219.004 296.029L232.027 331.916L237.857 296.631L247.355 296.937L243.761 346.48L243.749 346.479Z" fill="white"/>
  </g>
  <defs>
    <clipPath id="clip0_489_5107">
      <rect width="215.99" height="100" fill="white" transform="translate(55.0391 260.961) rotate(4.28671)"/>
    </clipPath>
  </defs>
</svg>
