<svg width="582" height="379" viewBox="0 0 582 379" fill="none" xmlns="http://www.w3.org/2000/svg">
  <path d="M373 325.79L508.06 300.08L509.12 288.74L486.97 287.35L371.18 314.08L373 325.79Z" fill="#405E16" stroke="black" stroke-width="2" stroke-linecap="round" stroke-linejoin="round"/>
  <path d="M308.031 246.1L342.641 215.59L383.041 248.02L374.131 321.39C374.131 321.39 376.101 335.29 364.491 334.49C352.881 333.69 291.461 252.5 291.461 252.5L308.021 246.1H308.031Z" fill="black"/>
  <path d="M271.791 340.89C271.791 340.89 273.771 385.09 327.891 378.21C382.011 371.32 381.981 236.51 313.971 248.81C245.971 261.11 271.791 340.9 271.791 340.9V340.89Z" fill="#191919"/>
  <path d="M35.5408 324.2C35.5408 324.2 37.5208 368.4 91.6408 361.52C145.761 354.63 145.731 219.82 77.7208 232.12C9.72081 244.42 35.5408 324.21 35.5408 324.21V324.2Z" fill="black"/>
  <path d="M504.798 205.71L539.408 175.2L574.348 214.12L572.588 280.91C572.588 280.91 572.878 294.9 561.268 294.1C549.658 293.3 488.238 212.11 488.238 212.11L504.798 205.71Z" fill="black"/>
  <path d="M507.569 295.47C507.569 295.47 506.639 335.55 543.949 330.21C581.259 324.87 581.229 220.46 534.359 229.99C487.489 239.52 507.569 295.47 507.569 295.47Z" fill="#191919"/>
  <path d="M552.108 327.63C564.318 320.63 570.978 301.39 571.568 281.76C571.568 278.26 571.478 274.85 571.318 271.57V271.55C571.248 270.65 571.158 269.76 571.058 268.87C571.048 268.78 571.038 268.69 571.028 268.6C570.938 267.77 570.828 266.94 570.708 266.12C570.698 266.04 570.688 265.95 570.668 265.87C570.138 262.25 569.378 258.73 568.388 255.39C568.368 255.32 568.348 255.26 568.328 255.19C568.098 254.43 567.858 253.67 567.608 252.93C567.578 252.86 567.558 252.78 567.528 252.71C567.258 251.92 566.968 251.15 566.668 250.39C565.738 248.02 564.668 245.79 563.458 243.72C563.448 243.7 563.438 243.68 563.428 243.67C563.048 243.02 562.648 242.38 562.238 241.76C562.208 241.72 562.178 241.67 562.148 241.63C561.728 241.01 561.298 240.4 560.858 239.82C560.858 239.82 560.848 239.8 560.838 239.8C559.448 237.98 557.918 236.35 556.248 234.95C554.748 234.45 553.118 234.19 551.328 234.19C540.158 234.19 531.098 255.81 531.098 282.49C531.098 307.43 539.848 327.61 552.098 327.65L552.108 327.63Z" fill="black"/>
  <path d="M552.137 317.7C560.471 317.7 567.227 301.063 567.227 280.54C567.227 260.017 560.471 243.38 552.137 243.38C543.803 243.38 537.047 260.017 537.047 280.54C537.047 301.063 543.803 317.7 552.137 317.7Z" fill="#BFBFBF"/>
  <path d="M81.8705 334.17L139.68 337.37C139.68 337.37 151.49 337.12 154.44 339.58C157.39 342.04 151.49 343.9 221.85 342.29C264.66 341.31 273.51 340.81 273.51 340.81C273.51 340.81 276.22 341.06 278.18 336.63C280.15 332.2 285.81 318.67 289.25 302.19C292.69 285.71 307.95 235.03 341.4 235.77C374.86 236.51 374.12 300.72 374.12 321.38L514.841 294.97C514.841 294.97 520.831 294.19 523.531 287.26C526.151 280.54 527.79 275.94 531.24 258.39C534.68 240.84 543.38 218.21 555.841 218.04C568.301 217.88 574.87 243.13 572.081 270.36C572.081 270.36 580.85 262.98 580.94 225.75C580.94 222.14 578.64 220.83 578.48 213.94C578.32 207.05 577.331 191.31 577.331 191.31C577.331 191.31 582.021 187.98 573.56 169.99C570.94 164.41 563.391 159.33 547.81 150.8C532.23 142.27 517.14 118.49 483.35 103.57C449.56 88.65 418.94 85.65 331.93 90.24C244.92 94.83 221.76 105.37 204.04 115.54C186.33 125.71 149.92 150.97 136.14 163.43C122.36 175.89 110.06 175.73 99.5705 178.68C89.0705 181.63 53.1405 191.5 37.5705 200.49C30.1905 204.75 34.9505 205.74 22.1505 212.63C17.8805 214.93 13.4605 228.05 12.9705 241.5C12.9705 241.5 8.21047 245.76 8.54047 252.65C8.87047 259.54 8.05047 270.53 1.98047 278.89C1.98047 278.89 4.11047 300.21 8.87047 313.5C8.87047 313.5 4.77047 321.7 8.54047 326.78C12.3105 331.86 20.6805 334.49 35.9305 331.54L81.8505 334.16L81.8705 334.17Z" fill="#E5E5E5"/>
  <path d="M292.62 190.75C292.62 202.05 261.11 204.35 233.11 209.94C205.11 215.53 178.43 207.24 178.43 193.55C178.43 182.25 212.38 170.3 240.92 170.3C269.46 170.3 292.61 179.46 292.61 190.75H292.62Z" fill="#AFAFAF"/>
  <path d="M43.9917 269.4C25.6817 268.84 14.7017 265.71 8.25172 261.64C7.57172 267.31 5.83172 273.62 2.01172 278.9C2.01172 278.9 4.14172 300.22 8.90172 313.51C8.90172 313.51 4.80172 321.71 8.57172 326.79C12.3417 331.87 20.7117 334.5 35.9617 331.55L81.8817 334.17L139.692 337.37C139.692 337.37 151.502 337.12 154.452 339.58C157.402 342.04 151.502 343.9 221.862 342.29C264.672 341.31 273.522 340.81 273.522 340.81C273.522 340.81 276.232 341.06 278.192 336.63C280.162 332.2 285.822 318.67 289.262 302.19C290.962 294.06 295.532 277.61 303.752 263.12C186.532 269.92 72.3717 270.27 43.9917 269.41V269.4Z" fill="#D3D3D3"/>
  <path d="M514.861 294.97C514.861 294.97 520.851 294.19 523.551 287.26C526.171 280.54 527.811 275.94 531.261 258.39C532.791 250.61 535.351 241.84 538.811 234.46C495.851 245.67 433.311 253.44 366.871 258.78C374.421 279.53 374.151 308.67 374.151 321.37L514.871 294.96L514.861 294.97Z" fill="#D3D3D3"/>
  <path d="M572.092 270.37C572.092 270.37 580.862 262.99 580.952 225.76C580.952 223.47 580.032 222.1 579.312 219.66C575.542 221.76 571.202 223.77 566.332 225.7C571.682 235.19 573.932 252.35 572.092 270.37Z" fill="#D3D3D3"/>
  <path d="M381.679 314.82C376.849 315.74 374.859 313.99 374.109 311.87C374.149 315.57 374.139 318.81 374.139 321.38L514.859 294.97C514.859 294.97 520.849 294.19 523.549 287.26C524.109 285.83 524.619 284.5 525.109 283.13C517.319 295.89 392.019 312.84 381.679 314.81V314.82Z" fill="#BFBFBF"/>
  <path d="M269.07 95.8499C269.29 95.8499 389.55 97.5099 436.48 90.5499C412.54 87.4799 381.32 87.6399 331.95 90.2399C305.72 91.6199 285.3 93.5499 269.07 95.8399V95.8499Z" fill="white"/>
  <path d="M580.13 243.4C579 244.52 576.61 246.66 572.39 249.49C572.91 256.02 572.83 263.12 572.09 270.37C572.09 270.37 577.93 265.45 580.12 243.4H580.13Z" fill="#AFAFAF"/>
  <path d="M373.629 297.47C374.189 307.19 374.139 315.85 374.139 321.38L514.859 294.97C514.859 294.97 520.849 294.19 523.549 287.26C525.519 282.22 526.929 278.38 528.959 269.4C497.669 279.93 448.799 291.01 373.629 297.47Z" fill="#AFAFAF"/>
  <path d="M8.89 313.51C8.89 313.51 4.79 321.71 8.56 326.79C12.33 331.87 20.7 334.5 35.95 331.55L81.87 334.17L139.68 337.37C139.68 337.37 151.49 337.12 154.44 339.58C157.39 342.04 151.49 343.9 221.85 342.29C264.66 341.31 273.51 340.81 273.51 340.81C273.51 340.81 276.22 341.06 278.18 336.63C280.15 332.2 285.81 318.67 289.25 302.19C25.51 310.03 2 293.41 6.2 270.69C5.21 273.54 3.85 276.35 2 278.9C2 278.9 4.13 300.22 8.89 313.51Z" fill="#AFAFAF"/>
  <path d="M81.8705 334.17L139.68 337.37C139.68 337.37 151.49 337.12 154.44 339.58C157.39 342.04 151.49 343.9 221.85 342.29C264.66 341.31 273.51 340.81 273.51 340.81C273.51 340.81 276.22 341.06 278.18 336.63C280.15 332.2 285.81 318.67 289.25 302.19C292.69 285.71 307.95 235.03 341.4 235.77C374.86 236.51 374.12 300.72 374.12 321.38L514.841 294.97C514.841 294.97 520.831 294.19 523.531 287.26C526.151 280.54 527.79 275.94 531.24 258.39C534.68 240.84 543.381 218.21 555.841 218.04C568.301 217.88 574.871 243.13 572.081 270.36C572.081 270.36 580.85 262.98 580.94 225.75C580.94 222.14 578.64 220.83 578.48 213.94C578.32 207.05 577.331 191.31 577.331 191.31C577.331 191.31 582.02 187.98 573.56 169.99C570.94 164.41 563.39 159.33 547.81 150.8C532.23 142.27 517.14 118.49 483.35 103.57C449.56 88.65 418.94 85.65 331.93 90.24C244.92 94.83 221.76 105.37 204.04 115.54C186.33 125.71 149.92 150.97 136.14 163.43C122.36 175.89 110.06 175.73 99.5705 178.68C89.0705 181.63 53.1405 191.5 37.5705 200.49C30.1905 204.75 34.9505 205.74 22.1505 212.63C17.8805 214.93 13.4605 228.05 12.9705 241.5C12.9705 241.5 8.21047 245.76 8.54047 252.65C8.87047 259.54 8.05047 270.53 1.98047 278.89C1.98047 278.89 4.11047 300.21 8.87047 313.5C8.87047 313.5 4.77047 321.7 8.54047 326.78C12.3105 331.86 20.6805 334.49 35.9305 331.54L81.8505 334.16L81.8705 334.17Z" stroke="black" stroke-width="2" stroke-linecap="round" stroke-linejoin="round"/>
  <path d="M296.641 213.63C296.641 213.63 378.691 191.24 402.671 201.14C423.571 209.77 418.171 221.5 412.881 225.93C407.591 230.36 376.841 252.5 376.841 252.5C376.841 252.5 401.931 230.85 405.871 219.29C409.811 207.73 386.431 197.89 296.641 213.63Z" fill="white"/>
  <path d="M568.652 174.92C568.652 174.92 520.102 179.02 511.902 191.16C503.702 203.3 500.262 210.51 531.422 224.78C531.422 224.78 506.252 211.82 512.852 198.61C515.902 192.51 515.512 183.45 568.652 174.92Z" fill="white"/>
  <path d="M51.5312 209.36C51.5312 209.36 75.4812 193.45 116.311 178.85L51.5312 209.36Z" fill="white"/>
  <path d="M216.37 109.2C212.26 111.04 208.73 112.9 205.44 114.76C196.48 119.9 181.09 129.61 155.95 147.74C147.86 153.7 140.75 159.28 136.16 163.43C132.17 167.04 128.31 169.59 124.57 171.46C124.57 171.46 329.69 169.5 332.47 169.5C335.25 169.5 347.72 170.98 355.27 157.69C362.81 144.41 379.05 111.6 386.43 102.91C386.43 102.91 306.24 93.6699 216.36 109.19L216.37 109.2Z" fill="#353535"/>
  <path d="M364.85 139.92L205.8 114.55C205.68 114.62 205.55 114.69 205.43 114.76C202.24 116.59 198.23 119.01 193.25 122.17L342.75 168.36C346.99 166.97 351.68 163.99 355.27 157.68C357.74 153.34 361.14 146.9 364.85 139.91V139.92Z" fill="white"/>
  <path d="M276.088 170.03C289.148 169.91 300.918 169.8 310.298 169.71L184.638 127.79C181.708 129.74 178.528 131.88 175.078 134.25L276.088 170.03Z" fill="white"/>
  <path d="M216.37 109.2C212.26 111.04 208.73 112.9 205.44 114.76C196.48 119.9 181.09 129.61 155.95 147.74C147.86 153.7 140.75 159.28 136.16 163.43C132.17 167.04 128.31 169.59 124.57 171.46C124.57 171.46 329.69 169.5 332.47 169.5C335.25 169.5 347.72 170.98 355.27 157.69C362.81 144.41 379.05 111.6 386.43 102.91C386.43 102.91 306.24 93.6699 216.36 109.19L216.37 109.2Z" stroke="black" stroke-width="2" stroke-linecap="round" stroke-linejoin="round"/>
  <path d="M374.262 179.69C374.062 179.69 373.862 179.63 373.692 179.51C373.452 179.34 373.302 179.08 373.272 178.79C373.252 178.61 372.812 174.27 373.992 169.54C375.172 164.81 391.112 120.37 402.532 110.99C412.582 102.74 423.552 98.8999 437.082 98.8999C444.892 98.8999 453.602 100.25 462.982 102.93C493.922 111.75 509.292 118.27 537.112 147.73C537.252 147.88 537.352 148.08 537.372 148.29C537.462 148.98 538.192 155.09 536.202 157.48C535.672 158.12 534.962 158.48 534.172 158.52C529.952 158.74 410.252 170.34 374.502 179.65C374.422 179.67 374.332 179.68 374.252 179.68L374.262 179.69Z" fill="#353535"/>
  <path d="M437.081 99.9199C444.361 99.9199 452.811 101.09 462.701 103.91C494.351 112.93 509.321 119.78 536.381 148.44C536.381 148.44 537.551 157.37 534.121 157.54C530.921 157.7 410.791 169.18 374.251 178.7C374.251 178.7 373.801 174.41 374.951 169.8C376.181 164.88 392.171 120.8 403.161 111.78C410.711 105.58 421.061 99.9199 437.071 99.9199M437.071 97.9199C423.301 97.9199 412.121 101.83 401.891 110.23C390.301 119.75 374.201 164.55 373.011 169.31C371.791 174.2 372.241 178.71 372.261 178.9C372.321 179.48 372.631 180 373.111 180.33C373.451 180.56 373.851 180.69 374.251 180.69C374.421 180.69 374.591 180.67 374.751 180.63C410.401 171.35 530.001 159.75 534.221 159.53C535.301 159.47 536.251 158.99 536.971 158.13C539.181 155.47 538.521 149.37 538.361 148.17C538.311 147.75 538.121 147.36 537.831 147.06C509.841 117.41 494.381 110.85 463.241 101.98C453.781 99.2799 444.971 97.9199 437.071 97.9199Z" fill="black"/>
  <path d="M489.408 162.05C502.798 160.59 514.448 159.41 522.508 158.62L397.108 119.24C395.858 121.19 394.588 123.38 393.328 125.72L489.408 162.05Z" fill="white"/>
  <path d="M536.379 148.43C531.599 143.37 527.209 139 523.029 135.17L410.569 106.61C408.149 108.01 405.959 109.54 403.969 111.12L536.549 152.76C536.669 150.56 536.389 148.42 536.389 148.42L536.379 148.43Z" fill="white"/>
  <path d="M466.459 164.63C460.389 135.21 441.129 100.15 441.059 100.03C436.979 99.8001 433.239 99.9301 429.809 100.33C444.469 123 452.729 166.27 452.729 166.27C457.339 165.71 461.939 165.16 466.469 164.63H466.459Z" fill="black"/>
  <path d="M496.351 116.14C494.341 115.12 492.291 114.15 490.191 113.24C490.311 113.36 513.341 137.38 516.271 159.24H516.341C520.691 158.8 524.401 158.43 527.281 158.16H527.321C527.321 158.16 511.311 129.57 496.341 116.14H496.351Z" fill="black"/>
  <path d="M496.351 116.14C496.351 116.14 491.401 109.65 481.891 105.55C472.381 101.45 454.991 94.23 432.201 94.89C409.401 95.55 395.291 102.05 380.051 139.31C370.371 162.95 370.051 167.55 370.051 167.55C370.051 167.55 369.231 174.52 369.481 180.06C369.481 180.06 379.071 189.41 379.201 198.26C379.331 207.11 379.511 211.98 379.511 211.98C379.511 211.98 384.001 284.16 381.051 307.45L503.071 283.5C503.071 283.5 510.121 281.53 513.071 274.48C516.021 267.43 527.171 246.27 533.741 231.84C540.301 217.41 545.101 206.28 543.911 189.85C543.361 182.2 543.361 183.37 543.421 177.9C543.421 177.9 543.481 172.36 541.641 169.04C539.801 165.72 527.351 158.65 527.351 158.65" stroke="black" stroke-width="2" stroke-linecap="round" stroke-linejoin="round"/>
  <path d="M384.86 143.58C384.86 143.58 388.43 166.97 395.06 174.43L374.26 178.69C374.26 178.69 373.61 175.24 374.6 171.47C375.59 167.7 379.39 155.59 384.86 143.58Z" fill="black"/>
  <path d="M386.711 293.44L512.611 270.26C512.611 270.26 447.351 286.65 386.711 293.44Z" fill="white"/>
  <path d="M386.44 157.94C386.44 157.94 387.42 147.77 397.26 144.08L422.19 143.57C422.19 143.57 435.15 142.93 439.33 154.33V161.63C439.33 161.63 437.46 168.46 425.88 170.4L403.98 174.01C403.98 174.01 396.68 175.08 392.17 171.06C387.66 167.04 386.43 157.94 386.43 157.94H386.44Z" fill="black" stroke="black" stroke-width="2" stroke-miterlimit="10"/>
  <path d="M461.93 165.17C461.93 165.17 470.57 171.81 472.29 181.4C474.01 190.99 477.46 197.14 474.01 240.94C472.95 254.45 473.13 261.09 473.48 275.59C473.73 285.92 469.5 290.24 469.5 290.24" stroke="black" stroke-width="2" stroke-linecap="round" stroke-linejoin="round"/>
  <path d="M178.432 258.03C178.432 258.03 221.442 248.23 225.212 247.57C228.982 246.91 230.792 249.7 230.792 249.7C230.792 249.7 252.012 245.48 260.842 236.5C268.472 228.75 269.702 221.25 270.192 217.31C270.682 213.37 270.192 204.15 270.192 204.15C267.362 203.66 263.422 203.66 257.642 204.15C231.432 206.38 159.602 228.38 159.602 228.38C159.602 228.38 168.582 248.43 178.422 258.02L178.432 258.03Z" fill="#FFDB76" stroke="black" stroke-width="2" stroke-linecap="round" stroke-linejoin="round"/>
  <path d="M27.63 219.41C27.35 210.87 29.98 207.63 30.38 207.24C28.93 208.59 26.6 210.26 22.18 212.64C17.91 214.94 13.49 228.06 13 241.51C14.64 246.68 22.23 254.84 22.23 254.84C23.34 242.54 30.74 227.38 30.74 227.38C30.74 227.38 27.84 225.77 27.64 219.41H27.63Z" fill="#FFDB76" stroke="black" stroke-width="2" stroke-linecap="round" stroke-linejoin="round"/>
  <path d="M30.7309 227.37C30.7309 227.37 100.571 232.57 159.611 228.38C159.611 228.38 168.341 248.68 178.431 258.02L144.361 267.12C144.361 267.12 141.781 267.86 140.051 269.83C140.051 269.83 44.9009 272.29 30.7209 265.03C30.7209 265.03 24.1709 257.06 22.2109 254.82C22.2109 254.82 22.7209 243.16 30.7209 227.36L30.7309 227.37Z" fill="black" stroke="black" stroke-width="2" stroke-linecap="round" stroke-linejoin="round"/>
  <path d="M259.5 237.75C259.5 237.75 289 245.76 308.03 256.27" stroke="black" stroke-width="2" stroke-linecap="round" stroke-linejoin="round"/>
  <path d="M270.199 204.15C270.199 204.15 322.059 188.57 340.439 185.82C351.139 184.22 348.319 177.16 348.189 171.46L342.599 168.95" stroke="black" stroke-width="2" stroke-linecap="round" stroke-linejoin="round"/>
  <path d="M356.789 156.16C356.789 156.16 364.889 156.08 371.289 162.65" stroke="black" stroke-width="2" stroke-linecap="round" stroke-linejoin="round"/>
  <path d="M388.391 165.17L408.461 163.44C408.461 163.44 411.541 159.69 419.041 158.86C426.541 158.03 439.341 156.68 439.341 156.68V160.93L406.221 163.59" fill="black"/>
  <path d="M388.391 165.17L408.461 163.44C408.461 163.44 411.541 159.69 419.041 158.86C426.541 158.03 439.341 156.68 439.341 156.68V160.93L406.221 163.59" stroke="#666666" stroke-width="2" stroke-miterlimit="10"/>
  <path d="M230.791 249.71L151.981 270.24C151.981 270.24 144.601 271.19 144.971 275.74C145.341 280.29 156.291 295.42 157.641 296.9C158.991 298.38 160.721 298.99 166.621 297.76C172.521 296.53 210.041 290.38 216.071 289.89C222.101 289.4 231.811 287.06 237.721 294.2C243.621 301.33 249.041 319.91 249.041 319.91L181.761 320.89C181.761 320.89 173.051 321.21 167.981 318.68C159.621 314.5 140.921 285.96 138.341 280.67C135.761 275.38 139.051 270.8 140.061 269.85C141.071 268.9 142.681 267.59 146.941 266.45C151.201 265.31 176.631 258.45 178.431 258.04C180.231 257.63 222.111 248.22 223.261 247.98C224.411 247.74 227.741 246.38 230.791 249.72V249.71Z" fill="#E5E5E5" stroke="black" stroke-width="2" stroke-linecap="round" stroke-linejoin="round"/>
  <path d="M165.391 298C165.391 298 171.541 311.41 189.501 311.17C207.461 310.92 245.911 310.57 245.911 310.57C245.911 310.57 242.331 299.96 238.431 295.11C234.531 290.26 231.561 289.13 223.081 289.2C214.601 289.27 165.391 298 165.391 298Z" fill="#AFAFAF" stroke="black" stroke-width="2" stroke-linecap="round" stroke-linejoin="round"/>
  <path d="M12.99 241.51C12.99 241.51 13.42 244.87 22.22 254.84C23.89 256.73 30.46 263.02 31.32 267.45C32.18 271.88 27.21 293.52 21.23 309.83C19.88 313.52 14.49 313.32 7.22 308.19C7.22 308.19 2 286.04 2 278.91C2 278.91 9.49 270.17 8.56 252.67C8.19 245.74 12.99 241.52 12.99 241.52V241.51Z" fill="#D3D3D3" stroke="black" stroke-width="2" stroke-linecap="round" stroke-linejoin="round"/>
  <path d="M2 278.9C2 278.9 13.97 291.36 21.11 291.94C21.11 291.94 26.19 280.54 26.19 273.9C26.19 267.26 27.01 269.23 24.14 265.62C21.27 262.01 12 254.3 12.99 241.51C12.99 241.51 8.49 245.7 8.55 251.6C8.61 257.5 9.71 265.46 2 278.9Z" fill="#D3D3D3" stroke="black" stroke-width="2" stroke-linecap="round" stroke-linejoin="round"/>
  <path d="M19.12 291.52C19.12 291.52 18.68 303.25 14.15 302.35C9.62 301.45 4.82 297.75 4.82 297.75C4.82 297.75 2.17 284.22 2 278.89C2 278.89 12.37 289.54 19.12 291.51V291.52Z" fill="#AFAFAF" stroke="black" stroke-width="2" stroke-linecap="round" stroke-linejoin="round"/>
  <path d="M8.88875 313.51C8.88875 313.51 13.3588 319.29 27.1388 319.29C40.9188 319.29 163.229 326.88 163.229 326.88L164.129 327.7L250.729 326.47L249.049 319.91L179.669 320.91C179.669 320.91 171.349 321.31 165.879 317.31C160.029 313.03 149.899 298.58 149.899 298.58C149.899 298.58 72.5287 302.84 26.4587 293.42L21.2288 309.83C21.2288 309.83 20.0888 313.44 15.0988 312.09C10.0988 310.75 7.21875 308.19 7.21875 308.19L8.88875 313.52V313.51Z" fill="black" stroke="black" stroke-width="2" stroke-linecap="round" stroke-linejoin="round"/>
  <path d="M300.09 316.58C300.09 350.99 315.01 376.96 333.42 377C354.42 370.49 365.9 343.37 366.82 315.66C366.8 310.63 366.65 305.74 366.31 301.07C364.5 283.54 358.27 267.23 347.35 257.44C343.47 255.36 338.89 254.22 333.46 254.22C315.03 254.22 300.09 282.14 300.09 316.58Z" fill="black"/>
  <path d="M334.271 362.05C348.763 362.05 360.511 340.573 360.511 314.08C360.511 287.587 348.763 266.11 334.271 266.11C319.779 266.11 308.031 287.587 308.031 314.08C308.031 340.573 319.779 362.05 334.271 362.05Z" fill="#BFBFBF"/>
  <path d="M565.801 224.78C565.801 224.78 573.651 215.59 577.351 191.32C577.351 191.32 574.891 182.5 572.431 178.69C569.971 174.88 573.251 169.36 573.251 169.36" stroke="black" stroke-width="2" stroke-linecap="round" stroke-linejoin="round"/>
  <path d="M140.752 295.14C140.752 295.14 133.532 284.32 130.752 278.9C127.962 273.49 125.342 274.64 125.342 274.64C125.342 274.64 43.8316 272.02 41.2016 272.02C38.5716 272.02 38.2516 274.97 38.2516 274.97L32.3516 290.66C32.3516 290.66 38.3416 278.24 39.8116 276.93C41.2816 275.62 42.2716 274.73 47.4416 275.06C52.6116 275.39 121.982 276.7 124.932 277.19C127.882 277.68 140.762 295.15 140.762 295.15L140.752 295.14Z" fill="white"/>
  <path d="M348.181 171.47C348.181 171.47 310.501 176.89 287.211 185.58" stroke="black" stroke-width="2" stroke-linecap="round" stroke-linejoin="round"/>
  <path d="M451.429 186.62C451.429 186.62 447.33 178.67 453.89 177.85C460.45 177.03 461.189 184.57 461.189 188.67C461.189 192.77 456.189 192.69 454.789 191.95C453.399 191.21 451.429 186.62 451.429 186.62Z" fill="#757575" stroke="black" stroke-width="2" stroke-linecap="round" stroke-linejoin="round"/>
  <path d="M455.041 180.29C457.001 179.85 460.211 179.55 462.791 179.24C465.371 178.93 465.931 178.62 466.731 181.09C467.531 183.55 468.821 186.5 460.091 186.75C451.261 187 449.511 191.92 447.481 186.87C445.451 181.83 452.371 180.89 455.041 180.29Z" fill="black"/>
  <path d="M522.25 176.34C522.25 176.34 519.24 170.51 524.05 169.91C528.86 169.31 529.4 174.84 529.4 177.85C529.4 180.86 525.73 180.8 524.71 180.26C523.69 179.72 522.24 176.35 522.24 176.35L522.25 176.34Z" fill="#757575" stroke="black" stroke-width="2" stroke-linecap="round" stroke-linejoin="round"/>
  <path d="M524.89 171.69C526.33 171.37 526.37 171.15 528.26 170.92C530.15 170.69 530.56 170.47 531.15 172.27C531.74 174.07 534.99 176.24 528.59 176.42C522.19 176.6 520.83 180.21 519.34 176.51C517.85 172.81 522.93 172.13 524.89 171.68V171.69Z" fill="black"/>
  <path d="M221.059 211.31C221.059 211.31 245.839 204.03 249.039 222.48C252.239 240.93 238.299 245.11 225.219 247.57C225.219 247.57 228.539 246.79 230.799 249.7C230.799 249.7 253.459 244.78 261.369 235.96C269.279 227.14 269.849 220.07 270.059 218.36C270.269 216.65 270.419 206.85 270.199 204.15C270.199 204.15 261.349 201.2 221.059 211.31Z" fill="white" stroke="black" stroke-width="2" stroke-linecap="round" stroke-linejoin="round"/>
  <path d="M305.379 250.4C305.379 250.4 318.909 228.87 342.649 233.43C342.649 233.43 319.179 233.68 308.039 252C308.039 252 305.629 253.23 305.379 250.4Z" fill="white"/>
  <path d="M558.318 216.66C558.318 216.66 548.638 213.71 541.508 223.63C541.508 223.63 540.358 226.17 542.988 224.04C545.608 221.91 548.478 216.74 558.318 216.66Z" fill="white"/>
  <path d="M237.52 287.35C237.52 287.35 249 292.31 253.92 325.79C253.92 325.79 258.18 291.04 237.52 287.35Z" fill="white"/>
  <path d="M172.41 231.32C172.41 231.32 176.47 243.89 182.74 250.41C182.74 250.41 226.78 242.17 232.68 238.36C238.58 234.55 238.09 217.08 224.93 218.8C211.77 220.52 172.41 231.32 172.41 231.32Z" fill="#FFE5A4"/>
  <path d="M15.6109 241.02C15.6109 241.02 15.3609 230.2 21.2709 217.48C21.2709 217.48 22.6609 215.66 24.8809 215.58C24.8809 215.58 23.7309 222.81 25.7009 226.74C25.7009 226.74 20.6209 240.19 19.8809 247.65C19.8809 247.65 16.1109 243.3 15.6209 241.01L15.6109 241.02Z" fill="#FFE5A4"/>
  <path d="M311.159 309.94C311.159 309.94 310.179 306.13 312.139 302.26L330.709 310.55C330.709 310.55 332.679 310.8 332.919 308.34L314.839 293.41C314.839 293.41 318.159 278.45 324.559 274.15L336.059 302.26C336.059 302.26 337.659 303.24 338.269 301.64L332.549 268.61C332.549 268.61 337.959 267.99 340.049 269.96V301.82C340.049 301.82 341.159 304.03 342.629 303.42L346.569 275.05C346.569 275.05 355.179 285.34 356.659 298.38L346.329 306.57C346.329 306.57 345.709 308.34 346.949 309.57L358.879 309.82C358.879 309.82 359.909 313.43 358.799 316.38L347.069 314.08C347.069 314.08 345.919 315.97 346.739 317.2L357.069 329.99C357.069 329.99 355.429 342.66 347.799 351.39L340.419 323.22C340.419 323.22 340.319 321.87 338.329 323.1L336.359 360C336.359 360 330.579 361.11 327.379 357.54L335.099 321.99C335.099 321.99 334.259 320.76 332.269 321.37L320.609 351.63C320.609 351.63 309.699 334.32 311.259 319.53L331.059 318.3C331.059 318.3 331.919 317.07 331.179 315.1L311.129 309.93L311.159 309.94Z" fill="black"/>
  <path d="M538.779 276.63C538.779 276.63 538.209 273.69 539.349 270.69L550.049 277.1C550.049 277.1 551.179 277.29 551.329 275.39L540.909 263.85C540.909 263.85 542.819 252.29 546.509 248.97L553.129 270.69C553.129 270.69 554.049 271.45 554.409 270.21L551.119 244.69C551.119 244.69 554.239 244.21 555.439 245.74V270.36C555.439 270.36 556.079 272.07 556.929 271.6L559.199 249.68C559.199 249.68 564.159 257.63 565.009 267.71L559.059 274.04C559.059 274.04 558.709 275.41 559.409 276.36L566.279 276.55C566.279 276.55 566.869 279.34 566.229 281.62L559.479 279.85C559.479 279.85 558.819 281.31 559.289 282.26L565.239 292.15C565.239 292.15 564.299 301.94 559.899 308.69L555.649 286.92C555.649 286.92 555.589 285.87 554.449 286.82L553.319 315.34C553.319 315.34 549.989 316.2 548.149 313.44L552.599 285.97C552.599 285.97 552.119 285.02 550.969 285.49L544.259 308.87C544.259 308.87 537.979 295.5 538.879 284.06L550.289 283.11C550.289 283.11 550.789 282.16 550.359 280.64L538.809 276.65L538.779 276.63Z" fill="black"/>
  <path d="M289.201 200.22C289.201 200.22 302.481 215.39 289.971 220.91C281.341 224.72 270.781 220.04 270.781 220.04C270.781 220.04 271.991 213.65 270.851 205.01L289.201 200.22Z" fill="#AFAFAF"/>
  <path opacity="0.36" d="M217.498 212.76C217.498 212.76 234.838 239.17 251.688 230.78C268.538 222.39 246.708 206.18 246.708 206.18L217.488 212.76H217.498Z" fill="black"/>
  <path d="M297.541 137.48C297.541 137.48 334.851 173.49 310.641 181.24C297.981 185.29 281.191 173.77 281.191 173.77" fill="#821E28"/>
  <path d="M297.541 137.48C297.541 137.48 334.851 173.49 310.641 181.24C297.981 185.29 281.191 173.77 281.191 173.77" stroke="black" stroke-width="2" stroke-linecap="round" stroke-linejoin="round"/>
  <path d="M274.46 168.92C274.46 168.92 310.36 192.18 296.4 206.71C286.27 217.25 270.16 205.75 270.16 205.75" fill="#821E28"/>
  <path d="M274.46 168.92C274.46 168.92 310.36 192.18 296.4 206.71C286.27 217.25 270.16 205.75 270.16 205.75" stroke="black" stroke-width="2" stroke-linecap="round" stroke-linejoin="round"/>
  <path d="M248.608 212.37C244.768 212.37 240.898 211.96 237.108 211.15L228.568 208.6C207.218 207.87 194.428 196.25 192.548 194.43L183.338 192.54C183.078 192.49 182.838 192.33 182.698 192.1C182.558 191.87 182.508 191.6 182.568 191.33L184.748 182.03C183.698 179.89 183.498 178.2 183.288 176.41C183.138 175.15 182.988 173.85 182.498 172.27L176.788 166.93C176.528 166.68 176.418 166.31 176.498 165.96L179.008 155.63L168.558 143.32C168.268 142.97 168.238 142.47 168.498 142.1L176.828 130.19L172.098 113.71C172.018 113.44 172.058 113.14 172.218 112.9C172.368 112.66 172.618 112.49 172.898 112.45L181.588 111.05L180.868 96.67C180.848 96.36 180.978 96.06 181.218 95.86C181.398 95.7 181.628 95.62 181.868 95.62C181.938 95.62 182.008 95.62 182.078 95.64L187.738 96.85L192.068 81.68C192.148 81.42 192.318 81.2 192.558 81.07C192.708 80.99 192.868 80.95 193.028 80.95C193.128 80.95 193.238 80.97 193.338 81L202.158 83.89L209.248 74.21C209.438 73.95 209.738 73.8 210.058 73.8C210.108 73.8 210.158 73.8 210.208 73.81L222.758 75.72L230.758 66.08C230.948 65.85 231.238 65.72 231.528 65.72C231.638 65.72 231.748 65.74 231.858 65.78L254.368 73.59L253.808 68.74C253.768 68.36 253.938 68 254.258 67.79C254.428 67.68 254.618 67.63 254.808 67.63C254.978 67.63 255.158 67.68 255.308 67.77C255.938 68.14 270.808 76.81 275.678 80.16C281.398 84.09 289.238 90.66 294.078 99.65C308.968 127.32 310.608 171.46 287.558 197.41C283.298 202.2 280.908 203.24 276.158 205.29C274.928 205.82 273.528 206.42 271.878 207.19C266.438 209.71 260.728 211.33 254.918 212C252.828 212.24 250.698 212.37 248.598 212.37H248.608Z" fill="#B2282F"/>
  <path d="M231.54 66.74L255.56 75.07L254.82 68.64C254.82 68.64 270.23 77.63 275.13 80.99C280.56 84.72 288.44 91.25 293.22 100.13C307.33 126.34 310.16 170.48 286.84 196.76C281.65 202.61 279.44 202.61 271.49 206.29C266.31 208.69 260.73 210.33 254.83 211.01C252.75 211.25 250.68 211.37 248.63 211.37C244.8 211.37 241.02 210.96 237.34 210.18L228.75 207.61C206.14 206.88 193.06 193.51 193.06 193.51L183.56 191.56L185.82 181.9C183.86 178.17 184.73 175.87 183.39 171.72L177.49 166.2L180.12 155.37L169.34 142.67L177.94 130.37L173.08 113.44L182.65 111.9L181.88 96.62L188.45 98.03L193.04 81.96L202.55 85.08L210.07 74.81L223.18 76.8L231.54 66.73M231.54 64.73C230.96 64.73 230.39 64.99 230 65.45L222.37 74.65L210.37 72.83C210.27 72.81 210.17 72.81 210.07 72.81C209.44 72.81 208.84 73.11 208.46 73.63L201.8 82.72L193.67 80.06C193.47 79.99 193.26 79.96 193.05 79.96C192.73 79.96 192.4 80.04 192.11 80.19C191.63 80.44 191.27 80.88 191.12 81.41L187.04 95.68L182.29 94.66C182.15 94.63 182.01 94.62 181.87 94.62C181.4 94.62 180.94 94.79 180.57 95.1C180.1 95.5 179.84 96.1 179.87 96.72L180.55 110.21L172.75 111.47C172.19 111.56 171.69 111.89 171.38 112.37C171.07 112.85 170.99 113.44 171.15 113.99L175.75 130.01L167.7 141.52C167.18 142.26 167.23 143.27 167.81 143.96L177.93 155.88L175.54 165.72C175.37 166.42 175.59 167.16 176.12 167.65L181.63 172.8C182.03 174.17 182.16 175.31 182.3 176.51C182.5 178.22 182.71 179.98 183.7 182.13L181.6 191.09C181.48 191.62 181.57 192.17 181.86 192.62C182.15 193.07 182.61 193.39 183.14 193.5L192.07 195.34C194.63 197.75 207.49 208.82 228.41 209.58L236.75 212.07C236.8 212.09 236.85 212.1 236.91 212.11C240.77 212.93 244.71 213.35 248.62 213.35C250.76 213.35 252.92 213.23 255.05 212.98C260.97 212.29 266.78 210.65 272.32 208.09C273.95 207.33 275.35 206.73 276.58 206.2C281.32 204.16 283.93 203.03 288.33 198.07C311.66 171.79 310.04 127.15 294.98 99.17C290.05 90 282.08 83.32 276.26 79.33C271.36 75.96 256.46 67.27 255.83 66.9C255.52 66.72 255.17 66.63 254.82 66.63C254.44 66.63 254.06 66.74 253.73 66.96C253.1 67.37 252.75 68.11 252.84 68.86L253.22 72.13L232.21 64.84C232 64.77 231.77 64.73 231.55 64.73H231.54Z" fill="black"/>
  <path d="M246.299 82.4C249.119 83.97 253.989 85.01 250.289 87.59C245.149 91.17 235.159 90.36 232.189 89.39C226.289 87.46 223.669 85.36 229.259 82.59C234.849 79.82 241.549 79.75 246.299 82.39V82.4Z" fill="#821E28"/>
  <path d="M255.961 208.45L261.931 198.28L264.561 206.26L255.961 208.45Z" fill="#821E28"/>
  <path d="M264.56 206.26L255.96 208.45L254.02 201.44" stroke="black" stroke-width="2" stroke-linecap="round" stroke-linejoin="round"/>
  <path d="M214.461 204.94C214.461 204.94 242.001 235.02 254.061 218.88C262.811 207.17 248.821 193.15 248.821 193.15" fill="#B2282F"/>
  <path d="M214.461 204.94C214.461 204.94 242.001 235.02 254.061 218.88C262.811 207.17 248.821 193.15 248.821 193.15" stroke="black" stroke-width="2" stroke-linecap="round" stroke-linejoin="round"/>
  <path d="M282.66 201.98L290.37 199.91L288.81 193.55" fill="#B2282F"/>
  <path d="M290.371 199.91L281.211 194.56L282.661 201.98L290.371 199.91Z" fill="#821E28"/>
  <path d="M282.66 201.98L290.37 199.91L288.81 193.55" stroke="black" stroke-width="2" stroke-linecap="round" stroke-linejoin="round"/>
  <path d="M293.82 172.37L284.59 169.39L287.33 175.73L293.82 172.37Z" fill="#821E28"/>
  <path d="M287.328 175.73L293.818 172.37L291.168 166.99" stroke="black" stroke-width="2" stroke-linecap="round" stroke-linejoin="round"/>
  <path d="M255.469 179.82L263.779 174.81L262.549 181.61L255.469 179.82Z" fill="#821E28"/>
  <path d="M262.549 181.61L255.469 179.82L256.819 173.98" stroke="black" stroke-width="2" stroke-linecap="round" stroke-linejoin="round"/>
  <path d="M233.619 146.82C215.759 146.82 214.039 125.47 214.019 125.26C213.989 124.88 214.189 124.52 214.519 124.32C222.989 119.4 232.249 116.9 242.039 116.9C250.009 116.9 255.249 118.6 255.469 118.67C255.789 118.78 256.039 119.04 256.119 119.36C256.239 119.79 258.859 129.94 253.379 137.91C249.949 142.89 244.149 145.84 236.129 146.68C235.279 146.77 234.429 146.81 233.619 146.81V146.82Z" fill="white"/>
  <path d="M242.038 117.91C249.938 117.91 255.158 119.63 255.158 119.63C255.158 119.63 261.418 143.04 236.028 145.69C235.188 145.78 234.388 145.82 233.618 145.82C216.478 145.82 215.018 125.19 215.018 125.19C224.978 119.41 234.668 117.91 242.038 117.91ZM242.038 115.91C232.078 115.91 222.648 118.45 214.018 123.46C213.358 123.84 212.978 124.57 213.028 125.33C213.048 125.56 213.448 130.94 216.098 136.38C219.738 143.86 225.798 147.82 233.628 147.82C234.478 147.82 235.358 147.77 236.238 147.68C244.558 146.81 250.608 143.72 254.208 138.48C259.948 130.14 257.208 119.55 257.088 119.11C256.918 118.46 256.418 117.94 255.778 117.73C255.548 117.66 250.158 115.91 242.028 115.91H242.038Z" fill="black"/>
  <path d="M291.312 137.06C275.952 137.06 272.082 116.64 272.042 116.44C271.982 116.09 272.112 115.73 272.382 115.5C272.662 115.27 279.312 109.75 293.192 109.75C295.362 109.75 297.632 109.89 299.922 110.16C300.292 110.2 300.602 110.45 300.732 110.79C300.952 111.35 306.022 124.63 301.532 132.13C299.882 134.88 297.182 136.49 293.512 136.93C292.772 137.02 292.042 137.06 291.322 137.06H291.312Z" fill="white"/>
  <path d="M293.18 110.75C295.22 110.75 297.42 110.87 299.79 111.16C299.79 111.16 308.71 134.11 293.38 135.94C292.67 136.03 291.98 136.07 291.31 136.07C276.61 136.07 273.02 116.27 273.02 116.27C273.02 116.27 279.51 110.76 293.18 110.76M293.18 108.76C278.94 108.76 272.01 114.5 271.73 114.75C271.19 115.21 270.93 115.93 271.06 116.63C271.22 117.51 275.13 138.08 291.31 138.08C292.06 138.08 292.84 138.03 293.62 137.94C297.62 137.46 300.57 135.69 302.38 132.66C307.13 124.75 301.88 111.03 301.66 110.45C301.39 109.76 300.77 109.28 300.03 109.19C297.7 108.91 295.4 108.77 293.18 108.77V108.76Z" fill="black"/>
  <path d="M234.832 139.409C238.375 138.578 240.477 134.618 239.526 130.564C238.575 126.51 234.932 123.897 231.389 124.728C227.845 125.559 225.744 129.519 226.694 133.573C227.645 137.628 231.289 140.24 234.832 139.409Z" fill="black"/>
  <path d="M287.962 130.334C290.791 129.67 292.434 126.364 291.633 122.95C290.833 119.536 287.891 117.306 285.062 117.969C282.234 118.632 280.591 121.938 281.391 125.352C282.192 128.767 285.134 130.997 287.962 130.334Z" fill="black"/>
  <path d="M233.59 86.1001C233.59 86.1001 233.87 70.7001 220.91 54.4301C220.91 54.4301 226.14 45.4201 238.14 50.3501C238.14 50.3501 247.99 68.17 243.36 85.0201C243.36 85.0201 239.5 87.1001 233.58 86.1001H233.59Z" fill="#725126" stroke="black" stroke-width="2" stroke-linecap="round" stroke-linejoin="round"/>
  <path d="M238.152 50.35C238.152 50.35 231.662 59.37 220.922 54.43C220.922 54.43 226.122 45.3 238.152 50.35Z" fill="#A87B45" stroke="black" stroke-width="2" stroke-linecap="round" stroke-linejoin="round"/>
  <path d="M237.099 82.8799C237.099 82.8799 236.459 68.0999 229.129 59.3699" stroke="#351B00" stroke-width="2" stroke-linecap="round" stroke-linejoin="round"/>
  <path d="M196.848 93.72L210.478 103.53L203.088 107.36L196.848 93.72Z" fill="#821E28"/>
  <path d="M185.469 125.13L201.099 130.44L194.639 135.01L185.469 125.13Z" fill="#821E28"/>
  <path d="M184.648 144.68L201.078 141.27L196.278 148.95L184.648 144.68Z" fill="#821E28"/>
  <path d="M197.72 121.87L185.15 125.17L194.83 134.92L184.57 144.71L196.15 148.62" stroke="black" stroke-width="2" stroke-linecap="round" stroke-linejoin="round"/>
  <path d="M203.088 107.36L196.848 93.72L212.738 95.63" stroke="black" stroke-width="2" stroke-linecap="round" stroke-linejoin="round"/>
  <path d="M209.55 122.6C209.38 122.6 209.2 122.55 209.04 122.46C208.71 122.26 208.52 121.89 208.55 121.51L209.7 108.5C209.73 108.14 209.96 107.82 210.29 107.67L218.63 103.98C218.73 103.93 218.85 103.91 218.96 103.9C218.96 103.9 247.49 101.81 247.52 101.81C247.83 101.81 248.12 101.95 248.31 102.2L250.21 104.66L250.9 102.67C251.04 102.27 251.41 102 251.83 102H251.85C252.26 102 252.64 102.26 252.78 102.64L256.98 113.65C257.12 114.01 257.03 114.43 256.76 114.7C256.57 114.9 256.31 115 256.04 115C255.93 115 255.82 114.98 255.71 114.94C255.65 114.92 249.72 112.86 241.02 112.86C229.85 112.86 219.45 116.07 210.09 122.41C209.92 122.52 209.72 122.58 209.53 122.58L209.55 122.6Z" fill="#821E28"/>
  <path d="M247.521 102.82L250.551 106.74L251.851 103.01L256.051 114.02C256.051 114.02 250.021 111.88 241.031 111.88C232.381 111.88 220.981 113.85 209.541 121.61L210.691 108.6L219.031 104.91L247.521 102.82ZM247.521 100.82C247.521 100.82 247.421 100.82 247.371 100.82L218.881 102.91C218.651 102.93 218.431 102.98 218.221 103.08L209.881 106.77C209.211 107.06 208.761 107.7 208.701 108.42L207.551 121.43C207.481 122.2 207.861 122.94 208.531 123.33C208.841 123.51 209.191 123.61 209.541 123.61C209.931 123.61 210.321 123.49 210.661 123.27C219.841 117.04 230.061 113.89 241.021 113.89C249.521 113.89 255.321 115.89 255.371 115.91C255.591 115.99 255.811 116.02 256.031 116.02C256.561 116.02 257.081 115.81 257.461 115.42C258.001 114.86 258.171 114.04 257.901 113.31L253.701 102.3C253.401 101.52 252.661 101.01 251.831 101.01C251.821 101.01 251.811 101.01 251.801 101.01C250.961 101.02 250.221 101.56 249.941 102.35L249.851 102.6L249.081 101.6C248.701 101.11 248.111 100.82 247.501 100.82H247.521Z" fill="black"/>
  <path d="M219.041 104.9L210.701 108.59L209.551 121.6C232.871 105.79 256.061 114.01 256.061 114.01C235.531 104.38 212.461 117.54 212.461 117.54L212.701 109.82L219.051 104.9H219.041Z" fill="#4F121B"/>
  <path d="M271.389 111.3C271.219 111.3 271.049 111.26 270.889 111.17C270.609 111.01 270.419 110.72 270.389 110.39L269.399 99.66C269.369 99.32 269.509 98.99 269.779 98.78C269.959 98.64 270.179 98.56 270.399 98.56C270.509 98.56 270.619 98.58 270.719 98.61L273.489 99.55L274.899 97.51C275.049 97.3 275.269 97.15 275.519 97.1L294.809 93C294.879 92.99 294.949 92.98 295.019 92.98C295.299 92.98 295.579 93.1 295.769 93.32C298.515 96.4133 299.902 98.0933 299.929 98.36C299.929 98.41 299.929 98.47 300.099 105.11C300.099 105.41 299.979 105.7 299.739 105.9C299.559 106.05 299.329 106.14 299.089 106.14C299.029 106.14 298.959 106.14 298.899 106.12C298.879 106.12 297.229 105.8 294.369 105.8C289.359 105.8 281.389 106.74 271.819 111.22C271.689 111.28 271.539 111.31 271.399 111.31L271.389 111.3Z" fill="#821E28"/>
  <path d="M295.008 93.98C295.008 93.98 298.908 98.38 298.918 98.45C298.928 98.52 299.088 105.13 299.088 105.13C299.088 105.13 297.378 104.79 294.368 104.79C289.518 104.79 281.278 105.68 271.388 110.3L270.408 99.57L273.888 100.75L275.728 98.08L295.018 93.98M295.018 91.98C294.878 91.98 294.738 91.99 294.598 92.02L275.308 96.12C274.808 96.23 274.368 96.52 274.078 96.94L273.098 98.36L271.048 97.67C270.838 97.6 270.618 97.56 270.408 97.56C269.968 97.56 269.528 97.71 269.168 97.99C268.638 98.41 268.358 99.07 268.418 99.74L269.398 110.47C269.458 111.12 269.828 111.7 270.398 112.02C270.708 112.2 271.048 112.29 271.398 112.29C271.688 112.29 271.978 112.23 272.248 112.1C281.658 107.7 289.478 106.78 294.378 106.78C297.118 106.78 298.698 107.08 298.718 107.08C298.848 107.1 298.968 107.12 299.098 107.12C299.568 107.12 300.028 106.96 300.388 106.65C300.848 106.26 301.118 105.68 301.098 105.07C300.938 98.4 300.928 98.35 300.918 98.26C300.871 97.78 299.401 95.9066 296.508 92.64C296.128 92.21 295.578 91.97 295.008 91.97L295.018 91.98Z" fill="black"/>
  <path d="M270.398 99.5701L271.378 110.3C287.398 102.8 299.078 105.13 299.078 105.13C286.068 102.16 273.388 107.81 273.388 107.81L272.048 101.92L273.878 100.76L270.398 99.5801V99.5701Z" fill="#4F121B"/>
  <path d="M188.449 98.03L193.609 95.56L193.039 81.97L188.449 98.03Z" fill="#821E28"/>
  <path d="M182.639 111.9L187.489 106.42L181.879 96.6199L182.639 111.9Z" fill="#821E28"/>
  <path d="M177.93 130.38L180.85 123.82L173.07 113.44L177.93 130.38Z" fill="#821E28"/>
  <path d="M180.108 155.38L180.268 147.24L169.328 142.67L180.108 155.38Z" fill="#821E28"/>
  <path d="M202.551 85.0801L208.171 83.5601L210.071 74.8201L202.551 85.0801Z" fill="#821E28"/>
  <path d="M254.578 142.46C254.578 142.46 261.958 135.3 260.358 122.4" stroke="#821E28" stroke-width="2" stroke-linecap="round" stroke-linejoin="round"/>
  <path d="M226.77 149.62C226.77 149.62 234.75 152.79 246.03 148.08" stroke="#FF3B4E" stroke-width="2" stroke-linecap="round" stroke-linejoin="round"/>
  <path d="M289.379 140.93C289.379 140.93 296.879 142.22 301.559 137.41" stroke="#FF3B4E" stroke-width="2" stroke-linecap="round" stroke-linejoin="round"/>
  <path d="M183.919 157.57C183.919 157.57 165.309 196.96 225.799 183.82C237.199 181.34 240.739 181.87 240.399 177.13C240.039 172.17 235.439 173.28 223.399 175.04C223.399 175.04 240.699 172.85 239.829 168.45C239.179 165.19 237.709 161.1 220.689 166.71" fill="#B2282F"/>
  <path d="M183.919 157.57C183.919 157.57 165.309 196.96 225.799 183.82C237.199 181.34 240.739 181.87 240.399 177.13C240.039 172.17 235.439 173.28 223.399 175.04C223.399 175.04 240.699 172.85 239.829 168.45C239.179 165.19 237.709 161.1 220.689 166.71" stroke="black" stroke-width="2" stroke-linecap="round" stroke-linejoin="round"/>
  <path d="M216.69 133.05C216.62 133.05 216.56 133.05 216.49 133.03C216.16 132.96 215.89 132.74 215.77 132.43C214.05 128.26 214.02 125.31 214.02 125.19C214.02 124.84 214.2 124.51 214.51 124.33C222.72 119.43 231.91 116.94 241.83 116.94C249.84 116.94 255.23 118.61 255.46 118.68C255.77 118.78 256.01 119.02 256.11 119.33C257.11 122.47 256.82 126.17 256.8 126.33C256.77 126.68 256.56 126.98 256.26 127.14C256.12 127.21 255.96 127.25 255.81 127.25C255.63 127.25 255.45 127.2 255.29 127.1C250.72 124.29 245.86 122.86 240.84 122.86C227.69 122.86 217.5 132.67 217.4 132.77C217.21 132.95 216.96 133.06 216.7 133.06L216.69 133.05Z" fill="#821E28"/>
  <path d="M241.831 117.94C249.781 117.94 255.161 119.63 255.161 119.63C256.111 122.62 255.811 126.24 255.811 126.24C250.611 123.04 245.531 121.85 240.831 121.85C227.091 121.85 216.691 132.05 216.691 132.05C215.021 128.01 215.021 125.19 215.021 125.19C224.661 119.43 234.371 117.94 241.831 117.94ZM241.831 115.94C231.721 115.94 222.361 118.47 214.001 123.47C213.401 123.83 213.031 124.48 213.031 125.19C213.031 125.32 213.061 128.45 214.851 132.81C215.101 133.42 215.651 133.87 216.301 134.01C216.431 134.04 216.571 134.05 216.701 134.05C217.221 134.05 217.721 133.85 218.101 133.48C218.201 133.39 228.111 123.86 240.841 123.86C245.671 123.86 250.361 125.24 254.771 127.95C255.091 128.15 255.451 128.25 255.821 128.25C256.131 128.25 256.441 128.18 256.721 128.04C257.341 127.73 257.751 127.11 257.811 126.42C257.821 126.26 258.131 122.37 257.071 119.04C256.871 118.42 256.381 117.93 255.761 117.74C255.531 117.67 249.991 115.96 241.831 115.96V115.94Z" fill="black"/>
  <path d="M275.28 124.36C275.22 124.36 275.15 124.36 275.09 124.34C274.78 124.28 274.52 124.08 274.38 123.79C273.16 121.26 272.09 116.67 272.04 116.48C271.95 116.08 272.11 115.67 272.44 115.43C279.22 110.72 287.65 109.74 293.53 109.74C297.3 109.74 299.83 110.15 299.94 110.16C300.25 110.21 300.52 110.4 300.67 110.68C301.39 112.06 302.48 116.84 302.6 117.39C302.69 117.77 302.54 118.17 302.23 118.41C302.05 118.54 301.84 118.61 301.63 118.61C301.47 118.61 301.3 118.57 301.16 118.49C298.87 117.25 296.35 116.63 293.67 116.63C284.42 116.63 276.04 124.03 275.95 124.1C275.76 124.27 275.53 124.35 275.28 124.35V124.36Z" fill="#821E28"/>
  <path d="M293.541 110.75C297.271 110.75 299.791 111.16 299.791 111.16C300.471 112.46 301.631 117.62 301.631 117.62C298.991 116.2 296.291 115.64 293.671 115.64C283.931 115.64 275.291 123.37 275.291 123.37C274.101 120.91 273.031 116.27 273.031 116.27C279.651 111.67 287.961 110.75 293.551 110.75M293.551 108.75C287.531 108.75 278.881 109.77 271.891 114.62C271.221 115.09 270.901 115.92 271.081 116.71C271.131 116.91 272.221 121.6 273.491 124.23C273.761 124.8 274.291 125.2 274.901 125.32C275.031 125.35 275.161 125.36 275.291 125.36C275.781 125.36 276.251 125.18 276.621 124.85C276.701 124.78 284.831 117.63 293.671 117.63C296.181 117.63 298.541 118.22 300.681 119.37C300.981 119.53 301.301 119.61 301.631 119.61C302.061 119.61 302.481 119.47 302.841 119.2C303.461 118.73 303.761 117.93 303.581 117.17C303.301 115.9 302.311 111.64 301.561 110.22C301.271 109.66 300.731 109.28 300.111 109.17C300.001 109.15 297.391 108.73 293.541 108.73L293.551 108.75Z" fill="black"/>
  <path d="M259.371 148.84C259.371 148.84 270.981 149.94 278.361 146.88L259.371 148.84Z" fill="#966000"/>
  <path d="M259.371 148.84C259.371 148.84 270.981 149.94 278.361 146.88" stroke="black" stroke-width="2" stroke-linecap="round" stroke-linejoin="round"/>
  <path d="M219.63 164.15C219.63 164.15 237.25 162.95 235.44 157.02C233.51 150.7 216.5 157.86 216.5 157.86C216.5 157.86 209.22 155.88 203.68 158.64" fill="#B2282F"/>
  <path d="M219.63 164.15C219.63 164.15 237.25 162.95 235.44 157.02C233.51 150.7 216.5 157.86 216.5 157.86C216.5 157.86 209.22 155.88 203.68 158.64" stroke="black" stroke-width="2" stroke-linecap="round" stroke-linejoin="round"/>
  <path d="M269.789 152.33C269.789 152.33 275.959 152.43 278.889 150.74" stroke="#821E28" stroke-width="2" stroke-linecap="round" stroke-linejoin="round"/>
  <path d="M222.298 169.48C220.018 169.48 218.168 167.63 218.168 165.35C218.168 163.07 220.018 161.22 222.298 161.22C224.578 161.22 226.428 163.07 226.428 165.35C226.428 167.63 224.578 169.48 222.298 169.48Z" fill="#A56437"/>
  <path d="M222.286 162.22C224.016 162.22 225.416 163.62 225.416 165.35C225.416 167.08 224.016 168.48 222.286 168.48C220.556 168.48 219.156 167.08 219.156 165.35C219.156 163.62 220.556 162.22 222.286 162.22ZM222.286 160.22C219.456 160.22 217.156 162.52 217.156 165.35C217.156 168.18 219.456 170.48 222.286 170.48C225.116 170.48 227.416 168.18 227.416 165.35C227.416 162.52 225.116 160.22 222.286 160.22Z" fill="black"/>
  <path d="M220.208 177.77C217.928 177.77 216.078 175.92 216.078 173.64C216.078 171.36 217.928 169.51 220.208 169.51C222.488 169.51 224.338 171.36 224.338 173.64C224.338 175.92 222.488 177.77 220.208 177.77Z" fill="#A56437"/>
  <path d="M220.208 170.52C221.938 170.52 223.338 171.92 223.338 173.65C223.338 175.38 221.938 176.78 220.208 176.78C218.478 176.78 217.078 175.38 217.078 173.65C217.078 171.92 218.478 170.52 220.208 170.52ZM220.208 168.52C217.378 168.52 215.078 170.82 215.078 173.65C215.078 176.48 217.378 178.78 220.208 178.78C223.038 178.78 225.338 176.48 225.338 173.65C225.338 170.82 223.038 168.52 220.208 168.52Z" fill="black"/>
  <path d="M220.208 186.06C217.928 186.06 216.078 184.21 216.078 181.93C216.078 179.65 217.928 177.8 220.208 177.8C222.488 177.8 224.338 179.65 224.338 181.93C224.338 184.21 222.488 186.06 220.208 186.06Z" fill="#A56437"/>
  <path d="M220.208 178.81C221.938 178.81 223.338 180.21 223.338 181.94C223.338 183.67 221.938 185.07 220.208 185.07C218.478 185.07 217.078 183.67 217.078 181.94C217.078 180.21 218.478 178.81 220.208 178.81ZM220.208 176.81C217.378 176.81 215.078 179.11 215.078 181.94C215.078 184.77 217.378 187.07 220.208 187.07C223.038 187.07 225.338 184.77 225.338 181.94C225.338 179.11 223.038 176.81 220.208 176.81Z" fill="black"/>
  <path d="M221.849 194.34C224.13 194.34 225.979 192.491 225.979 190.21C225.979 187.929 224.13 186.08 221.849 186.08C219.568 186.08 217.719 187.929 217.719 190.21C217.719 192.491 219.568 194.34 221.849 194.34Z" fill="#A56437"/>
  <path d="M221.849 187.08C223.579 187.08 224.979 188.48 224.979 190.21C224.979 191.94 223.579 193.34 221.849 193.34C220.119 193.34 218.719 191.94 218.719 190.21C218.719 188.48 220.119 187.08 221.849 187.08ZM221.849 185.08C219.019 185.08 216.719 187.38 216.719 190.21C216.719 193.04 219.019 195.34 221.849 195.34C224.679 195.34 226.979 193.04 226.979 190.21C226.979 187.38 224.679 185.08 221.849 185.08Z" fill="black"/>
  <path d="M224.98 200.01C223.21 200.01 221.77 198.57 221.77 196.8C221.77 195.03 223.21 193.59 224.98 193.59C226.75 193.59 228.19 195.03 228.19 196.8C228.19 198.57 226.75 200.01 224.98 200.01Z" fill="#A56437"/>
  <path d="M224.98 194.59C226.2 194.59 227.19 195.58 227.19 196.8C227.19 198.02 226.2 199.01 224.98 199.01C223.76 199.01 222.77 198.02 222.77 196.8C222.77 195.58 223.76 194.59 224.98 194.59ZM224.98 192.59C222.66 192.59 220.77 194.48 220.77 196.8C220.77 199.12 222.66 201.01 224.98 201.01C227.3 201.01 229.19 199.12 229.19 196.8C229.19 194.48 227.3 192.59 224.98 192.59Z" fill="black"/>
  <path d="M230.968 200.42C229.458 200.42 228.238 199.19 228.238 197.69C228.238 196.19 229.468 194.96 230.968 194.96C232.468 194.96 233.698 196.19 233.698 197.69C233.698 199.19 232.468 200.42 230.968 200.42Z" fill="#56351E"/>
  <path d="M230.968 195.95C231.928 195.95 232.698 196.73 232.698 197.68C232.698 198.63 231.918 199.41 230.968 199.41C230.018 199.41 229.238 198.63 229.238 197.68C229.238 196.73 230.018 195.95 230.968 195.95ZM230.968 193.95C228.908 193.95 227.238 195.62 227.238 197.68C227.238 199.74 228.908 201.41 230.968 201.41C233.028 201.41 234.698 199.74 234.698 197.68C234.698 195.62 233.028 193.95 230.968 193.95Z" fill="black"/>
  <path d="M231.777 194.67C230.267 194.67 229.047 193.44 229.047 191.94C229.047 190.44 230.277 189.21 231.777 189.21C233.277 189.21 234.507 190.44 234.507 191.94C234.507 193.44 233.277 194.67 231.777 194.67Z" fill="#56351E"/>
  <path d="M231.777 190.21C232.737 190.21 233.507 190.99 233.507 191.94C233.507 192.89 232.727 193.67 231.777 193.67C230.827 193.67 230.047 192.89 230.047 191.94C230.047 190.99 230.827 190.21 231.777 190.21ZM231.777 188.21C229.717 188.21 228.047 189.88 228.047 191.94C228.047 194 229.717 195.67 231.777 195.67C233.837 195.67 235.507 194 235.507 191.94C235.507 189.88 233.837 188.21 231.777 188.21Z" fill="black"/>
  <path d="M232 188.48C230.49 188.48 229.27 187.25 229.27 185.75C229.27 184.25 230.5 183.02 232 183.02C233.5 183.02 234.73 184.25 234.73 185.75C234.73 187.25 233.5 188.48 232 188.48Z" fill="#56351E"/>
  <path d="M232 184.01C232.96 184.01 233.73 184.79 233.73 185.74C233.73 186.69 232.95 187.47 232 187.47C231.05 187.47 230.27 186.69 230.27 185.74C230.27 184.79 231.05 184.01 232 184.01ZM232 182.01C229.94 182.01 228.27 183.68 228.27 185.74C228.27 187.8 229.94 189.47 232 189.47C234.06 189.47 235.73 187.8 235.73 185.74C235.73 183.68 234.06 182.01 232 182.01Z" fill="black"/>
  <path d="M228.886 204.61C230.394 204.61 231.616 203.388 231.616 201.88C231.616 200.372 230.394 199.15 228.886 199.15C227.379 199.15 226.156 200.372 226.156 201.88C226.156 203.388 227.379 204.61 228.886 204.61Z" fill="#A56437"/>
  <path d="M228.886 200.15C229.846 200.15 230.616 200.93 230.616 201.88C230.616 202.83 229.836 203.61 228.886 203.61C227.936 203.61 227.156 202.83 227.156 201.88C227.156 200.93 227.936 200.15 228.886 200.15ZM228.886 198.15C226.826 198.15 225.156 199.82 225.156 201.88C225.156 203.94 226.826 205.61 228.886 205.61C230.946 205.61 232.616 203.94 232.616 201.88C232.616 199.82 230.946 198.15 228.886 198.15Z" fill="black"/>
  <path d="M227.739 204.51C227.739 204.51 218.799 217.66 220.209 226.51C221.619 235.36 225.869 229.3 225.869 229.3C225.869 229.3 224.169 232.33 230.969 231.84C237.769 231.35 236.289 228.53 236.289 228.53C236.289 228.53 238.559 230.96 240.929 229.23C245.129 226.17 230.609 204.1 230.609 204.1C230.609 204.1 229.359 204.99 227.729 204.51H227.739Z" fill="#A08472" stroke="black" stroke-width="2" stroke-linecap="round" stroke-linejoin="round"/>
  <path d="M223.057 226.76C223.057 226.76 220.507 223.27 227.907 208.42C227.907 208.42 222.717 222.24 223.057 226.76Z" fill="#CEB9AE"/>
  <path d="M228.47 210.94C228.47 210.94 225.62 222.29 227.36 227.77C227.36 227.77 227.87 215.04 228.47 210.94Z" fill="#CEB9AE"/>
  <path d="M229.658 211.3C229.658 211.3 229.218 225.57 231.778 229.06C231.778 229.06 229.358 215.59 229.658 211.3Z" fill="#CEB9AE"/>
  <path d="M230.969 211.3C230.969 211.3 231.569 221.21 235.189 226.31C235.189 226.31 231.479 214.27 230.969 211.3Z" fill="#CEB9AE"/>
  <path d="M231.148 209.35C231.148 209.35 236.638 221.56 238.128 226.03C238.128 226.03 234.778 213.84 231.148 209.35Z" fill="#CEB9AE"/>
</svg>
