<svg width="367" height="358" viewBox="0 0 367 358" fill="none" xmlns="http://www.w3.org/2000/svg">
  <path d="M65.7312 219.504L69.1884 250.442L82.1413 261.941L115.53 279.768L158.358 287.577L126.004 197.428L65.7312 219.504Z" fill="#324C0B"/>
  <path d="M65.731 219.504L82.1411 261.941L58.947 241.347L65.731 219.504Z" fill="#496D20"/>
  <path d="M126.004 197.428L171.842 192.052L184.096 282.703L169.857 289.673L158.358 287.577L126.004 197.428Z" fill="#324C0B"/>
  <path d="M171.842 192.052L184.096 282.703L222.908 263.684L230.41 193.188L171.842 192.052Z" fill="#324C0B"/>
  <path d="M282.799 205.125L256.157 262.873L222.908 263.684L230.41 193.188L282.799 205.125Z" fill="#324C0B"/>
  <path d="M282.799 205.125L325.385 232.28L309.953 261.559L256.157 262.873L282.799 205.125Z" fill="#324C0B"/>
  <path d="M363.582 227.891L332.039 205.526L260.174 183.171L177.527 181.568L112.846 189.163L27.8042 220.306L18.2153 251.132L58.9471 241.347L65.731 219.504L126.004 197.428L171.842 192.052L230.41 193.188L282.799 205.126L325.385 232.28L363.582 227.891Z" fill="#496D20"/>
  <path d="M211.996 193.188L214.922 205.125L211.996 212.85L214.922 234.004L213.459 213.596L218.92 205.125L219.973 192.983L222.908 189.423L224.241 185.435L220.253 188.892L211.996 193.188Z" fill="#231200"/>
  <path d="M65.7307 219.504L55.1261 221.014L44.8384 217.995L54.0638 219.504L71.3406 217.445L69.188 228.441L65.7307 219.504Z" fill="#324C0B"/>
  <path d="M112.706 200.205L109.249 200.336L117.636 198.472L121.4 199.115L124.065 214.267L130.719 225.71L121.941 215.86L116.899 200.736L112.706 200.205Z" fill="#231200"/>
  <path d="M18.2153 251.132L50.961 280.187L98.076 305.347L174.731 319.316L230.634 288.974L330.846 285.228L363.582 227.891L325.385 232.28L309.954 261.559L222.908 263.684L169.857 289.673L117.394 268.977L82.1411 261.941L58.9471 241.347L18.2153 251.132Z" fill="#496D20"/>
  <path d="M18.2153 251.132V267.411L46.5626 291.77L94.479 316.52L173.93 329.306L233.42 296.56L331.247 292.972L366.648 237.07L363.582 227.891L330.846 285.228L230.634 288.974L174.731 319.316L98.076 305.347L50.961 280.187L18.2153 251.132Z" fill="#324C0B"/>
  <path d="M219.097 265.557L227.344 274.158L230.41 286.347L232.32 272.574L230.41 266.88L233.112 263.442L222.908 263.684L219.097 265.557Z" fill="#324C0B"/>
  <path d="M117.393 268.977L113.563 277.345L93.2488 286.347L111.047 284.492L128.054 273.189L117.393 268.977Z" fill="#324C0B"/>
  <path d="M321.304 229.671L317.763 246.742L325.385 232.28L333.25 230.351L342.69 232.541L351.477 228.441L340.202 230.323L331.545 227.183L321.304 229.671Z" fill="#324C0B"/>
  <path d="M248.544 264.168C248.013 264.168 247.463 264.141 246.913 264.094C222.405 261.969 217.783 239.474 217.737 239.241C217.578 238.44 217.97 237.629 218.687 237.247L257.052 216.821C257.322 216.671 257.63 216.606 257.928 216.606C258.179 216.606 258.431 216.653 258.664 216.755C259.186 216.979 259.577 217.426 259.726 217.976C260.062 219.187 267.731 247.73 258.925 259.267C256.446 262.519 252.952 264.168 248.544 264.168Z" fill="#966000"/>
  <path d="M257.928 218.47C257.928 218.47 269.921 262.305 248.544 262.305C248.069 262.305 247.584 262.286 247.072 262.239C223.682 260.217 219.563 238.896 219.563 238.896L257.928 218.47ZM257.928 214.742C257.322 214.742 256.726 214.892 256.176 215.18L217.811 235.607C216.367 236.38 215.593 237.992 215.901 239.605C215.947 239.856 217.131 245.792 221.501 251.97C225.564 257.711 233.243 264.793 246.746 265.967C247.351 266.023 247.957 266.042 248.535 266.042C253.483 266.042 257.583 264.094 260.397 260.413C269.604 248.355 262.373 220.622 261.516 217.491C261.217 216.401 260.435 215.497 259.4 215.05C258.925 214.845 258.422 214.742 257.928 214.742Z" fill="black"/>
  <path d="M125.631 277.084C121.401 277.084 117.757 275.5 114.822 272.369C104.842 261.746 106.286 236.52 106.351 235.448C106.389 234.861 106.696 234.33 107.181 234.013C107.488 233.808 107.852 233.706 108.206 233.706C108.411 233.706 108.625 233.743 108.83 233.808L152.618 249.287C153.28 249.52 153.755 250.116 153.848 250.815C153.876 251.011 155.964 270.328 130.244 276.506C128.651 276.888 127.095 277.084 125.631 277.084Z" fill="#966000"/>
  <path d="M108.215 235.56L152.003 251.038C152.003 251.038 154.212 268.828 129.816 274.689C128.325 275.043 126.936 275.22 125.641 275.22C105.755 275.22 108.224 235.56 108.224 235.56M108.224 231.833C107.497 231.833 106.789 232.047 106.165 232.448C105.186 233.091 104.571 234.162 104.497 235.327C104.432 236.427 102.941 262.435 113.471 273.645C116.779 277.168 120.87 278.948 125.641 278.948C127.253 278.948 128.949 278.733 130.692 278.314C144.716 274.941 150.792 267.737 153.42 262.286C156.308 256.294 155.777 251.15 155.703 250.582C155.526 249.184 154.575 248.001 153.243 247.525L109.454 232.047C109.054 231.907 108.634 231.833 108.215 231.833H108.224Z" fill="black"/>
  <path d="M83.6973 194.642C83.6973 194.642 59.18 202.628 43.2824 180.375C25.0552 154.87 64.4357 139.793 64.4357 139.793L83.6973 194.642Z" fill="#966000" stroke="black" stroke-width="4" stroke-linecap="round" stroke-linejoin="round"/>
  <path d="M289.956 195.723C280.46 195.723 269.846 184.019 269.409 183.516C268.952 183.013 268.812 182.295 269.036 181.652L288.288 127.073C288.521 126.421 289.089 125.945 289.779 125.852C289.872 125.843 289.956 125.833 290.049 125.833C290.636 125.833 291.205 126.113 291.559 126.598C292.23 127.52 307.885 149.419 302.853 179.611C300.635 192.928 294.615 195.723 289.965 195.723H289.956Z" fill="#966000"/>
  <path d="M290.049 127.697C290.049 127.697 305.975 149.54 301.017 179.304C299.181 190.318 294.82 193.859 289.965 193.859C281.187 193.859 270.797 182.276 270.797 182.276L290.049 127.697ZM290.049 123.97C289.872 123.97 289.686 123.979 289.509 124.007C288.139 124.212 286.993 125.153 286.536 126.458L267.284 181.037C266.827 182.323 267.116 183.749 268.02 184.764C269.194 186.078 279.817 197.587 289.956 197.587C295.333 197.587 302.247 194.521 304.689 179.909C309.851 148.962 293.749 126.439 293.059 125.498C292.351 124.529 291.223 123.97 290.049 123.97Z" fill="black"/>
  <path d="M144.362 276.646C144.101 276.646 143.849 276.59 143.607 276.488C143.038 276.236 142.628 275.714 142.526 275.09L140.438 262.733C128.194 257.068 116.983 248.97 107.115 238.645L91.1055 239.847C91.1055 239.847 91.0124 239.847 90.9658 239.847C90.4626 239.847 89.978 239.642 89.6332 239.278C89.2511 238.887 89.0554 238.337 89.1207 237.787L91.1149 218.563L73.7263 208.164C73.1206 207.8 72.7665 207.12 72.8224 206.412C72.8783 205.703 73.3256 205.088 73.9872 204.827L82.4113 201.454C79.6436 195.229 77.3046 188.697 75.4409 181.997L61.2486 174.104C60.5311 173.703 60.1584 172.883 60.3354 172.082L64.2586 153.901L50.9236 119.012C50.644 118.267 50.8584 117.428 51.4641 116.915L66.5882 104.233L59.4688 76.4633C59.3011 75.811 59.4967 75.1308 59.972 74.6648C60.3261 74.32 60.792 74.1337 61.2673 74.1337C61.435 74.1337 61.6121 74.1616 61.7798 74.2082L71.7135 77.069L69.7193 50.4457C69.6634 49.6909 70.0734 48.9734 70.7537 48.6379C71.0146 48.5074 71.2941 48.4422 71.5737 48.4422C72.021 48.4422 72.4683 48.6006 72.8131 48.9174L82.7095 57.7795L89.7357 32.0041C89.9407 31.2493 90.593 30.7088 91.3665 30.6343C91.4224 30.6343 91.4783 30.6343 91.5342 30.6343C92.2424 30.6343 92.904 31.0443 93.2116 31.6966L97.5168 40.7264L125.631 15.6406C125.976 15.3331 126.423 15.1654 126.87 15.1654C127.01 15.1654 127.159 15.184 127.299 15.212L140.401 18.2871L166.717 10.1613C166.894 10.1053 167.08 10.0774 167.267 10.0774C167.351 10.0774 167.434 10.0774 167.518 10.096L196.341 14.0844L207.029 8.53049C207.3 8.39071 207.598 8.31616 207.887 8.31616C208.241 8.31616 208.586 8.41867 208.893 8.61436L242.189 29.9168L245.115 20.3279C245.338 19.5824 246.009 19.0605 246.783 19.014C246.82 19.014 246.857 19.014 246.894 19.014C247.631 19.014 248.302 19.4426 248.6 20.1229L259.391 44.5656L267.861 34.3245C268.225 33.8865 268.756 33.6442 269.296 33.6442C269.483 33.6442 269.678 33.6722 269.865 33.7281C270.592 33.961 271.104 34.604 271.16 35.3682L273.154 62.0008L282.548 57.6956C282.799 57.5838 283.06 57.5279 283.321 57.5279C283.703 57.5279 284.085 57.649 284.402 57.8726C284.942 58.264 285.241 58.9163 285.175 59.578L282.268 88.1023L299.116 98.3901C299.796 98.8094 300.132 99.6015 299.964 100.375L291.969 136.895L296.6 150.388C296.824 151.04 296.675 151.758 296.199 152.261L285.38 163.863C284.56 171.644 283.107 179.332 281.057 186.749L289.387 188.716C290.077 188.874 290.617 189.414 290.776 190.104C290.934 190.794 290.692 191.511 290.142 191.968L274.738 204.641C274.673 204.781 274.617 204.921 274.552 205.06L279.333 223.549C279.472 224.08 279.361 224.648 279.044 225.105C278.727 225.552 278.214 225.841 277.665 225.878L262.196 227.034C253.827 238.915 243.763 248.718 232.273 256.182L232.05 268.39C232.041 269.014 231.714 269.592 231.183 269.927C230.876 270.123 230.531 270.216 230.186 270.216C229.925 270.216 229.674 270.16 229.422 270.058L216.758 264.401C207.393 268.325 197.562 270.692 187.516 271.446C185.205 271.623 182.857 271.707 180.546 271.707C172.718 271.707 164.863 270.71 157.203 268.744L145.321 276.348C145.014 276.544 144.669 276.646 144.315 276.646H144.362Z" fill="#E19E00"/>
  <path d="M207.924 10.1892L243.288 32.8148L246.932 20.8684L258.943 48.0694L269.334 35.5079L271.524 64.8057L283.358 59.3916L280.33 89.0807L298.175 99.9835L290.068 137.016L294.876 151.003L283.628 163.061C282.752 171.718 281.112 180.105 278.764 188.128L288.996 190.533L273.247 203.495C273.042 203.97 272.837 204.436 272.623 204.911L277.562 224.033L261.217 225.254C252.793 237.396 242.375 247.591 230.475 255.167L230.233 268.371L216.823 262.389C207.616 266.34 197.757 268.837 187.423 269.611C185.14 269.778 182.857 269.862 180.592 269.862C172.504 269.862 164.583 268.791 156.932 266.75L144.361 274.792L142.106 261.466C129.442 255.754 117.822 247.32 107.851 236.734L90.9564 238.002L93.0717 217.594L74.6674 206.579L84.8993 202.488C81.731 195.611 79.0845 188.352 77.0157 180.776L62.1432 172.501L66.1782 153.78L52.6475 118.369L68.6756 104.932L61.2672 76.0253L73.7728 79.6223L71.583 50.3246L83.7251 61.1994L91.5528 32.5073L96.9297 43.7736L126.898 17.0384L140.494 20.2347L167.295 11.9504L196.704 16.0227L207.924 10.1892ZM207.924 6.46175C207.337 6.46175 206.75 6.60153 206.209 6.88109L196.043 12.1648L167.807 8.25093C167.639 8.22297 167.462 8.21366 167.295 8.21366C166.922 8.21366 166.549 8.26957 166.195 8.38139L140.364 16.3581L127.756 13.3948C127.476 13.3296 127.187 13.2923 126.908 13.2923C126.004 13.2923 125.119 13.6185 124.429 14.2335L98.1597 37.6605L94.9261 30.8766C94.3018 29.572 92.9879 28.7519 91.5621 28.7519C91.4503 28.7519 91.3385 28.7519 91.2266 28.7706C89.6704 28.9103 88.3751 30.0006 87.9651 31.5009L81.731 54.3688L74.0804 47.5196C73.3815 46.8953 72.4962 46.5691 71.5923 46.5691C71.0332 46.5691 70.4741 46.6996 69.9429 46.9512C68.5824 47.6221 67.7623 49.0572 67.8742 50.5762L69.6633 74.5344L62.3016 72.419C61.9661 72.3258 61.612 72.2699 61.2672 72.2699C60.3074 72.2699 59.3756 72.6427 58.6674 73.3229C57.7075 74.2548 57.3255 75.6246 57.6516 76.9199L64.4822 103.553L50.2526 115.48C49.0319 116.505 48.5939 118.183 49.1623 119.664L62.2923 154.041L58.4903 171.681C58.1455 173.284 58.891 174.924 60.3261 175.725L73.8381 183.245C75.5154 189.135 77.5469 194.894 79.9138 200.429L73.2696 203.085C71.9557 203.607 71.0518 204.837 70.94 206.253C70.8282 207.67 71.5271 209.021 72.7385 209.748L89.1113 219.542L87.2383 237.582C87.1264 238.682 87.4992 239.772 88.2726 240.564C88.9809 241.291 89.9407 241.692 90.9471 241.692C91.0403 241.692 91.1335 241.692 91.2266 241.683L106.369 240.546C116.014 250.489 126.898 258.363 138.761 263.991L140.69 275.388C140.895 276.618 141.715 277.671 142.852 278.174C143.336 278.389 143.849 278.491 144.361 278.491C145.06 278.491 145.759 278.296 146.374 277.904L157.575 270.738C165.142 272.611 172.876 273.562 180.592 273.562C182.95 273.562 185.345 273.469 187.693 273.291C197.673 272.546 207.449 270.235 216.767 266.414L228.695 271.745C229.18 271.959 229.702 272.071 230.214 272.071C230.913 272.071 231.612 271.875 232.218 271.493C233.271 270.822 233.923 269.667 233.941 268.418L234.146 257.198C245.264 249.827 255.03 240.294 263.239 228.823L277.832 227.733C278.932 227.649 279.938 227.08 280.581 226.186C281.224 225.291 281.439 224.154 281.159 223.083L276.621 205.517L291.354 193.403C292.444 192.499 292.938 191.064 292.612 189.675C292.295 188.296 291.214 187.215 289.835 186.889L283.377 185.37C285.138 178.633 286.415 171.7 287.188 164.673L297.588 153.528C298.529 152.522 298.836 151.078 298.389 149.773L293.926 136.773L301.809 100.766C302.145 99.2101 301.464 97.6166 300.113 96.7872L284.271 87.1052L287.048 59.8948C287.076 59.727 287.086 59.55 287.086 59.3729C287.086 57.3135 285.427 55.6548 283.368 55.6455H283.349C283.349 55.6455 283.284 55.6455 283.256 55.6455C282.715 55.6641 282.193 55.7946 281.737 56.0182L274.85 59.1772L273.061 35.219C272.949 33.7001 271.924 32.4048 270.471 31.9482C270.098 31.8271 269.716 31.7712 269.343 31.7712C268.253 31.7712 267.19 32.2557 266.473 33.1224L259.931 41.0339L250.361 19.3494C249.765 17.9889 248.423 17.1316 246.95 17.1316C246.876 17.1316 246.801 17.1316 246.727 17.1316C245.17 17.2248 243.838 18.2778 243.381 19.7688L241.173 27.0093L209.946 7.03019C209.34 6.63881 208.641 6.44312 207.933 6.44312L207.924 6.46175Z" fill="black"/>
  <path d="M68.8715 104.829L71.7789 96.7686L61.4631 75.9229L68.8715 104.829Z" fill="#BF7F00"/>
  <path d="M280.516 88.9875L273.853 80.6473L283.545 59.3076L280.516 88.9875Z" fill="#BF7F00"/>
  <path d="M85.0859 202.386L74.854 206.477L93.2583 217.491L91.143 237.899L108.038 236.632C118.018 247.218 129.629 255.651 142.293 261.363L144.548 274.689L157.119 266.647C166.913 269.247 177.145 270.281 187.609 269.499C197.953 268.725 207.812 266.228 217.01 262.277L230.41 268.259L230.652 255.055C242.561 247.488 252.98 237.284 261.394 225.142L277.739 223.921L272.8 204.799C273.005 204.333 273.22 203.858 273.425 203.383L289.173 190.421L278.941 188.017C281.28 179.993 282.93 171.606 283.806 162.949L295.053 150.891L279.659 158.402L271.589 167.031L279.277 167.842L269.455 175.511C269.455 175.511 250.631 211.117 224.316 223.716L223.281 231.535L211.092 229.251C211.092 229.251 201.429 234.209 185.056 235.439C168.683 236.669 158.386 233.203 158.386 233.203L146.673 237.275L144.492 229.699C116.592 221.163 92.6806 188.753 92.6806 188.753L81.8244 182.63L89.3072 180.683L80.2775 176.452L62.3391 172.389L77.2116 180.664C79.2804 188.24 81.9269 195.499 85.0952 202.377L85.0859 202.386Z" fill="#BF7F00"/>
  <path d="M66.3742 153.677L68.6293 141.172L52.8435 118.267L66.3742 153.677Z" fill="#72912F"/>
  <path d="M290.17 136.932L286.08 124.902L298.278 99.8997L290.17 136.932Z" fill="#BF7F00"/>
  <path d="M73.9687 79.5197L79.3269 72.0648L71.7788 50.2219L73.9687 79.5197Z" fill="#BF7F00"/>
  <path d="M271.701 64.7218L265.29 58.1522L269.511 35.4241L271.701 64.7218Z" fill="#BF7F00"/>
  <path d="M97.1256 43.6803L93.8175 48.5726L91.7488 32.4141L97.1256 43.6803Z" fill="#BF7F00"/>
  <path d="M243.475 32.7309L247.472 37.0734L247.118 20.7844L243.475 32.7309Z" fill="#BF7F00"/>
  <path d="M171.811 78.8578C184.775 77.8876 194.867 71.526 194.353 64.6489C193.838 57.7718 182.911 52.9833 169.948 53.9535C156.984 54.9237 146.892 61.2852 147.406 68.1623C147.921 75.0395 158.847 79.828 171.811 78.8578Z" fill="#BF7F00"/>
  <path d="M147.129 69.7446C145.88 62.5133 155.255 54.8627 168.068 52.6542C180.881 50.4457 192.278 54.5086 193.527 61.7399" stroke="#966000" stroke-width="4" stroke-linecap="round" stroke-linejoin="round"/>
  <path d="M204.644 166.304C201.886 184.83 162.934 187.42 157.529 168.643C157.529 168.643 165.366 167.749 181.105 166.714C198.121 166.23 204.634 166.304 204.634 166.304H204.644Z" fill="#966000" stroke="black" stroke-width="4" stroke-linecap="round" stroke-linejoin="round"/>
  <path d="M157.482 235.877L167.872 222.272L170.267 234.228L157.482 235.877Z" fill="#BF7F00"/>
  <path d="M170.267 234.228L157.482 235.877L155.907 225.422" stroke="black" stroke-width="4" stroke-linecap="round" stroke-linejoin="round"/>
  <path d="M169.792 259.313L176.641 250.33L178.226 258.223L169.792 259.313Z" fill="#966000"/>
  <path d="M178.226 258.223L169.792 259.314L168.749 252.418" stroke="black" stroke-width="4" stroke-linecap="round" stroke-linejoin="round"/>
  <path d="M131.334 251.011L137.764 242.587L139.255 249.995L131.334 251.011Z" fill="#966000"/>
  <path d="M139.255 249.995L131.334 251.011L130.356 244.544" stroke="black" stroke-width="4" stroke-linecap="round" stroke-linejoin="round"/>
  <path d="M244.266 238.729L233.979 231.125L234.743 240.21L244.266 238.729Z" fill="#966000"/>
  <path d="M234.743 240.21L244.266 238.729L243.223 230.901" stroke="black" stroke-width="4" stroke-linecap="round" stroke-linejoin="round"/>
  <path d="M208.176 232.085L195.875 220.175L195.288 232.355L208.176 232.085Z" fill="#BF7F00"/>
  <path d="M195.288 232.355L208.175 232.084V221.517" stroke="black" stroke-width="4" stroke-linecap="round" stroke-linejoin="round"/>
  <path d="M201.056 256.723L192.94 248.867L192.548 256.9L201.056 256.723Z" fill="#966000"/>
  <path d="M192.548 256.9L201.056 256.723V249.753" stroke="black" stroke-width="4" stroke-linecap="round" stroke-linejoin="round"/>
  <path d="M160.25 68.0391C160.25 68.0391 145.75 41.7792 146.272 11.0091C146.272 11.0091 171.162 -15.167 185.419 23.1419C185.419 23.1419 180.574 40.1857 183.407 66.3059C183.407 66.3059 171.907 73.6489 160.25 68.0391Z" fill="#725126" stroke="black" stroke-width="4" stroke-linecap="round" stroke-linejoin="round"/>
  <path d="M146.272 11.0092C146.272 11.0092 143.085 48.0414 185.419 23.1421C185.419 23.1421 173.026 -14.8407 146.272 11.0092Z" fill="#A87B45" stroke="black" stroke-width="4" stroke-linecap="round" stroke-linejoin="round"/>
  <path d="M165.422 63.6595C165.422 63.6595 158.107 49.3554 158.107 37.4182" stroke="#351B00" stroke-width="4" stroke-linecap="round" stroke-linejoin="round"/>
  <path d="M86.2041 122.311C85.7847 122.311 85.3747 122.171 85.0299 121.892C84.4335 121.407 84.1912 120.606 84.4242 119.879L89.2792 104.587C89.391 104.224 89.6147 103.907 89.9129 103.674L101.533 94.7093C101.859 94.4576 102.26 94.3179 102.67 94.3179L146.3 94.6067C146.924 94.6067 147.502 94.9236 147.847 95.4547L150.102 98.912L151.146 96.5357C151.444 95.8554 152.115 95.4175 152.851 95.4175C152.888 95.4175 152.935 95.4175 152.972 95.4175C153.755 95.4641 154.416 96.0045 154.64 96.75L159.7 114.017C159.905 114.716 159.681 115.462 159.141 115.946C158.796 116.254 158.358 116.403 157.911 116.403C157.65 116.403 157.398 116.347 157.156 116.245C157.044 116.189 145.293 111.054 128.427 111.054C113.899 111.054 100.005 114.754 87.1266 122.059C86.8377 122.218 86.5209 122.302 86.2041 122.302V122.311Z" fill="#BF7F00"/>
  <path d="M102.679 96.1816L146.291 96.4704L150.428 102.798L152.86 97.2718L157.92 114.549C157.92 114.549 145.946 109.2 128.427 109.2C116.294 109.2 101.515 111.762 86.204 120.447L91.059 105.155L102.679 96.1909M102.679 92.4634C101.859 92.4634 101.058 92.7337 100.406 93.2369L88.7853 102.201C88.1889 102.667 87.7416 103.301 87.5086 104.028L82.6536 119.32C82.1877 120.783 82.6629 122.376 83.8557 123.345C84.536 123.895 85.3653 124.175 86.204 124.175C86.8377 124.175 87.4713 124.016 88.0398 123.69C100.629 116.543 114.216 112.927 128.427 112.927C144.846 112.927 156.289 117.913 156.401 117.959C156.886 118.174 157.398 118.276 157.911 118.276C158.796 118.276 159.672 117.959 160.371 117.353C161.461 116.394 161.899 114.893 161.499 113.505L156.439 96.2282C156.001 94.7279 154.668 93.6562 153.102 93.5537C153.019 93.5537 152.944 93.5537 152.86 93.5537C151.658 93.5537 150.54 94.1408 149.841 95.0913L149.412 94.4297C148.732 93.386 147.567 92.7523 146.318 92.743L102.707 92.4541C102.707 92.4541 102.689 92.4541 102.679 92.4541V92.4634Z" fill="black"/>
  <path d="M157.92 114.548L152.86 97.2717L153.913 109.265C120.804 99.1634 90.2854 114.893 90.2854 114.893L91.0589 105.146L86.2039 120.438C123.627 99.21 157.92 114.539 157.92 114.539V114.548Z" fill="#966000"/>
  <path d="M197.711 114.204C197.347 114.204 196.975 114.092 196.658 113.877C196.061 113.467 195.745 112.75 195.866 112.032L198.81 94.2804C198.941 93.5069 199.537 92.9012 200.301 92.7521C200.413 92.7335 200.534 92.7242 200.646 92.7242C201.298 92.7242 201.913 93.069 202.249 93.6374L203.572 95.8739L205.399 92.1744C205.678 91.6152 206.219 91.2332 206.834 91.1493L250.1 85.6234C250.175 85.6141 250.259 85.6047 250.333 85.6047C250.669 85.6047 250.995 85.6979 251.284 85.8657L263.892 93.3672C264.218 93.5628 264.479 93.8517 264.637 94.1965L271.3 108.799C271.617 109.498 271.477 110.318 270.946 110.868C270.592 111.24 270.098 111.436 269.604 111.436C269.362 111.436 269.119 111.389 268.886 111.296C258.45 106.935 247.575 104.727 236.569 104.727C214.317 104.727 198.81 113.85 198.661 113.943C198.363 114.12 198.037 114.204 197.701 114.204H197.711Z" fill="#BF7F00"/>
  <path d="M250.342 87.4686L262.95 94.9701L269.613 109.572C257.704 104.596 246.475 102.863 236.579 102.863C213.496 102.863 197.711 112.34 197.711 112.34L200.655 94.5881L203.731 99.7879L207.085 93.0039L250.352 87.4779M250.352 83.7505C250.193 83.7505 250.035 83.7598 249.876 83.7784L206.61 89.3044C205.371 89.4628 204.29 90.2269 203.74 91.3545L203.395 92.0627C202.696 91.3079 201.699 90.8699 200.665 90.8699C200.441 90.8699 200.208 90.8886 199.975 90.9352C198.438 91.224 197.235 92.4448 196.984 93.9917L194.039 111.744C193.797 113.179 194.421 114.623 195.623 115.434C196.257 115.862 196.984 116.077 197.72 116.077C198.382 116.077 199.043 115.9 199.64 115.546C199.789 115.462 214.913 106.6 236.588 106.6C247.342 106.6 257.974 108.762 268.188 113.02C268.653 113.216 269.138 113.309 269.623 113.309C270.61 113.309 271.589 112.918 272.306 112.172C273.369 111.073 273.658 109.423 273.015 108.035L266.352 93.4325C266.035 92.743 265.522 92.1652 264.87 91.7738L252.262 84.2723C251.684 83.9275 251.023 83.7505 250.352 83.7505Z" fill="black"/>
  <path d="M197.711 112.34L200.656 94.5881L201.047 106.618C232.702 92.6126 264.889 104.559 264.889 104.559L262.951 94.9702L269.613 109.572C229.907 92.9946 197.711 112.34 197.711 112.34Z" fill="#966000"/>
  <path d="M178.225 188.296C178.225 188.296 181.981 185.808 187.637 187.374" stroke="#BF7F00" stroke-width="4" stroke-linecap="round" stroke-linejoin="round"/>
  <path d="M127.094 16.9451L137.475 35.4239L140.681 20.132L127.094 16.9451Z" fill="#BF7F00"/>
  <path d="M196.891 15.9294L204.243 29.7303L208.11 10.0959L196.891 15.9294Z" fill="#BF7F00"/>
  <path d="M167.686 179.201C167.686 179.201 179.819 167.572 195.661 177.85C195.661 177.85 180.965 184.886 167.686 179.201Z" fill="#B2282F" stroke="black" stroke-width="4" stroke-linecap="round" stroke-linejoin="round"/>
  <path d="M124.578 166.854C123.721 166.854 122.836 166.826 121.96 166.779C110.526 166.155 101.654 162.344 95.6065 155.457C86.1388 144.685 87.0893 130.39 87.1359 129.794C87.1731 129.253 87.4527 128.759 87.8814 128.433C88.4312 128.032 101.542 118.509 123.767 118.509C135.192 118.509 146.989 121.062 158.833 126.085C159.532 126.383 159.98 127.063 159.97 127.827C159.97 128.219 159.057 166.854 124.578 166.854Z" fill="white"/>
  <path d="M123.767 120.373C133.543 120.373 145.098 122.283 158.107 127.799C158.107 127.799 157.622 164.99 124.578 164.99C123.758 164.99 122.919 164.971 122.053 164.925C86.5116 162.987 88.981 129.933 88.981 129.933C88.981 129.933 101.887 120.373 123.767 120.373ZM123.767 116.645C100.928 116.645 87.3316 126.514 86.7632 126.933C85.8966 127.576 85.3468 128.573 85.2629 129.654C85.2163 130.288 84.2192 145.337 94.1901 156.687C100.583 163.965 109.892 167.981 121.848 168.634C122.761 168.68 123.684 168.708 124.569 168.708C143.616 168.708 152.776 157.414 157.11 147.937C161.638 138.041 161.815 128.256 161.825 127.837C161.843 126.327 160.949 124.948 159.551 124.361C147.474 119.236 135.434 116.636 123.758 116.636L123.767 116.645Z" fill="black"/>
  <path d="M123.525 155.299C132.531 155.299 139.832 147.998 139.832 138.991C139.832 129.985 132.531 122.684 123.525 122.684C114.518 122.684 107.217 129.985 107.217 138.991C107.217 147.998 114.518 155.299 123.525 155.299Z" fill="black"/>
  <path d="M118.661 136.68C122.665 136.68 125.91 133.434 125.91 129.43C125.91 125.426 122.665 122.18 118.661 122.18C114.657 122.18 111.411 125.426 111.411 129.43C111.411 133.434 114.657 136.68 118.661 136.68Z" fill="white"/>
  <path d="M125.035 146.716C127.171 146.716 128.902 144.985 128.902 142.849C128.902 140.713 127.171 138.982 125.035 138.982C122.899 138.982 121.167 140.713 121.167 142.849C121.167 144.985 122.899 146.716 125.035 146.716Z" fill="white"/>
  <path d="M100.023 152.475C100.023 152.475 122.5 170.824 143.989 153.603" stroke="#DBDBDB" stroke-width="4" stroke-linecap="round" stroke-linejoin="round"/>
  <path d="M232.059 161.468C202.081 161.468 197.291 126.803 197.254 126.448C197.161 125.694 197.524 124.967 198.186 124.594C212.257 116.617 226.561 112.573 240.706 112.573C257.899 112.573 268.504 118.574 268.951 118.835C269.417 119.105 269.753 119.571 269.855 120.102C269.967 120.699 272.539 134.789 264.366 146.567C259.139 154.097 250.761 158.896 239.476 160.816C236.932 161.254 234.444 161.468 232.077 161.468H232.059Z" fill="white"/>
  <path d="M240.698 114.437C257.592 114.437 268.01 120.447 268.01 120.447C268.01 120.447 274.226 152.997 239.141 158.98C236.625 159.408 234.268 159.604 232.059 159.604C203.376 159.604 199.099 126.215 199.099 126.215C215.09 117.148 229.357 114.437 240.698 114.437ZM240.698 110.709C226.226 110.709 211.605 114.837 197.254 122.973C195.94 123.718 195.204 125.19 195.4 126.691C195.446 127.063 196.62 135.851 201.569 144.732C208.353 156.902 218.901 163.341 232.059 163.341C234.529 163.341 237.119 163.108 239.775 162.661C251.582 160.648 260.369 155.597 265.886 147.639C274.506 135.217 271.794 120.382 271.673 119.758C271.468 118.695 270.815 117.773 269.874 117.232C269.418 116.962 258.384 110.719 240.698 110.719V110.709Z" fill="black"/>
  <path d="M234.724 149.698C243.73 149.698 251.031 142.397 251.031 133.391C251.031 124.384 243.73 117.083 234.724 117.083C225.717 117.083 218.416 124.384 218.416 133.391C218.416 142.397 225.717 149.698 234.724 149.698Z" fill="black"/>
  <path d="M226.505 131.536C230.509 131.536 233.755 128.291 233.755 124.287C233.755 120.283 230.509 117.037 226.505 117.037C222.501 117.037 219.255 120.283 219.255 124.287C219.255 128.291 222.501 131.536 226.505 131.536Z" fill="white"/>
  <path d="M233.662 141.265C235.797 141.265 237.529 139.534 237.529 137.398C237.529 135.262 235.797 133.531 233.662 133.531C231.526 133.531 229.794 135.262 229.794 137.398C229.794 139.534 231.526 141.265 233.662 141.265Z" fill="white"/>
  <path d="M259.614 144.098C259.614 144.098 239.383 164.888 216.068 150.23" stroke="#DBDBDB" stroke-width="4" stroke-linecap="round" stroke-linejoin="round"/>
  <path d="M77.3886 189.405C105.783 185.1 109.827 154.479 109.827 154.479C111.97 134.556 128.324 126.756 119.444 117.372C104.357 101.447 88.6269 130.493 88.6269 130.493C88.6269 130.493 106.407 86.6114 83.7067 81.16C64.2494 76.4821 64.2401 120.298 64.2401 120.298C64.2401 120.298 66.3554 75.5968 44.1864 78.8397C23.8811 81.803 39.2848 125.601 39.2848 125.601C39.2848 125.601 24.9527 88.6335 7.87166 98.4367C-9.1628 108.212 16.2864 145.3 16.2864 145.3C16.2864 145.3 14.0685 189.592 63.4014 191.269" fill="#E19E00"/>
  <path d="M77.3887 189.405C105.783 185.1 109.827 154.479 109.827 154.479C111.97 134.556 128.324 126.756 119.444 117.372C104.357 101.447 88.6269 130.493 88.6269 130.493C88.6269 130.493 106.407 86.6114 83.7067 81.16C64.2494 76.4821 64.2401 120.298 64.2401 120.298C64.2401 120.298 66.3554 75.5968 44.1864 78.8397C23.8811 81.803 39.2848 125.601 39.2848 125.601C39.2848 125.601 24.9527 88.6335 7.87166 98.4367C-9.1628 108.212 16.2864 145.3 16.2864 145.3C16.2864 145.3 14.0685 189.592 63.4014 191.269" stroke="black" stroke-width="4" stroke-linecap="round" stroke-linejoin="round"/>
  <path d="M59.1336 121.528C59.1336 121.528 60.7457 84.4586 46.4509 83.769" stroke="#FFC55F" stroke-width="4" stroke-linecap="round" stroke-linejoin="round"/>
  <path d="M10.4807 102.378C10.4807 102.378 -1.6428 107.895 20.9549 142.486" stroke="#FFC55F" stroke-width="4" stroke-linecap="round" stroke-linejoin="round"/>
  <path d="M69.3281 122.218C69.3281 122.218 70.7073 82.9398 82.4208 86.2479" stroke="#FFC55F" stroke-width="4" stroke-linecap="round" stroke-linejoin="round"/>
  <path d="M91.5156 134.966C91.5156 134.966 102.428 113.542 113.349 118.267" stroke="#FFC55F" stroke-width="4" stroke-linecap="round" stroke-linejoin="round"/>
  <path d="M27.0215 165.838C27.0215 165.838 36.6197 184.802 62.3391 185.473" stroke="#FFC55F" stroke-width="4" stroke-linecap="round" stroke-linejoin="round"/>
  <path d="M77.0437 183.413C77.0437 183.413 96.1842 181.14 102.428 159.017" stroke="#FFC55F" stroke-width="4" stroke-linecap="round" stroke-linejoin="round"/>
  <path d="M81.1814 139.793C81.1814 139.793 66.6257 150.91 66.6257 168.056" stroke="black" stroke-width="4" stroke-linecap="round" stroke-linejoin="round"/>
  <path d="M83.6974 142.681C83.6974 142.681 70.9495 152.587 70.2227 168.047" stroke="#FFC55F" stroke-width="4" stroke-linecap="round" stroke-linejoin="round"/>
  <path d="M111.038 342.743L109.454 305.543L104.841 301.005L94.2928 310.24L84.1168 310.668L82.9334 309.457L69.3934 311.246L66.6817 311.33L52.3683 310.286L40.7293 291.752L44.1865 283.001L41.3443 278.678L40.0024 267.272L43.2174 256.928L49.9081 249.287L59.5995 244.748L71.4249 244.45L76.6526 245.382L81.1535 247.162L85.6451 242.782L96.7995 242.307L105.457 247.162L114.971 241.533L127.626 240.993L132.257 245.336L137.82 240.611L154.827 239.977L162.99 245.634L164.052 244.422L173.743 239.875L185.569 239.577L190.797 240.508L193.611 241.627L196.267 238.617L205.38 238.225L213.208 244.823L219.955 236.781L232.218 236.259H232.786C235.442 236.25 241.322 236.986 245.078 243.08L251.852 235.7L286.518 234.228L289.49 236.958L295.445 233.641L313.122 233.995L317.325 234.768L329.476 239.111L338.078 249.054L340.659 261.876L340.92 264.718L340.64 281.371L333.372 293.038L320.605 299.579L314.464 301.042L295.724 300.93L287.626 296.047L282.753 302.198L273.686 302.58L273.77 336.304L260.873 349.797L249.429 350.282L242.888 344.271L236.318 350.832L224.409 351.335L223.906 350.841L223.607 351.372L210.375 351.931L206.228 348.772L202.575 352.257L190.797 352.761L190.759 352.723L190.731 352.761L177.816 353.31L169.951 348.903L162.487 353.963L152.367 354.391L151.136 352.956L125.864 355.556L111.001 342.706L111.038 342.743Z" fill="#324C0B"/>
  <path d="M296.05 236.008L312.908 236.343L316.738 237.042L328.134 241.114L335.934 250.135L338.366 262.23L338.599 264.821L338.329 280.7L331.741 291.276L319.804 297.399L314.203 298.731L296.386 298.629L287.086 293.019L281.606 299.943L271.365 300.381L271.449 335.4L259.848 347.533L250.305 347.943L242.832 341.084L235.321 348.586L225.331 349.015L223.374 347.086L222.219 349.145L211.12 349.62L206.06 345.772L201.606 350.03L191.7 350.45L190.405 349.201L189.483 350.543L178.384 351.018L169.839 346.228L161.732 351.726L153.41 352.08L151.863 350.273L151.546 350.636L126.647 353.199L113.303 341.662L111.728 304.546L104.813 297.753L104.776 297.986L93.3608 307.975L85.0393 308.329L82.9146 306.149L81.8803 307.276L69.1976 308.954L66.7282 309.028L53.7101 308.078L43.3198 291.537L46.7956 282.759L43.59 277.886L42.3693 267.514L45.286 258.121L51.3338 251.225L60.1399 247.097L71.2477 246.817L76.0189 247.665L81.7032 249.92L86.6421 245.103L96.2403 244.693L105.643 249.967L105.811 249.687L115.651 243.873L126.749 243.397L132.182 248.495L138.715 242.941L154.146 242.363L163.381 248.765L165.487 246.361L174.293 242.232L185.401 241.953L190.172 242.801L194.291 244.432L197.375 240.937L204.588 240.63L213.506 248.14L221.091 239.092L232.33 238.617H232.842C235.554 238.607 241.611 239.521 244.49 247.199L252.924 238.02L285.66 236.632L289.164 239.847L296.041 236.017M249.849 286.123L251.284 284.753L252.598 284.697L252.579 270.496L247.575 265.585C248.236 271.092 248.991 277.969 249.849 286.123ZM294.876 231.33L293.777 231.945L289.844 234.135L288.819 233.193L287.393 231.889L285.464 231.973L252.728 233.361L250.799 233.445L249.495 234.871L245.255 239.483C242.123 235.942 237.781 233.948 232.842 233.948H232.74L232.227 233.957H232.18H232.134L220.896 234.433L218.846 234.517L217.522 236.091L212.938 241.561L207.589 237.061L206.2 235.896L204.383 235.97L197.17 236.278L195.186 236.362L193.872 237.843L192.949 238.887L191.877 238.458L191.439 238.281L190.973 238.197L186.202 237.349L185.736 237.266H185.27L174.163 237.554L173.184 237.582L172.299 237.992L163.493 242.121L162.608 242.531H162.598L156.783 238.514L155.507 237.629L153.96 237.685L138.528 238.263L136.916 238.319L135.686 239.362L132.322 242.223L129.918 239.968L128.492 238.626L126.535 238.71L115.437 239.185L114.272 239.232L113.265 239.828L105.4 244.478L98.4954 240.602L97.3399 239.959L96.0166 240.015L86.4184 240.425L84.6386 240.499L83.3619 241.748L80.585 244.45L77.7055 243.313L77.2676 243.136L76.8016 243.052L72.0305 242.204L71.5646 242.121H71.0986L59.9908 242.409L59.0124 242.437L58.1271 242.847L49.321 246.976L48.4357 247.386L47.7927 248.122L41.7449 255.018L41.0926 255.763L40.8038 256.704L37.887 266.097L37.5981 267.039L37.71 268.017L38.9307 278.389L39.0612 279.479L39.6669 280.402L41.5399 283.253L38.9587 289.785L38.092 291.975L39.35 293.969L49.7403 310.51L50.9983 312.504L53.3466 312.672L66.3648 313.622L66.607 313.641H66.8493L69.3188 313.557H69.561L69.794 313.52L82.0573 311.899L83.1569 313.017L85.235 312.933L93.5565 312.579L95.1966 312.514L96.4267 311.433L104.73 304.164L107.152 306.54L108.653 341.821L108.737 343.833L110.256 345.147L123.6 356.684L125.119 357.998L127.122 357.793L150.177 355.426L151.351 356.796L153.615 356.703L161.937 356.348L163.26 356.292L164.359 355.547L170.081 351.67L176.11 355.053L177.266 355.696L178.589 355.64L189.688 355.165L192.008 355.062L201.811 354.643L203.563 354.569L204.83 353.357L206.414 351.847L208.306 353.292L209.648 354.308L211.325 354.233L222.424 353.758L225.024 353.646L225.536 353.627L235.526 353.199L237.334 353.124L238.62 351.847L242.971 347.505L247.156 351.354L248.581 352.658L250.51 352.574L260.053 352.164L261.926 352.08L263.221 350.729L274.823 338.596L276.118 337.245V335.372L276.034 304.826L281.802 304.583L283.936 304.49L285.259 302.822L288.195 299.113L293.982 302.608L295.081 303.269H296.367L314.184 303.381H314.744L315.293 303.251L320.894 301.918L321.444 301.788L321.947 301.536L333.884 295.414L335.03 294.827L335.71 293.737L342.299 283.16L342.979 282.07L342.998 280.784L343.268 264.905V264.653L343.249 264.401L343.016 261.811L342.998 261.559L342.951 261.317L340.519 249.221L340.277 248.019L339.475 247.087L331.676 238.067L330.874 237.135L329.719 236.725L318.322 232.653L317.968 232.522L317.595 232.457L313.765 231.758L313.392 231.693H313.02L296.162 231.348L294.904 231.32L294.876 231.33Z" fill="#496D20"/>
  <path d="M76.0477 271.549L65.2568 272.006L80.9027 282.461L80.3063 295.246L67.6237 296.924L54.6056 295.973L58.7989 285.369L65.6109 288.667L71.6866 288.406L67.0366 283.048L55.6399 276.441L54.4192 266.07L60.467 259.174L71.5748 258.894L80.0547 262.258L76.0571 271.54L76.0477 271.549Z" fill="white"/>
  <path d="M84.5361 296.197L87.1547 257.179L96.7529 256.769L105.783 273.058L116.173 255.94L127.271 255.465L128.091 294.342L113.806 294.948L114.272 276.478L105.447 287.828L96.3335 276.236L92.8577 295.842L84.5361 296.197Z" fill="white"/>
  <path d="M167.351 292.684L156.253 293.159L150.233 282.293L144.688 282.526L139.61 293.858L131.288 294.212L139.181 255.027L154.613 254.449L167.351 292.674V292.684ZM152.721 275.407L145.462 260.264L141.622 275.882L152.721 275.407Z" fill="white"/>
  <path d="M190.2 266.694L179.409 267.151L195.055 277.606L194.459 290.391L181.776 292.069L168.758 291.118L172.952 280.514L179.763 283.812L185.839 283.551L181.189 278.193L169.793 271.586L168.572 261.215L174.62 254.319L185.727 254.039L194.207 257.403L190.21 266.685L190.2 266.694Z" fill="white"/>
  <path d="M197.907 253.033L205.119 252.725L207.607 272.071L224.213 270.533L221.613 251.188L232.852 250.712C233.606 250.675 235.293 263.171 237.893 288.182L227.782 288.975L225.592 276.031L207.85 277.615L209.192 290.233L201.056 291.798L197.907 253.023V253.033Z" fill="white"/>
  <path d="M281.094 287.847L264.721 288.546L264.684 259.584L253.837 259.323L253.446 250.116L286.182 248.728L286.583 258.102L275.838 260.283L281.094 287.847Z" fill="white"/>
  <path d="M295.799 248.122L312.656 248.457L324.053 252.53L326.485 264.625L326.215 280.504L314.278 286.626L296.461 286.524L289.574 273.646L288.978 259.64L295.799 248.122ZM303.589 255.511L297.299 265.091L301.623 277.969L312.135 278.827L318.49 272.024L316.98 258.167L303.58 255.511H303.589Z" fill="white"/>
  <path d="M125.427 341.131L123.777 302.291L148.63 298.452L148.984 306.773L131.12 310.314L130.915 315.877L149.338 315.095L149.646 322.251L133.049 324.124L133.366 331.673L149.99 330.526L150.335 338.568L125.436 341.131H125.427Z" fill="white"/>
  <path d="M188.979 338.429L177.881 338.904L171.861 328.039L166.307 328.272L161.229 339.603L152.907 339.957L160.8 300.772L176.232 300.204L188.97 338.429H188.979ZM174.349 321.152L167.09 306.009L163.251 321.627L174.349 321.152Z" fill="white"/>
  <path d="M221.716 337.04L210.617 337.516L207.206 322.736L202.435 322.857L201.103 337.926L191.197 338.345L191.421 300.399L208.968 298.685L219.209 301.033L218.799 314.946L212.686 320.77L221.716 337.059V337.04ZM198.466 316.437L207.831 315.151L213.375 306.969L203.665 304.015L197.925 305.04L198.466 316.437Z" fill="white"/>
  <path d="M259.335 335.437L249.793 335.847L249.56 330.303L235.918 311.423L234.818 336.481L224.828 336.91L225.956 297.958L237.054 297.482L249.327 324.749L251.806 296.849L259.242 296.532L259.335 335.437Z" fill="white"/>
</svg>
