<svg width="324" height="370" viewBox="0 0 324 370" fill="none" xmlns="http://www.w3.org/2000/svg">
  <path d="M265.367 333.519L60.0815 304.79L27.88 85.2784L43.5506 30.9536L265.367 0.134766L323.532 95.2031L265.367 333.519Z" fill="#324C0B"/>
  <path d="M147.735 283.374C147.735 283.374 140.226 315.504 114.189 319.729C88.1514 323.961 103.043 263.703 103.043 263.703" fill="#CD6329"/>
  <path d="M103.034 263.703C103.034 263.703 88.1426 323.961 114.18 319.729C140.217 315.496 147.727 283.374 147.727 283.374" stroke="black" stroke-width="4" stroke-linecap="round" stroke-linejoin="round"/>
  <path d="M241.216 263.703C241.216 263.703 256.108 323.961 230.07 319.729C204.033 315.496 196.523 283.374 196.523 283.374" fill="#CD6329"/>
  <path d="M241.216 263.703C241.216 263.703 256.108 323.961 230.07 319.729C204.033 315.496 196.523 283.374 196.523 283.374" stroke="black" stroke-width="4" stroke-linecap="round" stroke-linejoin="round"/>
  <path d="M232.579 321.651C231.691 321.651 230.753 321.574 229.797 321.412C202.932 317.051 195.175 285.117 194.859 283.76C194.671 282.958 195.081 282.139 195.832 281.806L240.533 262.135C240.754 262.041 240.985 261.99 241.224 261.99C241.48 261.99 241.736 262.05 241.975 262.169C242.427 262.391 242.76 262.801 242.879 263.296C243.289 264.934 252.702 303.67 242.256 317.009C239.841 320.089 236.59 321.651 232.587 321.651H232.579Z" fill="#E19E00"/>
  <path d="M241.216 263.705C241.216 263.705 255.118 319.943 232.58 319.943C231.786 319.943 230.95 319.875 230.071 319.73C204.033 315.497 196.524 283.375 196.524 283.375L241.224 263.705M241.224 260.291C240.755 260.291 240.286 260.385 239.85 260.581L195.15 280.252C193.648 280.918 192.828 282.556 193.204 284.152C193.289 284.502 195.261 292.805 200.611 301.723C207.857 313.816 217.858 321.206 229.533 323.101C230.583 323.272 231.615 323.357 232.588 323.357C237.086 323.357 240.892 321.522 243.605 318.057C248.333 312.015 249.895 300.776 248.239 284.664C247.053 273.1 244.647 263.295 244.544 262.885C244.305 261.904 243.64 261.085 242.735 260.641C242.257 260.41 241.745 260.291 241.224 260.291Z" fill="black"/>
  <path d="M196.514 283.376L241.215 263.705C241.215 263.705 242.46 268.757 243.604 275.832C243.604 275.832 234.558 290.485 219.743 296.271L216.782 309.678L208.675 307.169C199.603 296.578 196.514 283.376 196.514 283.376Z" fill="#BF7F00"/>
  <path d="M111.671 321.651C107.668 321.651 104.408 320.089 102.002 317.009C91.556 303.67 100.969 264.934 101.379 263.296C101.498 262.809 101.831 262.4 102.283 262.169C102.522 262.05 102.778 261.99 103.034 261.99C103.265 261.99 103.504 262.041 103.725 262.135L148.426 281.806C149.177 282.139 149.587 282.958 149.399 283.76C149.083 285.117 141.326 317.051 114.461 321.412C113.505 321.566 112.567 321.651 111.679 321.651H111.671Z" fill="#E19E00"/>
  <path d="M103.033 263.705L147.734 283.375C147.734 283.375 140.224 315.506 114.187 319.73C113.3 319.875 112.472 319.943 111.678 319.943C89.1399 319.943 103.042 263.705 103.042 263.705M103.042 260.291C102.53 260.291 102.009 260.41 101.531 260.641C100.627 261.085 99.9695 261.904 99.722 262.885C99.6196 263.295 97.2131 273.1 96.0268 284.664C94.3713 300.776 95.9244 312.015 100.661 318.057C103.375 321.522 107.181 323.357 111.678 323.357C112.66 323.357 113.684 323.272 114.733 323.101C126.408 321.206 136.401 313.807 143.655 301.723C148.997 292.805 150.977 284.502 151.062 284.152C151.438 282.556 150.619 280.909 149.117 280.252L104.416 260.581C103.98 260.385 103.511 260.291 103.042 260.291Z" fill="black"/>
  <path d="M147.735 283.376L103.034 263.705C103.034 263.705 101.788 268.757 100.645 275.832C100.645 275.832 109.691 290.485 124.505 296.271L127.467 309.678L135.574 307.169C144.646 296.578 147.735 283.376 147.735 283.376Z" fill="#BF7F00"/>
  <path d="M87.3903 230.651C87.3903 230.651 55.9256 247.267 37.2021 231.769C14.3226 212.824 65.3386 180.438 65.3386 180.438L87.3903 230.651Z" fill="#E19E00" stroke="black" stroke-width="4" stroke-linecap="round" stroke-linejoin="round"/>
  <path d="M65.7145 181.623C65.7145 181.623 66.0729 182.033 59.8687 186.376L57.0781 205.441L69.7596 215.136L73.5743 227.877L66.7044 232.161L70.0839 235.063C77.3121 229.004 86.5715 229.123 86.5715 229.123L65.7145 181.632V181.623Z" fill="#BF7F00"/>
  <path d="M283.655 251.541C270.563 251.541 255.97 230.966 255.347 230.096C255.006 229.609 254.938 228.978 255.185 228.432L276.563 179.754C276.802 179.216 277.297 178.832 277.877 178.755C277.962 178.747 278.039 178.738 278.125 178.738C278.62 178.738 279.097 178.952 279.422 179.344C280.625 180.761 308.77 214.342 296.609 241.258C293.52 248.094 289.168 251.559 283.655 251.559V251.541Z" fill="#E19E00"/>
  <path d="M278.125 180.437C278.125 180.437 306.91 214.3 295.056 240.542C291.992 247.326 287.956 249.835 283.655 249.835C271.298 249.835 256.747 229.115 256.747 229.115L278.125 180.437ZM278.125 177.023C277.963 177.023 277.792 177.032 277.63 177.058C276.469 177.228 275.471 177.988 275.001 179.063L253.624 227.741C253.146 228.833 253.274 230.096 253.957 231.078C255.552 233.348 269.924 253.249 283.655 253.249C287.947 253.249 293.947 251.286 298.171 241.95C310.767 214.061 281.965 179.678 280.728 178.227C280.071 177.459 279.123 177.023 278.125 177.023Z" fill="black"/>
  <path d="M278.126 180.438C278.126 180.438 279.508 181.129 283.809 188.135L287.385 205.689L273.56 215.137L269.746 227.878L279.073 233.877L269.609 243.188C262.381 237.129 256.757 229.115 256.757 229.115L278.134 180.438H278.126Z" fill="#BF7F00"/>
  <path d="M211.646 303.413C211.364 303.413 211.091 303.344 210.835 303.208L199.621 297.157C190.772 300.11 181.606 301.612 172.347 301.612C163.087 301.612 153.709 300.076 144.765 297.055L133.355 303.208C133.099 303.344 132.826 303.413 132.544 303.413C132.263 303.413 131.99 303.344 131.742 303.208C131.239 302.935 130.897 302.431 130.846 301.859L129.779 290.398C118.95 284.365 109.238 276.181 100.9 266.042H86.1452C85.6417 266.042 85.1638 265.821 84.8395 265.428C84.5152 265.035 84.3786 264.532 84.4725 264.028L87.6216 246.551L72.4055 235.832C71.8764 235.457 71.6033 234.817 71.7057 234.177C71.8081 233.537 72.2604 233.007 72.8749 232.811L80.8285 230.302C78.7206 224.405 77.0224 218.261 75.7764 211.997L63.3168 203.796C62.6853 203.386 62.4037 202.609 62.6171 201.884L67.4558 185.49L57.6332 152.618C57.4284 151.918 57.6844 151.167 58.2733 150.74L73.0029 140.158L68.386 114.232C68.2751 113.626 68.5055 113.011 68.9749 112.627C69.2906 112.363 69.6746 112.226 70.0672 112.226C70.2635 112.226 70.4683 112.26 70.656 112.329L79.5655 115.631V91.0963C79.5655 90.3965 79.9922 89.7735 80.6322 89.5089C80.8371 89.4236 81.0589 89.3895 81.2723 89.3895C81.7246 89.3895 82.1769 89.5687 82.5012 89.91L90.9669 98.7171L99.1765 75.5815C99.4155 74.9073 100.047 74.455 100.764 74.4465H100.789C101.489 74.4465 102.129 74.8817 102.377 75.5388L105.765 84.2691L145.524 58.3259C145.806 58.1381 146.13 58.0442 146.455 58.0442C146.736 58.0442 147.009 58.1125 147.265 58.2491C147.82 58.5477 148.161 59.1195 148.161 59.751V65.0933L171.408 49.809C171.69 49.6212 172.022 49.5273 172.347 49.5273C172.671 49.5273 173.004 49.6212 173.285 49.809L196.532 65.0933V59.751C196.532 59.128 196.873 58.5477 197.428 58.2491C197.684 58.1125 197.957 58.0442 198.239 58.0442C198.563 58.0442 198.887 58.1381 199.169 58.3259L238.929 84.2691L242.317 75.5388C242.573 74.8817 243.204 74.4465 243.904 74.4465H243.93C244.646 74.455 245.278 74.9073 245.517 75.5815L253.727 98.7171L262.192 89.91C262.517 89.5687 262.969 89.3895 263.421 89.3895C263.634 89.3895 263.848 89.4321 264.061 89.5089C264.71 89.765 265.128 90.3965 265.128 91.0963V115.631L274.037 112.329C274.234 112.26 274.43 112.226 274.626 112.226C275.019 112.226 275.411 112.363 275.719 112.627C276.188 113.02 276.41 113.634 276.307 114.232L271.69 140.158L286.42 150.74C287.009 151.167 287.265 151.918 287.06 152.618L277.229 185.525L280.549 198.197C280.711 198.803 280.515 199.452 280.054 199.887L269.344 209.769C268.055 216.844 266.195 223.791 263.814 230.447L271.315 232.82C271.929 233.016 272.39 233.545 272.484 234.185C272.587 234.825 272.313 235.465 271.784 235.841L256.807 246.397C256.739 246.525 256.671 246.645 256.611 246.773L259.717 264.037C259.803 264.532 259.675 265.044 259.35 265.436C259.026 265.82 258.548 266.051 258.045 266.051H243.793C235.31 276.36 225.419 284.655 214.385 290.706L213.344 301.876C213.293 302.448 212.951 302.952 212.448 303.225C212.2 303.361 211.919 303.43 211.646 303.43V303.413Z" fill="#E19E00"/>
  <path d="M172.346 51.2339L198.238 68.2591V59.7508L239.756 86.8461L243.912 76.1531L253.043 101.891L263.421 91.096V118.08L274.634 113.924L269.83 140.909L285.43 152.122L275.462 185.482L278.901 198.624L267.773 208.899C266.373 216.767 264.3 224.345 261.603 231.531L270.811 234.441L255.492 245.228C255.271 245.646 255.049 246.064 254.827 246.482L258.044 264.335H242.982C234.439 274.883 224.19 283.511 212.763 289.63L211.636 301.706L199.766 295.305C191.061 298.292 181.861 299.905 172.338 299.905C162.814 299.905 153.392 298.258 144.602 295.203L132.535 301.714L131.383 289.348C120.169 283.247 110.108 274.73 101.693 264.344H86.1275L89.4643 245.8L73.3607 234.449L83.0126 231.403C80.5804 224.891 78.6518 218.056 77.2778 210.973L64.2209 202.37L69.2047 185.49L59.237 152.131L74.8371 140.917L70.0325 113.933L81.2461 118.089V91.1045L91.6234 101.9L100.755 76.1616L104.911 86.8546L146.428 59.7593V68.2677L172.321 51.2424M172.346 47.8203C171.689 47.8203 171.04 48.0081 170.469 48.3836L149.868 61.9269V59.7423C149.868 58.4878 149.185 57.3357 148.076 56.7383C147.563 56.4652 147.009 56.3287 146.454 56.3287C145.806 56.3287 145.157 56.5164 144.585 56.8834L106.592 81.6745L103.963 74.9071C103.451 73.5929 102.188 72.7309 100.78 72.7309C100.763 72.7309 100.746 72.7309 100.729 72.7309C99.304 72.748 98.0409 73.6611 97.563 75.001L90.275 95.5337L83.7209 88.7236C83.0638 88.0409 82.1678 87.6739 81.2632 87.6739C80.8365 87.6739 80.4012 87.7507 79.9916 87.9214C78.703 88.442 77.8496 89.6964 77.8496 91.0875V113.173L71.2358 110.724C70.8517 110.579 70.4506 110.511 70.0495 110.511C69.2644 110.511 68.4878 110.784 67.8563 111.304C66.9176 112.09 66.4738 113.318 66.6872 114.522L71.1163 139.39L57.2571 149.349C56.0709 150.202 55.5589 151.704 55.977 153.095L65.6546 185.49L60.9609 201.397C60.5342 202.84 61.106 204.384 62.3604 205.212L74.2226 213.029C75.3577 218.542 76.8255 223.961 78.6176 229.201L72.3452 231.181C71.1078 231.574 70.1946 232.632 69.9983 233.912C69.8021 235.192 70.3482 236.481 71.4064 237.223L85.735 247.319L82.7822 263.721C82.603 264.719 82.8761 265.743 83.5247 266.512C84.1732 267.28 85.129 267.732 86.1446 267.732H100.098C108.256 277.503 117.686 285.465 128.166 291.431L129.147 302.004C129.25 303.148 129.924 304.155 130.931 304.701C131.434 304.974 131.989 305.102 132.544 305.102C133.098 305.102 133.662 304.966 134.165 304.692L144.926 298.889C153.827 301.817 163.044 303.301 172.346 303.301C181.648 303.301 190.651 301.851 199.45 298.992L210.015 304.692C210.519 304.966 211.082 305.102 211.636 305.102C212.191 305.102 212.746 304.966 213.249 304.701C214.256 304.163 214.931 303.148 215.033 302.004L215.989 291.738C226.673 285.747 236.283 277.682 244.586 267.74H258.036C259.043 267.74 260.007 267.288 260.656 266.52C261.304 265.752 261.577 264.719 261.398 263.729L258.445 247.327L272.774 237.232C273.832 236.481 274.378 235.2 274.182 233.92C273.986 232.64 273.072 231.582 271.835 231.189L266.015 229.355C268.089 223.304 269.744 217.032 270.93 210.648L281.222 201.15C282.153 200.297 282.528 198.999 282.212 197.779L279.012 185.567L288.707 153.121C289.125 151.73 288.613 150.219 287.427 149.374L273.567 139.415L277.971 114.675C278.022 114.436 278.048 114.197 278.048 113.941C278.048 112.064 276.537 110.545 274.668 110.528C274.66 110.528 274.643 110.528 274.634 110.528C274.583 110.528 274.532 110.528 274.481 110.528C274.097 110.545 273.721 110.63 273.38 110.767L266.843 113.19V91.1045C266.843 89.7135 265.998 88.459 264.701 87.9384C264.291 87.7678 263.856 87.691 263.429 87.691C262.516 87.691 261.628 88.0579 260.971 88.7406L254.417 95.5507L247.129 75.018C246.651 73.6697 245.388 72.7651 243.963 72.748C243.946 72.748 243.929 72.748 243.912 72.748C242.504 72.748 241.241 73.6099 240.729 74.9242L238.1 81.6916L200.107 56.9004C199.544 56.5335 198.895 56.3457 198.238 56.3457C197.683 56.3457 197.12 56.4823 196.617 56.7554C195.516 57.3527 194.825 58.5048 194.825 59.7593V61.944L174.224 48.4006C173.652 48.0251 173.003 47.8374 172.346 47.8374V47.8203Z" fill="black"/>
  <path d="M74.8632 140.918L78.0805 133.732L70.0586 113.934L74.8632 140.918Z" fill="#BF7F00"/>
  <path d="M269.821 140.918L264.291 132.819L274.634 113.934L269.821 140.918Z" fill="#BF7F00"/>
  <path d="M83.0376 231.394L73.3857 234.441L89.4893 245.791L86.1525 264.335H101.718C110.133 274.713 120.194 283.238 131.408 289.34L132.56 301.705L144.627 295.194C153.417 298.249 162.728 299.896 172.363 299.896C181.997 299.896 191.086 298.283 199.791 295.296L211.661 301.697L212.788 289.621C224.215 283.503 234.456 274.875 243.007 264.327H258.069L254.852 246.474C255.074 246.056 255.296 245.637 255.517 245.219L270.836 234.432L261.628 231.522C264.324 224.337 266.407 216.758 267.798 208.89L278.926 198.615L264.316 204.444C264.316 204.444 262.677 223.807 256.328 234.39L263.309 235.661L253.785 242.01C253.785 242.01 234.106 273.33 209.127 283.067L207.642 290.159L196.633 287.232C196.633 287.232 187.442 291.115 172.354 291.115C157.266 291.115 148.075 287.232 148.075 287.232L137.066 290.159L135.581 283.067C110.611 273.33 90.923 242.01 90.923 242.01L81.3991 235.661L88.3799 234.39C82.0306 223.807 80.3921 207.303 80.3921 207.303L64.2373 202.353L77.2943 210.955C78.6682 218.039 80.5969 224.866 83.0291 231.386L83.0376 231.394Z" fill="#BF7F00"/>
  <path d="M69.2304 185.49L72.1575 174.191L59.2627 152.131L69.2304 185.49Z" fill="#BF7F00"/>
  <path d="M275.385 185.49L272.458 174.191L285.353 152.131L275.385 185.49Z" fill="#BF7F00"/>
  <path d="M81.2715 118.08L86.6905 111.62L81.2715 91.0957V118.08Z" fill="#BF7F00"/>
  <path d="M263.413 118.08L257.994 111.62L263.413 91.0957V118.08Z" fill="#BF7F00"/>
  <path d="M104.936 86.8376L101.574 91.096L100.78 76.1445L104.936 86.8376Z" fill="#BF7F00"/>
  <path d="M239.756 86.8376L243.118 91.096L243.903 76.1445L239.756 86.8376Z" fill="#BF7F00"/>
  <path d="M170.93 94.2952C182.873 94.2952 192.555 90.9329 192.555 86.7853C192.555 82.6377 182.873 79.2754 170.93 79.2754C158.987 79.2754 149.305 82.6377 149.305 86.7853C149.305 90.9329 158.987 94.2952 170.93 94.2952Z" fill="#BF7F00"/>
  <path d="M192.546 86.7871C192.546 90.9346 182.868 94.297 170.921 94.297C158.973 94.297 149.296 90.9346 149.296 86.7871" stroke="#FFC55F" stroke-width="4" stroke-linecap="round" stroke-linejoin="round"/>
  <path d="M185.651 187.256C176.998 190.823 167.277 190.823 158.624 187.256" stroke="black" stroke-width="4" stroke-linecap="round" stroke-linejoin="round"/>
  <path d="M163.812 197.31C169.145 195.108 175.128 195.108 180.453 197.31" stroke="#BF7F00" stroke-width="4" stroke-linecap="round" stroke-linejoin="round"/>
  <path d="M95.0117 174.191C95.0117 174.191 104.595 186.241 123.259 185.661" stroke="#FFC55F" stroke-width="4" stroke-linecap="round" stroke-linejoin="round"/>
  <path d="M249.238 174.191C249.238 174.191 239.654 186.241 220.99 185.661" stroke="#FFC55F" stroke-width="4" stroke-linecap="round" stroke-linejoin="round"/>
  <path d="M179.268 152.131C179.268 152.131 180.94 164.351 187.58 171.836" stroke="#BF7F00" stroke-width="4" stroke-linecap="round" stroke-linejoin="round"/>
  <path d="M165.46 152.131C165.46 152.131 163.787 164.351 157.147 171.836" stroke="#BF7F00" stroke-width="4" stroke-linecap="round" stroke-linejoin="round"/>
  <path d="M99.8354 230.31L123.381 223.756L120.206 238.844L98.8711 230.31" fill="#BF7F00"/>
  <path d="M120.206 238.843L99.4346 230.301L105.57 221.775" stroke="black" stroke-width="4" stroke-linecap="round" stroke-linejoin="round"/>
  <path d="M136.394 269.345L147.897 254.086L150.645 267.425L136.394 269.345Z" fill="#BF7F00"/>
  <path d="M150.645 267.425L136.394 269.345L134.567 257.688" stroke="black" stroke-width="4" stroke-linecap="round" stroke-linejoin="round"/>
  <path d="M148.315 239.894L158.752 228.143L160.135 239.262L148.315 239.894Z" fill="#BF7F00"/>
  <path d="M160.135 239.263L148.315 239.894L147.581 230.217" stroke="black" stroke-width="4" stroke-linecap="round" stroke-linejoin="round"/>
  <path d="M195.005 239.894L184.559 228.143L183.177 239.262L195.005 239.894Z" fill="#BF7F00"/>
  <path d="M183.177 239.263L195.005 239.894L195.73 230.217" stroke="black" stroke-width="4" stroke-linecap="round" stroke-linejoin="round"/>
  <path d="M244.852 230.31L221.307 223.756L224.49 238.844L245.825 230.31" fill="#BF7F00"/>
  <path d="M224.489 238.843L245.261 230.301L239.125 221.775" stroke="black" stroke-width="4" stroke-linecap="round" stroke-linejoin="round"/>
  <path d="M208.3 269.345L196.797 254.086L194.04 267.425L208.3 269.345Z" fill="#BF7F00"/>
  <path d="M194.04 267.425L208.3 269.345L210.127 257.688" stroke="black" stroke-width="4" stroke-linecap="round" stroke-linejoin="round"/>
  <path d="M220.505 180.771C184.85 180.771 183.954 148.914 183.954 148.598C183.954 148.077 184.176 147.591 184.569 147.258C185.132 146.789 198.65 135.797 223.313 135.797C232.768 135.797 242.668 137.444 252.729 140.704C253.386 140.917 253.856 141.515 253.907 142.206C253.958 142.931 255.085 160.153 244.596 171.443C238.836 177.639 230.729 180.779 220.505 180.779V180.771Z" fill="white"/>
  <path d="M223.303 137.503C231.667 137.503 241.327 138.809 252.199 142.325C252.199 142.325 254.888 179.064 220.504 179.064C186.121 179.064 185.66 148.572 185.66 148.572C185.66 148.572 198.99 137.503 223.312 137.503M223.312 134.09C198.043 134.09 184.064 145.457 183.475 145.944C182.682 146.601 182.229 147.591 182.247 148.623C182.247 148.973 182.434 157.234 187.239 165.529C191.719 173.261 201.124 182.477 220.513 182.477C231.231 182.477 239.757 179.149 245.859 172.595C256.85 160.776 255.673 142.829 255.622 142.078C255.519 140.695 254.589 139.509 253.266 139.082C243.034 135.771 232.955 134.098 223.329 134.098L223.312 134.09Z" fill="black"/>
  <path d="M123.781 180.772C113.557 180.772 105.45 177.631 99.6895 171.435C89.2012 160.154 90.3277 142.932 90.3789 142.198C90.4301 141.507 90.8995 140.909 91.5566 140.696C101.618 137.445 111.518 135.789 120.973 135.789C145.628 135.789 159.154 146.781 159.717 147.25C160.118 147.583 160.34 148.069 160.332 148.59C160.332 148.914 159.427 180.763 123.781 180.763V180.772Z" fill="white"/>
  <path d="M120.973 137.504C145.294 137.504 158.624 148.573 158.624 148.573C158.624 148.573 158.164 179.065 123.78 179.065C89.397 179.065 92.0852 142.326 92.0852 142.326C102.957 138.81 112.618 137.504 120.981 137.504M120.981 134.091C111.346 134.091 101.276 135.772 91.0355 139.074C89.7127 139.501 88.7825 140.687 88.6801 142.07C88.6289 142.829 87.4512 160.768 98.443 172.587C104.536 179.141 113.062 182.47 123.789 182.47C143.178 182.47 152.582 173.253 157.063 165.521C161.867 157.226 162.047 148.965 162.055 148.615C162.072 147.583 161.62 146.601 160.826 145.936C160.246 145.449 146.259 134.082 120.99 134.082L120.981 134.091Z" fill="black"/>
  <path d="M164.435 142.915C164.085 142.915 163.744 142.812 163.445 142.599C163.258 142.471 144.534 129.397 117.132 129.397C107.736 129.397 98.3056 130.933 89.0975 133.954C88.9182 134.014 88.739 134.039 88.5684 134.039C88.0734 134.039 87.587 133.818 87.2541 133.416C86.8104 132.879 86.7336 132.119 87.0749 131.505L95.3358 116.605C95.5065 116.297 95.7625 116.058 96.0697 115.905L110.04 109.009C110.279 108.89 110.535 108.83 110.799 108.83C110.919 108.83 111.03 108.839 111.149 108.864L156.473 118.294C157.036 118.414 157.497 118.798 157.71 119.327L159.528 123.858L161.397 121.196C161.721 120.735 162.251 120.47 162.797 120.47C162.942 120.47 163.095 120.487 163.24 120.53C163.932 120.718 164.435 121.315 164.495 122.032L166.142 141.063C166.202 141.728 165.869 142.36 165.289 142.693C165.024 142.846 164.734 142.915 164.444 142.915H164.435Z" fill="#BF7F00"/>
  <path d="M110.8 110.537L156.123 119.967L159.11 127.425L162.797 122.185L164.444 141.216C164.444 141.216 145.464 127.698 117.149 127.698C108.419 127.698 98.8093 128.979 88.5856 132.341L96.8465 117.441L110.817 110.537M110.817 107.123C110.296 107.123 109.775 107.243 109.306 107.473L95.336 114.377C94.713 114.684 94.201 115.179 93.8596 115.785L85.5987 130.685C84.916 131.914 85.0611 133.433 85.9572 134.517C86.6143 135.319 87.5872 135.754 88.5856 135.754C88.9441 135.754 89.3025 135.695 89.6524 135.584C98.6813 132.614 107.932 131.112 117.149 131.112C143.945 131.112 162.293 143.87 162.473 143.998C163.061 144.416 163.753 144.63 164.444 144.63C165.024 144.63 165.613 144.476 166.142 144.177C167.294 143.52 167.96 142.249 167.849 140.926L166.202 121.895C166.083 120.47 165.076 119.267 163.684 118.891C163.394 118.815 163.096 118.772 162.797 118.772C161.705 118.772 160.655 119.301 160.006 120.223L159.947 120.308L159.307 118.704C158.88 117.645 157.95 116.86 156.832 116.63L111.508 107.2C111.277 107.149 111.047 107.132 110.817 107.132V107.123Z" fill="black"/>
  <path d="M164.436 141.217L162.789 122.186L161.381 134.885C129.037 117.441 93.9884 127.426 93.9884 127.426L96.8302 117.441L88.5693 132.342C131.956 118.081 164.436 141.217 164.436 141.217Z" fill="#966000"/>
  <path d="M178.876 142.923C178.586 142.923 178.296 142.846 178.031 142.701C177.451 142.368 177.118 141.736 177.178 141.071L178.825 122.04C178.885 121.323 179.388 120.726 180.079 120.538C180.224 120.495 180.378 120.478 180.523 120.478C181.069 120.478 181.598 120.743 181.923 121.204L183.792 123.866L185.609 119.335C185.823 118.806 186.284 118.413 186.847 118.302L232.171 108.872C232.282 108.846 232.401 108.838 232.521 108.838C232.785 108.838 233.041 108.898 233.28 109.017L247.25 115.913C247.566 116.066 247.822 116.314 247.984 116.612L256.245 131.513C256.586 132.127 256.518 132.887 256.066 133.424C255.733 133.825 255.246 134.047 254.751 134.047C254.572 134.047 254.393 134.022 254.222 133.962C245.023 130.941 235.593 129.405 226.188 129.405C198.735 129.405 180.062 142.47 179.883 142.607C179.584 142.82 179.243 142.923 178.893 142.923H178.876Z" fill="#BF7F00"/>
  <path d="M232.52 110.537L246.49 117.441L254.751 132.341C244.527 128.979 234.918 127.698 226.187 127.698C197.863 127.698 178.892 141.216 178.892 141.216L180.539 122.185L184.226 127.425L187.213 119.967L232.537 110.537M232.537 107.123C232.306 107.123 232.067 107.149 231.845 107.191L186.522 116.621C185.404 116.852 184.473 117.637 184.047 118.695L183.407 120.299L183.347 120.214C182.698 119.292 181.649 118.763 180.556 118.763C180.258 118.763 179.959 118.798 179.669 118.883C178.286 119.258 177.279 120.453 177.151 121.887L175.504 140.918C175.393 142.24 176.059 143.512 177.211 144.177C177.74 144.476 178.32 144.63 178.901 144.63C179.6 144.63 180.292 144.416 180.881 143.998C181.06 143.87 199.399 131.112 226.196 131.112C235.413 131.112 244.663 132.614 253.692 135.584C254.042 135.695 254.401 135.754 254.759 135.754C255.758 135.754 256.73 135.311 257.388 134.517C258.284 133.433 258.42 131.914 257.746 130.685L249.485 115.785C249.152 115.179 248.632 114.684 248.009 114.377L234.039 107.473C233.569 107.243 233.049 107.123 232.528 107.123H232.537Z" fill="black"/>
  <path d="M178.875 141.217L180.522 122.186L181.93 134.885C214.274 117.441 249.323 127.426 249.323 127.426L246.481 117.441L254.742 132.342C211.355 118.081 178.875 141.217 178.875 141.217Z" fill="#966000"/>
  <path d="M162.438 85.4281C162.438 85.4281 147.171 56.4553 160.834 25.1357C160.834 25.1357 182.425 14.5365 189.534 36.4432C189.534 36.4432 170.725 55.5251 179.916 85.4366C179.916 85.4366 170.87 90.301 162.438 85.4366V85.4281Z" fill="#725126" stroke="black" stroke-width="4" stroke-linecap="round" stroke-linejoin="round"/>
  <path d="M160.833 25.1369C160.833 25.1369 166.286 45.2344 189.533 36.4444C189.533 36.4444 184.592 15.0071 160.833 25.1369Z" fill="#A87B45" stroke="black" stroke-width="4" stroke-linecap="round" stroke-linejoin="round"/>
  <path d="M173.831 81.8362C173.831 81.8362 167.268 62.6433 178.874 43.459" stroke="#351B00" stroke-width="4" stroke-linecap="round" stroke-linejoin="round"/>
  <path d="M64.8523 237.829C64.8523 237.829 30.2813 244.947 11.8308 211.536C-2.80491 185.021 51.198 180.439 54.2446 196.721" fill="#E19E00"/>
  <path d="M64.8523 237.829C64.8523 237.829 30.2813 244.947 11.8308 211.536C-2.80491 185.021 51.198 180.439 54.2446 196.721" stroke="black" stroke-width="4" stroke-linecap="round" stroke-linejoin="round"/>
  <path d="M16.6275 199.767C16.6275 199.767 -6.5422 176.469 5.43948 165.776C15.3901 156.9 28.8567 184.943 28.8567 184.943C28.8567 184.943 24.3763 156.192 36.4604 156.184C52.0093 156.175 42.9206 185.745 42.9206 185.745C42.9206 185.745 50.9852 171.366 58.3927 177.467C65.8002 183.569 51.9666 202.736 51.9666 202.736" fill="#E19E00"/>
  <path d="M16.6275 199.767C16.6275 199.767 -6.5422 176.469 5.43948 165.776C15.3901 156.9 28.8567 184.943 28.8567 184.943C28.8567 184.943 24.3763 156.192 36.4604 156.184C52.0093 156.175 42.9206 185.745 42.9206 185.745C42.9206 185.745 50.9852 171.366 58.3927 177.467C65.8002 183.569 51.9666 202.736 51.9666 202.736" stroke="black" stroke-width="4" stroke-linecap="round" stroke-linejoin="round"/>
  <path d="M13.6659 194.664C13.6659 194.664 37.4842 203.173 29.7353 212.159C21.9865 221.145 3.52755 216.136 5.6525 203.394C7.70919 191.037 13.6744 194.673 13.6744 194.673L13.6659 194.664Z" fill="#E19E00" stroke="black" stroke-width="4" stroke-linecap="round" stroke-linejoin="round"/>
  <path d="M39.8652 219.814C39.8652 219.814 48.8686 218.508 50.0292 210.23" stroke="#BF7F00" stroke-width="4" stroke-linecap="round" stroke-linejoin="round"/>
  <path d="M124.045 169.361C132.151 169.361 138.723 162.789 138.723 154.682C138.723 146.576 132.151 140.004 124.045 140.004C115.938 140.004 109.366 146.576 109.366 154.682C109.366 162.789 115.938 169.361 124.045 169.361Z" fill="black"/>
  <path d="M116.919 154.682C120.525 154.682 123.448 151.759 123.448 148.153C123.448 144.548 120.525 141.625 116.919 141.625C113.314 141.625 110.391 144.548 110.391 148.153C110.391 151.759 113.314 154.682 116.919 154.682Z" fill="white"/>
  <path d="M127.953 155.732C129.942 155.732 131.554 154.12 131.554 152.131C131.554 150.142 129.942 148.529 127.953 148.529C125.964 148.529 124.352 150.142 124.352 152.131C124.352 154.12 125.964 155.732 127.953 155.732Z" fill="white"/>
  <path d="M219.105 169.361C227.212 169.361 233.784 162.789 233.784 154.682C233.784 146.576 227.212 140.004 219.105 140.004C210.999 140.004 204.427 146.576 204.427 154.682C204.427 162.789 210.999 169.361 219.105 169.361Z" fill="black"/>
  <path d="M211.988 154.682C215.594 154.682 218.517 151.759 218.517 148.153C218.517 144.548 215.594 141.625 211.988 141.625C208.383 141.625 205.46 144.548 205.46 148.153C205.46 151.759 208.383 154.682 211.988 154.682Z" fill="white"/>
  <path d="M223.013 155.732C225.002 155.732 226.615 154.12 226.615 152.131C226.615 150.142 225.002 148.529 223.013 148.529C221.024 148.529 219.412 150.142 219.412 152.131C219.412 154.12 221.024 155.732 223.013 155.732Z" fill="white"/>
  <g clip-path="url(#clip0_489_4886)">
    <path d="M66.5169 365.627L51.8882 342.191L56.2335 331.127L52.6612 325.648L50.9746 311.226L55.0154 298.159L63.4248 288.497L75.6057 282.759L90.4804 282.382L97.0627 283.56L99.534 284.55L103.247 280.496L146.805 278.635L152.486 283.866L159.15 278.163L180.537 277.374L190.527 284.338L196.43 277.822L219.832 275.524L225.184 275.866L234.589 278.034L237.588 274.746L281.158 272.885L298.808 289.192L299.405 303.355L288.407 317.482L292.401 338.562L276.426 358.852L253.27 359.841L244.709 351.593L239.79 360.407L223.158 361.126L217.946 357.131L213.355 361.538L198.55 362.174L198.503 362.127L198.48 362.174L182.235 362.869L172.361 357.296L162.98 363.694L150.272 364.236L146.161 359.405L142.073 364.59L118.918 365.579L111.047 358.003L105.062 364.566L87.9154 366.84L84.5071 366.946L66.5169 365.627Z" fill="#324C0B"/>
    <path d="M280.069 275.878L295.927 290.536L296.431 302.39L285.281 316.717L289.275 337.785L274.962 355.954L254.395 356.838L244.006 346.834L238.045 357.533L224.095 358.134L217.735 353.267L212.137 358.652L199.687 359.182L198.059 357.603L196.899 359.3L182.95 359.901L172.21 353.845L162.02 360.797L151.561 361.244L146.068 354.776L140.61 361.704L120.031 362.587L110.907 353.798L103.61 361.786L87.6697 363.907L84.566 364.001L68.2038 362.8L55.1445 341.885L59.5132 330.786L55.4842 324.612L53.9499 311.498L57.6158 299.621L65.2172 290.901L76.2853 285.682L90.2465 285.328L96.2432 286.4L100.319 288.026L104.571 283.372L145.716 281.617L152.404 287.791L160.275 281.063L179.67 280.344L190.961 288.215L197.824 280.639L219.879 278.471L224.763 278.789L235.597 281.287L238.923 277.646L280.069 275.89M282.247 269.905L279.823 270.011L238.677 271.766L236.253 271.872L234.613 273.675L233.582 274.794L226.063 273.062L225.606 272.956L225.138 272.921L220.254 272.603L219.785 272.567L219.317 272.615L197.262 274.783L195.025 275.006L193.514 276.68L190.094 280.45L183.008 275.513L181.404 274.394L179.459 274.464L160.064 275.183L158.038 275.254L156.492 276.574L152.568 279.932L149.698 277.281L147.906 275.631L145.482 275.737L104.336 277.493L101.912 277.599L100.272 279.401L98.7496 281.063L98.4217 280.933L97.8712 280.709L97.2856 280.603L91.2889 279.531L90.7032 279.425H90.1059L76.1448 279.79L74.915 279.826L73.8023 280.344L62.7341 285.564L61.6215 286.082L60.8133 287.013L53.212 295.732L52.3921 296.675L52.0291 297.865L48.3631 309.754L48 310.944L48.1405 312.181L49.6749 325.295L49.8388 326.674L50.6001 327.84L52.9543 331.458L49.71 339.717L48.6208 342.486L50.2019 345.008L63.2612 365.922L64.8424 368.443L67.7939 368.656L84.156 369.857L84.4606 369.881H84.7651L87.8689 369.775H88.1734L88.4662 369.728L104.407 367.607L106.515 367.324L107.956 365.745L111.212 362.187L116.025 366.817L117.829 368.55L120.324 368.443L140.902 367.56L143.585 367.442L145.248 365.333L146.29 364.013L147.157 365.038L149.007 367.218L151.853 367.1L162.313 366.653L163.976 366.582L165.358 365.639L172.549 360.738L180.127 365.015L181.579 365.828L183.243 365.757L197.192 365.156L200.108 365.026L212.43 364.496L214.632 364.402L216.225 362.87L218.216 360.961L220.593 362.788L222.28 364.072L224.388 363.978L238.337 363.377L241.594 363.236L243.186 360.372L245.459 356.307L250.39 361.056L252.193 362.788L254.688 362.682L275.255 361.798L277.937 361.68L279.6 359.571L293.913 341.402L295.576 339.293L295.072 336.642L291.582 318.202L301.092 305.983L302.427 304.275L302.334 302.107L301.83 290.253L301.725 287.814L299.933 286.165L284.074 271.507L282.282 269.857L282.247 269.905Z" fill="#496D20"/>
    <path d="M96.2664 316.645L82.7035 317.223L102.369 330.443L101.619 346.609L85.6784 348.73L69.3163 347.528L74.5868 334.131L83.1486 338.302L90.785 337.972L84.9406 331.197L70.6163 322.843L69.082 309.729L76.6833 301.01L90.6445 300.656L101.303 304.91L96.2781 316.645H96.2664Z" fill="white"/>
    <path d="M139.965 346.397L119.387 347.281L119.34 310.66L105.707 310.331L105.215 298.689L146.36 296.934L146.864 308.787L133.36 311.544L139.965 346.397Z" fill="white"/>
    <path d="M196.243 343.993L182.293 344.594L174.727 330.855L167.758 331.15L161.375 345.478L150.916 345.925L160.836 296.379L180.232 295.66L196.243 343.993ZM177.854 322.148L168.731 303.001L163.905 322.749L177.854 322.148Z" fill="white"/>
    <path d="M237.388 342.238L223.439 342.839L219.152 324.151L213.155 324.305L211.481 343.357L199.03 343.888L199.311 295.908L221.366 293.74L234.238 296.709L233.722 314.301L226.039 321.654L237.388 342.25V342.238ZM208.166 316.186L219.937 314.56L226.906 304.215L214.701 300.48L207.487 301.776L208.166 316.186Z" fill="white"/>
    <path d="M274.318 340.659L253.751 341.543L253.704 304.922L240.071 304.592L239.579 292.951L280.725 291.195L281.228 303.049L267.724 305.806L274.33 340.659H274.318Z" fill="white"/>
  </g>
  <defs>
    <clipPath id="clip0_489_4886">
      <rect width="254.369" height="100" fill="white" transform="translate(48 269.893)"/>
    </clipPath>
  </defs>
</svg>
