<svg width="126" height="373" viewBox="0 0 126 373" fill="none" xmlns="http://www.w3.org/2000/svg">
  <path d="M43.3332 1.09869C43.3332 1.09869 38.7698 1.41742 28.8994 12.8837C28.8994 12.8837 28.4637 40.8229 27.3879 51.2252C26.312 61.6275 27.7762 66.4365 27.7762 66.4365L41.0795 67.5291C41.0795 67.5291 43.8934 67.6845 44.1542 64.5092C44.415 61.3339 42.9651 58.1608 42.8877 56.3711C42.8103 54.5813 44.8003 25.5283 43.3359 1.10182L43.3332 1.09869Z" fill="#6FA72E"/>
  <path d="M59.0691 303.912C59.0691 303.912 51.3055 301.719 43.6453 301.602C42.9555 301.592 42.3985 302.164 42.4263 302.854C42.7115 309.813 44.0338 343.775 43.0672 353.096C41.9884 363.498 43.4555 368.307 43.4555 368.307L56.7588 369.4C56.7588 369.4 59.5727 369.555 59.8335 366.38C60.0943 363.205 58.6443 360.032 58.567 358.242C58.4896 356.452 60.5364 328.339 59.0688 303.915L59.0691 303.912Z" fill="#6FA72E"/>
  <path d="M43.695 67.3707C43.695 67.3707 46.3395 61.0021 60.072 59.5657C60.072 59.5657 54.7559 64.9688 43.695 67.3707Z" fill="#6FA72E"/>
  <path d="M44.1774 68.4507C44.1774 68.4507 53.936 64.0943 62.3958 70.6902C62.3958 70.6902 53.6617 71.3366 44.1774 68.4507Z" fill="#6FA72E"/>
  <path d="M43.5432 69.2176C43.5432 69.2176 52.592 69.5645 50.8085 81.0247C50.8085 81.0247 45.0496 75.6415 43.5432 69.2176Z" fill="#6FA72E"/>
  <path d="M42.8579 68.9399C42.8579 68.9399 38.2239 72.3534 36.4907 83.5205C36.4907 83.5205 45.5325 77.3189 42.8579 68.9399Z" fill="#6FA72E"/>
  <path d="M38.6346 72.2121C38.6346 72.2121 39.2864 70.628 38.0471 70.602C36.8078 70.5759 27.351 70.6909 27.351 70.6909C27.351 70.6909 28.3639 135.845 30.4182 145.071C31.0693 148 31.9746 147.48 32.5604 147.479C33.1462 147.478 44.7684 147.29 47.1499 147.885C49.5313 148.479 49.698 147.054 49.1589 145.173C48.6197 143.293 45.5229 132.994 45.8035 122.305C46.0841 111.616 44.9324 74.9383 44.9324 74.9383C44.9324 74.9383 40.1761 83.9921 35.3946 85.6888C33.8608 86.233 38.6344 72.215 38.6344 72.215L38.6346 72.2121Z" fill="#6FA72E"/>
  <path d="M49.6422 151.956C49.6422 151.956 49.7792 149.686 48.542 149.634C47.3049 149.582 31.159 149.322 31.159 149.322C31.159 149.322 30.0141 157.833 33.7224 176.689C37.4306 195.544 38.0214 223.37 38.0214 223.37C38.0214 223.37 52.4678 227.432 54.6076 224.336C56.7473 221.239 49.6393 151.956 49.6393 151.956L49.6422 151.956Z" fill="#6FA72E"/>
  <path d="M30.7889 221.488C30.7889 221.488 22.6206 216.452 14.3698 219.693C14.3698 219.693 23.1509 222.696 30.7889 221.488Z" fill="#6FA72E"/>
  <path d="M29.7158 225.468C29.7158 225.468 16.5128 226.169 13.5819 237.09C13.5819 237.09 25.1698 231.89 29.7158 225.468Z" fill="#6FA72E"/>
  <path d="M32.3964 226.678C32.3964 226.678 23.1295 233.208 30.3963 246.205C30.3963 246.205 33.5462 236.841 32.3964 226.678Z" fill="#6FA72E"/>
  <path d="M35.8437 226.962C35.8437 226.962 35.2716 236.339 48.4662 242.977C48.4662 242.977 42.9469 231.66 35.8437 226.962Z" fill="#6FA72E"/>
  <path d="M40.8041 228.162C40.8041 228.162 53.4865 226.525 55.5836 229.375C57.6808 232.226 58.8672 301.121 58.8672 301.121C58.8672 301.121 50.1929 299.124 43.6942 299.056C42.5356 299.043 41.5871 298.137 41.5452 296.98L39.4015 239.207C39.4015 239.207 48.0875 246.171 52.8846 247.655C52.8846 247.655 48.8813 236.116 40.8041 228.162Z" fill="#6FA72E"/>
  <path d="M97.886 98.4332C97.886 98.4332 94.5726 135.688 95.5356 143.973C95.8834 146.977 98.3746 150.457 97.2017 150.262C96.0288 150.066 83.9296 147.584 79.0447 147.879L83.1894 105.86L97.8858 98.4361L97.886 98.4332Z" fill="#6FA72E"/>
  <path d="M79.1297 151.389C79.1297 151.389 94.4467 151.522 95.2737 154.119C96.1007 156.716 90.9097 190.044 90.7151 191.491C90.5205 192.937 84.7312 200.945 84.678 204.289C84.6248 207.633 85.4398 209.489 72.9192 206.141C68.5508 204.972 78.7592 151.358 78.7592 151.358" fill="#6FA72E"/>
  <path d="M86.0828 204.107C86.0828 204.107 89.5576 195.612 95.6996 195.126C95.6996 195.126 96.4281 202.576 86.0828 204.107Z" fill="#6FA72E"/>
  <path d="M88.7038 206.006C88.7038 206.006 99.6891 200.906 109.557 204.546C109.557 204.546 97.0292 208.526 88.7038 206.006Z" fill="#6FA72E"/>
  <path d="M88.8463 208.498C88.8463 208.498 100.93 206.914 106.597 218.241C106.597 218.241 93.2289 213.716 88.8463 208.498Z" fill="#6FA72E"/>
  <path d="M86.8431 209.327C86.8431 209.327 95.0282 214.761 92.6871 225.135C92.6871 225.135 86.8601 217.564 86.8431 209.327Z" fill="#6FA72E"/>
  <path d="M85.0074 210.563L71.3442 210.234L63.2756 261.354C63.2756 261.354 66.2404 262.687 67.114 264.149C67.114 264.149 78.6941 266.887 80.5481 264.856C82.4021 262.826 87.8776 220.322 87.8776 220.322C87.8776 220.322 85.4327 214.681 85.0074 210.563Z" fill="#6FA72E"/>
  <path d="M70.4656 266.808C70.4656 266.808 79.7362 267.471 80.4924 269.121C81.2486 270.771 74.6633 318.341 74.6633 318.341C74.6633 318.341 72.5519 319.284 71.9002 320.868L57.3406 319.672L63.0991 267.692C63.0991 267.692 64.6384 266.088 70.4627 266.808L70.4656 266.808Z" fill="#6FA72E"/>
  <path d="M74.5096 325.075L58.3898 323.255L52.3478 369.037L69.8887 370.478L74.5096 325.075Z" fill="#6FA72E"/>
</svg>
