<svg width="583" height="3051" viewBox="0 0 583 3051" fill="none" xmlns="http://www.w3.org/2000/svg">
  <path d="M472.55 -241.9C472.55 -241.9 509.453 -235.201 579.584 -132.884C579.584 -132.884 558.018 95.1964 557.435 180.936C556.852 266.676 540.596 304.55 540.596 304.55L431.2 301.496C431.2 301.496 408.128 300.233 408.857 274.121C409.586 248.01 424.255 223.455 426.495 208.939C428.734 194.423 438.634 -44.1315 472.526 -241.877L472.55 -241.9Z" fill="#324C0B"/>
  <path d="M72.1235 2211.72C72.1235 2211.72 137.364 2200.82 199.896 2206.76C205.526 2207.29 209.551 2212.46 208.704 2218.05C200.124 2274.51 158.819 2550.09 158.317 2626.92C157.758 2712.66 100.5 3040 100.5 3040L32.0818 2747.48C32.0818 2747.48 9.01059 2746.22 9.7396 2720.1C10.4686 2693.99 25.1372 2669.44 27.3767 2654.92C29.6162 2640.41 38.2078 2409.46 72.1228 2211.74L72.1235 2211.72Z" fill="#324C0B"/>
  <path d="M410.053 297.857C410.053 297.857 394.226 243.579 283.605 219.528C283.605 219.528 322.072 268.339 410.053 297.857Z" fill="#324C0B"/>
  <path d="M405.15 306.224C405.15 306.224 329.539 261.949 254.667 308.097C254.667 308.097 325.264 321.216 405.15 306.224Z" fill="#324C0B"/>
  <path d="M409.629 313.043C409.629 313.043 335.574 307.735 339.806 402.733C339.806 402.733 391.578 364.04 409.629 313.043Z" fill="#324C0B"/>
  <path d="M415.463 311.395C415.463 311.395 450.159 343.379 454.245 435.943C454.245 435.943 386.134 377.275 415.463 311.395Z" fill="#324C0B"/>
  <path d="M446.938 341.86C446.938 341.86 443.051 328.364 453.174 329.266C463.296 330.168 540.261 339.606 540.261 339.606C540.261 339.606 473.437 869.666 448.402 943.003C440.462 966.293 433.552 961.24 428.779 960.702C424.006 960.164 329.461 948.186 309.519 950.893C289.576 953.6 289.5 941.83 295.584 926.993C301.667 912.155 336.163 831.007 343.485 743.645C350.808 656.283 393.164 358.415 393.164 358.415C393.164 358.415 423.787 436.474 461.228 454.599C473.238 460.413 446.938 341.884 446.938 341.884L446.938 341.86Z" fill="#324C0B"/>
  <path d="M285.525 981.834C285.525 981.834 286.45 963.208 296.579 963.896C306.707 964.583 438.521 976.982 438.521 976.982C438.521 976.982 440.2 1047.37 393.03 1197.7C345.86 1348.03 316.032 1574.26 316.032 1574.26C316.032 1574.26 194.649 1594.38 179.995 1567.22C165.341 1540.06 285.549 981.835 285.549 981.835L285.525 981.834Z" fill="#324C0B"/>
  <path d="M376.688 1565.42C376.688 1565.42 447.782 1531.72 512.107 1565.56C512.107 1565.56 437.847 1582.14 376.688 1565.42Z" fill="#324C0B"/>
  <path d="M381.83 1598.82C381.83 1598.82 488.796 1616.41 502.865 1708.04C502.865 1708.04 413.104 1655.25 381.83 1598.82Z" fill="#324C0B"/>
  <path d="M358.92 1606.28C358.92 1606.28 428.57 1667.83 357.667 1767.21C357.667 1767.21 340.414 1688.07 358.92 1606.28Z" fill="#324C0B"/>
  <path d="M330.572 1605.49C330.572 1605.49 326.805 1682.42 213.309 1724.66C213.309 1724.66 268.461 1637.39 330.572 1605.49Z" fill="#324C0B"/>
  <path d="M289.068 1610.81C289.068 1610.81 187.185 1586.07 167.532 1607.42C147.88 1628.76 76.2782 2189.15 76.2782 2189.15C76.2782 2189.15 148.764 2180.67 201.785 2185.96C211.24 2186.9 219.784 2180.37 221.166 2170.97L290.57 1702.09C290.57 1702.09 213.523 1751.03 173.096 1758.81C173.096 1758.81 216.093 1668.37 289.068 1610.81Z" fill="#324C0B"/>
</svg>
