<svg width="1920" height="5669" viewBox="0 0 1920 5669" fill="none" xmlns="http://www.w3.org/2000/svg">
  <path d="M1826.09 71.5328C1826.09 71.5328 1738.28 59.2768 1512.26 221.551C1512.26 221.551 1410.45 709.275 1355.17 887.291C1299.9 1065.31 1311.63 1155.27 1311.63 1155.27L1560.86 1226.42C1560.86 1226.42 1613.83 1240.14 1629.42 1185.54C1645.01 1130.93 1628.07 1069.68 1632.59 1038.03C1637.11 1006.37 1772.2 505.215 1826.13 71.598L1826.09 71.5328Z" fill="#324C0B"/>
  <path d="M1111.72 5437.67C1111.72 5437.67 971.487 5368.89 826.26 5336.9C813.181 5334.03 800.678 5341.87 798.898 5354.07C781.022 5477.09 692.467 6077.18 642.885 6236.68C587.556 6414.68 599.345 6504.67 599.345 6504.67L848.574 6575.81C848.574 6575.81 901.543 6589.53 917.131 6534.93C932.719 6480.33 915.779 6419.07 920.299 6387.42C924.82 6355.76 1057.84 5871.3 1111.71 5437.72L1111.72 5437.67Z" fill="#324C0B"/>
  <path d="M1611.34 1233.94C1611.34 1233.94 1682.93 1132.72 1948.78 1161.24C1948.78 1161.24 1829.64 1235.1 1611.34 1233.94Z" fill="#324C0B"/>
  <path d="M1616.89 1254.74C1616.89 1254.74 1816.98 1216.58 1955.72 1365.19C1955.72 1365.19 1787.52 1342.37 1616.89 1254.74Z" fill="#324C0B"/>
  <path d="M1601.98 1265.61C1601.98 1265.61 1772.84 1307.07 1700.57 1500.85C1700.57 1500.85 1609.11 1384.03 1601.98 1265.61Z" fill="#324C0B"/>
  <path d="M1589.89 1258.07C1589.89 1258.07 1490.37 1299.75 1420.04 1488.59C1420.04 1488.59 1612.68 1415.31 1589.89 1258.07Z" fill="#324C0B"/>
  <path d="M1498.81 1298.93C1498.81 1298.93 1516.51 1273.73 1493.04 1268.43C1469.57 1263.13 1289.41 1228.17 1289.41 1228.17C1289.41 1228.17 1090.55 2373.47 1098.72 2543.11C1101.29 2596.98 1120.24 2591.41 1131.38 2593.67C1142.52 2595.94 1364.08 2638.08 1407.35 2657.81C1450.63 2677.54 1458.58 2653.22 1454.62 2618.17C1450.67 2583.13 1426.28 2390.61 1467.39 2204.46C1508.51 2018.31 1609.4 1371.31 1609.4 1371.31C1609.4 1371.31 1488.68 1511.31 1392.11 1522.34C1361.13 1525.88 1498.8 1298.98 1498.8 1298.98L1498.81 1298.93Z" fill="#324C0B"/>
  <path d="M1441.28 2738.93C1441.28 2738.93 1451.48 2699.7 1428.14 2693.95C1404.8 2688.2 1098.74 2620.53 1098.74 2620.53C1098.74 2620.53 1048.49 2765.15 1055.85 3109.95C1063.22 3454.75 981.303 3944.49 981.303 3944.49C981.303 3944.49 1242.32 4072.14 1293.36 4026.25C1344.4 3980.37 1441.22 2738.92 1441.22 2738.92L1441.28 2738.93Z" fill="#324C0B"/>
  <path d="M849.778 3883.15C849.778 3883.15 711.364 3763 543.67 3787.53C543.67 3787.53 700.54 3874.46 849.778 3883.15Z" fill="#324C0B"/>
  <path d="M816.112 3948.69C816.112 3948.69 562.782 3909.37 470.51 4089.21C470.51 4089.21 708.197 4043.42 816.112 3948.69Z" fill="#324C0B"/>
  <path d="M862.96 3980.37C862.96 3980.37 664.943 4058.53 759.572 4314.6C759.572 4314.6 850.796 4162.88 862.96 3980.37Z" fill="#324C0B"/>
  <path d="M927.833 3998.89C927.833 3998.89 885.567 4160.91 1114.17 4328.77C1114.17 4328.77 1047.13 4108.95 927.833 3998.89Z" fill="#324C0B"/>
  <path d="M1018.11 4039.3C1018.11 4039.3 1264.67 4060.21 1294.99 4118.34C1325.32 4176.47 1117.23 5387.99 1117.23 5387.99C1117.23 5387.99 959.021 5319.09 835.712 5292.5C813.732 5287.73 798.733 5268.16 801.812 5247.72L954.466 4227.31C954.466 4227.31 1096.27 4383.26 1182.49 4428C1182.49 4428 1145.02 4210.22 1018.11 4039.3Z" fill="#324C0B"/>
</svg>
