<svg width="21337" height="906" viewBox="0 0 21337 906" fill="none" xmlns="http://www.w3.org/2000/svg">
  <path d="M10155.6 117.03L9788 147.59L7393.5 102L4028 46.5L844.5 128.5L-110 0L75.5 443.5L2353 382.5L6467.5 329L9788 349.5L10155.6 234.763L10476.8 261.316L10831.9 210.215L11355.4 314.421L11708 274.342L14419 314.421H16449L19033.5 378L21389 504.5L21505.5 77L19938.5 142L17228.5 89.5L15889.5 142L14484 108L13054.5 164.624H11708L11446.3 147.59L11089.1 164.624L10797.9 102L10476.8 147.59L10155.6 117.03Z" fill="#6FA72E"/>
  <path d="M10155.6 133.03L9788 194.5L5814.5 133.03L844 181L-223 53L-169.5 905.5L3133.5 510.5L7674 361L9629 394L10155.6 250.763L10476.8 277.316L10831.9 226.215L11355.4 330.421L11595.5 292.5L13755 372.5L15924 437L18312.5 415L21441.5 786.5V163.59L18789 205L17178.5 163.59L15870.5 205L13993 163.59L11708 209.181L11446.3 163.59L11089.1 180.624L10797.9 118L10476.8 163.59L10155.6 133.03Z" fill="#496D20"/>
</svg>
