<svg width="21337" height="5308" viewBox="0 0 21337 5308" fill="none" xmlns="http://www.w3.org/2000/svg">
  <path opacity="0.07" d="M9969.96 0L10059.8 424.07L9992.64 1080H9799L9953.62 427.27L9818.54 0H9969.96ZM10127.2 1080L10267.1 1080.13L10239.6 808.96L10324.5 421.04L10250.9 0H10085.8L10146.5 414.91L10083.8 778.54L10127.2 1080H10127.2ZM11485.3 778.54L11528.7 1080.07H11668.5L11641 808.96L11696.9 433.29L11660.2 0H11476.5L11568.3 421.04L11485.3 778.54ZM10480.6 424.07L10358 794.83L10402.1 1080L10566.7 1080.16L10529.6 808.96L10549.4 435.46L10615.8 0H10358L10480.6 424.07ZM10836.7 0H10671.1L10711.4 414.91L10657.2 829.98L10688.3 1080.16L10834.9 1079.99L10793.4 804.81L10893.2 424.06L10836.7 0ZM10960.6 1080H11100.4L11072.9 808.96L11211.9 424.07L11108.7 0H10919.1L11105.7 435.47L10917.2 778.54L10960.6 1080ZM11382.8 435.47L11399.8 0H11191.4L11314 424.07L11191.4 794.83L11235.4 1080H11401.1L11363 808.96L11382.8 435.46V435.47ZM10127.2 3240.34L10267.1 3240.47L10239.6 2969.3L10319 2595.82L10250.9 2160.34L10285.5 1733.07L10239.6 1351.38L10267.1 1080.21L10127.2 1080.34L10083.8 1381.8L10163.5 1724.85L10085.8 2160.34L10190 2595.79L10083.8 2938.88L10127.2 3240.34ZM10960.6 3240.34H11100.4L11072.9 2969.3L11211.9 2584.41L11108.7 2160.34L11211.9 1736.27L11072.9 1351.38L11100.4 1080.35H10960.6L10917.2 1381.81L11105.7 1724.88L10919.1 2160.35L11105.7 2595.82L10917.2 2938.89L10960.6 3240.35V3240.34ZM10378.6 4744.75L10250.9 4320.68L10339 3893.4L10239.6 3511.72L10267.1 3240.55L10127.2 3240.68L10083.8 3542.14L10194.5 3885.2L10085.8 4320.68L10272.4 4756.15L10083.8 5099.22L10127.2 5400.68L10267.1 5400.81L10239.6 5129.64L10378.6 4744.75ZM10615.8 4320.68L10549.4 3885.21L10529.6 3511.71L10566.7 3240.51L10402.1 3240.67L10358.1 3525.84L10480.6 3896.6L10358.1 4320.67L10480.6 4744.74L10358.1 5115.5L10402.1 5400.67L10566.7 5400.83L10529.6 5129.63L10549.4 4756.13L10615.8 4320.66V4320.68ZM11211.9 4744.75L11108.7 4320.68L11211.9 3896.61L11072.9 3511.72L11100.4 3240.68H10960.6L10917.2 3542.14L11105.7 3885.21L10919.2 4320.68L11105.7 4756.15L10917.2 5099.22L10960.6 5400.68H11100.4L11072.9 5129.64L11211.9 4744.75ZM9992.65 1080.34H9799L9953.62 1733.07L9818.54 2160.34L9953.62 2587.61L9799 3240.34H9992.65L10059.8 2584.41L9969.97 2160.34L10059.8 1736.27L9992.65 1080.34ZM11641 1351.37L11668.5 1080.26H11528.7L11485.3 1381.79L11568.3 1739.29L11476.5 2160.33L11568.3 2581.37L11485.3 2938.87L11528.7 3240.4H11668.5L11641 2969.29L11696.9 2593.62L11660.2 2160.32L11696.9 1727.02L11641 1351.35V1351.37ZM10529.6 1351.37L10566.7 1080.17L10402.1 1080.33L10358 1365.5L10480.6 1736.26L10358 2160.33L10480.6 2584.4L10358 2955.16L10402.1 3240.33L10566.7 3240.49L10529.6 2969.29L10549.4 2595.79L10615.8 2160.32L10549.4 1724.85L10529.6 1351.35V1351.37ZM10711.4 1745.42L10671.1 2160.34L10711.4 2575.25L10657.2 2990.32L10688.3 3240.5L10834.9 3240.33L10793.4 2965.15L10893.2 2584.4L10836.6 2160.33L10893.2 1736.26L10793.4 1355.51L10834.9 1080.33L10688.3 1080.16L10657.2 1330.34L10711.4 1745.41V1745.42ZM11235.4 1080.34L11191.4 1365.51L11314 1736.27L11191.4 2160.34L11314 2584.41L11191.4 2955.17L11235.4 3240.34H11401.1L11363 2969.3L11382.8 2595.8L11399.8 2160.33L11382.8 1724.86L11363 1351.36L11401.1 1080.33H11235.4V1080.34ZM9992.65 3240.67H9799L9953.62 3893.4L9818.54 4320.67L9953.62 4747.94L9799 5400.67H9992.65L10059.8 4744.74L9969.97 4320.67L10059.8 3896.6L9992.65 3240.67ZM11641 3511.71L11668.5 3240.6H11528.7L11485.3 3542.13L11568.3 3899.63L11476.5 4320.67L11568.3 4741.71L11485.3 5099.21L11528.7 5400.74H11668.5L11641 5129.63L11696.9 4753.96L11660.2 4320.66L11696.9 3887.36L11641 3511.69V3511.71ZM10711.4 3905.76L10671.1 4320.68L10711.4 4735.6L10657.2 5150.67L10688.3 5400.85L10834.9 5400.68L10793.4 5125.5L10893.2 4744.75L10836.6 4320.68L10893.2 3896.61L10793.4 3515.86L10834.9 3240.68L10688.3 3240.51L10657.2 3490.69L10711.4 3905.76ZM11235.4 3240.68L11191.4 3525.85L11314 3896.61L11191.4 4320.68L11314 4744.75L11191.4 5115.51L11235.4 5400.68H11401.1L11363 5129.64L11382.8 4756.14L11399.8 4320.67L11382.8 3885.2L11363 3511.7L11401.1 3240.66H11235.4V3240.68Z" fill="#496D20"/>
  <path opacity="0.07" d="M11868 0L11957.8 424.07L11890.6 1080H11697L11851.6 427.27L11716.5 0H11868ZM12025.2 1080L12165.1 1080.13L12137.6 808.96L12222.5 421.04L12148.9 0H11983.8L12044.5 414.91L11981.8 778.54L12025.2 1080H12025.2ZM13383.3 778.54L13426.7 1080.07H13566.5L13539 808.96L13594.9 433.29L13558.2 0H13374.5L13466.3 421.04L13383.3 778.54ZM12378.6 424.07L12256 794.83L12300.1 1080L12464.7 1080.16L12427.6 808.96L12447.4 435.46L12513.8 0H12256L12378.6 424.07ZM12734.7 0H12569.1L12609.4 414.91L12555.2 829.98L12586.3 1080.16L12732.9 1079.99L12691.4 804.81L12791.2 424.06L12734.7 0ZM12858.6 1080H12998.4L12970.9 808.96L13109.9 424.07L13006.7 0H12817.1L13003.7 435.47L12815.2 778.54L12858.6 1080ZM13280.8 435.47L13297.8 0H13089.4L13212 424.07L13089.4 794.83L13133.4 1080H13299.1L13261 808.96L13280.8 435.46V435.47ZM12025.2 3240.34L12165.1 3240.47L12137.6 2969.3L12217 2595.82L12148.9 2160.34L12183.5 1733.07L12137.6 1351.38L12165.1 1080.21L12025.2 1080.34L11981.8 1381.8L12061.5 1724.85L11983.8 2160.34L12088 2595.79L11981.8 2938.88L12025.2 3240.34ZM12858.6 3240.34H12998.4L12970.9 2969.3L13109.9 2584.41L13006.7 2160.34L13109.9 1736.27L12970.9 1351.38L12998.4 1080.35H12858.6L12815.2 1381.81L13003.7 1724.88L12817.1 2160.35L13003.7 2595.82L12815.2 2938.89L12858.6 3240.35V3240.34ZM12276.6 4744.75L12148.9 4320.68L12237 3893.4L12137.6 3511.72L12165.1 3240.55L12025.2 3240.68L11981.8 3542.14L12092.5 3885.2L11983.8 4320.68L12170.4 4756.15L11981.8 5099.22L12025.2 5400.68L12165.1 5400.81L12137.6 5129.64L12276.6 4744.75ZM12513.8 4320.68L12447.4 3885.21L12427.6 3511.71L12464.7 3240.51L12300.1 3240.67L12256.1 3525.84L12378.6 3896.6L12256.1 4320.67L12378.6 4744.74L12256.1 5115.5L12300.1 5400.67L12464.7 5400.83L12427.6 5129.63L12447.4 4756.13L12513.8 4320.66V4320.68ZM13109.9 4744.75L13006.7 4320.68L13109.9 3896.61L12970.9 3511.72L12998.4 3240.68H12858.6L12815.2 3542.14L13003.7 3885.21L12817.2 4320.68L13003.7 4756.15L12815.2 5099.22L12858.6 5400.68H12998.4L12970.9 5129.64L13109.9 4744.75ZM11890.6 1080.34H11697L11851.6 1733.07L11716.5 2160.34L11851.6 2587.61L11697 3240.34H11890.6L11957.8 2584.41L11868 2160.34L11957.8 1736.27L11890.6 1080.34ZM13539 1351.37L13566.5 1080.26H13426.7L13383.3 1381.79L13466.3 1739.29L13374.5 2160.33L13466.3 2581.37L13383.3 2938.87L13426.7 3240.4H13566.5L13539 2969.29L13594.9 2593.62L13558.2 2160.32L13594.9 1727.02L13539 1351.35V1351.37ZM12427.6 1351.37L12464.7 1080.17L12300.1 1080.33L12256 1365.5L12378.6 1736.26L12256 2160.33L12378.6 2584.4L12256 2955.16L12300.1 3240.33L12464.7 3240.49L12427.6 2969.29L12447.4 2595.79L12513.8 2160.32L12447.4 1724.85L12427.6 1351.35V1351.37ZM12609.4 1745.42L12569.1 2160.34L12609.4 2575.25L12555.2 2990.32L12586.3 3240.5L12732.9 3240.33L12691.4 2965.15L12791.2 2584.4L12734.6 2160.33L12791.2 1736.26L12691.4 1355.51L12732.9 1080.33L12586.3 1080.16L12555.2 1330.34L12609.4 1745.41V1745.42ZM13133.4 1080.34L13089.4 1365.51L13212 1736.27L13089.4 2160.34L13212 2584.41L13089.4 2955.17L13133.4 3240.34H13299.1L13261 2969.3L13280.8 2595.8L13297.8 2160.33L13280.8 1724.86L13261 1351.36L13299.1 1080.33H13133.4V1080.34ZM11890.6 3240.67H11697L11851.6 3893.4L11716.5 4320.67L11851.6 4747.94L11697 5400.67H11890.6L11957.8 4744.74L11868 4320.67L11957.8 3896.6L11890.6 3240.67ZM13539 3511.71L13566.5 3240.6H13426.7L13383.3 3542.13L13466.3 3899.63L13374.5 4320.67L13466.3 4741.71L13383.3 5099.21L13426.7 5400.74H13566.5L13539 5129.63L13594.9 4753.96L13558.2 4320.66L13594.9 3887.36L13539 3511.69V3511.71ZM12609.4 3905.76L12569.1 4320.68L12609.4 4735.6L12555.2 5150.67L12586.3 5400.85L12732.9 5400.68L12691.4 5125.5L12791.2 4744.75L12734.6 4320.68L12791.2 3896.61L12691.4 3515.86L12732.9 3240.68L12586.3 3240.51L12555.2 3490.69L12609.4 3905.76ZM13133.4 3240.68L13089.4 3525.85L13212 3896.61L13089.4 4320.68L13212 4744.75L13089.4 5115.51L13133.4 5400.68H13299.1L13261 5129.64L13280.8 4756.14L13297.8 4320.67L13280.8 3885.2L13261 3511.7L13299.1 3240.66H13133.4V3240.68Z" fill="#496D20"/>
  <path opacity="0.07" d="M-1418.04 0L-1328.17 424.07L-1395.36 1080H-1589L-1434.38 427.27L-1569.46 0H-1418.04ZM-1260.76 1080L-1120.93 1080.13L-1148.42 808.96L-1063.5 421.04L-1137.12 0H-1302.23L-1241.5 414.91L-1304.17 778.54L-1260.77 1080H-1260.76ZM97.27 778.54L140.68 1080.07H280.5L253.01 808.96L308.94 433.29L272.22 0H88.51L180.26 421.04L97.27 778.54ZM-907.4 424.07L-1029.95 794.83L-985.91 1080L-821.29 1080.16L-858.38 808.96L-838.57 435.46L-772.16 0H-1029.95L-907.4 424.07ZM-551.35 0H-716.89L-676.59 414.91L-730.79 829.98L-699.68 1080.16L-553.08 1079.99L-594.63 804.81L-494.81 424.06L-551.35 0ZM-427.4 1080H-287.58L-315.06 808.96L-176.07 424.07L-279.26 0H-468.86L-282.28 435.47L-470.8 778.54L-427.4 1080ZM-5.20996 435.47L11.8 0H-196.59L-74.04 424.07L-196.59 794.83L-152.55 1080H13.08L-25.02 808.96L-5.20996 435.46V435.47ZM-1260.76 3240.34L-1120.93 3240.47L-1148.42 2969.3L-1069 2595.82L-1137.12 2160.34L-1102.5 1733.07L-1148.42 1351.38L-1120.93 1080.21L-1260.76 1080.34L-1304.16 1381.8L-1224.5 1724.85L-1302.22 2160.34L-1198 2595.79L-1304.16 2938.88L-1260.76 3240.34ZM-427.4 3240.34H-287.58L-315.06 2969.3L-176.07 2584.41L-279.27 2160.34L-176.07 1736.27L-315.06 1351.38L-287.58 1080.35H-427.4L-470.8 1381.81L-282.28 1724.88L-468.86 2160.35L-282.28 2595.82L-470.8 2938.89L-427.4 3240.35V3240.34ZM-1009.43 4744.75L-1137.12 4320.68L-1049 3893.4L-1148.42 3511.72L-1120.93 3240.55L-1260.76 3240.68L-1304.16 3542.14L-1193.5 3885.2L-1302.22 4320.68L-1115.64 4756.15L-1304.16 5099.22L-1260.76 5400.68L-1120.93 5400.81L-1148.42 5129.64L-1009.43 4744.75ZM-772.16 4320.68L-838.56 3885.21L-858.37 3511.71L-821.28 3240.51L-985.9 3240.67L-1029.94 3525.84L-907.39 3896.6L-1029.94 4320.67L-907.39 4744.74L-1029.94 5115.5L-985.9 5400.67L-821.28 5400.83L-858.37 5129.63L-838.56 4756.13L-772.16 4320.66V4320.68ZM-176.06 4744.75L-279.26 4320.68L-176.06 3896.61L-315.05 3511.72L-287.57 3240.68H-427.39L-470.79 3542.14L-282.27 3885.21L-468.85 4320.68L-282.27 4756.15L-470.79 5099.22L-427.39 5400.68H-287.57L-315.05 5129.64L-176.06 4744.75ZM-1395.35 1080.34H-1589L-1434.38 1733.07L-1569.46 2160.34L-1434.38 2587.61L-1589 3240.34H-1395.35L-1328.16 2584.41L-1418.03 2160.34L-1328.16 1736.27L-1395.35 1080.34ZM253.01 1351.37L280.5 1080.26H140.68L97.27 1381.79L180.26 1739.29L88.51 2160.33L180.26 2581.37L97.27 2938.87L140.68 3240.4H280.5L253.01 2969.29L308.94 2593.62L272.22 2160.32L308.94 1727.02L253.01 1351.35V1351.37ZM-858.38 1351.37L-821.29 1080.17L-985.91 1080.33L-1029.95 1365.5L-907.4 1736.26L-1029.95 2160.33L-907.4 2584.4L-1029.95 2955.16L-985.91 3240.33L-821.29 3240.49L-858.38 2969.29L-838.57 2595.79L-772.17 2160.32L-838.57 1724.85L-858.38 1351.35V1351.37ZM-676.59 1745.42L-716.89 2160.34L-676.59 2575.25L-730.79 2990.32L-699.68 3240.5L-553.08 3240.33L-594.63 2965.15L-494.81 2584.4L-551.36 2160.33L-494.81 1736.26L-594.63 1355.51L-553.08 1080.33L-699.68 1080.16L-730.79 1330.34L-676.59 1745.41V1745.42ZM-152.55 1080.34L-196.59 1365.51L-74.04 1736.27L-196.59 2160.34L-74.04 2584.41L-196.59 2955.17L-152.55 3240.34H13.08L-25.02 2969.3L-5.20996 2595.8L11.79 2160.33L-5.20996 1724.86L-25.02 1351.36L13.08 1080.33H-152.55V1080.34ZM-1395.35 3240.67H-1589L-1434.38 3893.4L-1569.46 4320.67L-1434.38 4747.94L-1589 5400.67H-1395.35L-1328.16 4744.74L-1418.03 4320.67L-1328.16 3896.6L-1395.35 3240.67ZM253.01 3511.71L280.5 3240.6H140.68L97.27 3542.13L180.26 3899.63L88.51 4320.67L180.26 4741.71L97.27 5099.21L140.68 5400.74H280.5L253.01 5129.63L308.94 4753.96L272.22 4320.66L308.94 3887.36L253.01 3511.69V3511.71ZM-676.59 3905.76L-716.89 4320.68L-676.59 4735.6L-730.79 5150.67L-699.68 5400.85L-553.08 5400.68L-594.63 5125.5L-494.81 4744.75L-551.36 4320.68L-494.81 3896.61L-594.63 3515.86L-553.08 3240.68L-699.68 3240.51L-730.79 3490.69L-676.59 3905.76ZM-152.55 3240.68L-196.59 3525.85L-74.04 3896.61L-196.59 4320.68L-74.04 4744.75L-196.59 5115.51L-152.55 5400.68H13.08L-25.02 5129.64L-5.20996 4756.14L11.79 4320.67L-5.20996 3885.2L-25.02 3511.7L13.08 3240.66H-152.55V3240.68Z" fill="#496D20"/>
  <path opacity="0.07" d="M15664 0L15753.8 424.07L15686.6 1080H15493L15647.6 427.27L15512.5 0H15664ZM15821.2 1080L15961.1 1080.13L15933.6 808.96L16018.5 421.04L15944.9 0H15779.8L15840.5 414.91L15777.8 778.54L15821.2 1080H15821.2ZM17179.3 778.54L17222.7 1080.07H17362.5L17335 808.96L17390.9 433.29L17354.2 0H17170.5L17262.3 421.04L17179.3 778.54ZM16174.6 424.07L16052 794.83L16096.1 1080L16260.7 1080.16L16223.6 808.96L16243.4 435.46L16309.8 0H16052L16174.6 424.07ZM16530.7 0H16365.1L16405.4 414.91L16351.2 829.98L16382.3 1080.16L16528.9 1079.99L16487.4 804.81L16587.2 424.06L16530.7 0ZM16654.6 1080H16794.4L16766.9 808.96L16905.9 424.07L16802.7 0H16613.1L16799.7 435.47L16611.2 778.54L16654.6 1080ZM17076.8 435.47L17093.8 0H16885.4L17008 424.07L16885.4 794.83L16929.4 1080H17095.1L17057 808.96L17076.8 435.46V435.47ZM15821.2 3240.34L15961.1 3240.47L15933.6 2969.3L16013 2595.82L15944.9 2160.34L15979.5 1733.07L15933.6 1351.38L15961.1 1080.21L15821.2 1080.34L15777.8 1381.8L15857.5 1724.85L15779.8 2160.34L15884 2595.79L15777.8 2938.88L15821.2 3240.34ZM16654.6 3240.34H16794.4L16766.9 2969.3L16905.9 2584.41L16802.7 2160.34L16905.9 1736.27L16766.9 1351.38L16794.4 1080.35H16654.6L16611.2 1381.81L16799.7 1724.88L16613.1 2160.35L16799.7 2595.82L16611.2 2938.89L16654.6 3240.35V3240.34ZM16072.6 4744.75L15944.9 4320.68L16033 3893.4L15933.6 3511.72L15961.1 3240.55L15821.2 3240.68L15777.8 3542.14L15888.5 3885.2L15779.8 4320.68L15966.4 4756.15L15777.8 5099.22L15821.2 5400.68L15961.1 5400.81L15933.6 5129.64L16072.6 4744.75ZM16309.8 4320.68L16243.4 3885.21L16223.6 3511.71L16260.7 3240.51L16096.1 3240.67L16052.1 3525.84L16174.6 3896.6L16052.1 4320.67L16174.6 4744.74L16052.1 5115.5L16096.1 5400.67L16260.7 5400.83L16223.6 5129.63L16243.4 4756.13L16309.8 4320.66V4320.68ZM16905.9 4744.75L16802.7 4320.68L16905.9 3896.61L16766.9 3511.72L16794.4 3240.68H16654.6L16611.2 3542.14L16799.7 3885.21L16613.2 4320.68L16799.7 4756.15L16611.2 5099.22L16654.6 5400.68H16794.4L16766.9 5129.64L16905.9 4744.75ZM15686.6 1080.34H15493L15647.6 1733.07L15512.5 2160.34L15647.6 2587.61L15493 3240.34H15686.6L15753.8 2584.41L15664 2160.34L15753.8 1736.27L15686.6 1080.34ZM17335 1351.37L17362.5 1080.26H17222.7L17179.3 1381.79L17262.3 1739.29L17170.5 2160.33L17262.3 2581.37L17179.3 2938.87L17222.7 3240.4H17362.5L17335 2969.29L17390.9 2593.62L17354.2 2160.32L17390.9 1727.02L17335 1351.35V1351.37ZM16223.6 1351.37L16260.7 1080.17L16096.1 1080.33L16052 1365.5L16174.6 1736.26L16052 2160.33L16174.6 2584.4L16052 2955.16L16096.1 3240.33L16260.7 3240.49L16223.6 2969.29L16243.4 2595.79L16309.8 2160.32L16243.4 1724.85L16223.6 1351.35V1351.37ZM16405.4 1745.42L16365.1 2160.34L16405.4 2575.25L16351.2 2990.32L16382.3 3240.5L16528.9 3240.33L16487.4 2965.15L16587.2 2584.4L16530.6 2160.33L16587.2 1736.26L16487.4 1355.51L16528.9 1080.33L16382.3 1080.16L16351.2 1330.34L16405.4 1745.41V1745.42ZM16929.4 1080.34L16885.4 1365.51L17008 1736.27L16885.4 2160.34L17008 2584.41L16885.4 2955.17L16929.4 3240.34H17095.1L17057 2969.3L17076.8 2595.8L17093.8 2160.33L17076.8 1724.86L17057 1351.36L17095.1 1080.33H16929.4V1080.34ZM15686.6 3240.67H15493L15647.6 3893.4L15512.5 4320.67L15647.6 4747.94L15493 5400.67H15686.6L15753.8 4744.74L15664 4320.67L15753.8 3896.6L15686.6 3240.67ZM17335 3511.71L17362.5 3240.6H17222.7L17179.3 3542.13L17262.3 3899.63L17170.5 4320.67L17262.3 4741.71L17179.3 5099.21L17222.7 5400.74H17362.5L17335 5129.63L17390.9 4753.96L17354.2 4320.66L17390.9 3887.36L17335 3511.69V3511.71ZM16405.4 3905.76L16365.1 4320.68L16405.4 4735.6L16351.2 5150.67L16382.3 5400.85L16528.9 5400.68L16487.4 5125.5L16587.2 4744.75L16530.6 4320.68L16587.2 3896.61L16487.4 3515.86L16528.9 3240.68L16382.3 3240.51L16351.2 3490.69L16405.4 3905.76ZM16929.4 3240.68L16885.4 3525.85L17008 3896.61L16885.4 4320.68L17008 4744.75L16885.4 5115.51L16929.4 5400.68H17095.1L17057 5129.64L17076.8 4756.14L17093.8 4320.67L17076.8 3885.2L17057 3511.7L17095.1 3240.66H16929.4V3240.68Z" fill="#496D20"/>
  <path opacity="0.07" d="M2377.96 0L2467.83 424.07L2400.64 1080H2207L2361.62 427.27L2226.54 0H2377.96ZM2535.24 1080L2675.07 1080.13L2647.58 808.96L2732.5 421.04L2658.88 0H2493.77L2554.5 414.91L2491.83 778.54L2535.23 1080H2535.24ZM3893.27 778.54L3936.68 1080.07H4076.5L4049.01 808.96L4104.94 433.29L4068.22 0H3884.51L3976.26 421.04L3893.27 778.54ZM2888.6 424.07L2766.05 794.83L2810.09 1080L2974.71 1080.16L2937.62 808.96L2957.43 435.46L3023.84 0H2766.05L2888.6 424.07ZM3244.65 0H3079.11L3119.41 414.91L3065.21 829.98L3096.32 1080.16L3242.92 1079.99L3201.37 804.81L3301.19 424.06L3244.65 0ZM3368.6 1080H3508.42L3480.94 808.96L3619.93 424.07L3516.74 0H3327.14L3513.72 435.47L3325.2 778.54L3368.6 1080ZM3790.79 435.47L3807.8 0H3599.41L3721.96 424.07L3599.41 794.83L3643.45 1080H3809.08L3770.98 808.96L3790.79 435.46V435.47ZM2535.24 3240.34L2675.07 3240.47L2647.58 2969.3L2727 2595.82L2658.88 2160.34L2693.5 1733.07L2647.58 1351.38L2675.07 1080.21L2535.24 1080.34L2491.84 1381.8L2571.5 1724.85L2493.78 2160.34L2598 2595.79L2491.84 2938.88L2535.24 3240.34ZM3368.6 3240.34H3508.42L3480.94 2969.3L3619.93 2584.41L3516.73 2160.34L3619.93 1736.27L3480.94 1351.38L3508.42 1080.35H3368.6L3325.2 1381.81L3513.72 1724.88L3327.14 2160.35L3513.72 2595.82L3325.2 2938.89L3368.6 3240.35V3240.34ZM2786.57 4744.75L2658.88 4320.68L2747 3893.4L2647.58 3511.72L2675.07 3240.55L2535.24 3240.68L2491.84 3542.14L2602.5 3885.2L2493.78 4320.68L2680.36 4756.15L2491.84 5099.22L2535.24 5400.68L2675.07 5400.81L2647.58 5129.64L2786.57 4744.75ZM3023.84 4320.68L2957.44 3885.21L2937.63 3511.71L2974.72 3240.51L2810.1 3240.67L2766.06 3525.84L2888.61 3896.6L2766.06 4320.67L2888.61 4744.74L2766.06 5115.5L2810.1 5400.67L2974.72 5400.83L2937.63 5129.63L2957.44 4756.13L3023.84 4320.66V4320.68ZM3619.94 4744.75L3516.74 4320.68L3619.94 3896.61L3480.95 3511.72L3508.43 3240.68H3368.61L3325.21 3542.14L3513.73 3885.21L3327.15 4320.68L3513.73 4756.15L3325.21 5099.22L3368.61 5400.68H3508.43L3480.95 5129.64L3619.94 4744.75ZM2400.65 1080.34H2207L2361.62 1733.07L2226.54 2160.34L2361.62 2587.61L2207 3240.34H2400.65L2467.84 2584.41L2377.97 2160.34L2467.84 1736.27L2400.65 1080.34ZM4049.01 1351.37L4076.5 1080.26H3936.68L3893.27 1381.79L3976.26 1739.29L3884.51 2160.33L3976.26 2581.37L3893.27 2938.87L3936.68 3240.4H4076.5L4049.01 2969.29L4104.94 2593.62L4068.22 2160.32L4104.94 1727.02L4049.01 1351.35V1351.37ZM2937.62 1351.37L2974.71 1080.17L2810.09 1080.33L2766.05 1365.5L2888.6 1736.26L2766.05 2160.33L2888.6 2584.4L2766.05 2955.16L2810.09 3240.33L2974.71 3240.49L2937.62 2969.29L2957.43 2595.79L3023.83 2160.32L2957.43 1724.85L2937.62 1351.35V1351.37ZM3119.41 1745.42L3079.11 2160.34L3119.41 2575.25L3065.21 2990.32L3096.32 3240.5L3242.92 3240.33L3201.37 2965.15L3301.19 2584.4L3244.64 2160.33L3301.19 1736.26L3201.37 1355.51L3242.92 1080.33L3096.32 1080.16L3065.21 1330.34L3119.41 1745.41V1745.42ZM3643.45 1080.34L3599.41 1365.51L3721.96 1736.27L3599.41 2160.34L3721.96 2584.41L3599.41 2955.17L3643.45 3240.34H3809.08L3770.98 2969.3L3790.79 2595.8L3807.79 2160.33L3790.79 1724.86L3770.98 1351.36L3809.08 1080.33H3643.45V1080.34ZM2400.65 3240.67H2207L2361.62 3893.4L2226.54 4320.67L2361.62 4747.94L2207 5400.67H2400.65L2467.84 4744.74L2377.97 4320.67L2467.84 3896.6L2400.65 3240.67ZM4049.01 3511.71L4076.5 3240.6H3936.68L3893.27 3542.13L3976.26 3899.63L3884.51 4320.67L3976.26 4741.71L3893.27 5099.21L3936.68 5400.74H4076.5L4049.01 5129.63L4104.94 4753.96L4068.22 4320.66L4104.94 3887.36L4049.01 3511.69V3511.71ZM3119.41 3905.76L3079.11 4320.68L3119.41 4735.6L3065.21 5150.67L3096.32 5400.85L3242.92 5400.68L3201.37 5125.5L3301.19 4744.75L3244.64 4320.68L3301.19 3896.61L3201.37 3515.86L3242.92 3240.68L3096.32 3240.51L3065.21 3490.69L3119.41 3905.76ZM3643.45 3240.68L3599.41 3525.85L3721.96 3896.61L3599.41 4320.68L3721.96 4744.75L3599.41 5115.51L3643.45 5400.68H3809.08L3770.98 5129.64L3790.79 4756.14L3807.79 4320.67L3790.79 3885.2L3770.98 3511.7L3809.08 3240.66H3643.45V3240.68Z" fill="#496D20"/>
  <path opacity="0.07" d="M13766 0L13855.8 424.07L13788.6 1080H13595L13749.6 427.27L13614.5 0H13766ZM13923.2 1080L14063.1 1080.13L14035.6 808.96L14120.5 421.04L14046.9 0H13881.8L13942.5 414.91L13879.8 778.54L13923.2 1080H13923.2ZM15281.3 778.54L15324.7 1080.07H15464.5L15437 808.96L15492.9 433.29L15456.2 0H15272.5L15364.3 421.04L15281.3 778.54ZM14276.6 424.07L14154 794.83L14198.1 1080L14362.7 1080.16L14325.6 808.96L14345.4 435.46L14411.8 0H14154L14276.6 424.07ZM14632.7 0H14467.1L14507.4 414.91L14453.2 829.98L14484.3 1080.16L14630.9 1079.99L14589.4 804.81L14689.2 424.06L14632.7 0ZM14756.6 1080H14896.4L14868.9 808.96L15007.9 424.07L14904.7 0H14715.1L14901.7 435.47L14713.2 778.54L14756.6 1080ZM15178.8 435.47L15195.8 0H14987.4L15110 424.07L14987.4 794.83L15031.4 1080H15197.1L15159 808.96L15178.8 435.46V435.47ZM13923.2 3240.34L14063.1 3240.47L14035.6 2969.3L14115 2595.82L14046.9 2160.34L14081.5 1733.07L14035.6 1351.38L14063.1 1080.21L13923.2 1080.34L13879.8 1381.8L13959.5 1724.85L13881.8 2160.34L13986 2595.79L13879.8 2938.88L13923.2 3240.34ZM14756.6 3240.34H14896.4L14868.9 2969.3L15007.9 2584.41L14904.7 2160.34L15007.9 1736.27L14868.9 1351.38L14896.4 1080.35H14756.6L14713.2 1381.81L14901.7 1724.88L14715.1 2160.35L14901.7 2595.82L14713.2 2938.89L14756.6 3240.35V3240.34ZM14174.6 4744.75L14046.9 4320.68L14135 3893.4L14035.6 3511.72L14063.1 3240.55L13923.2 3240.68L13879.8 3542.14L13990.5 3885.2L13881.8 4320.68L14068.4 4756.15L13879.8 5099.22L13923.2 5400.68L14063.1 5400.81L14035.6 5129.64L14174.6 4744.75ZM14411.8 4320.68L14345.4 3885.21L14325.6 3511.71L14362.7 3240.51L14198.1 3240.67L14154.1 3525.84L14276.6 3896.6L14154.1 4320.67L14276.6 4744.74L14154.1 5115.5L14198.1 5400.67L14362.7 5400.83L14325.6 5129.63L14345.4 4756.13L14411.8 4320.66V4320.68ZM15007.9 4744.75L14904.7 4320.68L15007.9 3896.61L14868.9 3511.72L14896.4 3240.68H14756.6L14713.2 3542.14L14901.7 3885.21L14715.2 4320.68L14901.7 4756.15L14713.2 5099.22L14756.6 5400.68H14896.4L14868.9 5129.64L15007.9 4744.75ZM13788.6 1080.34H13595L13749.6 1733.07L13614.5 2160.34L13749.6 2587.61L13595 3240.34H13788.6L13855.8 2584.41L13766 2160.34L13855.8 1736.27L13788.6 1080.34ZM15437 1351.37L15464.5 1080.26H15324.7L15281.3 1381.79L15364.3 1739.29L15272.5 2160.33L15364.3 2581.37L15281.3 2938.87L15324.7 3240.4H15464.5L15437 2969.29L15492.9 2593.62L15456.2 2160.32L15492.9 1727.02L15437 1351.35V1351.37ZM14325.6 1351.37L14362.7 1080.17L14198.1 1080.33L14154 1365.5L14276.6 1736.26L14154 2160.33L14276.6 2584.4L14154 2955.16L14198.1 3240.33L14362.7 3240.49L14325.6 2969.29L14345.4 2595.79L14411.8 2160.32L14345.4 1724.85L14325.6 1351.35V1351.37ZM14507.4 1745.42L14467.1 2160.34L14507.4 2575.25L14453.2 2990.32L14484.3 3240.5L14630.9 3240.33L14589.4 2965.15L14689.2 2584.4L14632.6 2160.33L14689.2 1736.26L14589.4 1355.51L14630.9 1080.33L14484.3 1080.16L14453.2 1330.34L14507.4 1745.41V1745.42ZM15031.4 1080.34L14987.4 1365.51L15110 1736.27L14987.4 2160.34L15110 2584.41L14987.4 2955.17L15031.4 3240.34H15197.1L15159 2969.3L15178.8 2595.8L15195.8 2160.33L15178.8 1724.86L15159 1351.36L15197.1 1080.33H15031.4V1080.34ZM13788.6 3240.67H13595L13749.6 3893.4L13614.5 4320.67L13749.6 4747.94L13595 5400.67H13788.6L13855.8 4744.74L13766 4320.67L13855.8 3896.6L13788.6 3240.67ZM15437 3511.71L15464.5 3240.6H15324.7L15281.3 3542.13L15364.3 3899.63L15272.5 4320.67L15364.3 4741.71L15281.3 5099.21L15324.7 5400.74H15464.5L15437 5129.63L15492.9 4753.96L15456.2 4320.66L15492.9 3887.36L15437 3511.69V3511.71ZM14507.4 3905.76L14467.1 4320.68L14507.4 4735.6L14453.2 5150.67L14484.3 5400.85L14630.9 5400.68L14589.4 5125.5L14689.2 4744.75L14632.6 4320.68L14689.2 3896.61L14589.4 3515.86L14630.9 3240.68L14484.3 3240.51L14453.2 3490.69L14507.4 3905.76ZM15031.4 3240.68L14987.4 3525.85L15110 3896.61L14987.4 4320.68L15110 4744.75L14987.4 5115.51L15031.4 5400.68H15197.1L15159 5129.64L15178.8 4756.14L15195.8 4320.67L15178.8 3885.2L15159 3511.7L15197.1 3240.66H15031.4V3240.68Z" fill="#496D20"/>
  <path opacity="0.07" d="M479.96 0L569.83 424.07L502.64 1080H309L463.62 427.27L328.54 0H479.96ZM637.24 1080L777.07 1080.13L749.58 808.96L834.5 421.04L760.88 0H595.77L656.5 414.91L593.83 778.54L637.23 1080H637.24ZM1995.27 778.54L2038.68 1080.07H2178.5L2151.01 808.96L2206.94 433.29L2170.22 0H1986.51L2078.26 421.04L1995.27 778.54ZM990.6 424.07L868.05 794.83L912.09 1080L1076.71 1080.16L1039.62 808.96L1059.43 435.46L1125.84 0H868.05L990.6 424.07ZM1346.65 0H1181.11L1221.41 414.91L1167.21 829.98L1198.32 1080.16L1344.92 1079.99L1303.37 804.81L1403.19 424.06L1346.65 0ZM1470.6 1080H1610.42L1582.94 808.96L1721.93 424.07L1618.74 0H1429.14L1615.72 435.47L1427.2 778.54L1470.6 1080ZM1892.79 435.47L1909.8 0H1701.41L1823.96 424.07L1701.41 794.83L1745.45 1080H1911.08L1872.98 808.96L1892.79 435.46V435.47ZM637.24 3240.34L777.07 3240.47L749.58 2969.3L829 2595.82L760.88 2160.34L795.5 1733.07L749.58 1351.38L777.07 1080.21L637.24 1080.34L593.84 1381.8L673.5 1724.85L595.78 2160.34L700 2595.79L593.84 2938.88L637.24 3240.34ZM1470.6 3240.34H1610.42L1582.94 2969.3L1721.93 2584.41L1618.73 2160.34L1721.93 1736.27L1582.94 1351.38L1610.42 1080.35H1470.6L1427.2 1381.81L1615.72 1724.88L1429.14 2160.35L1615.72 2595.82L1427.2 2938.89L1470.6 3240.35V3240.34ZM888.57 4744.75L760.88 4320.68L849 3893.4L749.58 3511.72L777.07 3240.55L637.24 3240.68L593.84 3542.14L704.5 3885.2L595.78 4320.68L782.36 4756.15L593.84 5099.22L637.24 5400.68L777.07 5400.81L749.58 5129.64L888.57 4744.75ZM1125.84 4320.68L1059.44 3885.21L1039.63 3511.71L1076.72 3240.51L912.1 3240.67L868.06 3525.84L990.61 3896.6L868.06 4320.67L990.61 4744.74L868.06 5115.5L912.1 5400.67L1076.72 5400.83L1039.63 5129.63L1059.44 4756.13L1125.84 4320.66V4320.68ZM1721.94 4744.75L1618.74 4320.68L1721.94 3896.61L1582.95 3511.72L1610.43 3240.68H1470.61L1427.21 3542.14L1615.73 3885.21L1429.15 4320.68L1615.73 4756.15L1427.21 5099.22L1470.61 5400.68H1610.43L1582.95 5129.64L1721.94 4744.75ZM502.65 1080.34H309L463.62 1733.07L328.54 2160.34L463.62 2587.61L309 3240.34H502.65L569.84 2584.41L479.97 2160.34L569.84 1736.27L502.65 1080.34ZM2151.01 1351.37L2178.5 1080.26H2038.68L1995.27 1381.79L2078.26 1739.29L1986.51 2160.33L2078.26 2581.37L1995.27 2938.87L2038.68 3240.4H2178.5L2151.01 2969.29L2206.94 2593.62L2170.22 2160.32L2206.94 1727.02L2151.01 1351.35V1351.37ZM1039.62 1351.37L1076.71 1080.17L912.09 1080.33L868.05 1365.5L990.6 1736.26L868.05 2160.33L990.6 2584.4L868.05 2955.16L912.09 3240.33L1076.71 3240.49L1039.62 2969.29L1059.43 2595.79L1125.83 2160.32L1059.43 1724.85L1039.62 1351.35V1351.37ZM1221.41 1745.42L1181.11 2160.34L1221.41 2575.25L1167.21 2990.32L1198.32 3240.5L1344.92 3240.33L1303.37 2965.15L1403.19 2584.4L1346.64 2160.33L1403.19 1736.26L1303.37 1355.51L1344.92 1080.33L1198.32 1080.16L1167.21 1330.34L1221.41 1745.41V1745.42ZM1745.45 1080.34L1701.41 1365.51L1823.96 1736.27L1701.41 2160.34L1823.96 2584.41L1701.41 2955.17L1745.45 3240.34H1911.08L1872.98 2969.3L1892.79 2595.8L1909.79 2160.33L1892.79 1724.86L1872.98 1351.36L1911.08 1080.33H1745.45V1080.34ZM502.65 3240.67H309L463.62 3893.4L328.54 4320.67L463.62 4747.94L309 5400.67H502.65L569.84 4744.74L479.97 4320.67L569.84 3896.6L502.65 3240.67ZM2151.01 3511.71L2178.5 3240.6H2038.68L1995.27 3542.13L2078.26 3899.63L1986.51 4320.67L2078.26 4741.71L1995.27 5099.21L2038.68 5400.74H2178.5L2151.01 5129.63L2206.94 4753.96L2170.22 4320.66L2206.94 3887.36L2151.01 3511.69V3511.71ZM1221.41 3905.76L1181.11 4320.68L1221.41 4735.6L1167.21 5150.67L1198.32 5400.85L1344.92 5400.68L1303.37 5125.5L1403.19 4744.75L1346.64 4320.68L1403.19 3896.61L1303.37 3515.86L1344.92 3240.68L1198.32 3240.51L1167.21 3490.69L1221.41 3905.76ZM1745.45 3240.68L1701.41 3525.85L1823.96 3896.61L1701.41 4320.68L1823.96 4744.75L1701.41 5115.51L1745.45 5400.68H1911.08L1872.98 5129.64L1892.79 4756.14L1909.79 4320.67L1892.79 3885.2L1872.98 3511.7L1911.08 3240.66H1745.45V3240.68Z" fill="#496D20"/>
  <path opacity="0.07" d="M17562 0L17651.8 424.07L17584.6 1080H17391L17545.6 427.27L17410.5 0H17562ZM17719.2 1080L17859.1 1080.13L17831.6 808.96L17916.5 421.04L17842.9 0H17677.8L17738.5 414.91L17675.8 778.54L17719.2 1080H17719.2ZM19077.3 778.54L19120.7 1080.07H19260.5L19233 808.96L19288.9 433.29L19252.2 0H19068.5L19160.3 421.04L19077.3 778.54ZM18072.6 424.07L17950 794.83L17994.1 1080L18158.7 1080.16L18121.6 808.96L18141.4 435.46L18207.8 0H17950L18072.6 424.07ZM18428.7 0H18263.1L18303.4 414.91L18249.2 829.98L18280.3 1080.16L18426.9 1079.99L18385.4 804.81L18485.2 424.06L18428.7 0ZM18552.6 1080H18692.4L18664.9 808.96L18803.9 424.07L18700.7 0H18511.1L18697.7 435.47L18509.2 778.54L18552.6 1080ZM18974.8 435.47L18991.8 0H18783.4L18906 424.07L18783.4 794.83L18827.4 1080H18993.1L18955 808.96L18974.8 435.46V435.47ZM17719.2 3240.34L17859.1 3240.47L17831.6 2969.3L17911 2595.82L17842.9 2160.34L17877.5 1733.07L17831.6 1351.38L17859.1 1080.21L17719.2 1080.34L17675.8 1381.8L17755.5 1724.85L17677.8 2160.34L17782 2595.79L17675.8 2938.88L17719.2 3240.34ZM18552.6 3240.34H18692.4L18664.9 2969.3L18803.9 2584.41L18700.7 2160.34L18803.9 1736.27L18664.9 1351.38L18692.4 1080.35H18552.6L18509.2 1381.81L18697.7 1724.88L18511.1 2160.35L18697.7 2595.82L18509.2 2938.89L18552.6 3240.35V3240.34ZM17970.6 4744.75L17842.9 4320.68L17931 3893.4L17831.6 3511.72L17859.1 3240.55L17719.2 3240.68L17675.8 3542.14L17786.5 3885.2L17677.8 4320.68L17864.4 4756.15L17675.8 5099.22L17719.2 5400.68L17859.1 5400.81L17831.6 5129.64L17970.6 4744.75ZM18207.8 4320.68L18141.4 3885.21L18121.6 3511.71L18158.7 3240.51L17994.1 3240.67L17950.1 3525.84L18072.6 3896.6L17950.1 4320.67L18072.6 4744.74L17950.1 5115.5L17994.1 5400.67L18158.7 5400.83L18121.6 5129.63L18141.4 4756.13L18207.8 4320.66V4320.68ZM18803.9 4744.75L18700.7 4320.68L18803.9 3896.61L18664.9 3511.72L18692.4 3240.68H18552.6L18509.2 3542.14L18697.7 3885.21L18511.2 4320.68L18697.7 4756.15L18509.2 5099.22L18552.6 5400.68H18692.4L18664.9 5129.64L18803.9 4744.75ZM17584.6 1080.34H17391L17545.6 1733.07L17410.5 2160.34L17545.6 2587.61L17391 3240.34H17584.6L17651.8 2584.41L17562 2160.34L17651.8 1736.27L17584.6 1080.34ZM19233 1351.37L19260.5 1080.26H19120.7L19077.3 1381.79L19160.3 1739.29L19068.5 2160.33L19160.3 2581.37L19077.3 2938.87L19120.7 3240.4H19260.5L19233 2969.29L19288.9 2593.62L19252.2 2160.32L19288.9 1727.02L19233 1351.35V1351.37ZM18121.6 1351.37L18158.7 1080.17L17994.1 1080.33L17950 1365.5L18072.6 1736.26L17950 2160.33L18072.6 2584.4L17950 2955.16L17994.1 3240.33L18158.7 3240.49L18121.6 2969.29L18141.4 2595.79L18207.8 2160.32L18141.4 1724.85L18121.6 1351.35V1351.37ZM18303.4 1745.42L18263.1 2160.34L18303.4 2575.25L18249.2 2990.32L18280.3 3240.5L18426.9 3240.33L18385.4 2965.15L18485.2 2584.4L18428.6 2160.33L18485.2 1736.26L18385.4 1355.51L18426.9 1080.33L18280.3 1080.16L18249.2 1330.34L18303.4 1745.41V1745.42ZM18827.4 1080.34L18783.4 1365.51L18906 1736.27L18783.4 2160.34L18906 2584.41L18783.4 2955.17L18827.4 3240.34H18993.1L18955 2969.3L18974.8 2595.8L18991.8 2160.33L18974.8 1724.86L18955 1351.36L18993.1 1080.33H18827.4V1080.34ZM17584.6 3240.67H17391L17545.6 3893.4L17410.5 4320.67L17545.6 4747.94L17391 5400.67H17584.6L17651.8 4744.74L17562 4320.67L17651.8 3896.6L17584.6 3240.67ZM19233 3511.71L19260.5 3240.6H19120.7L19077.3 3542.13L19160.3 3899.63L19068.5 4320.67L19160.3 4741.71L19077.3 5099.21L19120.7 5400.74H19260.5L19233 5129.63L19288.9 4753.96L19252.2 4320.66L19288.9 3887.36L19233 3511.69V3511.71ZM18303.4 3905.76L18263.1 4320.68L18303.4 4735.6L18249.2 5150.67L18280.3 5400.85L18426.9 5400.68L18385.4 5125.5L18485.2 4744.75L18428.6 4320.68L18485.2 3896.61L18385.4 3515.86L18426.9 3240.68L18280.3 3240.51L18249.2 3490.69L18303.4 3905.76ZM18827.4 3240.68L18783.4 3525.85L18906 3896.61L18783.4 4320.68L18906 4744.75L18783.4 5115.51L18827.4 5400.68H18993.1L18955 5129.64L18974.8 4756.14L18991.8 4320.67L18974.8 3885.2L18955 3511.7L18993.1 3240.66H18827.4V3240.68Z" fill="#496D20"/>
  <path opacity="0.07" d="M4275.96 0L4365.83 424.07L4298.64 1080H4105L4259.62 427.27L4124.54 0H4275.96ZM4433.24 1080L4573.07 1080.13L4545.58 808.96L4630.5 421.04L4556.88 0H4391.77L4452.5 414.91L4389.83 778.54L4433.23 1080H4433.24ZM5791.27 778.54L5834.68 1080.07H5974.5L5947.01 808.96L6002.94 433.29L5966.22 0H5782.51L5874.26 421.04L5791.27 778.54ZM4786.6 424.07L4664.05 794.83L4708.09 1080L4872.71 1080.16L4835.62 808.96L4855.43 435.46L4921.84 0H4664.05L4786.6 424.07ZM5142.65 0H4977.11L5017.41 414.91L4963.21 829.98L4994.32 1080.16L5140.92 1079.99L5099.37 804.81L5199.19 424.06L5142.65 0ZM5266.6 1080H5406.42L5378.94 808.96L5517.93 424.07L5414.74 0H5225.14L5411.72 435.47L5223.2 778.54L5266.6 1080ZM5688.79 435.47L5705.8 0H5497.41L5619.96 424.07L5497.41 794.83L5541.45 1080H5707.08L5668.98 808.96L5688.79 435.46V435.47ZM4433.24 3240.34L4573.07 3240.47L4545.58 2969.3L4625 2595.82L4556.88 2160.34L4591.5 1733.07L4545.58 1351.38L4573.07 1080.21L4433.24 1080.34L4389.84 1381.8L4469.5 1724.85L4391.78 2160.34L4496 2595.79L4389.84 2938.88L4433.24 3240.34ZM5266.6 3240.34H5406.42L5378.94 2969.3L5517.93 2584.41L5414.73 2160.34L5517.93 1736.27L5378.94 1351.38L5406.42 1080.35H5266.6L5223.2 1381.81L5411.72 1724.88L5225.14 2160.35L5411.72 2595.82L5223.2 2938.89L5266.6 3240.35V3240.34ZM4684.57 4744.75L4556.88 4320.68L4645 3893.4L4545.58 3511.72L4573.07 3240.55L4433.24 3240.68L4389.84 3542.14L4500.5 3885.2L4391.78 4320.68L4578.36 4756.15L4389.84 5099.22L4433.24 5400.68L4573.07 5400.81L4545.58 5129.64L4684.57 4744.75ZM4921.84 4320.68L4855.44 3885.21L4835.63 3511.71L4872.72 3240.51L4708.1 3240.67L4664.06 3525.84L4786.61 3896.6L4664.06 4320.67L4786.61 4744.74L4664.06 5115.5L4708.1 5400.67L4872.72 5400.83L4835.63 5129.63L4855.44 4756.13L4921.84 4320.66V4320.68ZM5517.94 4744.75L5414.74 4320.68L5517.94 3896.61L5378.95 3511.72L5406.43 3240.68H5266.61L5223.21 3542.14L5411.73 3885.21L5225.15 4320.68L5411.73 4756.15L5223.21 5099.22L5266.61 5400.68H5406.43L5378.95 5129.64L5517.94 4744.75ZM4298.65 1080.34H4105L4259.62 1733.07L4124.54 2160.34L4259.62 2587.61L4105 3240.34H4298.65L4365.84 2584.41L4275.97 2160.34L4365.84 1736.27L4298.65 1080.34ZM5947.01 1351.37L5974.5 1080.26H5834.68L5791.27 1381.79L5874.26 1739.29L5782.51 2160.33L5874.26 2581.37L5791.27 2938.87L5834.68 3240.4H5974.5L5947.01 2969.29L6002.94 2593.62L5966.22 2160.32L6002.94 1727.02L5947.01 1351.35V1351.37ZM4835.62 1351.37L4872.71 1080.17L4708.09 1080.33L4664.05 1365.5L4786.6 1736.26L4664.05 2160.33L4786.6 2584.4L4664.05 2955.16L4708.09 3240.33L4872.71 3240.49L4835.62 2969.29L4855.43 2595.79L4921.83 2160.32L4855.43 1724.85L4835.62 1351.35V1351.37ZM5017.41 1745.42L4977.11 2160.34L5017.41 2575.25L4963.21 2990.32L4994.32 3240.5L5140.92 3240.33L5099.37 2965.15L5199.19 2584.4L5142.64 2160.33L5199.19 1736.26L5099.37 1355.51L5140.92 1080.33L4994.32 1080.16L4963.21 1330.34L5017.41 1745.41V1745.42ZM5541.45 1080.34L5497.41 1365.51L5619.96 1736.27L5497.41 2160.34L5619.96 2584.41L5497.41 2955.17L5541.45 3240.34H5707.08L5668.98 2969.3L5688.79 2595.8L5705.79 2160.33L5688.79 1724.86L5668.98 1351.36L5707.08 1080.33H5541.45V1080.34ZM4298.65 3240.67H4105L4259.62 3893.4L4124.54 4320.67L4259.62 4747.94L4105 5400.67H4298.65L4365.84 4744.74L4275.97 4320.67L4365.84 3896.6L4298.65 3240.67ZM5947.01 3511.71L5974.5 3240.6H5834.68L5791.27 3542.13L5874.26 3899.63L5782.51 4320.67L5874.26 4741.71L5791.27 5099.21L5834.68 5400.74H5974.5L5947.01 5129.63L6002.94 4753.96L5966.22 4320.66L6002.94 3887.36L5947.01 3511.69V3511.71ZM5017.41 3905.76L4977.11 4320.68L5017.41 4735.6L4963.21 5150.67L4994.32 5400.85L5140.92 5400.68L5099.37 5125.5L5199.19 4744.75L5142.64 4320.68L5199.19 3896.61L5099.37 3515.86L5140.92 3240.68L4994.32 3240.51L4963.21 3490.69L5017.41 3905.76ZM5541.45 3240.68L5497.41 3525.85L5619.96 3896.61L5497.41 4320.68L5619.96 4744.75L5497.41 5115.51L5541.45 5400.68H5707.08L5668.98 5129.64L5688.79 4756.14L5705.79 4320.67L5688.79 3885.2L5668.98 3511.7L5707.08 3240.66H5541.45V3240.68Z" fill="#496D20"/>
  <path opacity="0.07" d="M19460 0L19549.8 424.07L19482.6 1080H19289L19443.6 427.27L19308.5 0H19460ZM19617.2 1080L19757.1 1080.13L19729.6 808.96L19814.5 421.04L19740.9 0H19575.8L19636.5 414.91L19573.8 778.54L19617.2 1080H19617.2ZM20975.3 778.54L21018.7 1080.07H21158.5L21131 808.96L21186.9 433.29L21150.2 0H20966.5L21058.3 421.04L20975.3 778.54ZM19970.6 424.07L19848 794.83L19892.1 1080L20056.7 1080.16L20019.6 808.96L20039.4 435.46L20105.8 0H19848L19970.6 424.07ZM20326.7 0H20161.1L20201.4 414.91L20147.2 829.98L20178.3 1080.16L20324.9 1079.99L20283.4 804.81L20383.2 424.06L20326.7 0ZM20450.6 1080H20590.4L20562.9 808.96L20701.9 424.07L20598.7 0H20409.1L20595.7 435.47L20407.2 778.54L20450.6 1080ZM20872.8 435.47L20889.8 0H20681.4L20804 424.07L20681.4 794.83L20725.4 1080H20891.1L20853 808.96L20872.8 435.46V435.47ZM19617.2 3240.34L19757.1 3240.47L19729.6 2969.3L19809 2595.82L19740.9 2160.34L19775.5 1733.07L19729.6 1351.38L19757.1 1080.21L19617.2 1080.34L19573.8 1381.8L19653.5 1724.85L19575.8 2160.34L19680 2595.79L19573.8 2938.88L19617.2 3240.34ZM20450.6 3240.34H20590.4L20562.9 2969.3L20701.9 2584.41L20598.7 2160.34L20701.9 1736.27L20562.9 1351.38L20590.4 1080.35H20450.6L20407.2 1381.81L20595.7 1724.88L20409.1 2160.35L20595.7 2595.82L20407.2 2938.89L20450.6 3240.35V3240.34ZM19868.6 4744.75L19740.9 4320.68L19829 3893.4L19729.6 3511.72L19757.1 3240.55L19617.2 3240.68L19573.8 3542.14L19684.5 3885.2L19575.8 4320.68L19762.4 4756.15L19573.8 5099.22L19617.2 5400.68L19757.1 5400.81L19729.6 5129.64L19868.6 4744.75ZM20105.8 4320.68L20039.4 3885.21L20019.6 3511.71L20056.7 3240.51L19892.1 3240.67L19848.1 3525.84L19970.6 3896.6L19848.1 4320.67L19970.6 4744.74L19848.1 5115.5L19892.1 5400.67L20056.7 5400.83L20019.6 5129.63L20039.4 4756.13L20105.8 4320.66V4320.68ZM20701.9 4744.75L20598.7 4320.68L20701.9 3896.61L20562.9 3511.72L20590.4 3240.68H20450.6L20407.2 3542.14L20595.7 3885.21L20409.2 4320.68L20595.7 4756.15L20407.2 5099.22L20450.6 5400.68H20590.4L20562.9 5129.64L20701.9 4744.75ZM19482.6 1080.34H19289L19443.6 1733.07L19308.5 2160.34L19443.6 2587.61L19289 3240.34H19482.6L19549.8 2584.41L19460 2160.34L19549.8 1736.27L19482.6 1080.34ZM21131 1351.37L21158.5 1080.26H21018.7L20975.3 1381.79L21058.3 1739.29L20966.5 2160.33L21058.3 2581.37L20975.3 2938.87L21018.7 3240.4H21158.5L21131 2969.29L21186.9 2593.62L21150.2 2160.32L21186.9 1727.02L21131 1351.35V1351.37ZM20019.6 1351.37L20056.7 1080.17L19892.1 1080.33L19848 1365.5L19970.6 1736.26L19848 2160.33L19970.6 2584.4L19848 2955.16L19892.1 3240.33L20056.7 3240.49L20019.6 2969.29L20039.4 2595.79L20105.8 2160.32L20039.4 1724.85L20019.6 1351.35V1351.37ZM20201.4 1745.42L20161.1 2160.34L20201.4 2575.25L20147.2 2990.32L20178.3 3240.5L20324.9 3240.33L20283.4 2965.15L20383.2 2584.4L20326.6 2160.33L20383.2 1736.26L20283.4 1355.51L20324.9 1080.33L20178.3 1080.16L20147.2 1330.34L20201.4 1745.41V1745.42ZM20725.4 1080.34L20681.4 1365.51L20804 1736.27L20681.4 2160.34L20804 2584.41L20681.4 2955.17L20725.4 3240.34H20891.1L20853 2969.3L20872.8 2595.8L20889.8 2160.33L20872.8 1724.86L20853 1351.36L20891.1 1080.33H20725.4V1080.34ZM19482.6 3240.67H19289L19443.6 3893.4L19308.5 4320.67L19443.6 4747.94L19289 5400.67H19482.6L19549.8 4744.74L19460 4320.67L19549.8 3896.6L19482.6 3240.67ZM21131 3511.71L21158.5 3240.6H21018.7L20975.3 3542.13L21058.3 3899.63L20966.5 4320.67L21058.3 4741.71L20975.3 5099.21L21018.7 5400.74H21158.5L21131 5129.63L21186.9 4753.96L21150.2 4320.66L21186.9 3887.36L21131 3511.69V3511.71ZM20201.4 3905.76L20161.1 4320.68L20201.4 4735.6L20147.2 5150.67L20178.3 5400.85L20324.9 5400.68L20283.4 5125.5L20383.2 4744.75L20326.6 4320.68L20383.2 3896.61L20283.4 3515.86L20324.9 3240.68L20178.3 3240.51L20147.2 3490.69L20201.4 3905.76ZM20725.4 3240.68L20681.4 3525.85L20804 3896.61L20681.4 4320.68L20804 4744.75L20681.4 5115.51L20725.4 5400.68H20891.1L20853 5129.64L20872.8 4756.14L20889.8 4320.67L20872.8 3885.2L20853 3511.7L20891.1 3240.66H20725.4V3240.68Z" fill="#496D20"/>
  <path opacity="0.07" d="M6173.96 0L6263.83 424.07L6196.64 1080H6003L6157.62 427.27L6022.54 0H6173.96ZM6331.24 1080L6471.07 1080.13L6443.58 808.96L6528.5 421.04L6454.88 0H6289.77L6350.5 414.91L6287.83 778.54L6331.23 1080H6331.24ZM7689.27 778.54L7732.68 1080.07H7872.5L7845.01 808.96L7900.94 433.29L7864.22 0H7680.51L7772.26 421.04L7689.27 778.54ZM6684.6 424.07L6562.05 794.83L6606.09 1080L6770.71 1080.16L6733.62 808.96L6753.43 435.46L6819.84 0H6562.05L6684.6 424.07ZM7040.65 0H6875.11L6915.41 414.91L6861.21 829.98L6892.32 1080.16L7038.92 1079.99L6997.37 804.81L7097.19 424.06L7040.65 0ZM7164.6 1080H7304.42L7276.94 808.96L7415.93 424.07L7312.74 0H7123.14L7309.72 435.47L7121.2 778.54L7164.6 1080ZM7586.79 435.47L7603.8 0H7395.41L7517.96 424.07L7395.41 794.83L7439.45 1080H7605.08L7566.98 808.96L7586.79 435.46V435.47ZM6331.24 3240.34L6471.07 3240.47L6443.58 2969.3L6523 2595.82L6454.88 2160.34L6489.5 1733.07L6443.58 1351.38L6471.07 1080.21L6331.24 1080.34L6287.84 1381.8L6367.5 1724.85L6289.78 2160.34L6394 2595.79L6287.84 2938.88L6331.24 3240.34ZM7164.6 3240.34H7304.42L7276.94 2969.3L7415.93 2584.41L7312.73 2160.34L7415.93 1736.27L7276.94 1351.38L7304.42 1080.35H7164.6L7121.2 1381.81L7309.72 1724.88L7123.14 2160.35L7309.72 2595.82L7121.2 2938.89L7164.6 3240.35V3240.34ZM6582.57 4744.75L6454.88 4320.68L6543 3893.4L6443.58 3511.72L6471.07 3240.55L6331.24 3240.68L6287.84 3542.14L6398.5 3885.2L6289.78 4320.68L6476.36 4756.15L6287.84 5099.22L6331.24 5400.68L6471.07 5400.81L6443.58 5129.64L6582.57 4744.75ZM6819.84 4320.68L6753.44 3885.21L6733.63 3511.71L6770.72 3240.51L6606.1 3240.67L6562.06 3525.84L6684.61 3896.6L6562.06 4320.67L6684.61 4744.74L6562.06 5115.5L6606.1 5400.67L6770.72 5400.83L6733.63 5129.63L6753.44 4756.13L6819.84 4320.66V4320.68ZM7415.94 4744.75L7312.74 4320.68L7415.94 3896.61L7276.95 3511.72L7304.43 3240.68H7164.61L7121.21 3542.14L7309.73 3885.21L7123.15 4320.68L7309.73 4756.15L7121.21 5099.22L7164.61 5400.68H7304.43L7276.95 5129.64L7415.94 4744.75ZM6196.65 1080.34H6003L6157.62 1733.07L6022.54 2160.34L6157.62 2587.61L6003 3240.34H6196.65L6263.84 2584.41L6173.97 2160.34L6263.84 1736.27L6196.65 1080.34ZM7845.01 1351.37L7872.5 1080.26H7732.68L7689.27 1381.79L7772.26 1739.29L7680.51 2160.33L7772.26 2581.37L7689.27 2938.87L7732.68 3240.4H7872.5L7845.01 2969.29L7900.94 2593.62L7864.22 2160.32L7900.94 1727.02L7845.01 1351.35V1351.37ZM6733.62 1351.37L6770.71 1080.17L6606.09 1080.33L6562.05 1365.5L6684.6 1736.26L6562.05 2160.33L6684.6 2584.4L6562.05 2955.16L6606.09 3240.33L6770.71 3240.49L6733.62 2969.29L6753.43 2595.79L6819.83 2160.32L6753.43 1724.85L6733.62 1351.35V1351.37ZM6915.41 1745.42L6875.11 2160.34L6915.41 2575.25L6861.21 2990.32L6892.32 3240.5L7038.92 3240.33L6997.37 2965.15L7097.19 2584.4L7040.64 2160.33L7097.19 1736.26L6997.37 1355.51L7038.92 1080.33L6892.32 1080.16L6861.21 1330.34L6915.41 1745.41V1745.42ZM7439.45 1080.34L7395.41 1365.51L7517.96 1736.27L7395.41 2160.34L7517.96 2584.41L7395.41 2955.17L7439.45 3240.34H7605.08L7566.98 2969.3L7586.79 2595.8L7603.79 2160.33L7586.79 1724.86L7566.98 1351.36L7605.08 1080.33H7439.45V1080.34ZM6196.65 3240.67H6003L6157.62 3893.4L6022.54 4320.67L6157.62 4747.94L6003 5400.67H6196.65L6263.84 4744.74L6173.97 4320.67L6263.84 3896.6L6196.65 3240.67ZM7845.01 3511.71L7872.5 3240.6H7732.68L7689.27 3542.13L7772.26 3899.63L7680.51 4320.67L7772.26 4741.71L7689.27 5099.21L7732.68 5400.74H7872.5L7845.01 5129.63L7900.94 4753.96L7864.22 4320.66L7900.94 3887.36L7845.01 3511.69V3511.71ZM6915.41 3905.76L6875.11 4320.68L6915.41 4735.6L6861.21 5150.67L6892.32 5400.85L7038.92 5400.68L6997.37 5125.5L7097.19 4744.75L7040.64 4320.68L7097.19 3896.61L6997.37 3515.86L7038.92 3240.68L6892.32 3240.51L6861.21 3490.69L6915.41 3905.76ZM7439.45 3240.68L7395.41 3525.85L7517.96 3896.61L7395.41 4320.68L7517.96 4744.75L7395.41 5115.51L7439.45 5400.68H7605.08L7566.98 5129.64L7586.79 4756.14L7603.79 4320.67L7586.79 3885.2L7566.98 3511.7L7605.08 3240.66H7439.45V3240.68Z" fill="#496D20"/>
  <path opacity="0.07" d="M21358 0L21447.8 424.07L21380.6 1080H21187L21341.6 427.27L21206.5 0H21358ZM21515.2 1080L21655.1 1080.13L21627.6 808.96L21712.5 421.04L21638.9 0H21473.8L21534.5 414.91L21471.8 778.54L21515.2 1080H21515.2ZM22873.3 778.54L22916.7 1080.07H23056.5L23029 808.96L23084.9 433.29L23048.2 0H22864.5L22956.3 421.04L22873.3 778.54ZM21868.6 424.07L21746 794.83L21790.1 1080L21954.7 1080.16L21917.6 808.96L21937.4 435.46L22003.8 0H21746L21868.6 424.07ZM22224.7 0H22059.1L22099.4 414.91L22045.2 829.98L22076.3 1080.16L22222.9 1079.99L22181.4 804.81L22281.2 424.06L22224.7 0ZM22348.6 1080H22488.4L22460.9 808.96L22599.9 424.07L22496.7 0H22307.1L22493.7 435.47L22305.2 778.54L22348.6 1080ZM22770.8 435.47L22787.8 0H22579.4L22702 424.07L22579.4 794.83L22623.4 1080H22789.1L22751 808.96L22770.8 435.46V435.47ZM21515.2 3240.34L21655.1 3240.47L21627.6 2969.3L21707 2595.82L21638.9 2160.34L21673.5 1733.07L21627.6 1351.38L21655.1 1080.21L21515.2 1080.34L21471.8 1381.8L21551.5 1724.85L21473.8 2160.34L21578 2595.79L21471.8 2938.88L21515.2 3240.34ZM22348.6 3240.34H22488.4L22460.9 2969.3L22599.9 2584.41L22496.7 2160.34L22599.9 1736.27L22460.9 1351.38L22488.4 1080.35H22348.6L22305.2 1381.81L22493.7 1724.88L22307.1 2160.35L22493.7 2595.82L22305.2 2938.89L22348.6 3240.35V3240.34ZM21766.6 4744.75L21638.9 4320.68L21727 3893.4L21627.6 3511.72L21655.1 3240.55L21515.2 3240.68L21471.8 3542.14L21582.5 3885.2L21473.8 4320.68L21660.4 4756.15L21471.8 5099.22L21515.2 5400.68L21655.1 5400.81L21627.6 5129.64L21766.6 4744.75ZM22003.8 4320.68L21937.4 3885.21L21917.6 3511.71L21954.7 3240.51L21790.1 3240.67L21746.1 3525.84L21868.6 3896.6L21746.1 4320.67L21868.6 4744.74L21746.1 5115.5L21790.1 5400.67L21954.7 5400.83L21917.6 5129.63L21937.4 4756.13L22003.8 4320.66V4320.68ZM22599.9 4744.75L22496.7 4320.68L22599.9 3896.61L22460.9 3511.72L22488.4 3240.68H22348.6L22305.2 3542.14L22493.7 3885.21L22307.2 4320.68L22493.7 4756.15L22305.2 5099.22L22348.6 5400.68H22488.4L22460.9 5129.64L22599.9 4744.75ZM21380.6 1080.34H21187L21341.6 1733.07L21206.5 2160.34L21341.6 2587.61L21187 3240.34H21380.6L21447.8 2584.41L21358 2160.34L21447.8 1736.27L21380.6 1080.34ZM23029 1351.37L23056.5 1080.26H22916.7L22873.3 1381.79L22956.3 1739.29L22864.5 2160.33L22956.3 2581.37L22873.3 2938.87L22916.7 3240.4H23056.5L23029 2969.29L23084.9 2593.62L23048.2 2160.32L23084.9 1727.02L23029 1351.35V1351.37ZM21917.6 1351.37L21954.7 1080.17L21790.1 1080.33L21746 1365.5L21868.6 1736.26L21746 2160.33L21868.6 2584.4L21746 2955.16L21790.1 3240.33L21954.7 3240.49L21917.6 2969.29L21937.4 2595.79L22003.8 2160.32L21937.4 1724.85L21917.6 1351.35V1351.37ZM22099.4 1745.42L22059.1 2160.34L22099.4 2575.25L22045.2 2990.32L22076.3 3240.5L22222.9 3240.33L22181.4 2965.15L22281.2 2584.4L22224.6 2160.33L22281.2 1736.26L22181.4 1355.51L22222.9 1080.33L22076.3 1080.16L22045.2 1330.34L22099.4 1745.41V1745.42ZM22623.4 1080.34L22579.4 1365.51L22702 1736.27L22579.4 2160.34L22702 2584.41L22579.4 2955.17L22623.4 3240.34H22789.1L22751 2969.3L22770.8 2595.8L22787.8 2160.33L22770.8 1724.86L22751 1351.36L22789.1 1080.33H22623.4V1080.34ZM21380.6 3240.67H21187L21341.6 3893.4L21206.5 4320.67L21341.6 4747.94L21187 5400.67H21380.6L21447.8 4744.74L21358 4320.67L21447.8 3896.6L21380.6 3240.67ZM23029 3511.71L23056.5 3240.6H22916.7L22873.3 3542.13L22956.3 3899.63L22864.5 4320.67L22956.3 4741.71L22873.3 5099.21L22916.7 5400.74H23056.5L23029 5129.63L23084.9 4753.96L23048.2 4320.66L23084.9 3887.36L23029 3511.69V3511.71ZM22099.4 3905.76L22059.1 4320.68L22099.4 4735.6L22045.2 5150.67L22076.3 5400.85L22222.9 5400.68L22181.4 5125.5L22281.2 4744.75L22224.6 4320.68L22281.2 3896.61L22181.4 3515.86L22222.9 3240.68L22076.3 3240.51L22045.2 3490.69L22099.4 3905.76ZM22623.4 3240.68L22579.4 3525.85L22702 3896.61L22579.4 4320.68L22702 4744.75L22579.4 5115.51L22623.4 5400.68H22789.1L22751 5129.64L22770.8 4756.14L22787.8 4320.67L22770.8 3885.2L22751 3511.7L22789.1 3240.66H22623.4V3240.68Z" fill="#496D20"/>
  <path opacity="0.07" d="M8071.96 0L8161.83 424.07L8094.64 1080H7901L8055.62 427.27L7920.54 0H8071.96ZM8229.24 1080L8369.07 1080.13L8341.58 808.96L8426.5 421.04L8352.88 0H8187.77L8248.5 414.91L8185.83 778.54L8229.23 1080H8229.24ZM9587.27 778.54L9630.68 1080.07H9770.5L9743.01 808.96L9798.94 433.29L9762.22 0H9578.51L9670.26 421.04L9587.27 778.54ZM8582.6 424.07L8460.05 794.83L8504.09 1080L8668.71 1080.16L8631.62 808.96L8651.43 435.46L8717.84 0H8460.05L8582.6 424.07ZM8938.65 0H8773.11L8813.41 414.91L8759.21 829.98L8790.32 1080.16L8936.92 1079.99L8895.37 804.81L8995.19 424.06L8938.65 0ZM9062.6 1080H9202.42L9174.94 808.96L9313.93 424.07L9210.74 0H9021.14L9207.72 435.47L9019.2 778.54L9062.6 1080ZM9484.79 435.47L9501.8 0H9293.41L9415.96 424.07L9293.41 794.83L9337.45 1080H9503.08L9464.98 808.96L9484.79 435.46V435.47ZM8229.24 3240.34L8369.07 3240.47L8341.58 2969.3L8421 2595.82L8352.88 2160.34L8387.5 1733.07L8341.58 1351.38L8369.07 1080.21L8229.24 1080.34L8185.84 1381.8L8265.5 1724.85L8187.78 2160.34L8292 2595.79L8185.84 2938.88L8229.24 3240.34ZM9062.6 3240.34H9202.42L9174.94 2969.3L9313.93 2584.41L9210.73 2160.34L9313.93 1736.27L9174.94 1351.38L9202.42 1080.35H9062.6L9019.2 1381.81L9207.72 1724.88L9021.14 2160.35L9207.72 2595.82L9019.2 2938.89L9062.6 3240.35V3240.34ZM8480.57 4744.75L8352.88 4320.68L8441 3893.4L8341.58 3511.72L8369.07 3240.55L8229.24 3240.68L8185.84 3542.14L8296.5 3885.2L8187.78 4320.68L8374.36 4756.15L8185.84 5099.22L8229.24 5400.68L8369.07 5400.81L8341.58 5129.64L8480.57 4744.75ZM8717.84 4320.68L8651.44 3885.21L8631.63 3511.71L8668.72 3240.51L8504.1 3240.67L8460.06 3525.84L8582.61 3896.6L8460.06 4320.67L8582.61 4744.74L8460.06 5115.5L8504.1 5400.67L8668.72 5400.83L8631.63 5129.63L8651.44 4756.13L8717.84 4320.66V4320.68ZM9313.94 4744.75L9210.74 4320.68L9313.94 3896.61L9174.95 3511.72L9202.43 3240.68H9062.61L9019.21 3542.14L9207.73 3885.21L9021.15 4320.68L9207.73 4756.15L9019.21 5099.22L9062.61 5400.68H9202.43L9174.95 5129.64L9313.94 4744.75ZM8094.65 1080.34H7901L8055.62 1733.07L7920.54 2160.34L8055.62 2587.61L7901 3240.34H8094.65L8161.84 2584.41L8071.97 2160.34L8161.84 1736.27L8094.65 1080.34ZM9743.01 1351.37L9770.5 1080.26H9630.68L9587.27 1381.79L9670.26 1739.29L9578.51 2160.33L9670.26 2581.37L9587.27 2938.87L9630.68 3240.4H9770.5L9743.01 2969.29L9798.94 2593.62L9762.22 2160.32L9798.94 1727.02L9743.01 1351.35V1351.37ZM8631.62 1351.37L8668.71 1080.17L8504.09 1080.33L8460.05 1365.5L8582.6 1736.26L8460.05 2160.33L8582.6 2584.4L8460.05 2955.16L8504.09 3240.33L8668.71 3240.49L8631.62 2969.29L8651.43 2595.79L8717.83 2160.32L8651.43 1724.85L8631.62 1351.35V1351.37ZM8813.41 1745.42L8773.11 2160.34L8813.41 2575.25L8759.21 2990.32L8790.32 3240.5L8936.92 3240.33L8895.37 2965.15L8995.19 2584.4L8938.64 2160.33L8995.19 1736.26L8895.37 1355.51L8936.92 1080.33L8790.32 1080.16L8759.21 1330.34L8813.41 1745.41V1745.42ZM9337.45 1080.34L9293.41 1365.51L9415.96 1736.27L9293.41 2160.34L9415.96 2584.41L9293.41 2955.17L9337.45 3240.34H9503.08L9464.98 2969.3L9484.79 2595.8L9501.79 2160.33L9484.79 1724.86L9464.98 1351.36L9503.08 1080.33H9337.45V1080.34ZM8094.65 3240.67H7901L8055.62 3893.4L7920.54 4320.67L8055.62 4747.94L7901 5400.67H8094.65L8161.84 4744.74L8071.97 4320.67L8161.84 3896.6L8094.65 3240.67ZM9743.01 3511.71L9770.5 3240.6H9630.68L9587.27 3542.13L9670.26 3899.63L9578.51 4320.67L9670.26 4741.71L9587.27 5099.21L9630.68 5400.74H9770.5L9743.01 5129.63L9798.94 4753.96L9762.22 4320.66L9798.94 3887.36L9743.01 3511.69V3511.71ZM8813.41 3905.76L8773.11 4320.68L8813.41 4735.6L8759.21 5150.67L8790.32 5400.85L8936.92 5400.68L8895.37 5125.5L8995.19 4744.75L8938.64 4320.68L8995.19 3896.61L8895.37 3515.86L8936.92 3240.68L8790.32 3240.51L8759.21 3490.69L8813.41 3905.76ZM9337.45 3240.68L9293.41 3525.85L9415.96 3896.61L9293.41 4320.68L9415.96 4744.75L9293.41 5115.51L9337.45 5400.68H9503.08L9464.98 5129.64L9484.79 4756.14L9501.79 4320.67L9484.79 3885.2L9464.98 3511.7L9503.08 3240.66H9337.45V3240.68Z" fill="#496D20"/>
</svg>
