<svg width="443" height="2761" viewBox="0 0 443 2761" fill="none" xmlns="http://www.w3.org/2000/svg">
  <path d="M332.557 -241.901C332.557 -241.901 369.459 -235.201 439.59 -132.884C439.59 -132.884 418.025 95.1964 417.441 180.936C416.858 266.676 400.603 304.55 400.603 304.55L291.206 301.496C291.206 301.496 268.135 300.233 268.864 274.121C269.593 248.01 284.261 223.455 286.501 208.939C288.74 194.423 298.64 -44.1315 332.532 -241.877L332.557 -241.901Z" fill="#324C0B"/>
  <path d="M-67.8697 2211.72C-67.8697 2211.72 -2.629 2200.82 59.9024 2206.76C65.533 2207.29 69.5576 2212.46 68.7105 2218.05C60.1309 2274.51 18.8254 2550.09 18.324 2626.92C17.7644 2712.66 1.4853 2750.53 1.4853 2750.53L-107.911 2747.48C-107.911 2747.48 -130.983 2746.22 -130.254 2720.1C-129.525 2693.99 -114.856 2669.44 -112.616 2654.92C-110.377 2640.41 -101.785 2409.46 -67.8703 2211.74L-67.8697 2211.72Z" fill="#324C0B"/>
  <path d="M270.059 297.857C270.059 297.857 254.233 243.579 143.612 219.528C143.612 219.528 182.078 268.339 270.059 297.857Z" fill="#324C0B"/>
  <path d="M265.156 306.224C265.156 306.224 189.545 261.949 114.673 308.097C114.673 308.097 185.27 321.216 265.156 306.224Z" fill="#324C0B"/>
  <path d="M269.635 313.043C269.635 313.043 195.58 307.735 199.812 402.733C199.812 402.733 251.584 364.04 269.635 313.043Z" fill="#324C0B"/>
  <path d="M275.47 311.395C275.47 311.395 310.166 343.379 314.252 435.943C314.252 435.943 246.141 377.275 275.47 311.395Z" fill="#324C0B"/>
  <path d="M306.945 341.86C306.945 341.86 303.057 328.364 313.18 329.266C323.303 330.168 400.267 339.606 400.267 339.606C400.267 339.606 333.443 869.666 308.408 943.003C300.469 966.293 293.559 961.24 288.786 960.702C284.013 960.164 189.467 948.186 169.525 950.893C149.583 953.6 149.506 941.83 155.59 926.993C161.674 912.155 196.169 831.007 203.492 743.645C210.814 656.283 253.171 358.415 253.171 358.415C253.171 358.415 283.793 436.474 321.234 454.599C333.244 460.413 306.944 341.883 306.944 341.883L306.945 341.86Z" fill="#324C0B"/>
  <path d="M145.531 981.834C145.531 981.834 146.456 963.208 156.585 963.896C166.713 964.583 298.527 976.982 298.527 976.982C298.527 976.982 300.206 1047.37 253.036 1197.7C205.865 1348.03 176.038 1574.26 176.038 1574.26C176.038 1574.26 54.6553 1594.38 40.0013 1567.22C25.3474 1540.06 145.555 981.835 145.555 981.835L145.531 981.834Z" fill="#324C0B"/>
  <path d="M236.694 1565.42C236.694 1565.42 307.788 1531.72 372.114 1565.56C372.114 1565.56 297.853 1582.14 236.694 1565.42Z" fill="#324C0B"/>
  <path d="M241.836 1598.82C241.836 1598.82 348.802 1616.41 362.871 1708.04C362.871 1708.04 273.11 1655.25 241.836 1598.82Z" fill="#324C0B"/>
  <path d="M218.927 1606.28C218.927 1606.28 288.577 1667.83 217.674 1767.21C217.674 1767.21 200.422 1688.07 218.927 1606.28Z" fill="#324C0B"/>
  <path d="M190.578 1605.49C190.578 1605.49 186.81 1682.42 73.3142 1724.66C73.3142 1724.66 128.467 1637.39 190.578 1605.49Z" fill="#324C0B"/>
  <path d="M149.075 1610.81C149.075 1610.81 47.1921 1586.07 27.5393 1607.42C7.88656 1628.76 -63.715 2189.15 -63.715 2189.15C-63.715 2189.15 8.7713 2180.67 61.7923 2185.96C71.2471 2186.9 79.7906 2180.37 81.1725 2170.97L150.577 1702.09C150.577 1702.09 73.5303 1751.03 33.103 1758.81C33.103 1758.81 76.1001 1668.37 149.075 1610.81Z" fill="#324C0B"/>
</svg>
