<svg width="1920" height="5649" viewBox="0 0 1920 5649" fill="none" xmlns="http://www.w3.org/2000/svg">
  <path d="M340.811 62.1526C340.811 62.1526 421.841 53.1072 631.665 222.487C631.665 222.487 728.897 710.936 781.117 889.864C833.338 1068.79 823.088 1157.8 823.088 1157.8L593.351 1219.62C593.351 1219.62 544.515 1231.37 529.76 1176.53C515.005 1121.7 530.251 1061.42 525.868 1029.79C521.485 998.162 393.43 495.171 340.775 62.2161L340.811 62.1526Z" fill="#324C0B"/>
  <path d="M1035.84 5421.74C1035.84 5421.74 1164.92 5358.39 1298.85 5331.78C1310.92 5329.39 1322.51 5337.64 1324.24 5349.82C1341.56 5472.75 1427.28 6072.41 1474.12 6232.74C1526.39 6411.66 1516.09 6500.68 1516.09 6500.68L1286.35 6562.5C1286.35 6562.5 1237.51 6574.24 1222.76 6519.41C1208 6464.57 1223.25 6404.29 1218.87 6372.67C1214.49 6341.04 1088.45 5854.71 1035.86 5421.79L1035.84 5421.74Z" fill="#324C0B"/>
  <path d="M546.861 1225.27C546.861 1225.27 480.073 1122.09 234.701 1140.94C234.701 1140.94 345.233 1218.63 546.861 1225.27Z" fill="#324C0B"/>
  <path d="M541.864 1245.75C541.864 1245.75 356.801 1200.67 229.631 1343.44C229.631 1343.44 384.834 1326.76 541.864 1245.75Z" fill="#324C0B"/>
  <path d="M555.623 1257.11C555.623 1257.11 398.087 1292.21 466.106 1487.42C466.106 1487.42 549.812 1374.57 555.623 1257.11Z" fill="#324C0B"/>
  <path d="M566.749 1250.04C566.749 1250.04 658.94 1295.03 725.137 1485.26C725.137 1485.26 546.725 1405.53 566.749 1250.04Z" fill="#324C0B"/>
  <path d="M651.102 1293.92C651.102 1293.92 634.596 1268.24 656.24 1263.81C677.883 1259.38 844.055 1231.07 844.055 1231.07C844.055 1231.07 1035.23 2376.64 1028.8 2544.97C1026.78 2598.42 1009.24 2592.21 998.962 2594.06C988.686 2595.92 784.318 2629.89 744.473 2647.96C704.627 2666.03 697.133 2641.56 700.556 2606.87C703.979 2572.18 725.247 2381.68 686.05 2195.17C646.854 2008.66 549.429 1361.91 549.429 1361.91C549.429 1361.91 661.852 1505.4 751.124 1519.81C779.761 1524.44 651.116 1293.97 651.116 1293.97L651.102 1293.92Z" fill="#324C0B"/>
  <path d="M713.787 2727.35C713.787 2727.35 704.105 2687.98 725.628 2683.1C747.151 2678.22 1029.4 2621.9 1029.4 2621.9C1029.4 2621.9 1076.76 2767.45 1072.21 3109.92C1067.66 3452.4 1146.54 3942.15 1146.54 3942.15C1146.54 3942.15 906.281 4059.7 858.835 4012.27C811.39 3964.84 713.837 2727.34 713.837 2727.34L713.787 2727.35Z" fill="#324C0B"/>
  <path d="M1267.53 3885.89C1267.53 3885.89 1394.6 3771.4 1549.65 3801.78C1549.65 3801.78 1405.32 3882.59 1267.53 3885.89Z" fill="#324C0B"/>
  <path d="M1299.06 3952.24C1299.06 3952.24 1532.79 3922.21 1619.2 4104.27C1619.2 4104.27 1399.36 4050.26 1299.06 3952.24Z" fill="#324C0B"/>
  <path d="M1255.99 3982.06C1255.99 3982.06 1439.41 4066.83 1353.68 4317.98C1353.68 4317.98 1268.43 4163.92 1255.99 3982.06Z" fill="#324C0B"/>
  <path d="M1196.28 3998.12C1196.28 3998.12 1236.38 4160.69 1026.33 4319.39C1026.33 4319.39 1086.81 4103.27 1196.28 3998.12Z" fill="#324C0B"/>
  <path d="M1113.16 4035.07C1113.16 4035.07 885.56 4047.05 857.932 4103.75C830.303 4160.45 1030.44 5372.17 1030.44 5372.17C1030.44 5372.17 1176.11 5309.33 1289.83 5287.3C1310.1 5283.35 1323.83 5264.43 1320.85 5244.01L1173.17 4224.23C1173.17 4224.23 1043.22 4374.18 963.872 4415.58C963.872 4415.58 997.055 4200.43 1113.16 4035.07Z" fill="#324C0B"/>
</svg>
