<svg width="1898" height="5308" viewBox="0 0 1898 5308" fill="none" xmlns="http://www.w3.org/2000/svg">
  <path opacity="0.07" d="M170.96 0L260.83 424.07L193.64 1080H0L154.62 427.27L19.54 0H170.96ZM328.24 1080L468.07 1080.13L440.58 808.96L525.5 421.04L451.88 0H286.77L347.5 414.91L284.83 778.54L328.23 1080H328.24ZM1686.27 778.54L1729.68 1080.07H1869.5L1842.01 808.96L1897.94 433.29L1861.22 0H1677.51L1769.26 421.04L1686.27 778.54ZM681.6 424.07L559.05 794.83L603.09 1080L767.71 1080.16L730.62 808.96L750.43 435.46L816.84 0H559.05L681.6 424.07ZM1037.65 0H872.11L912.41 414.91L858.21 829.98L889.32 1080.16L1035.92 1079.99L994.37 804.81L1094.19 424.06L1037.65 0ZM1161.6 1080H1301.42L1273.94 808.96L1412.93 424.07L1309.74 0H1120.14L1306.72 435.47L1118.2 778.54L1161.6 1080ZM1583.79 435.47L1600.8 0H1392.41L1514.96 424.07L1392.41 794.83L1436.45 1080H1602.08L1563.98 808.96L1583.79 435.46V435.47ZM328.24 3240.34L468.07 3240.47L440.58 2969.3L520 2595.82L451.88 2160.34L486.5 1733.07L440.58 1351.38L468.07 1080.21L328.24 1080.34L284.84 1381.8L364.5 1724.85L286.78 2160.34L391 2595.79L284.84 2938.88L328.24 3240.34ZM1161.6 3240.34H1301.42L1273.94 2969.3L1412.93 2584.41L1309.73 2160.34L1412.93 1736.27L1273.94 1351.38L1301.42 1080.35H1161.6L1118.2 1381.81L1306.72 1724.88L1120.14 2160.35L1306.72 2595.82L1118.2 2938.89L1161.6 3240.35V3240.34ZM579.57 4744.75L451.88 4320.68L540 3893.4L440.58 3511.72L468.07 3240.55L328.24 3240.68L284.84 3542.14L395.5 3885.2L286.78 4320.68L473.36 4756.15L284.84 5099.22L328.24 5400.68L468.07 5400.81L440.58 5129.64L579.57 4744.75ZM816.84 4320.68L750.44 3885.21L730.63 3511.71L767.72 3240.51L603.1 3240.67L559.06 3525.84L681.61 3896.6L559.06 4320.67L681.61 4744.74L559.06 5115.5L603.1 5400.67L767.72 5400.83L730.63 5129.63L750.44 4756.13L816.84 4320.66V4320.68ZM1412.94 4744.75L1309.74 4320.68L1412.94 3896.61L1273.95 3511.72L1301.43 3240.68H1161.61L1118.21 3542.14L1306.73 3885.21L1120.15 4320.68L1306.73 4756.15L1118.21 5099.22L1161.61 5400.68H1301.43L1273.95 5129.64L1412.94 4744.75ZM193.65 1080.34H0L154.62 1733.07L19.54 2160.34L154.62 2587.61L0 3240.34H193.65L260.84 2584.41L170.97 2160.34L260.84 1736.27L193.65 1080.34ZM1842.01 1351.37L1869.5 1080.26H1729.68L1686.27 1381.79L1769.26 1739.29L1677.51 2160.33L1769.26 2581.37L1686.27 2938.87L1729.68 3240.4H1869.5L1842.01 2969.29L1897.94 2593.62L1861.22 2160.32L1897.94 1727.02L1842.01 1351.35V1351.37ZM730.62 1351.37L767.71 1080.17L603.09 1080.33L559.05 1365.5L681.6 1736.26L559.05 2160.33L681.6 2584.4L559.05 2955.16L603.09 3240.33L767.71 3240.49L730.62 2969.29L750.43 2595.79L816.83 2160.32L750.43 1724.85L730.62 1351.35V1351.37ZM912.41 1745.42L872.11 2160.34L912.41 2575.25L858.21 2990.32L889.32 3240.5L1035.92 3240.33L994.37 2965.15L1094.19 2584.4L1037.64 2160.33L1094.19 1736.26L994.37 1355.51L1035.92 1080.33L889.32 1080.16L858.21 1330.34L912.41 1745.41V1745.42ZM1436.45 1080.34L1392.41 1365.51L1514.96 1736.27L1392.41 2160.34L1514.96 2584.41L1392.41 2955.17L1436.45 3240.34H1602.08L1563.98 2969.3L1583.79 2595.8L1600.79 2160.33L1583.79 1724.86L1563.98 1351.36L1602.08 1080.33H1436.45V1080.34ZM193.65 3240.67H0L154.62 3893.4L19.54 4320.67L154.62 4747.94L0 5400.67H193.65L260.84 4744.74L170.97 4320.67L260.84 3896.6L193.65 3240.67ZM1842.01 3511.71L1869.5 3240.6H1729.68L1686.27 3542.13L1769.26 3899.63L1677.51 4320.67L1769.26 4741.71L1686.27 5099.21L1729.68 5400.74H1869.5L1842.01 5129.63L1897.94 4753.96L1861.22 4320.66L1897.94 3887.36L1842.01 3511.69V3511.71ZM912.41 3905.76L872.11 4320.68L912.41 4735.6L858.21 5150.67L889.32 5400.85L1035.92 5400.68L994.37 5125.5L1094.19 4744.75L1037.64 4320.68L1094.19 3896.61L994.37 3515.86L1035.92 3240.68L889.32 3240.51L858.21 3490.69L912.41 3905.76ZM1436.45 3240.68L1392.41 3525.85L1514.96 3896.61L1392.41 4320.68L1514.96 4744.75L1392.41 5115.51L1436.45 5400.68H1602.08L1563.98 5129.64L1583.79 4756.14L1600.79 4320.67L1583.79 3885.2L1563.98 3511.7L1602.08 3240.66H1436.45V3240.68Z" fill="#496D20"/>
</svg>
