<svg width="893" height="144" viewBox="0 0 893 144" fill="none" xmlns="http://www.w3.org/2000/svg">
  <path d="M96.285 143.055H0V0.711716H91.5063L132.176 36.6025V112.553L96.285 143.055ZM78.4921 113.061L103.199 88.3544V47.1766L29.0787 30.7055V113.061H78.4921Z" fill="white"/>
  <path d="M208.024 143.055L167.355 132.887L152.104 109.401L147.02 0.711716H187.69V105.334L208.024 120.687L248.694 110.519L241.983 0.711716H279.196V112.553L248.694 139.903L208.024 143.055Z" fill="white"/>
  <path d="M406.085 143.055H365.415L355.248 88.4561L337.76 88.1511L330.541 143.055H294.244L300.954 4.27029L365.415 0.711716L402.526 10.8791L398.866 61.7159L375.583 82.0507L406.085 143.055ZM324.237 64.0544L358.705 60.8009L380.26 31.7222L345.182 19.4197L324.034 22.2665L324.237 64.0544Z" fill="white"/>
  <path d="M425.809 0.711716H464.445L465.869 143.055H425.809V0.711716Z" fill="white"/>
  <path d="M608.619 143.055H567.949L547.615 102.385H527.28L506.945 143.055H476.443L511.419 0.915063L567.949 1.22008L608.619 143.055ZM557.782 77.577L533.584 21.0465L517.112 77.577H557.782Z" fill="white"/>
  <path d="M741.201 143.055H706.225V122.72L659.252 51.5486L651.322 143.055H614.719L624.886 0.711716H665.556L706.225 102.385L719.646 0.711716H746.895L741.201 143.055Z" fill="white"/>
  <path d="M783.294 0L844.908 3.8636L885.985 20.5381L893 65.1728L889.543 123.229L844.908 143.767L779.736 140.615L756.554 92.4214V41.0762L783.294 0ZM810.644 28.2653L786.141 62.326L799.969 110.113L838.3 114.891L862.6 90.9979L859.244 40.0594L810.644 28.2653Z" fill="white"/>
</svg>
