<svg width="495" height="91" viewBox="0 0 495 91" fill="none" xmlns="http://www.w3.org/2000/svg">
  <path d="M0.6875 2.75H16.9375L20.6875 46.5L58.1875 44.625L54.1875 0.875H79.5C81.2083 0.875 83.7917 29.125 87.25 85.625L64.4375 86.4375L60.75 57.125L20.6875 59L22.5 87.5L4.0625 90.25L0.6875 2.75ZM109.562 1.0625L147.438 3.4375L172.688 13.6875L177 41.125L174.875 76.8125L147.438 89.4375L107.375 87.5L93.125 57.875V26.3125L109.562 1.0625ZM126.375 18.4375L111.312 39.375L119.812 68.75L143.375 71.6875L158.312 57L156.25 25.6875L126.375 18.4375ZM180.438 1.5H201.938L224.188 55.0625L239.812 1.5L259.438 57.75L277.75 1.5H295.125L274.188 89H253.312L242.938 51.5L227.812 89H197L180.438 1.5ZM390.125 89H353.25L355.938 23.875L331.562 22.25V1.5H405.312V22.625L380.938 26.5L390.125 89ZM427.062 1.0625L464.938 3.4375L490.188 13.6875L494.5 41.125L492.375 76.8125L464.938 89.4375L424.875 87.5L410.625 57.875V26.3125L427.062 1.0625ZM443.875 18.4375L428.812 39.375L437.312 68.75L460.875 71.6875L475.812 57L473.75 25.6875L443.875 18.4375Z" fill="#496D20"/>
</svg>