<svg width="163" height="88" viewBox="0 0 163 88" fill="none" xmlns="http://www.w3.org/2000/svg">
  <path d="M63.5 38L157.5 42L162.5 87.5L58.5 81.5L63.5 38Z" fill="#496D20"/>
  <path d="M74.8379 59.0426L73.1656 53.097L79.2644 48.2056L85.1496 47.8013L88.9224 50.6988L87.1092 59.6266L78.3192 68.0659L88.0923 68.14L87.1858 75.2729L72.2036 73.3085L72.5156 66.7534L84.0806 57.5271L84.2226 51.6679L79.1112 51.4246L74.8379 59.0426ZM96.7687 47.7091L103.982 48.1697L108.16 56.0921L108.602 70.2307L106.147 76.6251C105.683 76.7855 102.092 76.9079 95.375 76.9923L91.9664 73.4278L92.1044 55.328L96.7687 47.7091ZM98.8824 53.4215L96.6473 60.1197L98.0133 71.682L103.903 68.7165L104.295 60.4836L98.8824 53.4215ZM114.403 60.9256L112.73 54.98L118.829 50.0886L124.714 49.6843L128.487 52.5818L126.674 61.5096L117.884 69.9489L127.657 70.023L126.75 77.156L111.768 75.1915L112.08 68.6364L123.645 59.4101L123.787 53.5509L118.676 53.3076L114.403 60.9256ZM139.522 50.3891L143.248 50.5664L136.007 64.6717L142.435 65.1732L144.497 50.6259L148.398 50.8116L145.733 65.7213L147.684 65.8141L148.064 71.3854L144.569 71.2777L145.148 78.0315L138.573 77.7186L140.408 69.9846L131.121 69.5426L139.522 50.3891Z" fill="white"/>
  <path d="M21.6599 59H71.0842L62.4348 3.00648L3.47237 15.8045L21.6599 59Z" fill="#496D20" stroke="#6FA72E" stroke-width="5"/>
  <path d="M42.8438 49.2188L37.0469 48.6875L35.7188 44H25.6562C25.2708 44 23.9844 42.4375 21.7969 39.3125L20.9688 31.5L24.7656 22.125H36.5938L40.5625 26.8125L42.8438 32.4062V39.3125L39.0781 44L42.8438 45.5625V49.2188ZM34.2812 39.625L38.9844 33.5L35.2031 26.9688L29.6094 25.5625L25.7031 32.5938L27.7344 39.625H34.2812ZM45.0938 22.6719L57.5938 22.125V26.0781L51.9688 31L56.6875 33.7969L57.5938 41.375L49.2344 44L44.1875 42.4375L45.0938 38.375L49.7812 40.875L52.9062 35.2188L46.6562 32.625L54.0312 25.7188L45.0938 25.25V22.6719Z" fill="white"/>
</svg>
