<svg width="657" height="211" viewBox="0 0 657 211" fill="none" xmlns="http://www.w3.org/2000/svg">
  <path d="M5.8125 11.8557L10.8125 12.051L13.625 14.7659L15.5781 18.6721L11.6719 23.262L6.41797 24.5315L2.78516 22.5784L0.8125 18.0276L1.90625 14.0823L5.8125 11.8557ZM63.8594 16.3284L62.8047 26.8557L53.0391 30.0002L40.0898 28.9456L39.3672 14.3752L43.2734 2.65649H53.0391L64.0547 4.60962L57.9219 10.469L48.4297 5.87915L43.4688 14.3752L45.5391 24.8049L54.0938 25.3713L53.8398 19.6292L48.5078 19.0042L49.0938 15.3713L63.8594 16.3284ZM90.6953 30.0002H82.8828L78.9766 22.1877H75.0703L71.1641 30.0002H65.3047L72.0234 2.69556L82.8828 2.75415L90.6953 30.0002ZM80.9297 17.4221L76.2812 6.56274L73.1172 17.4221H80.9297ZM91.8672 30.0002L94.875 2.65649H101.633L107.492 14.3752L115.305 2.65649H123.117L122.531 30.0002H112.473L113.352 17.0315L106.809 24.7463L100.754 16.3284L97.7266 30.0002H91.8672ZM125.773 30.0002V2.65649L143.352 0.703369V6.56274L130.695 8.51587L130.383 12.4221H143.352V17.4612L131.633 18.2815V23.594L143.352 23.2815V28.9456L125.773 30.0002ZM156.242 2.65649L162.102 5.17603L161.242 23.3987L173.82 24.1409L175.188 30.0002L156.242 30.1956V2.65649ZM202.102 30.0002H194.289L190.383 22.1877H186.477L182.57 30.0002H176.711L183.43 2.69556L194.289 2.75415L202.102 30.0002ZM192.336 17.4221L187.688 6.56274L184.523 17.4221H192.336ZM215.578 30.0002L207.766 28.0471L204.836 23.5354L203.859 2.65649H211.672V22.7542L215.578 25.7034L223.391 23.7502L222.102 2.65649H229.25V24.1409L223.391 29.3948L215.578 30.0002ZM256.047 30.0002H249.328V26.094L240.305 12.4221L238.781 30.0002H231.75L233.703 2.65649H241.516L249.328 22.1877L251.906 2.65649H257.141L256.047 30.0002ZM276.906 30.0002H265.363L259.895 23.2815C259.712 23.2555 259.621 22.689 259.621 21.5823C259.621 19.3818 259.979 15.0263 260.695 8.51587L266.008 2.65649H275.109L282.961 6.56274L279.191 12.4221L271.75 9.25806L264.602 17.0315L271.047 24.8049L281.242 20.2346L284.797 24.1409L276.906 30.0002ZM287.062 3.04712H292.141L293.312 16.719L305.031 16.1331L303.781 2.46118H311.691C312.225 2.46118 313.033 11.2893 314.113 28.9456L306.984 29.1995L305.832 20.0393L293.312 20.6252L293.879 29.5315L288.117 30.3909L287.062 3.04712Z" fill="white"/>
  <path d="M69.8125 55.8557L74.8125 56.051L77.625 58.7659L79.5781 62.6721L75.6719 67.262L70.418 68.5315L66.7852 66.5784L64.8125 62.0276L65.9062 58.0823L69.8125 55.8557ZM102.781 74.0002L105.789 46.6565H112.547L118.406 58.3752L126.219 46.6565H134.031L133.445 74.0002H123.387L124.266 61.0315L117.723 68.7463L111.668 60.3284L108.641 74.0002H102.781ZM137.703 46.6565H145.125L145.398 74.0002H137.703V46.6565ZM172.117 74.0002H165.398V70.094L156.375 56.4221L154.852 74.0002H147.82L149.773 46.6565H157.586L165.398 66.1877L167.977 46.6565H173.211L172.117 74.0002ZM193.699 74.0002H182.176L183.016 53.6487L175.398 53.1409V46.6565H198.445V53.2581L190.828 54.469L193.699 74.0002ZM228.66 74.0002H217.137L217.977 53.6487L210.359 53.1409V46.6565H233.406V53.2581L225.789 54.469L228.66 74.0002ZM235.789 47.0471H240.867L242.039 60.719L253.758 60.1331L252.508 46.4612H260.418C260.952 46.4612 261.759 55.2893 262.84 72.9456L255.711 73.1995L254.559 64.0393L242.039 64.6252L242.605 73.5315L236.844 74.3909L235.789 47.0471ZM265.398 74.0002V46.6565L282.977 44.7034V50.5627L270.32 52.5159L270.008 56.4221H282.977V61.4612L271.258 62.2815V67.594L282.977 67.2815V72.9456L265.398 74.0002ZM295.672 48.6096L312.254 46.6565L313.25 52.5159H302.137L302.195 58.3752H313.25L312.508 64.2346H303.484L302.312 74.0002H295.672V48.6096ZM316.883 46.6565H324.305L324.578 74.0002H316.883V46.6565ZM348.875 74.0002H341.062L339.109 63.512L335.75 63.4534L334.363 74.0002H327.391L328.68 47.3401L341.062 46.6565L348.191 48.6096L347.488 58.3752L343.016 62.2815L348.875 74.0002ZM333.152 58.8245L339.773 58.1995L343.914 52.6135L337.176 50.2502L333.113 50.7971L333.152 58.8245ZM366.727 56.4221H359.129L369.812 64.2346L369.012 73.1995L360.047 74.0002L350.926 72.9456L354.188 65.6213L358.875 68.1409H363.152L360.047 64.2346L352.234 59.2542L351.688 51.9299L356.141 47.262L363.953 47.3987L369.812 50.0159L366.727 56.4221ZM390.457 74.0002H378.934L379.773 53.6487L372.156 53.1409V46.6565H395.203V53.2581L387.586 54.469L390.457 74.0002ZM431.219 74.0002H424.5V70.094L415.477 56.4221L413.953 74.0002H406.922L408.875 46.6565H416.688L424.5 66.1877L427.078 46.6565H432.312L431.219 74.0002ZM434.891 48.6096L451.473 46.6565L452.469 52.5159H441.355L441.414 58.3752H452.469L451.727 64.2346H442.703L441.531 74.0002H434.891V48.6096ZM472.996 74.0002H461.473L462.312 53.6487L454.695 53.1409V46.6565H477.742V53.2581L470.125 54.469L472.996 74.0002ZM120.555 120H109.012L103.543 113.281C103.361 113.255 103.27 112.689 103.27 111.582C103.27 109.382 103.628 105.026 104.344 98.5159L109.656 92.6565H118.758L126.609 96.5627L122.84 102.422L115.398 99.2581L108.25 107.031L114.695 114.805L124.891 110.235L128.445 114.141L120.555 120ZM135.125 92.5198L146.961 93.262L154.852 96.4651L156.199 105.039L155.535 116.192L146.961 120.137L134.441 119.531L129.988 110.274V100.41L135.125 92.5198ZM140.379 97.9495L135.672 104.492L138.328 113.672L145.691 114.59L150.359 110L149.715 100.215L140.379 97.9495ZM158.445 92.6565L164.305 95.176L163.445 113.399L176.023 114.141L177.391 120L158.445 120.196V92.6565ZM180.086 92.6565L185.945 95.176L185.086 113.399L197.664 114.141L199.031 120L180.086 120.196V92.6565ZM201.531 120V92.6565L219.109 90.7034V96.5627L206.453 98.5159L206.141 102.422H219.109V107.461L207.391 108.281V113.594L219.109 113.281V118.946L201.531 120ZM239.07 120H227.527L222.059 113.281C221.876 113.255 221.785 112.689 221.785 111.582C221.785 109.382 222.143 105.026 222.859 98.5159L228.172 92.6565H237.273L245.125 96.5627L241.355 102.422L233.914 99.2581L226.766 107.031L233.211 114.805L243.406 110.235L246.961 114.141L239.07 120ZM267.137 120H255.613L256.453 99.6487L248.836 99.1409V92.6565H271.883V99.2581L264.266 100.469L267.137 120ZM275.281 92.6565H282.703L282.977 120H275.281V92.6565ZM290.398 92.5198L302.234 93.262L310.125 96.4651L311.473 105.039L310.809 116.192L302.234 120.137L289.715 119.531L285.262 110.274V100.41L290.398 92.5198ZM295.652 97.9495L290.945 104.492L293.602 113.672L300.965 114.59L305.633 110L304.988 100.215L295.652 97.9495ZM337.234 120H330.516V116.094L321.492 102.422L319.969 120H312.938L314.891 92.6565H322.703L330.516 112.188L333.094 92.6565H338.328L337.234 120Z" fill="white"/>
  <path d="M133.812 145.856L138.812 146.051L141.625 148.766L143.578 152.672L139.672 157.262L134.418 158.531L130.785 156.578L128.812 152.028L129.906 148.082L133.812 145.856ZM167.562 136.656L173.422 139.176L172.562 157.399L185.141 158.141L186.508 164L167.562 164.196V136.656ZM213.422 164H205.609L201.703 156.188H197.797L193.891 164H188.031L194.75 136.696L205.609 136.754L213.422 164ZM203.656 151.422L199.008 140.563L195.844 151.422H203.656ZM226.898 164L219.086 162.047L216.156 157.535L215.18 136.656H222.992V156.754L226.898 159.703L234.711 157.75L233.422 136.656H240.57V158.141L234.711 163.395L226.898 164ZM267.367 164H260.648V160.094L251.625 146.422L250.102 164H243.07L245.023 136.656H252.836L260.648 156.188L263.227 136.656H268.461L267.367 164ZM288.227 164H276.684L271.215 157.281C271.033 157.255 270.941 156.689 270.941 155.582C270.941 153.382 271.299 149.026 272.016 142.516L277.328 136.656H286.43L294.281 140.563L290.512 146.422L283.07 143.258L275.922 151.031L282.367 158.805L292.562 154.235L296.117 158.141L288.227 164ZM298.383 137.047H303.461L304.633 150.719L316.352 150.133L315.102 136.461H323.012C323.546 136.461 324.353 145.289 325.434 162.946L318.305 163.199L317.152 154.039L304.633 154.625L305.199 163.531L299.438 164.391L298.383 137.047ZM329.008 136.656H336.43L336.703 164H329.008V136.656ZM363.422 164H356.703V160.094L347.68 146.422L346.156 164H339.125L341.078 136.656H348.891L356.703 156.188L359.281 136.656H364.516L363.422 164ZM391.586 150.328L390.531 160.856L380.766 164L367.816 162.946L367.094 148.375L371 136.656H380.766L391.781 138.61L385.648 144.469L376.156 139.879L371.195 148.375L373.266 158.805L381.82 159.371L381.566 153.629L376.234 153.004L376.82 149.371L391.586 150.328ZM421.84 164H410.316L411.156 143.649L403.539 143.141V136.656H426.586V143.258L418.969 144.469L421.84 164ZM428.969 137.047H434.047L435.219 150.719L446.938 150.133L445.688 136.461H453.598C454.132 136.461 454.939 145.289 456.02 162.946L448.891 163.199L447.738 154.039L435.219 154.625L435.785 163.531L430.023 164.391L428.969 137.047ZM458.578 164V136.656L476.156 134.703V140.563L463.5 142.516L463.188 146.422H476.156V151.461L464.438 152.281V157.594L476.156 157.281V162.946L458.578 164ZM489.867 136.656H497.289L497.562 164H489.867V136.656ZM524.281 164H517.562V160.094L508.539 146.422L507.016 164H499.984L501.938 136.656H509.75L517.562 156.188L520.141 136.656H525.375L524.281 164ZM527.602 147.946L537.68 147.75L538.305 152.887L527.992 153.512L527.602 147.946ZM565.531 150.328L564.477 160.856L554.711 164L541.762 162.946L541.039 148.375L544.945 136.656H554.711L565.727 138.61L559.594 144.469L550.102 139.879L545.141 148.375L547.211 158.805L555.766 159.371L555.512 153.629L550.18 153.004L550.766 149.371L565.531 150.328ZM592.367 164H584.555L580.648 156.188H576.742L572.836 164H566.977L573.695 136.696L584.555 136.754L592.367 164ZM582.602 151.422L577.953 140.563L574.789 151.422H582.602ZM593.539 164L596.547 136.656H603.305L609.164 148.375L616.977 136.656H624.789L624.203 164H614.145L615.023 151.031L608.48 158.746L602.426 150.328L599.398 164H593.539ZM627.445 164V136.656L645.023 134.703V140.563L632.367 142.516L632.055 146.422H645.023V151.461L633.305 152.281V157.594L645.023 157.281V162.946L627.445 164ZM185.277 210H173.754L174.594 189.649L166.977 189.141V182.656H190.023V189.258L182.406 190.469L185.277 210ZM196.82 182.52L208.656 183.262L216.547 186.465L217.895 195.039L217.23 206.192L208.656 210.137L196.137 209.531L191.684 200.274V190.41L196.82 182.52ZM202.074 187.949L197.367 194.492L200.023 203.672L207.387 204.59L212.055 200L211.41 190.215L202.074 187.949ZM241.43 210L226.664 199.512L225.805 210H220.805L219.945 182.656H223.852L226.664 195.117L233.617 182.656H243.383C243.461 182.656 243.5 182.702 243.5 182.793C243.5 183.705 240.206 188.867 233.617 198.281L243.383 206.094L241.43 210ZM245.961 210V182.656L263.539 180.703V186.563L250.883 188.516L250.57 192.422H263.539V197.461L251.82 198.281V203.594L263.539 203.281V208.946L245.961 210ZM290.023 210H283.305V206.094L274.281 192.422L272.758 210H265.727L267.68 182.656H275.492L283.305 202.188L285.883 182.656H291.117L290.023 210Z" fill="white"/>
</svg>
