<svg width="444" height="153" viewBox="0 0 444 153" fill="none" xmlns="http://www.w3.org/2000/svg">
  <path d="M11.8203 22.8574C11.8203 24.459 11.2539 25.8262 10.1211 26.959C9.0013 28.0788 7.64714 28.6387 6.05859 28.6387C4.45703 28.6387 3.08984 28.0723 1.95703 26.9395C0.83724 25.8066 0.277344 24.446 0.277344 22.8574C0.277344 21.2689 0.83724 19.9147 1.95703 18.7949C3.08984 17.6621 4.45703 17.0957 6.05859 17.0957C7.64714 17.0957 9.0013 17.6556 10.1211 18.7754C11.2539 19.8952 11.8203 21.2559 11.8203 22.8574ZM38.52 6.87805L41.2 3.39805C43.4 4.31805 46.2 5.87804 47.56 7.15804L44.72 10.958C43.48 9.67805 40.68 7.91804 38.52 6.87805ZM37.08 17.598L39.72 14.038C41.96 14.878 44.8 16.358 46.16 17.558L43.4 21.438C42.08 20.198 39.32 18.558 37.08 17.598ZM37.52 37.798C38.96 34.558 40.92 29.438 42.36 24.678L46.28 27.078C45 31.438 43.4 36.158 41.88 40.118L37.52 37.798ZM62.88 7.75805H74.76V12.318H62.88V7.75805ZM62.28 15.318H72.16V19.478H62.28V15.318ZM60.6 24.838H74.84V29.158H60.6V24.838ZM62.72 3.07804L67.28 3.87804C66.4 9.15805 64.68 14.358 62.52 17.638C61.64 16.958 59.56 15.798 58.44 15.278C60.64 12.398 62 7.71804 62.72 3.07804ZM65.56 21.478H70V35.838C70 37.998 69.64 39.198 68.2 39.918C66.76 40.598 64.8 40.678 62.12 40.678C62 39.398 61.4 37.558 60.88 36.278C62.52 36.358 64.32 36.358 64.88 36.358C65.4 36.358 65.56 36.238 65.56 35.758V21.478ZM70.28 15.318H71.28L72.12 15.038L74.92 17.038C73.32 19.798 71.04 22.918 69 24.958C68.4 24.078 67.12 22.758 66.4 22.118C67.88 20.558 69.52 17.878 70.28 16.118V15.318ZM46.32 8.79805H60.48V13.358H46.32V8.79805ZM50.8 17.758H57.6V22.118H50.8V17.758ZM51.32 3.11804H55.92V11.998H51.32V3.11804ZM55.84 17.758H60.16C60.16 17.758 60.16 19.078 60.12 19.638C59.72 32.438 59.32 37.238 58.24 38.718C57.44 39.798 56.68 40.198 55.6 40.398C54.68 40.598 53.24 40.598 51.68 40.558C51.6 39.238 51.2 37.438 50.52 36.278C51.72 36.358 52.72 36.398 53.28 36.398C53.8 36.398 54.12 36.278 54.44 35.798C55.12 34.838 55.52 30.678 55.84 18.598V17.758ZM49.24 12.158H53.64C53.4 22.958 52.8 33.838 47.04 40.518C46.32 39.478 44.96 38.118 43.8 37.398C48.88 31.598 49.08 21.718 49.24 12.158ZM77.72 7.31805H89.8V11.558H77.72V7.31805ZM88.72 7.31805H89.56L90.36 7.15804L93.44 8.19805C91.76 21.558 87.28 31.878 80.24 37.878C79.48 36.678 77.92 34.838 76.76 33.998C83.04 29.278 87.4 19.078 88.72 8.35805V7.31805ZM77.56 15.998L80.84 13.238C85.36 18.958 91.48 26.678 94.16 31.558L90.44 34.958C87.92 29.958 82.08 21.918 77.56 15.998ZM93.04 14.198L113.68 11.758L114.24 16.078L93.64 18.598L93.04 14.198ZM104 5.71804L107.4 3.19805C109.12 4.83805 111.56 7.15804 112.72 8.67805L109.08 11.518C108.04 9.95804 105.68 7.47805 104 5.71804ZM96.96 3.27804H101.96C102.12 20.558 104.12 33.798 109 34.598C109.92 34.678 110.36 32.718 110.64 28.478C111.56 29.518 113.76 30.878 114.68 31.358C113.64 38.958 111.44 40.718 109.24 40.558C99.6 39.518 97.52 25.478 96.96 3.27804ZM109.16 17.398L113 19.678C109.72 27.598 103.2 35.358 96 39.198C95.08 38.038 93.56 36.558 92.2 35.638C99.72 32.318 106.12 24.918 109.16 17.398ZM133.12 20.998C136.56 29.158 143.8 34.438 155.12 36.318C154.12 37.318 152.8 39.358 152.12 40.678C140.28 38.238 133.24 32.158 129 22.198L133.12 20.998ZM146.12 19.398H147.08L148 19.198L151.32 20.718C147.64 32.158 138.92 37.838 128 40.638C127.48 39.358 126.36 37.478 125.44 36.438C135.24 34.358 143.36 29.078 146.12 20.198V19.398ZM131.64 19.398H146.84V23.998H130.24L131.64 19.398ZM133.6 2.75804L138.96 3.63804C136.88 19.518 132.24 30.838 120.28 37.518C119.64 36.478 117.92 34.518 116.76 33.638C127.56 27.838 131.88 17.038 133.6 2.75804ZM142.68 5.39805L146.44 3.15805C147.96 4.83805 150.2 7.19804 151.24 8.63804L147.36 11.158C146.36 9.67805 144.24 7.19804 142.68 5.39805ZM121.32 16.998C121.04 15.998 120.28 13.838 119.76 12.678C120.36 12.478 120.96 11.918 121.48 10.998C121.96 10.158 123.52 7.03805 124.28 3.87804L129.32 4.67805C128.32 8.19805 126.4 12.038 124.96 14.358V14.438C124.96 14.438 121.32 15.998 121.32 16.998ZM121.32 16.998V13.478L124.16 11.518H153.8L153.76 16.078H125.52C123.4 16.078 121.68 16.398 121.32 16.998ZM158.12 8.71805H193.96V13.318H158.12V8.71805ZM175.64 14.798H180.52V40.598H175.64V14.798ZM164.52 19.398H189.24V23.918H169.32V37.038H164.52V19.398ZM187.16 19.398H192.04V31.878C192.04 34.078 191.56 35.318 190 36.038C188.44 36.718 186.28 36.758 183.28 36.758C183.08 35.438 182.36 33.598 181.76 32.398C183.6 32.478 185.76 32.478 186.32 32.478C186.96 32.438 187.16 32.278 187.16 31.798V19.398ZM170.96 2.95805L175.92 4.07805C173 13.918 168 23.878 159.44 29.838C158.8 28.638 157.56 26.678 156.68 25.598C164.2 20.638 168.84 11.358 170.96 2.95805Z" fill="white"/>
  <path d="M75.8203 76.8574C75.8203 78.459 75.2539 79.8262 74.1211 80.959C73.0013 82.0788 71.6471 82.6387 70.0586 82.6387C68.457 82.6387 67.0898 82.0723 65.957 80.9395C64.8372 79.8066 64.2773 78.446 64.2773 76.8574C64.2773 75.2689 64.8372 73.9147 65.957 72.7949C67.0898 71.6621 68.457 71.0957 70.0586 71.0957C71.6471 71.0957 73.0013 71.6556 74.1211 72.7754C75.2539 73.8952 75.8203 75.2559 75.8203 76.8574ZM106 57.118L110.28 58.398C108.68 63.038 106.04 67.918 103 70.958C102.68 69.918 101.48 67.398 100.76 66.278C103 64.038 104.92 60.638 106 57.118ZM106.08 60.878H114.48V65.278H105.32L106.08 60.878ZM105.92 94.638L105 90.358L106.16 88.838L113.48 84.078C113.72 85.358 114.24 87.238 114.64 88.238C107.92 92.838 106.6 93.798 105.92 94.638ZM103.12 68.398H113.88V72.678H103.12V68.398ZM102.08 76.958H114.72V81.238H102.08V76.958ZM115.68 60.358H137.6V64.198H115.68V60.358ZM114.6 71.878H138.68V75.878H114.6V71.878ZM121.32 78.638H138V82.678H121.32V78.638ZM116.6 66.078H136.56V69.878H116.6V66.078ZM131.08 76.558H135.56V89.998C135.56 92.118 135.2 93.238 133.72 93.878C132.24 94.518 130.32 94.598 127.6 94.598C127.4 93.358 126.76 91.638 126.2 90.478C127.92 90.558 129.8 90.558 130.36 90.518C130.92 90.518 131.08 90.398 131.08 89.918V76.558ZM121.96 85.118L125.36 82.958C126.8 84.438 128.6 86.518 129.4 87.918L125.8 90.318C125.12 88.878 123.44 86.718 121.96 85.118ZM123.4 57.038L128.08 57.278C126.96 73.238 124.24 85.278 116.32 92.718C115.64 91.878 113.56 90.158 112.48 89.398C120.2 83.078 122.56 71.678 123.4 57.038ZM105.92 94.638C105.56 93.518 104.56 91.598 103.8 90.678C104.68 90.118 105.88 88.918 105.88 87.078V69.878H110.2V90.438C110.2 90.438 105.92 93.038 105.92 94.638ZM157.6 61.558H176.6V65.638H157.6V61.558ZM152.36 68.998H178.24V72.998H152.36V68.998ZM157.04 57.438L161.48 58.438C160.12 62.558 157.76 66.518 155.36 69.078C154.44 68.358 152.44 67.278 151.32 66.758C153.84 64.518 155.88 60.958 157.04 57.438ZM163.08 57.038H167.84V71.678H163.08V57.038ZM151.08 72.638V87.358H146.4V77.078H141.72V72.638H151.08ZM151.08 85.278C152.68 87.918 155.72 89.078 159.88 89.238C164.56 89.438 173.64 89.318 179.04 88.878C178.52 89.998 177.72 92.318 177.52 93.758C172.68 93.998 164.6 94.078 159.8 93.878C154.88 93.678 151.56 92.518 148.96 89.398C147.2 90.958 145.4 92.478 143.24 94.238L140.88 89.238C142.68 88.118 144.84 86.718 146.68 85.278H151.08ZM141.8 60.838L145.36 57.958C147.76 59.638 150.68 62.158 152.08 64.038L148.24 67.198C147.04 65.318 144.16 62.638 141.8 60.838ZM160.28 78.998V83.078H170.84V78.998H160.28ZM155.6 75.198H175.84V86.918H155.6V75.198ZM189.72 75.918H210.2V79.598H189.72V75.918ZM189.72 82.198H210.2V85.838H189.72V82.198ZM189.72 88.558H210.24V92.718H189.72V88.558ZM181.92 62.398H218.2V66.838H181.92V62.398ZM185.84 69.318H213.92V94.598H208.92V73.478H190.64V94.598H185.84V69.318ZM197.52 65.038L203.6 65.198C202.68 67.758 201.4 70.158 200.48 71.878L195.8 71.318C196.52 69.478 197.2 66.918 197.52 65.038ZM206.88 56.918L212.4 58.118C210.84 60.438 209.08 62.638 207.72 64.118L203.44 62.918C204.68 61.238 206.08 58.758 206.88 56.918ZM188.16 58.638L192.44 56.758C193.96 58.158 195.56 60.118 196.4 61.478L191.92 63.798C191.24 62.398 189.6 60.198 188.16 58.638ZM239.84 62.118C236.6 67.078 230.36 72.758 223.6 76.598C222.92 75.438 221.52 73.638 220.44 72.638C227.56 68.918 234.08 62.318 237 57.118H242.2C246.52 63.718 253.08 69.238 259.68 72.118C258.4 73.358 257.32 74.998 256.4 76.518C249.96 72.958 243.2 67.078 239.84 62.118ZM237.28 70.678H242.4V94.598H237.28V70.678ZM262.969 90.998V62.3652H268.594L280.312 81.4863V62.3652H285.684V90.998H279.883L268.34 72.3262V90.998H262.969ZM291.855 90.998V62.3652H311.484V67.209H297.637V73.9863H309.59V78.8301H297.637V90.998H291.855ZM322.715 90.998V67.209H314.219V62.3652H336.973V67.209H328.496V90.998H322.715ZM347.613 83.718L352.613 85.598C350.133 88.718 346.253 92.038 343.133 94.078C342.133 93.118 340.053 91.518 338.773 90.758C342.053 89.078 345.573 86.318 347.613 83.718ZM362.533 86.238L366.573 83.518C369.733 85.558 374.013 88.678 376.133 90.878L371.773 93.958C369.933 91.798 365.813 88.478 362.533 86.238ZM342.573 69.758L345.893 66.678C349.213 68.558 353.653 71.558 355.813 73.798L352.213 77.278C350.253 75.038 346.013 71.838 342.573 69.758ZM363.373 74.718L367.293 72.238C370.573 74.958 374.773 78.918 376.773 81.678L372.453 84.518C370.693 81.798 366.653 77.638 363.373 74.718ZM355.133 80.158H360.253V94.598H355.133V80.158ZM339.613 77.958C347.733 77.878 360.533 77.598 372.053 77.358L371.813 81.678C360.453 82.198 348.253 82.558 340.093 82.758L339.613 77.958ZM363.493 64.038L368.173 66.518C362.973 71.838 356.053 77.518 350.653 81.118L346.853 78.638C352.333 74.998 359.253 68.958 363.493 64.038ZM353.373 61.278L358.093 63.558C355.573 66.478 352.493 69.598 350.133 71.558L346.213 69.438C348.573 67.358 351.613 63.958 353.373 61.278ZM370.093 57.398L373.493 61.478C364.613 63.278 352.373 64.078 341.973 64.198C341.853 62.958 341.293 60.998 340.853 59.878C351.173 59.678 362.933 58.878 370.093 57.398ZM400.933 61.518H405.653V83.598H400.933V61.518ZM410.253 57.798H415.013V88.878C415.013 91.598 414.453 92.918 412.893 93.678C411.213 94.438 408.733 94.598 405.133 94.598C404.893 93.238 404.213 91.118 403.533 89.798C405.933 89.878 408.453 89.838 409.213 89.838C409.973 89.838 410.253 89.598 410.253 88.878V57.798ZM385.853 67.718H396.133V72.078H385.853V67.718ZM379.973 58.838H399.852V63.278H379.973V58.838ZM383.413 78.278L385.653 74.718C387.973 76.038 391.213 78.038 392.773 79.358L390.373 83.398C388.893 81.958 385.733 79.798 383.413 78.278ZM394.453 67.718H395.373L396.173 67.558L399.173 68.558C397.173 81.798 391.813 90.438 384.453 94.718C383.733 93.678 381.933 91.918 380.853 91.198C388.053 87.398 392.893 79.998 394.453 68.678V67.718ZM386.573 61.278L391.373 62.198C389.533 69.118 386.533 76.878 381.733 81.598C380.893 80.678 379.333 79.238 378.333 78.478C382.653 74.358 385.373 67.158 386.573 61.278Z" fill="white"/>
  <path d="M139.82 129.857C139.82 131.459 139.254 132.826 138.121 133.959C137.001 135.079 135.647 135.639 134.059 135.639C132.457 135.639 131.09 135.072 129.957 133.939C128.837 132.807 128.277 131.446 128.277 129.857C128.277 128.269 128.837 126.915 129.957 125.795C131.09 124.662 132.457 124.096 134.059 124.096C135.647 124.096 137.001 124.656 138.121 125.775C139.254 126.895 139.82 128.256 139.82 129.857ZM166.52 113.878L169.2 110.398C171.4 111.318 174.2 112.878 175.56 114.158L172.72 117.958C171.48 116.678 168.68 114.918 166.52 113.878ZM165.08 124.598L167.72 121.038C169.96 121.878 172.8 123.358 174.16 124.558L171.4 128.438C170.08 127.198 167.32 125.558 165.08 124.598ZM165.52 144.798C166.96 141.558 168.92 136.438 170.36 131.678L174.28 134.078C173 138.438 171.4 143.158 169.88 147.118L165.52 144.798ZM190.88 114.758H202.76V119.318H190.88V114.758ZM190.28 122.318H200.16V126.478H190.28V122.318ZM188.6 131.838H202.84V136.158H188.6V131.838ZM190.72 110.078L195.28 110.878C194.4 116.158 192.68 121.358 190.52 124.638C189.64 123.958 187.56 122.798 186.44 122.278C188.64 119.398 190 114.718 190.72 110.078ZM193.56 128.478H198V142.838C198 144.998 197.64 146.198 196.2 146.918C194.76 147.598 192.8 147.678 190.12 147.678C190 146.398 189.4 144.558 188.88 143.278C190.52 143.358 192.32 143.358 192.88 143.358C193.4 143.358 193.56 143.238 193.56 142.758V128.478ZM198.28 122.318H199.28L200.12 122.038L202.92 124.038C201.32 126.798 199.04 129.918 197 131.958C196.4 131.078 195.12 129.758 194.4 129.118C195.88 127.558 197.52 124.878 198.28 123.118V122.318ZM174.32 115.798H188.48V120.358H174.32V115.798ZM178.8 124.758H185.6V129.118H178.8V124.758ZM179.32 110.118H183.92V118.998H179.32V110.118ZM183.84 124.758H188.16C188.16 124.758 188.16 126.078 188.12 126.638C187.72 139.438 187.32 144.238 186.24 145.718C185.44 146.798 184.68 147.198 183.6 147.398C182.68 147.598 181.24 147.598 179.68 147.558C179.6 146.238 179.2 144.438 178.52 143.278C179.72 143.358 180.72 143.398 181.28 143.398C181.8 143.398 182.12 143.278 182.44 142.798C183.12 141.838 183.52 137.678 183.84 125.598V124.758ZM177.24 119.158H181.64C181.4 129.958 180.8 140.838 175.04 147.518C174.32 146.478 172.96 145.118 171.8 144.398C176.88 138.598 177.08 128.718 177.24 119.158ZM205.72 114.318H217.8V118.558H205.72V114.318ZM216.72 114.318H217.56L218.36 114.158L221.44 115.198C219.76 128.558 215.28 138.878 208.24 144.878C207.48 143.678 205.92 141.838 204.76 140.998C211.04 136.278 215.4 126.078 216.72 115.358V114.318ZM205.56 122.998L208.84 120.238C213.36 125.958 219.48 133.678 222.16 138.558L218.44 141.958C215.92 136.958 210.08 128.918 205.56 122.998ZM221.04 121.198L241.68 118.758L242.24 123.078L221.64 125.598L221.04 121.198ZM232 112.718L235.4 110.198C237.12 111.838 239.56 114.158 240.72 115.678L237.08 118.518C236.04 116.958 233.68 114.478 232 112.718ZM224.96 110.278H229.96C230.12 127.558 232.12 140.798 237 141.598C237.92 141.678 238.36 139.718 238.64 135.478C239.56 136.518 241.76 137.878 242.68 138.358C241.64 145.958 239.44 147.718 237.24 147.558C227.6 146.518 225.52 132.478 224.96 110.278ZM237.16 124.398L241 126.678C237.72 134.598 231.2 142.358 224 146.198C223.08 145.038 221.56 143.558 220.2 142.638C227.72 139.318 234.12 131.918 237.16 124.398ZM261.44 127.838L265.08 125.198C268.64 128.398 273.48 132.958 275.84 135.958L271.84 139.038C269.72 136.038 265.04 131.238 261.44 127.838ZM261.56 110.038H266.48V119.638C266.48 126.278 264.8 134.478 255.68 139.918C255 138.878 253.36 137.118 252.24 136.278C260.88 131.838 261.56 124.838 261.56 119.598V110.038ZM247.52 116.678H277.92V121.398H252.32V147.678H247.52V116.678ZM275.8 116.678H280.56V142.118C280.56 144.718 280 146.038 278.36 146.838C276.68 147.598 274.12 147.638 270.56 147.638C270.4 146.318 269.64 144.118 269 142.878C271.36 142.998 274.04 142.998 274.8 142.998C275.56 142.958 275.8 142.718 275.8 142.038V116.678ZM297.56 123.518L321.92 120.278L322.6 124.838L298.28 128.118L297.56 123.518ZM312.64 112.558L316.24 110.318C318.32 112.238 320.84 114.918 321.96 116.798L318.12 119.278C317.12 117.438 314.68 114.598 312.64 112.558ZM295.36 110.358L299.92 111.878C296.92 118.958 292.04 126.358 287.04 130.958C286.56 129.798 285.2 127.238 284.36 126.078C288.68 122.358 292.88 116.398 295.36 110.358ZM291.2 121.838L296.12 116.958L296.16 117.038V147.518H291.2V121.838ZM305.04 110.638H309.92C310.2 127.758 312.52 141.038 317.36 141.718C318.28 141.798 318.8 139.718 319.08 135.318C320 136.318 322.16 137.598 323.04 138.038C322 145.798 319.84 147.638 317.6 147.518C308.12 146.638 305.76 132.438 305.04 110.638ZM341.36 115.758H346.36V147.558H341.36V115.758ZM329.4 122.398H356.32V127.078H334.32V143.118H329.4V122.398ZM353.76 122.398H358.76V137.718C358.76 140.038 358.32 141.438 356.68 142.198C355.04 142.958 352.88 143.038 349.88 143.038C349.68 141.638 348.96 139.518 348.28 138.198C350.16 138.278 352.32 138.278 352.92 138.278C353.56 138.238 353.76 138.078 353.76 137.558V122.398ZM359.24 110.958L361.08 115.358C351.8 116.758 338.72 117.438 327.76 117.478C327.68 116.118 327.16 114.278 326.72 113.158C337.92 112.998 350.76 112.278 359.24 110.958ZM381.12 127.998C384.56 136.158 391.8 141.438 403.12 143.318C402.12 144.318 400.8 146.358 400.12 147.678C388.28 145.238 381.24 139.158 377 129.198L381.12 127.998ZM394.12 126.398H395.08L396 126.198L399.32 127.718C395.64 139.158 386.92 144.838 376 147.638C375.48 146.358 374.36 144.478 373.44 143.438C383.24 141.358 391.36 136.078 394.12 127.198V126.398ZM379.64 126.398H394.84V130.998H378.24L379.64 126.398ZM381.6 109.758L386.96 110.638C384.88 126.518 380.24 137.838 368.28 144.518C367.64 143.478 365.92 141.518 364.76 140.638C375.56 134.838 379.88 124.038 381.6 109.758ZM390.68 112.398L394.44 110.158C395.96 111.838 398.2 114.198 399.24 115.638L395.36 118.158C394.36 116.678 392.24 114.198 390.68 112.398ZM369.32 123.998C369.04 122.998 368.28 120.838 367.76 119.678C368.36 119.478 368.96 118.918 369.48 117.998C369.96 117.158 371.52 114.038 372.28 110.878L377.32 111.678C376.32 115.198 374.4 119.038 372.96 121.358V121.438C372.96 121.438 369.32 122.998 369.32 123.998ZM369.32 123.998V120.478L372.16 118.518H401.8L401.76 123.078H373.52C371.4 123.078 369.68 123.398 369.32 123.998ZM406.12 115.718H441.96V120.318H406.12V115.718ZM423.64 121.798H428.52V147.598H423.64V121.798ZM412.52 126.398H437.24V130.918H417.32V144.038H412.52V126.398ZM435.16 126.398H440.04V138.878C440.04 141.078 439.56 142.318 438 143.038C436.44 143.718 434.28 143.758 431.28 143.758C431.08 142.438 430.36 140.598 429.76 139.398C431.6 139.478 433.76 139.478 434.32 139.478C434.96 139.438 435.16 139.278 435.16 138.798V126.398ZM418.96 109.958L423.92 111.078C421 120.918 416 130.878 407.44 136.838C406.8 135.638 405.56 133.678 404.68 132.598C412.2 127.638 416.84 118.358 418.96 109.958Z" fill="white"/>
</svg>
