<svg width="374" height="157" viewBox="0 0 374 157" fill="none" xmlns="http://www.w3.org/2000/svg">
  <path d="M11.8203 22.8574C11.8203 24.459 11.2539 25.8262 10.1211 26.959C9.0013 28.0788 7.64714 28.6387 6.05859 28.6387C4.45703 28.6387 3.08984 28.0723 1.95703 26.9395C0.83724 25.8066 0.277344 24.446 0.277344 22.8574C0.277344 21.2689 0.83724 19.9147 1.95703 18.7949C3.08984 17.6621 4.45703 17.0957 6.05859 17.0957C7.64714 17.0957 9.0013 17.6556 10.1211 18.7754C11.2539 19.8952 11.8203 21.2559 11.8203 22.8574ZM38.52 6.87805L41.2 3.39805C43.4 4.31805 46.2 5.87804 47.56 7.15804L44.72 10.958C43.48 9.67805 40.68 7.91804 38.52 6.87805ZM37.08 17.598L39.72 14.038C41.96 14.878 44.8 16.358 46.16 17.558L43.4 21.438C42.08 20.198 39.32 18.558 37.08 17.598ZM37.52 37.798C38.96 34.558 40.92 29.438 42.36 24.678L46.28 27.078C45 31.438 43.4 36.158 41.88 40.118L37.52 37.798ZM62.88 7.75805H74.76V12.318H62.88V7.75805ZM62.28 15.318H72.16V19.478H62.28V15.318ZM60.6 24.838H74.84V29.158H60.6V24.838ZM62.72 3.07804L67.28 3.87804C66.4 9.15805 64.68 14.358 62.52 17.638C61.64 16.958 59.56 15.798 58.44 15.278C60.64 12.398 62 7.71804 62.72 3.07804ZM65.56 21.478H70V35.838C70 37.998 69.64 39.198 68.2 39.918C66.76 40.598 64.8 40.678 62.12 40.678C62 39.398 61.4 37.558 60.88 36.278C62.52 36.358 64.32 36.358 64.88 36.358C65.4 36.358 65.56 36.238 65.56 35.758V21.478ZM70.28 15.318H71.28L72.12 15.038L74.92 17.038C73.32 19.798 71.04 22.918 69 24.958C68.4 24.078 67.12 22.758 66.4 22.118C67.88 20.558 69.52 17.878 70.28 16.118V15.318ZM46.32 8.79805H60.48V13.358H46.32V8.79805ZM50.8 17.758H57.6V22.118H50.8V17.758ZM51.32 3.11804H55.92V11.998H51.32V3.11804ZM55.84 17.758H60.16C60.16 17.758 60.16 19.078 60.12 19.638C59.72 32.438 59.32 37.238 58.24 38.718C57.44 39.798 56.68 40.198 55.6 40.398C54.68 40.598 53.24 40.598 51.68 40.558C51.6 39.238 51.2 37.438 50.52 36.278C51.72 36.358 52.72 36.398 53.28 36.398C53.8 36.398 54.12 36.278 54.44 35.798C55.12 34.838 55.52 30.678 55.84 18.598V17.758ZM49.24 12.158H53.64C53.4 22.958 52.8 33.838 47.04 40.518C46.32 39.478 44.96 38.118 43.8 37.398C48.88 31.598 49.08 21.718 49.24 12.158ZM77.72 7.31805H89.8V11.558H77.72V7.31805ZM88.72 7.31805H89.56L90.36 7.15804L93.44 8.19805C91.76 21.558 87.28 31.878 80.24 37.878C79.48 36.678 77.92 34.838 76.76 33.998C83.04 29.278 87.4 19.078 88.72 8.35805V7.31805ZM77.56 15.998L80.84 13.238C85.36 18.958 91.48 26.678 94.16 31.558L90.44 34.958C87.92 29.958 82.08 21.918 77.56 15.998ZM93.04 14.198L113.68 11.758L114.24 16.078L93.64 18.598L93.04 14.198ZM104 5.71804L107.4 3.19805C109.12 4.83805 111.56 7.15804 112.72 8.67805L109.08 11.518C108.04 9.95804 105.68 7.47805 104 5.71804ZM96.96 3.27804H101.96C102.12 20.558 104.12 33.798 109 34.598C109.92 34.678 110.36 32.718 110.64 28.478C111.56 29.518 113.76 30.878 114.68 31.358C113.64 38.958 111.44 40.718 109.24 40.558C99.6 39.518 97.52 25.478 96.96 3.27804ZM109.16 17.398L113 19.678C109.72 27.598 103.2 35.358 96 39.198C95.08 38.038 93.56 36.558 92.2 35.638C99.72 32.318 106.12 24.918 109.16 17.398ZM125.32 20.398H146.08V17.918H121.2V14.038H150.8V24.318H125.32V20.398ZM122.68 20.398H127.48C126.72 24.198 125.68 28.678 124.84 31.598L120.04 31.038C120.96 28.198 122.04 23.918 122.68 20.398ZM124.36 26.678H149.56V30.678H123.16L124.36 26.678ZM148.32 26.678H153.12C153.12 26.678 153.08 27.798 153 28.398C152.6 33.718 152.12 36.318 151.12 37.438C150.24 38.358 149.28 38.678 148.04 38.798C146.92 38.958 145 38.958 142.96 38.918C142.88 37.518 142.32 35.718 141.6 34.518C143.28 34.718 144.96 34.758 145.68 34.718C146.32 34.718 146.68 34.678 147.08 34.358C147.64 33.798 148 31.878 148.32 27.238V26.678ZM133.52 14.958H138.24V40.598H133.52V14.958ZM132.56 28.118L136.28 29.718C132.68 34.238 126.64 38.198 120.84 40.198C120.16 39.038 118.8 37.318 117.8 36.398C123.44 34.838 129.52 31.638 132.56 28.118ZM122.8 6.11805H135.4V9.79805H122.8V6.11805ZM138.68 6.11805H154.2V9.79805H138.68V6.11805ZM123 2.71804L127.44 3.91805C125.8 7.87805 123.12 11.958 120.6 14.438C119.72 13.718 117.8 12.478 116.68 11.878C119.28 9.67805 121.64 6.15805 123 2.71804ZM139.28 2.71804L143.8 3.87804C142.28 7.83805 139.68 11.678 137.08 14.118C136.2 13.318 134.24 12.038 133.12 11.438C135.8 9.39804 138.08 6.07804 139.28 2.71804ZM124.28 9.03804L128.12 7.39805C129.16 8.95805 130.36 11.158 130.88 12.558L126.8 14.358C126.4 12.918 125.32 10.718 124.28 9.03804ZM141.64 8.99804L145.6 7.59805C146.88 9.07805 148.36 11.158 149.04 12.598L144.88 14.198C144.32 12.798 142.92 10.598 141.64 8.99804ZM161.48 8.55805H190.52V13.838H161.48V8.55805ZM158.16 31.758H193.88V37.278H158.16V31.758ZM225 19.158H229.72V40.478H225V19.158ZM215.68 19.118H220.36V25.038C220.36 30.398 219.88 36.278 215.2 40.798C214.16 39.878 212.08 38.638 210.64 38.038C215.16 34.118 215.68 29.358 215.68 24.958V19.118ZM224 4.15805C226.24 8.67805 230.72 13.158 235.36 15.438C234.32 16.358 232.84 18.078 232.12 19.238C227.24 16.358 222.72 11.158 219.96 5.59805L224 4.15805ZM220.52 2.63805L225.48 3.39805C223.52 9.71805 220 15.718 213.48 20.158C212.88 19.038 211.48 17.158 210.44 16.358C216.16 12.758 219.2 7.51804 220.52 2.63805ZM198.8 4.59804H209.72V9.07805H203.48V40.678H198.8V4.59804ZM208.28 4.59804H209.2L209.88 4.43805L213.28 6.43804C211.96 9.79805 210.28 13.638 208.8 16.638C212.08 19.798 212.72 22.638 212.72 24.998C212.72 27.638 212.04 29.398 210.56 30.398C209.84 30.918 208.96 31.158 207.96 31.318C207.08 31.438 205.92 31.438 204.84 31.398C204.8 30.198 204.36 28.318 203.64 27.038C204.52 27.158 205.28 27.158 205.88 27.118C206.4 27.118 206.92 27.038 207.28 26.798C207.92 26.438 208.2 25.638 208.2 24.478C208.16 22.558 207.32 19.998 204.2 17.238C205.68 13.758 207.44 8.59805 208.28 5.99805V4.59804ZM254.52 20.718H269.2V25.038H254.52V20.718ZM242.56 12.958H252.76V17.398H242.56V12.958ZM242.56 20.678H253.12V25.118H242.56V20.678ZM258.68 4.51805H267.72V8.67805H258.68V4.51805ZM268.52 20.718H269.4L270.24 20.558L273.32 21.678C270.48 32.318 263.44 37.958 253.88 40.718C253.4 39.438 252.24 37.478 251.36 36.438C259.88 34.478 266.36 29.478 268.52 21.438V20.718ZM260.12 24.598C262.6 30.438 267.76 34.598 275.28 36.278C274.16 37.238 272.8 39.238 272.12 40.558C264.04 38.238 258.96 33.198 255.92 25.718L260.12 24.598ZM240.2 5.71804L244.76 7.07805V40.518H240.2V5.71804ZM236.88 30.318C241.32 29.838 247.92 28.998 254.12 28.158L254.28 32.558C248.48 33.438 242.24 34.358 237.64 34.998L236.88 30.318ZM256.6 4.51805H261V10.358C261 14.078 260.16 18.438 255.76 21.038C255.12 20.158 253.36 18.438 252.44 17.838C256.2 15.718 256.6 12.878 256.6 10.238V4.51805ZM250.84 3.07804L254.8 6.47805C251.24 8.19805 246.6 9.47805 242.6 10.318C242.36 9.27805 241.64 7.63805 241.08 6.71805C244.64 5.83805 248.52 4.43805 250.84 3.07804ZM265.16 4.51805H269.64V14.038C269.64 14.718 269.64 15.078 269.76 15.238C269.84 15.358 269.96 15.398 270.16 15.398C270.32 15.398 270.6 15.398 270.8 15.398C271 15.398 271.2 15.358 271.32 15.278C271.44 15.198 271.56 14.918 271.64 14.438C271.72 13.878 271.76 12.678 271.8 11.118C272.6 11.878 274.16 12.638 275.36 13.038C275.24 14.638 275.08 16.398 274.8 17.158C274.52 17.918 274.04 18.438 273.32 18.758C272.76 19.078 271.84 19.238 271.16 19.238C270.44 19.238 269.56 19.238 268.96 19.238C267.96 19.238 266.84 18.918 266.16 18.238C265.48 17.558 265.16 16.678 265.16 14.078V4.51805Z" fill="white"/>
  <path d="M31.8203 76.8574C31.8203 78.459 31.2539 79.8262 30.1211 80.959C29.0013 82.0788 27.6471 82.6387 26.0586 82.6387C24.457 82.6387 23.0898 82.0723 21.957 80.9395C20.8372 79.8066 20.2773 78.446 20.2773 76.8574C20.2773 75.2689 20.8372 73.9147 21.957 72.7949C23.0898 71.6621 24.457 71.0957 26.0586 71.0957C27.6471 71.0957 29.0013 71.6556 30.1211 72.7754C31.2539 73.8952 31.8203 75.2559 31.8203 76.8574ZM58.9688 90.998V62.3652H64.5938L76.3125 81.4863V62.3652H81.6836V90.998H75.8828L64.3398 72.3262V90.998H58.9688ZM87.8555 90.998V62.3652H107.484V67.209H93.6367V73.9863H105.59V78.8301H93.6367V90.998H87.8555ZM118.715 90.998V67.209H110.219V62.3652H132.973V67.209H124.496V90.998H118.715ZM155.013 88.358L157.253 84.838C162.453 86.318 168.093 88.678 171.333 90.598L168.453 94.398C165.373 92.318 160.133 89.918 155.013 88.358ZM150.173 57.998L155.013 56.518C156.093 58.198 157.293 60.438 157.733 61.998L152.653 63.598C152.253 62.158 151.173 59.758 150.173 57.998ZM136.853 60.798H170.853V69.958H165.813V65.278H141.653V69.958H136.853V60.798ZM153.133 66.958H158.173C157.693 81.198 156.653 90.358 139.533 94.558C139.053 93.278 137.853 91.438 136.813 90.398C152.533 86.958 152.733 79.638 153.133 66.958ZM136.493 80.038H171.333V84.078H136.493V80.038ZM143.053 69.198L145.853 66.078C147.933 67.158 150.573 68.838 151.813 70.238L148.813 73.678C147.693 72.318 145.133 70.398 143.053 69.198ZM138.973 75.238L141.733 71.998C143.853 72.998 146.493 74.638 147.813 75.958L144.933 79.518C143.733 78.198 141.093 76.358 138.973 75.238ZM195.533 62.118H212.053V66.478H195.533V62.118ZM200.453 67.438H204.453V87.278H200.453V67.438ZM195.933 56.998L200.653 57.958C199.253 63.638 196.813 68.998 193.693 72.398C192.933 71.518 191.133 69.758 190.093 68.998C192.893 66.198 194.893 61.718 195.933 56.998ZM190.693 77.718L208.173 69.638L209.813 73.558L192.373 81.678L190.693 77.718ZM194.012 70.358H198.293V88.598C198.293 90.278 198.573 90.518 200.573 90.518C201.453 90.518 205.613 90.518 206.733 90.518C208.333 90.518 208.653 89.838 208.853 86.278C209.813 86.958 211.573 87.638 212.773 87.918C212.253 92.998 210.973 94.518 207.093 94.518C205.973 94.518 201.133 94.518 200.093 94.518C195.293 94.518 194.012 93.198 194.012 88.558V70.358ZM206.933 70.478H206.613L207.453 69.878L208.213 69.398L211.173 70.438L210.973 71.078C210.973 76.798 210.973 80.838 210.853 82.078C210.773 83.558 210.213 84.398 209.133 84.838C208.173 85.278 206.853 85.318 205.813 85.318C205.693 84.238 205.373 82.678 204.933 81.798C205.413 81.838 205.973 81.838 206.293 81.838C206.613 81.838 206.813 81.758 206.853 81.278C206.933 80.758 206.933 77.038 206.933 70.478ZM175.293 63.158H192.333V67.598H175.293V63.158ZM181.533 71.878H188.013V76.238H181.533V71.878ZM181.493 57.078H186.093V64.598H181.493V57.078ZM179.213 65.838H183.733C183.533 77.038 183.013 87.838 178.173 94.558C177.373 93.438 175.933 91.958 174.733 91.238C178.933 85.398 179.092 75.758 179.213 65.838ZM186.493 71.878H190.813C190.813 71.878 190.813 73.198 190.813 73.718C190.613 86.558 190.413 91.278 189.413 92.718C188.653 93.838 187.893 94.238 186.773 94.438C185.813 94.638 184.293 94.638 182.653 94.598C182.573 93.318 182.133 91.518 181.493 90.358C182.733 90.478 183.812 90.478 184.413 90.478C184.893 90.478 185.253 90.398 185.572 89.878C186.133 88.998 186.333 84.838 186.493 72.758V71.878ZM215.453 59.558H235.852V63.838H215.453V59.558ZM216.653 78.598H234.613V82.878H216.653V78.598ZM223.293 74.718H228.053V89.798L223.293 90.518V74.718ZM215.013 88.878C220.333 88.398 228.453 87.438 235.933 86.558L236.053 91.038C228.893 91.998 221.213 92.998 215.733 93.678L215.013 88.878ZM215.373 69.878C219.973 69.798 226.933 69.598 233.613 69.358L233.493 73.478C227.133 73.838 220.453 74.118 215.653 74.318L215.373 69.878ZM227.653 66.398L231.213 64.518C233.453 67.238 236.013 70.918 237.013 73.438L233.213 75.598C232.293 73.118 229.853 69.238 227.653 66.398ZM221.133 62.158L226.333 63.238C224.933 66.638 223.373 70.478 222.053 72.958L218.013 71.878C219.173 69.238 220.493 65.118 221.133 62.158ZM237.332 61.918H241.933V84.558H237.332V61.918ZM246.453 58.158H251.133V88.878C251.133 91.598 250.613 92.918 249.013 93.678C247.413 94.438 244.813 94.598 241.413 94.598C241.213 93.238 240.533 91.078 239.853 89.718C242.253 89.838 244.693 89.798 245.493 89.798C246.213 89.758 246.453 89.558 246.453 88.838V58.158ZM256.333 60.878L259.013 57.398C261.213 58.318 264.013 59.878 265.373 61.158L262.533 64.958C261.293 63.678 258.493 61.918 256.333 60.878ZM254.893 71.598L257.533 68.038C259.773 68.878 262.613 70.358 263.973 71.558L261.213 75.438C259.893 74.198 257.133 72.558 254.893 71.598ZM255.333 91.798C256.773 88.558 258.733 83.438 260.173 78.678L264.092 81.078C262.813 85.438 261.213 90.158 259.692 94.118L255.333 91.798ZM280.693 61.758H292.573V66.318H280.693V61.758ZM280.093 69.318H289.973V73.478H280.093V69.318ZM278.413 78.838H292.653V83.158H278.413V78.838ZM280.533 57.078L285.093 57.878C284.213 63.158 282.493 68.358 280.333 71.638C279.453 70.958 277.373 69.798 276.253 69.278C278.453 66.398 279.813 61.718 280.533 57.078ZM283.373 75.478H287.813V89.838C287.813 91.998 287.453 93.198 286.013 93.918C284.573 94.598 282.613 94.678 279.933 94.678C279.813 93.398 279.213 91.558 278.693 90.278C280.333 90.358 282.133 90.358 282.693 90.358C283.213 90.358 283.373 90.238 283.373 89.758V75.478ZM288.093 69.318H289.093L289.933 69.038L292.733 71.038C291.133 73.798 288.853 76.918 286.813 78.958C286.213 78.078 284.933 76.758 284.213 76.118C285.693 74.558 287.333 71.878 288.093 70.118V69.318ZM264.133 62.798H278.293V67.358H264.133V62.798ZM268.613 71.758H275.413V76.118H268.613V71.758ZM269.133 57.118H273.733V65.998H269.133V57.118ZM273.653 71.758H277.973C277.973 71.758 277.973 73.078 277.933 73.638C277.533 86.438 277.133 91.238 276.053 92.718C275.253 93.798 274.493 94.198 273.413 94.398C272.493 94.598 271.053 94.598 269.493 94.558C269.413 93.238 269.013 91.438 268.333 90.278C269.533 90.358 270.533 90.398 271.093 90.398C271.613 90.398 271.933 90.278 272.253 89.798C272.933 88.838 273.333 84.678 273.653 72.598V71.758ZM267.053 66.158H271.453C271.213 76.958 270.613 87.838 264.853 94.518C264.133 93.478 262.773 92.118 261.613 91.398C266.693 85.598 266.893 75.718 267.053 66.158ZM295.533 61.318H307.613V65.558H295.533V61.318ZM306.533 61.318H307.373L308.173 61.158L311.253 62.198C309.573 75.558 305.093 85.878 298.053 91.878C297.293 90.678 295.733 88.838 294.573 87.998C300.853 83.278 305.213 73.078 306.533 62.358V61.318ZM295.373 69.998L298.653 67.238C303.173 72.958 309.293 80.678 311.973 85.558L308.253 88.958C305.733 83.958 299.893 75.918 295.373 69.998ZM310.853 68.198L331.493 65.758L332.053 70.078L311.453 72.598L310.853 68.198ZM321.813 59.718L325.213 57.198C326.933 58.838 329.373 61.158 330.533 62.678L326.893 65.518C325.853 63.958 323.493 61.478 321.813 59.718ZM314.773 57.278H319.773C319.933 74.558 321.933 87.798 326.813 88.598C327.733 88.678 328.173 86.718 328.453 82.478C329.373 83.518 331.573 84.878 332.493 85.358C331.453 92.958 329.253 94.718 327.053 94.558C317.413 93.518 315.333 79.478 314.773 57.278ZM326.973 71.398L330.813 73.678C327.533 81.598 321.013 89.358 313.812 93.198C312.893 92.038 311.373 90.558 310.013 89.638C317.533 86.318 323.933 78.918 326.973 71.398ZM337.293 63.998H370.373V84.078H365.333V68.718H342.133V84.278H337.293V63.998ZM339.813 77.318H368.133V82.038H339.813V77.318ZM351.173 57.038H356.253V94.598H351.173V57.038Z" fill="white"/>
  <path d="M51.8203 133.857C51.8203 135.459 51.2539 136.826 50.1211 137.959C49.0013 139.079 47.6471 139.639 46.0586 139.639C44.457 139.639 43.0898 139.072 41.957 137.939C40.8372 136.807 40.2773 135.446 40.2773 133.857C40.2773 132.269 40.8372 130.915 41.957 129.795C43.0898 128.662 44.457 128.096 46.0586 128.096C47.6471 128.096 49.0013 128.656 50.1211 129.775C51.2539 130.895 51.8203 132.256 51.8203 133.857ZM80.7852 132.529L77.8359 130.244C78.7734 129.189 79.75 128.18 80.7656 127.217C81.1693 126.826 81.4232 126.579 81.5273 126.475C81.2018 126.423 80.2708 126.208 78.7344 125.83C77.6276 125.557 76.8984 125.355 76.5469 125.225L77.6992 121.787C79.4049 122.477 80.9284 123.239 82.2695 124.072C81.957 121.95 81.8008 120.218 81.8008 118.877H85.2773C85.2773 119.827 85.1016 121.572 84.75 124.111C85.0104 124.007 85.5703 123.753 86.4297 123.35C87.6016 122.816 88.6823 122.36 89.6719 121.982L90.707 125.518C89.2617 125.843 87.5885 126.162 85.6875 126.475L88.0312 129.111C88.5 129.645 88.8711 130.081 89.1445 130.42L86.1562 132.393L83.5195 128.037C82.7253 129.443 81.8138 130.941 80.7852 132.529ZM96.3711 132.529L93.4219 130.244C94.3594 129.189 95.3359 128.18 96.3516 127.217C96.7552 126.826 97.0091 126.579 97.1133 126.475C96.7878 126.423 95.8568 126.208 94.3203 125.83C93.2135 125.557 92.4844 125.355 92.1328 125.225L93.2852 121.787C94.9909 122.477 96.5143 123.239 97.8555 124.072C97.543 121.95 97.3867 120.218 97.3867 118.877H100.863C100.863 119.827 100.688 121.572 100.336 124.111C100.596 124.007 101.156 123.753 102.016 123.35C103.188 122.816 104.268 122.36 105.258 121.982L106.293 125.518C104.848 125.843 103.174 126.162 101.273 126.475L103.617 129.111C104.086 129.645 104.457 130.081 104.73 130.42L101.742 132.393L99.1055 128.037C98.3112 129.443 97.3997 130.941 96.3711 132.529ZM123.09 132.529L120.141 130.244C121.078 129.189 122.055 128.18 123.07 127.217C123.474 126.826 123.728 126.579 123.832 126.475C123.507 126.423 122.576 126.208 121.039 125.83C119.932 125.557 119.203 125.355 118.852 125.225L120.004 121.787C121.71 122.477 123.233 123.239 124.574 124.072C124.262 121.95 124.105 120.218 124.105 118.877H127.582C127.582 119.827 127.406 121.572 127.055 124.111C127.315 124.007 127.875 123.753 128.734 123.35C129.906 122.816 130.987 122.36 131.977 121.982L133.012 125.518C131.566 125.843 129.893 126.162 127.992 126.475L130.336 129.111C130.805 129.645 131.176 130.081 131.449 130.42L128.461 132.393L125.824 128.037C125.03 129.443 124.118 130.941 123.09 132.529ZM138.676 132.529L135.727 130.244C136.664 129.189 137.641 128.18 138.656 127.217C139.06 126.826 139.314 126.579 139.418 126.475C139.092 126.423 138.161 126.208 136.625 125.83C135.518 125.557 134.789 125.355 134.438 125.225L135.59 121.787C137.296 122.477 138.819 123.239 140.16 124.072C139.848 121.95 139.691 120.218 139.691 118.877H143.168C143.168 119.827 142.992 121.572 142.641 124.111C142.901 124.007 143.461 123.753 144.32 123.35C145.492 122.816 146.573 122.36 147.562 121.982L148.598 125.518C147.152 125.843 145.479 126.162 143.578 126.475L145.922 129.111C146.391 129.645 146.762 130.081 147.035 130.42L144.047 132.393L141.41 128.037C140.616 129.443 139.704 130.941 138.676 132.529ZM154.262 132.529L151.312 130.244C152.25 129.189 153.227 128.18 154.242 127.217C154.646 126.826 154.9 126.579 155.004 126.475C154.678 126.423 153.747 126.208 152.211 125.83C151.104 125.557 150.375 125.355 150.023 125.225L151.176 121.787C152.882 122.477 154.405 123.239 155.746 124.072C155.434 121.95 155.277 120.218 155.277 118.877H158.754C158.754 119.827 158.578 121.572 158.227 124.111C158.487 124.007 159.047 123.753 159.906 123.35C161.078 122.816 162.159 122.36 163.148 121.982L164.184 125.518C162.738 125.843 161.065 126.162 159.164 126.475L161.508 129.111C161.977 129.645 162.348 130.081 162.621 130.42L159.633 132.393L156.996 128.037C156.202 129.443 155.29 130.941 154.262 132.529ZM169.848 132.529L166.898 130.244C167.836 129.189 168.812 128.18 169.828 127.217C170.232 126.826 170.486 126.579 170.59 126.475C170.264 126.423 169.333 126.208 167.797 125.83C166.69 125.557 165.961 125.355 165.609 125.225L166.762 121.787C168.467 122.477 169.991 123.239 171.332 124.072C171.02 121.95 170.863 120.218 170.863 118.877H174.34C174.34 119.827 174.164 121.572 173.812 124.111C174.073 124.007 174.633 123.753 175.492 123.35C176.664 122.816 177.745 122.36 178.734 121.982L179.77 125.518C178.324 125.843 176.651 126.162 174.75 126.475L177.094 129.111C177.562 129.645 177.934 130.081 178.207 130.42L175.219 132.393L172.582 128.037C171.788 129.443 170.876 130.941 169.848 132.529Z" fill="white"/>
</svg>
