<svg width="432" height="164" viewBox="0 0 432 164" fill="none" xmlns="http://www.w3.org/2000/svg">
  <path d="M5.8125 11.8535L10.8125 12.0488L13.625 14.7637L15.5781 18.6699L11.6719 23.2598L6.41797 24.5293L2.78516 22.5762L0.8125 18.0254L1.90625 14.0801L5.8125 11.8535ZM63.8594 16.3262L62.8047 26.8535L53.0391 29.998L40.0898 28.9434L39.3672 14.373L43.2734 2.6543H53.0391L64.0547 4.60742L57.9219 10.4668L48.4297 5.87695L43.4688 14.373L45.5391 24.8027L54.0938 25.3691L53.8398 19.627L48.5078 19.002L49.0938 15.3691L63.8594 16.3262ZM90.6953 29.998H82.8828L78.9766 22.1855H75.0703L71.1641 29.998H65.3047L72.0234 2.69336L82.8828 2.75195L90.6953 29.998ZM80.9297 17.4199L76.2812 6.56055L73.1172 17.4199H80.9297ZM91.8672 29.998L94.875 2.6543H101.633L107.492 14.373L115.305 2.6543H123.117L122.531 29.998H112.473L113.352 17.0293L106.809 24.7441L100.754 16.3262L97.7266 29.998H91.8672ZM125.773 29.998V2.6543L143.352 0.701172V6.56055L130.695 8.51367L130.383 12.4199H143.352V17.459L131.633 18.2793V23.5918L143.352 23.2793V28.9434L125.773 29.998ZM157.805 2.6543L170.832 2.45898L175.383 10.4668L174.328 20.9746L162.844 21.4824L161.457 29.998L155.852 30.1934L157.805 2.6543ZM163.996 7.43945L163.078 15.8184L169.094 14.9199L169.719 10.2715L163.996 7.43945ZM177.922 3.04492H183L184.172 16.7168L195.891 16.1309L194.641 2.45898H202.551C203.085 2.45898 203.892 11.2871 204.973 28.9434L197.844 29.1973L196.691 20.0371L184.172 20.623L184.738 29.5293L178.977 30.3887L177.922 3.04492ZM231.945 29.998H224.133L220.227 22.1855H216.32L212.414 29.998H206.555L213.273 2.69336L224.133 2.75195L231.945 29.998ZM222.18 17.4199L217.531 6.56055L214.367 17.4199H222.18ZM248.781 12.4199H241.184L251.867 20.2324L251.066 29.1973L242.102 29.998L232.98 28.9434L236.242 21.6191L240.93 24.1387H245.207L242.102 20.2324L234.289 15.252L233.742 7.92773L238.195 3.25977L246.008 3.39648L251.867 6.01367L248.781 12.4199ZM254.602 29.998V2.6543L272.18 0.701172V6.56055L259.523 8.51367L259.211 12.4199H272.18V17.459L260.461 18.2793V23.5918L272.18 23.2793V28.9434L254.602 29.998ZM285.891 2.6543H293.312L293.586 29.998H285.891V2.6543ZM297.609 2.6543H305.031L305.305 29.998H297.609V2.6543Z" fill="white"/>
  <path d="M25.8125 55.8535L30.8125 56.0488L33.625 58.7637L35.5781 62.6699L31.6719 67.2598L26.418 68.5293L22.7852 66.5762L20.8125 62.0254L21.9062 58.0801L25.8125 55.8535ZM60.3828 46.6543H67.8047L68.0781 73.998H60.3828V46.6543ZM70.5 73.998L73.5078 46.6543H80.2656L86.125 58.373L93.9375 46.6543H101.75L101.164 73.998H91.1055L91.9844 61.0293L85.4414 68.7441L79.3867 60.3262L76.3594 73.998H70.5ZM106.164 46.6543L119.191 46.459L123.742 54.4668L122.688 64.9746L111.203 65.4824L109.816 73.998L104.211 74.1934L106.164 46.6543ZM112.355 51.4395L111.438 59.8184L117.453 58.9199L118.078 54.2715L112.355 51.4395ZM126.477 46.6543L132.336 49.1738L131.477 67.3965L144.055 68.1387L145.422 73.998L126.477 74.1934V46.6543ZM147.922 73.998V46.6543L165.5 44.7012V50.5605L152.844 52.5137L152.531 56.4199H165.5V61.459L153.781 62.2793V67.5918L165.5 67.2793V72.9434L147.922 73.998ZM167.688 73.998L170.695 46.6543H177.453L183.312 58.373L191.125 46.6543H198.938L198.352 73.998H188.293L189.172 61.0293L182.629 68.7441L176.574 60.3262L173.547 73.998H167.688ZM201.594 73.998V46.6543L219.172 44.7012V50.5605L206.516 52.5137L206.203 56.4199H219.172V61.459L207.453 62.2793V67.5918L219.172 67.2793V72.9434L201.594 73.998ZM245.656 73.998H238.938V70.0918L229.914 56.4199L228.391 73.998H221.359L223.312 46.6543H231.125L238.938 66.1855L241.516 46.6543H246.75L245.656 73.998ZM267.238 73.998H255.715L256.555 53.6465L248.938 53.1387V46.6543H271.984V53.2559L264.367 54.4668L267.238 73.998ZM275.383 46.6543H282.805L283.078 73.998H275.383V46.6543ZM309.797 73.998H303.078V70.0918L294.055 56.4199L292.531 73.998H285.5L287.453 46.6543H295.266L303.078 66.1855L305.656 46.6543H310.891L309.797 73.998ZM337.961 60.3262L336.906 70.8535L327.141 73.998L314.191 72.9434L313.469 58.373L317.375 46.6543H327.141L338.156 48.6074L332.023 54.4668L322.531 49.877L317.57 58.373L319.641 68.8027L328.195 69.3691L327.941 63.627L322.609 63.002L323.195 59.3691L337.961 60.3262ZM374.016 73.998H367.297V70.0918L358.273 56.4199L356.75 73.998H349.719L351.672 46.6543H359.484L367.297 66.1855L369.875 46.6543H375.109L374.016 73.998ZM377.688 48.6074L394.27 46.6543L395.266 52.5137H384.152L384.211 58.373H395.266L394.523 64.2324H385.5L384.328 73.998H377.688V48.6074ZM415.793 73.998H404.27L405.109 53.6465L397.492 53.1387V46.6543H420.539V53.2559L412.922 54.4668L415.793 73.998ZM60.3828 92.6543H67.8047L68.0781 119.998H60.3828V92.6543ZM94.7969 119.998H88.0781V116.092L79.0547 102.42L77.5312 119.998H70.5L72.4531 92.6543H80.2656L88.0781 112.186L90.6562 92.6543H95.8906L94.7969 119.998ZM116.379 119.998H104.855L105.695 99.6465L98.0781 99.1387V92.6543H121.125V99.2559L113.508 100.467L116.379 119.998ZM127.922 92.5176L139.758 93.2598L147.648 96.4629L148.996 105.037L148.332 116.189L139.758 120.135L127.238 119.529L122.785 110.271V100.408L127.922 92.5176ZM133.176 97.9473L128.469 104.49L131.125 113.67L138.488 114.588L143.156 109.998L142.512 100.213L133.176 97.9473ZM185.461 106.326L184.406 116.854L174.641 119.998L161.691 118.943L160.969 104.373L164.875 92.6543H174.641L185.656 94.6074L179.523 100.467L170.031 95.877L165.07 104.373L167.141 114.803L175.695 115.369L175.441 109.627L170.109 109.002L170.695 105.369L185.461 106.326ZM212.297 119.998H204.484L200.578 112.186H196.672L192.766 119.998H186.906L193.625 92.6934L204.484 92.752L212.297 119.998ZM202.531 107.42L197.883 96.5605L194.719 107.42H202.531ZM213.469 119.998L216.477 92.6543H223.234L229.094 104.373L236.906 92.6543H244.719L244.133 119.998H234.074L234.953 107.029L228.41 114.744L222.355 106.326L219.328 119.998H213.469ZM247.375 119.998V92.6543L264.953 90.7012V96.5605L252.297 98.5137L251.984 102.42H264.953V107.459L253.234 108.279V113.592L264.953 113.279V118.943L247.375 119.998ZM269.484 92.6543L282.512 92.459L287.062 100.467L286.008 110.975L274.523 111.482L273.137 119.998L267.531 120.193L269.484 92.6543ZM275.676 97.4395L274.758 105.818L280.773 104.92L281.398 100.271L275.676 97.4395ZM289.797 92.6543L295.656 95.1738L294.797 113.396L307.375 114.139L308.742 119.998L289.797 120.193V92.6543ZM335.656 119.998H327.844L323.938 112.186H320.031L316.125 119.998H310.266L316.984 92.6934L327.844 92.752L335.656 119.998ZM325.891 107.42L321.242 96.5605L318.078 107.42H325.891ZM336.438 92.6543H340.344L344.25 104.373H347.551L351.105 92.6543H356.594L357.16 101.17L348.156 108.279L352.902 119.451L340.344 119.998L343.215 108.279L336.438 100.467V92.6543Z" fill="white"/>
  <path d="M45.8125 145.854L50.8125 146.049L53.625 148.764L55.5781 152.67L51.6719 157.26L46.418 158.529L42.7852 156.576L40.8125 152.025L41.9062 148.08L45.8125 145.854ZM87.7266 136.498L86.2422 131.283H91.2812L89.875 135.697L94.7969 134.35L96.3203 138.646H91.1445L94.9922 143.705L91.1445 145.99L88.6836 140.795L84.2695 145.092L81.2812 141.928L86.9258 139.545L80.0703 138.021L81.2812 133.529L87.7266 136.498ZM107.727 136.498L106.242 131.283H111.281L109.875 135.697L114.797 134.35L116.32 138.646H111.145L114.992 143.705L111.145 145.99L108.684 140.795L104.27 145.092L101.281 141.928L106.926 139.545L100.07 138.021L101.281 133.529L107.727 136.498ZM137.648 136.498L136.164 131.283H141.203L139.797 135.697L144.719 134.35L146.242 138.646H141.066L144.914 143.705L141.066 145.99L138.605 140.795L134.191 145.092L131.203 141.928L136.848 139.545L129.992 138.021L131.203 133.529L137.648 136.498ZM157.648 136.498L156.164 131.283H161.203L159.797 135.697L164.719 134.35L166.242 138.646H161.066L164.914 143.705L161.066 145.99L158.605 140.795L154.191 145.092L151.203 141.928L156.848 139.545L149.992 138.021L151.203 133.529L157.648 136.498ZM177.648 136.498L176.164 131.283H181.203L179.797 135.697L184.719 134.35L186.242 138.646H181.066L184.914 143.705L181.066 145.99L178.605 140.795L174.191 145.092L171.203 141.928L176.848 139.545L169.992 138.021L171.203 133.529L177.648 136.498ZM197.648 136.498L196.164 131.283H201.203L199.797 135.697L204.719 134.35L206.242 138.646H201.066L204.914 143.705L201.066 145.99L198.605 140.795L194.191 145.092L191.203 141.928L196.848 139.545L189.992 138.021L191.203 133.529L197.648 136.498Z" fill="white"/>
</svg>
