<svg width="547" height="220" viewBox="0 0 547 220" fill="none" xmlns="http://www.w3.org/2000/svg">
  <path d="M7.5 24.375L38.7656 23.9062L49.6875 43.125L47.1562 68.3438L19.5938 69.5625L16.2656 90L2.8125 90.4688L7.5 24.375ZM22.3594 35.8594L20.1562 55.9688L34.5938 53.8125L36.0938 42.6562L22.3594 35.8594ZM61.875 52.5L57.1875 38.4375L71.25 26.0156L85.3125 24.375L94.6875 30.8906L91.3594 52.5L71.25 73.7344L94.6875 72.7969L93.3281 90L57.1875 87V71.25L83.8594 47.8125L83.5312 33.75H71.25L61.875 52.5ZM103.312 90V24.375L145.5 19.6875V33.75L115.125 38.4375L114.375 47.8125H145.5V59.9062L117.375 61.875V74.625L145.5 73.875V87.4688L103.312 90ZM234.75 57.1875L232.219 82.4531L208.781 90L177.703 87.4688L175.969 52.5L185.344 24.375H208.781L235.219 29.0625L220.5 43.125L197.719 32.1094L185.812 52.5L190.781 77.5312L211.312 78.8906L210.703 65.1094L197.906 63.6094L199.312 54.8906L234.75 57.1875ZM299.156 90H280.406L271.031 71.25H261.656L252.281 90H238.219L254.344 24.4688L280.406 24.6094L299.156 90ZM275.719 59.8125L264.562 33.75L256.969 59.8125H275.719ZM301.969 90L309.188 24.375H325.406L339.469 52.5L358.219 24.375H376.969L375.562 90H351.422L353.531 58.875L337.828 77.3906L323.297 57.1875L316.031 90H301.969ZM383.344 90V24.375L425.531 19.6875V33.75L395.156 38.4375L394.406 47.8125H425.531V59.9062L397.406 61.875V74.625L425.531 73.875V87.4688L383.344 90ZM458.438 24.375H476.25L476.906 90H458.438V24.375ZM541.031 90H524.906V80.625L503.25 47.8125L499.594 90H482.719L487.406 24.375H506.156L524.906 71.25L531.094 24.375H543.656L541.031 90ZM46.2656 200H18.6094L20.625 151.156L2.34375 149.938V134.375H57.6562V150.219L39.375 153.125L46.2656 200ZM63.375 200V134.375L105.562 129.688V143.75L75.1875 148.438L74.4375 157.812H105.562V169.906L77.4375 171.875V184.625L105.562 183.875V197.469L63.375 200ZM112.688 134.375L126.75 140.422L124.688 184.156L154.875 185.938L158.156 200L112.688 200.469V134.375ZM164.156 200V134.375L206.344 129.688V143.75L175.969 148.438L175.219 157.812H206.344V169.906L178.219 171.875V184.625L206.344 183.875V197.469L164.156 200ZM271.781 167.188L269.25 192.453L245.812 200L214.734 197.469L213 162.5L222.375 134.375H245.812L272.25 139.062L257.531 153.125L234.75 142.109L222.844 162.5L227.812 187.531L248.344 188.891L247.734 175.109L234.938 173.609L236.344 164.891L271.781 167.188ZM328.688 200H309.938L305.25 174.828L297.188 174.688L293.859 200H277.125L280.219 136.016L309.938 134.375L327.047 139.062L325.359 162.5L314.625 171.875L328.688 200ZM290.953 163.578L306.844 162.078L316.781 148.672L300.609 143L290.859 144.312L290.953 163.578ZM393.938 200H375.188L365.812 181.25H356.438L347.062 200H333L349.125 134.469L375.188 134.609L393.938 200ZM370.5 169.812L359.344 143.75L351.75 169.812H370.5ZM396.75 200L403.969 134.375H420.188L434.25 162.5L453 134.375H471.75L470.344 200H446.203L448.312 168.875L432.609 187.391L418.078 167.188L410.812 200H396.75Z" fill="white"/>
</svg>
