<svg width="568" height="294" viewBox="0 0 568 294" fill="none" xmlns="http://www.w3.org/2000/svg">
  <path d="M555.751 193.65L549.741 198.45L500.641 155.1L529.651 128.67H555.751L561.931 175.88L555.751 193.65Z" fill="black" stroke="black" stroke-width="2" stroke-linecap="round" stroke-linejoin="round"/>
  <path d="M268.19 172.84L290.51 141.28L334.25 137.59L356.43 143.77L358.32 178.68L360.55 210.73L358.32 228.07L354.11 235.53L321.07 239.34L264.41 197.79L268.19 172.84Z" fill="black" stroke="black" stroke-width="2" stroke-linecap="round" stroke-linejoin="round"/>
  <path d="M237.628 248.31C237.628 248.31 240.608 298.17 307.218 292.67C373.828 287.18 366.478 154.18 303.558 159.05C240.638 163.92 235.338 199.82 237.628 248.31Z" fill="#191919"/>
  <path d="M36.8003 233.03C36.8003 233.03 39.7803 282.89 106.39 277.39C173 271.9 165.65 138.9 102.73 143.77C39.8103 148.64 34.5103 184.54 36.8003 233.03Z" fill="black"/>
  <path d="M349.819 199.66C349.689 199.33 336.789 167.13 308.899 169.57C280.859 172.02 252.199 216.37 277.789 265.87C292.809 294.94 329.289 283.81 342.359 270.81C350.049 258.77 353.859 243.14 354.039 227.39C353.959 217.85 352.539 208.33 349.819 199.65V199.66Z" fill="black"/>
  <path d="M338.734 228.94C339.403 203.726 326.666 182.933 310.286 182.499C293.905 182.064 280.084 202.152 279.415 227.366C278.746 252.58 291.482 273.372 307.863 273.807C324.243 274.241 338.065 254.154 338.734 228.94Z" fill="#BFBFBF"/>
  <path d="M484.061 217.36C484.061 217.36 485.811 257.63 524.961 253.19C564.111 248.75 559.791 141.35 522.811 145.28C485.831 149.21 482.711 178.21 484.061 217.36Z" fill="#191919"/>
  <path d="M552.469 197.92C552.469 197.82 552.469 197.73 552.469 197.63C552.469 197.05 552.439 196.48 552.429 195.9C552.089 185.06 550.199 174.41 546.859 165.68C543.749 158.61 538.579 150.84 531.179 151.95C517.949 153.94 504.419 189.97 516.499 230.17C522.849 251.31 537.309 246.28 544.699 237.42C549.579 227.98 552.119 215.37 552.459 202.52C552.459 202.06 552.479 201.6 552.489 201.13C552.489 201 552.489 200.86 552.489 200.73C552.489 199.79 552.489 198.86 552.489 197.92H552.469Z" fill="black"/>
  <path d="M546.797 201.301C547.057 180.935 540.122 164.333 531.309 164.221C522.495 164.109 515.14 180.528 514.88 200.895C514.621 221.261 521.555 237.863 530.369 237.975C539.183 238.087 546.538 221.668 546.797 201.301Z" fill="#BFBFBF"/>
  <path d="M17.6602 230.18C17.6602 230.18 8.73016 221.94 4.61016 213.47C0.490158 205 1.18016 170.44 1.18016 170.44L2.52016 169.44L2.18016 160.77L7.93016 156.31C7.93016 156.31 6.67016 115.39 11.9402 103.03C17.2002 90.6699 55.8902 83.6899 65.0402 82.5399C74.2002 81.3999 144.7 77.1599 144.7 77.1599C144.7 77.1599 193.46 28.2899 209.48 20.5099C225.5 12.7299 284.33 5.62993 377.03 5.85993C469.73 6.08993 532.45 26.9199 532.45 26.9199L549.16 70.8699C549.16 70.8699 552.48 75.0999 553.77 81.6299C553.77 81.6299 561.41 89.2699 561.92 89.8699C562.43 90.4699 562.61 92.6199 562.61 92.6199C562.61 92.6199 571.25 111.73 561.75 146.07L556.03 193.11C556.03 193.11 563.81 148.25 550.08 137.03L529.02 137.49C529.02 137.49 522.37 138.26 517.12 149.39C513.09 157.95 512.23 159.49 512.23 159.49L503.22 204.9L357.81 223.27L357.47 173.48C357.47 173.48 347.34 144.64 339.62 143.44C331.89 142.24 300.82 145.16 299.1 145.33C297.38 145.5 287.94 144.64 274.04 172.45C272.49 175.54 263.28 227.44 245.66 248.5L196.45 247.36C196.45 247.36 87.2602 245.3 17.6802 230.19L17.6602 230.18Z" fill="#E19E00"/>
  <path d="M553.77 81.6301C553.77 81.6301 539.44 81.29 531.97 83.09C524.5 84.89 532.66 91.2401 561.93 89.8701L553.78 81.6301H553.77Z" fill="#FFC55F"/>
  <path d="M362.272 124.14C362.272 124.14 367.422 122.14 370.742 132.9C374.062 143.66 375.042 175.25 423.532 171.81C472.022 168.38 480.722 172.38 490.112 151.84C499.492 131.3 502.482 122.56 513.002 122.13C513.002 122.13 509.112 121.63 505.222 129.05C501.332 136.47 497.262 145.62 488.122 167.73C487.152 170.07 488.152 170.53 482.432 171.07C476.722 171.61 402.302 179.3 397.132 178.68C391.962 178.06 387.232 180.81 378.782 165.04C370.332 149.27 364.842 127 362.262 124.14H362.272Z" fill="#BF7F00"/>
  <path d="M561.758 146.06C565.008 134.31 566.138 124.34 566.208 116.31C560.348 121.79 520.548 121.46 511.968 122.13C503.378 122.81 488.968 170.21 486.218 170.67C483.468 171.13 419.268 176.74 397.138 178.68C375.008 180.63 366.048 124.89 362.268 124.14C358.488 123.39 246.848 127.17 246.848 127.17C247.138 150.4 234.888 164.03 234.888 164.03L220.738 247.91L245.648 248.49C263.278 227.43 272.488 175.53 274.028 172.44C287.938 144.63 297.378 145.49 299.088 145.32C300.808 145.15 331.878 142.23 339.608 143.43C347.338 144.63 357.458 173.47 357.458 173.47L357.798 223.26L503.208 204.89L512.218 159.48C512.218 159.48 513.078 157.93 517.108 149.38C522.358 138.25 529.008 137.48 529.008 137.48L550.068 137.02C558.958 144.28 558.828 165.63 557.638 179.79L561.738 146.06H561.758Z" fill="#B5740B"/>
  <path d="M557.647 179.79L556.027 193.1C556.027 193.1 556.997 187.51 557.647 179.79Z" fill="#898989"/>
  <path d="M17.6602 230.18C17.6602 230.18 8.73016 221.94 4.61016 213.47C0.490158 205 1.18016 170.44 1.18016 170.44L2.52016 169.44L2.18016 160.77L7.93016 156.31C7.93016 156.31 6.67016 115.39 11.9402 103.03C17.2002 90.6699 55.8902 83.6899 65.0402 82.5399C74.2002 81.3999 144.7 77.1599 144.7 77.1599C144.7 77.1599 193.46 28.2899 209.48 20.5099C225.5 12.7299 284.33 5.62993 377.03 5.85993C469.73 6.08993 532.45 26.9199 532.45 26.9199L549.16 70.8699C549.16 70.8699 552.48 75.0999 553.77 81.6299C553.77 81.6299 561.41 89.2699 561.92 89.8699C562.43 90.4699 562.61 92.6199 562.61 92.6199C562.61 92.6199 571.25 111.73 561.75 146.07L556.03 193.11C556.03 193.11 563.81 148.25 550.08 137.03L529.02 137.49C529.02 137.49 522.37 138.26 517.12 149.39C513.09 157.95 512.23 159.49 512.23 159.49L503.22 204.9L357.81 223.27L357.47 173.48C357.47 173.48 347.34 144.64 339.62 143.44C331.89 142.24 300.82 145.16 299.1 145.33C297.38 145.5 287.94 144.64 274.04 172.45C272.49 175.54 263.28 227.44 245.66 248.5L196.45 247.36C196.45 247.36 87.2602 245.3 17.6802 230.19L17.6602 230.18Z" stroke="black" stroke-width="2" stroke-linecap="round" stroke-linejoin="round"/>
  <path d="M205.319 22.9499C188.169 34.2199 152.449 69.4599 145.789 76.0799C145.789 76.0799 299.439 74.1899 320.039 76.0799L338.119 78.8799C338.119 78.8799 364.899 25.3199 374.519 15.0199C374.519 15.0199 247.389 9.12988 205.319 22.9499Z" fill="black"/>
  <path d="M369.588 17.8799C369.588 17.8799 250.718 10.7099 201.788 25.3999C185.128 37.5699 156.968 65.0199 147.738 74.1399C165.348 73.7499 296.938 70.8799 315.678 72.4299L336.888 75.3899C336.888 75.3899 361.008 27.7199 369.598 17.8799H369.588Z" fill="#353535"/>
  <path d="M354.139 80.8C353.809 80.8 353.499 80.63 353.309 80.36C353.109 80.07 353.089 79.69 353.239 79.38C354.179 77.39 376.249 30.66 381.769 24.22L382.189 23.72C386.829 18.29 389.639 15.01 401.419 15.01C402.929 15.01 404.559 15.06 406.389 15.17C421.879 16.05 481.099 21.2 485.599 22.05C489.739 22.83 493.249 23.74 497.399 27.56C500.679 27.86 524.419 30.09 531.719 32.38C532.019 32.47 532.249 32.7 532.359 32.99L546.089 70.42C546.199 70.73 546.159 71.08 545.959 71.35C545.769 71.61 545.469 71.77 545.149 71.77L499.399 70.64C498.639 72.58 495.879 77.53 487.149 79.86C487.069 79.88 486.979 79.89 486.889 79.89C485.699 79.89 367.279 80.13 354.179 80.8C354.159 80.8 354.149 80.8 354.129 80.8H354.139Z" fill="#353535"/>
  <path d="M401.42 16.01C402.9 16.01 404.53 16.06 406.33 16.16C422.35 17.08 481.18 22.23 485.42 23.03C489.66 23.83 492.97 24.75 496.98 28.52C496.98 28.52 523.76 30.92 531.43 33.33L545.16 70.76L498.69 69.62C498.69 69.62 497.2 76.14 486.9 78.89C486.9 78.89 367.41 79.12 354.14 79.81C354.14 79.81 377.03 31.28 382.52 24.87C387.4 19.18 389.75 16.02 401.41 16.02M401.41 14.02C389.17 14.02 386.08 17.62 381.42 23.08L381 23.57C375.4 30.11 353.27 76.96 352.33 78.95C352.03 79.59 352.09 80.33 352.48 80.92C352.85 81.48 353.48 81.81 354.14 81.81C354.17 81.81 354.21 81.81 354.24 81.81C367.32 81.13 485.71 80.9 486.9 80.9C487.07 80.9 487.24 80.88 487.41 80.83C495.68 78.63 498.88 74.08 500.04 71.66L545.1 72.77C545.1 72.77 545.13 72.77 545.15 72.77C545.79 72.77 546.4 72.46 546.78 71.94C547.17 71.4 547.26 70.71 547.03 70.09L533.3 32.66C533.09 32.08 532.61 31.63 532.02 31.44C524.84 29.19 502.15 27.01 497.83 26.61C493.59 22.81 489.86 21.85 485.79 21.08C481.27 20.23 421.95 15.07 406.45 14.18C404.6 14.07 402.96 14.02 401.42 14.02H401.41Z" fill="black"/>
  <path d="M239.609 109.1C241.159 115.45 242.529 122.06 240.729 135.54C238.929 149.02 233.859 154.42 227.679 155.88C221.499 157.34 168.799 159.06 168.799 159.06L20.8188 154.6C20.8188 154.6 13.3588 153.51 7.81876 148.59C7.73876 136.4 8.09876 113.12 11.6888 103.67L22.2488 107.5H171.719L229.859 104.47C229.859 104.47 238.069 102.75 239.619 109.11L239.609 109.1ZM7.79876 145.69L21.1488 150.98C21.1488 150.98 135.999 155.1 166.559 155.1C197.119 155.1 229.389 151.32 229.389 151.32C241.579 131.06 233.679 109.02 233.679 109.02L172.049 111.49L22.1188 110.92L10.7788 106.55C7.61876 115.86 7.79876 145.68 7.79876 145.68V145.69Z" fill="#595959" stroke="black" stroke-width="2" stroke-linecap="round" stroke-linejoin="round"/>
  <path d="M10.7785 106.56L22.1185 110.93L172.048 111.5L233.678 109.03C233.678 109.03 241.578 131.07 229.388 151.33C229.388 151.33 197.118 155.11 166.558 155.11C135.998 155.11 21.1485 150.99 21.1485 150.99L7.79849 145.7C7.79849 145.7 7.62849 115.88 10.7785 106.57V106.56Z" fill="black"/>
  <path d="M20.8086 154.59C20.8086 154.59 21.8386 158.54 24.0686 160.68C24.0686 160.68 151.449 166.6 165.189 165.74L168.799 159.04L165.189 158.93L20.8086 154.58V154.59Z" fill="black"/>
  <path d="M557.65 179.79C558.84 165.63 558.97 144.28 550.08 137.02L529.02 137.48C529.02 137.48 522.37 138.25 517.12 149.38C513.09 157.94 512.23 159.48 512.23 159.48L503.22 204.89L500.3 215.36L354.12 235.53L357.81 223.26L357.47 173.47C357.47 173.47 347.34 144.63 339.62 143.43C331.89 142.23 300.82 145.15 299.1 145.32C297.38 145.49 287.94 144.63 274.04 172.44C272.49 175.53 263.28 227.43 245.66 248.49L196.45 247.35C196.45 247.35 87.2597 245.29 17.6797 230.18C17.6797 230.18 8.74969 221.94 4.62969 213.47C0.50969 205 1.19969 170.44 1.19969 170.44L2.53969 169.44L2.19969 160.77L7.94969 156.31C7.94969 156.31 16.1797 160.33 24.0897 160.69C24.0897 160.69 156.79 166.44 165.21 165.75C173.62 165.06 238.86 165.23 253.11 162.83C253.11 162.83 272.68 141.03 275.08 138.8C277.48 136.57 281.43 131.63 291.39 130.84C301.35 130.05 335.34 128.85 338.26 128.67C341.18 128.5 353.02 129.87 363.67 169.36L362.81 212.62H366.67C366.67 212.62 372.68 205.58 374.31 204.64C375.94 203.7 489.68 187.84 489.68 187.84L493.46 191.16C493.46 191.16 498.72 168.5 500.33 163.58C501.93 158.66 510.37 128.92 520.47 125.47C524.82 123.98 546.34 124.1 547.59 124.21C548.85 124.32 556.52 124.9 561.78 146.07L563.33 155.11C563.33 155.11 566.94 154.42 566.94 157C566.94 159.58 564.54 182.41 564.11 185.07C563.68 187.73 559.73 191.68 555.78 193.65L557.69 179.8L557.65 179.79Z" fill="#3A3A3A" stroke="black" stroke-width="2" stroke-linecap="round" stroke-linejoin="round"/>
  <path d="M161.64 170.67L262.01 168.15C262.01 168.15 280.55 135.53 289.36 134.73C298.17 133.93 345.14 131.36 345.14 131.36C343.88 130.36 342.73 129.72 341.72 129.31C340.74 128.95 339.56 128.68 338.22 128.66C336.45 128.76 323.24 129.25 310.9 129.79C302.32 130.2 294.87 130.59 294.02 130.64C293.01 130.7 292.11 130.77 291.36 130.83C289.53 130.98 287.9 131.26 286.44 131.65C283.61 132.5 280.27 134.08 276.85 137.05C276.15 137.71 275.56 138.31 275.04 138.79C274.87 138.95 274.61 139.21 274.29 139.54C266.6 147.88 253.07 162.82 253.07 162.82C245.44 164.11 223.19 164.66 202.87 164.99C191.97 165.3 179.37 165.56 165.17 165.74C156.76 166.43 24.0502 160.68 24.0502 160.68C16.1402 160.32 7.91016 156.3 7.91016 156.3L2.16016 160.76L15.5802 165.17L161.62 170.66L161.64 170.67Z" fill="#595959" stroke="black" stroke-width="2" stroke-linecap="round" stroke-linejoin="round"/>
  <path d="M2.51969 169.44L18.4597 172.84C18.4597 172.84 18.9197 178.33 24.6397 178.79C30.3597 179.25 134.86 184.05 152.02 184.05C154.09 184.05 159.69 178.9 159.69 178.9L230.08 178.67C230.08 178.67 208.23 182.33 178.69 182.33C166.44 182.33 157.97 182.22 157.97 182.22C157.97 182.22 155.68 187.48 150.19 188.63C144.7 189.77 21.8297 182.74 19.4297 182.74C17.0297 182.74 14.6197 179.99 13.0797 174.67C13.0797 174.67 1.22969 174.38 1.17969 170.44L2.51969 169.44Z" fill="#595959" stroke="black" stroke-width="2" stroke-linecap="round" stroke-linejoin="round"/>
  <path d="M14.5709 217.94C14.5709 217.94 10.5609 203.52 18.6909 203.52C26.8209 203.52 141.151 211.3 148.251 211.87C155.351 212.44 156.261 213.73 165.361 229.01C165.361 229.01 52.4509 223.09 14.5709 217.94ZM148.251 211.87C141.511 211.33 38.1409 204.29 20.7209 203.57C15.7309 204.52 17.9709 214.84 17.9709 214.84L163.181 225.37C156.051 213.52 154.731 212.39 148.241 211.86L148.251 211.87Z" fill="#595959"/>
  <path d="M148.251 211.87C141.151 211.3 26.8209 203.52 18.6909 203.52C10.5609 203.52 14.5709 217.94 14.5709 217.94C52.4509 223.09 165.361 229.01 165.361 229.01C156.261 213.73 155.351 212.44 148.251 211.87ZM148.251 211.87C141.511 211.33 38.1409 204.29 20.7209 203.57C15.7309 204.52 17.9709 214.84 17.9709 214.84L163.181 225.37C156.051 213.52 154.731 212.39 148.241 211.86L148.251 211.87Z" stroke="black" stroke-width="2" stroke-linecap="round" stroke-linejoin="round"/>
  <path d="M148.25 211.87C141.51 211.33 38.1401 204.29 20.7201 203.57C15.7301 204.52 17.9701 214.84 17.9701 214.84L163.18 225.37C156.05 213.52 154.73 212.39 148.24 211.86L148.25 211.87Z" fill="black" stroke="black" stroke-width="2" stroke-linecap="round" stroke-linejoin="round"/>
  <path d="M18.4609 172.84L159.691 178.91C159.691 178.91 154.221 184.08 152.021 184.06C149.821 184.04 29.4509 179.76 24.6409 178.8C20.8109 178.03 19.5509 176.51 18.4609 172.85V172.84Z" fill="black" stroke="black" stroke-width="2" stroke-linecap="round" stroke-linejoin="round"/>
  <path d="M391.23 155.79C391.23 155.79 372.23 132.21 384.36 128.67C396.49 125.12 483.02 122.38 487.14 122.15C491.26 121.92 496.52 125.31 491.03 136.09C485.54 146.87 485.77 147.44 460.36 149.67C434.95 151.9 397.87 157.85 391.23 155.79Z" fill="#FFC55F"/>
  <path d="M230.081 178.68C230.081 178.68 231.451 178.79 231.631 182.91C231.801 187.03 231.801 202.34 231.631 203.57C231.461 204.8 231.631 208.58 228.631 209.01C225.631 209.44 197.991 213.82 197.991 213.82C197.991 213.82 194.381 213.48 194.211 216.27C194.041 219.06 194.211 224.64 194.211 224.64C194.211 224.64 193.441 225.16 192.661 224.64C191.881 224.12 192.061 215.14 192.061 214.48C192.061 213.82 191.801 211.68 195.241 211.25C198.671 210.82 224.171 207.04 225.371 206.7C226.571 206.36 228.631 206.7 228.721 202.75C228.811 198.8 228.981 184.21 228.981 183.01C228.981 181.81 228.381 180.1 227.311 179.11L230.101 178.69L230.081 178.68Z" fill="#595959" stroke="black" stroke-width="2" stroke-linecap="round" stroke-linejoin="round"/>
  <path d="M228.359 180.59C228.359 180.59 214.869 184.06 192.879 184.06C190.249 184.06 185.779 183.6 185.899 191.16C186.009 198.71 186.589 225.38 186.589 225.38L179.949 226.18C179.949 226.18 177.199 208.9 178.689 182.35C178.689 182.35 213.519 181.82 227.289 179.11C227.289 179.11 228.029 179.76 228.359 180.6V180.59Z" fill="black" stroke="black" stroke-width="2" stroke-linecap="round" stroke-linejoin="round"/>
  <path d="M35.1714 231.44C35.1714 231.44 33.2214 228.35 35.1714 228.12C37.1214 227.89 52.1114 228.64 52.5714 229.01C53.0314 229.38 55.3214 233.16 53.9414 233.39C52.5614 233.62 36.8914 232.25 35.1714 231.44Z" fill="#595959" stroke="black" stroke-width="2" stroke-linecap="round" stroke-linejoin="round"/>
  <path d="M77.3901 235.38C77.3901 235.38 75.4401 232.29 77.3901 232.06C79.3401 231.83 94.3301 232.58 94.7901 232.95C95.2501 233.32 97.5401 237.1 96.1601 237.33C94.7801 237.56 79.1101 236.19 77.3901 235.38Z" fill="#595959" stroke="black" stroke-width="2" stroke-linecap="round" stroke-linejoin="round"/>
  <path d="M127.499 240.03C127.499 240.03 125.549 236.94 127.499 236.71C129.449 236.48 144.439 237.23 144.899 237.6C145.359 237.97 147.649 241.75 146.269 241.98C144.889 242.21 129.219 240.84 127.499 240.03Z" fill="#595959" stroke="black" stroke-width="2" stroke-linecap="round" stroke-linejoin="round"/>
  <path d="M161.751 93.4199H70.3009C63.8909 93.4199 66.3309 90.4099 66.3309 90.4099C69.9609 83.0099 80.1109 81.3099 80.1109 81.3099L118.261 78.8799C100.621 80.0599 76.4909 86.3199 72.2509 88.8399C68.0109 91.3599 72.5909 91.6999 73.9709 91.9299C75.3509 92.1599 165.701 91.9299 165.701 91.9299C165.701 91.9299 171.371 87.9199 182.871 86.1499C194.371 84.3799 211.881 82.9699 211.881 82.9699C211.881 82.9699 185.791 86.0899 183.041 87.1199C180.291 88.1499 171.881 90.0999 167.251 93.4099H161.761L161.751 93.4199Z" fill="#FFC55F"/>
  <path d="M324.39 79.8L233.75 86.1501C233.75 86.1501 325.08 82.0901 328.97 81.6301C332.86 81.1701 324.39 79.8 324.39 79.8Z" fill="#FFC55F"/>
  <path d="M229.852 104.46C229.852 104.46 230.772 94.9001 245.642 93.4201C260.522 91.9301 327.342 88.2701 329.982 88.0401C332.622 87.8101 336.342 86.3801 332.762 78.0601" stroke="black" stroke-width="2" stroke-linecap="round" stroke-linejoin="round"/>
  <path d="M371.539 223.66L378.289 223.09L380.919 217.82L407.709 214.28L412.859 218.17L421.899 217.14L424.529 212.1L447.989 209.01L452.109 212.79L463.209 211.18L465.619 205.58L485.299 203.06L489.419 207.29L496.519 206.49L487.939 197.79L378.059 213.25L371.539 223.66Z" fill="black"/>
  <path d="M539.43 55.1501L453.78 20.8601L442.84 21.9901L543.71 70.7201L545.16 70.7501L539.43 55.1501Z" fill="white"/>
  <path d="M418.009 18.79L406.809 19.13L498.689 69.61L525.739 70.28L418.009 18.79Z" fill="white"/>
  <path d="M358.321 76.8199C358.321 76.8199 380.811 30.6399 384.071 27.3799C387.331 24.1199 390.421 18.6199 400.211 18.7999C410.001 18.9699 475.681 24.5899 486.561 26.5799C486.561 26.5799 495.601 54.3899 496.521 66.6399C496.521 66.6399 493.321 75.9099 485.651 76.1399C477.981 76.3699 358.321 76.8299 358.321 76.8299V76.8199ZM496.981 28.5199C492.971 24.7399 489.661 23.8299 485.421 23.0299C481.191 22.2299 422.361 17.0799 406.331 16.1599C390.311 15.2399 388.021 18.4499 382.521 24.8599C377.031 31.2699 354.141 79.7999 354.141 79.7999C367.421 79.1099 486.901 78.8799 486.901 78.8799C497.201 76.1299 498.691 69.6099 498.691 69.6099L511.961 69.9399C508.861 54.1299 496.971 28.5299 496.971 28.5299L496.981 28.5199Z" fill="black"/>
  <path d="M429.582 20.8598C429.582 20.8598 436.102 55.9998 435.872 76.4798L445.032 76.4299C445.032 76.4299 442.872 37.1698 438.052 21.5698L429.582 20.8499V20.8598Z" fill="black"/>
  <path d="M539.012 101.03C539.012 101.03 538.152 95.9699 541.162 95.7899C544.612 95.5899 545.452 95.6999 546.572 95.7899C547.692 95.8799 549.832 96.0499 550.262 101.03C550.692 106.01 551.722 118.37 547.432 118.37C543.142 118.37 539.792 120.34 539.532 114.76C539.272 109.18 539.012 101.03 539.012 101.03Z" fill="#757575" stroke="black" stroke-width="2" stroke-linecap="round" stroke-linejoin="round"/>
  <path d="M354.141 79.8C354.141 79.8 362.151 85.29 363.751 97.2C365.351 109.1 363.751 212.62 363.751 212.62H366.641L374.281 204.64L489.651 187.84L493.431 191.16C493.431 191.16 505.561 131.3 520.441 125.47C522.871 124.52 531.541 124.35 531.541 124.35C531.541 124.35 531.201 97.26 530.001 91.08C530.001 91.08 519.351 75.94 511.971 69.95" stroke="black" stroke-width="2" stroke-linecap="round" stroke-linejoin="round"/>
  <path d="M446.988 78.99C446.988 78.99 452.908 82.05 453.508 89.69C454.108 97.33 454.848 127.4 452.568 153.95L455.548 173.41L452.978 193.17" stroke="black" stroke-width="2" stroke-linecap="round" stroke-linejoin="round"/>
  <path d="M438.839 109.1C438.839 109.1 433.059 110.71 433.059 100.75C433.059 94.11 442.389 94.57 442.849 98.58C443.309 102.59 446.059 109.34 438.849 109.11L438.839 109.1Z" fill="#757575" stroke="black" stroke-width="2" stroke-linecap="round" stroke-linejoin="round"/>
  <path d="M430.511 106.69C430.511 106.69 425.891 101.97 429.571 99.91C433.251 97.85 449.391 96.9101 449.651 101.71C449.911 106.51 441.411 107.12 430.511 106.69Z" fill="black"/>
  <path d="M518.981 109.1C518.981 109.1 514.191 110.71 514.191 100.75C514.191 94.11 521.911 94.57 522.291 98.58C522.671 102.59 524.941 109.34 518.971 109.11L518.981 109.1Z" fill="#757575" stroke="black" stroke-width="2" stroke-linecap="round" stroke-linejoin="round"/>
  <path d="M512.08 106.69C512.08 106.69 508.26 101.97 511.31 99.91C514.36 97.85 527.72 96.9101 527.93 101.71C528.14 106.51 521.11 107.12 512.08 106.69Z" fill="black"/>
  <path d="M373.141 8.48995H383.901C383.901 8.48995 429.491 6.60995 517.601 22.7099C517.601 22.7099 513.921 15.5799 503.051 13.6399C492.181 11.6899 431.091 0.479946 392.831 0.359946C381.731 0.329946 373.141 8.48995 373.141 8.48995Z" fill="black"/>
  <path d="M222.41 16.3799C222.41 16.3799 231.58 3.31985 271.29 9.56985C271.29 9.56985 239.35 11.8999 222.41 16.3799Z" fill="black"/>
  <path d="M370.738 82.97H382.068C382.068 82.97 380.038 75.76 380.308 69.93L423.388 68.46C423.388 68.46 425.788 78.53 411.138 79.22C396.488 79.91 394.888 79.79 394.888 79.79L393.858 89.52L376.918 93.87C376.918 93.87 373.718 86.03 370.738 82.97Z" fill="black"/>
  <path d="M380.31 69.9399C380.31 69.9399 379.92 62.2899 380.31 59.8799C380.7 57.4799 384.02 51.5299 394.66 51.4099C405.3 51.2999 410.57 51.2999 412.74 51.4099C414.91 51.5199 422.12 52.6699 422.7 59.0799C423.27 65.4899 423.39 68.4599 423.39 68.4599L380.31 69.9299V69.9399Z" fill="#9E9E9E"/>
  <path d="M69.4297 238.58C69.4297 238.58 71.9797 245.98 76.5297 246.43C81.0797 246.88 180.64 253.75 190.03 253.53C199.41 253.3 203.31 247.51 203.31 247.51C203.31 247.51 132.87 246.52 69.4297 238.58Z" fill="black" stroke="black" stroke-width="2" stroke-linecap="round" stroke-linejoin="round"/>
  <path d="M218.53 109.64L206.32 110.13C197.2 113.03 190.59 121.44 190.59 131.36C190.59 142.21 198.48 151.25 208.92 153.26C213.89 152.87 218.22 152.48 221.59 152.15C227.31 149.95 231.9 145.55 234.27 140.01C235.23 136.63 235.76 133.32 236.01 130.2C235.48 120.16 228.19 111.87 218.52 109.65L218.53 109.64Z" fill="#FFDB76" stroke="black" stroke-width="2" stroke-linecap="round" stroke-linejoin="round"/>
  <path d="M16.7204 108.85C16.7204 108.85 3.19036 128.84 16.7204 147.73L23.4704 150.05C23.4704 150.05 25.1604 118.26 22.1304 110.94L16.7204 108.86V108.85Z" fill="#FFDB76" stroke="black" stroke-width="2" stroke-linecap="round" stroke-linejoin="round"/>
  <path d="M23.9414 127.18L170.511 130.84L190.601 129.45C190.601 129.45 190.431 133.49 191.071 135.88H170.001L23.9414 132.68C23.9414 132.68 24.0314 129.21 23.9414 127.18Z" fill="#3A3A3A" stroke="black" stroke-width="2" stroke-linecap="round" stroke-linejoin="round"/>
  <path d="M205.129 101.31C205.129 101.31 208.329 88.4899 226.189 87.1199C226.189 87.1199 208.769 92.3099 205.129 101.31Z" fill="#FFC55F"/>
  <path d="M16.0602 101.31L23.9402 103.66C23.9402 103.66 170.36 103.27 173.67 103.66C176.98 104.05 176.42 106.11 173.67 106.11H23.1502C23.1502 106.11 14.9102 103.48 14.4502 102.68C13.9902 101.88 14.2202 100.85 16.0502 101.31H16.0602Z" fill="#FFC55F"/>
  <path d="M234.891 164.03C234.891 164.03 254.121 141.71 244.961 104.46" stroke="black" stroke-width="2" stroke-linecap="round" stroke-linejoin="round"/>
  <path d="M343.031 77.24C343.031 77.24 369.381 25.74 376.001 18.79C378.251 16.43 376.981 13.47 374.521 17.42C372.061 21.37 351.571 50.67 341.371 76.47C338.841 82.86 343.031 77.24 343.031 77.24Z" fill="#FFC55F"/>
  <path d="M195.74 132.79C195.44 128.06 196.83 119.75 205.12 116.31C213.42 112.87 199.36 125.06 203.3 134.25C207.24 143.44 212.47 153.19 203.12 146.01C199.43 143.18 196.1 138.57 195.74 132.79Z" fill="#FFE5A4"/>
  <path d="M12.9105 129.1C12.9105 129.1 13.6005 119.31 16.0005 116.74C18.4005 114.16 15.5705 125.41 16.0005 132.53C16.4305 139.65 19.4305 149.18 15.8305 142.49C12.2305 135.8 12.9105 129.1 12.9105 129.1Z" fill="#FFE5A4"/>
  <path d="M307.379 220.02L307.679 209.45C312.139 206.25 307.379 190.15 306.149 187.34C304.919 184.53 301.069 188.21 297.639 190.3C295.279 191.74 295.509 195.43 295.509 195.43C295.509 195.43 296.269 208.81 302.129 211.85L304.649 220.98C301.559 222.36 302.009 226.11 302.009 226.11L297.639 225.47C297.089 219.7 289.829 221.84 285.099 222.05C280.369 222.26 282.919 231.34 283.189 236.68C283.459 242.02 291.099 239.67 294.739 239.14C298.379 238.61 298.289 233.05 298.289 233.05L302.199 231.23C302.199 232.59 303.969 233.79 303.969 233.79L302.059 245.32C297.289 246.12 297.009 256.53 296.059 262.78C295.109 269.03 302.329 269.67 306.289 270.31C310.249 270.95 310.239 256.53 310.929 253.49C311.619 250.45 308.339 247.56 308.339 247.56L307.019 235.17C309.749 234.96 310.469 233.14 310.469 233.14L317.739 243.07C316.739 248.84 324.189 254.07 326.739 255.78C329.289 257.49 331.649 247.66 333.099 243.92C334.549 240.18 327.829 235.16 325.279 233.45C322.729 231.74 320.189 233.45 320.189 233.45L312.009 229.82C312.559 227.15 311.739 226.72 311.739 226.72L319.509 219.35L322.779 219.99C326.049 220.63 330.689 211.34 332.329 208.94C333.969 206.54 328.649 197.08 325.919 195.48C323.189 193.88 318.559 202.53 315.829 205.25C313.639 207.44 314.599 211.66 314.599 211.66L309.379 220.79C308.629 219.63 307.369 219.99 307.369 219.99L307.379 220.02ZM321.289 217.56C324.199 220.66 329.199 210.62 330.379 208.8C331.559 206.98 329.649 201.75 327.469 199.29C325.289 196.83 323.649 201.21 320.019 204.74C316.379 208.26 318.289 212.96 318.289 212.96C318.289 212.96 318.379 214.46 321.289 217.55V217.56ZM296.729 226.47C296.729 226.47 296.009 223.01 293.099 223.43C290.189 223.85 283.639 221.47 283.829 228.33C284.019 235.19 284.649 237.96 286.919 238.07C289.189 238.18 296.189 239.14 296.649 233.37C297.109 227.6 296.729 226.47 296.729 226.47ZM303.689 247.17C303.689 247.17 301.299 246.77 300.619 251.34C299.939 255.91 296.529 265.2 302.149 266.88C307.779 268.56 308.049 267.84 308.729 262.07C309.409 256.3 311.119 251.66 308.729 249.25C306.339 246.84 303.679 247.17 303.679 247.17H303.689ZM319.299 242.12C319.299 242.12 317.939 245.88 321.819 248.85C325.699 251.82 326.999 254.78 329.519 249.81C332.039 244.84 333.269 241.88 330.199 239.72C327.129 237.56 323.179 232.83 321.749 236.12C320.319 239.41 319.299 242.13 319.299 242.13V242.12Z" fill="black"/>
  <path d="M529.72 194.43L529.88 185.64C532.3 182.98 529.72 169.6 529.05 167.27C528.38 164.94 526.29 167.99 524.43 169.73C523.15 170.93 523.27 173.99 523.27 173.99C523.27 173.99 523.68 185.11 526.86 187.63L528.23 195.22C526.55 196.37 526.8 199.48 526.8 199.48L524.43 198.95C524.13 194.16 520.19 195.93 517.63 196.11C515.07 196.29 516.45 203.83 516.59 208.27C516.73 212.71 520.88 210.75 522.86 210.31C524.84 209.87 524.78 205.25 524.78 205.25L526.9 203.74C526.9 204.87 527.86 205.87 527.86 205.87L526.82 215.45C524.23 216.12 524.08 224.77 523.56 229.96C523.04 235.15 526.96 235.68 529.11 236.22C531.26 236.75 531.26 224.77 531.63 222.24C532 219.71 530.22 217.31 530.22 217.31L529.5 207.02C530.98 206.84 531.37 205.33 531.37 205.33L535.32 213.58C534.78 218.37 538.82 222.72 540.2 224.14C541.58 225.56 542.86 217.4 543.65 214.29C544.44 211.18 540.79 207.01 539.41 205.59C538.03 204.17 536.65 205.59 536.65 205.59L532.21 202.57C532.51 200.35 532.06 200 532.06 200L536.28 193.88L538.06 194.41C539.84 194.94 542.35 187.22 543.24 185.22C544.13 183.22 541.24 175.37 539.76 174.04C538.28 172.71 535.76 179.9 534.28 182.16C533.09 183.98 533.61 187.48 533.61 187.48L530.78 195.07C530.37 194.1 529.69 194.4 529.69 194.4L529.72 194.43ZM537.27 192.39C538.85 194.96 541.56 186.62 542.2 185.11C542.84 183.6 541.81 179.25 540.62 177.21C539.43 175.17 538.55 178.81 536.57 181.74C534.59 184.67 535.63 188.57 535.63 188.57C535.63 188.57 535.68 189.81 537.26 192.39H537.27ZM523.95 199.79C523.95 199.79 523.56 196.91 521.98 197.27C520.4 197.63 516.85 195.65 516.95 201.34C517.05 207.03 517.39 209.34 518.63 209.43C519.87 209.52 523.66 210.32 523.91 205.53C524.16 200.74 523.95 199.8 523.95 199.8V199.79ZM527.73 216.99C527.73 216.99 526.44 216.66 526.07 220.45C525.7 224.24 523.85 231.96 526.9 233.36C529.95 234.76 530.1 234.16 530.47 229.37C530.84 224.58 531.76 220.72 530.47 218.72C529.18 216.72 527.73 216.99 527.73 216.99ZM536.2 212.8C536.2 212.8 535.46 215.93 537.57 218.39C539.68 220.85 540.38 223.32 541.75 219.19C543.12 215.06 543.78 212.6 542.12 210.8C540.46 209 538.31 205.08 537.53 207.8C536.75 210.52 536.2 212.79 536.2 212.79V212.8Z" fill="black"/>
  <path d="M44.0984 128.67C44.0984 128.67 40.5484 121.8 43.2984 113.22H48.4484C48.4484 113.22 45.8184 124.05 48.9084 128.67H44.0984Z" fill="#3A3A3A" stroke="black" stroke-width="2" stroke-linecap="round" stroke-linejoin="round"/>
  <path d="M44.0984 147.21C44.0984 147.21 40.5484 140.34 43.2984 131.76H48.4484C48.4484 131.76 45.8184 142.59 48.9084 147.21H44.0984Z" fill="#3A3A3A" stroke="black" stroke-width="2" stroke-linecap="round" stroke-linejoin="round"/>
  <path d="M66.071 148.07C66.071 148.07 62.521 141.2 65.271 132.62H70.421C70.421 132.62 67.791 143.45 70.881 148.07H66.071Z" fill="#3A3A3A" stroke="black" stroke-width="2" stroke-linecap="round" stroke-linejoin="round"/>
  <path d="M90.9187 148.07C90.9187 148.07 87.3687 141.2 90.1187 132.62H95.2687C95.2687 132.62 92.6387 143.45 95.7287 148.07H90.9187Z" fill="#3A3A3A" stroke="black" stroke-width="2" stroke-linecap="round" stroke-linejoin="round"/>
  <path d="M120.829 148.92C120.829 148.92 117.279 142.05 120.029 133.47H125.179C125.179 133.47 122.549 144.3 125.639 148.92H120.829Z" fill="#3A3A3A" stroke="black" stroke-width="2" stroke-linecap="round" stroke-linejoin="round"/>
  <path d="M149.579 149.7C149.579 149.7 146.029 142.83 148.779 134.25H153.929C153.929 134.25 151.299 145.08 154.389 149.7H149.579Z" fill="#3A3A3A" stroke="black" stroke-width="2" stroke-linecap="round" stroke-linejoin="round"/>
  <path d="M66.071 128.88C66.071 128.88 62.521 122.01 65.271 113.43H70.421C70.421 113.43 67.791 124.26 70.881 128.88H66.071Z" fill="#3A3A3A" stroke="black" stroke-width="2" stroke-linecap="round" stroke-linejoin="round"/>
  <path d="M90.9187 129.44C90.9187 129.44 87.3687 122.57 90.1187 113.99H95.2687C95.2687 113.99 92.6387 124.82 95.7287 129.44H90.9187Z" fill="#3A3A3A" stroke="black" stroke-width="2" stroke-linecap="round" stroke-linejoin="round"/>
  <path d="M120.52 130.56C120.52 130.56 116.97 123.69 119.72 115.11H124.87C124.87 115.11 122.24 125.94 125.33 130.56H120.52Z" fill="#3A3A3A" stroke="black" stroke-width="2" stroke-linecap="round" stroke-linejoin="round"/>
  <path d="M149.579 131.17C149.579 131.17 146.029 124.3 148.779 115.72H153.929C153.929 115.72 151.299 126.55 154.389 131.17H149.579Z" fill="#3A3A3A" stroke="black" stroke-width="2" stroke-linecap="round" stroke-linejoin="round"/>
  <path d="M186.891 37.51C184.691 39.42 182.441 41.41 180.191 43.43L263.701 72.15C288.431 71.9 309.071 71.9 315.671 72.44L334.331 75.04L186.881 37.51H186.891Z" fill="white"/>
  <path d="M205.141 24.46C203.991 24.76 202.871 25.08 201.791 25.4C199.901 26.78 197.851 28.37 195.711 30.1L342.881 63.76C346.231 57.36 350.591 49.15 354.941 41.35L205.141 24.46Z" fill="white"/>
  <path opacity="0.36" d="M406.03 228.33C406.03 228.33 386.82 134.85 442.34 126.12C497.86 117.39 511.8 169.31 511.8 169.31L497.94 228.33L428.92 225.06L406.03 228.33Z" fill="black"/>
  <path d="M525.43 236.19C525.43 236.19 534.32 276.6 514.83 277.11C500.69 277.48 497.43 258.6 497.43 258.6" fill="#72912F"/>
  <path d="M525.43 236.19C525.43 236.19 534.32 276.6 514.83 277.11C500.69 277.48 497.43 258.6 497.43 258.6" stroke="black" stroke-width="2" stroke-linecap="round" stroke-linejoin="round"/>
  <path d="M467.249 274.54C467.149 274.54 467.059 274.53 466.959 274.5C466.639 274.4 466.389 274.16 466.289 273.84L464.309 267.42C456.989 265.26 451.029 262.57 444.479 258.49C441.609 256.7 435.919 251.89 435.049 251.15L423.999 245.97C423.759 245.86 423.569 245.65 423.479 245.4C423.389 245.15 423.409 244.87 423.519 244.63L426.039 239.42C425.539 238.66 425.089 238.01 424.669 237.41C423.419 235.6 422.419 234.15 421.269 231.51L412.919 227.58C412.449 227.36 412.229 226.82 412.409 226.33L416.339 215.55L405.319 204.68C404.999 204.36 404.929 203.86 405.159 203.47L412.159 191.3L406.199 175.84C406.099 175.57 406.109 175.28 406.239 175.02C406.369 174.77 406.609 174.58 406.879 174.51L415.099 172.43L413.179 158.66C413.139 158.35 413.239 158.04 413.459 157.82C413.649 157.63 413.909 157.52 414.169 157.52C414.209 157.52 414.249 157.52 414.289 157.52L419.819 158.2L422.699 143.24C422.749 142.97 422.909 142.74 423.139 142.59C423.299 142.48 423.489 142.43 423.679 142.43C423.759 142.43 423.829 142.43 423.909 142.46L432.629 144.49L438.619 134.58C438.799 134.28 439.129 134.1 439.479 134.1C439.499 134.1 451.789 134.87 451.789 134.87L458.659 124.92C458.849 124.65 459.159 124.49 459.479 124.49C459.559 124.49 459.639 124.49 459.719 124.52L482.029 130.11L481.089 125.54C481.009 125.17 481.149 124.79 481.449 124.55C481.629 124.41 481.849 124.34 482.069 124.34C482.209 124.34 482.359 124.37 482.499 124.43C483.139 124.73 498.199 131.82 503.189 134.63C509.049 137.93 517.169 143.6 522.599 151.85C539.319 177.26 544.659 219.66 524.659 246.66C519.889 253.1 513.839 258.45 506.669 262.58C501.649 265.47 496.279 267.52 490.729 268.67C487.199 269.4 483.589 269.77 479.989 269.77C477.969 269.77 475.929 269.65 473.909 269.42L467.889 274.34C467.709 274.49 467.479 274.57 467.259 274.57L467.249 274.54Z" fill="#8AB242"/>
  <path d="M482.079 125.31C482.079 125.31 497.689 132.66 502.699 135.48C508.249 138.61 516.399 144.23 521.769 152.38C537.599 176.44 544.099 218.73 523.869 246.04C519.359 252.12 513.529 257.46 506.189 261.68C501.399 264.44 496.169 266.49 490.539 267.65C487.019 268.38 483.489 268.73 479.999 268.73C477.859 268.73 475.719 268.6 473.609 268.34L467.259 273.53L465.119 266.6C457.779 264.48 451.729 261.81 445.019 257.63C441.999 255.75 435.609 250.29 435.609 250.29L424.439 245.05L427.209 239.33C424.999 235.9 423.709 234.62 422.059 230.74L413.359 226.65L417.509 215.27L406.029 203.95L413.269 191.37L407.139 175.47L416.229 173.17L414.189 158.51L420.649 159.31L423.699 143.43L433.129 145.62L439.499 135.09L452.309 135.89L459.499 125.47L483.349 131.45L482.079 125.32M482.079 123.32C481.639 123.32 481.199 123.47 480.839 123.75C480.249 124.22 479.969 124.98 480.119 125.73L480.739 128.74L459.969 123.54C459.809 123.5 459.649 123.48 459.479 123.48C458.829 123.48 458.209 123.79 457.829 124.34L451.279 133.83L439.599 133.1C439.599 133.1 439.519 133.1 439.479 133.1C438.779 133.1 438.129 133.46 437.769 134.07L432.149 143.36L424.139 141.5C423.989 141.47 423.839 141.45 423.689 141.45C423.309 141.45 422.929 141.56 422.599 141.77C422.139 142.07 421.829 142.54 421.729 143.07L419.029 157.11L414.429 156.54C414.349 156.53 414.269 156.52 414.179 156.52C413.649 156.52 413.129 156.73 412.759 157.12C412.319 157.56 412.119 158.18 412.199 158.8L413.999 171.68L406.639 173.54C406.089 173.68 405.619 174.05 405.349 174.56C405.089 175.07 405.049 175.66 405.259 176.2L411.049 191.21L404.289 202.97C403.839 203.76 403.969 204.75 404.619 205.39L415.179 215.81L411.469 225.99C411.119 226.96 411.559 228.04 412.499 228.48L420.519 232.25C421.649 234.78 422.689 236.27 423.859 237.98C424.189 238.46 424.529 238.96 424.899 239.5L422.629 244.2C422.399 244.68 422.369 245.24 422.549 245.74C422.729 246.24 423.099 246.66 423.589 246.88L434.519 252C435.669 252.98 441.129 257.58 443.969 259.34C450.449 263.38 456.359 266.07 463.529 268.23L465.349 274.14C465.549 274.78 466.049 275.27 466.679 275.47C466.869 275.53 467.059 275.56 467.259 275.56C467.719 275.56 468.159 275.4 468.529 275.11L474.229 270.45C476.149 270.65 478.089 270.76 480.009 270.76C483.669 270.76 487.359 270.38 490.949 269.64C496.609 268.47 502.069 266.39 507.189 263.44C514.479 259.25 520.629 253.8 525.479 247.25C545.739 219.91 540.359 176.99 523.449 151.3C517.909 142.88 509.649 137.11 503.699 133.75C498.689 130.92 483.589 123.82 482.949 123.51C482.679 123.38 482.389 123.32 482.099 123.32H482.079Z" fill="black"/>
  <path d="M475.049 139.31C477.899 140.58 482.689 141.17 479.339 143.97C474.699 147.86 464.989 147.93 462.049 147.25C456.199 145.9 453.499 144.1 458.649 140.95C463.799 137.8 470.249 137.16 475.049 139.31Z" fill="#72912F"/>
  <path d="M462.937 250L475.907 243.32L475.867 252.53L462.367 250.11" fill="#72912F"/>
  <path d="M475.867 252.53L462.688 250.04L465.247 244.32" stroke="black" stroke-width="2" stroke-linecap="round" stroke-linejoin="round"/>
  <path d="M495.129 259.95L500.009 249.65L503.229 257.11L495.129 259.95Z" fill="#72912F"/>
  <path d="M503.228 257.11L495.128 259.95L492.648 253.36" stroke="black" stroke-width="2" stroke-linecap="round" stroke-linejoin="round"/>
  <path d="M520.301 251.44L527.561 248.78L525.511 242.79" fill="#8AB242"/>
  <path d="M527.56 248.78L518.27 244.41L520.299 251.44L527.56 248.78Z" fill="#72912F"/>
  <path d="M520.301 251.44L527.561 248.78L525.511 242.79" stroke="black" stroke-width="2" stroke-linecap="round" stroke-linejoin="round"/>
  <path d="M528.517 221.95L519.367 219.87L522.557 225.74L528.517 221.95Z" fill="#BF7F00"/>
  <path d="M522.559 225.74L528.519 221.95L525.519 216.99" stroke="black" stroke-width="2" stroke-linecap="round" stroke-linejoin="round"/>
  <path d="M492.207 232.4L499.787 226.87L499.177 233.53L492.207 232.4Z" fill="#BF7F00"/>
  <path d="M499.177 233.53L492.207 232.4L493.007 226.66" stroke="black" stroke-width="2" stroke-linecap="round" stroke-linejoin="round"/>
  <path d="M444.851 247.68C444.851 247.68 438.361 284.63 460.831 281.21C477.131 278.73 480.751 256.2 480.751 256.2" fill="#8AB242"/>
  <path d="M444.851 247.68C444.851 247.68 438.361 284.63 460.831 281.21C477.131 278.73 480.751 256.2 480.751 256.2" stroke="black" stroke-width="2" stroke-linecap="round" stroke-linejoin="round"/>
  <path d="M466.531 202.58C450.841 202.58 447.611 183.56 447.571 183.37C447.511 182.99 447.671 182.62 447.981 182.39C459.351 174.36 470.891 172.68 478.561 172.68C483.641 172.68 486.851 173.42 486.991 173.45C487.321 173.53 487.591 173.76 487.701 174.08C487.851 174.48 491.251 184.06 486.641 192.21C483.761 197.31 478.411 200.66 470.741 202.15C469.291 202.43 467.871 202.58 466.521 202.58H466.531Z" fill="#FFA1A1"/>
  <path d="M478.57 173.68C483.6 173.68 486.77 174.42 486.77 174.42C486.77 174.42 494.8 196.45 470.56 201.17C469.13 201.45 467.79 201.58 466.53 201.58C451.51 201.58 448.56 183.21 448.56 183.21C459.79 175.29 471.18 173.68 478.56 173.68M478.56 171.68C470.74 171.68 458.99 173.4 447.4 181.57C446.78 182.01 446.46 182.77 446.58 183.52C447.69 190.46 453.29 203.57 466.52 203.57C467.93 203.57 469.42 203.42 470.93 203.13C478.9 201.58 484.47 198.07 487.51 192.7C492.34 184.15 488.79 174.15 488.64 173.73C488.41 173.1 487.87 172.62 487.22 172.47C487.08 172.44 483.76 171.67 478.56 171.67V171.68Z" fill="black"/>
  <path d="M521.659 188.24C507.909 188.24 502.929 170.67 502.729 169.92C502.639 169.58 502.729 169.21 502.979 168.95C503.279 168.64 510.599 161.42 527.289 161.42C527.879 161.42 528.469 161.42 529.079 161.45C529.449 161.46 529.779 161.68 529.949 162.01C530.209 162.53 536.239 174.92 532.539 182.53C531.179 185.33 528.709 187.12 525.199 187.86C523.999 188.11 522.809 188.24 521.659 188.24Z" fill="#FFA1A1"/>
  <path d="M527.288 162.42C527.868 162.42 528.448 162.42 529.048 162.45C529.048 162.45 539.598 183.8 524.988 186.88C523.828 187.12 522.718 187.24 521.658 187.24C508.508 187.24 503.688 169.66 503.688 169.66C503.688 169.66 510.818 162.43 527.288 162.43M527.288 160.43C510.178 160.43 502.578 167.94 502.268 168.26C501.768 168.77 501.578 169.5 501.768 170.19C501.978 170.97 507.158 189.24 521.668 189.24C522.888 189.24 524.148 189.11 525.408 188.84C529.238 188.03 531.948 186.06 533.448 182.97C537.358 174.92 531.118 162.11 530.858 161.57C530.528 160.91 529.868 160.48 529.128 160.46C528.508 160.44 527.898 160.43 527.308 160.43H527.288Z" fill="black"/>
  <path d="M474.021 195.212C478.427 193.758 480.649 188.493 478.985 183.453C477.321 178.413 472.401 175.507 467.996 176.961C463.591 178.415 461.368 183.68 463.032 188.72C464.696 193.76 469.616 196.666 474.021 195.212Z" fill="black"/>
  <path d="M470.033 196.526C472.236 195.799 473.348 193.168 472.516 190.651C471.685 188.134 469.226 186.682 467.023 187.41C464.821 188.137 463.709 190.767 464.54 193.284C465.371 195.802 467.83 197.253 470.033 196.526Z" fill="white"/>
  <path d="M523.649 182.239C527.058 181.114 528.719 176.864 527.36 172.747C526.001 168.63 522.136 166.205 518.727 167.331C515.318 168.456 513.656 172.706 515.016 176.823C516.375 180.94 520.24 183.365 523.649 182.239Z" fill="black"/>
  <path d="M519.799 182.606C521.477 182.052 522.296 179.962 521.627 177.938C520.959 175.913 519.057 174.722 517.379 175.276C515.7 175.83 514.882 177.92 515.55 179.944C516.218 181.969 518.121 183.16 519.799 182.606Z" fill="white"/>
  <path d="M463.131 143.96C463.131 143.96 462.091 129.09 448.211 114.52C448.211 114.52 452.481 105.39 464.471 109.12C464.471 109.12 475.481 125.45 472.461 142.08C472.461 142.08 468.911 144.42 463.131 143.96Z" fill="#725126" stroke="black" stroke-width="2" stroke-linecap="round" stroke-linejoin="round"/>
  <path d="M464.459 109.12C464.459 109.12 458.979 118.37 448.199 114.52C448.199 114.52 452.429 105.27 464.459 109.12Z" fill="#A87B45" stroke="black" stroke-width="2" stroke-linecap="round" stroke-linejoin="round"/>
  <path d="M466.217 140.55C466.217 140.55 464.337 126.36 456.527 118.57" stroke="#351B00" stroke-width="2" stroke-linecap="round" stroke-linejoin="round"/>
  <path d="M514.85 197.22C514.85 197.22 505.5 194.25 496 199.36" stroke="black" stroke-width="2" stroke-linecap="round" stroke-linejoin="round"/>
  <path d="M428.367 154.43L442.337 162.73L435.547 167.05L428.367 154.43Z" fill="#72912F"/>
  <path d="M420.078 185.67L435.598 189.46L429.758 194.41L420.078 185.67Z" fill="#72912F"/>
  <path d="M420.957 204.59L436.507 199.9L432.527 207.71L420.957 204.59Z" fill="#72912F"/>
  <path d="M431.607 181.49L419.777 185.74L429.927 194.31L420.877 204.62L432.377 207.4" stroke="black" stroke-width="2" stroke-linecap="round" stroke-linejoin="round"/>
  <path d="M435.547 167.05L428.367 154.43L443.837 154.92" stroke="black" stroke-width="2" stroke-linecap="round" stroke-linejoin="round"/>
  <path d="M442.98 181.22C442.83 181.22 442.69 181.19 442.55 181.12C442.2 180.95 441.98 180.6 441.98 180.22V167.58C441.98 167.22 442.18 166.88 442.49 166.7L450.21 162.44C450.31 162.38 450.42 162.35 450.53 162.33L477.8 157.89C477.85 157.89 477.91 157.88 477.96 157.88C478.24 157.88 478.5 157.99 478.69 158.2L480.69 160.36L481.17 158.44C481.27 158.03 481.62 157.73 482.04 157.69C482.07 157.69 482.11 157.69 482.14 157.69C482.52 157.69 482.87 157.91 483.04 158.25L488.03 168.5C488.2 168.85 488.15 169.27 487.91 169.57C487.72 169.81 487.43 169.94 487.14 169.94C487.06 169.94 486.97 169.93 486.89 169.91C486.85 169.91 483.08 168.95 477.32 168.95C468.68 168.95 455.82 171.04 443.6 181C443.42 181.15 443.19 181.22 442.97 181.22H442.98Z" fill="#72912F"/>
  <path d="M482.16 158.68L487.15 168.93C487.15 168.93 483.31 167.94 477.33 167.94C468.66 167.94 455.49 170.02 442.98 180.21V167.57L450.7 163.31L477.97 158.87L481.23 162.39L482.16 158.68ZM482.16 156.68C482.09 156.68 482.02 156.68 481.95 156.69C481.11 156.78 480.42 157.38 480.22 158.19L480.19 158.32L479.44 157.51C479.06 157.1 478.53 156.87 477.97 156.87C477.86 156.87 477.76 156.87 477.65 156.9L450.38 161.34C450.15 161.38 449.94 161.45 449.73 161.56L442.01 165.82C441.37 166.17 440.98 166.84 440.98 167.57V180.21C440.98 180.98 441.43 181.69 442.13 182.02C442.4 182.15 442.7 182.21 442.99 182.21C443.44 182.21 443.89 182.06 444.25 181.76C456.24 171.99 468.86 169.94 477.33 169.94C482.95 169.94 486.62 170.86 486.66 170.87C486.82 170.91 486.99 170.93 487.15 170.93C487.74 170.93 488.32 170.67 488.7 170.19C489.19 169.59 489.29 168.75 488.95 168.05L483.96 157.8C483.62 157.11 482.92 156.68 482.16 156.68Z" fill="black"/>
  <path d="M450.7 163.32L442.98 167.58V180.22C464.11 162.99 487.15 168.94 487.15 168.94C466.55 161.41 445.43 176.06 445.43 176.06L445 168.6L450.7 163.32Z" fill="#5E7228"/>
  <path d="M501.61 165.05C501.47 165.05 501.32 165.02 501.19 164.96C500.89 164.82 500.68 164.55 500.63 164.23L498.77 153.98C498.71 153.65 498.82 153.31 499.07 153.07C499.26 152.89 499.5 152.8 499.76 152.8C499.84 152.8 499.92 152.8 500 152.83L502.72 153.49L503.89 151.42C504.02 151.2 504.22 151.03 504.47 150.96L522.71 145.36C522.81 145.33 522.91 145.32 523 145.32C523.25 145.32 523.5 145.41 523.69 145.59C526.61 148.343 528.093 149.85 528.14 150.11C528.14 150.11 528.16 150.21 528.88 156.6C528.91 156.9 528.81 157.2 528.6 157.42C528.41 157.61 528.15 157.72 527.89 157.72C527.86 157.72 527.82 157.72 527.79 157.72C527.79 157.72 527.24 157.66 526.26 157.66C522.78 157.66 513.46 158.37 502.15 164.94C502 165.03 501.82 165.07 501.65 165.07L501.61 165.05Z" fill="#72912F"/>
  <path d="M522.98 146.31C522.98 146.31 527.12 150.22 527.13 150.28C527.14 150.35 527.86 156.7 527.86 156.7C527.86 156.7 527.28 156.64 526.22 156.64C522.55 156.64 513.09 157.39 501.61 164.05L499.75 153.8L503.21 154.64L504.75 151.91L522.99 146.31M522.99 144.31C522.79 144.31 522.6 144.34 522.4 144.4L504.16 150C503.67 150.15 503.26 150.48 503.01 150.93L502.21 152.34L500.22 151.86C500.06 151.82 499.91 151.8 499.75 151.8C499.25 151.8 498.75 151.99 498.38 152.35C497.89 152.81 497.66 153.5 497.79 154.16L499.65 164.41C499.77 165.05 500.19 165.59 500.78 165.87C501.05 165.99 501.33 166.05 501.62 166.05C501.97 166.05 502.31 165.96 502.62 165.78C513.72 159.33 522.83 158.64 526.23 158.64C527.15 158.64 527.66 158.69 527.66 158.69C527.73 158.69 527.8 158.7 527.87 158.7C528.4 158.7 528.92 158.49 529.29 158.11C529.72 157.68 529.93 157.08 529.86 156.48C529.13 150.06 529.12 150.02 529.11 149.93C529.023 149.457 527.443 147.767 524.37 144.86C523.99 144.5 523.5 144.31 523 144.31H522.99Z" fill="black"/>
  <path d="M499.748 153.8L501.608 164.05C516.408 155.46 527.858 156.7 527.858 156.7C515.068 154.95 503.328 161.47 503.328 161.47L501.538 155.9L503.198 154.63L499.738 153.79L499.748 153.8Z" fill="#5E7228"/>
  <path d="M420.641 159.31L425.401 156.48L423.691 143.43L420.641 159.31Z" fill="#72912F"/>
  <path d="M416.23 173.17L420.43 167.48L414.18 158.51L416.23 173.17Z" fill="#72912F"/>
  <path d="M413.269 191.38L415.519 184.81L407.129 175.47L413.269 191.38Z" fill="#72912F"/>
  <path d="M417.497 215.28L416.957 207.43L406.027 203.96L417.497 215.28Z" fill="#72912F"/>
  <path d="M433.117 145.62L438.407 143.67L439.487 135.09L433.117 145.62Z" fill="#72912F"/>
  <path d="M488.16 196.47C488.16 196.47 494.66 188.94 492.02 176.64" stroke="#BF7F00" stroke-width="2" stroke-linecap="round" stroke-linejoin="round"/>
  <path d="M461.969 205.75C461.969 205.75 469.929 208.13 480.399 202.63" stroke="#FFC55F" stroke-width="2" stroke-linecap="round" stroke-linejoin="round"/>
  <path d="M521.57 192.03C521.57 192.03 528.9 192.63 533.01 187.6" stroke="#FFC55F" stroke-width="2" stroke-linecap="round" stroke-linejoin="round"/>
  <path d="M450.756 190.68C450.396 190.68 450.046 190.48 449.866 190.14C447.846 186.26 447.576 183.42 447.566 183.3C447.536 182.95 447.686 182.61 447.976 182.4C459.016 174.4 470.696 172.72 478.556 172.72C483.616 172.72 486.846 173.42 486.976 173.45C487.296 173.52 487.556 173.74 487.686 174.04C488.926 176.99 488.956 180.58 488.956 180.74C488.956 181.29 488.516 181.74 487.966 181.74C469.426 181.92 451.366 190.49 451.186 190.58C451.046 190.65 450.896 190.68 450.756 190.68Z" fill="#BF7F00"/>
  <path d="M478.558 173.72C483.568 173.72 486.768 174.42 486.768 174.42C487.938 177.22 487.958 180.73 487.958 180.73C468.968 180.91 450.758 189.67 450.758 189.67C448.808 185.92 448.558 183.2 448.558 183.2C459.468 175.3 471.038 173.71 478.548 173.71M478.548 171.71C470.538 171.71 458.638 173.42 447.378 181.58C446.808 181.99 446.498 182.68 446.558 183.38C446.568 183.51 446.858 186.54 448.968 190.59C449.328 191.27 450.018 191.67 450.748 191.67C451.038 191.67 451.338 191.61 451.608 191.47C451.788 191.38 469.658 182.91 487.958 182.73C489.058 182.72 489.948 181.82 489.938 180.72C489.938 180.56 489.908 176.77 488.588 173.64C488.338 173.04 487.808 172.6 487.168 172.46C487.028 172.43 483.698 171.71 478.528 171.71H478.548Z" fill="black"/>
  <path d="M506.478 177.31C506.398 177.31 506.328 177.31 506.248 177.28C505.988 177.22 505.758 177.05 505.618 176.82C504.218 174.48 502.798 170.15 502.738 169.97C502.608 169.58 502.738 169.15 503.048 168.89C511.158 162.13 522.618 161.4 527.178 161.4C528.388 161.4 529.098 161.45 529.128 161.45C529.438 161.47 529.728 161.64 529.898 161.91C530.718 163.18 532.168 167.7 532.328 168.21C532.428 168.51 532.368 168.84 532.188 169.1C531.998 169.36 531.708 169.51 531.388 169.51C518.868 169.6 507.148 177.06 507.028 177.14C506.868 177.25 506.678 177.3 506.488 177.3L506.478 177.31Z" fill="#BF7F00"/>
  <path d="M527.179 162.4C528.369 162.4 529.059 162.45 529.059 162.45C529.829 163.65 531.379 168.52 531.379 168.52C518.399 168.61 506.479 176.31 506.479 176.31C505.129 174.04 503.689 169.66 503.689 169.66C511.559 163.1 522.769 162.4 527.169 162.4M527.169 160.4C522.509 160.4 510.759 161.15 502.409 168.12C501.779 168.64 501.539 169.5 501.789 170.28C501.849 170.47 503.309 174.9 504.759 177.33C505.039 177.8 505.489 178.13 506.019 178.25C506.169 178.29 506.319 178.3 506.479 178.3C506.859 178.3 507.239 178.19 507.569 177.98C507.679 177.91 519.179 170.6 531.399 170.51C532.039 170.51 532.629 170.2 532.999 169.68C533.369 169.17 533.479 168.5 533.289 167.9C532.909 166.7 531.589 162.67 530.749 161.36C530.409 160.83 529.839 160.49 529.209 160.45C529.179 160.45 528.429 160.39 527.189 160.39L527.169 160.4Z" fill="black"/>
  <path d="M497.859 202.62C497.859 202.62 504.559 197.94 510.139 200.33" stroke="#72912F" stroke-width="2" stroke-linecap="round" stroke-linejoin="round"/>
  <path d="M497.031 173.81C497.031 173.81 500.131 170.04 504.331 171.81C504.331 171.81 505.211 174.62 506.391 176.24C506.391 176.24 501.721 174.8 497.751 178.6C497.751 178.6 497.921 175.62 497.041 173.81H497.031Z" fill="black" stroke="black" stroke-width="2" stroke-linecap="round" stroke-linejoin="round"/>
  <path d="M466.231 209.5C444.871 209.5 436.961 179.82 436.641 178.56C436.571 178.29 436.62 178 436.77 177.76C436.92 177.52 437.171 177.36 437.451 177.32L494.671 168.32C494.721 168.32 494.77 168.31 494.83 168.31C495.23 168.31 495.611 168.56 495.761 168.94C495.961 169.45 500.611 181.45 494.981 192.73C491.221 200.26 483.791 205.59 472.911 208.57C470.641 209.19 468.4 209.5 466.24 209.5H466.231Z" fill="url(#paint0_linear_0_1)"/>
  <path d="M494.82 169.31C494.82 169.31 506.36 198.38 472.63 207.6C470.37 208.22 468.24 208.5 466.22 208.5C445.39 208.5 437.6 178.31 437.6 178.31L494.82 169.31ZM494.82 167.31C494.72 167.31 494.61 167.31 494.51 167.33L437.29 176.33C436.73 176.42 436.24 176.74 435.93 177.21C435.62 177.68 435.52 178.26 435.67 178.81C436 180.1 444.11 210.5 466.23 210.5C468.48 210.5 470.81 210.17 473.16 209.53C484.33 206.48 491.97 200.97 495.86 193.18C501.69 181.5 496.89 169.1 496.68 168.57C496.37 167.8 495.63 167.31 494.82 167.31Z" fill="black"/>
  <path d="M437.602 178.31C437.602 178.31 438.082 180.17 439.122 182.96L460.472 207.68C464.042 208.72 468.082 208.84 472.632 207.6L440.342 177.88L437.602 178.31Z" fill="#DBDBDB"/>
  <path d="M478.963 205.43C483.413 203.55 486.793 201.26 489.353 198.74L457.843 175.13L448.473 176.6L478.963 205.43Z" fill="#DBDBDB"/>
  <path d="M525.851 192.79C504.521 192.79 502.931 167.14 502.911 166.88C502.891 166.44 503.151 166.04 503.571 165.89L535.721 154.24C535.831 154.2 535.951 154.18 536.061 154.18C536.431 154.18 536.781 154.38 536.951 154.72C537.371 155.53 547.071 174.74 542.551 185.24C541.261 188.25 538.931 190.26 535.641 191.23C532.151 192.26 528.851 192.78 525.841 192.78L525.851 192.79Z" fill="url(#paint1_linear_0_1)"/>
  <path d="M536.061 155.18C536.061 155.18 551.571 185.52 535.361 190.28C531.801 191.33 528.641 191.79 525.841 191.79C505.211 191.79 503.901 166.83 503.901 166.83L536.061 155.18ZM536.061 153.18C535.831 153.18 535.601 153.22 535.381 153.3L503.221 164.95C502.391 165.25 501.861 166.06 501.901 166.93C501.911 167.2 502.281 173.63 505.321 180.15C509.471 189.07 516.571 193.79 525.841 193.79C528.951 193.79 532.341 193.26 535.921 192.2C539.511 191.15 542.051 188.94 543.471 185.64C548.171 174.71 538.261 155.09 537.841 154.27C537.491 153.58 536.791 153.18 536.061 153.18Z" fill="black"/>
  <path d="M522.341 236.5C517.831 236.5 513.831 234.94 511.081 232.09C507.581 228.48 506.311 223.76 507.521 218.79C509.591 210.25 518.461 202.59 531.221 198.3C532.021 198.03 533.281 197.71 534.701 197.71C536.981 197.71 538.961 198.54 540.431 200.12C543.071 202.94 544.151 208.13 543.651 215.55C542.731 229.15 531.981 236.49 522.341 236.49V236.5Z" fill="#8AB242"/>
  <path d="M534.699 198.72C538.529 198.72 543.609 201.31 542.649 215.5C541.759 228.65 531.469 235.51 522.339 235.51C518.289 235.51 514.469 234.16 511.799 231.41C503.119 222.46 509.579 206.64 531.539 199.27C532.259 199.03 533.409 198.73 534.699 198.73M534.699 196.73C533.139 196.73 531.769 197.08 530.899 197.37C517.809 201.77 508.699 209.69 506.549 218.57C505.259 223.88 506.619 228.94 510.369 232.8C513.319 235.84 517.569 237.51 522.349 237.51C532.449 237.51 543.699 229.84 544.659 215.64C545.179 207.93 544.009 202.49 541.169 199.46C539.499 197.67 537.269 196.73 534.709 196.73H534.699Z" fill="black"/>
  <path d="M513.01 210.71C512.63 211.15 512.27 211.6 511.93 212.05C510.59 213.84 509.6 215.67 508.96 217.5C508.95 217.54 508.94 217.57 508.92 217.61C508.77 218.04 508.64 218.47 508.54 218.9C508.54 218.92 508.541 218.94 508.531 218.95C508.311 219.85 508.17 220.75 508.12 221.64C508.12 221.67 508.12 221.69 508.12 221.72C508.1 222.11 508.1 222.5 508.12 222.88C508.12 222.97 508.12 223.06 508.13 223.15C508.15 223.48 508.18 223.81 508.23 224.13C508.24 224.23 508.25 224.32 508.27 224.42C508.33 224.77 508.4 225.12 508.48 225.46C508.49 225.52 508.5 225.57 508.52 225.63C508.63 226.03 508.75 226.43 508.9 226.82C508.92 226.87 508.95 226.93 508.97 226.98C509.1 227.3 509.23 227.62 509.39 227.93C509.45 228.05 509.51 228.16 509.57 228.28C509.7 228.53 509.84 228.78 509.99 229.02C510.07 229.14 510.14 229.27 510.22 229.39C510.38 229.63 510.55 229.87 510.73 230.11C510.81 230.22 510.89 230.32 510.97 230.43C511.24 230.76 511.52 231.09 511.83 231.4C513.98 233.61 516.871 234.92 520.031 235.34C526.061 219.8 513.181 210.78 513.031 210.71H513.01Z" fill="#72912F"/>
  <path d="M447.93 212.78C447.93 212.78 516.09 195.71 516.09 228.8C516.09 252.9 459.34 244.41 459.34 244.41" fill="#8AB242"/>
  <path d="M447.93 212.78C447.93 212.78 516.09 195.71 516.09 228.8C516.09 252.9 459.34 244.41 459.34 244.41" stroke="black" stroke-width="2" stroke-linecap="round" stroke-linejoin="round"/>
  <path d="M542.73 179.18L515.75 162.54L511 164.26L540.83 186.36C542.12 184.38 542.66 181.88 542.73 179.18Z" fill="#DBDBDB"/>
  <path d="M535.36 190.28C535.79 190.15 536.19 190 536.58 189.84L506.94 165.73L503.91 166.83L530.85 191.34C532.28 191.1 533.78 190.75 535.36 190.29V190.28Z" fill="#DBDBDB"/>
  <defs>
  <linearGradient id="paint0_linear_0_1" x1="475.564" y1="207.855" x2="465.147" y2="169.753" gradientUnits="userSpaceOnUse">
    <stop stop-color="#333333"/>
    <stop offset="1"/>
  </linearGradient>
  <linearGradient id="paint1_linear_0_1" x1="529.164" y1="193.036" x2="519.755" y2="158.619" gradientUnits="userSpaceOnUse">
    <stop stop-color="#333333"/>
    <stop offset="1"/>
  </linearGradient>
  </defs>
</svg>
