<svg width="578" height="298" viewBox="0 0 578 298" fill="none" xmlns="http://www.w3.org/2000/svg">
  <path d="M535.839 154.77L540.539 180.56L520.259 176.05L504.789 113.55H542.499L535.839 154.77Z" fill="black"/>
  <path d="M322.401 207.6L328.681 255.57L287.171 245.64L249.641 122.65H328.681L322.401 207.6Z" fill="black"/>
  <path d="M472.521 173.61C472.521 173.61 468.471 214.31 505.491 207.57C542.511 200.82 536.071 142.83 524.471 128.98C512.461 114.64 499.281 125.13 492.001 130.05C484.721 134.97 472.521 173.61 472.521 173.61Z" fill="#191919"/>
  <path d="M494.549 162.57C493.359 171.75 495.009 198.7 509.839 198.77C533.259 198.87 534.799 142.22 522.309 135.13C504.789 125.19 496.649 146.42 494.549 162.57Z" fill="black"/>
  <path d="M526.474 166.446C528.012 151.22 523.335 138.278 516.027 137.54C508.719 136.801 501.547 148.546 500.008 163.772C498.47 178.998 503.147 191.94 510.455 192.679C517.763 193.417 524.935 181.673 526.474 166.446Z" fill="#BFBFBF"/>
  <path d="M221.88 240.56C221.88 240.56 216.94 309.41 279.94 295.46C330.13 284.34 321.72 207.01 305.87 188.09C289.46 168.5 267.8 170.08 257.65 176.51C227.05 195.89 221.88 240.56 221.88 240.56Z" fill="#191919"/>
  <path d="M247.929 239.02C247.929 239.02 245.189 290.15 288.499 281.38C318.979 275.21 316.839 213.47 306.039 199.35C294.859 184.73 279.419 186.72 272.309 191.22C245.949 207.88 247.929 239.02 247.929 239.02Z" fill="black"/>
  <path d="M42.5205 202.76C42.5205 202.76 37.5805 271.61 100.58 257.66C150.77 246.54 142.36 169.21 126.51 150.29C110.1 130.7 87.7405 134.84 77.5905 141.27C46.9905 160.65 42.5205 202.77 42.5205 202.77V202.76Z" fill="black"/>
  <path d="M307.083 237.558C309.185 216.76 300.086 198.808 286.761 197.462C273.436 196.115 260.93 211.884 258.829 232.682C256.727 253.48 265.826 271.432 279.151 272.778C292.476 274.125 304.981 258.356 307.083 237.558Z" fill="#BFBFBF"/>
  <path d="M568.842 102.69L575.402 105.19L576.002 117.36L566.582 108.65L568.842 102.69Z" fill="black" stroke="black" stroke-width="2" stroke-linecap="round" stroke-linejoin="round"/>
  <path d="M156.441 90.4701L10.611 128.53C10.611 128.53 4.50102 129.93 5.55102 138.8C6.60102 147.67 12.761 174.41 12.761 174.41C12.761 174.41 15.161 179.82 22.381 180.57L28.791 216.98C113.051 241 171.671 253.33 171.671 253.33C171.671 253.33 208.531 259.14 218.541 246.32C228.551 233.5 237.771 176.61 277.431 171C317.091 165.39 320.301 189.03 321.501 223.08L489.361 166.99C489.361 166.99 491.261 162.98 499.681 137.59C508.091 112.2 540.041 113.15 535.841 154.77C535.841 154.77 559.481 146.76 567.091 128.86C579.691 99.2401 570.501 83.2501 567.091 76.0401C563.681 68.8301 514.711 68.4801 514.711 68.4801C514.711 68.4801 488.271 13.3401 470.991 8.3901C454.901 3.7701 336.531 -6.7799 216.541 14.9501C216.541 14.9501 206.721 17.0501 202.421 21.1601C198.111 25.2701 156.451 90.4701 156.451 90.4701H156.441Z" fill="#890046"/>
  <path d="M499.679 137.59C508.089 112.2 540.039 113.15 535.839 154.77C535.839 154.77 559.479 146.76 567.089 128.86C572.589 115.93 573.939 105.6 573.429 97.4602C539.539 113.43 412.609 151.03 305.699 174.14C318.949 181.84 320.699 200.07 321.509 223.07L489.379 166.98C489.379 166.98 491.279 162.97 499.699 137.58L499.679 137.59Z" fill="#7F0046"/>
  <path d="M207.571 191.33C106.091 202.72 29.5709 171.8 10.2109 162.96C11.6109 169.38 12.7709 174.4 12.7709 174.4C12.7709 174.4 15.1709 179.81 22.3909 180.56L28.8009 216.97C113.061 240.99 171.681 253.32 171.681 253.32C171.681 253.32 208.541 259.13 218.551 246.31C225.861 236.95 232.751 204.1 251.371 184.87C235.521 187.64 220.751 189.85 207.581 191.33H207.571Z" fill="#7F0046"/>
  <path d="M533.23 131.15C535.71 136.68 536.881 144.48 535.841 154.77C535.841 154.77 559.481 146.76 567.091 128.86C568.741 124.99 570 121.36 570.97 117.94C561.68 121.94 548.84 126.36 533.23 131.14V131.15Z" fill="#66003D"/>
  <path d="M218.539 246.31C223.299 240.22 227.879 224.19 235.619 208.44C143.579 225.35 22.3789 180.56 22.3789 180.56L28.7889 216.97C113.049 240.99 171.669 253.32 171.669 253.32C171.669 253.32 208.529 259.13 218.539 246.31Z" fill="#66003D"/>
  <path d="M498.478 141.19C448.838 154.9 383.688 170.81 316.688 187.9C320.178 197.05 321.007 209.2 321.497 223.08L489.367 166.99C489.367 166.99 491.087 163.36 498.487 141.19H498.478Z" fill="#66003D"/>
  <path d="M560.379 83.3601L189.289 169.16C189.289 169.16 440.189 124.22 560.379 83.3601Z" fill="#C4006C"/>
  <path d="M233.289 12.1201C233.289 12.1201 328.189 15.7101 460.059 6.42008C426.599 1.87008 332.099 -3.40991 233.289 12.1201Z" fill="#C4006C"/>
  <path d="M470.98 8.39013C469.89 8.08013 468.31 7.74013 466.32 7.38013C466.34 7.39013 474.59 11.8501 478.34 17.5501C482.1 23.2601 513.04 73.0601 513.04 73.0601L516.8 72.3801L515.76 68.4901C515.07 68.4901 514.69 68.4801 514.69 68.4801C514.69 68.4801 488.25 13.3401 470.97 8.39013H470.98Z" fill="#C4006C"/>
  <path d="M5.55102 138.79C5.81102 140.96 6.37102 144.21 7.08102 147.87C8.09102 149.55 8.90102 150.55 8.90102 150.55L10.011 142.15C10.011 142.15 9.06102 141.19 13.011 132.53C16.971 123.88 159.881 90.6902 159.881 90.6902L156.441 90.4602L10.611 128.53C10.611 128.53 4.50102 129.93 5.55102 138.8V138.79Z" fill="#C4006C"/>
  <path d="M340.431 109.1L502.351 79.27C502.351 79.27 517.001 73.04 495.571 76.85C474.141 80.66 338.141 106.5 338.141 106.5L340.431 109.11V109.1Z" fill="#C4006C"/>
  <path d="M532.291 129.28C542.501 125.76 547.941 123.77 547.941 123.77L531.891 128.6C532.021 128.82 532.161 129.05 532.291 129.29V129.28Z" fill="#C4006C"/>
  <path d="M498.719 140.49C498.949 139.8 499.189 139.09 499.429 138.36L330.719 189.1C402.239 170.71 460.579 152.87 498.719 140.48V140.49Z" fill="#C4006C"/>
  <path d="M156.441 90.4701L10.611 128.53C10.611 128.53 4.50102 129.93 5.55102 138.8C6.60102 147.67 12.761 174.41 12.761 174.41C12.761 174.41 15.161 179.82 22.381 180.57L28.791 216.98C113.051 241 171.671 253.33 171.671 253.33C171.671 253.33 208.531 259.14 218.541 246.32C228.551 233.5 237.771 176.61 277.431 171C317.091 165.39 320.301 189.03 321.501 223.08L489.361 166.99C489.361 166.99 491.261 162.98 499.681 137.59C508.091 112.2 540.041 113.15 535.841 154.77C535.841 154.77 559.481 146.76 567.091 128.86C579.691 99.2401 570.501 83.2501 567.091 76.0401C563.681 68.8301 514.711 68.4801 514.711 68.4801C514.711 68.4801 488.271 13.3401 470.991 8.3901C454.901 3.7701 336.531 -6.7799 216.541 14.9501C216.541 14.9501 206.721 17.0501 202.421 21.1601C198.111 25.2701 156.451 90.4701 156.451 90.4701H156.441Z" stroke="black" stroke-width="2" stroke-linecap="round" stroke-linejoin="round"/>
  <path d="M22.3807 180.56C22.3807 180.56 2.50066 181.61 0.700665 186.52C-1.09934 191.43 2.40066 207.65 10.4207 210.06C17.8007 212.27 171.271 248.54 171.271 248.54C171.271 248.54 192.511 251.33 212.341 241.91L208.531 218.87C208.531 218.87 208.531 215.87 201.121 215.87C193.711 215.87 186.101 220.08 173.281 218.27C160.461 216.47 12.1807 191.53 23.1407 183.04L22.3907 180.56H22.3807Z" fill="black"/>
  <path d="M18.9224 186.42C18.9224 186.42 -0.0876188 193.32 25.6024 198.88C51.2924 204.44 146.562 228.03 180.482 223.68C180.482 223.68 -0.207616 194.48 18.9324 186.42H18.9224Z" fill="#666666"/>
  <path d="M156.441 90.47L324.361 101.46C324.361 101.46 332.621 99.87 334.431 94.62C336.241 89.37 349.151 29.42 349.151 29.42C349.151 29.42 350.051 21.16 340.441 20.41C330.831 19.66 203.301 20.41 203.301 20.41L201.241 22.56L156.451 90.47H156.441Z" fill="black"/>
  <path d="M158.34 89.1501L322.3 99.0801C322.3 99.0801 330.91 99.6801 333.12 91.0701C335.33 82.4601 346.54 31.5801 346.54 31.5801C346.54 31.5801 347.94 23.1701 337.93 22.5701C327.92 21.9701 202.29 22.5701 202.29 22.5701L158.35 89.1601L158.34 89.1501Z" fill="#353535"/>
  <path d="M340.43 100.78L355.3 31.9701C355.3 31.9701 356.05 21.9001 368.67 21.3001C381.29 20.7001 461.52 16.9401 461.52 16.9401C461.52 16.9401 469.33 15.7401 472.94 22.9501C476.55 30.1601 498.33 72.8301 498.33 72.8301L340.43 100.77V100.78Z" fill="black" stroke="black" stroke-width="2" stroke-linecap="round" stroke-linejoin="round"/>
  <path d="M340.861 100.09C340.591 100.09 340.331 99.9801 340.141 99.7801C339.911 99.5401 339.811 99.2001 339.881 98.8701L354.441 31.5001C354.561 30.4801 356.021 20.8001 368.481 20.2101C380.671 19.6301 457.251 16.0401 459.411 15.9401C459.581 15.9201 460.061 15.8601 460.751 15.8601C463.031 15.8601 468.641 16.4901 471.581 22.3701C475.071 29.3501 496.241 70.8201 496.451 71.2301C496.591 71.5101 496.601 71.8501 496.451 72.1301C496.311 72.4101 496.041 72.6101 495.731 72.6701L341.021 100.05C340.961 100.06 340.901 100.07 340.851 100.07L340.861 100.09Z" fill="#353535"/>
  <path d="M460.761 16.8801C463.081 16.8801 468.051 17.5401 470.701 22.8401C474.231 29.9101 495.581 71.7101 495.581 71.7101L340.871 99.0901L355.441 31.6701C355.441 31.6701 356.181 21.8101 368.541 21.2201C380.911 20.6301 459.511 16.9501 459.511 16.9501C459.511 16.9501 459.991 16.8801 460.761 16.8801ZM460.761 14.8801C460.071 14.8801 459.561 14.9301 459.331 14.9601C456.341 15.1001 380.481 18.6501 368.441 19.2301C357.401 19.7601 353.831 27.3201 353.451 31.3801L338.901 98.6701C338.761 99.3201 338.951 100 339.411 100.48C339.791 100.87 340.311 101.09 340.851 101.09C340.971 101.09 341.081 101.08 341.201 101.06L495.911 73.6801C496.531 73.5701 497.071 73.1701 497.351 72.6001C497.631 72.0301 497.631 71.3601 497.351 70.8001C497.141 70.3801 475.971 28.9201 472.481 21.9401C469.291 15.5601 463.221 14.8701 460.761 14.8701V14.8801Z" fill="black"/>
  <path d="M357.862 101.69C357.862 101.69 350.052 101.99 350.452 104.69C350.852 107.39 368.582 105.39 368.682 102.69C368.782 99.9902 363.772 100.79 363.772 100.79C363.772 100.79 362.572 97.0802 363.672 93.8802C364.772 90.6802 378.892 98.3902 379.492 84.5702C380.092 70.7502 359.962 76.1601 357.762 76.7601C355.562 77.3601 351.352 83.8701 356.462 93.0901C361.572 102.3 357.862 101.7 357.862 101.7V101.69Z" fill="black"/>
  <path d="M8.54908 145.78C8.54908 145.78 6.74908 139.77 12.1591 140.3C17.5691 140.83 61.4591 153.12 165.249 162.79C169.039 163.14 178.769 164.19 179.369 174.41C179.969 184.63 182.979 199.05 182.979 199.05C182.979 199.05 184.879 204.26 178.669 203.26C172.459 202.26 43.3591 186.07 17.6191 174.82C10.8091 171.84 8.55908 145.8 8.55908 145.8L8.54908 145.78Z" fill="black"/>
  <path d="M211.419 169.79C209.589 170.07 204.809 170.09 204.609 172.69C204.409 175.29 203.809 180.2 208.019 179.5C212.229 178.8 218.239 178.1 218.839 176.5C219.439 174.9 219.179 168.95 216.639 169.16C213.959 169.39 212.729 169.59 211.429 169.79H211.419Z" fill="#FF8224" stroke="black" stroke-width="2" stroke-linecap="round" stroke-linejoin="round"/>
  <path d="M337.121 105.97C337.121 105.97 343.431 107.39 344.031 125.72C344.631 144.05 344.031 199.64 344.031 199.64C344.031 199.64 342.101 207.75 350.431 206.55C358.761 205.35 444.091 176.5 444.091 176.5L486.761 162.38C486.761 162.38 495.171 126.92 506.891 119.56C506.891 119.56 509.991 92.0702 501.781 78.2402" stroke="black" stroke-width="2" stroke-linecap="round" stroke-linejoin="round"/>
  <path d="M326.27 221.48C326.3 218.77 327.3 216.67 331.37 215.77C336.03 214.74 481.95 166.29 481.95 166.29C481.95 166.29 484.97 165.12 486.01 168.11C487.06 171.1 483.3 171.85 483.3 171.85L331.71 223.53C331.71 223.53 326.22 225.69 326.27 221.48Z" fill="white"/>
  <path d="M486.01 168.11C485.72 167.28 485.27 166.78 484.78 166.47C486.01 168.16 483.35 168.89 483.35 168.89C483.35 168.89 349.54 213.46 337.12 217.85C324.75 222.23 327.1 218.24 327.12 218.21C326.51 219.14 326.29 220.24 326.27 221.47C326.22 225.67 331.71 223.52 331.71 223.52L483.3 171.84C483.3 171.84 487.06 171.09 486.01 168.1V168.11Z" fill="#CECECE"/>
  <path d="M326.27 221.48C326.3 218.77 327.3 216.67 331.37 215.77C336.03 214.74 481.95 166.29 481.95 166.29C481.95 166.29 484.97 165.12 486.01 168.11C487.06 171.1 483.3 171.85 483.3 171.85L331.71 223.53C331.71 223.53 326.22 225.69 326.27 221.48Z" stroke="black" stroke-width="2" stroke-linecap="round" stroke-linejoin="round"/>
  <path d="M420.653 103.49C420.653 103.49 418.853 99.0801 422.553 98.3801C426.253 97.6801 434.673 94.6701 435.473 97.8801C436.273 101.09 436.873 103.89 434.373 104.19C431.873 104.49 422.853 106.49 422.853 106.49C422.853 106.49 420.983 106.64 420.653 103.49Z" fill="black"/>
  <path d="M481.622 44.3601C479.272 39.7501 476.982 35.2501 475.082 31.5001L440.033 17.8701L425.562 18.5501L481.633 44.3701L481.622 44.3601Z" fill="white"/>
  <path d="M489.002 58.8301L391.612 20.1301L373.582 20.9801L480.062 74.4601L495.572 71.7101C495.572 71.7101 492.752 66.1901 489.002 58.8301Z" fill="white"/>
  <path d="M490.14 89.52C489.81 88.2 488.34 85.11 492.04 84.41C495.75 83.71 500.13 82.05 500.93 85.26C501.73 88.47 502.33 91.27 499.83 91.57C497.33 91.87 492.7 92.97 492.7 92.97C492.7 92.97 490.92 92.59 490.15 89.52H490.14Z" fill="black"/>
  <path d="M8.52192 148.38C8.31192 147.21 7.76192 143.4 11.2619 143.5C14.7619 143.6 37.4019 148.21 37.4019 148.21C37.4019 148.21 41.6019 148.61 41.6119 151.42C41.6219 154.23 45.1819 174.71 45.1819 174.71C45.1819 174.71 45.8819 178.22 43.2819 177.81C40.6819 177.4 16.0019 171.42 16.0019 171.42C16.0019 171.42 12.8019 170.46 12.0519 167.81C11.0219 164.17 10.1319 157.49 8.52192 148.38Z" fill="#FFDB76"/>
  <path d="M12.7917 149.46C12.5817 148.29 11.9517 143.59 15.4317 144.04C18.9117 144.49 37.4117 148.2 37.4117 148.2C37.4117 148.2 41.6117 148.6 41.6217 151.41C41.6317 154.22 45.2717 174.7 45.2717 174.7C45.2717 174.7 45.9717 178.21 43.3717 177.8C40.7717 177.39 20.2817 172.5 20.2817 172.5C20.2817 172.5 17.0817 171.54 16.3317 168.89C15.3017 165.25 14.4117 158.57 12.8017 149.46H12.7917Z" fill="#FFE5A4"/>
  <path d="M125.481 176.44L124.731 166.63C124.731 166.63 123.841 161.93 129.231 162.37C134.621 162.81 169.161 166.58 169.161 166.58C169.161 166.58 176.271 167.16 176.251 173.15C176.231 179.14 179.011 194.26 179.011 194.26C179.011 194.26 180.331 198.96 176.971 198.87C173.611 198.78 132.241 192.97 132.241 192.97C132.241 192.97 127.121 193.18 126.711 188.08C126.281 182.73 125.481 176.44 125.481 176.44Z" fill="#FFDB76"/>
  <path d="M125.481 176.44L124.731 166.63C124.731 166.63 123.841 161.93 129.231 162.37C134.621 162.81 159.281 165.43 159.281 165.43C159.281 165.43 166.391 166.01 166.371 172C166.351 177.99 169.131 193.11 169.131 193.11C169.131 193.11 170.451 197.81 167.091 197.72C163.731 197.63 132.241 192.97 132.241 192.97C132.241 192.97 127.121 193.18 126.711 188.08C126.281 182.73 125.481 176.44 125.481 176.44Z" fill="#FFE5A4"/>
  <path d="M408.082 19.4602L422.462 86.2702L433.272 84.3502L419.382 18.9302L408.082 19.4602Z" fill="black"/>
  <path d="M168.722 163.26C168.722 163.26 166.462 154.97 175.872 152.56C185.282 150.15 330.712 105.97 330.712 105.97" stroke="black" stroke-width="2" stroke-linecap="round" stroke-linejoin="round"/>
  <path d="M514.699 68.4802L516.809 73.0702" stroke="black" stroke-width="2" stroke-linecap="round" stroke-linejoin="round"/>
  <path d="M439.279 178.12C446.489 142.46 437.879 90.5901 437.879 90.5901" stroke="black" stroke-width="2" stroke-linecap="round" stroke-linejoin="round"/>
  <path d="M103.551 126.25L162.441 105.89C162.441 105.89 167.341 103.49 174.661 104.09C186.881 105.09 223.541 108.5 223.541 108.5C223.541 108.5 230.151 109.3 225.541 112.31C220.931 115.31 181.871 129.14 181.871 129.14C181.871 129.14 207.761 119.66 211.781 113.72C215.801 107.78 168.471 105.99 168.471 105.99L103.551 126.27V126.25Z" fill="#C4006C"/>
  <path d="M198.539 28.23L335.269 81.98L339.569 62.93L212.329 22.29L202.279 22.56L198.539 28.23Z" fill="white"/>
  <path d="M191.98 38.1702L330.71 95.7102C330.71 95.7102 327.73 98.6702 324.43 99.0802C321.13 99.4902 314.97 98.6302 314.97 98.6302L190.41 40.5502L191.98 38.1702Z" fill="white"/>
  <path d="M358.163 79.5C358.163 79.5 355.013 83.21 357.713 89.27C357.713 89.27 357.613 92.12 356.113 89.27C354.613 86.42 354.713 79.65 358.163 78.25C361.623 76.85 358.163 79.5 358.163 79.5Z" fill="#666666"/>
  <path d="M264.929 220.15C264.929 220.15 268.909 209.06 274.769 205.53L283.709 228.71L291.509 201.51C291.509 201.51 299.559 205.65 302.869 217.52L289.479 234.2L304.379 234.75C304.379 234.75 304.529 246.67 300.019 252.83L288.129 242.17L290.699 264.54C290.699 264.54 281.839 274.91 271.319 265.89L278.329 241.8L263.209 248.91C263.209 248.91 259.899 240.8 263.209 232.08L278.629 233.88L264.929 220.13V220.15Z" fill="#191919"/>
  <path d="M503.28 155.4C503.28 155.4 504.78 147.36 508.09 144.77L513.62 161.03L517.03 139.7C517.03 139.7 523.11 141.95 525.14 152.85L517.06 164.31L525.41 163.89C525.41 163.89 524.95 172.09 523.31 176.41L516.26 169.08L517.4 188.03C517.4 188.03 510.59 196.14 505.13 186.96L510.4 168.87L501.36 173.12C501.36 173.12 500.48 169.18 501.36 163.06L510.58 164.14L503.28 155.41V155.4Z" fill="#191919"/>
  <path d="M575.4 105.19C575.4 105.19 576.38 107.69 565.41 110.85L566.09 123.02C566.09 123.02 573.83 120.32 576.01 117.11L575.41 105.19H575.4Z" fill="black" stroke="black" stroke-width="2" stroke-linecap="round" stroke-linejoin="round"/>
  <path d="M394.37 178.41C394.37 178.41 369.14 228.89 401.41 230.03C414.17 230.48 414.06 211.2 414.06 211.2" fill="#BF7F00"/>
  <path d="M394.37 178.41C394.37 178.41 369.14 228.89 401.41 230.03C414.17 230.48 414.06 211.2 414.06 211.2" stroke="black" stroke-width="2" stroke-linecap="round" stroke-linejoin="round"/>
  <path d="M405.29 220.32C405.29 220.32 395.5 260.23 414.84 261.2C428.87 261.91 432.56 243.25 432.56 243.25" fill="#BF7F00"/>
  <path d="M405.29 220.32C405.29 220.32 395.5 260.23 414.84 261.2C428.87 261.91 432.56 243.25 432.56 243.25" stroke="black" stroke-width="2" stroke-linecap="round" stroke-linejoin="round"/>
  <path d="M471.901 249.99C471.741 249.99 471.581 249.95 471.441 249.88L464.591 246.32C459.241 248.09 453.691 248.99 448.081 249.01H447.951C442.361 249.01 436.771 248.11 431.341 246.33C423.541 243.78 416.561 239.8 410.621 234.51C385.691 212.33 382.281 170.02 393.371 141.92C396.981 132.79 403.721 125.63 408.741 121.23C413.011 117.49 426.221 107.53 426.781 107.11C426.961 106.98 427.171 106.91 427.381 106.91C427.531 106.91 427.681 106.94 427.831 107.01C428.171 107.18 428.381 107.52 428.381 107.9V112.53L448.931 102.57C449.071 102.5 449.221 102.47 449.371 102.47C449.621 102.47 449.871 102.56 450.061 102.75L458.761 111.03L470.501 107.8C470.591 107.78 470.681 107.76 470.771 107.76C471.041 107.76 471.311 107.87 471.501 108.08L479.341 116.5L487.401 112.76C487.531 112.7 487.681 112.67 487.821 112.67C487.941 112.67 488.071 112.69 488.181 112.74C488.431 112.84 488.641 113.04 488.741 113.29L494.571 127.24L499.801 125.45C499.911 125.41 500.011 125.4 500.121 125.4C500.311 125.4 500.511 125.46 500.671 125.57C500.931 125.74 501.091 126.03 501.111 126.34L502.041 140.11L510.451 140.47C510.741 140.48 511.001 140.62 511.181 140.84C511.361 141.06 511.441 141.35 511.391 141.63L508.741 157.86L518.011 168.27C518.311 168.61 518.35 169.11 518.1 169.49L509.521 182.4L513.071 191.96C513.201 192.3 513.131 192.68 512.901 192.95L508.061 198.68C507.781 200.23 507.781 201.48 507.781 202.7C507.781 204.43 507.781 206.07 507.021 208.23L510.141 216.85C510.231 217.1 510.221 217.38 510.101 217.63C509.98 217.87 509.771 218.06 509.521 218.14L501.261 220.88L499.861 230.22C499.791 230.72 499.361 231.07 498.871 231.07C498.821 231.07 498.771 231.07 498.731 231.06L489.531 229.73C484.951 235.14 480.381 238.77 473.501 242.48L472.881 249.12C472.851 249.45 472.661 249.75 472.361 249.9C472.211 249.98 472.051 250.02 471.881 250.02L471.901 249.99Z" fill="#E19E00"/>
  <path d="M449.369 103.47L458.479 112.14L470.769 108.76L479.099 117.71L487.819 113.67L494.009 128.48L500.119 126.39L501.109 141.06L510.419 141.45L507.689 158.16L517.279 168.92L508.419 182.25L512.149 192.29L507.139 198.22C506.329 202.33 507.419 204.42 505.969 208.21L509.219 217.17L500.379 220.1L498.889 230.04L489.129 228.63C484.109 234.66 479.259 238.26 472.559 241.82L471.889 248.99L464.659 245.23C459.399 247.02 453.829 247.99 448.069 248C448.029 248 447.989 248 447.949 248C442.289 248 436.829 247.07 431.649 245.37C423.649 242.75 416.899 238.75 411.279 233.75C386.059 211.31 383.789 168.88 394.299 142.28C397.859 133.26 404.639 126.14 409.399 121.98C413.689 118.22 427.379 107.91 427.379 107.91V114.13L449.369 103.48M449.369 101.48C449.069 101.48 448.779 101.55 448.499 101.68L429.389 110.95V107.92C429.389 107.16 428.949 106.47 428.269 106.13C427.989 105.99 427.679 105.92 427.379 105.92C426.949 105.92 426.529 106.06 426.179 106.32C425.619 106.74 412.379 116.72 408.079 120.48C402.969 124.95 396.119 132.23 392.439 141.55C381.219 169.97 384.699 212.78 409.949 235.25C415.999 240.63 423.089 244.68 431.029 247.27C436.569 249.08 442.259 250 447.949 250H448.079C453.649 249.99 459.169 249.11 464.499 247.39L470.979 250.76C471.269 250.91 471.589 250.99 471.899 250.99C472.209 250.99 472.559 250.91 472.859 250.75C473.439 250.43 473.829 249.84 473.889 249.18L474.459 243.07C481.019 239.49 485.509 235.93 489.949 230.77L498.609 232.02C498.709 232.03 498.799 232.04 498.899 232.04C499.869 232.04 500.729 231.33 500.879 230.34L502.189 221.61L509.869 219.06C510.379 218.89 510.799 218.52 511.039 218.03C511.279 217.54 511.299 216.98 511.119 216.48L508.109 208.19C508.809 206.03 508.809 204.33 508.809 202.67C508.809 201.52 508.809 200.43 509.029 199.09L513.689 193.57C514.159 193.02 514.289 192.26 514.039 191.58L510.659 182.5L518.949 170.02C519.449 169.26 519.379 168.26 518.779 167.58L509.819 157.53L512.399 141.77C512.489 141.21 512.339 140.63 511.979 140.18C511.619 139.74 511.079 139.47 510.509 139.44L502.989 139.12L502.119 126.24C502.079 125.62 501.749 125.05 501.229 124.71C500.899 124.49 500.509 124.38 500.119 124.38C499.899 124.38 499.679 124.42 499.469 124.49L495.129 125.97L489.659 112.88C489.449 112.38 489.049 111.98 488.539 111.79C488.309 111.7 488.059 111.65 487.819 111.65C487.529 111.65 487.239 111.71 486.979 111.84L479.579 115.27L472.239 107.39C471.859 106.98 471.319 106.75 470.779 106.75C470.599 106.75 470.429 106.77 470.249 106.82L459.049 109.9L450.759 102.01C450.379 101.65 449.879 101.46 449.379 101.46L449.369 101.48Z" fill="black"/>
  <path d="M437.06 120.08C434.55 121.89 430.02 123.44 433.84 125.48C439.14 128.32 448.59 126.42 451.32 125.16C456.73 122.66 459 120.36 453.35 118.35C447.7 116.34 441.3 117.03 437.07 120.08H437.06Z" fill="#BF7F00"/>
  <path d="M471.312 225.22L457.352 221.37L459.252 230.31L471.892 225.22" fill="#BF7F00"/>
  <path d="M459.25 230.31L471.55 225.22L467.9 220.17" stroke="black" stroke-width="2" stroke-linecap="round" stroke-linejoin="round"/>
  <path d="M442.04 241.44L435.2 232.41L433.59 240.32L442.04 241.44Z" fill="#BF7F00"/>
  <path d="M433.59 240.32L442.04 241.44L443.11 234.53" stroke="black" stroke-width="2" stroke-linecap="round" stroke-linejoin="round"/>
  <path d="M415.84 238.28L408.25 237.17L409.02 230.92" fill="#E19E00"/>
  <path d="M408.25 237.17L416.39 231.03L415.84 238.28L408.25 237.17Z" fill="#BF7F00"/>
  <path d="M415.84 238.28L408.25 237.17L409.02 230.92" stroke="black" stroke-width="2" stroke-linecap="round" stroke-linejoin="round"/>
  <path d="M401.859 211.28L410.329 207.4L408.419 213.76L401.859 211.28Z" fill="#BF7F00"/>
  <path d="M408.419 213.76L401.859 211.28L403.769 205.85" stroke="black" stroke-width="2" stroke-linecap="round" stroke-linejoin="round"/>
  <path d="M439.279 214.06L430.789 210.22L432.729 216.57L439.279 214.06Z" fill="#BF7F00"/>
  <path d="M432.73 216.57L439.28 214.06L437.34 208.65" stroke="black" stroke-width="2" stroke-linecap="round" stroke-linejoin="round"/>
  <path d="M489.141 228.63C489.141 228.63 493.031 261.55 473.701 262.62C459.681 263.39 455.891 244.75 455.891 244.75" fill="#E19E00"/>
  <path d="M489.141 228.63C489.141 228.63 493.031 261.55 473.701 262.62C459.681 263.39 455.891 244.75 455.891 244.75" stroke="black" stroke-width="2" stroke-linecap="round" stroke-linejoin="round"/>
  <path d="M453.458 180.31C445.918 180.31 440.188 178.11 436.438 173.79C430.388 166.8 431.738 156.88 431.798 156.46C431.848 156.13 432.058 155.84 432.368 155.7C432.678 155.55 440.168 152.12 451.228 152.12C458.428 152.12 465.448 153.58 472.108 156.47C472.458 156.62 472.688 156.96 472.708 157.34C472.728 157.79 473.148 168.41 466.848 175.11C463.658 178.5 459.338 180.25 453.988 180.32H453.448L453.458 180.31Z" fill="white"/>
  <path d="M451.239 153.12C457.239 153.12 464.279 154.16 471.719 157.38C471.719 157.38 472.739 179.05 453.989 179.31C453.809 179.31 453.639 179.31 453.459 179.31C429.509 179.31 432.799 156.6 432.799 156.6C432.799 156.6 440.269 153.12 451.239 153.12ZM451.239 151.12C439.959 151.12 432.279 154.64 431.959 154.79C431.349 155.07 430.919 155.65 430.829 156.32C430.769 156.76 429.349 167.12 435.699 174.45C439.649 179.01 445.629 181.32 453.469 181.32C453.649 181.32 453.839 181.32 454.019 181.32C459.649 181.24 464.209 179.38 467.589 175.79C474.179 168.79 473.739 157.76 473.719 157.29C473.679 156.53 473.219 155.85 472.519 155.55C465.729 152.61 458.579 151.12 451.239 151.12Z" fill="black"/>
  <path d="M398.171 177.47C394.601 177.47 391.831 176.22 389.941 173.78C384.791 167.12 388.141 153.86 388.291 153.3C388.381 152.94 388.671 152.66 389.021 152.58C393.091 151.6 397.061 151.1 400.811 151.1C410.591 151.1 415.711 154.43 415.921 154.57C416.221 154.77 416.391 155.11 416.361 155.46C416.351 155.68 414.811 177.47 398.181 177.47H398.151H398.171Z" fill="white"/>
  <path d="M400.811 152.1C410.401 152.1 415.371 155.41 415.371 155.41C415.371 155.41 414.071 176.48 398.191 176.48H398.171C383.341 176.46 389.261 153.56 389.261 153.56C393.651 152.5 397.511 152.11 400.821 152.11M400.821 150.11C396.991 150.11 392.951 150.62 388.801 151.62C388.081 151.79 387.521 152.35 387.331 153.06C387.181 153.64 383.721 167.36 389.161 174.4C391.251 177.1 394.281 178.47 398.181 178.48C412.261 178.48 416.891 163.47 417.381 155.54C417.421 154.83 417.091 154.15 416.491 153.75C416.271 153.6 410.901 150.11 400.821 150.11Z" fill="black"/>
  <path d="M458.825 165.735C459.418 160.499 456.189 155.835 451.613 155.316C447.036 154.796 442.844 158.62 442.251 163.855C441.657 169.09 444.886 173.755 449.463 174.274C454.039 174.793 458.231 170.97 458.825 165.735Z" fill="black"/>
  <path d="M458.285 170.485C458.582 167.867 456.968 165.535 454.679 165.275C452.391 165.016 450.295 166.927 449.998 169.545C449.702 172.162 451.316 174.495 453.604 174.754C455.893 175.014 457.988 173.102 458.285 170.485Z" fill="white"/>
  <path d="M405.876 164.738C406.36 160.464 403.88 156.672 400.335 156.27C396.79 155.868 393.523 159.008 393.038 163.283C392.553 167.557 395.034 171.349 398.579 171.751C402.124 172.153 405.391 169.013 405.876 164.738Z" fill="black"/>
  <path d="M405.985 167.865C406.224 165.763 405.002 163.899 403.257 163.701C401.512 163.503 399.904 165.046 399.666 167.148C399.428 169.25 400.649 171.114 402.394 171.312C404.139 171.51 405.747 169.966 405.985 167.865Z" fill="white"/>
  <path d="M449.589 122.18C449.589 122.18 447.589 107.52 458.119 90.53C458.119 90.53 452.109 82.52 441.219 88.58C441.219 88.58 433.829 106.69 440.139 122.25C440.139 122.25 444.059 123.8 449.589 122.18Z" fill="#725126" stroke="black" stroke-width="2" stroke-linecap="round" stroke-linejoin="round"/>
  <path d="M441.219 88.5901C441.219 88.5901 448.429 96.4701 458.119 90.5401C458.119 90.5401 452.129 82.4101 441.219 88.5901Z" fill="#A87B45" stroke="black" stroke-width="2" stroke-linecap="round" stroke-linejoin="round"/>
  <path d="M445.891 119.5C445.891 119.5 444.841 105.33 450.841 96.1702" stroke="#351B00" stroke-width="2" stroke-linecap="round" stroke-linejoin="round"/>
  <path d="M410.27 184.09C410.27 184.09 418.78 188.11 432.06 184.94" stroke="black" stroke-width="2" stroke-linecap="round" stroke-linejoin="round"/>
  <path d="M485.509 125.3L473.609 136.2L481.089 139.03L485.509 125.3Z" fill="#BF7F00"/>
  <path d="M499.91 153.99L485.59 160.82L492.27 164.45L499.91 153.99Z" fill="#BF7F00"/>
  <path d="M502.892 172.56L486.832 171.16L492.282 177.94L502.892 172.56Z" fill="#BF7F00"/>
  <path d="M487.859 152.26L500.209 153.99L492.079 164.39L502.979 172.58L492.359 177.61" stroke="black" stroke-width="2" stroke-linecap="round" stroke-linejoin="round"/>
  <path d="M481.09 139.03L485.51 125.3L470.57 128.92" stroke="black" stroke-width="2" stroke-linecap="round" stroke-linejoin="round"/>
  <path d="M476.538 154.34C476.378 154.34 476.228 154.3 476.078 154.23C468.398 150.25 460.218 148.24 451.768 148.24C440.038 148.24 431.838 152.2 431.758 152.24C431.618 152.31 431.468 152.34 431.318 152.34C431.098 152.34 430.868 152.26 430.688 152.12C430.388 151.87 430.248 151.48 430.348 151.1L433.118 140.12C433.218 139.71 433.568 139.41 433.988 139.37C434.018 139.37 434.058 139.37 434.088 139.37C434.468 139.37 434.818 139.59 434.988 139.93L435.838 141.69L437.338 139.19C437.508 138.9 437.818 138.72 438.148 138.71C438.148 138.71 465.588 137.49 465.608 137.49C465.708 137.49 465.808 137.51 465.898 137.53L474.268 140.11C474.618 140.22 474.878 140.51 474.948 140.86L477.508 153.14C477.588 153.52 477.438 153.91 477.138 154.14C476.958 154.27 476.748 154.34 476.538 154.34Z" fill="#BF7F00"/>
  <path d="M465.599 138.48L473.969 141.06L476.529 153.34C467.559 148.69 458.979 147.23 451.759 147.23C439.629 147.23 431.309 151.34 431.309 151.34L434.079 140.36L435.739 143.78L438.189 139.7L465.599 138.48ZM465.599 136.48C465.599 136.48 465.539 136.48 465.509 136.48L438.099 137.7C437.429 137.73 436.819 138.09 436.479 138.67L435.929 139.59L435.879 139.49C435.539 138.8 434.839 138.36 434.079 138.36C434.009 138.36 433.939 138.36 433.869 138.37C433.029 138.46 432.339 139.06 432.139 139.87L429.369 150.85C429.179 151.61 429.449 152.4 430.049 152.89C430.409 153.18 430.859 153.33 431.309 153.33C431.609 153.33 431.909 153.26 432.189 153.12C432.269 153.08 440.289 149.22 451.759 149.22C460.059 149.22 468.079 151.2 475.609 155.1C475.899 155.25 476.219 155.32 476.529 155.32C476.959 155.32 477.379 155.18 477.739 154.91C478.359 154.44 478.649 153.66 478.489 152.91L475.929 140.63C475.779 139.92 475.259 139.34 474.559 139.13L466.189 136.55C465.999 136.49 465.799 136.46 465.599 136.46V136.48Z" fill="black"/>
  <path d="M465.597 138.48L473.967 141.06L476.527 153.34C452.497 140.88 431.297 151.34 431.297 151.34C449.797 139.83 473.297 149.79 473.297 149.79L472.207 142.45L465.597 138.47V138.48Z" fill="#966000"/>
  <path d="M416.258 150.53C416.148 150.53 416.048 150.51 415.948 150.48C410.128 148.55 404.358 147.57 398.788 147.57C393.218 147.57 389.588 148.66 389.558 148.67C389.458 148.7 389.358 148.72 389.248 148.72C389.058 148.72 388.858 148.66 388.698 148.55C388.448 148.38 388.278 148.11 388.248 147.81C387.658 141.45 387.648 141.39 387.648 141.35C387.642 141.09 388.778 139.323 391.058 136.05C391.248 135.78 391.558 135.62 391.878 135.62C391.908 135.62 391.938 135.62 391.968 135.62L410.828 137.36C411.078 137.38 411.318 137.5 411.488 137.7L413.048 139.47L415.558 138.28C415.698 138.22 415.838 138.18 415.988 138.18C416.168 138.18 416.348 138.23 416.508 138.33C416.798 138.51 416.978 138.82 416.988 139.16L417.258 149.51C417.258 149.84 417.118 150.14 416.858 150.34C416.688 150.47 416.478 150.54 416.258 150.54V150.53Z" fill="#BF7F00"/>
  <path d="M391.88 136.62L410.74 138.36L412.79 140.7L415.98 139.18L416.25 149.53C409.3 147.23 403.33 146.57 398.78 146.57C392.77 146.57 389.24 147.72 389.24 147.72C389.24 147.72 388.65 141.4 388.65 141.33C388.65 141.26 391.88 136.62 391.88 136.62ZM391.88 134.62C391.23 134.62 390.61 134.94 390.24 135.48C387.84 138.933 386.647 140.9 386.66 141.38C386.66 141.47 386.66 141.51 387.26 147.9C387.32 148.5 387.64 149.05 388.15 149.39C388.48 149.61 388.86 149.72 389.25 149.72C389.46 149.72 389.67 149.69 389.87 149.62C389.9 149.62 393.22 148.57 398.79 148.57C404.25 148.57 409.91 149.53 415.63 151.43C415.84 151.5 416.05 151.53 416.26 151.53C416.68 151.53 417.1 151.4 417.45 151.14C417.97 150.75 418.27 150.13 418.26 149.48L417.99 139.13C417.97 138.45 417.61 137.83 417.04 137.48C416.72 137.28 416.36 137.18 415.99 137.18C415.7 137.18 415.4 137.24 415.13 137.37L413.3 138.24L412.24 137.04C411.9 136.66 411.43 136.42 410.92 136.37L392.06 134.63C392 134.63 391.94 134.63 391.88 134.63V134.62Z" fill="black"/>
  <path d="M415.99 139.18L416.26 149.53C400.13 144.18 389.25 147.72 389.25 147.72C401.33 143.42 414.06 147.38 414.06 147.38L414.67 141.61L412.8 140.71L415.99 139.19V139.18Z" fill="#966000"/>
  <path d="M494.01 128.48L488.81 126.69L487.82 113.66L494.01 128.48Z" fill="#BF7F00"/>
  <path d="M501.121 141.05L495.871 136.37L500.121 126.39L501.121 141.05Z" fill="#BF7F00"/>
  <path d="M507.692 158.15L504.172 152.22L510.422 141.45L507.692 158.15Z" fill="#BF7F00"/>
  <path d="M508.429 182.25L507.359 174.51L517.279 168.92L508.429 182.25Z" fill="#BF7F00"/>
  <path d="M479.1 117.71L473.56 116.89L470.77 108.76L479.1 117.71Z" fill="#BF7F00"/>
  <path d="M435.921 178.32C435.921 178.32 428.081 172.32 428.141 159.83" stroke="#BF7F00" stroke-width="2" stroke-linecap="round" stroke-linejoin="round"/>
  <path d="M463.269 182.01C463.269 182.01 456.009 185.94 444.719 182.71" stroke="#FFC55F" stroke-width="2" stroke-linecap="round" stroke-linejoin="round"/>
  <path d="M402.54 180.78C402.54 180.78 395.53 182.85 390.52 178.8" stroke="#FFC55F" stroke-width="2" stroke-linecap="round" stroke-linejoin="round"/>
  <path d="M470.901 165.11C470.821 165.11 470.741 165.11 470.661 165.08C470.561 165.06 460.431 162.59 448.061 162.59C442.701 162.59 437.671 163.05 433.111 163.96C433.041 163.97 432.981 163.98 432.911 163.98C432.441 163.98 432.031 163.65 431.931 163.18C431.901 163.03 431.201 159.53 431.801 156.41C431.861 156.09 432.081 155.82 432.371 155.69C432.691 155.54 440.461 152.12 451.531 152.12C458.741 152.12 465.671 153.58 472.111 156.47C472.431 156.61 472.651 156.92 472.691 157.27C472.701 157.39 473.011 160.21 471.841 164.39C471.721 164.83 471.321 165.12 470.881 165.12L470.901 165.11Z" fill="#BF7F00"/>
  <path d="M451.552 153.12C457.562 153.12 464.532 154.16 471.722 157.38C471.722 157.38 472.032 160.07 470.902 164.11C470.902 164.11 460.712 161.59 448.062 161.59C443.232 161.59 438.042 161.96 432.922 162.98C432.922 162.98 432.222 159.56 432.802 156.6C432.802 156.6 440.562 153.12 451.552 153.12ZM451.552 151.12C440.272 151.12 432.312 154.63 431.982 154.78C431.392 155.05 430.962 155.59 430.842 156.22C430.202 159.53 430.942 163.22 430.972 163.38C431.162 164.33 432.002 164.98 432.932 164.98C433.062 164.98 433.192 164.97 433.322 164.94C437.822 164.05 442.782 163.59 448.072 163.59C460.332 163.59 470.332 166.03 470.432 166.05C470.592 166.09 470.752 166.11 470.912 166.11C471.792 166.11 472.592 165.53 472.832 164.65C474.062 160.28 473.732 157.27 473.712 157.14C473.632 156.44 473.182 155.83 472.542 155.55C465.962 152.61 458.902 151.11 451.552 151.11V151.12Z" fill="black"/>
  <path d="M414.019 163.43C413.899 163.43 413.779 163.41 413.659 163.36C413.579 163.33 405.309 160.19 395.809 160.19C393.209 160.19 390.729 160.42 388.429 160.89C388.359 160.9 388.299 160.91 388.229 160.91C387.979 160.91 387.739 160.82 387.559 160.65C387.319 160.44 387.209 160.12 387.239 159.81C387.289 159.28 387.789 154.59 388.329 153.19C388.439 152.9 388.689 152.67 388.989 152.59C389.199 152.53 394.169 151.13 400.639 151.13C406.499 151.13 411.609 152.27 415.849 154.52C416.209 154.71 416.419 155.11 416.369 155.51C416.349 155.7 415.849 160.2 414.959 162.76C414.869 163.02 414.679 163.23 414.439 163.34C414.309 163.4 414.159 163.43 414.019 163.43Z" fill="#BF7F00"/>
  <path d="M400.639 152.12C405.249 152.12 410.609 152.86 415.379 155.4C415.379 155.4 414.879 159.95 414.019 162.43C414.019 162.43 405.629 159.2 395.809 159.2C393.339 159.2 390.779 159.4 388.239 159.92C388.239 159.92 388.759 154.87 389.259 153.55C389.259 153.55 394.229 152.13 400.639 152.13M400.639 150.13C394.029 150.13 388.919 151.57 388.709 151.63C388.109 151.8 387.619 152.25 387.389 152.84C386.829 154.29 386.369 158.47 386.239 159.72C386.169 160.35 386.409 160.98 386.879 161.41C387.249 161.75 387.729 161.93 388.219 161.93C388.349 161.93 388.479 161.92 388.619 161.89C390.849 161.44 393.259 161.21 395.799 161.21C405.099 161.21 413.209 164.28 413.289 164.31C413.519 164.4 413.759 164.44 414.009 164.44C414.299 164.44 414.589 164.38 414.859 164.25C415.349 164.02 415.729 163.6 415.909 163.09C416.829 160.43 417.339 155.82 417.359 155.63C417.449 154.82 417.029 154.03 416.309 153.64C411.929 151.31 406.659 150.13 400.629 150.13H400.639Z" fill="black"/>
  <path d="M474.72 249.99C474.6 249.99 474.48 249.97 474.37 249.93L464.32 246.17C464.04 246.07 463.83 245.85 463.73 245.57L460.76 237.26C460.63 236.9 460.72 236.5 460.98 236.23L467.31 229.67L462.32 175.09L451.08 167.03C450.79 166.82 450.63 166.47 450.67 166.11L451.85 154.73C451.88 154.44 452.03 154.19 452.26 154.02L461.51 147.44C461.68 147.32 461.89 147.25 462.09 147.25C462.34 147.25 462.59 147.34 462.78 147.53L468.74 153.27C469.06 153.57 469.14 154.05 468.94 154.44L466.73 158.8L471.06 161.16L473.65 158.1L471.07 154.58C470.9 154.35 470.84 154.06 470.9 153.79L472.09 148.05C472.16 147.72 472.39 147.44 472.71 147.32C472.83 147.27 472.95 147.25 473.07 147.25C473.28 147.25 473.48 147.31 473.65 147.44L485.6 156.06C485.86 156.25 486.02 156.55 486.02 156.87V166.21C486.02 166.43 485.95 166.64 485.82 166.81L480.58 173.77L484.29 228.01L490.86 231.53C491.18 231.7 491.39 232.04 491.39 232.41V240.77C491.39 241.04 491.28 241.31 491.08 241.5L484.21 248.02C484.02 248.2 483.78 248.29 483.52 248.29C483.48 248.29 483.43 248.29 483.39 248.29C483.09 248.25 482.83 248.08 482.67 247.82L478.71 241.3C478.46 240.89 478.54 240.35 478.9 240.03L479.86 239.18L475.69 236.71L472.48 239.3L476.95 241.28C477.4 241.48 477.64 241.98 477.51 242.45L475.69 249.26C475.62 249.53 475.43 249.76 475.18 249.89C475.04 249.96 474.88 250 474.72 250V249.99Z" fill="#BABABA"/>
  <path d="M473.082 148.25L485.032 156.87V166.21L479.562 173.46L483.332 228.62L490.382 232.4V240.76L483.512 247.28L479.552 240.76L481.552 239L475.602 235.48L470.572 239.53L476.542 242.17L474.722 248.98L464.672 245.22L461.702 236.91L468.352 230.03L463.272 174.54L451.662 166.21L452.842 154.83L462.092 148.25L468.052 153.99L465.412 159.22L471.312 162.43L474.942 158.15L471.902 153.99L473.092 148.25M462.102 146.25C461.702 146.25 461.292 146.37 460.942 146.62L451.692 153.2C451.222 153.53 450.922 154.05 450.862 154.62L449.682 166C449.612 166.71 449.922 167.41 450.502 167.83L461.372 175.63L466.282 229.3L460.272 235.53C459.742 236.08 459.572 236.88 459.832 237.59L462.802 245.9C463.002 246.45 463.432 246.89 463.982 247.1L474.032 250.86C474.262 250.94 474.492 250.99 474.732 250.99C475.052 250.99 475.362 250.92 475.652 250.77C476.152 250.51 476.522 250.05 476.672 249.51L478.462 242.79L481.832 248.33C482.142 248.85 482.682 249.19 483.272 249.27C483.362 249.28 483.452 249.29 483.532 249.29C484.042 249.29 484.532 249.1 484.912 248.74L491.782 242.22C492.182 241.84 492.402 241.32 492.402 240.77V232.41C492.402 231.67 491.992 231 491.342 230.65L485.262 227.39L481.612 174.08L486.632 167.42C486.892 167.07 487.032 166.65 487.032 166.22V156.88C487.032 156.24 486.722 155.63 486.202 155.26L474.252 146.64C473.902 146.39 473.492 146.26 473.082 146.26C472.842 146.26 472.592 146.3 472.362 146.4C471.732 146.65 471.262 147.19 471.132 147.86L469.972 153.44C469.872 153.12 469.702 152.82 469.442 152.57L463.482 146.83C463.102 146.46 462.602 146.27 462.092 146.27L462.102 146.25ZM468.082 158.39L469.852 154.89C469.912 154.78 469.952 154.66 469.992 154.55C470.052 154.77 470.162 154.98 470.302 155.17L472.412 158.06L470.852 159.9L468.082 158.39ZM474.392 239.04L475.782 237.92L478.172 239.34C477.852 239.65 477.652 240.06 477.582 240.48C477.512 240.43 477.432 240.39 477.352 240.36L474.382 239.05L474.392 239.04Z" fill="black"/>
  <path d="M475.39 246.48L467.8 243.3L467.09 236.92L472.68 230.04L467.98 172.03L456.62 166.1L457.35 156.98L464.09 150.18L462.09 148.25L452.84 154.84L451.66 166.22L463.27 174.55L468.34 230.04L461.69 236.92L464.67 245.23L474.72 248.99L475.39 246.48Z" fill="#E0E0E0"/>
  <path d="M482.741 246.01L483.521 247.29L490.391 240.77V232.41L483.331 228.63L479.561 173.47L485.031 166.22V156.87L473.081 148.25L472.801 149.59L483.701 157.63L483.231 165.96L478.041 171.77L481.941 229.45L489.461 234.14V240.13L482.741 246.01Z" fill="#939393"/>
  <path d="M505.049 184.77C505.049 184.77 529.599 224.19 470.729 215.75C470.729 215.75 464.619 215.75 464.249 211.28C464.029 208.69 466.649 207.74 466.649 207.74C466.649 207.74 463.909 208.95 463.279 205.05C462.639 201.16 465.989 201.16 465.989 201.16C465.989 201.16 463.119 202.7 462.529 198.93C461.939 195.16 465.369 195.02 465.369 195.02C465.369 195.02 469.629 194.19 475.269 193.58C475.269 193.58 479.079 193.1 481.919 191.87" fill="#E19E00"/>
  <path d="M505.049 184.77C505.049 184.77 529.599 224.19 470.729 215.75C470.729 215.75 464.619 215.75 464.249 211.28C464.029 208.69 466.649 207.74 466.649 207.74C466.649 207.74 463.909 208.95 463.279 205.05C462.639 201.16 465.989 201.16 465.989 201.16C465.989 201.16 463.119 202.7 462.529 198.93C461.939 195.16 465.369 195.02 465.369 195.02C465.369 195.02 469.629 194.19 475.269 193.58C475.269 193.58 479.079 193.1 481.919 191.87" stroke="black" stroke-width="2" stroke-linecap="round" stroke-linejoin="round"/>
  <path d="M413.721 185.21C413.721 185.21 410.541 194.86 417.571 196.33C432.181 199.38 432.061 184.95 432.061 184.95C432.061 184.95 421.111 187.31 413.721 185.22V185.21Z" fill="#966000" stroke="black" stroke-width="2" stroke-linecap="round" stroke-linejoin="round"/>
  <path d="M423.7 199.44C423.7 199.44 418.91 200.69 414.84 198.95" stroke="#BF7F00" stroke-width="2" stroke-linecap="round" stroke-linejoin="round"/>
  <path d="M481.551 189.2C481.551 189.2 485.241 190.24 485.791 191.88C485.791 191.88 490.211 192.1 493.991 189.9" fill="#E19E00"/>
  <path d="M481.551 189.2C481.551 189.2 485.241 190.24 485.791 191.88C485.791 191.88 490.211 192.1 493.991 189.9" stroke="black" stroke-width="2" stroke-linecap="round" stroke-linejoin="round"/>
</svg>
