<svg width="345" height="358" viewBox="0 0 345 358" fill="none" xmlns="http://www.w3.org/2000/svg">
  <path d="M47.0278 224.017L50.4495 254.646L63.2694 266.018L96.3152 283.661L138.695 291.39L106.682 202.167L47.0278 224.017Z" fill="#324C0B"/>
  <path d="M47.0277 224.017L63.2693 266.018L40.3042 245.644L47.0277 224.017Z" fill="#496D20"/>
  <path d="M106.682 202.167L152.049 196.855L164.177 286.567L150.085 293.465L138.694 291.39L106.682 202.167Z" fill="#324C0B"/>
  <path d="M152.049 196.855L164.177 286.567L202.591 267.752L210.016 197.971L152.049 196.855Z" fill="#324C0B"/>
  <path d="M261.867 209.795L235.499 266.94L202.591 267.752L210.016 197.971L261.867 209.795Z" fill="#324C0B"/>
  <path d="M261.867 209.795L304.016 236.661L288.733 265.64L235.499 266.94L261.867 209.795Z" fill="#324C0B"/>
  <path d="M341.821 232.317L310.601 210.182L239.474 188.056L157.675 186.479L93.659 193.987L9.48118 224.81L0 255.319L40.3043 245.644L47.0278 224.017L106.682 202.167L152.049 196.855L210.016 197.971L261.867 209.795L304.016 236.661L341.821 232.317Z" fill="#496D20"/>
  <path d="M191.791 197.971L194.687 209.795L191.791 217.431L194.687 238.367L193.239 218.169L198.634 209.795L199.686 197.768L202.591 194.245L203.91 190.297L199.953 193.719L191.791 197.971Z" fill="#231200"/>
  <path d="M47.0279 224.017L36.5322 225.511L26.3408 222.522L35.4808 224.017L52.5709 221.988L50.4496 232.861L47.0279 224.017Z" fill="#324C0B"/>
  <path d="M101.47 282.149C96.9694 282.149 93.4002 280.47 90.8731 277.15C81.853 265.326 89.7202 236.062 90.0615 234.826C90.209 234.282 90.5964 233.839 91.1129 233.618C91.3434 233.516 91.5925 233.47 91.8415 233.47C92.1366 233.47 92.441 233.544 92.7084 233.682L132.081 254.646C132.801 255.024 133.179 255.826 133.022 256.62C132.976 256.85 128.244 279.898 103.14 282.075C102.577 282.121 102.014 282.149 101.47 282.149Z" fill="#607527"/>
  <path d="M91.8417 235.305L131.214 256.269C131.214 256.269 126.99 278.155 102.983 280.23C102.467 280.276 101.959 280.295 101.48 280.295C79.5291 280.295 91.8417 235.296 91.8417 235.296M91.8417 231.607C91.3437 231.607 90.8456 231.708 90.3845 231.911C89.3515 232.354 88.586 233.239 88.2909 234.328C87.4147 237.528 80.0087 265.935 89.4161 278.257C92.2752 282.001 96.444 283.984 101.48 283.984C102.07 283.984 102.688 283.956 103.306 283.901C117.113 282.702 124.971 275.462 129.121 269.596C133.585 263.288 134.793 257.219 134.848 256.961C135.153 255.374 134.387 253.77 132.958 253.004L93.5849 232.04C93.0407 231.754 92.4504 231.607 91.8509 231.607H91.8417Z" fill="black"/>
  <path d="M227.631 295.402C226.137 295.402 224.551 295.199 222.909 294.812C196.568 288.485 198.708 268.711 198.736 268.517C198.819 267.826 199.289 267.235 199.953 267.005L244.896 251.114C245.099 251.04 245.302 251.012 245.514 251.012C245.874 251.012 246.225 251.114 246.529 251.317C247.008 251.639 247.313 252.165 247.35 252.737C247.414 253.834 248.899 279.705 238.68 290.588C235.673 293.788 231.957 295.411 227.631 295.411V295.402Z" fill="#607527"/>
  <path d="M245.514 252.847C245.514 252.847 248.051 293.557 227.631 293.557C226.303 293.557 224.874 293.382 223.343 293.013C198.302 287 200.571 268.739 200.571 268.739L245.514 252.847ZM245.514 249.158C245.099 249.158 244.684 249.232 244.288 249.37L199.344 265.261C198.026 265.732 197.085 266.894 196.91 268.287C196.836 268.868 196.292 274.106 199.243 280.23C201.927 285.801 208.143 293.161 222.485 296.61C224.256 297.035 225.99 297.256 227.631 297.256C232.482 297.256 236.651 295.439 240.027 291.851C250.79 280.396 249.268 253.751 249.194 252.626C249.121 251.473 248.512 250.413 247.544 249.776C246.935 249.37 246.225 249.167 245.505 249.167L245.514 249.158Z" fill="black"/>
  <path d="M208.411 294.95C208.061 294.95 207.719 294.849 207.415 294.655L195.195 286.834C187.327 288.854 179.267 289.887 171.224 289.887C168.854 289.887 166.447 289.794 164.076 289.619C153.756 288.845 143.666 286.41 134.056 282.379L121.033 288.199C120.793 288.31 120.535 288.356 120.277 288.356C119.926 288.356 119.585 288.254 119.29 288.07C118.764 287.738 118.45 287.166 118.432 286.548L118.201 273.986C106.23 266.211 95.7712 255.974 87.1109 243.532L78.6903 236.744C78.3675 236.486 78.137 236.117 78.0447 235.711L75.0012 221.969C74.872 221.674 74.7429 221.379 74.6138 221.084L58.7872 208.061C58.2431 207.618 58.0033 206.899 58.1601 206.216C58.3168 205.534 58.8518 204.999 59.5343 204.842L68.1577 202.813C66.0457 195.176 64.5423 187.263 63.703 179.239L52.5802 167.314C52.119 166.816 51.9622 166.096 52.1836 165.46L56.9519 151.598L48.7434 114.097C48.5774 113.332 48.9094 112.539 49.5827 112.133L66.9126 101.545L63.9244 72.2253C63.8598 71.5705 64.1457 70.9248 64.6899 70.5375C65.0035 70.3069 65.3816 70.1962 65.7598 70.1962C66.018 70.1962 66.2855 70.2516 66.5253 70.3622L76.2647 74.8169L78.3214 47.3879C78.3767 46.6408 78.884 45.9952 79.6034 45.7647C79.7879 45.7093 79.9723 45.6817 80.166 45.6817C80.7101 45.6817 81.2266 45.9215 81.5863 46.3549L90.3481 56.9521L101.471 31.7642C101.766 31.091 102.43 30.6667 103.159 30.6667C103.196 30.6667 103.233 30.6667 103.269 30.6667C104.035 30.7128 104.699 31.2293 104.92 31.9671L107.946 41.9003L142.2 19.9865C142.504 19.7929 142.845 19.6914 143.196 19.6914C143.491 19.6914 143.777 19.756 144.044 19.9035L155.038 25.6218L184.643 21.5175C184.726 21.5083 184.809 21.4991 184.893 21.4991C185.077 21.4991 185.261 21.5268 185.437 21.5821L212.469 29.9289L225.935 26.7654C226.073 26.7285 226.211 26.7193 226.359 26.7193C226.811 26.7193 227.244 26.8853 227.585 27.1897L256.518 52.9954L260.982 43.6434C261.286 42.9978 261.941 42.592 262.642 42.592C262.697 42.592 262.753 42.592 262.808 42.592C263.573 42.6658 264.219 43.2007 264.422 43.9477L271.671 70.5098L281.918 61.3422C282.268 61.0379 282.702 60.8718 283.145 60.8718C283.421 60.8718 283.698 60.9364 283.956 61.0655C284.629 61.3975 285.035 62.1077 284.98 62.8548L282.923 90.2838L293.216 87.3232C293.382 87.2771 293.557 87.2495 293.723 87.2495C294.194 87.2495 294.655 87.4339 295.005 87.7752C295.476 88.2363 295.669 88.9188 295.503 89.5552L288.189 118.1L303.749 131.151C304.348 131.658 304.569 132.488 304.284 133.226L290.597 169.057L294.627 187.743C294.802 188.536 294.433 189.347 293.723 189.744L279.133 197.86C277.214 204.759 274.798 211.492 271.948 217.911L280.664 221.397C281.318 221.655 281.761 222.264 281.816 222.965C281.872 223.666 281.521 224.33 280.922 224.699L262.826 235.527L261.526 248.282C261.461 248.946 261.037 249.518 260.428 249.785L247.009 255.614C236.781 266.405 225.151 274.844 212.423 280.728L210.274 293.447C210.173 294.055 209.767 294.572 209.204 294.83C208.964 294.941 208.706 294.987 208.457 294.987L208.411 294.95Z" fill="#8AB242"/>
  <path d="M143.168 21.5269L154.678 27.5125L184.864 23.3345L212.377 31.8289L226.331 28.5547L257.099 55.993L262.614 44.4274L270.647 73.8763L283.117 62.7165L280.866 92.7925L293.704 89.1033L286.096 118.774L302.549 132.562L288.66 168.909L292.801 188.13L277.537 196.624C275.415 204.399 272.704 211.852 269.448 218.907L279.953 223.113L261.055 234.411L259.663 248.079L245.893 254.056C235.655 264.92 223.73 273.581 210.726 279.437L208.411 293.115L195.508 284.86C187.659 286.945 179.524 288.051 171.224 288.051C168.9 288.051 166.566 287.968 164.214 287.793C153.599 287 143.481 284.436 134.037 280.378L120.276 286.52L120.027 272.972C107.807 265.197 97.1082 254.729 88.4663 242.269L79.8336 235.315L76.7532 221.388C76.541 220.908 76.3289 220.42 76.1168 219.94L59.949 206.641L70.4539 204.169C68.0467 195.933 66.3589 187.328 65.4643 178.437L53.9172 166.06L58.8514 151.709L50.5323 113.701L68.8491 102.514L65.741 72.0409L77.8876 77.6023L80.138 47.5263L90.7997 60.42L103.122 32.5022L106.857 44.7594L143.158 21.5361M143.168 17.8377C142.476 17.8377 141.784 18.0314 141.175 18.4187L108.969 39.0228L106.654 31.4231C106.202 29.9474 104.883 28.9052 103.343 28.813C103.269 28.813 103.195 28.813 103.122 28.813C101.664 28.813 100.336 29.6707 99.746 31.008L89.8313 53.4659L82.9694 45.1745C82.2593 44.3167 81.2078 43.8371 80.1288 43.8371C79.7598 43.8371 79.3817 43.8925 79.0128 44.0124C77.574 44.4735 76.5687 45.7555 76.4488 47.2496L74.595 72.0317L67.272 68.6745C66.7832 68.4532 66.2574 68.3425 65.741 68.3425C64.9847 68.3425 64.2284 68.5731 63.592 69.0342C62.5129 69.809 61.9319 71.0909 62.0702 72.4098L64.9386 100.567L48.6047 110.547C47.2582 111.368 46.5849 112.945 46.9262 114.485L55.0239 151.478L50.4309 164.851C49.9882 166.143 50.2925 167.572 51.2241 168.568L61.9319 180.042C62.7251 187.3 64.0532 194.485 65.8793 201.448L59.1097 203.044C57.7447 203.366 56.684 204.436 56.3612 205.801C56.0477 207.166 56.5272 208.596 57.6063 209.49L73.0917 222.227C73.1378 222.338 73.1839 222.439 73.23 222.55L76.2275 236.108C76.4119 236.929 76.8638 237.657 77.5187 238.183L85.7363 244.805C94.3136 257.062 104.606 267.208 116.366 274.992L116.578 286.576C116.596 287.812 117.242 288.955 118.284 289.619C118.884 289.997 119.575 290.191 120.267 290.191C120.774 290.191 121.291 290.09 121.77 289.868L134.074 284.381C143.647 288.31 153.682 290.68 163.928 291.455C166.345 291.639 168.798 291.731 171.215 291.731C179.146 291.731 187.087 290.754 194.862 288.826L206.409 296.214C207.009 296.601 207.701 296.795 208.401 296.795C208.909 296.795 209.416 296.693 209.896 296.481C211.03 295.983 211.832 294.941 212.035 293.724L214.027 281.955C226.515 276.043 237.943 267.696 248.032 257.118L261.111 251.446C262.337 250.911 263.176 249.767 263.315 248.439L264.523 236.606L281.825 226.258C283.033 225.538 283.716 224.201 283.605 222.799C283.495 221.397 282.6 220.189 281.3 219.663L274.355 216.887C276.808 211.151 278.929 205.183 280.663 199.078L294.581 191.33C296.001 190.537 296.739 188.914 296.398 187.328L292.487 169.177L305.98 133.853C306.543 132.387 306.109 130.717 304.901 129.712L290.227 117.409L297.218 90.1271C297.32 89.7951 297.375 89.4354 297.375 89.0665C297.375 87.0466 295.752 85.405 293.741 85.3773C293.723 85.3773 293.704 85.3773 293.686 85.3773C293.621 85.3773 293.557 85.3773 293.492 85.3773C293.179 85.3957 292.874 85.4511 292.588 85.5433L284.924 87.7476L286.769 63.0947C286.787 62.9563 286.787 62.818 286.787 62.6796C286.787 60.6598 285.173 59.0273 283.163 58.9904C283.163 58.9904 283.117 58.9904 283.098 58.9904C283.052 58.9904 283.006 58.9904 282.96 58.9904C282.065 59.0273 281.244 59.3778 280.626 59.9404L272.621 67.1066L266.165 43.4221C265.759 41.9372 264.468 40.8581 262.937 40.7198C262.826 40.7106 262.715 40.7013 262.605 40.7013C261.194 40.7013 259.893 41.513 259.275 42.8042L255.872 49.9335L228.775 25.7602C228.092 25.1515 227.216 24.8194 226.322 24.8194C226.045 24.8194 225.759 24.8471 225.482 24.9209L212.506 27.9645L185.953 19.7653C185.602 19.6546 185.233 19.5993 184.864 19.5993C184.698 19.5993 184.523 19.6085 184.357 19.6361L155.333 23.6574L144.865 18.2158C144.33 17.9391 143.749 17.8008 143.168 17.8008V17.8377Z" fill="black"/>
  <path d="M68.6555 102.412L75.499 93.8437L65.5566 71.9392L68.6555 102.412Z" fill="#72912F"/>
  <path d="M269.374 218.953L279.879 223.159L260.981 234.457L263.158 255.402L245.819 254.102C235.581 264.966 223.656 273.627 210.652 279.483L208.337 293.161L195.434 284.906C185.381 287.581 174.876 288.642 164.14 287.839C153.525 287.046 143.407 284.482 133.963 280.424L120.202 286.567L119.953 273.018C107.733 265.243 97.0343 254.775 88.3924 242.315L71.6066 241.061L76.6793 221.434C76.4671 220.955 76.255 220.466 76.0429 219.986L59.8751 206.687L70.38 204.215C67.9728 195.979 66.285 187.374 65.3904 178.483L53.8433 166.106L69.6422 173.816L77.9244 182.679C172.413 242.426 265.039 196.68 265.039 196.68L274.308 192.336L292.717 188.167L277.453 196.661C275.332 204.436 272.621 211.888 269.365 218.944L269.374 218.953Z" fill="#72912F"/>
  <path d="M288.457 168.799L286.142 155.97L302.346 132.46L288.457 168.799Z" fill="#72912F"/>
  <path d="M58.7502 151.616L62.9466 139.267L50.4219 113.609L58.7502 151.616Z" fill="#72912F"/>
  <path d="M280.663 92.691L275.166 85.036L282.913 62.615L280.663 92.691Z" fill="#72912F"/>
  <path d="M77.7031 77.5008L84.2791 70.7588L79.9535 47.4248L77.7031 77.5008Z" fill="#72912F"/>
  <path d="M256.896 55.9008L260.29 60.9181L262.421 44.3352L256.896 55.9008Z" fill="#72912F"/>
  <path d="M106.672 44.6579L102.577 49.1218L102.937 32.4006L106.672 44.6579Z" fill="#72912F"/>
  <path d="M205.277 69.9121C205.805 62.8567 195.445 56.3298 182.137 55.3338C168.829 54.3378 157.612 59.25 157.084 66.3054C156.556 73.3608 166.916 79.8877 180.225 80.8837C193.533 81.8797 204.749 76.9676 205.277 69.9121Z" fill="#72912F"/>
  <path d="M205.57 71.5334C206.852 64.109 197.223 56.2602 184.08 53.9914C170.928 51.7225 159.234 55.9005 157.952 63.3158" stroke="#607527" stroke-width="4" stroke-linecap="round" stroke-linejoin="round"/>
  <path d="M181.821 267.733L174.793 258.52L173.17 266.617L181.821 267.733Z" fill="#607527"/>
  <path d="M173.17 266.617L181.821 267.733L182.891 260.659" stroke="black" stroke-width="4" stroke-linecap="round" stroke-linejoin="round"/>
  <path d="M142.679 264.874L151.007 256.813L151.413 265.059L142.679 264.874Z" fill="#607527"/>
  <path d="M151.413 265.059L142.679 264.874V257.726" stroke="black" stroke-width="4" stroke-linecap="round" stroke-linejoin="round"/>
  <path d="M192.105 69.772C192.105 69.772 206.991 42.8225 206.447 11.234C206.447 11.234 180.899 -15.6417 166.262 23.6942C166.262 23.6942 171.233 41.1809 168.328 67.992C168.328 67.992 180.134 75.5363 192.096 69.772H192.105Z" fill="#725126" stroke="black" stroke-width="4" stroke-linecap="round" stroke-linejoin="round"/>
  <path d="M206.447 11.2432C206.447 11.2432 209.721 49.2602 166.262 23.7034C166.262 23.7034 178.981 -15.282 206.447 11.2432Z" fill="#A87B45" stroke="black" stroke-width="4" stroke-linecap="round" stroke-linejoin="round"/>
  <path d="M186.792 65.2803C186.792 65.2803 194.299 50.5974 194.299 38.3401" stroke="#351B00" stroke-width="4" stroke-linecap="round" stroke-linejoin="round"/>
  <path d="M278.247 124.141C277.813 124.141 277.38 123.984 277.029 123.689C256.822 106.055 235.074 102.356 220.373 102.356C212.699 102.356 207.783 103.417 207.728 103.436C207.599 103.463 207.46 103.482 207.331 103.482C206.759 103.482 206.215 103.214 205.865 102.753C205.431 102.181 205.367 101.407 205.699 100.77L214.332 84.4363C214.654 83.8276 215.281 83.4495 215.964 83.4495C216.047 83.4495 216.13 83.4495 216.213 83.4679C216.978 83.5786 217.596 84.1504 217.762 84.9067L218.353 87.6367L221.424 84.5378C221.774 84.1873 222.245 83.9936 222.734 83.9936C222.854 83.9936 222.973 84.0028 223.093 84.0305L267.013 92.7093C267.419 92.7923 267.778 93.0044 268.055 93.318L277.896 104.727C278.145 105.013 278.293 105.363 278.33 105.732L280.073 122.112C280.156 122.868 279.759 123.597 279.086 123.947C278.818 124.086 278.523 124.16 278.237 124.16L278.247 124.141Z" fill="#72912F"/>
  <path d="M215.973 85.2941L217.283 91.3536L222.752 85.8383L266.672 94.517L276.512 105.926L278.256 122.306C257.144 103.888 234.29 100.512 220.391 100.512C212.385 100.512 207.35 101.628 207.35 101.628L215.982 85.2941M215.982 81.6049C214.626 81.6049 213.363 82.352 212.727 83.5694L204.094 99.9032C203.421 101.176 203.55 102.725 204.426 103.869C205.136 104.791 206.224 105.317 207.359 105.317C207.626 105.317 207.894 105.289 208.161 105.225C208.198 105.225 212.957 104.192 220.4 104.192C234.779 104.192 256.065 107.817 275.839 125.073C276.531 125.672 277.389 125.986 278.265 125.986C278.846 125.986 279.427 125.847 279.962 125.571C281.308 124.87 282.092 123.413 281.926 121.909L280.183 105.529C280.1 104.782 279.796 104.081 279.307 103.509L269.466 92.1006C268.931 91.4735 268.193 91.0492 267.391 90.8924L223.471 82.2136C223.232 82.1675 222.992 82.1399 222.752 82.1399C221.774 82.1399 220.834 82.5272 220.133 83.2282L219.422 83.9476C218.943 82.7117 217.827 81.8171 216.49 81.6326C216.324 81.6049 216.148 81.5957 215.982 81.5957V81.6049Z" fill="black"/>
  <path d="M207.34 101.628L215.973 85.2942L212.45 97.1365C247.82 93.7885 275.277 115.877 275.277 115.877L276.503 105.917L278.246 122.297C244.979 93.2536 207.34 101.628 207.34 101.628Z" fill="#607527"/>
  <path d="M79.1048 109.246C78.7267 109.246 78.3578 109.135 78.035 108.905C77.417 108.462 77.1311 107.697 77.3156 106.959L81.2815 90.9755C81.3737 90.6158 81.5674 90.2838 81.8533 90.0347L93.1606 80.0832C93.4742 79.8157 93.8616 79.6497 94.2766 79.622L138.971 77.0488C138.971 77.0488 139.045 77.0488 139.082 77.0488C139.663 77.0488 140.207 77.3163 140.557 77.7867L143.177 81.2729L144.136 78.6536C144.403 77.925 145.095 77.4454 145.87 77.4454C146.644 77.4454 147.336 77.9342 147.604 78.6628L153.921 96.0204C154.17 96.6937 153.995 97.45 153.488 97.9572C153.137 98.3077 152.667 98.4922 152.187 98.4922C151.975 98.4922 151.754 98.4553 151.542 98.3815C151.44 98.3446 141.627 94.7753 127.313 94.7753C110.361 94.7753 94.4887 99.5436 80.1286 108.96C79.8242 109.163 79.4645 109.265 79.1141 109.265L79.1048 109.246Z" fill="#72912F"/>
  <path d="M139.072 78.8842L143.73 85.1005L145.851 79.2808L152.169 96.6384C152.169 96.6384 142.162 92.9123 127.295 92.9123C113.912 92.9123 96.6006 95.9282 79.0954 107.392L83.0613 91.409L94.3686 81.4574L139.063 78.8842M139.063 75.1951C138.989 75.1951 138.925 75.1951 138.851 75.1951L94.1565 77.7683C93.3357 77.8144 92.5517 78.1372 91.9338 78.6813L80.6265 88.6329C80.0639 89.1309 79.6673 89.7858 79.4828 90.5144L75.5169 106.498C75.148 107.973 75.7291 109.514 76.9649 110.399C77.6013 110.851 78.3484 111.082 79.0954 111.082C79.7964 111.082 80.5066 110.879 81.1153 110.482C95.171 101.268 110.702 96.6015 127.285 96.6015C141.323 96.6015 150.776 100.06 150.868 100.097C151.283 100.254 151.726 100.328 152.15 100.328C153.11 100.328 154.05 99.9587 154.751 99.2577C155.775 98.2432 156.107 96.7306 155.618 95.3749L149.3 78.0173C148.775 76.5601 147.382 75.5917 145.833 75.5917C144.477 75.5917 143.25 76.3295 142.614 77.4824L142.005 76.6707C141.304 75.7392 140.207 75.1951 139.054 75.1951H139.063Z" fill="black"/>
  <path d="M152.169 96.6383L145.851 79.2808L147.724 91.4919C113.147 83.3296 82.9233 101.453 82.9233 101.453L83.0708 91.4181L79.105 107.402C116.043 83.1913 152.178 96.6383 152.178 96.6383H152.169Z" fill="#607527"/>
  <path d="M226.137 28.4531L215.485 47.4247L212.183 31.7365L226.137 28.4531Z" fill="#72912F"/>
  <path d="M154.484 27.4203L146.949 41.5867L142.974 21.4346L154.484 27.4203Z" fill="#72912F"/>
  <path d="M117.094 257.394C105.169 257.394 91.2609 253.41 76.8731 245.866C65.0124 239.649 57.4772 231.054 54.4706 220.318C48.9645 200.646 60.5854 181.028 61.0834 180.198C61.4062 179.663 61.978 179.331 62.6052 179.304C62.6236 179.304 62.6421 179.304 62.6698 179.304C63.2693 179.304 63.8319 179.599 64.1823 180.088C79.2618 201.66 98.6023 205.967 114.143 209.426C128.78 212.682 141.424 215.495 144.44 231.376C145.704 238.035 144.376 243.966 140.613 248.513C135.881 254.231 127.535 257.376 117.113 257.376L117.094 257.394Z" fill="#72912F"/>
  <path d="M62.6605 181.148C92.2292 223.463 136.776 200.895 142.614 231.727C145.344 246.133 134.95 255.541 117.094 255.541C106.285 255.541 92.7457 252.091 77.7308 244.224C37.3989 223.085 62.6605 181.148 62.6605 181.148ZM62.6605 177.459C62.6605 177.459 62.5775 177.459 62.5314 177.459C61.2863 177.505 60.1426 178.169 59.497 179.239C58.9805 180.097 46.9723 200.378 52.6905 220.807C55.8355 232.05 63.6842 241.024 76.0153 247.489C90.6706 255.172 104.874 259.23 117.094 259.23C128.079 259.23 136.933 255.845 142.024 249.703C146.156 244.713 147.613 238.266 146.248 231.045C143.011 213.973 129.186 210.892 114.54 207.637C98.5193 204.067 80.3501 200.028 65.6856 179.036C64.9939 178.05 63.8595 177.459 62.6605 177.459Z" fill="black"/>
  <path d="M222.697 266.774C208.06 266.774 196.578 262.31 191.182 254.517C187.438 249.103 186.848 242.545 189.476 235.564C195.176 220.447 208.116 219.848 223.103 219.165C239.013 218.437 258.805 217.533 277.38 198.875C277.73 198.524 278.201 198.331 278.69 198.331C278.819 198.331 278.939 198.34 279.068 198.367C279.676 198.497 280.184 198.921 280.405 199.511C280.756 200.406 288.816 221.738 279.999 240.166C275.185 250.219 266.285 257.385 253.529 261.471C242.517 264.994 232.141 266.774 222.697 266.774Z" fill="#72912F"/>
  <path d="M278.69 200.175C278.69 200.175 296.343 245.838 252.967 259.709C241.669 263.325 231.45 264.929 222.688 264.929C198.229 264.929 185.086 252.423 191.201 236.218C202.278 206.853 242.259 236.763 278.681 200.175M278.681 196.486C277.712 196.486 276.762 196.873 276.071 197.574C258.003 215.716 239.419 216.574 223.02 217.321C208.033 218.003 193.885 218.658 187.752 234.909C184.939 242.37 185.612 249.702 189.661 255.559C195.397 263.86 207.433 268.609 222.688 268.609C232.335 268.609 242.896 266.792 254.083 263.214C267.346 258.971 276.624 251.482 281.66 240.95C290.818 221.812 282.48 199.76 282.121 198.829C281.669 197.667 280.664 196.809 279.437 196.551C279.188 196.495 278.93 196.468 278.681 196.468V196.486Z" fill="black"/>
  <path d="M184.118 230.62L197.242 232.317L198.856 221.591" fill="#72912F"/>
  <path d="M184.118 230.62L197.242 232.317L198.856 221.591" stroke="black" stroke-width="4" stroke-linecap="round" stroke-linejoin="round"/>
  <path d="M197.242 232.317L186.58 218.354L184.118 230.62L197.242 232.317Z" fill="#607527"/>
  <path d="M184.118 230.62L197.242 232.317L198.856 221.591" stroke="black" stroke-width="4" stroke-linecap="round" stroke-linejoin="round"/>
  <path d="M149.956 226.248L136.73 225.972V215.125" fill="#72912F"/>
  <path d="M149.956 226.248L136.73 225.972V215.125" stroke="black" stroke-width="4" stroke-linecap="round" stroke-linejoin="round"/>
  <path d="M136.73 225.972L149.347 213.751L149.956 226.248L136.73 225.972Z" fill="#607527"/>
  <path d="M149.956 226.248L136.73 225.972V215.125" stroke="black" stroke-width="4" stroke-linecap="round" stroke-linejoin="round"/>
  <path d="M90.4032 161.263C90.4032 161.263 80.9958 139.682 99.8567 137.883" stroke="#607527" stroke-width="4" stroke-linecap="round" stroke-linejoin="round"/>
  <path d="M95.4849 173.53C95.4849 173.53 102.882 200.24 168.752 205.497C221.913 209.739 246.059 189.227 246.059 189.227" stroke="#607527" stroke-width="4" stroke-linecap="round" stroke-linejoin="round"/>
  <path d="M254.332 157.316C254.332 157.316 266.358 160.129 254.332 177.607" stroke="#607527" stroke-width="4" stroke-linecap="round" stroke-linejoin="round"/>
  <path d="M182.817 197.353C161.577 197.353 141.609 193.913 129.416 188.139C116.015 181.803 106.027 174.987 100.807 162.306C100.576 161.752 100.631 161.116 100.963 160.609C101.295 160.101 101.84 159.788 102.439 159.76C102.522 159.76 110.869 159.41 123.486 159.41C155.351 159.41 213.29 161.559 243.301 175.937C243.836 176.195 244.214 176.693 244.316 177.275C244.417 177.856 244.242 178.455 243.827 178.879C234.124 188.942 220.078 193.073 212.561 194.632C204.057 196.403 193.774 197.334 182.817 197.334V197.353Z" fill="white"/>
  <path d="M123.477 161.264C154.641 161.264 212.699 163.33 242.489 177.616C234.429 185.981 222.614 190.676 212.183 192.843C203.652 194.623 193.386 195.508 182.817 195.508C163.412 195.508 142.955 192.511 130.2 186.479C115.609 179.58 107.17 172.94 102.504 161.614C102.504 161.614 110.74 161.273 123.467 161.273M123.467 157.584C110.804 157.584 102.43 157.925 102.347 157.934C101.148 157.98 100.041 158.617 99.3954 159.631C98.7498 160.646 98.6299 161.909 99.091 163.025C104.533 176.251 114.835 183.307 128.614 189.827C141.046 195.702 161.3 199.216 182.808 199.216C193.884 199.216 204.306 198.266 212.93 196.468C220.649 194.863 235.102 190.611 245.146 180.189C245.966 179.341 246.326 178.142 246.123 176.97C245.92 175.799 245.155 174.812 244.085 174.296C213.741 159.751 155.499 157.584 123.477 157.584H123.467Z" fill="black"/>
  <path d="M235.978 183.104C238.32 181.48 240.525 179.654 242.489 177.616C200.525 157.51 102.503 161.614 102.503 161.614C103.592 164.252 104.883 166.622 106.405 168.808C106.884 168.799 186.515 166.982 235.969 183.104H235.978Z" fill="#DDDDDD"/>
  <path d="M242.499 179.451C242.25 179.451 242.001 179.396 241.761 179.294C209.646 165.174 154.069 163.062 123.799 163.062C111.164 163.062 102.946 163.431 102.605 163.449C102.577 163.449 102.55 163.449 102.522 163.449C101.775 163.449 101.102 162.997 100.816 162.306C99.1833 158.331 97.9751 153.784 97.1358 148.407C96.9974 147.54 97.4955 146.701 98.3071 146.396C98.9158 146.166 113.599 140.798 146.543 140.798C156.227 140.798 166.621 141.277 177.421 142.209C227.899 148.481 250.513 162.343 251.454 162.924C252.173 163.376 252.487 164.252 252.229 165.054C250.578 170.154 247.756 174.812 243.827 178.879C243.467 179.248 242.987 179.442 242.499 179.442V179.451Z" fill="white"/>
  <path d="M146.534 142.643C155.416 142.643 165.635 143.039 177.256 144.054C227.844 150.344 250.467 164.492 250.467 164.492C248.807 169.629 246.004 173.964 242.49 177.607C210.062 163.348 154.208 161.218 123.781 161.218C110.86 161.218 102.522 161.605 102.504 161.605C100.908 157.731 99.7461 153.304 98.9437 148.13C98.9437 148.13 113.544 142.652 146.534 142.652M146.534 138.963C113.258 138.963 98.2705 144.45 97.6525 144.681C96.0108 145.299 95.0332 146.977 95.3007 148.702C96.1584 154.227 97.4035 158.903 99.0913 163.016C99.6631 164.4 101.01 165.303 102.504 165.303C102.559 165.303 102.614 165.303 102.67 165.303C102.753 165.303 111.09 164.925 123.772 164.925C153.903 164.925 209.195 167.01 240.995 181.001C241.475 181.213 241.982 181.314 242.48 181.314C243.458 181.314 244.426 180.927 245.137 180.189C249.259 175.91 252.229 171.022 253.963 165.645C254.479 164.04 253.843 162.278 252.404 161.384C251.454 160.784 228.498 146.728 177.689 140.411C177.643 140.411 177.597 140.401 177.551 140.392C166.695 139.451 156.255 138.972 146.516 138.972L146.534 138.963Z" fill="black"/>
  <path d="M120.867 133.853C120.867 133.853 192.16 124.52 230.989 145.732" stroke="#72912F" stroke-width="4" stroke-linecap="round" stroke-linejoin="round"/>
  <path d="M99.5987 151.764C99.5987 151.764 180.143 135.264 249.158 167.867C249.647 166.779 250.089 165.663 250.468 164.501C250.468 164.501 227.835 150.353 177.256 144.063C122.472 139.304 98.9531 148.139 98.9531 148.139C99.1468 149.394 99.3682 150.602 99.608 151.773L99.5987 151.764Z" fill="#DDDDDD"/>
  <path d="M169.176 191.921C135.761 189.476 109.568 172.645 109.384 172.525C114.281 177.892 121.023 182.126 130.2 186.47C149.909 195.785 187.991 197.869 212.183 192.834C216.969 191.838 222.051 190.297 226.93 188.13C226.266 188.296 202.24 194.337 169.176 191.921Z" fill="#DDDDDD"/>
  <path d="M103.555 124.824C90.3111 124.824 88.6602 121.116 88.5679 119.521C88.531 118.921 88.7893 118.34 89.2689 117.962C98.5195 110.648 110.316 106.94 124.316 106.94C136.195 106.94 145.132 109.67 145.51 109.79C146.101 109.975 146.562 110.436 146.737 111.035C146.848 111.395 147.106 112.714 145.999 114.402C143.242 118.626 134.185 121.743 119.087 123.662C113.083 124.427 107.862 124.814 103.564 124.814L103.555 124.824Z" fill="white"/>
  <path d="M124.307 108.785C136.038 108.785 144.957 111.552 144.957 111.552C144.957 111.552 146.921 118.257 118.847 121.836C112.4 122.656 107.41 122.979 103.555 122.979C90.6246 122.979 90.4032 119.41 90.4032 119.41C101.037 111.008 113.802 108.785 124.307 108.785ZM124.307 105.096C109.882 105.096 97.7078 108.942 88.1159 116.514C87.166 117.261 86.6495 118.423 86.7233 119.631C86.8801 122.26 89.278 126.659 103.555 126.659C107.927 126.659 113.23 126.263 119.308 125.488C135.19 123.459 144.413 120.166 147.53 115.407C149.07 113.055 148.655 111.063 148.499 110.51C148.148 109.32 147.235 108.388 146.054 108.02C145.667 107.9 136.463 105.087 124.316 105.087L124.307 105.096Z" fill="black"/>
  <path d="M256.074 138.658C250.817 138.658 243.577 136.998 234.557 133.715C220.335 128.541 212.072 123.459 209.997 118.589C209.185 116.68 209.609 115.416 209.766 115.075C210.006 114.522 210.504 114.125 211.103 114.005C214.055 113.424 217.107 113.138 220.16 113.138C244.85 113.138 264.043 131.704 264.845 132.497C265.297 132.94 265.491 133.595 265.353 134.213C265.251 134.665 264.126 138.649 256.084 138.649L256.074 138.658Z" fill="white"/>
  <path d="M220.151 114.992C244.371 114.992 263.545 133.825 263.545 133.825C263.545 133.825 262.872 136.823 256.075 136.823C251.878 136.823 245.339 135.679 235.185 131.99C208.586 122.315 211.445 115.841 211.445 115.841C214.396 115.26 217.311 115.001 220.142 115.001M220.142 111.312C216.97 111.312 213.806 111.617 210.735 112.216C209.554 112.447 208.558 113.24 208.069 114.347C207.784 115.001 207.221 116.809 208.291 119.327C210.569 124.676 219.192 130.109 233.921 135.458C243.144 138.815 250.596 140.512 256.066 140.512C265.353 140.512 266.912 135.615 267.133 134.637C267.41 133.392 267.032 132.092 266.119 131.197C265.289 130.385 245.579 111.312 220.142 111.312Z" fill="black"/>
  <path d="M125.091 119.935C129.176 119.935 132.487 116.624 132.487 112.539C132.487 108.454 129.176 105.142 125.091 105.142C121.006 105.142 117.694 108.454 117.694 112.539C117.694 116.624 121.006 119.935 125.091 119.935Z" fill="black"/>
  <path d="M229.955 127.434C234.096 127.434 237.454 124.077 237.454 119.936C237.454 115.795 234.096 112.438 229.955 112.438C225.814 112.438 222.457 115.795 222.457 119.936C222.457 124.077 225.814 127.434 229.955 127.434Z" fill="black"/>
  <path d="M107.733 122.979C107.733 122.979 102.614 134.49 96.8869 132.46C91.1595 130.431 94.4521 124.935 94.4521 124.935C94.4521 124.935 85.4321 132.23 80.1934 124.87C74.964 117.51 93.4191 116.569 93.4191 116.569C93.4191 116.569 106.497 116.569 107.724 122.979H107.733Z" fill="#00B6E0" stroke="black" stroke-width="4" stroke-linecap="round" stroke-linejoin="round"/>
  <path d="M244.832 134.84C244.832 134.84 249.951 146.35 255.678 144.321C261.406 142.292 256.794 136.823 256.794 136.823C256.794 136.823 266.285 146.636 271.523 139.276C276.753 131.916 257.873 128.891 257.873 128.891C257.873 128.891 247.258 128.319 244.841 134.84H244.832Z" fill="#00B6E0" stroke="black" stroke-width="4" stroke-linecap="round" stroke-linejoin="round"/>
  <path d="M152.169 110.205C152.169 110.205 159.963 125.94 110.749 129.666" stroke="#72912F" stroke-width="4" stroke-linecap="round" stroke-linejoin="round"/>
  <path d="M204.897 113.36C204.897 113.36 197.952 128.375 235.194 139.267" stroke="#72912F" stroke-width="4" stroke-linecap="round" stroke-linejoin="round"/>
  <path d="M129.426 188.103V141.988" stroke="black" stroke-width="4" stroke-linecap="round" stroke-linejoin="round"/>
  <path d="M154.484 195.508L157.104 141.979" stroke="black" stroke-width="4" stroke-linecap="round" stroke-linejoin="round"/>
  <path d="M183.352 197.058L188.618 144.828" stroke="black" stroke-width="4" stroke-linecap="round" stroke-linejoin="round"/>
  <path d="M212.183 194.18L220.954 151.128" stroke="black" stroke-width="4" stroke-linecap="round" stroke-linejoin="round"/>
  <path d="M66.8755 192.806C66.8755 192.806 76.0431 209.684 115.573 215.125" stroke="#607527" stroke-width="4" stroke-linecap="round" stroke-linejoin="round"/>
  <path d="M272.648 210.228C272.648 210.228 255.77 226.949 217.477 224.256" stroke="#607527" stroke-width="4" stroke-linecap="round" stroke-linejoin="round"/>
  <path d="M144.985 102.412C145.049 102.375 111.68 94.6832 86.1514 111.165" stroke="#607527" stroke-width="4" stroke-linecap="round" stroke-linejoin="round"/>
  <path d="M210.486 108.785C210.486 108.785 242.084 103.26 266.1 124.363" stroke="#607527" stroke-width="4" stroke-linecap="round" stroke-linejoin="round"/>
  <path d="M262.946 146.894C262.946 146.894 259.69 157.63 269.3 159.898C278.911 162.167 262.946 146.894 262.946 146.894Z" fill="#00B6E0" stroke="black" stroke-width="4" stroke-linecap="round" stroke-linejoin="round"/>
  <path d="M83.1167 134.794C83.1167 134.794 67.4469 138.999 74.0136 144.828C80.5896 150.648 83.1167 134.794 83.1167 134.794Z" fill="#00B6E0" stroke="black" stroke-width="4" stroke-linecap="round" stroke-linejoin="round"/>
  <path d="M140.797 245.017C62.2177 250.293 55.5219 201.356 55.5219 201.346C53.2622 215.061 55.7801 232.723 77.7307 244.224C108.738 260.475 133.428 257.865 140.797 245.008V245.017Z" fill="#8AB242"/>
  <path d="M281.872 226.949C245.229 270.417 195.794 250.486 190.242 248.061C194.032 263.02 218.418 270.758 252.976 259.709C273.451 253.161 280.322 239.529 281.872 226.958V226.949Z" fill="#8AB242"/>
  <path d="M159.464 103.482C159.464 103.482 162.305 108.601 159.464 116.56" stroke="#72912F" stroke-width="4" stroke-linecap="round" stroke-linejoin="round"/>
  <path d="M199.879 106.387C199.879 106.387 194.539 110.5 196.448 120.581" stroke="#72912F" stroke-width="4" stroke-linecap="round" stroke-linejoin="round"/>
  <path d="M116.993 264.929C116.993 264.929 154.53 296.241 209.259 273.876" stroke="#607527" stroke-width="4" stroke-linecap="round" stroke-linejoin="round"/>
  <path d="M120.212 286.576L127.793 277.224L133.973 280.433L120.212 286.576Z" fill="#607527"/>
  <path d="M195.443 284.916L203.199 281.927L208.346 293.17L195.443 284.916Z" fill="#607527"/>
  <path d="M133.972 207.166C133.972 207.166 164.685 218.658 205.432 212.267" stroke="#607527" stroke-width="4" stroke-linecap="round" stroke-linejoin="round"/>
  <path d="M0 255.319L32.4002 284.086L79.0314 308.978L154.909 322.813L210.228 292.774L309.42 289.066L341.821 232.317L304.016 236.661L288.733 265.64L202.591 267.752L150.085 293.465L98.1598 272.99L63.2694 266.018L40.3043 245.644L0 255.319Z" fill="#496D20"/>
  <path d="M0 255.319V271.441L28.0562 295.54L75.4806 320.046L154.115 332.69L212.995 300.281L309.808 296.73L344.855 241.402L341.821 232.317L309.421 289.066L210.228 292.774L154.909 322.813L79.0314 308.978L32.4002 284.086L0 255.319Z" fill="#324C0B"/>
  <path d="M198.819 269.596L206.981 278.109L210.015 290.173L211.906 276.541L210.015 270.906L212.69 267.503L202.591 267.752L198.819 269.596Z" fill="#324C0B"/>
  <path d="M98.1598 272.99L94.36 281.263L74.2632 290.173L91.879 288.337L108.711 277.15L98.1598 272.99Z" fill="#324C0B"/>
  <path d="M299.976 234.088L296.472 250.975L304.016 236.661L311.791 234.752L321.143 236.929L329.831 232.861L318.681 234.734L310.112 231.616L299.976 234.088Z" fill="#324C0B"/>
  <path d="M72.4092 281.3V295.448L115.563 318.072L199.879 303.315L225.565 274.743L164.177 255.319L90.4031 271.441L72.4092 281.3Z" fill="#496D20"/>
  <path d="M92.1741 342.854L90.5693 305.086L85.4506 300.438L74.7704 310.675L65.0586 311.422L50.6616 297.708L51.8145 256.951L64.3577 244.03L84.187 242.886L92.8381 247.36L98.5564 243.237L108.775 247.129L117.316 259.58V260.216L118.994 251.86L131.519 241.208L148.351 240.581L154.309 244.713L158.635 240.009L165.819 239.705L172.939 244.39L179.442 239.123L188.831 238.727L196.808 245.58L203.689 238.091L237.998 236.633L240.94 239.336L246.834 236.052L264.33 236.403L268.489 237.168L280.516 241.466L289.029 251.307L291.583 263.998L291.842 266.811L291.565 283.292L284.371 294.839L271.736 301.314L265.658 302.762L253.151 302.688L253.234 336.481L240.47 349.836L229.144 350.315L222.669 344.366L216.167 350.859L204.38 351.357L203.882 350.869L203.587 351.394L190.491 351.948L186.386 348.821L182.771 352.271L171.113 352.769L171.076 352.732L171.049 352.769L158.266 353.313L150.482 348.95L143.094 353.958L133.078 354.383L131.86 352.962L106.848 355.535L92.1372 342.817L92.1741 342.854ZM201.346 287.369L202.13 286.576L202.112 273.497L200.866 272.28L199.612 275.471L195.222 279.253L198.395 285.911L197.998 286.603L201.355 287.369H201.346Z" fill="#324C0B"/>
  <path d="M247.424 238.395L264.108 238.727L267.899 239.419L279.179 243.449L286.898 252.377L289.305 264.348L289.536 266.912L289.269 282.628L282.748 293.096L270.933 299.156L265.39 300.475L250.837 300.392L250.92 335.577L239.437 347.585L229.993 347.991L222.596 341.203L215.162 348.628L205.275 349.052L203.338 347.143L202.195 349.181L191.21 349.651L186.202 345.842L181.794 350.057L171.99 350.472L170.708 349.236L169.795 350.564L158.81 351.035L150.353 346.294L142.329 351.736L134.093 352.086L132.562 350.297L132.248 350.657L107.604 353.193L94.397 341.775L92.7923 304.044L84.8513 296.822L84.7222 297.929L73.7377 308.462L65.8705 309.07L52.9584 296.776L54.0559 257.948L65.354 246.317L83.6523 245.266L92.9952 250.099L98.8517 245.875L107.235 249.066L114.964 260.327L114.9 274.143L116.818 274.171L121.061 253.133L132.368 243.523L147.641 242.96L154.614 247.793L159.649 242.315L165.137 242.084L173.041 247.286L180.263 241.438L187.982 241.106L196.965 248.826L204.703 240.396L237.104 239.022L240.571 242.204L247.378 238.413M201.955 289.997L204.381 287.535L204.362 272.547L199.944 268.213L197.62 274.115L192.326 278.671L195.73 285.829L194.383 288.171L201.863 289.887L201.955 289.997ZM246.225 233.783L245.137 234.392L241.245 236.56L240.23 235.628L238.819 234.337L236.91 234.42L204.51 235.794L202.601 235.877L201.309 237.288L196.587 242.435L190.989 237.62L189.605 236.43L187.789 236.504L180.078 236.836L178.556 236.901L177.376 237.86L172.774 241.586L167.683 238.238L166.437 237.417L164.953 237.482L159.465 237.712L157.556 237.795L156.265 239.207L153.95 241.724L150.279 239.179L149.015 238.303L147.484 238.358L132.211 238.921L130.616 238.976L129.398 240.009L118.091 249.619L116.873 250.652L116.56 252.22L116.209 253.945L111.063 246.447L110.251 245.257L108.905 244.74L100.521 241.549L98.1969 240.664L96.1771 242.121L92.617 244.694L85.792 241.162L84.6668 240.581L83.4033 240.655L65.105 241.706L63.3157 241.807L62.0614 243.099L50.7633 254.729L49.509 256.02L49.4536 257.818L48.3561 296.647L48.3008 298.704L49.7857 300.124L62.6978 312.418L64.1827 313.839L66.2302 313.682L74.0973 313.073L75.739 312.944L76.9288 311.8L85.46 303.62L88.273 306.174L89.7948 341.987L89.8778 343.979L91.3811 345.28L104.588 356.698L106.092 357.998L108.075 357.795L130.892 355.452L132.054 356.808L134.295 356.716L142.532 356.366L143.841 356.31L144.93 355.572L150.592 351.736L156.56 355.084L157.703 355.72L159.013 355.665L169.998 355.194L172.294 355.093L181.997 354.678L183.73 354.604L184.985 353.405L186.553 351.911L188.425 353.34L189.753 354.346L191.413 354.272L202.398 353.802L204.049 353.728L205.469 353.663L215.356 353.239L217.145 353.165L218.418 351.902L222.725 347.604L226.866 351.413L228.277 352.704L230.186 352.621L239.631 352.215L241.485 352.132L242.767 350.795L254.249 338.787L255.531 337.449V335.595L255.448 305.058L265.344 305.114H265.898L266.442 304.985L271.985 303.666L272.529 303.537L273.027 303.288L284.842 297.228L285.976 296.647L286.649 295.568L293.17 285.1L293.843 284.021L293.862 282.748L294.129 267.032V266.783L294.111 266.534L293.88 263.97L293.862 263.721L293.816 263.481L291.408 251.51L291.169 250.32L290.375 249.398L282.656 240.47L281.863 239.548L280.719 239.142L269.439 235.112L269.089 234.982L268.72 234.918L264.929 234.226L264.56 234.162H264.191L247.507 233.82L246.262 233.793L246.225 233.783ZM198.008 279.87L199.769 278.358V283.578L198.008 279.87Z" fill="#496D20"/>
  <path d="M66.0823 258.27L84.3807 257.219L91.2518 268.204L90.394 283.034L74.2815 284.436L72.8428 296.49L64.9756 297.099L66.0731 258.27H66.0823ZM75.0747 264.625L74.2815 276.458L82.6836 274.835L83.2831 268.259L75.0655 264.616L75.0747 264.625Z" fill="white"/>
  <path d="M94.6367 257.053L103.02 260.244L102.9 285.912L120.627 286.207L122.896 294.36L96.2691 295.762L94.6274 257.044L94.6367 257.053Z" fill="white"/>
  <path d="M160.738 292.755L149.753 293.225L143.795 282.471L138.308 282.702L133.281 293.917L125.045 294.267L132.857 255.485L148.13 254.922L160.738 292.755ZM146.258 275.656L139.073 260.668L135.273 276.126L146.258 275.656Z" fill="white"/>
  <path d="M160.203 254.268L165.691 254.037L171.879 270.279L176.518 270.085L180.816 253.401L188.536 253.069L189.836 265.003L177.607 275.536L184.948 290.956L167.323 292.478L170.662 275.831L160.664 265.252L160.194 254.268H160.203Z" fill="white"/>
  <path d="M232.621 289.702L216.417 290.394L216.38 261.729L205.644 261.471L205.257 252.358L237.657 250.984L238.054 260.262L227.42 262.421L232.621 289.702Z" fill="white"/>
  <path d="M247.184 250.385L263.869 250.717L275.148 254.747L277.555 266.719L277.288 282.434L265.473 288.494L247.839 288.393L241.023 275.646L240.433 261.784L247.184 250.385ZM254.895 257.699L248.669 267.18L252.949 279.926L263.352 280.774L269.642 274.042L268.148 260.327L254.885 257.699H254.895Z" fill="white"/>
  <path d="M106.415 341.249L104.782 302.808L129.38 299.008L129.73 307.244L112.05 310.749L111.847 316.255L130.081 315.48L130.385 322.563L113.959 324.417L114.273 331.888L130.726 330.753L131.068 338.713L106.424 341.249H106.415Z" fill="white"/>
  <path d="M169.315 338.575L158.33 339.045L152.372 328.291L146.875 328.522L141.849 339.737L133.613 340.087L141.425 301.305L156.698 300.742L169.306 338.575H169.315ZM154.835 321.475L147.65 306.488L143.85 321.946L154.835 321.475Z" fill="white"/>
  <path d="M201.715 337.2L190.73 337.671L187.355 323.043L182.633 323.163L181.314 338.077L171.51 338.492L171.731 300.936L189.098 299.239L199.234 301.563L198.828 315.333L192.778 321.097L201.715 337.219V337.2ZM178.704 316.808L187.973 315.536L193.46 307.438L183.85 304.514L178.169 305.529L178.704 316.808Z" fill="white"/>
  <path d="M238.948 335.623L229.504 336.029L229.274 330.541L215.771 311.856L214.683 336.656L204.796 337.08L205.912 298.529L216.896 298.058L229.043 325.044L231.496 297.431L238.856 297.117L238.948 335.623Z" fill="white"/>
</svg>
