<svg width="300" height="356" viewBox="0 0 300 356" fill="none" xmlns="http://www.w3.org/2000/svg">
  <path d="M8.13867 86.9711L55.6729 290.689H255.212L299.612 86.9711L271.927 22.1992H34.2564L8.13867 86.9711Z" fill="#324C0B"/>
  <path d="M96.9527 314.02C92.8362 314.02 89.5009 312.419 87.0248 309.255C76.183 295.406 85.9937 255.031 86.4155 253.32C86.5249 252.875 86.8295 252.5 87.2435 252.289C87.4622 252.18 87.6965 252.125 87.9309 252.125C88.1418 252.125 88.3605 252.172 88.5636 252.258L135.266 272.809C135.953 273.113 136.328 273.863 136.156 274.597C135.828 276.011 127.752 309.24 99.8271 313.77C98.8351 313.934 97.8666 314.012 96.9527 314.012V314.02Z" fill="#B2282F"/>
  <path d="M87.9229 253.695L134.625 274.246C134.625 274.246 126.783 307.818 99.5692 312.239C98.6475 312.387 97.7727 312.457 96.9447 312.457C73.3943 312.457 87.9229 253.695 87.9229 253.695ZM87.9229 250.57C87.4464 250.57 86.9778 250.68 86.5403 250.891C85.7124 251.297 85.1109 252.047 84.8844 252.945C84.775 253.374 82.2755 263.591 81.0335 275.644C79.3151 292.367 80.9086 303.998 85.7827 310.216C88.5322 313.723 92.3908 315.582 96.9447 315.582C97.9445 315.582 98.999 315.496 100.069 315.316C112.129 313.356 122.471 305.701 129.978 293.188C135.531 283.931 137.578 275.316 137.664 274.956C138.008 273.496 137.258 271.988 135.883 271.387L89.1805 250.836C88.7821 250.656 88.3525 250.57 87.9229 250.57Z" fill="black"/>
  <path d="M134.626 274.246L87.9231 253.695C87.9231 253.695 85.4314 263.803 84.1738 275.699C84.1738 275.699 96.5778 286.681 112.059 292.727L113.426 304.334L119.199 302.022C128.681 290.954 134.626 274.246 134.626 274.246Z" fill="#821E28"/>
  <path d="M223.281 314.02C222.367 314.02 221.399 313.942 220.407 313.778C192.482 309.24 184.413 276.011 184.085 274.605C183.914 273.871 184.288 273.121 184.976 272.817L231.678 252.266C231.881 252.18 232.092 252.133 232.311 252.133C232.545 252.133 232.78 252.187 232.998 252.297C233.412 252.5 233.717 252.875 233.826 253.328C234.248 255.039 244.059 295.414 233.217 309.263C230.741 312.426 227.398 314.028 223.289 314.028L223.281 314.02Z" fill="#B2282F"/>
  <path d="M232.31 253.695C232.31 253.695 246.831 312.457 223.288 312.457C222.46 312.457 221.586 312.387 220.664 312.239C193.458 307.818 185.608 274.246 185.608 274.246L232.31 253.695ZM232.31 250.57C231.881 250.57 231.451 250.656 231.053 250.836L184.35 271.387C182.975 271.996 182.226 273.496 182.569 274.956C182.655 275.316 184.702 283.931 190.255 293.188C197.762 305.709 208.104 313.356 220.164 315.316C221.234 315.488 222.289 315.582 223.288 315.582C227.842 315.582 231.701 313.723 234.45 310.216C239.325 303.998 240.918 292.36 239.2 275.644C237.958 263.591 235.458 253.374 235.349 252.945C235.13 252.047 234.521 251.297 233.693 250.891C233.255 250.68 232.787 250.57 232.31 250.57Z" fill="black"/>
  <path d="M185.601 274.246L232.303 253.695C232.303 253.695 233.607 258.976 234.803 266.373C234.803 266.373 229.116 275.082 212.728 283.081L209.042 298.734L194.786 294.727C185.304 283.659 185.608 274.246 185.608 274.246H185.601Z" fill="#821E28"/>
  <path d="M42.6025 240.767C36.9394 240.767 32.4481 237.19 29.2689 230.137C16.6228 202.134 45.9378 167.148 47.1954 165.68C47.4922 165.328 47.9296 165.133 48.3826 165.133C48.4608 165.133 48.5311 165.133 48.6092 165.148C49.1403 165.227 49.5934 165.57 49.8121 166.062L72.1517 216.928C72.3705 217.428 72.3158 218.006 72.0033 218.451C71.3628 219.365 56.1781 240.767 42.6103 240.767H42.6025Z" fill="#B2282F"/>
  <path d="M48.3828 166.687L70.7147 217.553C70.7147 217.553 55.5065 239.205 42.6026 239.205C38.1034 239.205 33.8854 236.58 30.6907 229.496C18.3102 202.071 48.3828 166.687 48.3828 166.687ZM48.3828 163.562C47.4767 163.562 46.6019 163.961 46.0004 164.664C45.6802 165.039 38.1581 173.951 32.0811 186.441C23.8482 203.36 22.3797 218.693 27.8397 230.777C32.1514 240.322 38.244 242.329 42.6026 242.329C48.8124 242.329 55.9127 238.377 63.7081 230.589C69.254 225.051 73.1127 219.576 73.2689 219.349C73.8938 218.459 74.0109 217.295 73.5735 216.295L51.2416 165.429C50.812 164.445 49.8981 163.75 48.8358 163.594C48.6874 163.57 48.5312 163.562 48.3828 163.562Z" fill="black"/>
  <path d="M48.3827 166.688C48.3827 166.688 40.1655 178.513 35.6819 185.832L31.9248 205.071L49.2107 211.562L51.2807 222.834L45.3599 233.988L50.4839 236.948C60.4977 232.254 70.7224 217.553 70.7224 217.553L48.3906 166.688H48.3827Z" fill="#821E28"/>
  <path d="M277.396 230.067C264.39 230.067 247.745 214.296 247.042 213.624C246.643 213.249 246.479 212.687 246.597 212.156L258.618 157.924C258.735 157.4 259.11 156.971 259.618 156.791C259.79 156.729 259.961 156.697 260.141 156.697C260.493 156.697 260.828 156.814 261.11 157.033C262.625 158.236 298.181 186.856 291.221 216.78C288.667 227.762 282.293 230.067 277.388 230.067H277.396Z" fill="#B2282F"/>
  <path d="M260.149 158.259C260.149 158.259 296.533 187.121 289.714 216.428C287.628 225.395 282.926 228.504 277.403 228.504C264.874 228.504 248.127 212.491 248.127 212.491L260.149 158.259ZM260.149 155.135C259.797 155.135 259.446 155.197 259.102 155.314C258.087 155.674 257.329 156.533 257.095 157.58L245.073 211.812C244.839 212.882 245.175 213.991 245.964 214.749C246.682 215.436 263.773 231.629 277.396 231.629C282.863 231.629 289.964 229.113 292.752 217.131C295.759 204.212 291.338 189.457 279.973 174.459C271.584 163.391 262.469 156.111 262.086 155.807C261.523 155.361 260.836 155.127 260.141 155.127L260.149 155.135Z" fill="black"/>
  <path d="M260.15 158.26C260.15 158.26 261.712 158.689 267.539 165.001L274.772 182.271L262.517 194.761L260.627 206.563L271.976 212.851L264.165 224.318C255.526 219.577 248.129 212.508 248.129 212.508L260.15 158.275V158.26Z" fill="#821E28"/>
  <path d="M121.199 298.078C120.988 298.078 120.785 298.039 120.589 297.953C120.105 297.75 119.761 297.313 119.668 296.797L117.473 284.854C105.592 279.581 94.6879 271.934 85.0413 262.116L69.5831 263.498C69.5363 263.498 69.4894 263.498 69.4425 263.498C69.0286 263.498 68.6302 263.334 68.3412 263.038C68.0131 262.71 67.8491 262.257 67.8881 261.796L69.5519 243.174L52.5941 233.363C52.0785 233.067 51.7817 232.504 51.8208 231.91C51.8598 231.317 52.2269 230.801 52.7815 230.567L61.0378 227.122C58.2493 221.1 55.8747 214.773 53.961 208.274L40.151 200.854C39.5417 200.526 39.2215 199.846 39.3621 199.166L42.8849 181.592L29.5826 148.23C29.3327 147.613 29.5123 146.903 30.0122 146.473L44.4627 133.999L37.2062 107.308C37.0578 106.769 37.2062 106.191 37.6124 105.793C37.9092 105.496 38.3076 105.332 38.7138 105.332C38.8544 105.332 38.9872 105.348 39.12 105.387L49.0088 108.074L46.6967 82.2191C46.642 81.5864 46.9779 80.9771 47.5403 80.6881C47.7668 80.5709 48.009 80.5163 48.2511 80.5163C48.6182 80.5163 48.9853 80.6491 49.2743 80.899L59.171 89.5068L65.6542 64.3161C65.8182 63.6834 66.3572 63.2225 67.0055 63.1522C67.0602 63.1522 67.1148 63.1444 67.1695 63.1444C67.7554 63.1444 68.3021 63.4803 68.5677 64.0115L73.0278 73.0254L112.208 42.1561C112.489 41.9374 112.833 41.8202 113.177 41.8202C113.388 41.8202 113.599 41.8593 113.794 41.9452C114.317 42.1717 114.676 42.6716 114.731 43.2418L115.262 49.2173L138.352 30.8925C138.633 30.666 138.977 30.5566 139.32 30.5566C139.57 30.5566 139.828 30.6191 140.062 30.7441L166.034 44.6791L165.503 38.7036C165.448 38.1334 165.722 37.5788 166.198 37.2585C166.456 37.0867 166.761 37.0008 167.065 37.0008C167.315 37.0008 167.565 37.0633 167.8 37.1804L211.831 60.6058L214.619 50.9435C214.799 50.3187 215.353 49.8656 216.002 49.8187C216.041 49.8187 216.08 49.8187 216.119 49.8187C216.728 49.8187 217.283 50.1702 217.541 50.7326L228.39 74.3768L236.607 64.1443C236.912 63.7693 237.357 63.5584 237.826 63.5584C237.974 63.5584 238.131 63.5819 238.279 63.6287C238.888 63.8162 239.326 64.3473 239.38 64.9879L241.692 90.8425L250.948 86.4449C251.159 86.3433 251.394 86.2965 251.62 86.2965C251.933 86.2965 252.245 86.3902 252.511 86.5777C252.972 86.8979 253.222 87.4369 253.175 87.9993L250.769 115.557L267.203 125.274C267.774 125.61 268.07 126.281 267.938 126.93L260.759 162.15L265.415 175.093C265.61 175.64 265.493 176.241 265.102 176.671L254.823 188.012C254.135 195.589 252.831 203.072 250.933 210.305L259.189 212.125C259.767 212.25 260.228 212.695 260.369 213.273C260.509 213.851 260.314 214.461 259.861 214.843L245.215 227.255C245.145 227.435 245.067 227.607 244.989 227.786L249.855 245.541C249.98 245.986 249.894 246.463 249.628 246.845C249.363 247.228 248.949 247.47 248.488 247.509L233.553 248.845C225.664 260.421 216.111 269.997 205.144 277.332L205.105 289.166C205.105 289.689 204.84 290.181 204.402 290.47C204.145 290.642 203.848 290.728 203.543 290.728C203.332 290.728 203.121 290.689 202.926 290.603L190.6 285.315C181.664 289.228 172.252 291.642 162.613 292.509C159.973 292.743 157.302 292.868 154.654 292.868C147.561 292.868 140.43 292.009 133.462 290.322L122.081 297.836C121.824 298.008 121.519 298.094 121.222 298.094L121.199 298.078Z" fill="#B2282F"/>
  <path d="M139.312 32.142L167.838 47.4517L167.049 38.594L212.783 62.9254L216.11 51.4119L228.015 77.3525L237.81 65.1516L240.317 93.2402L251.596 87.874L249.104 116.408L266.383 126.625L259.118 162.275L263.922 175.631L253.291 187.364C252.573 195.682 251.112 203.759 248.972 211.492L258.821 213.664L243.887 226.317C243.699 226.771 243.504 227.231 243.309 227.684L248.316 245.962L232.639 247.361C224.726 259.132 214.868 269.068 203.55 276.496L203.503 289.165L190.553 283.604C181.773 287.525 172.345 290.056 162.433 290.939C159.816 291.173 157.207 291.29 154.614 291.29C147.287 291.29 140.101 290.368 133.126 288.626L121.175 296.523L118.824 283.76C106.584 278.456 95.3278 270.52 85.603 260.499L69.4107 261.944L71.1603 242.33L53.3433 232.02L63.1071 227.95C59.9671 221.397 57.3269 214.468 55.2414 207.227L40.8534 199.494L44.4699 181.466L30.9958 147.668L46.1883 134.553L38.6741 106.91L50.7266 110.19L48.2192 82.1016L60.0296 92.3732L67.1376 64.7298L72.457 75.47L113.145 43.4134L113.934 52.2711L139.296 32.142M139.312 29.0176C138.617 29.0176 137.937 29.2441 137.367 29.6971L116.543 46.2176L116.269 43.1322C116.168 41.9918 115.449 40.992 114.395 40.5389C113.996 40.3671 113.574 40.2811 113.16 40.2811C112.473 40.2811 111.786 40.5077 111.223 40.9529L73.5583 70.6272L69.9496 63.3394C69.4185 62.2693 68.3249 61.5976 67.1533 61.5976C67.0439 61.5976 66.9345 61.5976 66.8252 61.6132C65.5285 61.746 64.4506 62.6755 64.1226 63.9409L58.2721 86.6867L50.2813 79.7349C49.7033 79.2272 48.9691 78.9694 48.227 78.9694C47.7427 78.9694 47.2584 79.0787 46.8054 79.3131C45.6728 79.8911 45.001 81.1018 45.1104 82.375L47.2194 105.988L39.4942 103.887C39.2208 103.816 38.9475 103.777 38.6741 103.777C37.8539 103.777 37.0572 104.098 36.4635 104.691C35.6746 105.48 35.3622 106.636 35.659 107.722L42.6577 133.459L28.9493 145.293C27.9417 146.16 27.598 147.574 28.0901 148.816L41.2205 181.748L37.7914 198.862C37.518 200.213 38.1664 201.58 39.3771 202.228L52.6168 209.344C54.3587 215.171 56.4677 220.85 58.9126 226.302L52.1482 229.122C51.0546 229.583 50.3126 230.621 50.2345 231.801C50.1564 232.988 50.7578 234.113 51.7889 234.707L67.8875 244.017L66.3175 261.647C66.2315 262.569 66.5674 263.483 67.2236 264.131C67.8094 264.717 68.6061 265.045 69.4341 265.045C69.5278 265.045 69.6216 265.045 69.7153 265.029L84.4392 263.709C93.8906 273.207 104.521 280.667 116.082 285.908L118.128 297.047C118.316 298.078 119.011 298.945 119.98 299.359C120.37 299.523 120.792 299.609 121.206 299.609C121.807 299.609 122.409 299.437 122.924 299.093L133.743 291.946C140.624 293.563 147.646 294.383 154.637 294.383C157.324 294.383 160.05 294.258 162.73 294.024C172.314 293.165 181.679 290.798 190.584 286.978L202.285 292.001C202.683 292.173 203.097 292.251 203.519 292.251C204.12 292.251 204.714 292.079 205.237 291.735C206.112 291.157 206.643 290.181 206.643 289.134L206.682 278.128C217.337 270.872 226.655 261.522 234.404 250.298L248.605 249.024C249.526 248.938 250.362 248.454 250.893 247.696C251.424 246.939 251.588 245.978 251.338 245.088L246.66 228.02L260.844 215.999C261.751 215.234 262.141 214.015 261.86 212.867C261.571 211.711 260.657 210.82 259.501 210.57L252.823 209.102C254.486 202.447 255.658 195.589 256.306 188.653L266.234 177.701C267.007 176.842 267.25 175.631 266.859 174.546L262.352 162.017L269.445 127.226C269.71 125.922 269.116 124.594 267.976 123.914L252.393 114.697L254.705 88.2411C254.721 88.1162 254.728 87.9834 254.728 87.8506C254.728 86.1243 253.33 84.7262 251.604 84.7262C251.604 84.7262 251.604 84.7262 251.596 84.7262C251.596 84.7262 251.596 84.7262 251.588 84.7262C251.588 84.7262 251.588 84.7262 251.581 84.7262C251.088 84.7262 250.628 84.8511 250.214 85.0542L243.043 88.4599L240.934 64.847C240.817 63.5738 239.95 62.5036 238.724 62.1365C238.427 62.0428 238.122 62.0037 237.817 62.0037C236.888 62.0037 235.982 62.4177 235.38 63.1754L228.749 71.4317L218.954 50.084C218.438 48.9671 217.329 48.2641 216.118 48.2641C216.04 48.2641 215.962 48.2641 215.884 48.2719C214.579 48.3656 213.478 49.2639 213.111 50.5215L210.854 58.3325L168.525 35.8132C168.065 35.5711 167.565 35.4461 167.057 35.4461C166.455 35.4461 165.854 35.6179 165.331 35.9694C164.378 36.6021 163.847 37.7113 163.948 38.8517L164.221 41.9371L140.796 29.3691C140.335 29.1191 139.827 28.9941 139.32 28.9941L139.312 29.0176Z" fill="black"/>
  <path d="M46.2037 134.554L48.8829 126.774L38.6895 106.91L46.2037 134.554Z" fill="#821E28"/>
  <path d="M249.103 116.409L242.589 108.496L251.595 87.875L249.103 116.409Z" fill="#821E28"/>
  <path d="M63.1229 227.949L53.3591 232.019L71.1761 242.33L69.4264 261.943L85.6188 260.498C95.3436 270.52 106.607 278.448 118.839 283.76L121.19 296.523L133.141 288.626C142.577 290.993 152.411 291.836 162.441 290.946C172.353 290.063 181.781 287.524 190.561 283.611L203.511 289.173L203.558 276.503C214.876 269.075 224.734 259.139 232.647 247.368L248.324 245.97L243.317 227.692C243.512 227.239 243.707 226.786 243.895 226.325L258.829 213.671L248.98 211.499C251.112 203.766 252.581 195.69 253.299 187.371L263.93 175.639L249.261 183.067C249.261 183.067 249.362 203.376 243.738 214.975L251.128 215.647L241.809 223.138C241.809 223.138 224.242 257.569 199.153 270.028L198.27 277.542L186.546 275.519C186.546 275.519 177.344 280.416 161.644 281.815C145.944 283.221 136.016 280.034 136.016 280.034L124.838 284.103L122.635 276.862C95.742 269.051 72.34 238.283 72.34 238.283L61.8341 232.558L68.9812 230.59C61.3888 220.17 58.1551 203.141 58.1551 203.141L40.8848 199.494L55.2728 207.227C57.3583 214.468 59.9985 221.396 63.1385 227.949H63.1229Z" fill="#821E28"/>
  <path d="M44.4858 181.466L46.4855 169.437L31.0117 147.668L44.4858 181.466Z" fill="#821E28"/>
  <path d="M259.04 162.283L254.939 150.8L266.305 126.633L259.04 162.283Z" fill="#821E28"/>
  <path d="M50.7417 110.19L55.7877 102.965L48.2344 82.1016L50.7417 110.19Z" fill="#821E28"/>
  <path d="M240.308 93.241L234.067 87.0233L237.801 65.1523L240.308 93.241Z" fill="#821E28"/>
  <path d="M72.4649 75.4707L69.3639 80.212L67.1533 64.7305L72.4649 75.4707Z" fill="#821E28"/>
  <path d="M212.775 62.9256L216.673 67.0421L216.103 51.4121L212.775 62.9256Z" fill="#821E28"/>
  <path d="M80.5096 225.264L104.404 216.25L102.498 232.255L79.502 225.358" fill="#821E28"/>
  <path d="M102.498 232.255L80.0801 225.295L85.6806 215.852" stroke="black" stroke-width="4" stroke-linecap="round" stroke-linejoin="round"/>
  <path d="M122.183 262.483L132.743 245.541L136.844 259.156L122.183 262.483Z" fill="#821E28"/>
  <path d="M136.843 259.155L122.182 262.482L119.198 250.523" stroke="black" stroke-width="4" stroke-linecap="round" stroke-linejoin="round"/>
  <path d="M131.852 230.732L141.623 217.531L144.092 228.974L131.852 230.732Z" fill="#821E28"/>
  <path d="M144.092 228.975L131.852 230.733L130.188 220.727" stroke="black" stroke-width="4" stroke-linecap="round" stroke-linejoin="round"/>
  <path d="M180.445 226.389L168.478 215.125L168.08 226.826L180.445 226.389Z" fill="#821E28"/>
  <path d="M168.08 226.826L180.445 226.389L180.304 216.242" stroke="black" stroke-width="4" stroke-linecap="round" stroke-linejoin="round"/>
  <path d="M231.435 211.775L206.322 207.135L211.032 222.546L232.442 211.681" fill="#821E28"/>
  <path d="M211.033 222.545L231.858 211.727L224.679 203.424" stroke="black" stroke-width="4" stroke-linecap="round" stroke-linejoin="round"/>
  <path d="M197.029 255.788L183.633 240.986L182.008 255.124L197.029 255.788Z" fill="#821E28"/>
  <path d="M182.008 255.125L197.029 255.789L197.841 243.494" stroke="black" stroke-width="4" stroke-linecap="round" stroke-linejoin="round"/>
  <path d="M139.452 128.086C139.179 128.086 138.906 128.016 138.664 127.875C138.492 127.774 121.557 118.057 97.2727 118.057C84.6422 118.057 72.1992 120.658 60.2873 125.79C60.092 125.876 59.8811 125.915 59.6702 125.915C59.264 125.915 58.8578 125.751 58.561 125.454C58.108 125.001 57.983 124.314 58.2408 123.72L65.4504 107.442C65.5754 107.153 65.7941 106.903 66.0675 106.739L79.9634 98.2558C80.2055 98.1074 80.4945 98.0293 80.7757 98.0293C80.8382 98.0293 80.8929 98.0293 80.9554 98.0371L129.001 103.63C129.525 103.692 129.978 104.005 130.212 104.473L132.704 109.387L134.61 106.083C134.891 105.59 135.414 105.301 135.961 105.301C136.047 105.301 136.141 105.301 136.234 105.325C136.883 105.442 137.39 105.942 137.5 106.59L140.983 126.243C141.093 126.844 140.835 127.446 140.335 127.797C140.07 127.985 139.757 128.078 139.445 128.078L139.452 128.086Z" fill="#821E28"/>
  <path d="M80.7759 99.5912L128.822 105.184L132.618 112.667L135.961 106.863L139.445 126.516C139.445 126.516 122.3 116.479 97.265 116.479C86.0405 116.479 73.2304 118.494 59.6625 124.337L66.8722 108.058L80.7681 99.5756M80.7681 96.4512C80.1978 96.4512 79.6354 96.6074 79.1433 96.912L65.2474 105.395C64.7085 105.723 64.2789 106.215 64.0211 106.793L56.8115 123.071C56.2881 124.243 56.5459 125.618 57.4442 126.532C58.0456 127.133 58.8502 127.461 59.6625 127.461C60.0765 127.461 60.4983 127.375 60.8967 127.203C72.6133 122.157 84.8532 119.595 97.265 119.595C121.073 119.595 137.703 129.109 137.867 129.203C138.351 129.484 138.898 129.625 139.437 129.625C140.062 129.625 140.687 129.437 141.226 129.062C142.226 128.367 142.725 127.156 142.515 125.954L139.031 106.301C138.804 105.004 137.789 103.997 136.492 103.77C136.313 103.739 136.133 103.723 135.953 103.723C134.852 103.723 133.813 104.309 133.251 105.285L132.79 106.09L131.603 103.747C131.126 102.809 130.22 102.177 129.181 102.06L81.1352 96.4668C81.018 96.4512 80.893 96.4434 80.7759 96.4434L80.7681 96.4512Z" fill="black"/>
  <path d="M139.452 126.524L135.968 106.871L135.679 120.22C100.397 105.082 64.8487 118.728 64.8487 118.728L66.8795 108.074L59.6699 124.352C103.498 105.481 139.452 126.532 139.452 126.532V126.524Z" fill="#59161F"/>
  <path d="M154.473 126.743C154.255 126.743 154.028 126.696 153.825 126.602C153.27 126.352 152.919 125.798 152.911 125.188L152.856 105.223C152.856 104.567 153.263 103.981 153.88 103.755C154.052 103.692 154.239 103.661 154.419 103.661C154.872 103.661 155.309 103.856 155.614 104.216L158.074 107.129L159.66 101.857C159.808 101.357 160.199 100.966 160.707 100.81L207.003 86.7812C207.151 86.7344 207.3 86.7109 207.456 86.7109C207.651 86.7109 207.839 86.75 208.018 86.8203L223.195 92.702C223.492 92.8192 223.75 93.0223 223.922 93.28L233.904 108.02C234.263 108.551 234.263 109.254 233.904 109.777C233.607 110.207 233.123 110.457 232.615 110.457C232.498 110.457 232.381 110.441 232.264 110.418C225.117 108.754 217.876 107.918 210.752 107.918C177.454 107.918 155.723 126.196 155.504 126.383C155.215 126.633 154.856 126.758 154.489 126.758L154.473 126.743Z" fill="#821E28"/>
  <path d="M207.447 88.2651L222.624 94.1468L232.606 108.886C224.881 107.09 217.57 106.34 210.735 106.34C176.476 106.34 154.472 125.18 154.472 125.18L154.417 105.215L158.737 110.331L161.151 102.294L207.447 88.2651ZM207.447 85.1406C207.142 85.1406 206.838 85.1875 206.541 85.2734L160.244 99.3021C159.245 99.6067 158.456 100.388 158.159 101.395L157.401 103.911L156.8 103.2C156.191 102.481 155.316 102.091 154.41 102.091C154.05 102.091 153.683 102.153 153.332 102.286C152.098 102.739 151.285 103.911 151.285 105.231L151.34 125.196C151.34 126.414 152.051 127.516 153.16 128.023C153.574 128.211 154.019 128.305 154.464 128.305C155.199 128.305 155.917 128.047 156.495 127.555C156.706 127.375 178.116 109.472 210.72 109.472C217.726 109.472 224.85 110.3 231.88 111.933C232.114 111.987 232.356 112.011 232.591 112.011C233.606 112.011 234.575 111.519 235.168 110.652C235.895 109.589 235.903 108.191 235.184 107.129L225.201 92.3893C224.842 91.866 224.334 91.4598 223.741 91.2255L208.564 85.3437C208.204 85.2031 207.822 85.1328 207.431 85.1328L207.447 85.1406Z" fill="black"/>
  <path d="M154.473 125.18L154.418 105.215L157.066 118.298C189.099 97.1381 226.506 104.27 226.506 104.27L222.624 94.1465L232.607 108.886C186.123 98.0833 154.48 125.18 154.48 125.18H154.473Z" fill="#59161F"/>
  <path d="M141.836 77.088C154.266 75.9764 164.03 71.5747 163.644 67.2564C163.258 62.9381 152.868 60.3386 140.437 61.4502C128.007 62.5618 118.243 66.9635 118.629 71.2818C119.015 75.6001 129.405 78.1996 141.836 77.088Z" fill="#821E28"/>
  <path d="M163.642 67.2598C164.025 71.5793 154.269 75.9769 141.834 77.0939C129.398 78.2109 119.018 75.602 118.627 71.2903" stroke="#FF3B4E" stroke-width="4" stroke-linecap="round" stroke-linejoin="round"/>
  <path d="M130.579 66.5095C130.579 66.5095 118.246 34.5934 136.211 3.73969C136.211 3.73969 159.902 -4.6494 164.628 18.9479C164.628 18.9479 142.804 36.4759 148.717 68.6263C148.717 68.6263 138.742 72.5865 130.579 66.5095Z" fill="#725126" stroke="black" stroke-width="4" stroke-linecap="round" stroke-linejoin="round"/>
  <path d="M136.211 3.73285C136.211 3.73285 139.445 25.2445 164.628 18.941C164.628 18.941 162.097 -3.90638 136.211 3.73285Z" fill="#A87B45" stroke="black" stroke-width="4" stroke-linecap="round" stroke-linejoin="round"/>
  <path d="M142.843 64.151C142.843 64.151 138.351 43.4439 152.716 24.9316" stroke="#351B00" stroke-width="4" stroke-linecap="round" stroke-linejoin="round"/>
  <path d="M141.358 198.346C141.358 198.346 152.075 190.082 164.081 196.315" stroke="#821E28" stroke-width="4" stroke-linecap="round" stroke-linejoin="round"/>
  <path d="M168.033 185.067C168.392 189.481 156.746 186.091 152.341 186.45C147.935 186.809 137.429 192.402 137.07 187.989C136.711 183.575 146.771 171.328 151.185 170.976C155.598 170.617 167.682 180.662 168.033 185.075V185.067Z" fill="#59161F" stroke="black" stroke-width="4" stroke-linecap="round" stroke-linejoin="round"/>
  <path d="M79.8076 172.701C79.8076 172.701 92.2663 183.863 113.145 175.38" stroke="#821E28" stroke-width="4" stroke-linecap="round" stroke-linejoin="round"/>
  <path d="M221.062 159.799C221.062 159.799 210.775 172.992 188.725 168.352" stroke="#821E28" stroke-width="4" stroke-linecap="round" stroke-linejoin="round"/>
  <path d="M79.1431 130.951L76.6592 157.353L104.092 171.741L126.65 147.925L107.7 120.273L86.9386 128.623L85.1186 152.783L103.795 162.36L117.23 147.073L105.794 131.334L93.5155 135.583L92.9609 148.167L102.264 153.385L107.404 144.98L103.561 140.676" stroke="black" stroke-width="4" stroke-linecap="round" stroke-linejoin="round"/>
  <path d="M222.391 144.106L216.931 118.157L186.468 112.557L171.986 141.989L198.286 162.782L215.635 148.644L210.206 125.039L189.53 121.422L181.235 140.013L196.818 151.651L207.292 143.949L204.09 131.764L193.654 129.546L191.241 139.099L196.185 142.067" stroke="black" stroke-width="4" stroke-linecap="round" stroke-linejoin="round"/>
  <path d="M159.746 53.8919C161.371 53.3699 163.018 52.8406 164.679 52.3039C311.57 5.18048 246.972 68.4774 246.972 68.4774" stroke="#FFB727" stroke-width="5" stroke-linecap="round" stroke-linejoin="round"/>
  <path d="M29.7116 121.864C29.7116 121.864 -9.0164 112.359 122.665 66.3379" stroke="#FFB727" stroke-width="5" stroke-linecap="round" stroke-linejoin="round"/>
  <path d="M263.065 92.414C263.065 92.414 305.167 69.8668 115.056 58.5674C-38.937 49.4074 39.3571 94.6783 39.3571 94.6783" stroke="#FFB727" stroke-width="5" stroke-linecap="round" stroke-linejoin="round"/>
  <path d="M36.2097 41.123L42.8334 48.2026L52.9639 49.6876L48.0457 57.7596L49.9939 68.265L40.0178 65.3758L31.4091 71.1836L30.1814 60.7149L22.8887 54.4147L32.0781 49.967L36.2097 41.123Z" fill="#FFB727" stroke="#E19E00" stroke-width="5" stroke-linecap="round" stroke-linejoin="round"/>
  <path d="M246.252 17.4648L250.994 25.9191L260.47 29.786L253.772 36.4392L253.155 47.1137L244.157 41.9235L234.408 45.511L235.724 35.0424L230.145 27.1836L240.135 25.0664L246.252 17.4648Z" fill="#FFB727" stroke="#E19E00" stroke-width="5" stroke-linecap="round" stroke-linejoin="round"/>
  <path d="M272.658 54.9355L275.591 60.1699L281.458 62.5591L277.312 66.6833L276.929 73.285L271.357 70.0724L265.329 72.2926L266.145 65.8158L262.689 60.9491L268.872 59.6405L272.658 54.9355Z" fill="#FFB727" stroke="#E19E00" stroke-width="5" stroke-linecap="round" stroke-linejoin="round"/>
  <path d="M10.0975 88.3125L14.6996 92.1574L21.0293 92.3044L18.618 97.6343L20.6102 103.942L14.2658 102.92L9.41381 107.14L7.86999 100.795L2.91504 97.4799L8.23021 94.0541L10.0975 88.3125Z" fill="#FFB727" stroke="#E19E00" stroke-width="5" stroke-linecap="round" stroke-linejoin="round"/>
  <g clip-path="url(#clip0_489_4997)">
    <path d="M34.336 338.716L20.9194 314.768L25.7992 304.024L22.5102 298.429L21.545 284.057L26.2207 271.313L35.0814 262.161L47.5068 257.073L62.3386 257.442L68.8404 258.937L74.3662 261.461L80.2675 256.257L94.2699 256.361L104.81 262.986L117.081 256.533L132.967 256.65L138.495 262.392L145.761 256.811L167.104 257.084L176.975 264.682L178.369 263.242L190.795 258.154L205.627 258.522L212.128 260.018L215.584 261.596L219.099 257.992L230.54 258.085L239.931 266.841L248.875 257.19L264.27 257.306L264.982 257.341C268.624 257.512 280.479 259.37 282.85 275.825C283.189 278.171 283.529 281.418 283.885 285.754C284.561 293.757 285.324 305.86 286.181 321.701L286.248 322.933L269.826 340.741L254.744 341.167L243.606 331.54L235.655 341.218L222.95 343.015L217.965 338.81L216.069 340.669L198.867 342.078L195.476 342.013L182.02 340.356L180.755 342.013L164.541 341.892L154.966 335.877L145.31 341.747L132.606 341.649L132.013 340.871L131.214 341.638L110.813 341.482L100.614 330.392L86.8205 341.298L74.0349 341.196L72.6284 339.604L55.5552 340.996L52.1647 340.931L34.3004 338.726L34.336 338.716Z" fill="#324C0B"/>
    <path d="M264.919 260.229C268.783 260.422 277.989 262.37 279.986 276.22C280.316 278.518 280.648 281.706 281.007 285.984C281.671 293.975 282.448 306.044 283.294 321.849L268.544 337.845L255.829 338.203L243.277 327.358L234.154 338.474L223.865 339.925L217.836 334.848L214.807 337.833L198.815 339.138L195.717 339.077L180.749 337.227L179.358 339.053L165.426 338.952L155.022 332.416L144.522 338.794L134.075 338.715L132.35 336.487L130.063 338.69L112.13 338.552L100.832 326.272L100.771 326.562L85.8443 338.359L75.398 338.28L72.8734 335.416L71.5069 336.763L55.5146 338.068L52.4166 338.007L36.169 335.999L24.1914 314.628L29.0963 303.85L25.3872 297.532L24.5088 284.463L28.7519 272.88L36.7487 264.621L48.0505 260.003L61.9823 260.349L67.9057 261.711L74.8848 264.893L81.3738 259.168L93.4228 259.256L104.87 266.453L105.098 266.114L117.789 259.447L131.722 259.548L138.207 266.274L146.739 259.727L166.093 259.983L177.259 268.582L180.048 265.702L191.35 261.084L205.282 261.431L211.205 262.792L216.263 265.094L220.346 260.91L229.4 260.977L240.1 270.945L250.158 260.086L264.265 260.196L264.919 260.229ZM265.212 254.381L265.084 254.374L264.429 254.353L264.371 254.35L264.313 254.347L250.205 254.237L247.632 254.214L245.875 256.103L239.801 262.668L233.394 256.695L231.728 255.149L229.447 255.128L220.393 255.061L217.901 255.042L216.162 256.815L214.941 258.065L213.626 257.46L213.088 257.211L212.51 257.077L206.586 255.715L206.008 255.581L205.413 255.551L191.48 255.216L190.253 255.19L189.118 255.648L177.816 260.266L176.682 260.724L169.65 255.316L168.107 254.127L166.166 254.1L146.811 253.844L144.788 253.813L143.182 255.043L138.788 258.416L135.918 255.44L134.216 253.67L131.76 253.652L117.827 253.551L116.365 253.536L115.067 254.22L104.923 259.551L96.5167 254.262L95.1096 253.384L93.4485 253.371L81.3995 253.283L79.1652 253.264L77.4877 254.748L73.8395 257.959L70.3156 256.355L69.778 256.106L69.1997 255.972L63.2763 254.61L62.6979 254.476L62.1025 254.446L48.1701 254.111L46.9427 254.084L45.808 254.542L34.5063 259.16L33.3716 259.618L32.52 260.5L24.5231 268.759L23.6592 269.652L23.2383 270.813L19.0156 282.456L18.5947 283.617L18.6734 284.85L19.5517 297.918L19.6467 299.292L20.3476 300.486L22.5144 304.187L18.871 312.208L17.648 314.897L19.0987 317.474L31.0763 338.845L32.527 341.422L35.4581 341.78L51.7058 343.787L52.0081 343.826L52.3116 343.841L55.4102 343.891L55.7137 343.906L56.0079 343.874L71.4714 342.613L72.767 344.082L75.3753 344.107L85.8216 344.186L87.8801 344.207L89.4888 342.93L100.346 334.346L107.859 342.504L109.58 344.369L112.118 344.391L130.051 344.529L131.209 344.54L134.051 344.565L144.498 344.644L146.159 344.657L147.583 343.792L154.993 339.295L162.334 343.911L163.741 344.789L165.402 344.802L179.334 344.903L182.247 344.92L183.375 343.444L195.017 344.881L195.319 344.92L195.622 344.935L198.721 344.985L199.025 345L199.319 344.968L215.311 343.662L217.426 343.488L218.177 342.753L220.131 344.395L222.13 346.075L224.711 345.713L234.999 344.263L237.251 343.942L238.696 342.177L244.018 335.692L252.039 342.612L253.755 344.09L256.029 344.029L268.744 343.671L271.204 343.607L272.875 341.795L287.625 325.799L289.296 323.987L289.162 321.523C288.307 305.647 287.534 293.52 286.871 285.482C286.507 281.087 286.157 277.781 285.81 275.377C283.128 256.717 269.403 254.59 265.259 254.383L265.212 254.381Z" fill="#496D20"/>
    <path d="M66.4169 291.664L52.8708 291.559L71.8138 305.638L70.2645 321.616L54.2722 322.921L38.0246 320.914L43.9423 307.905L52.2683 312.465L59.8955 312.519L54.4069 305.515L40.5453 296.524L39.6669 283.455L47.6638 275.196L61.5956 275.543L72.007 280.289L66.4169 291.664Z" fill="white"/>
    <path d="M75.5154 323.074L81.2438 274.363L93.2928 274.452L103.582 295.423L117.672 274.631L131.604 274.732L130.192 323.484L112.259 323.346L114.002 300.228L102.235 313.892L91.5583 298.799L85.9739 323.141L75.5277 323.063L75.5154 323.074Z" fill="white"/>
    <path d="M179.474 323.869L165.542 323.768L158.683 309.779L151.711 309.723L144.638 323.599L134.192 323.52L146.538 274.93L165.893 275.186L179.451 323.868L179.474 323.869ZM162.232 301.309L154.089 281.885L148.299 301.208L162.232 301.309Z" fill="white"/>
    <path d="M209.727 292.758L196.181 292.653L215.124 306.732L213.575 322.71L197.583 324.015L181.335 322.008L187.253 308.999L195.579 313.558L203.206 313.613L197.717 306.609L183.856 297.618L182.977 284.549L190.974 276.29L204.906 276.636L215.318 281.383L209.727 292.758Z" fill="white"/>
    <path d="M220.227 276.118L229.282 276.185L231.184 300.574L252.082 299.69L250.04 275.294L264.147 275.404C265.094 275.416 266.424 291.164 268.111 322.658L255.396 323.015L253.465 306.664L231.14 307.535L232.029 323.425L221.74 324.875L220.228 276.106L220.227 276.118Z" fill="white"/>
  </g>
  <defs>
    <clipPath id="clip0_489_4997">
      <rect width="272.347" height="100" fill="white" transform="translate(20.6719 242.143) rotate(2.86772)"/>
    </clipPath>
  </defs>
</svg>
