<svg width="279" height="2979" viewBox="0 0 279 2979" fill="none" xmlns="http://www.w3.org/2000/svg">
  <path d="M162.303 4.44159C162.303 4.44159 150.712 4.68191 124.303 32.4814C124.303 32.4814 119.732 103.151 115.717 129.349C111.702 155.547 114.812 167.902 114.812 167.902L148.351 172.319C148.351 172.319 155.455 173.062 156.509 165.056C157.564 157.051 154.287 148.839 154.313 144.299C154.34 139.759 162.984 66.4632 162.309 4.44985L162.303 4.44159Z" fill="#324C0B"/>
  <path d="M164.537 772.916C164.537 772.916 145.157 766.399 125.781 765.153C124.036 765.042 122.555 766.421 122.54 768.171C122.398 785.822 121.529 871.953 117.925 895.429C113.903 921.626 117.019 933.982 117.019 933.982L150.559 938.399C150.559 938.399 157.662 939.142 158.717 931.136C159.771 923.131 156.495 914.919 156.521 910.379C156.547 905.839 165.218 834.93 164.536 772.923L164.537 772.916Z" fill="#324C0B"/>
  <path d="M154.984 172.242C154.984 172.242 162.468 156.45 197.408 154.518C197.408 154.518 183.281 167.536 154.984 172.242Z" fill="#324C0B"/>
  <path d="M156.071 175.036C156.071 175.036 181.314 165.22 201.909 182.966C201.909 182.966 179.72 183.518 156.071 175.036Z" fill="#324C0B"/>
  <path d="M154.37 176.898C154.37 176.898 177.233 178.9 171.296 207.688C171.296 207.688 157.386 193.346 154.37 176.898Z" fill="#324C0B"/>
  <path d="M152.669 176.11C152.669 176.11 140.515 184.175 134.742 212.228C134.742 212.228 158.4 197.652 152.669 176.11Z" fill="#324C0B"/>
  <path d="M141.574 183.869C141.574 183.869 143.42 179.94 140.286 179.72C137.153 179.501 113.2 178.618 113.2 178.618C113.2 178.618 107.676 343.67 111.73 367.279C113.015 374.775 115.371 373.571 116.854 373.64C118.337 373.709 147.78 374.677 153.735 376.478C159.689 378.28 160.288 374.691 159.157 369.865C158.025 365.039 151.465 338.584 153.502 311.561C155.539 284.538 157.177 191.552 157.177 191.552C157.177 191.552 144.013 213.879 131.699 217.581C127.749 218.768 141.573 183.876 141.573 183.876L141.574 183.869Z" fill="#324C0B"/>
  <path d="M159.544 387.095C159.544 387.095 160.172 381.365 157.047 381.08C153.922 380.794 113.084 378.133 113.084 378.133C113.084 378.133 109.129 399.535 116.175 447.725C123.221 495.915 121.263 566.424 121.263 566.424C121.263 566.424 157.327 578.501 163.128 570.928C168.929 563.355 159.537 387.094 159.537 387.094L159.544 387.095Z" fill="#324C0B"/>
  <path d="M103.181 560.761C103.181 560.761 83.13 546.999 61.842 554.18C61.842 554.18 83.6972 562.872 103.181 560.761Z" fill="#324C0B"/>
  <path d="M99.9785 570.703C99.9785 570.703 66.4702 570.841 57.6954 598.119C57.6954 598.119 87.6739 586.396 99.9785 570.703Z" fill="#324C0B"/>
  <path d="M106.607 574.1C106.607 574.1 82.339 589.479 99.1203 623.279C99.1203 623.279 108.256 599.968 106.607 574.1Z" fill="#324C0B"/>
  <path d="M115.298 575.245C115.298 575.245 112.686 598.91 145.262 617.351C145.262 617.351 132.696 588.019 115.298 575.245Z" fill="#324C0B"/>
  <path d="M127.705 578.898C127.705 578.898 160.012 576.33 164.966 583.806C169.921 591.281 164.372 765.826 164.372 765.826C164.372 765.826 142.662 759.693 126.22 758.715C123.289 758.537 121 756.127 121.038 753.192L122.784 606.684C122.784 606.684 143.906 625.391 155.865 629.743C155.865 629.743 147.164 600.036 127.705 578.898Z" fill="#324C0B"/>
  <path d="M156.969 879.5C156.969 879.5 143.378 903.701 116.969 931.5C116.969 931.5 116.732 981.151 112.717 1007.35C108.702 1033.55 111.812 1045.9 111.812 1045.9L145.351 1050.32C145.351 1050.32 152.455 1051.06 153.509 1043.06C154.563 1035.05 151.287 1026.84 151.313 1022.3C151.34 1017.76 159.983 944.463 159.309 882.45L156.969 879.5Z" fill="#324C0B"/>
  <path d="M161.537 1650.92C161.537 1650.92 142.157 1644.4 122.781 1643.15C121.036 1643.04 119.555 1644.42 119.54 1646.17C119.398 1663.82 118.529 1749.95 114.925 1773.43C110.903 1799.63 114.019 1811.98 114.019 1811.98L147.559 1816.4C147.559 1816.4 154.662 1817.14 155.717 1809.14C156.771 1801.13 153.495 1792.92 153.521 1788.38C153.547 1783.84 162.218 1712.93 161.536 1650.92L161.537 1650.92Z" fill="#324C0B"/>
  <path d="M151.984 1050.24C151.984 1050.24 159.468 1034.45 194.408 1032.52C194.408 1032.52 180.281 1045.54 151.984 1050.24Z" fill="#324C0B"/>
  <path d="M153.071 1053.04C153.071 1053.04 178.314 1043.22 198.909 1060.97C198.909 1060.97 176.72 1061.52 153.071 1053.04Z" fill="#324C0B"/>
  <path d="M151.37 1054.9C151.37 1054.9 174.233 1056.9 168.296 1085.69C168.296 1085.69 154.386 1071.35 151.37 1054.9Z" fill="#324C0B"/>
  <path d="M149.669 1054.11C149.669 1054.11 137.515 1062.18 131.742 1090.23C131.742 1090.23 155.4 1075.65 149.669 1054.11Z" fill="#324C0B"/>
  <path d="M138.574 1061.87C138.574 1061.87 140.42 1057.94 137.286 1057.72C134.153 1057.5 110.2 1056.62 110.2 1056.62C110.2 1056.62 104.676 1221.67 108.73 1245.28C110.015 1252.78 112.371 1251.57 113.854 1251.64C115.337 1251.71 144.78 1252.68 150.735 1254.48C156.689 1256.28 157.288 1252.69 156.157 1247.86C155.025 1243.04 148.465 1216.58 150.502 1189.56C152.539 1162.54 154.177 1069.55 154.177 1069.55C154.177 1069.55 141.013 1091.88 128.699 1095.58C124.749 1096.77 138.573 1061.88 138.573 1061.88L138.574 1061.87Z" fill="#324C0B"/>
  <path d="M156.544 1265.1C156.544 1265.1 157.172 1259.37 154.047 1259.08C150.922 1258.79 110.084 1256.13 110.084 1256.13C110.084 1256.13 106.129 1277.54 113.175 1325.73C120.221 1373.92 118.263 1444.42 118.263 1444.42C118.263 1444.42 154.327 1456.5 160.128 1448.93C165.929 1441.35 156.537 1265.09 156.537 1265.09L156.544 1265.1Z" fill="#324C0B"/>
  <path d="M100.181 1438.76C100.181 1438.76 80.13 1425 58.842 1432.18C58.842 1432.18 80.6972 1440.87 100.181 1438.76Z" fill="#324C0B"/>
  <path d="M96.9785 1448.7C96.9785 1448.7 63.4702 1448.84 54.6954 1476.12C54.6954 1476.12 84.6739 1464.4 96.9785 1448.7Z" fill="#324C0B"/>
  <path d="M103.607 1452.1C103.607 1452.1 79.339 1467.48 96.1203 1501.28C96.1203 1501.28 105.256 1477.97 103.607 1452.1Z" fill="#324C0B"/>
  <path d="M112.298 1453.24C112.298 1453.24 109.686 1476.91 142.262 1495.35C142.262 1495.35 129.696 1466.02 112.298 1453.24Z" fill="#324C0B"/>
  <path d="M124.705 1456.9C124.705 1456.9 157.012 1454.33 161.966 1461.81C166.921 1469.28 161.372 1643.83 161.372 1643.83C161.372 1643.83 139.662 1637.69 123.22 1636.71C120.289 1636.54 118 1634.13 118.038 1631.19L119.784 1484.68C119.784 1484.68 140.906 1503.39 152.865 1507.74C152.865 1507.74 144.164 1478.04 124.705 1456.9Z" fill="#324C0B"/>
  <path d="M154.969 1715.93C154.969 1715.93 144.378 1709.2 117.969 1737C117.969 1737 109.469 1799.5 112.717 1843.07C108.702 1869.27 111.812 1881.63 111.812 1881.63L145.351 1886.04C145.351 1886.04 152.455 1886.79 153.509 1878.78C154.563 1870.78 154.943 1862.54 154.969 1858C154.995 1853.46 156.644 1815.45 155.969 1753.43L154.969 1715.93Z" fill="#324C0B"/>
  <path d="M161.537 2486.64C161.537 2486.64 142.157 2480.12 122.781 2478.88C121.036 2478.77 119.555 2480.15 119.54 2481.9C119.398 2499.55 118.529 2585.68 114.925 2609.15C110.903 2635.35 114.019 2647.71 114.019 2647.71L147.559 2652.12C147.559 2652.12 154.662 2652.87 155.717 2644.86C156.771 2636.86 153.495 2628.64 153.521 2624.1C153.547 2619.56 162.218 2548.65 161.536 2486.65L161.537 2486.64Z" fill="#324C0B"/>
  <path d="M151.984 1885.97C151.984 1885.97 159.468 1870.17 194.408 1868.24C194.408 1868.24 180.281 1881.26 151.984 1885.97Z" fill="#324C0B"/>
  <path d="M153.071 1888.76C153.071 1888.76 178.314 1878.94 198.909 1896.69C198.909 1896.69 176.72 1897.24 153.071 1888.76Z" fill="#324C0B"/>
  <path d="M151.37 1890.62C151.37 1890.62 174.233 1892.62 168.296 1921.41C168.296 1921.41 154.386 1907.07 151.37 1890.62Z" fill="#324C0B"/>
  <path d="M149.669 1889.83C149.669 1889.83 137.515 1897.9 131.742 1925.95C131.742 1925.95 155.4 1911.38 149.669 1889.83Z" fill="#324C0B"/>
  <path d="M138.574 1897.59C138.574 1897.59 140.42 1893.66 137.286 1893.45C134.153 1893.23 110.2 1892.34 110.2 1892.34C110.2 1892.34 104.676 2057.4 108.73 2081C110.015 2088.5 112.371 2087.3 113.854 2087.37C115.337 2087.43 144.78 2088.4 150.735 2090.2C156.689 2092 157.288 2088.42 156.157 2083.59C155.025 2078.76 148.465 2052.31 150.502 2025.29C152.539 1998.26 154.177 1905.28 154.177 1905.28C154.177 1905.28 141.013 1927.6 128.699 1931.31C124.749 1932.49 138.573 1897.6 138.573 1897.6L138.574 1897.59Z" fill="#324C0B"/>
  <path d="M156.544 2100.82C156.544 2100.82 157.172 2095.09 154.047 2094.8C150.922 2094.52 110.084 2091.86 110.084 2091.86C110.084 2091.86 106.129 2113.26 113.175 2161.45C120.221 2209.64 118.263 2280.15 118.263 2280.15C118.263 2280.15 154.327 2292.23 160.128 2284.65C165.929 2277.08 156.537 2100.82 156.537 2100.82L156.544 2100.82Z" fill="#324C0B"/>
  <path d="M100.181 2274.49C100.181 2274.49 80.13 2260.72 58.842 2267.91C58.842 2267.91 80.6972 2276.6 100.181 2274.49Z" fill="#324C0B"/>
  <path d="M96.9785 2284.43C96.9785 2284.43 63.4702 2284.57 54.6954 2311.84C54.6954 2311.84 84.6739 2300.12 96.9785 2284.43Z" fill="#324C0B"/>
  <path d="M103.607 2287.82C103.607 2287.82 79.339 2303.2 96.1203 2337C96.1203 2337 105.256 2313.69 103.607 2287.82Z" fill="#324C0B"/>
  <path d="M112.298 2288.97C112.298 2288.97 109.686 2312.64 142.262 2331.08C142.262 2331.08 129.696 2301.74 112.298 2288.97Z" fill="#324C0B"/>
  <path d="M124.705 2292.62C124.705 2292.62 157.012 2290.06 161.966 2297.53C166.921 2305.01 161.372 2479.55 161.372 2479.55C161.372 2479.55 139.662 2473.42 123.22 2472.44C120.289 2472.26 118 2469.85 118.038 2466.92L119.784 2320.41C119.784 2320.41 140.906 2339.12 152.865 2343.47C152.865 2343.47 144.164 2313.76 124.705 2292.62Z" fill="#324C0B"/>
  <path d="M151.437 2589.77C151.437 2589.77 140.846 2583.04 114.437 2610.84C114.437 2610.84 101.722 2677.43 104.97 2721C100.955 2747.2 102.47 2754.5 102.47 2754.5L141.819 2759.88C141.819 2759.88 148.922 2760.62 149.977 2752.62C151.031 2744.61 151.411 2736.38 151.437 2731.84C151.463 2727.3 153.111 2689.28 152.437 2627.27L151.437 2589.77Z" fill="#324C0B"/>
  <path d="M80.0966 2955.85C80.0966 2955.85 80.6722 2956.53 84.3313 2957.8C87.9905 2959.07 116.136 2968 116.136 2968C116.136 2968 159.258 2808.16 159.693 2783.67C159.835 2775.89 153.209 2761.08 151.469 2760.51C143.469 2769 101.783 2754.96 101.969 2758.5C102.238 2763.61 77.3691 2801.71 68.9689 2827.5C60.5686 2853.29 66.9688 2940.52 66.9688 2940.52C66.9688 2940.52 60.4058 2954.85 75.7963 2955.37C80.7332 2955.54 81.3619 2941.9 78.3218 2955.34C78.1137 2956.26 80.0966 2955.85 80.0966 2955.85Z" fill="#324C0B"/>
</svg>
