<svg width="581" height="3137" viewBox="0 0 581 3137" fill="none" xmlns="http://www.w3.org/2000/svg">
  <path d="M109.987 -117.396C109.987 -117.396 73.0844 -110.696 2.95304 -8.37962C2.95304 -8.37962 24.5187 219.701 25.1021 305.441C25.6855 391.181 41.9408 429.055 41.9408 429.055L151.337 426.001C151.337 426.001 174.409 424.737 173.68 398.626C172.951 372.514 158.282 347.959 156.043 333.443C153.803 318.927 143.903 80.3732 110.011 -117.373L109.987 -117.396Z" fill="#324C0B"/>
  <path d="M510.414 2336.22C510.414 2336.22 445.173 2325.32 382.642 2331.26C377.011 2331.8 372.986 2336.96 373.833 2342.56C382.413 2399.01 423.719 2674.59 424.22 2751.42C424.78 2837.16 495 3125 495 3125L550.455 2871.98C550.455 2871.98 573.527 2870.72 572.798 2844.61C572.069 2818.5 557.4 2793.94 555.16 2779.43C552.921 2764.91 544.329 2533.97 510.414 2336.24L510.414 2336.22Z" fill="#324C0B"/>
  <path d="M172.484 422.361C172.484 422.361 188.311 368.084 298.932 344.033C298.932 344.033 260.465 392.844 172.484 422.361Z" fill="#324C0B"/>
  <path d="M177.387 430.729C177.387 430.729 252.998 386.454 327.87 432.602C327.87 432.602 257.273 445.721 177.387 430.729Z" fill="#324C0B"/>
  <path d="M172.909 437.547C172.909 437.547 246.963 432.24 242.731 527.238C242.731 527.238 190.96 488.545 172.909 437.547Z" fill="#324C0B"/>
  <path d="M167.074 435.9C167.074 435.9 132.378 467.884 128.292 560.447C128.292 560.447 196.403 501.78 167.074 435.9Z" fill="#324C0B"/>
  <path d="M135.599 466.364C135.599 466.364 139.486 452.868 129.363 453.77C119.241 454.672 42.2763 464.11 42.2763 464.11C42.2763 464.11 109.1 994.171 134.135 1067.51C142.075 1090.8 148.985 1085.74 153.758 1085.21C158.531 1084.67 253.076 1072.69 273.018 1075.4C292.961 1078.1 293.037 1066.33 286.953 1051.5C280.87 1036.66 246.374 955.511 239.052 868.149C231.729 780.787 189.373 482.92 189.373 482.92C189.373 482.92 158.75 560.979 121.309 579.104C109.299 584.918 135.6 466.388 135.6 466.388L135.599 466.364Z" fill="#324C0B"/>
  <path d="M297.012 1106.34C297.012 1106.34 296.087 1087.71 285.958 1088.4C275.83 1089.09 144.016 1101.49 144.016 1101.49C144.016 1101.49 142.337 1171.88 189.507 1322.21C236.677 1472.53 266.505 1698.76 266.505 1698.76C266.505 1698.76 387.888 1718.89 402.542 1691.73C417.196 1664.57 296.988 1106.34 296.988 1106.34L297.012 1106.34Z" fill="#324C0B"/>
  <path d="M205.849 1689.93C205.849 1689.93 134.755 1656.23 70.4298 1690.06C70.4298 1690.06 144.691 1706.64 205.849 1689.93Z" fill="#324C0B"/>
  <path d="M200.707 1723.33C200.707 1723.33 93.741 1740.92 79.672 1832.54C79.672 1832.54 169.433 1779.75 200.707 1723.33Z" fill="#324C0B"/>
  <path d="M223.617 1730.79C223.617 1730.79 153.967 1792.33 224.87 1891.71C224.87 1891.71 242.123 1812.57 223.617 1730.79Z" fill="#324C0B"/>
  <path d="M251.965 1729.99C251.965 1729.99 255.732 1806.93 369.228 1849.16C369.228 1849.16 314.076 1761.9 251.965 1729.99Z" fill="#324C0B"/>
  <path d="M293.469 1735.32C293.469 1735.32 395.352 1710.58 415.005 1731.92C434.657 1753.26 506.259 2313.66 506.259 2313.66C506.259 2313.66 433.773 2305.18 380.752 2310.47C371.297 2311.4 362.753 2304.87 361.371 2295.48L291.967 1826.59C291.967 1826.59 369.014 1875.54 409.441 1883.32C409.441 1883.32 366.444 1792.88 293.469 1735.32Z" fill="#324C0B"/>
</svg>
