<svg width="279" height="2979" viewBox="0 0 279 2979" fill="none" xmlns="http://www.w3.org/2000/svg">
  <path d="M116.447 4.44159C116.447 4.44159 128.038 4.68191 154.447 32.4814C154.447 32.4814 159.018 103.151 163.032 129.349C167.047 155.547 163.938 167.902 163.938 167.902L130.398 172.319C130.398 172.319 123.295 173.062 122.24 165.056C121.186 157.051 124.462 148.839 124.436 144.299C124.41 139.759 115.766 66.4632 116.44 4.44985L116.447 4.44159Z" fill="#324C0B"/>
  <path d="M114.212 772.916C114.212 772.916 133.592 766.399 152.968 765.153C154.713 765.042 156.194 766.421 156.209 768.171C156.351 785.822 157.22 871.953 160.824 895.429C164.846 921.626 161.73 933.982 161.73 933.982L128.19 938.399C128.19 938.399 121.087 939.142 120.032 931.136C118.978 923.131 122.254 914.919 122.228 910.379C122.202 905.839 113.531 834.93 114.213 772.923L114.212 772.916Z" fill="#324C0B"/>
  <path d="M123.766 172.242C123.766 172.242 116.281 156.45 81.3413 154.518C81.3413 154.518 95.4689 167.536 123.766 172.242Z" fill="#324C0B"/>
  <path d="M122.678 175.036C122.678 175.036 97.4355 165.22 76.8397 182.966C76.8397 182.966 99.0288 183.518 122.678 175.036Z" fill="#324C0B"/>
  <path d="M124.379 176.898C124.379 176.898 101.516 178.9 107.453 207.688C107.453 207.688 121.363 193.346 124.379 176.898Z" fill="#324C0B"/>
  <path d="M126.079 176.11C126.079 176.11 138.233 184.175 144.007 212.228C144.007 212.228 120.349 197.652 126.079 176.11Z" fill="#324C0B"/>
  <path d="M137.176 183.869C137.176 183.869 135.329 179.94 138.463 179.72C141.597 179.501 165.55 178.618 165.55 178.618C165.55 178.618 171.074 343.67 167.019 367.279C165.735 374.775 163.379 373.571 161.895 373.64C160.412 373.709 130.969 374.677 125.015 376.478C119.061 378.28 118.462 374.691 119.593 369.865C120.724 365.039 127.285 338.584 125.248 311.561C123.211 284.538 121.573 191.552 121.573 191.552C121.573 191.552 134.736 213.879 147.05 217.581C151 218.768 137.177 183.876 137.177 183.876L137.176 183.869Z" fill="#324C0B"/>
  <path d="M119.205 387.095C119.205 387.095 118.576 381.365 121.701 381.08C124.826 380.794 165.665 378.133 165.665 378.133C165.665 378.133 169.619 399.535 162.573 447.725C155.527 495.915 157.486 566.424 157.486 566.424C157.486 566.424 121.422 578.501 115.621 570.928C109.82 563.355 119.212 387.094 119.212 387.094L119.205 387.095Z" fill="#324C0B"/>
  <path d="M175.567 560.761C175.567 560.761 195.619 546.999 216.906 554.18C216.906 554.18 195.051 562.872 175.567 560.761Z" fill="#324C0B"/>
  <path d="M178.77 570.703C178.77 570.703 212.278 570.841 221.053 598.119C221.053 598.119 191.075 586.396 178.77 570.703Z" fill="#324C0B"/>
  <path d="M172.142 574.1C172.142 574.1 196.411 589.479 179.629 623.279C179.629 623.279 170.493 599.968 172.142 574.1Z" fill="#324C0B"/>
  <path d="M163.451 575.245C163.451 575.245 166.063 598.91 133.487 617.351C133.487 617.351 146.053 588.019 163.451 575.245Z" fill="#324C0B"/>
  <path d="M151.044 578.898C151.044 578.898 118.737 576.33 113.783 583.806C108.828 591.281 114.377 765.826 114.377 765.826C114.377 765.826 136.087 759.693 152.529 758.715C155.46 758.537 157.749 756.127 157.711 753.192L155.965 606.684C155.965 606.684 134.843 625.391 122.884 629.743C122.884 629.743 131.585 600.036 151.044 578.898Z" fill="#324C0B"/>
  <path d="M121.78 879.5C121.78 879.5 135.371 903.701 161.78 931.5C161.78 931.5 162.017 981.151 166.032 1007.35C170.047 1033.55 166.937 1045.9 166.937 1045.9L133.398 1050.32C133.398 1050.32 126.294 1051.06 125.24 1043.06C124.186 1035.05 127.462 1026.84 127.436 1022.3C127.409 1017.76 118.766 944.463 119.44 882.45L121.78 879.5Z" fill="#324C0B"/>
  <path d="M117.212 1650.92C117.212 1650.92 136.592 1644.4 155.968 1643.15C157.713 1643.04 159.194 1644.42 159.209 1646.17C159.351 1663.82 160.22 1749.95 163.824 1773.43C167.846 1799.63 164.73 1811.98 164.73 1811.98L131.19 1816.4C131.19 1816.4 124.087 1817.14 123.032 1809.14C121.978 1801.13 125.254 1792.92 125.228 1788.38C125.202 1783.84 116.531 1712.93 117.213 1650.92L117.212 1650.92Z" fill="#324C0B"/>
  <path d="M126.766 1050.24C126.766 1050.24 119.281 1034.45 84.3413 1032.52C84.3413 1032.52 98.4689 1045.54 126.766 1050.24Z" fill="#324C0B"/>
  <path d="M125.678 1053.04C125.678 1053.04 100.435 1043.22 79.8397 1060.97C79.8397 1060.97 102.029 1061.52 125.678 1053.04Z" fill="#324C0B"/>
  <path d="M127.379 1054.9C127.379 1054.9 104.516 1056.9 110.453 1085.69C110.453 1085.69 124.363 1071.35 127.379 1054.9Z" fill="#324C0B"/>
  <path d="M129.08 1054.11C129.08 1054.11 141.234 1062.18 147.007 1090.23C147.007 1090.23 123.349 1075.65 129.08 1054.11Z" fill="#324C0B"/>
  <path d="M140.176 1061.87C140.176 1061.87 138.329 1057.94 141.463 1057.72C144.597 1057.5 168.55 1056.62 168.55 1056.62C168.55 1056.62 174.074 1221.67 170.019 1245.28C168.735 1252.78 166.379 1251.57 164.895 1251.64C163.412 1251.71 133.969 1252.68 128.015 1254.48C122.061 1256.28 121.462 1252.69 122.593 1247.86C123.724 1243.04 130.285 1216.58 128.248 1189.56C126.211 1162.54 124.573 1069.55 124.573 1069.55C124.573 1069.55 137.736 1091.88 150.05 1095.58C154 1096.77 140.177 1061.88 140.177 1061.88L140.176 1061.87Z" fill="#324C0B"/>
  <path d="M122.205 1265.1C122.205 1265.1 121.576 1259.37 124.701 1259.08C127.826 1258.79 168.665 1256.13 168.665 1256.13C168.665 1256.13 172.619 1277.54 165.573 1325.73C158.527 1373.92 160.486 1444.42 160.486 1444.42C160.486 1444.42 124.422 1456.5 118.621 1448.93C112.82 1441.35 122.212 1265.09 122.212 1265.09L122.205 1265.1Z" fill="#324C0B"/>
  <path d="M154 1451C142.544 1454.4 121.737 1454.33 116.783 1461.81C111.828 1469.28 117.377 1643.83 117.377 1643.83C117.377 1643.83 139.087 1637.69 155.529 1636.72C158.46 1636.54 160.749 1634.13 160.711 1631.19L158.965 1484.68C158.965 1454 165.456 1447.6 154 1451Z" fill="#324C0B"/>
  <path d="M123.78 1715.93C123.78 1715.93 134.371 1709.2 160.78 1737C160.78 1737 169.28 1799.5 166.032 1843.07C170.047 1869.27 166.937 1881.63 166.937 1881.63L133.398 1886.04C133.398 1886.04 126.294 1886.79 125.24 1878.78C124.186 1870.78 123.806 1862.54 123.78 1858C123.754 1853.46 122.105 1815.45 122.78 1753.43L123.78 1715.93Z" fill="#324C0B"/>
  <path d="M117.212 2486.64C117.212 2486.64 136.592 2480.12 155.968 2478.88C157.713 2478.77 159.194 2480.15 159.209 2481.9C159.351 2499.55 160.22 2585.68 163.824 2609.15C167.846 2635.35 164.73 2647.71 164.73 2647.71L131.19 2652.12C131.19 2652.12 124.087 2652.87 123.032 2644.86C121.978 2636.86 125.254 2628.64 125.228 2624.1C125.202 2619.56 116.531 2548.65 117.213 2486.65L117.212 2486.64Z" fill="#324C0B"/>
  <path d="M126.766 1885.97C126.766 1885.97 119.281 1870.17 84.3413 1868.24C84.3413 1868.24 98.4689 1881.26 126.766 1885.97Z" fill="#324C0B"/>
  <path d="M125.678 1888.76C125.678 1888.76 100.435 1878.94 79.8397 1896.69C79.8397 1896.69 102.029 1897.24 125.678 1888.76Z" fill="#324C0B"/>
  <path d="M127.379 1890.62C127.379 1890.62 104.516 1892.62 110.453 1921.41C110.453 1921.41 124.363 1907.07 127.379 1890.62Z" fill="#324C0B"/>
  <path d="M129.079 1889.83C129.079 1889.83 141.233 1897.9 147.007 1925.95C147.007 1925.95 123.349 1911.38 129.079 1889.83Z" fill="#324C0B"/>
  <path d="M140.176 1897.59C140.176 1897.59 138.329 1893.66 141.463 1893.45C144.597 1893.23 168.55 1892.34 168.55 1892.34C168.55 1892.34 174.074 2057.4 170.019 2081C168.735 2088.5 166.379 2087.3 164.895 2087.37C163.412 2087.43 133.969 2088.4 128.015 2090.2C122.061 2092 121.462 2088.42 122.593 2083.59C123.724 2078.76 130.285 2052.31 128.248 2025.29C126.211 1998.26 124.573 1905.28 124.573 1905.28C124.573 1905.28 137.736 1927.6 150.05 1931.31C154 1932.49 140.177 1897.6 140.177 1897.6L140.176 1897.59Z" fill="#324C0B"/>
  <path d="M122.205 2100.82C122.205 2100.82 121.576 2095.09 124.701 2094.8C127.826 2094.52 168.665 2091.86 168.665 2091.86C168.665 2091.86 172.619 2113.26 165.573 2161.45C158.527 2209.64 160.486 2280.15 160.486 2280.15C160.486 2280.15 124.422 2292.23 118.621 2284.65C112.82 2277.08 122.212 2100.82 122.212 2100.82L122.205 2100.82Z" fill="#324C0B"/>
  <path d="M178.567 2274.49C178.567 2274.49 198.619 2260.72 219.906 2267.91C219.906 2267.91 198.051 2276.6 178.567 2274.49Z" fill="#324C0B"/>
  <path d="M181.77 2284.43C181.77 2284.43 215.278 2284.57 224.053 2311.84C224.053 2311.84 194.075 2300.12 181.77 2284.43Z" fill="#324C0B"/>
  <path d="M175.142 2287.82C175.142 2287.82 199.411 2303.2 182.629 2337C182.629 2337 173.493 2313.69 175.142 2287.82Z" fill="#324C0B"/>
  <path d="M166.451 2288.97C166.451 2288.97 169.063 2312.64 136.487 2331.08C136.487 2331.08 149.053 2301.74 166.451 2288.97Z" fill="#324C0B"/>
  <path d="M154.044 2292.62C154.044 2292.62 121.737 2290.06 116.783 2297.53C111.828 2305.01 117.377 2479.55 117.377 2479.55C117.377 2479.55 139.087 2473.42 155.529 2472.44C158.46 2472.26 160.749 2469.85 160.711 2466.92L158.965 2320.41C158.965 2320.41 137.843 2339.12 125.884 2343.47C125.884 2343.47 134.585 2313.76 154.044 2292.62Z" fill="#324C0B"/>
  <path d="M127.313 2589.77C127.313 2589.77 137.904 2583.04 164.313 2610.84C164.313 2610.84 172.813 2673.34 169.565 2716.91C173.579 2743.11 170.47 2755.46 170.47 2755.46L136.931 2759.88C136.931 2759.88 129.827 2760.62 128.773 2752.62C127.718 2744.61 127.339 2736.38 127.313 2731.84C127.286 2727.3 125.638 2689.29 126.313 2627.27L127.313 2589.77Z" fill="#324C0B"/>
  <path d="M177.914 2960.61C177.914 2960.61 177.212 2961.25 173.133 2962.27C169.053 2963.29 137.781 2970.26 137.781 2970.26C137.781 2970.26 111.431 2806.61 114.009 2781.96C114.823 2774.14 123.765 2759.73 125.7 2759.28C132.931 2766.33 150.009 2760.89 163.872 2761.8C171.033 2761.25 172.663 2761.92 171.74 2767.04C170.817 2772.15 178.371 2806.02 184.169 2832.53C189.967 2859.03 193.887 2946.14 193.887 2946.14C193.887 2946.14 199.14 2961 182.581 2960.43C177.27 2960.25 178.29 2946.51 179.878 2960.22C179.987 2961.16 177.914 2960.61 177.914 2960.61Z" fill="#324C0B"/>
</svg>
