<svg width="282" height="1053" viewBox="0 0 282 1053" fill="none" xmlns="http://www.w3.org/2000/svg">
  <path d="M174.033 -34.1695C174.033 -34.1695 187.403 -32.9896 215.744 1.17785C215.744 1.17785 215.523 83.1648 218.121 113.739C220.719 144.313 216.165 158.342 216.165 158.342L177.079 160.834C177.079 160.834 168.816 161.139 168.221 151.81C167.627 142.48 172.051 133.25 172.374 128.003C172.697 122.757 168.418 37.4194 174.025 -34.1605L174.033 -34.1695Z" fill="#6FA72E"/>
  <path d="M111.62 853.331C111.62 853.331 134.513 847.312 156.992 847.382C159.016 847.39 160.619 849.098 160.5 851.12C159.29 871.52 153.589 971.079 155.924 998.477C158.531 1029.05 153.969 1043.08 153.969 1043.08L114.883 1045.57C114.883 1045.57 106.62 1045.88 106.025 1036.55C105.43 1027.22 109.854 1017.99 110.177 1012.74C110.5 1007.49 106.004 924.912 111.62 853.34L111.62 853.331Z" fill="#6FA72E"/>
  <path d="M169.415 160.23C169.415 160.23 161.999 141.405 121.79 136.454C121.79 136.454 137.096 152.59 169.415 160.23Z" fill="#6FA72E"/>
  <path d="M167.942 163.372C167.942 163.372 139.548 150.068 114.376 168.964C114.376 168.964 139.964 171.329 167.942 163.372Z" fill="#6FA72E"/>
  <path d="M169.761 165.655C169.761 165.655 143.197 166.188 147.814 199.903C147.814 199.903 164.997 184.42 169.761 165.655Z" fill="#6FA72E"/>
  <path d="M171.786 164.877C171.786 164.877 185.198 175.14 189.683 207.993C189.683 207.993 163.491 189.315 171.786 164.877Z" fill="#6FA72E"/>
  <path d="M184.001 174.704C184.001 174.704 182.174 170.022 185.811 170.012C189.448 170.002 217.184 170.847 217.184 170.847C217.184 170.847 210.717 361.931 204.195 388.886C202.128 397.445 199.5 395.871 197.781 395.835C196.063 395.8 161.978 394.625 154.959 396.242C147.941 397.86 147.529 393.668 149.211 388.181C150.894 382.694 160.531 352.647 160.282 321.274C160.032 289.901 165.379 182.363 165.379 182.363C165.379 182.363 178.846 209.179 192.783 214.413C197.253 216.092 184.001 174.712 184.001 174.712L184.001 174.704Z" fill="#6FA72E"/>
  <path d="M147.43 408.054C147.43 408.054 147.15 401.386 150.782 401.299C154.414 401.213 201.794 401.318 201.794 401.318C201.794 401.318 204.696 426.348 192.806 481.464C180.915 536.58 177.689 618.178 177.689 618.178C177.689 618.178 135.09 629.322 128.979 620.122C122.868 610.922 147.438 408.053 147.438 408.053L147.43 408.054Z" fill="#6FA72E"/>
  <path d="M199.007 613.045C199.007 613.045 223.24 598.709 247.271 608.662C247.271 608.662 221.349 617 199.007 613.045Z" fill="#6FA72E"/>
  <path d="M201.941 624.778C201.941 624.778 240.636 627.546 248.648 659.739C248.648 659.739 214.932 643.862 201.941 624.778Z" fill="#6FA72E"/>
  <path d="M194.012 628.187C194.012 628.187 220.848 647.84 198.832 685.576C198.832 685.576 190.094 657.938 194.012 628.187Z" fill="#6FA72E"/>
  <path d="M183.884 628.832C183.884 628.832 185.059 656.372 145.994 675.137C145.994 675.137 162.793 642.234 183.884 628.832Z" fill="#6FA72E"/>
  <path d="M169.267 632.087C169.267 632.087 132.15 626.606 125.844 634.855C119.539 643.104 112.362 845.155 112.362 845.155C112.362 845.155 137.916 839.76 156.984 839.911C160.384 839.933 163.215 837.328 163.4 833.934L172.789 664.566C172.789 664.566 146.934 684.53 132.782 688.626C132.782 688.626 145.145 654.989 169.267 632.087Z" fill="#6FA72E"/>
  <path d="M8.77047 248.447C8.77047 248.447 16.4919 357.918 13.2221 382.172C12.0407 390.965 4.54551 401.041 7.99683 400.53C11.4481 400.02 47.0762 393.385 61.3909 394.514L51.4865 271.025L8.77102 248.456L8.77047 248.447Z" fill="#6FA72E"/>
  <path d="M60.954 404.805C60.954 404.805 16.0122 404.374 13.4468 411.949C10.8813 419.525 24.3214 517.573 24.8146 521.828C25.3079 526.083 41.8621 549.885 41.8386 559.697C41.8152 569.51 39.3247 574.912 76.2354 565.762C89.1133 562.567 62.0425 404.736 62.0425 404.736" fill="#6FA72E"/>
  <path d="M37.7266 559.088C37.7266 559.088 27.9886 533.982 9.99634 532.225C9.99634 532.225 7.45921 554.042 37.7266 559.088Z" fill="#6FA72E"/>
  <path d="M29.9354 564.521C29.9354 564.521 -2.01791 548.967 -31.1629 559.117C-31.1629 559.117 5.37641 571.466 29.9354 564.521Z" fill="#6FA72E"/>
  <path d="M29.3846 571.822C29.3846 571.822 -5.97917 566.528 -23.2123 599.451C-23.2123 599.451 16.2478 586.894 29.3846 571.822Z" fill="#6FA72E"/>
  <path d="M35.2173 574.362C35.2173 574.362 10.9135 589.864 17.2249 620.424C17.2249 620.424 34.7253 598.524 35.2173 574.362Z" fill="#6FA72E"/>
  <path d="M40.5352 578.088L80.6358 577.854L101.563 728.255C101.563 728.255 92.7938 732.008 90.1525 736.249C90.1525 736.249 56.034 743.658 50.7039 737.602C45.3739 731.547 31.5915 606.563 31.5915 606.563C31.5915 606.563 39.0666 590.144 40.5352 578.088Z" fill="#6FA72E"/>
  <path d="M80.1781 743.87C80.1781 743.87 52.946 745.315 50.6391 750.116C48.3323 754.917 65.0982 894.824 65.0982 894.824C65.0982 894.824 71.2418 897.703 73.0688 902.385L115.845 899.658L101.741 746.858C101.741 746.858 97.3117 742.069 80.1866 743.869L80.1781 743.87Z" fill="#6FA72E"/>
  <path d="M65.1876 914.586L112.575 910.113L127.843 1044.75L76.3073 1048.03L65.1876 914.586Z" fill="#6FA72E"/>
</svg>
