<svg width="238" height="470" viewBox="0 0 238 470" fill="none" xmlns="http://www.w3.org/2000/svg">
  <path d="M98.8324 4.48987C98.8324 4.48987 104.471 3.80348 119.205 15.4567C119.205 15.4567 126.317 49.4143 130.079 61.8421C133.841 74.2699 133.189 80.4773 133.189 80.4773L117.228 84.9431C117.228 84.9431 113.834 85.7953 112.769 81.9858C111.703 78.1763 112.723 73.9666 112.396 71.7665C112.068 69.5664 102.799 34.6172 98.8299 4.49431L98.8324 4.48987Z" fill="#6FA72E"/>
  <path d="M150.98 377.351C150.98 377.351 159.927 372.848 169.238 370.902C170.077 370.727 170.891 371.293 171.019 372.141C172.311 380.692 178.699 422.405 182.073 433.541C185.838 445.968 185.183 452.176 185.183 452.176L169.222 456.642C169.222 456.642 165.829 457.494 164.763 453.684C163.697 449.875 164.717 445.665 164.39 443.465C164.062 441.265 154.945 407.475 150.981 377.355L150.98 377.351Z" fill="#6FA72E"/>
  <path d="M114.003 85.3664C114.003 85.3664 109.279 78.2256 92.1992 79.7092C92.1992 79.7092 99.9528 85.0439 114.003 85.3664Z" fill="#6FA72E"/>
  <path d="M113.669 86.7967C113.669 86.7967 100.746 83.7847 91.9864 93.8183C91.9864 93.8183 102.786 92.5489 113.669 86.7967Z" fill="#6FA72E"/>
  <path d="M114.622 87.5821C114.622 87.5821 103.673 90.1365 108.546 103.687C108.546 103.687 114.299 95.7682 114.622 87.5821Z" fill="#6FA72E"/>
  <path d="M115.393 87.0821C115.393 87.0821 121.846 90.1518 126.589 103.357C126.589 103.357 114.106 97.9269 115.393 87.0821Z" fill="#6FA72E"/>
  <path d="M121.312 90.0764C121.312 90.0764 120.144 88.2987 121.649 87.9751C123.153 87.6514 134.709 85.5639 134.709 85.5639C134.709 85.5639 148.822 165.231 148.491 176.962C148.387 180.686 147.161 180.266 146.447 180.402C145.732 180.538 131.519 183.047 128.756 184.333C125.993 185.619 125.454 183.92 125.669 181.501C125.883 179.082 127.232 165.797 124.372 152.833C121.512 139.868 114.276 94.8833 114.276 94.8833C114.276 94.8833 122.207 104.8 128.436 105.742C130.434 106.044 121.313 90.0799 121.313 90.0799L121.312 90.0764Z" fill="#6FA72E"/>
  <path d="M126.677 189.884C126.677 189.884 125.976 187.148 127.472 186.793C128.967 186.439 148.59 182.319 148.59 182.319C148.59 182.319 151.99 192.425 151.911 216.285C151.832 240.145 157.666 274.205 157.666 274.205C157.666 274.205 141.012 282.561 137.674 279.29C134.336 276.019 126.681 189.883 126.681 189.883L126.677 189.884Z" fill="#6FA72E"/>
  <path d="M166.04 270.207C166.04 270.207 174.811 262.144 185.633 264.152C185.633 264.152 175.636 269.881 166.04 270.207Z" fill="#6FA72E"/>
  <path d="M168.285 274.806C168.285 274.806 184.546 272.552 190.691 285.174C190.691 285.174 175.34 281.565 168.285 274.806Z" fill="#6FA72E"/>
  <path d="M165.303 276.914C165.303 276.914 178.138 282.692 172.341 300.247C172.341 300.247 166.295 289.574 165.303 276.914Z" fill="#6FA72E"/>
  <path d="M161.167 278.071C161.167 278.071 164.073 289.368 149.551 300.568C149.551 300.568 153.614 285.472 161.167 278.071Z" fill="#6FA72E"/>
  <path d="M155.402 280.703C155.402 280.703 139.556 281.695 137.671 285.664C135.786 289.633 150.568 373.901 150.568 373.901C150.568 373.901 160.673 369.423 168.579 367.81C169.988 367.52 170.931 366.193 170.71 364.772L159.714 293.838C159.714 293.838 150.766 304.374 145.267 307.313C145.267 307.313 147.429 292.302 155.402 280.703Z" fill="#6FA72E"/>
  <path d="M55.2561 135.999C55.2561 135.999 68.0713 180.636 68.8489 190.963C69.1326 194.707 66.9153 199.536 68.2991 199.021C69.6829 198.507 83.848 192.63 89.8727 191.839L74.922 141.592L55.2571 136.003L55.2561 135.999Z" fill="#6FA72E"/>
  <path d="M90.5959 196.138C90.5959 196.138 71.9545 199.908 71.5582 203.269C71.1619 206.63 85.3407 246.036 85.9187 247.754C86.4968 249.472 95.4407 257.87 96.2932 261.934C97.1457 265.998 96.5894 268.453 111.064 261.422C116.114 258.968 91.0404 196.013 91.0404 196.013" fill="#6FA72E"/>
  <path d="M94.5379 262.044C94.5379 262.044 88.3008 252.506 80.6986 253.36C80.6986 253.36 81.5653 262.614 94.5379 262.044Z" fill="#6FA72E"/>
  <path d="M91.79 264.977C91.79 264.977 77.1964 261.346 66.0238 268.108C66.0238 268.108 82.2341 270.01 91.79 264.977Z" fill="#6FA72E"/>
  <path d="M92.2035 268.048C92.2035 268.048 77.0997 268.964 72.8589 284.106C72.8589 284.106 88.0899 275.441 92.2035 268.048Z" fill="#6FA72E"/>
  <path d="M94.8408 268.587C94.8408 268.587 86.1425 277.139 91.4403 289.234C91.4403 289.234 96.7603 278.632 94.8408 268.587Z" fill="#6FA72E"/>
  <path d="M97.3695 269.661L113.948 266.041L135.827 326.46C135.827 326.46 132.526 328.784 131.806 330.772C131.806 330.772 118.333 336.837 115.595 334.798C112.857 332.76 96.1693 282.234 96.1693 282.234C96.1693 282.234 97.8209 274.781 97.3695 269.661Z" fill="#6FA72E"/>
  <path d="M128.346 334.803C128.346 334.803 117.201 337.794 116.667 339.984C116.134 342.174 135.368 398.615 135.368 398.615C135.368 398.615 138.164 399.267 139.332 401.044L156.799 396.157L137.535 334.145C137.535 334.145 135.28 332.552 128.35 334.802L128.346 334.803Z" fill="#6FA72E"/>
  <path d="M137.141 406.787L156.364 400.772L174.514 455.161L153.47 461.049L137.141 406.787Z" fill="#6FA72E"/>
</svg>
