<svg width="430" height="169" viewBox="0 0 430 169" fill="none" xmlns="http://www.w3.org/2000/svg">
  <path d="M59.497 2.02453C59.497 2.02453 80.6422 -0.726658 101.058 0.185252C102.897 0.267684 104.254 1.35992 104.029 2.5758C101.749 14.8376 90.8036 74.6888 91.3388 91.3093C91.9361 109.857 86.9795 118.146 86.9795 118.146H51.3291C51.3291 118.146 43.8049 118.012 43.8049 112.361C43.8049 106.709 48.3582 101.309 48.9555 98.1564C49.5528 95.0033 50.2509 44.9977 59.497 2.02453Z" fill="#324C0B"/>
  <path d="M369.605 2.02453C369.605 2.02453 348.46 -0.726658 328.044 0.185252C326.205 0.267684 324.848 1.35992 325.073 2.5758C327.353 14.8376 338.298 74.6888 337.763 91.3093C337.166 109.857 342.122 118.146 342.122 118.146H377.773C377.773 118.146 385.297 118.012 385.297 112.361C385.297 106.709 380.744 101.309 380.146 98.1564C379.549 95.0033 378.851 44.9977 369.605 2.02453Z" fill="#324C0B"/>
  <path d="M106.498 12.7407C106.498 12.7407 127.78 14.0652 147.649 18.8471C149.438 19.278 150.563 20.6087 150.11 21.7595C145.537 33.3629 123.399 90.036 120.76 106.454C117.816 124.776 111.371 131.971 111.371 131.971L76.373 125.184C76.373 125.184 69.0119 123.62 70.0879 118.072C71.1638 112.523 76.6617 108.089 77.8483 105.108C79.0349 102.126 89.2398 53.1677 106.498 12.7407Z" fill="#324C0B"/>
  <path d="M322.603 12.7407C322.603 12.7407 301.321 14.0652 281.452 18.8471C279.663 19.278 278.538 20.6087 278.991 21.7595C283.564 33.3629 305.702 90.036 308.341 106.454C311.286 124.776 317.73 131.971 317.73 131.971L352.728 125.184C352.728 125.184 360.089 123.62 359.013 118.072C357.937 112.523 352.439 108.089 351.253 105.108C350.066 102.126 339.861 53.1677 322.603 12.7407Z" fill="#324C0B"/>
  <path d="M118.214 40.5869C118.214 40.5869 138.59 34.3033 158.867 31.7533C160.693 31.524 162.215 32.3713 162.199 33.6077C162.023 46.0785 161.345 106.918 164.68 123.21C168.402 141.39 164.917 150.397 164.917 150.397L129.779 156.42C129.779 156.42 122.34 157.559 121.386 151.988C120.431 146.417 124.007 140.327 124.063 137.118C124.119 133.909 116.36 84.5043 118.214 40.5869Z" fill="#324C0B"/>
  <path d="M310.887 40.5869C310.887 40.5869 290.511 34.3033 270.234 31.7533C268.408 31.524 266.886 32.3713 266.902 33.6077C267.078 46.0785 267.756 106.918 264.421 123.21C260.699 141.39 264.184 150.397 264.184 150.397L299.322 156.42C299.322 156.42 306.761 157.559 307.715 151.988C308.67 146.417 305.094 140.327 305.038 137.118C304.982 133.909 312.741 84.5043 310.887 40.5869Z" fill="#324C0B"/>
  <path d="M206.047 30.5278C206.047 30.5278 187.19 20.5732 167.738 14.3059C165.986 13.7418 164.333 14.2919 164.12 15.5099C161.98 27.797 151.359 87.7065 145.059 103.096C138.029 120.27 139.783 129.768 139.783 129.768L173.194 142.204C173.194 142.204 180.292 144.704 182.264 139.407C184.235 134.11 181.851 127.461 182.392 124.298C182.932 121.135 199.721 74.0269 206.047 30.5278Z" fill="#324C0B"/>
  <path d="M222.918 30.1662C222.918 30.1662 243.128 23.3638 263.333 20.2964C265.152 20.0205 266.696 20.8286 266.711 22.065C266.853 34.5363 267.731 95.3737 271.482 111.574C275.667 129.653 272.413 138.747 272.413 138.747L237.441 145.665C237.441 145.665 230.033 146.994 228.937 141.45C227.84 135.905 231.259 129.725 231.233 126.516C231.207 123.307 222.188 74.1167 222.918 30.1662Z" fill="#324C0B"/>
  <path d="M179.947 54.3889C179.947 54.3889 198.804 44.4343 218.256 38.1669C220.007 37.6029 221.66 38.153 221.874 39.371C224.014 51.6581 234.635 111.568 240.934 126.957C247.964 144.131 246.211 153.629 246.211 153.629L212.8 166.065C212.8 166.065 205.702 168.565 203.73 163.268C201.758 157.971 204.142 151.323 203.602 148.159C203.062 144.996 186.272 97.888 179.947 54.3889Z" fill="#324C0B"/>
    <rect y="60" width="430" height="109" fill="#324C0B"/>
  <path d="M156.053 119.165H139.406V94.5559H155.227L162.258 100.761V113.892L156.053 119.165ZM152.977 113.98L157.248 109.708V102.589L144.434 99.7415V113.98H152.977ZM175.371 119.165L168.34 117.407L165.703 113.347L164.824 94.5559H171.855V112.644L175.371 115.298L182.402 113.54L181.242 94.5559H187.676V113.892L182.402 118.62L175.371 119.165ZM209.613 119.165H202.582L200.824 109.726L197.801 109.673L196.553 119.165H190.277L191.438 95.1711L202.582 94.5559L208.998 96.3137L208.365 105.103L204.34 108.618L209.613 119.165ZM195.463 105.507L201.422 104.945L205.148 99.9172L199.084 97.7903L195.428 98.2825L195.463 105.507ZM213.023 94.5559H219.703L219.949 119.165H213.023V94.5559ZM244.629 119.165H237.598L234.082 112.134H230.566L227.051 119.165H221.777L227.824 94.5911L237.598 94.6438L244.629 119.165ZM235.84 107.845L231.656 98.0715L228.809 107.845H235.84ZM267.551 119.165H261.504V115.65L253.383 103.345L252.012 119.165H245.684L247.441 94.5559H254.473L261.504 112.134L263.824 94.5559H268.535L267.551 119.165ZM274.828 94.4329L285.48 95.1008L292.582 97.9836L293.795 105.7L293.197 115.738L285.48 119.288L274.213 118.743L270.205 110.411V101.534L274.828 94.4329ZM279.557 99.3196L275.32 105.208L277.711 113.47L284.338 114.296L288.539 110.165L287.959 101.359L279.557 99.3196Z" fill="#6FA72E"/>
</svg>
