<svg width="393" height="2820" viewBox="0 0 393 2820" fill="none" xmlns="http://www.w3.org/2000/svg">
  <g opacity="0.07">
    <path d="M35.4001 0L54.0092 87.7059L40.0964 223.365H0L32.0166 88.3677L4.04608 0H35.4001ZM96.9217 223.392L91.2294 167.309L108.814 87.0792L93.5693 0H59.3805L71.9557 85.8114L58.9788 161.017L67.9655 223.365L96.9217 223.392ZM349.17 161.017L358.159 223.379H387.111L381.419 167.309L393 89.6127L385.397 0H347.356L366.355 87.0792L349.17 161.017ZM141.137 87.7059L115.761 164.386L124.88 223.365L158.967 223.398L151.287 167.309L155.389 90.0615L169.14 0H115.761L141.137 87.7059ZM214.863 0H180.585L188.93 85.8114L177.707 171.656L184.148 223.398L214.504 223.363L205.901 166.45L226.57 87.7038L214.863 0ZM240.529 223.365H269.481L263.79 167.309L292.571 87.7059L271.203 0H231.944L270.578 90.0636L231.542 161.017L240.529 223.365ZM327.95 90.0636L331.472 0H288.322L313.698 87.7059L288.322 164.386L297.441 223.365H331.737L323.848 167.309L327.95 90.0615V90.0636ZM67.9675 670.165L96.9217 670.192L91.2294 614.109L107.675 536.866L93.5693 446.8L100.738 358.432L91.2294 279.491L96.9217 223.408L67.9675 223.435L58.9809 285.783L75.4758 356.732L59.3826 446.8L80.963 536.859L58.9809 607.817L67.9675 670.165ZM240.529 670.165H269.481L263.79 614.109L292.571 534.506L271.201 446.8L292.571 359.094L263.79 279.491L269.481 223.437H240.529L231.542 285.785L270.578 356.738L231.944 446.802L270.578 536.866L231.542 607.819L240.529 670.167V670.165ZM120.01 981.306L93.5693 893.6L111.816 805.23L91.2294 726.291L96.9217 670.208L67.9675 670.235L58.9809 732.583L81.8948 803.534L59.3826 893.6L98.017 983.664L58.9809 1054.62L67.9675 1116.96L96.9217 1116.99L91.2294 1060.91L120.01 981.306ZM169.14 893.6L155.391 803.536L151.289 726.289L158.969 670.2L124.882 670.233L115.763 729.212L141.139 805.892L115.763 893.598L141.139 981.304L115.763 1057.98L124.882 1116.96L158.969 1117L151.289 1060.91L155.391 983.659L169.14 893.596V893.6ZM292.573 981.306L271.203 893.6L292.573 805.894L263.793 726.291L269.483 670.235H240.531L231.544 732.583L270.58 803.536L231.946 893.6L270.58 983.664L231.544 1054.62L240.531 1116.96H269.483L263.793 1060.91L292.573 981.306ZM40.0984 223.435H0L32.0166 358.432L4.04608 446.8L32.0166 535.168L0 670.165H40.0984L54.0113 534.506L35.4022 446.8L54.0113 359.094L40.0984 223.435ZM381.419 279.489L387.111 223.419H358.159L349.17 285.781L366.355 359.719L347.356 446.798L366.355 533.877L349.17 607.815L358.159 670.177H387.111L381.419 614.106L393 536.411L385.397 446.796L393 357.181L381.419 279.485V279.489ZM151.287 279.489L158.967 223.4L124.88 223.433L115.761 282.412L141.137 359.092L115.761 446.798L141.137 534.504L115.761 611.184L124.88 670.163L158.967 670.196L151.287 614.106L155.389 536.859L169.138 446.796L155.389 356.732L151.287 279.485V279.489ZM188.93 360.987L180.585 446.8L188.93 532.611L177.707 618.456L184.148 670.198L214.504 670.163L205.901 613.25L226.57 534.504L214.861 446.798L226.57 359.092L205.901 280.346L214.504 223.433L184.148 223.398L177.707 275.14L188.93 360.984V360.987ZM297.441 223.435L288.322 282.414L313.698 359.094L288.322 446.8L313.698 534.506L288.322 611.186L297.441 670.165H331.737L323.848 614.109L327.95 536.862L331.47 446.798L327.95 356.734L323.848 279.487L331.737 223.433H297.441V223.435ZM40.0984 670.233H0L32.0166 805.23L4.04608 893.598L32.0166 981.966L0 1116.96H40.0984L54.0113 981.304L35.4022 893.598L54.0113 805.892L40.0984 670.233ZM381.419 726.289L387.111 670.219H358.159L349.17 732.581L366.355 806.519L347.356 893.598L366.355 980.677L349.17 1054.61L358.159 1116.98H387.111L381.419 1060.91L393 983.211L385.397 893.596L393 803.981L381.419 726.285V726.289ZM188.93 807.787L180.585 893.6L188.93 979.413L177.707 1065.26L184.148 1117L214.504 1116.96L205.901 1060.05L226.57 981.306L214.861 893.6L226.57 805.894L205.901 727.148L214.504 670.235L184.148 670.2L177.707 721.942L188.93 807.787ZM297.441 670.235L288.322 729.214L313.698 805.894L288.322 893.6L313.698 981.306L288.322 1057.99L297.441 1116.96H331.737L323.848 1060.91L327.95 983.662L331.47 893.598L327.95 803.534L323.848 726.287L331.737 670.231H297.441V670.235Z" fill="#496D20"/>
    <path d="M35.4001 2234L54.0092 2146.29L40.0964 2010.64H0L32.0166 2145.63L4.04608 2234H35.4001ZM96.9217 2010.61L91.2294 2066.69L108.814 2146.92L93.5693 2234H59.3805L71.9557 2148.19L58.9788 2072.98L67.9655 2010.64L96.9217 2010.61ZM349.17 2072.98L358.159 2010.62H387.111L381.419 2066.69L393 2144.39L385.397 2234H347.356L366.355 2146.92L349.17 2072.98ZM141.137 2146.29L115.761 2069.61L124.88 2010.64L158.967 2010.6L151.287 2066.69L155.389 2143.94L169.14 2234H115.761L141.137 2146.29ZM214.863 2234H180.585L188.93 2148.19L177.707 2062.34L184.148 2010.6L214.504 2010.64L205.901 2067.55L226.57 2146.3L214.863 2234ZM240.529 2010.64H269.481L263.79 2066.69L292.571 2146.29L271.203 2234H231.944L270.578 2143.94L231.542 2072.98L240.529 2010.64ZM327.95 2143.94L331.472 2234H288.322L313.698 2146.29L288.322 2069.61L297.441 2010.64H331.737L323.848 2066.69L327.95 2143.94V2143.94ZM67.9675 1563.84L96.9217 1563.81L91.2294 1619.89L107.675 1697.13L93.5693 1787.2L100.738 1875.57L91.2294 1954.51L96.9217 2010.59L67.9675 2010.56L58.9809 1948.22L75.4758 1877.27L59.3826 1787.2L80.963 1697.14L58.9809 1626.18L67.9675 1563.84ZM240.529 1563.84H269.481L263.79 1619.89L292.571 1699.49L271.201 1787.2L292.571 1874.91L263.79 1954.51L269.481 2010.56H240.529L231.542 1948.21L270.578 1877.26L231.944 1787.2L270.578 1697.13L231.542 1626.18L240.529 1563.83V1563.84ZM120.01 1252.69L93.5693 1340.4L111.816 1428.77L91.2294 1507.71L96.9217 1563.79L67.9675 1563.76L58.9809 1501.42L81.8948 1430.47L59.3826 1340.4L98.017 1250.34L58.9809 1179.38L67.9675 1117.04L96.9217 1117.01L91.2294 1173.09L120.01 1252.69ZM169.14 1340.4L155.391 1430.46L151.289 1507.71L158.969 1563.8L124.882 1563.77L115.763 1504.79L141.139 1428.11L115.763 1340.4L141.139 1252.7L115.763 1176.02L124.882 1117.04L158.969 1117L151.289 1173.09L155.391 1250.34L169.14 1340.4V1340.4ZM292.573 1252.69L271.203 1340.4L292.573 1428.11L263.793 1507.71L269.483 1563.76H240.531L231.544 1501.42L270.58 1430.46L231.946 1340.4L270.58 1250.34L231.544 1179.38L240.531 1117.04H269.483L263.793 1173.09L292.573 1252.69ZM40.0984 2010.56H0L32.0166 1875.57L4.04608 1787.2L32.0166 1698.83L0 1563.84H40.0984L54.0113 1699.49L35.4022 1787.2L54.0113 1874.91L40.0984 2010.56ZM381.419 1954.51L387.111 2010.58H358.159L349.17 1948.22L366.355 1874.28L347.356 1787.2L366.355 1700.12L349.17 1626.18L358.159 1563.82H387.111L381.419 1619.89L393 1697.59L385.397 1787.2L393 1876.82L381.419 1954.51V1954.51ZM151.287 1954.51L158.967 2010.6L124.88 2010.57L115.761 1951.59L141.137 1874.91L115.761 1787.2L141.137 1699.5L115.761 1622.82L124.88 1563.84L158.967 1563.8L151.287 1619.89L155.389 1697.14L169.138 1787.2L155.389 1877.27L151.287 1954.51V1954.51ZM188.93 1873.01L180.585 1787.2L188.93 1701.39L177.707 1615.54L184.148 1563.8L214.504 1563.84L205.901 1620.75L226.57 1699.5L214.861 1787.2L226.57 1874.91L205.901 1953.65L214.504 2010.57L184.148 2010.6L177.707 1958.86L188.93 1873.02V1873.01ZM297.441 2010.56L288.322 1951.59L313.698 1874.91L288.322 1787.2L313.698 1699.49L288.322 1622.81L297.441 1563.84H331.737L323.848 1619.89L327.95 1697.14L331.47 1787.2L327.95 1877.27L323.848 1954.51L331.737 2010.57H297.441V2010.56ZM40.0984 1563.77H0L32.0166 1428.77L4.04608 1340.4L32.0166 1252.03L0 1117.04H40.0984L54.0113 1252.7L35.4022 1340.4L54.0113 1428.11L40.0984 1563.77ZM381.419 1507.71L387.111 1563.78H358.159L349.17 1501.42L366.355 1427.48L347.356 1340.4L366.355 1253.32L349.17 1179.39L358.159 1117.02H387.111L381.419 1173.09L393 1250.79L385.397 1340.4L393 1430.02L381.419 1507.71V1507.71ZM188.93 1426.21L180.585 1340.4L188.93 1254.59L177.707 1168.74L184.148 1117L214.504 1117.04L205.901 1173.95L226.57 1252.69L214.861 1340.4L226.57 1428.11L205.901 1506.85L214.504 1563.76L184.148 1563.8L177.707 1512.06L188.93 1426.21ZM297.441 1563.76L288.322 1504.79L313.698 1428.11L288.322 1340.4L313.698 1252.69L288.322 1176.01L297.441 1117.04H331.737L323.848 1173.09L327.95 1250.34L331.47 1340.4L327.95 1430.47L323.848 1507.71L331.737 1563.77H297.441V1563.76Z" fill="#496D20"/>
    <path d="M35.4001 2234L54.0092 2321.71L40.0964 2457.36H0L32.0166 2322.37L4.04608 2234H35.4001ZM96.9217 2457.39L91.2294 2401.31L108.814 2321.08L93.5693 2234H59.3805L71.9557 2319.81L58.9788 2395.02L67.9655 2457.36L96.9217 2457.39ZM349.17 2395.02L358.159 2457.38H387.111L381.419 2401.31L393 2323.61L385.397 2234H347.356L366.355 2321.08L349.17 2395.02ZM141.137 2321.71L115.761 2398.39L124.88 2457.36L158.967 2457.4L151.287 2401.31L155.389 2324.06L169.14 2234H115.761L141.137 2321.71ZM214.863 2234H180.585L188.93 2319.81L177.707 2405.66L184.148 2457.4L214.504 2457.36L205.901 2400.45L226.57 2321.7L214.863 2234ZM240.529 2457.36H269.481L263.79 2401.31L292.571 2321.71L271.203 2234H231.944L270.578 2324.06L231.542 2395.02L240.529 2457.36ZM327.95 2324.06L331.472 2234H288.322L313.698 2321.71L288.322 2398.39L297.441 2457.36H331.737L323.848 2401.31L327.95 2324.06V2324.06ZM67.9675 2904.16L96.9217 2904.19L91.2294 2848.11L107.675 2770.87L93.5693 2680.8L100.738 2592.43L91.2294 2513.49L96.9217 2457.41L67.9675 2457.44L58.9809 2519.78L75.4758 2590.73L59.3826 2680.8L80.963 2770.86L58.9809 2841.82L67.9675 2904.16ZM240.529 2904.16H269.481L263.79 2848.11L292.571 2768.51L271.201 2680.8L292.571 2593.09L263.79 2513.49L269.481 2457.44H240.529L231.542 2519.78L270.578 2590.74L231.944 2680.8L270.578 2770.87L231.542 2841.82L240.529 2904.17V2904.16ZM120.01 3215.31L93.5693 3127.6L111.816 3039.23L91.2294 2960.29L96.9217 2904.21L67.9675 2904.24L58.9809 2966.58L81.8948 3037.53L59.3826 3127.6L98.017 3217.66L58.9809 3288.62L67.9675 3350.96L96.9217 3350.99L91.2294 3294.91L120.01 3215.31ZM169.14 3127.6L155.391 3037.54L151.289 2960.29L158.969 2904.2L124.882 2904.23L115.763 2963.21L141.139 3039.89L115.763 3127.6L141.139 3215.3L115.763 3291.98L124.882 3350.96L158.969 3351L151.289 3294.91L155.391 3217.66L169.14 3127.6V3127.6ZM292.573 3215.31L271.203 3127.6L292.573 3039.89L263.793 2960.29L269.483 2904.24H240.531L231.544 2966.58L270.58 3037.54L231.946 3127.6L270.58 3217.66L231.544 3288.62L240.531 3350.96H269.483L263.793 3294.91L292.573 3215.31ZM40.0984 2457.44H0L32.0166 2592.43L4.04608 2680.8L32.0166 2769.17L0 2904.16H40.0984L54.0113 2768.51L35.4022 2680.8L54.0113 2593.09L40.0984 2457.44ZM381.419 2513.49L387.111 2457.42H358.159L349.17 2519.78L366.355 2593.72L347.356 2680.8L366.355 2767.88L349.17 2841.81L358.159 2904.18H387.111L381.419 2848.11L393 2770.41L385.397 2680.8L393 2591.18L381.419 2513.49V2513.49ZM151.287 2513.49L158.967 2457.4L124.88 2457.43L115.761 2516.41L141.137 2593.09L115.761 2680.8L141.137 2768.5L115.761 2845.18L124.88 2904.16L158.967 2904.2L151.287 2848.11L155.389 2770.86L169.138 2680.8L155.389 2590.73L151.287 2513.49V2513.49ZM188.93 2594.99L180.585 2680.8L188.93 2766.61L177.707 2852.46L184.148 2904.2L214.504 2904.16L205.901 2847.25L226.57 2768.5L214.861 2680.8L226.57 2593.09L205.901 2514.35L214.504 2457.43L184.148 2457.4L177.707 2509.14L188.93 2594.98V2594.99ZM297.441 2457.44L288.322 2516.41L313.698 2593.09L288.322 2680.8L313.698 2768.51L288.322 2845.19L297.441 2904.16H331.737L323.848 2848.11L327.95 2770.86L331.47 2680.8L327.95 2590.73L323.848 2513.49L331.737 2457.43H297.441V2457.44ZM40.0984 2904.23H0L32.0166 3039.23L4.04608 3127.6L32.0166 3215.97L0 3350.96H40.0984L54.0113 3215.3L35.4022 3127.6L54.0113 3039.89L40.0984 2904.23ZM381.419 2960.29L387.111 2904.22H358.159L349.17 2966.58L366.355 3040.52L347.356 3127.6L366.355 3214.68L349.17 3288.61L358.159 3350.98H387.111L381.419 3294.91L393 3217.21L385.397 3127.6L393 3037.98L381.419 2960.29V2960.29ZM188.93 3041.79L180.585 3127.6L188.93 3213.41L177.707 3299.26L184.148 3351L214.504 3350.96L205.901 3294.05L226.57 3215.31L214.861 3127.6L226.57 3039.89L205.901 2961.15L214.504 2904.24L184.148 2904.2L177.707 2955.94L188.93 3041.79ZM297.441 2904.24L288.322 2963.21L313.698 3039.89L288.322 3127.6L313.698 3215.31L288.322 3291.99L297.441 3350.96H331.737L323.848 3294.91L327.95 3217.66L331.47 3127.6L327.95 3037.53L323.848 2960.29L331.737 2904.23H297.441V2904.24Z" fill="#496D20"/>
  </g>
</svg>
